M48
; DRILL file {KiCad 7.0.11} date Thu Mar 20 11:18:40 2025
; FORMAT={-:-/ absolute / inch / decimal}
; #@! TF.CreationDate,2025-03-20T11:18:40+09:00
; #@! TF.GenerationSoftware,Kicad,Pcbnew,7.0.11
; #@! TF.FileFunction,Plated,1,2,PTH
FMAT,2
INCH
; #@! TA.AperFunction,Plated,PTH,ViaDrill
T1C0.0157
; #@! TA.AperFunction,Plated,PTH,ComponentDrill
T2C0.0236
; #@! TA.AperFunction,Plated,PTH,ComponentDrill
T3C0.0315
; #@! TA.AperFunction,Plated,PTH,ComponentDrill
T4C0.0354
; #@! TA.AperFunction,Plated,PTH,ComponentDrill
T5C0.0374
; #@! TA.AperFunction,Plated,PTH,ComponentDrill
T6C0.0394
; #@! TA.AperFunction,Plated,PTH,ComponentDrill
T7C0.0433
; #@! TA.AperFunction,Plated,PTH,ComponentDrill
T8C0.1063
%
G90
G05
T1
X2.697Y-1.216
X2.698Y-1.904
X2.729Y-2.457
X2.752Y-3.144
X2.762Y-5.102
X2.766Y-3.928
X2.774Y-5.792
X2.83Y-1.46
X2.9Y-2.62
X2.935Y-1.201
X3.06Y-4.71
X3.08Y-3.39
X3.123Y-2.454
X3.216Y-1.519
X3.236Y-2.109
X3.238Y-1.004
X3.2598Y-1.878
X3.288Y-6.248
X3.294Y-5.796
X3.31Y-1.23
X3.31Y-1.93
X3.31Y-4.95
X3.32Y-2.98
X3.342Y-4.51
X3.35Y-4.07
X3.3819Y-2.0472
X3.394Y-1.82
X3.458Y-1.206
X3.49Y-2.106
X3.492Y-1.91
X3.51Y-1.02
X3.51Y-3.5
X3.54Y-5.42
X3.678Y-1.1386
X3.7571Y-1.1429
X3.842Y-3.17
X3.87Y-1.17
X3.876Y-3.908
X3.876Y-5.07
X3.878Y-1.0512
X3.88Y-1.34
X3.89Y-4.46
X3.92Y-5.59
X3.94Y-1.06
X3.966Y-6.252
X3.971Y-2.066
X3.98Y-1.37
X3.98Y-2.17
X4.025Y-2.703
X4.026Y-1.008
X4.036Y-1.754
X4.04Y-2.014
X4.0581Y-1.6772
X4.12Y-1.34
X4.1255Y-1.7446
X4.13Y-1.82
X4.13Y-2.16
X4.14Y-1.68
X4.14Y-1.96
X4.14Y-2.31
X4.155Y-1.454
X4.22Y-4.13
X4.22Y-4.83
X4.229Y-1.766
X4.24Y-5.96
X4.245Y-1.297
X4.26Y-1.19
X4.27Y-1.93
X4.27Y-2.02
X4.29Y-2.51
X4.29Y-3.43
X4.3Y-3.64
X4.308Y-2.242
X4.37Y-2.03
X4.3819Y-1.4764
X4.382Y-5.666
X4.42Y-1.32
X4.426Y-4.53
X4.47Y-1.22
X4.518Y-1.668
X4.6Y-4.99
X4.609Y-1.521
X4.618Y-2.512
X4.62Y-2.81
X4.668Y-1.37
X4.7126Y-1.9409
X4.72Y-2.23
X4.73Y-1.41
X4.752Y-1.208
X4.7677Y-1.7047
X4.7677Y-1.9843
X4.77Y-5.36
X4.81Y-2.37
X4.8189Y-1.8543
X4.822Y-3.914
X4.8228Y-1.4016
X4.8228Y-1.7559
X4.836Y-3.164
X4.87Y-1.24
X4.876Y-5.092
X4.876Y-6.276
X4.9Y-1.05
X4.906Y-1.008
X4.92Y-5.76
X4.9228Y-1.2181
X4.95Y-2.71
X4.9785Y-1.2737
X5.044Y-1.237
X5.05Y-1.03
X5.05Y-4.43
X5.055Y-1.632
X5.058Y-1.451
X5.1309Y-1.7077
X5.14Y-3.46
X5.2Y-1.19
X5.2057Y-1.0642
X5.228Y-1.689
X5.2291Y-1.0958
X5.23Y-1.78
X5.233Y-1.506
X5.2598Y-1.1791
X5.261Y-1.286
X5.3Y-3.0
X5.33Y-1.7
X5.36Y-6.21
X5.37Y-1.87
X5.37Y-5.8
X5.3701Y-2.9843
X5.4Y-5.38
X5.42Y-1.0653
X5.4409Y-1.8583
X5.4409Y-1.9291
X5.45Y-1.58
X5.46Y-1.79
X5.47Y-1.39
X5.47Y-1.48
X5.48Y-1.89
X5.49Y-1.0
X5.49Y-1.1
X5.51Y-1.95
X5.53Y-1.7
X5.57Y-3.26
X5.58Y-4.57
X5.58Y-5.04
X5.59Y-3.61
X5.59Y-4.11
X5.64Y-1.19
X5.6425Y-1.0591
X5.68Y-1.69
X5.69Y-0.99
X5.75Y-3.11
X5.75Y-3.51
X5.82Y-5.21
X5.825Y-6.258
X5.831Y-4.683
X5.831Y-5.657
X5.837Y-3.884
X5.872Y-1.13
X5.878Y-2.008
X5.89Y-4.26
X5.94Y-5.91
X6.06Y-2.28
X6.12Y-3.52
X6.12Y-4.1
X6.13Y-4.57
X6.13Y-5.09
X6.18Y-1.74
X6.19Y-2.62
X6.21Y-5.53
X6.23Y-1.21
X6.27Y-3.56
X6.328Y-5.968
X6.35Y-1.41
X6.385Y-3.492
X6.39Y-4.78
X6.392Y-3.711
X6.398Y-5.106
X6.45Y-5.4
X6.45Y-5.75
X6.512Y-2.327
X6.512Y-4.102
X6.512Y-4.474
X6.535Y-1.63
X6.549Y-5.249
X6.622Y-5.7264
X6.626Y-4.8366
X6.65Y-5.55
X6.65Y-5.6
X6.682Y-3.06
X6.692Y-3.786
X6.7047Y-5.1673
X6.7087Y-5.3957
X6.71Y-4.012
X6.716Y-4.691
X6.72Y-3.42
X6.724Y-5.018
X6.725Y-4.838
X6.73Y-4.22
X6.73Y-5.71
X6.7323Y-3.8858
X6.7362Y-3.9488
X6.7559Y-5.3957
X6.76Y-2.06
X6.77Y-6.08
X6.78Y-5.6
X6.7953Y-5.6594
X6.8Y-5.53
X6.807Y-5.17
X6.8073Y-5.3959
X6.82Y-5.94
X6.83Y-5.7
X6.8327Y-3.9488
X6.85Y-3.5
X6.85Y-3.9
X6.857Y-4.072
X6.868Y-4.551
X6.868Y-4.891
X6.9Y-2.73
X6.908Y-5.171
X6.9094Y-4.9673
X6.913Y-5.023
X6.9252Y-3.9882
X6.93Y-5.7
X6.93Y-5.88
X6.9685Y-5.6594
X7.02Y-1.81
X7.0236Y-5.1791
X7.0236Y-5.3799
X7.03Y-1.35
X7.038Y-4.021
X7.047Y-4.548
X7.053Y-4.88
X7.054Y-5.015
X7.064Y-4.284
X7.08Y-6.26
X7.1Y-3.26
X7.117Y-2.989
X7.14Y-5.91
X7.153Y-5.243
X7.178Y-1.13
X7.18Y-3.66
X7.18Y-3.89
X7.197Y-4.748
X7.2Y-5.082
X7.204Y-1.994
X7.32Y-6.06
X7.326Y-4.351
X7.36Y-1.64
X7.36Y-6.32
X7.37Y-2.99
X7.3937Y-4.8307
X7.3937Y-5.7205
X7.4Y-3.39
X7.42Y-5.55
X7.42Y-5.6
X7.449Y-4.024
X7.467Y-4.596
X7.4764Y-5.1654
X7.4764Y-5.3898
X7.48Y-3.75
X7.48Y-3.9
X7.48Y-5.71
X7.485Y-4.828
X7.489Y-5.013
X7.4981Y-3.9488
X7.5276Y-5.3898
X7.54Y-5.6
X7.55Y-6.09
X7.5669Y-5.6535
X7.57Y-5.52
X7.574Y-5.165
X7.5748Y-5.3898
X7.577Y-5.025
X7.5886Y-3.9488
X7.59Y-5.85
X7.6Y-2.457
X7.6Y-4.04
X7.6Y-5.7
X7.61Y-3.8
X7.61Y-3.89
X7.61Y-4.49
X7.61Y-4.85
X7.64Y-2.09
X7.65Y-2.72
X7.66Y-4.91
X7.67Y-5.94
X7.674Y-5.164
X7.677Y-5.027
X7.6772Y-4.9606
X7.68Y-3.14
X7.69Y-3.53
X7.71Y-5.71
X7.71Y-6.09
X7.7323Y-5.6535
X7.768Y-3.862
X7.7913Y-5.1772
X7.7913Y-5.378
X7.81Y-1.57
X7.82Y-1.369
X7.823Y-5.01
X7.84Y-4.28
X7.84Y-4.57
X7.84Y-4.84
X7.86Y-5.6
X7.88Y-5.38
X7.91Y-2.68
X7.91Y-3.02
X7.91Y-3.31
X7.919Y-4.178
X7.92Y-3.85
X7.93Y-2.42
X7.94Y-3.47
X7.94Y-6.29
X7.95Y-4.48
X7.95Y-4.98
X7.952Y-5.143
X7.971Y-5.474
X8.05Y-5.81
X8.084Y-6.168
X8.15Y-2.07
X8.2Y-1.22
X8.26Y-1.82
X8.289Y-2.53
X8.31Y-3.06
X8.32Y-5.32
X8.36Y-1.45
X8.361Y-4.834
X8.37Y-3.72
X8.37Y-4.4
X8.414Y-5.754
X8.478Y-6.261
X8.72Y-5.336
X8.724Y-5.967
X8.726Y-4.254
X8.732Y-3.05
X8.749Y-1.319
X8.754Y-2.016
X8.77Y-2.45
T3
X3.2916Y-2.34
X3.39Y-2.34
T4
X3.9787Y-1.2402
X4.0787Y-1.2402
X4.1787Y-1.2402
T5
X6.6811Y-6.0079
X6.7795Y-6.0079
X6.878Y-6.0079
X7.5197Y-6.0079
X7.6181Y-6.0079
X7.7165Y-6.0079
T6
X3.9024Y-1.4193
X3.9024Y-1.5193
X3.9024Y-1.6193
X3.9024Y-1.7193
X3.9024Y-1.8193
X3.9024Y-1.9193
X3.9024Y-2.1122
X3.9024Y-2.2122
X3.9024Y-2.3122
X3.9024Y-2.4122
X3.9024Y-2.5122
X3.9024Y-2.6122
X4.9244Y-1.4193
X4.9244Y-1.5193
X4.9244Y-1.6193
X4.9244Y-1.7193
X4.9244Y-1.8193
X4.9244Y-1.9193
X4.9244Y-2.1122
X4.9244Y-2.2122
X4.9244Y-2.3122
X4.9244Y-2.4122
X4.9244Y-2.5122
X4.9244Y-2.6122
X5.4031Y-3.0789
X5.4031Y-3.1789
X5.4031Y-3.2789
X5.4031Y-3.3789
X5.4031Y-3.4789
X5.4031Y-3.5789
X5.4031Y-3.6789
X5.4031Y-3.7789
X5.4031Y-3.8789
X5.4031Y-3.9789
X5.4031Y-4.0789
X5.4031Y-4.1789
X5.4031Y-4.2789
X5.4031Y-4.3789
X5.4031Y-4.4789
X5.4031Y-4.5789
X5.4031Y-4.6789
X5.4031Y-4.7789
X5.4031Y-4.8789
X5.4031Y-4.9789
X5.5031Y-3.0789
X5.5031Y-3.1789
X5.5031Y-3.2789
X5.5031Y-3.3789
X5.5031Y-3.4789
X5.5031Y-3.5789
X5.5031Y-3.6789
X5.5031Y-3.7789
X5.5031Y-3.8789
X5.5031Y-3.9789
X5.5031Y-4.0789
X5.5031Y-4.1789
X5.5031Y-4.2789
X5.5031Y-4.3789
X5.5031Y-4.4789
X5.5031Y-4.5789
X5.5031Y-4.6789
X5.5031Y-4.7789
X5.5031Y-4.8789
X5.5031Y-4.9789
X6.2102Y-2.7252
X6.2102Y-2.8252
X6.2102Y-2.9252
X6.2102Y-3.0252
X6.2102Y-3.1252
X6.2102Y-3.2252
X6.2102Y-3.3252
X6.2102Y-3.4252
X6.2102Y-3.6252
X6.2102Y-3.7252
X6.2102Y-3.8252
X6.2102Y-3.9252
X6.2102Y-4.0252
X6.2102Y-4.1252
X6.2102Y-4.2252
X6.2102Y-4.3252
X6.2102Y-4.4252
X6.2102Y-4.5252
X6.2102Y-4.6252
X6.2102Y-4.7252
X6.2102Y-4.8252
X6.2102Y-4.9252
X6.2102Y-5.0252
X6.3102Y-2.7252
X6.3102Y-2.8252
X6.3102Y-2.9252
X6.3102Y-3.0252
X6.3102Y-3.1252
X6.3102Y-3.2252
X6.3102Y-3.3252
X6.3102Y-3.4252
X6.3102Y-3.6252
X6.3102Y-3.7252
X6.3102Y-3.8252
X6.3102Y-3.9252
X6.3102Y-4.0252
X6.3102Y-4.1252
X6.3102Y-4.2252
X6.3102Y-4.3252
X6.3102Y-4.4252
X6.3102Y-4.5252
X6.3102Y-4.6252
X6.3102Y-4.7252
X6.3102Y-4.8252
X6.3102Y-4.9252
X6.3102Y-5.0252
X8.0102Y-2.3752
X8.0102Y-2.4752
X8.0102Y-2.5752
X8.0102Y-2.6752
X8.0102Y-2.7752
X8.0102Y-2.8752
X8.0102Y-2.9752
X8.0102Y-3.0752
X8.0102Y-3.1752
X8.0102Y-3.2752
X8.0102Y-3.4252
X8.0102Y-3.5252
X8.0102Y-3.6252
X8.0102Y-3.7252
X8.0102Y-3.8252
X8.0102Y-3.9252
X8.0102Y-4.0252
X8.0102Y-4.1252
X8.0102Y-4.2252
X8.0102Y-4.3252
X8.0102Y-4.4252
X8.0102Y-4.5252
X8.0102Y-4.6252
X8.0102Y-4.7252
X8.0102Y-4.8252
X8.0102Y-4.9252
X8.0102Y-5.0252
X8.1102Y-2.3752
X8.1102Y-2.4752
X8.1102Y-2.5752
X8.1102Y-2.6752
X8.1102Y-2.7752
X8.1102Y-2.8752
X8.1102Y-2.9752
X8.1102Y-3.0752
X8.1102Y-3.1752
X8.1102Y-3.2752
X8.1102Y-3.4252
X8.1102Y-3.5252
X8.1102Y-3.6252
X8.1102Y-3.7252
X8.1102Y-3.8252
X8.1102Y-3.9252
X8.1102Y-4.0252
X8.1102Y-4.1252
X8.1102Y-4.2252
X8.1102Y-4.3252
X8.1102Y-4.4252
X8.1102Y-4.5252
X8.1102Y-4.6252
X8.1102Y-4.7252
X8.1102Y-4.8252
X8.1102Y-4.9252
X8.1102Y-5.0252
T7
X5.1388Y-1.236
X5.1388Y-1.336
X5.1388Y-1.436
X5.1388Y-1.536
X5.1388Y-1.636
X5.3553Y-1.236
X5.3553Y-1.336
X5.3553Y-1.436
X5.3553Y-1.536
X5.3553Y-1.636
X5.5719Y-1.2376
X5.5719Y-1.3376
X5.5719Y-1.4376
X5.5719Y-1.5376
X5.5719Y-1.6376
T8
X3.1475Y-1.3962
X3.431Y-1.3962
T2
G00X3.0235Y-1.1383
M15
G01X3.0235Y-1.1817
M16
G05
G00X3.555Y-1.1383
M15
G01X3.555Y-1.1817
M16
G05
M30
