%TF.GenerationSoftware,KiCad,Pcbnew,7.0.11*%
%TF.CreationDate,2025-03-20T11:18:49+09:00*%
%TF.ProjectId,RDC_Humanoid_Logic,5244435f-4875-46d6-916e-6f69645f4c6f,rev?*%
%TF.SameCoordinates,Original*%
%TF.FileFunction,Soldermask,Bot*%
%TF.FilePolarity,Negative*%
%FSLAX46Y46*%
G04 Gerber Fmt 4.6, Leading zero omitted, Abs format (unit mm)*
G04 Created by KiCad (PCBNEW 7.0.11) date 2025-03-20 11:18:49*
%MOMM*%
%LPD*%
G01*
G04 APERTURE LIST*
G04 Aperture macros list*
%AMRoundRect*
0 Rectangle with rounded corners*
0 $1 Rounding radius*
0 $2 $3 $4 $5 $6 $7 $8 $9 X,Y pos of 4 corners*
0 Add a 4 corners polygon primitive as box body*
4,1,4,$2,$3,$4,$5,$6,$7,$8,$9,$2,$3,0*
0 Add four circle primitives for the rounded corners*
1,1,$1+$1,$2,$3*
1,1,$1+$1,$4,$5*
1,1,$1+$1,$6,$7*
1,1,$1+$1,$8,$9*
0 Add four rect primitives between the rounded corners*
20,1,$1+$1,$2,$3,$4,$5,0*
20,1,$1+$1,$4,$5,$6,$7,0*
20,1,$1+$1,$6,$7,$8,$9,0*
20,1,$1+$1,$8,$9,$2,$3,0*%
G04 Aperture macros list end*
%ADD10C,2.100000*%
%ADD11O,2.800000X2.000000*%
%ADD12RoundRect,0.250000X-0.600000X-0.725000X0.600000X-0.725000X0.600000X0.725000X-0.600000X0.725000X0*%
%ADD13O,1.700000X1.950000*%
%ADD14C,2.000000*%
%ADD15R,1.700000X1.700000*%
%ADD16O,1.700000X1.700000*%
%ADD17C,3.200000*%
%ADD18R,1.600000X1.600000*%
%ADD19C,1.600000*%
%ADD20R,0.900000X2.000000*%
%ADD21RoundRect,1.025000X-1.025000X-1.025000X1.025000X-1.025000X1.025000X1.025000X-1.025000X1.025000X0*%
%ADD22C,4.100000*%
G04 APERTURE END LIST*
D10*
%TO.C,U3*%
X157740000Y-69220000D03*
X160280000Y-69220000D03*
X157740000Y-71760000D03*
X160280000Y-71760000D03*
X157740000Y-74300000D03*
X160280000Y-74300000D03*
X157740000Y-76840000D03*
X160280000Y-76840000D03*
X157740000Y-79380000D03*
X160280000Y-79380000D03*
X157740000Y-81920000D03*
X160280000Y-81920000D03*
X157740000Y-84460000D03*
X160280000Y-84460000D03*
X157740000Y-87000000D03*
X160280000Y-87000000D03*
X157740000Y-92080000D03*
X160280000Y-92080000D03*
X157740000Y-94620000D03*
X160280000Y-94620000D03*
X157740000Y-97160000D03*
X160280000Y-97160000D03*
X157740000Y-99700000D03*
X160280000Y-99700000D03*
X157740000Y-102240000D03*
X160280000Y-102240000D03*
X157740000Y-104780000D03*
X160280000Y-104780000D03*
X157740000Y-107320000D03*
X160280000Y-107320000D03*
X157740000Y-109860000D03*
X160280000Y-109860000D03*
X157740000Y-112400000D03*
X160280000Y-112400000D03*
X157740000Y-114940000D03*
X160280000Y-114940000D03*
X157740000Y-117480000D03*
X160280000Y-117480000D03*
X157740000Y-120020000D03*
X160280000Y-120020000D03*
X157740000Y-122560000D03*
X160280000Y-122560000D03*
X157740000Y-125100000D03*
X160280000Y-125100000D03*
X157740000Y-127640000D03*
X160280000Y-127640000D03*
X203460000Y-60330000D03*
X206000000Y-60330000D03*
X203460000Y-62870000D03*
X206000000Y-62870000D03*
X203460000Y-65410000D03*
X206000000Y-65410000D03*
X203460000Y-67950000D03*
X206000000Y-67950000D03*
X203460000Y-70490000D03*
X206000000Y-70490000D03*
X203460000Y-73030000D03*
X206000000Y-73030000D03*
X203460000Y-75570000D03*
X206000000Y-75570000D03*
X203460000Y-78110000D03*
X206000000Y-78110000D03*
X203460000Y-80650000D03*
X206000000Y-80650000D03*
X203460000Y-83190000D03*
X206000000Y-83190000D03*
X203460000Y-87000000D03*
X206000000Y-87000000D03*
X203460000Y-89540000D03*
X206000000Y-89540000D03*
X203460000Y-92080000D03*
X206000000Y-92080000D03*
X203460000Y-94620000D03*
X206000000Y-94620000D03*
X203460000Y-97160000D03*
X206000000Y-97160000D03*
X203460000Y-99700000D03*
X206000000Y-99700000D03*
X203460000Y-102240000D03*
X206000000Y-102240000D03*
X203460000Y-104780000D03*
X206000000Y-104780000D03*
X203460000Y-107320000D03*
X206000000Y-107320000D03*
X203460000Y-109860000D03*
X206000000Y-109860000D03*
X203460000Y-112400000D03*
X206000000Y-112400000D03*
X203460000Y-114940000D03*
X206000000Y-114940000D03*
X203460000Y-117480000D03*
X206000000Y-117480000D03*
X203460000Y-120020000D03*
X206000000Y-120020000D03*
X203460000Y-122560000D03*
X206000000Y-122560000D03*
X203460000Y-125100000D03*
X206000000Y-125100000D03*
X203460000Y-127640000D03*
X206000000Y-127640000D03*
%TD*%
D11*
%TO.C,J3*%
X193500000Y-159100000D03*
D12*
X191000000Y-152600000D03*
D13*
X193500000Y-152600000D03*
X196000000Y-152600000D03*
%TD*%
D10*
%TO.C,for_PG1*%
X101060000Y-31500000D03*
X103600000Y-31500000D03*
X106140000Y-31500000D03*
%TD*%
D14*
%TO.C,SW1*%
X130525000Y-41555000D03*
X130525000Y-31395000D03*
X130525000Y-39015000D03*
X130525000Y-36475000D03*
X130525000Y-33935000D03*
%TD*%
%TO.C,SW3*%
X141525000Y-41595000D03*
X141525000Y-31435000D03*
X141525000Y-39055000D03*
X141525000Y-36515000D03*
X141525000Y-33975000D03*
%TD*%
D15*
%TO.C,J4*%
X137237500Y-78205000D03*
D16*
X139777500Y-78205000D03*
X137237500Y-80745000D03*
X139777500Y-80745000D03*
X137237500Y-83285000D03*
X139777500Y-83285000D03*
X137237500Y-85825000D03*
X139777500Y-85825000D03*
X137237500Y-88365000D03*
X139777500Y-88365000D03*
X137237500Y-90905000D03*
X139777500Y-90905000D03*
X137237500Y-93445000D03*
X139777500Y-93445000D03*
X137237500Y-95985000D03*
X139777500Y-95985000D03*
X137237500Y-98525000D03*
X139777500Y-98525000D03*
X137237500Y-101065000D03*
X139777500Y-101065000D03*
X137237500Y-103605000D03*
X139777500Y-103605000D03*
X137237500Y-106145000D03*
X139777500Y-106145000D03*
X137237500Y-108685000D03*
X139777500Y-108685000D03*
X137237500Y-111225000D03*
X139777500Y-111225000D03*
X137237500Y-113765000D03*
X139777500Y-113765000D03*
X137237500Y-116305000D03*
X139777500Y-116305000D03*
X137237500Y-118845000D03*
X139777500Y-118845000D03*
X137237500Y-121385000D03*
X139777500Y-121385000D03*
X137237500Y-123925000D03*
X139777500Y-123925000D03*
X137237500Y-126465000D03*
X139777500Y-126465000D03*
%TD*%
D11*
%TO.C,J2*%
X172200000Y-159100000D03*
D12*
X169700000Y-152600000D03*
D13*
X172200000Y-152600000D03*
X174700000Y-152600000D03*
%TD*%
D10*
%TO.C,to_STM1*%
X99120000Y-36050000D03*
X99120000Y-38590000D03*
X99120000Y-41130000D03*
X99120000Y-43670000D03*
X99120000Y-46210000D03*
X99120000Y-48750000D03*
X125080000Y-48750000D03*
X125080000Y-46210000D03*
X125080000Y-43670000D03*
X125080000Y-41130000D03*
X125080000Y-38590000D03*
X125080000Y-36050000D03*
%TD*%
D17*
%TO.C,H1*%
X71042500Y-27760000D03*
%TD*%
D10*
%TO.C,to_RPI1*%
X99120000Y-53650000D03*
X99120000Y-56190000D03*
X99120000Y-58730000D03*
X99120000Y-61270000D03*
X99120000Y-63810000D03*
X99120000Y-66350000D03*
X125080000Y-66350000D03*
X125080000Y-63810000D03*
X125080000Y-61270000D03*
X125080000Y-58730000D03*
X125080000Y-56190000D03*
X125080000Y-53650000D03*
%TD*%
D14*
%TO.C,SW2*%
X136025000Y-41555000D03*
X136025000Y-31395000D03*
X136025000Y-39015000D03*
X136025000Y-36475000D03*
X136025000Y-33935000D03*
%TD*%
D17*
%TO.C,H4*%
X221012500Y-157830000D03*
%TD*%
%TO.C,H2*%
X221012500Y-27830000D03*
%TD*%
%TO.C,H3*%
X71012500Y-157830000D03*
%TD*%
D18*
%TO.C,C1*%
X83606000Y-59436000D03*
D19*
X86106000Y-59436000D03*
%TD*%
D20*
%TO.C,J1*%
X76797000Y-29464000D03*
X90297000Y-29464000D03*
D21*
X79947000Y-35464000D03*
D22*
X87147000Y-35464000D03*
%TD*%
M02*
