%TF.GenerationSoftware,KiCad,Pcbnew,7.0.11*%
%TF.CreationDate,2025-03-20T11:18:49+09:00*%
%TF.ProjectId,RDC_Humanoid_Logic,5244435f-4875-46d6-916e-6f69645f4c6f,rev?*%
%TF.SameCoordinates,Original*%
%TF.FileFunction,Soldermask,Top*%
%TF.FilePolarity,Negative*%
%FSLAX46Y46*%
G04 Gerber Fmt 4.6, Leading zero omitted, Abs format (unit mm)*
G04 Created by KiCad (PCBNEW 7.0.11) date 2025-03-20 11:18:49*
%MOMM*%
%LPD*%
G01*
G04 APERTURE LIST*
G04 Aperture macros list*
%AMRoundRect*
0 Rectangle with rounded corners*
0 $1 Rounding radius*
0 $2 $3 $4 $5 $6 $7 $8 $9 X,Y pos of 4 corners*
0 Add a 4 corners polygon primitive as box body*
4,1,4,$2,$3,$4,$5,$6,$7,$8,$9,$2,$3,0*
0 Add four circle primitives for the rounded corners*
1,1,$1+$1,$2,$3*
1,1,$1+$1,$4,$5*
1,1,$1+$1,$6,$7*
1,1,$1+$1,$8,$9*
0 Add four rect primitives between the rounded corners*
20,1,$1+$1,$2,$3,$4,$5,0*
20,1,$1+$1,$4,$5,$6,$7,0*
20,1,$1+$1,$6,$7,$8,$9,0*
20,1,$1+$1,$8,$9,$2,$3,0*%
G04 Aperture macros list end*
%ADD10C,2.100000*%
%ADD11RoundRect,0.200000X-0.275000X0.200000X-0.275000X-0.200000X0.275000X-0.200000X0.275000X0.200000X0*%
%ADD12RoundRect,0.225000X-0.250000X0.225000X-0.250000X-0.225000X0.250000X-0.225000X0.250000X0.225000X0*%
%ADD13O,2.800000X2.000000*%
%ADD14RoundRect,0.250000X-0.600000X-0.725000X0.600000X-0.725000X0.600000X0.725000X-0.600000X0.725000X0*%
%ADD15O,1.700000X1.950000*%
%ADD16RoundRect,0.225000X0.225000X0.250000X-0.225000X0.250000X-0.225000X-0.250000X0.225000X-0.250000X0*%
%ADD17C,2.000000*%
%ADD18RoundRect,0.200000X0.200000X0.275000X-0.200000X0.275000X-0.200000X-0.275000X0.200000X-0.275000X0*%
%ADD19RoundRect,0.218750X-0.218750X-0.256250X0.218750X-0.256250X0.218750X0.256250X-0.218750X0.256250X0*%
%ADD20RoundRect,0.225000X-0.225000X-0.375000X0.225000X-0.375000X0.225000X0.375000X-0.225000X0.375000X0*%
%ADD21RoundRect,0.225000X0.250000X-0.225000X0.250000X0.225000X-0.250000X0.225000X-0.250000X-0.225000X0*%
%ADD22R,1.700000X1.700000*%
%ADD23O,1.700000X1.700000*%
%ADD24RoundRect,0.250000X0.850000X0.350000X-0.850000X0.350000X-0.850000X-0.350000X0.850000X-0.350000X0*%
%ADD25RoundRect,0.249997X2.950003X2.650003X-2.950003X2.650003X-2.950003X-2.650003X2.950003X-2.650003X0*%
%ADD26RoundRect,0.218750X0.381250X-0.218750X0.381250X0.218750X-0.381250X0.218750X-0.381250X-0.218750X0*%
%ADD27RoundRect,0.218750X0.218750X0.381250X-0.218750X0.381250X-0.218750X-0.381250X0.218750X-0.381250X0*%
%ADD28RoundRect,0.150000X-0.150000X0.875000X-0.150000X-0.875000X0.150000X-0.875000X0.150000X0.875000X0*%
%ADD29C,3.200000*%
%ADD30RoundRect,0.200000X-0.200000X-0.275000X0.200000X-0.275000X0.200000X0.275000X-0.200000X0.275000X0*%
%ADD31RoundRect,0.200000X0.275000X-0.200000X0.275000X0.200000X-0.275000X0.200000X-0.275000X-0.200000X0*%
%ADD32RoundRect,0.218750X-0.218750X-0.381250X0.218750X-0.381250X0.218750X0.381250X-0.218750X0.381250X0*%
%ADD33RoundRect,0.150000X0.725000X0.150000X-0.725000X0.150000X-0.725000X-0.150000X0.725000X-0.150000X0*%
%ADD34R,1.600000X1.600000*%
%ADD35C,1.600000*%
%ADD36R,0.900000X2.000000*%
%ADD37RoundRect,1.025000X-1.025000X-1.025000X1.025000X-1.025000X1.025000X1.025000X-1.025000X1.025000X0*%
%ADD38C,4.100000*%
%ADD39RoundRect,0.225000X0.225000X0.375000X-0.225000X0.375000X-0.225000X-0.375000X0.225000X-0.375000X0*%
G04 APERTURE END LIST*
D10*
%TO.C,U3*%
X157740000Y-69220000D03*
X160280000Y-69220000D03*
X157740000Y-71760000D03*
X160280000Y-71760000D03*
X157740000Y-74300000D03*
X160280000Y-74300000D03*
X157740000Y-76840000D03*
X160280000Y-76840000D03*
X157740000Y-79380000D03*
X160280000Y-79380000D03*
X157740000Y-81920000D03*
X160280000Y-81920000D03*
X157740000Y-84460000D03*
X160280000Y-84460000D03*
X157740000Y-87000000D03*
X160280000Y-87000000D03*
X157740000Y-92080000D03*
X160280000Y-92080000D03*
X157740000Y-94620000D03*
X160280000Y-94620000D03*
X157740000Y-97160000D03*
X160280000Y-97160000D03*
X157740000Y-99700000D03*
X160280000Y-99700000D03*
X157740000Y-102240000D03*
X160280000Y-102240000D03*
X157740000Y-104780000D03*
X160280000Y-104780000D03*
X157740000Y-107320000D03*
X160280000Y-107320000D03*
X157740000Y-109860000D03*
X160280000Y-109860000D03*
X157740000Y-112400000D03*
X160280000Y-112400000D03*
X157740000Y-114940000D03*
X160280000Y-114940000D03*
X157740000Y-117480000D03*
X160280000Y-117480000D03*
X157740000Y-120020000D03*
X160280000Y-120020000D03*
X157740000Y-122560000D03*
X160280000Y-122560000D03*
X157740000Y-125100000D03*
X160280000Y-125100000D03*
X157740000Y-127640000D03*
X160280000Y-127640000D03*
X203460000Y-60330000D03*
X206000000Y-60330000D03*
X203460000Y-62870000D03*
X206000000Y-62870000D03*
X203460000Y-65410000D03*
X206000000Y-65410000D03*
X203460000Y-67950000D03*
X206000000Y-67950000D03*
X203460000Y-70490000D03*
X206000000Y-70490000D03*
X203460000Y-73030000D03*
X206000000Y-73030000D03*
X203460000Y-75570000D03*
X206000000Y-75570000D03*
X203460000Y-78110000D03*
X206000000Y-78110000D03*
X203460000Y-80650000D03*
X206000000Y-80650000D03*
X203460000Y-83190000D03*
X206000000Y-83190000D03*
X203460000Y-87000000D03*
X206000000Y-87000000D03*
X203460000Y-89540000D03*
X206000000Y-89540000D03*
X203460000Y-92080000D03*
X206000000Y-92080000D03*
X203460000Y-94620000D03*
X206000000Y-94620000D03*
X203460000Y-97160000D03*
X206000000Y-97160000D03*
X203460000Y-99700000D03*
X206000000Y-99700000D03*
X203460000Y-102240000D03*
X206000000Y-102240000D03*
X203460000Y-104780000D03*
X206000000Y-104780000D03*
X203460000Y-107320000D03*
X206000000Y-107320000D03*
X203460000Y-109860000D03*
X206000000Y-109860000D03*
X203460000Y-112400000D03*
X206000000Y-112400000D03*
X203460000Y-114940000D03*
X206000000Y-114940000D03*
X203460000Y-117480000D03*
X206000000Y-117480000D03*
X203460000Y-120020000D03*
X206000000Y-120020000D03*
X203460000Y-122560000D03*
X206000000Y-122560000D03*
X203460000Y-125100000D03*
X206000000Y-125100000D03*
X203460000Y-127640000D03*
X206000000Y-127640000D03*
%TD*%
D11*
%TO.C,R15*%
X83000000Y-50375000D03*
X83000000Y-52025000D03*
%TD*%
D12*
%TO.C,C15*%
X197900000Y-128800000D03*
X197900000Y-130350000D03*
%TD*%
D13*
%TO.C,J3*%
X193500000Y-159100000D03*
D14*
X191000000Y-152600000D03*
D15*
X193500000Y-152600000D03*
X196000000Y-152600000D03*
%TD*%
D16*
%TO.C,C5*%
X166575000Y-127450000D03*
X165025000Y-127450000D03*
%TD*%
D10*
%TO.C,for_PG1*%
X101060000Y-31500000D03*
X103600000Y-31500000D03*
X106140000Y-31500000D03*
%TD*%
D16*
%TO.C,C4*%
X166575000Y-125950000D03*
X165025000Y-125950000D03*
%TD*%
D17*
%TO.C,SW1*%
X130525000Y-41555000D03*
X130525000Y-31395000D03*
X130525000Y-39015000D03*
X130525000Y-36475000D03*
X130525000Y-33935000D03*
%TD*%
D18*
%TO.C,R3*%
X169621200Y-127457200D03*
X167971200Y-127457200D03*
%TD*%
D19*
%TO.C,D4*%
X135100000Y-25557500D03*
X136675000Y-25557500D03*
%TD*%
%TO.C,D2*%
X129637500Y-25531250D03*
X131212500Y-25531250D03*
%TD*%
D18*
%TO.C,R14*%
X103825000Y-53600000D03*
X102175000Y-53600000D03*
%TD*%
D20*
%TO.C,D5*%
X134375000Y-44275000D03*
X137675000Y-44275000D03*
%TD*%
D17*
%TO.C,SW3*%
X141525000Y-41595000D03*
X141525000Y-31435000D03*
X141525000Y-39055000D03*
X141525000Y-36515000D03*
X141525000Y-33975000D03*
%TD*%
D16*
%TO.C,C12*%
X186075000Y-124300000D03*
X184525000Y-124300000D03*
%TD*%
D21*
%TO.C,C7*%
X178400000Y-139350000D03*
X178400000Y-137800000D03*
%TD*%
D12*
%TO.C,C6*%
X178400000Y-128950000D03*
X178400000Y-130500000D03*
%TD*%
D21*
%TO.C,C16*%
X197900000Y-139200000D03*
X197900000Y-137650000D03*
%TD*%
D22*
%TO.C,J4*%
X137237500Y-78205000D03*
D23*
X139777500Y-78205000D03*
X137237500Y-80745000D03*
X139777500Y-80745000D03*
X137237500Y-83285000D03*
X139777500Y-83285000D03*
X137237500Y-85825000D03*
X139777500Y-85825000D03*
X137237500Y-88365000D03*
X139777500Y-88365000D03*
X137237500Y-90905000D03*
X139777500Y-90905000D03*
X137237500Y-93445000D03*
X139777500Y-93445000D03*
X137237500Y-95985000D03*
X139777500Y-95985000D03*
X137237500Y-98525000D03*
X139777500Y-98525000D03*
X137237500Y-101065000D03*
X139777500Y-101065000D03*
X137237500Y-103605000D03*
X139777500Y-103605000D03*
X137237500Y-106145000D03*
X139777500Y-106145000D03*
X137237500Y-108685000D03*
X139777500Y-108685000D03*
X137237500Y-111225000D03*
X139777500Y-111225000D03*
X137237500Y-113765000D03*
X139777500Y-113765000D03*
X137237500Y-116305000D03*
X139777500Y-116305000D03*
X137237500Y-118845000D03*
X139777500Y-118845000D03*
X137237500Y-121385000D03*
X139777500Y-121385000D03*
X137237500Y-123925000D03*
X139777500Y-123925000D03*
X137237500Y-126465000D03*
X139777500Y-126465000D03*
%TD*%
D19*
%TO.C,D3*%
X140732500Y-25400000D03*
X142307500Y-25400000D03*
%TD*%
D24*
%TO.C,Q2*%
X79200000Y-60180000D03*
D25*
X72900000Y-57900000D03*
D24*
X79200000Y-55620000D03*
%TD*%
D26*
%TO.C,FB3*%
X180000000Y-131050000D03*
X180000000Y-128925000D03*
%TD*%
D13*
%TO.C,J2*%
X172200000Y-159100000D03*
D14*
X169700000Y-152600000D03*
D15*
X172200000Y-152600000D03*
X174700000Y-152600000D03*
%TD*%
D12*
%TO.C,C2*%
X81500000Y-50425000D03*
X81500000Y-51975000D03*
%TD*%
D27*
%TO.C,FB7*%
X189625000Y-124400000D03*
X187500000Y-124400000D03*
%TD*%
D26*
%TO.C,FB8*%
X199500000Y-130900000D03*
X199500000Y-128775000D03*
%TD*%
D11*
%TO.C,R7*%
X121200000Y-47675000D03*
X121200000Y-49325000D03*
%TD*%
D18*
%TO.C,R4*%
X175625000Y-141750000D03*
X173975000Y-141750000D03*
%TD*%
D28*
%TO.C,U1*%
X176715000Y-129500000D03*
X175445000Y-129500000D03*
X174175000Y-129500000D03*
X172905000Y-129500000D03*
X171635000Y-129500000D03*
X170365000Y-129500000D03*
X169095000Y-129500000D03*
X167825000Y-129500000D03*
X166555000Y-129500000D03*
X165285000Y-129500000D03*
X165285000Y-138800000D03*
X166555000Y-138800000D03*
X167825000Y-138800000D03*
X169095000Y-138800000D03*
X170365000Y-138800000D03*
X171635000Y-138800000D03*
X172905000Y-138800000D03*
X174175000Y-138800000D03*
X175445000Y-138800000D03*
X176715000Y-138800000D03*
%TD*%
D10*
%TO.C,to_STM1*%
X99120000Y-36050000D03*
X99120000Y-38590000D03*
X99120000Y-41130000D03*
X99120000Y-43670000D03*
X99120000Y-46210000D03*
X99120000Y-48750000D03*
X125080000Y-48750000D03*
X125080000Y-46210000D03*
X125080000Y-43670000D03*
X125080000Y-41130000D03*
X125080000Y-38590000D03*
X125080000Y-36050000D03*
%TD*%
D21*
%TO.C,C18*%
X199400000Y-139200000D03*
X199400000Y-137650000D03*
%TD*%
D29*
%TO.C,H1*%
X71042500Y-27760000D03*
%TD*%
D30*
%TO.C,R10*%
X140675000Y-26900000D03*
X142325000Y-26900000D03*
%TD*%
D10*
%TO.C,to_RPI1*%
X99120000Y-53650000D03*
X99120000Y-56190000D03*
X99120000Y-58730000D03*
X99120000Y-61270000D03*
X99120000Y-63810000D03*
X99120000Y-66350000D03*
X125080000Y-66350000D03*
X125080000Y-63810000D03*
X125080000Y-61270000D03*
X125080000Y-58730000D03*
X125080000Y-56190000D03*
X125080000Y-53650000D03*
%TD*%
D16*
%TO.C,C20*%
X186075000Y-143700000D03*
X184525000Y-143700000D03*
%TD*%
D31*
%TO.C,R12*%
X86000000Y-54825000D03*
X86000000Y-53175000D03*
%TD*%
D16*
%TO.C,C10*%
X166575000Y-142350000D03*
X165025000Y-142350000D03*
%TD*%
D30*
%TO.C,R1*%
X81175000Y-46500000D03*
X82825000Y-46500000D03*
%TD*%
D32*
%TO.C,FB5*%
X165000000Y-145450000D03*
X167125000Y-145450000D03*
%TD*%
D16*
%TO.C,C14*%
X186075000Y-127300000D03*
X184525000Y-127300000D03*
%TD*%
D27*
%TO.C,FB6*%
X186625000Y-122700000D03*
X184500000Y-122700000D03*
%TD*%
D32*
%TO.C,FB10*%
X184500000Y-145300000D03*
X186625000Y-145300000D03*
%TD*%
%TO.C,FB4*%
X168000000Y-143750000D03*
X170125000Y-143750000D03*
%TD*%
D24*
%TO.C,Q1*%
X79200000Y-53180000D03*
D25*
X72900000Y-50900000D03*
D24*
X79200000Y-48620000D03*
%TD*%
D21*
%TO.C,C9*%
X179900000Y-139350000D03*
X179900000Y-137800000D03*
%TD*%
D16*
%TO.C,C17*%
X186075000Y-140700000D03*
X184525000Y-140700000D03*
%TD*%
%TO.C,C8*%
X166575000Y-140850000D03*
X165025000Y-140850000D03*
%TD*%
D33*
%TO.C,U4*%
X119250000Y-47580000D03*
X119250000Y-46310000D03*
X119250000Y-45040000D03*
X119250000Y-43770000D03*
X119250000Y-42500000D03*
X119250000Y-41230000D03*
X119250000Y-39960000D03*
X119250000Y-38690000D03*
X119250000Y-37420000D03*
X109700000Y-37420000D03*
X109700000Y-38690000D03*
X109700000Y-39960000D03*
X109700000Y-41230000D03*
X109700000Y-42500000D03*
X109700000Y-43770000D03*
X109700000Y-45040000D03*
X109700000Y-46310000D03*
X109700000Y-47580000D03*
%TD*%
D18*
%TO.C,R5*%
X189115200Y-127330200D03*
X187465200Y-127330200D03*
%TD*%
D17*
%TO.C,SW2*%
X136025000Y-41555000D03*
X136025000Y-31395000D03*
X136025000Y-39015000D03*
X136025000Y-36475000D03*
X136025000Y-33935000D03*
%TD*%
D16*
%TO.C,C13*%
X186075000Y-125800000D03*
X184525000Y-125800000D03*
%TD*%
D29*
%TO.C,H4*%
X221012500Y-157830000D03*
%TD*%
%TO.C,H2*%
X221012500Y-27830000D03*
%TD*%
%TO.C,H3*%
X71012500Y-157830000D03*
%TD*%
D16*
%TO.C,C11*%
X166575000Y-143850000D03*
X165025000Y-143850000D03*
%TD*%
D34*
%TO.C,C1*%
X83606000Y-59436000D03*
D35*
X86106000Y-59436000D03*
%TD*%
D31*
%TO.C,R2*%
X84500000Y-52025000D03*
X84500000Y-50375000D03*
%TD*%
D18*
%TO.C,R13*%
X103925000Y-36100000D03*
X102275000Y-36100000D03*
%TD*%
D16*
%TO.C,C19*%
X186075000Y-142200000D03*
X184525000Y-142200000D03*
%TD*%
D28*
%TO.C,U2*%
X196215000Y-129350000D03*
X194945000Y-129350000D03*
X193675000Y-129350000D03*
X192405000Y-129350000D03*
X191135000Y-129350000D03*
X189865000Y-129350000D03*
X188595000Y-129350000D03*
X187325000Y-129350000D03*
X186055000Y-129350000D03*
X184785000Y-129350000D03*
X184785000Y-138650000D03*
X186055000Y-138650000D03*
X187325000Y-138650000D03*
X188595000Y-138650000D03*
X189865000Y-138650000D03*
X191135000Y-138650000D03*
X192405000Y-138650000D03*
X193675000Y-138650000D03*
X194945000Y-138650000D03*
X196215000Y-138650000D03*
%TD*%
D16*
%TO.C,C3*%
X166575000Y-124450000D03*
X165025000Y-124450000D03*
%TD*%
D27*
%TO.C,FB1*%
X167125000Y-122850000D03*
X165000000Y-122850000D03*
%TD*%
D31*
%TO.C,R8*%
X121200000Y-46225000D03*
X121200000Y-44575000D03*
%TD*%
D30*
%TO.C,R11*%
X135042500Y-27057500D03*
X136692500Y-27057500D03*
%TD*%
D27*
%TO.C,FB2*%
X170100000Y-124550000D03*
X167975000Y-124550000D03*
%TD*%
D32*
%TO.C,FB9*%
X187500000Y-143600000D03*
X189625000Y-143600000D03*
%TD*%
D36*
%TO.C,J1*%
X76797000Y-29464000D03*
X90297000Y-29464000D03*
D37*
X79947000Y-35464000D03*
D38*
X87147000Y-35464000D03*
%TD*%
D18*
%TO.C,R6*%
X195125000Y-141600000D03*
X193475000Y-141600000D03*
%TD*%
D30*
%TO.C,R9*%
X129580000Y-27031250D03*
X131230000Y-27031250D03*
%TD*%
D39*
%TO.C,D1*%
X86180200Y-39243000D03*
X82880200Y-39243000D03*
%TD*%
M02*
