%TF.GenerationSoftware,KiCad,Pcbnew,7.0.11*%
%TF.CreationDate,2025-03-20T11:18:49+09:00*%
%TF.ProjectId,RDC_Humanoid_Logic,5244435f-4875-46d6-916e-6f69645f4c6f,rev?*%
%TF.SameCoordinates,Original*%
%TF.FileFunction,Legend,Bot*%
%TF.FilePolarity,Positive*%
%FSLAX46Y46*%
G04 Gerber Fmt 4.6, Leading zero omitted, Abs format (unit mm)*
G04 Created by KiCad (PCBNEW 7.0.11) date 2025-03-20 11:18:49*
%MOMM*%
%LPD*%
G01*
G04 APERTURE LIST*
%ADD10C,0.150000*%
%ADD11C,0.300000*%
G04 APERTURE END LIST*
D10*
X194671792Y-157254580D02*
X194719411Y-157302200D01*
X194719411Y-157302200D02*
X194862268Y-157349819D01*
X194862268Y-157349819D02*
X194957506Y-157349819D01*
X194957506Y-157349819D02*
X195100363Y-157302200D01*
X195100363Y-157302200D02*
X195195601Y-157206961D01*
X195195601Y-157206961D02*
X195243220Y-157111723D01*
X195243220Y-157111723D02*
X195290839Y-156921247D01*
X195290839Y-156921247D02*
X195290839Y-156778390D01*
X195290839Y-156778390D02*
X195243220Y-156587914D01*
X195243220Y-156587914D02*
X195195601Y-156492676D01*
X195195601Y-156492676D02*
X195100363Y-156397438D01*
X195100363Y-156397438D02*
X194957506Y-156349819D01*
X194957506Y-156349819D02*
X194862268Y-156349819D01*
X194862268Y-156349819D02*
X194719411Y-156397438D01*
X194719411Y-156397438D02*
X194671792Y-156445057D01*
X194290839Y-157064104D02*
X193814649Y-157064104D01*
X194386077Y-157349819D02*
X194052744Y-156349819D01*
X194052744Y-156349819D02*
X193719411Y-157349819D01*
X193386077Y-157349819D02*
X193386077Y-156349819D01*
X193386077Y-156349819D02*
X192814649Y-157349819D01*
X192814649Y-157349819D02*
X192814649Y-156349819D01*
X192386077Y-156445057D02*
X192338458Y-156397438D01*
X192338458Y-156397438D02*
X192243220Y-156349819D01*
X192243220Y-156349819D02*
X192005125Y-156349819D01*
X192005125Y-156349819D02*
X191909887Y-156397438D01*
X191909887Y-156397438D02*
X191862268Y-156445057D01*
X191862268Y-156445057D02*
X191814649Y-156540295D01*
X191814649Y-156540295D02*
X191814649Y-156635533D01*
X191814649Y-156635533D02*
X191862268Y-156778390D01*
X191862268Y-156778390D02*
X192433696Y-157349819D01*
X192433696Y-157349819D02*
X191814649Y-157349819D01*
X173081792Y-157254580D02*
X173129411Y-157302200D01*
X173129411Y-157302200D02*
X173272268Y-157349819D01*
X173272268Y-157349819D02*
X173367506Y-157349819D01*
X173367506Y-157349819D02*
X173510363Y-157302200D01*
X173510363Y-157302200D02*
X173605601Y-157206961D01*
X173605601Y-157206961D02*
X173653220Y-157111723D01*
X173653220Y-157111723D02*
X173700839Y-156921247D01*
X173700839Y-156921247D02*
X173700839Y-156778390D01*
X173700839Y-156778390D02*
X173653220Y-156587914D01*
X173653220Y-156587914D02*
X173605601Y-156492676D01*
X173605601Y-156492676D02*
X173510363Y-156397438D01*
X173510363Y-156397438D02*
X173367506Y-156349819D01*
X173367506Y-156349819D02*
X173272268Y-156349819D01*
X173272268Y-156349819D02*
X173129411Y-156397438D01*
X173129411Y-156397438D02*
X173081792Y-156445057D01*
X172700839Y-157064104D02*
X172224649Y-157064104D01*
X172796077Y-157349819D02*
X172462744Y-156349819D01*
X172462744Y-156349819D02*
X172129411Y-157349819D01*
X171796077Y-157349819D02*
X171796077Y-156349819D01*
X171796077Y-156349819D02*
X171224649Y-157349819D01*
X171224649Y-157349819D02*
X171224649Y-156349819D01*
X170224649Y-157349819D02*
X170796077Y-157349819D01*
X170510363Y-157349819D02*
X170510363Y-156349819D01*
X170510363Y-156349819D02*
X170605601Y-156492676D01*
X170605601Y-156492676D02*
X170700839Y-156587914D01*
X170700839Y-156587914D02*
X170796077Y-156635533D01*
D11*
X214337584Y-29949638D02*
X215004251Y-28997257D01*
X215480441Y-29949638D02*
X215480441Y-27949638D01*
X215480441Y-27949638D02*
X214718536Y-27949638D01*
X214718536Y-27949638D02*
X214528060Y-28044876D01*
X214528060Y-28044876D02*
X214432822Y-28140114D01*
X214432822Y-28140114D02*
X214337584Y-28330590D01*
X214337584Y-28330590D02*
X214337584Y-28616304D01*
X214337584Y-28616304D02*
X214432822Y-28806780D01*
X214432822Y-28806780D02*
X214528060Y-28902019D01*
X214528060Y-28902019D02*
X214718536Y-28997257D01*
X214718536Y-28997257D02*
X215480441Y-28997257D01*
X213480441Y-29949638D02*
X213480441Y-27949638D01*
X213480441Y-27949638D02*
X213004251Y-27949638D01*
X213004251Y-27949638D02*
X212718536Y-28044876D01*
X212718536Y-28044876D02*
X212528060Y-28235352D01*
X212528060Y-28235352D02*
X212432822Y-28425828D01*
X212432822Y-28425828D02*
X212337584Y-28806780D01*
X212337584Y-28806780D02*
X212337584Y-29092495D01*
X212337584Y-29092495D02*
X212432822Y-29473447D01*
X212432822Y-29473447D02*
X212528060Y-29663923D01*
X212528060Y-29663923D02*
X212718536Y-29854400D01*
X212718536Y-29854400D02*
X213004251Y-29949638D01*
X213004251Y-29949638D02*
X213480441Y-29949638D01*
X210337584Y-29759161D02*
X210432822Y-29854400D01*
X210432822Y-29854400D02*
X210718536Y-29949638D01*
X210718536Y-29949638D02*
X210909012Y-29949638D01*
X210909012Y-29949638D02*
X211194727Y-29854400D01*
X211194727Y-29854400D02*
X211385203Y-29663923D01*
X211385203Y-29663923D02*
X211480441Y-29473447D01*
X211480441Y-29473447D02*
X211575679Y-29092495D01*
X211575679Y-29092495D02*
X211575679Y-28806780D01*
X211575679Y-28806780D02*
X211480441Y-28425828D01*
X211480441Y-28425828D02*
X211385203Y-28235352D01*
X211385203Y-28235352D02*
X211194727Y-28044876D01*
X211194727Y-28044876D02*
X210909012Y-27949638D01*
X210909012Y-27949638D02*
X210718536Y-27949638D01*
X210718536Y-27949638D02*
X210432822Y-28044876D01*
X210432822Y-28044876D02*
X210337584Y-28140114D01*
X209956632Y-30140114D02*
X208432822Y-30140114D01*
X207289964Y-28902019D02*
X207004250Y-28997257D01*
X207004250Y-28997257D02*
X206909012Y-29092495D01*
X206909012Y-29092495D02*
X206813774Y-29282971D01*
X206813774Y-29282971D02*
X206813774Y-29568685D01*
X206813774Y-29568685D02*
X206909012Y-29759161D01*
X206909012Y-29759161D02*
X207004250Y-29854400D01*
X207004250Y-29854400D02*
X207194726Y-29949638D01*
X207194726Y-29949638D02*
X207956631Y-29949638D01*
X207956631Y-29949638D02*
X207956631Y-27949638D01*
X207956631Y-27949638D02*
X207289964Y-27949638D01*
X207289964Y-27949638D02*
X207099488Y-28044876D01*
X207099488Y-28044876D02*
X207004250Y-28140114D01*
X207004250Y-28140114D02*
X206909012Y-28330590D01*
X206909012Y-28330590D02*
X206909012Y-28521066D01*
X206909012Y-28521066D02*
X207004250Y-28711542D01*
X207004250Y-28711542D02*
X207099488Y-28806780D01*
X207099488Y-28806780D02*
X207289964Y-28902019D01*
X207289964Y-28902019D02*
X207956631Y-28902019D01*
X205956631Y-29949638D02*
X205956631Y-28616304D01*
X205956631Y-27949638D02*
X206051869Y-28044876D01*
X206051869Y-28044876D02*
X205956631Y-28140114D01*
X205956631Y-28140114D02*
X205861393Y-28044876D01*
X205861393Y-28044876D02*
X205956631Y-27949638D01*
X205956631Y-27949638D02*
X205956631Y-28140114D01*
X205004250Y-28616304D02*
X205004250Y-30616304D01*
X205004250Y-28711542D02*
X204813774Y-28616304D01*
X204813774Y-28616304D02*
X204432821Y-28616304D01*
X204432821Y-28616304D02*
X204242345Y-28711542D01*
X204242345Y-28711542D02*
X204147107Y-28806780D01*
X204147107Y-28806780D02*
X204051869Y-28997257D01*
X204051869Y-28997257D02*
X204051869Y-29568685D01*
X204051869Y-29568685D02*
X204147107Y-29759161D01*
X204147107Y-29759161D02*
X204242345Y-29854400D01*
X204242345Y-29854400D02*
X204432821Y-29949638D01*
X204432821Y-29949638D02*
X204813774Y-29949638D01*
X204813774Y-29949638D02*
X205004250Y-29854400D01*
X202432821Y-29854400D02*
X202623297Y-29949638D01*
X202623297Y-29949638D02*
X203004250Y-29949638D01*
X203004250Y-29949638D02*
X203194726Y-29854400D01*
X203194726Y-29854400D02*
X203289964Y-29663923D01*
X203289964Y-29663923D02*
X203289964Y-28902019D01*
X203289964Y-28902019D02*
X203194726Y-28711542D01*
X203194726Y-28711542D02*
X203004250Y-28616304D01*
X203004250Y-28616304D02*
X202623297Y-28616304D01*
X202623297Y-28616304D02*
X202432821Y-28711542D01*
X202432821Y-28711542D02*
X202337583Y-28902019D01*
X202337583Y-28902019D02*
X202337583Y-29092495D01*
X202337583Y-29092495D02*
X203289964Y-29282971D01*
X200623297Y-29949638D02*
X200623297Y-27949638D01*
X200623297Y-29854400D02*
X200813773Y-29949638D01*
X200813773Y-29949638D02*
X201194726Y-29949638D01*
X201194726Y-29949638D02*
X201385202Y-29854400D01*
X201385202Y-29854400D02*
X201480440Y-29759161D01*
X201480440Y-29759161D02*
X201575678Y-29568685D01*
X201575678Y-29568685D02*
X201575678Y-28997257D01*
X201575678Y-28997257D02*
X201480440Y-28806780D01*
X201480440Y-28806780D02*
X201385202Y-28711542D01*
X201385202Y-28711542D02*
X201194726Y-28616304D01*
X201194726Y-28616304D02*
X200813773Y-28616304D01*
X200813773Y-28616304D02*
X200623297Y-28711542D01*
X198813773Y-29949638D02*
X198813773Y-28902019D01*
X198813773Y-28902019D02*
X198909011Y-28711542D01*
X198909011Y-28711542D02*
X199099487Y-28616304D01*
X199099487Y-28616304D02*
X199480440Y-28616304D01*
X199480440Y-28616304D02*
X199670916Y-28711542D01*
X198813773Y-29854400D02*
X199004249Y-29949638D01*
X199004249Y-29949638D02*
X199480440Y-29949638D01*
X199480440Y-29949638D02*
X199670916Y-29854400D01*
X199670916Y-29854400D02*
X199766154Y-29663923D01*
X199766154Y-29663923D02*
X199766154Y-29473447D01*
X199766154Y-29473447D02*
X199670916Y-29282971D01*
X199670916Y-29282971D02*
X199480440Y-29187733D01*
X199480440Y-29187733D02*
X199004249Y-29187733D01*
X199004249Y-29187733D02*
X198813773Y-29092495D01*
X197575678Y-29949638D02*
X197766154Y-29854400D01*
X197766154Y-29854400D02*
X197861392Y-29663923D01*
X197861392Y-29663923D02*
X197861392Y-27949638D01*
X197289964Y-30140114D02*
X195766154Y-30140114D01*
X194147106Y-29949638D02*
X194813773Y-28997257D01*
X195289963Y-29949638D02*
X195289963Y-27949638D01*
X195289963Y-27949638D02*
X194528058Y-27949638D01*
X194528058Y-27949638D02*
X194337582Y-28044876D01*
X194337582Y-28044876D02*
X194242344Y-28140114D01*
X194242344Y-28140114D02*
X194147106Y-28330590D01*
X194147106Y-28330590D02*
X194147106Y-28616304D01*
X194147106Y-28616304D02*
X194242344Y-28806780D01*
X194242344Y-28806780D02*
X194337582Y-28902019D01*
X194337582Y-28902019D02*
X194528058Y-28997257D01*
X194528058Y-28997257D02*
X195289963Y-28997257D01*
X193004249Y-29949638D02*
X193194725Y-29854400D01*
X193194725Y-29854400D02*
X193289963Y-29759161D01*
X193289963Y-29759161D02*
X193385201Y-29568685D01*
X193385201Y-29568685D02*
X193385201Y-28997257D01*
X193385201Y-28997257D02*
X193289963Y-28806780D01*
X193289963Y-28806780D02*
X193194725Y-28711542D01*
X193194725Y-28711542D02*
X193004249Y-28616304D01*
X193004249Y-28616304D02*
X192718534Y-28616304D01*
X192718534Y-28616304D02*
X192528058Y-28711542D01*
X192528058Y-28711542D02*
X192432820Y-28806780D01*
X192432820Y-28806780D02*
X192337582Y-28997257D01*
X192337582Y-28997257D02*
X192337582Y-29568685D01*
X192337582Y-29568685D02*
X192432820Y-29759161D01*
X192432820Y-29759161D02*
X192528058Y-29854400D01*
X192528058Y-29854400D02*
X192718534Y-29949638D01*
X192718534Y-29949638D02*
X193004249Y-29949638D01*
X191480439Y-29949638D02*
X191480439Y-27949638D01*
X191480439Y-28711542D02*
X191289963Y-28616304D01*
X191289963Y-28616304D02*
X190909010Y-28616304D01*
X190909010Y-28616304D02*
X190718534Y-28711542D01*
X190718534Y-28711542D02*
X190623296Y-28806780D01*
X190623296Y-28806780D02*
X190528058Y-28997257D01*
X190528058Y-28997257D02*
X190528058Y-29568685D01*
X190528058Y-29568685D02*
X190623296Y-29759161D01*
X190623296Y-29759161D02*
X190718534Y-29854400D01*
X190718534Y-29854400D02*
X190909010Y-29949638D01*
X190909010Y-29949638D02*
X191289963Y-29949638D01*
X191289963Y-29949638D02*
X191480439Y-29854400D01*
X189385201Y-29949638D02*
X189575677Y-29854400D01*
X189575677Y-29854400D02*
X189670915Y-29759161D01*
X189670915Y-29759161D02*
X189766153Y-29568685D01*
X189766153Y-29568685D02*
X189766153Y-28997257D01*
X189766153Y-28997257D02*
X189670915Y-28806780D01*
X189670915Y-28806780D02*
X189575677Y-28711542D01*
X189575677Y-28711542D02*
X189385201Y-28616304D01*
X189385201Y-28616304D02*
X189099486Y-28616304D01*
X189099486Y-28616304D02*
X188909010Y-28711542D01*
X188909010Y-28711542D02*
X188813772Y-28806780D01*
X188813772Y-28806780D02*
X188718534Y-28997257D01*
X188718534Y-28997257D02*
X188718534Y-29568685D01*
X188718534Y-29568685D02*
X188813772Y-29759161D01*
X188813772Y-29759161D02*
X188909010Y-29854400D01*
X188909010Y-29854400D02*
X189099486Y-29949638D01*
X189099486Y-29949638D02*
X189385201Y-29949638D01*
X188147105Y-28616304D02*
X187385201Y-28616304D01*
X187861391Y-27949638D02*
X187861391Y-29663923D01*
X187861391Y-29663923D02*
X187766153Y-29854400D01*
X187766153Y-29854400D02*
X187575677Y-29949638D01*
X187575677Y-29949638D02*
X187385201Y-29949638D01*
X215480441Y-32407733D02*
X213956632Y-32407733D01*
X210337584Y-32979161D02*
X210432822Y-33074400D01*
X210432822Y-33074400D02*
X210718536Y-33169638D01*
X210718536Y-33169638D02*
X210909012Y-33169638D01*
X210909012Y-33169638D02*
X211194727Y-33074400D01*
X211194727Y-33074400D02*
X211385203Y-32883923D01*
X211385203Y-32883923D02*
X211480441Y-32693447D01*
X211480441Y-32693447D02*
X211575679Y-32312495D01*
X211575679Y-32312495D02*
X211575679Y-32026780D01*
X211575679Y-32026780D02*
X211480441Y-31645828D01*
X211480441Y-31645828D02*
X211385203Y-31455352D01*
X211385203Y-31455352D02*
X211194727Y-31264876D01*
X211194727Y-31264876D02*
X210909012Y-31169638D01*
X210909012Y-31169638D02*
X210718536Y-31169638D01*
X210718536Y-31169638D02*
X210432822Y-31264876D01*
X210432822Y-31264876D02*
X210337584Y-31360114D01*
X209480441Y-33169638D02*
X209480441Y-31836304D01*
X209480441Y-31169638D02*
X209575679Y-31264876D01*
X209575679Y-31264876D02*
X209480441Y-31360114D01*
X209480441Y-31360114D02*
X209385203Y-31264876D01*
X209385203Y-31264876D02*
X209480441Y-31169638D01*
X209480441Y-31169638D02*
X209480441Y-31360114D01*
X208528060Y-33169638D02*
X208528060Y-31836304D01*
X208528060Y-32217257D02*
X208432822Y-32026780D01*
X208432822Y-32026780D02*
X208337584Y-31931542D01*
X208337584Y-31931542D02*
X208147108Y-31836304D01*
X208147108Y-31836304D02*
X207956631Y-31836304D01*
X206432822Y-33074400D02*
X206623298Y-33169638D01*
X206623298Y-33169638D02*
X207004251Y-33169638D01*
X207004251Y-33169638D02*
X207194727Y-33074400D01*
X207194727Y-33074400D02*
X207289965Y-32979161D01*
X207289965Y-32979161D02*
X207385203Y-32788685D01*
X207385203Y-32788685D02*
X207385203Y-32217257D01*
X207385203Y-32217257D02*
X207289965Y-32026780D01*
X207289965Y-32026780D02*
X207194727Y-31931542D01*
X207194727Y-31931542D02*
X207004251Y-31836304D01*
X207004251Y-31836304D02*
X206623298Y-31836304D01*
X206623298Y-31836304D02*
X206432822Y-31931542D01*
X204718536Y-31836304D02*
X204718536Y-33169638D01*
X205575679Y-31836304D02*
X205575679Y-32883923D01*
X205575679Y-32883923D02*
X205480441Y-33074400D01*
X205480441Y-33074400D02*
X205289965Y-33169638D01*
X205289965Y-33169638D02*
X205004250Y-33169638D01*
X205004250Y-33169638D02*
X204813774Y-33074400D01*
X204813774Y-33074400D02*
X204718536Y-32979161D01*
X203766155Y-33169638D02*
X203766155Y-31836304D01*
X203766155Y-31169638D02*
X203861393Y-31264876D01*
X203861393Y-31264876D02*
X203766155Y-31360114D01*
X203766155Y-31360114D02*
X203670917Y-31264876D01*
X203670917Y-31264876D02*
X203766155Y-31169638D01*
X203766155Y-31169638D02*
X203766155Y-31360114D01*
X203099488Y-31836304D02*
X202337584Y-31836304D01*
X202813774Y-31169638D02*
X202813774Y-32883923D01*
X202813774Y-32883923D02*
X202718536Y-33074400D01*
X202718536Y-33074400D02*
X202528060Y-33169638D01*
X202528060Y-33169638D02*
X202337584Y-33169638D01*
X200147107Y-33169638D02*
X200147107Y-31169638D01*
X200147107Y-31169638D02*
X199004250Y-33169638D01*
X199004250Y-33169638D02*
X199004250Y-31169638D01*
X197194726Y-33169638D02*
X197194726Y-32122019D01*
X197194726Y-32122019D02*
X197289964Y-31931542D01*
X197289964Y-31931542D02*
X197480440Y-31836304D01*
X197480440Y-31836304D02*
X197861393Y-31836304D01*
X197861393Y-31836304D02*
X198051869Y-31931542D01*
X197194726Y-33074400D02*
X197385202Y-33169638D01*
X197385202Y-33169638D02*
X197861393Y-33169638D01*
X197861393Y-33169638D02*
X198051869Y-33074400D01*
X198051869Y-33074400D02*
X198147107Y-32883923D01*
X198147107Y-32883923D02*
X198147107Y-32693447D01*
X198147107Y-32693447D02*
X198051869Y-32502971D01*
X198051869Y-32502971D02*
X197861393Y-32407733D01*
X197861393Y-32407733D02*
X197385202Y-32407733D01*
X197385202Y-32407733D02*
X197194726Y-32312495D01*
X196242345Y-33169638D02*
X196242345Y-31836304D01*
X196242345Y-32026780D02*
X196147107Y-31931542D01*
X196147107Y-31931542D02*
X195956631Y-31836304D01*
X195956631Y-31836304D02*
X195670916Y-31836304D01*
X195670916Y-31836304D02*
X195480440Y-31931542D01*
X195480440Y-31931542D02*
X195385202Y-32122019D01*
X195385202Y-32122019D02*
X195385202Y-33169638D01*
X195385202Y-32122019D02*
X195289964Y-31931542D01*
X195289964Y-31931542D02*
X195099488Y-31836304D01*
X195099488Y-31836304D02*
X194813774Y-31836304D01*
X194813774Y-31836304D02*
X194623297Y-31931542D01*
X194623297Y-31931542D02*
X194528059Y-32122019D01*
X194528059Y-32122019D02*
X194528059Y-33169638D01*
X192813773Y-33074400D02*
X193004249Y-33169638D01*
X193004249Y-33169638D02*
X193385202Y-33169638D01*
X193385202Y-33169638D02*
X193575678Y-33074400D01*
X193575678Y-33074400D02*
X193670916Y-32883923D01*
X193670916Y-32883923D02*
X193670916Y-32122019D01*
X193670916Y-32122019D02*
X193575678Y-31931542D01*
X193575678Y-31931542D02*
X193385202Y-31836304D01*
X193385202Y-31836304D02*
X193004249Y-31836304D01*
X193004249Y-31836304D02*
X192813773Y-31931542D01*
X192813773Y-31931542D02*
X192718535Y-32122019D01*
X192718535Y-32122019D02*
X192718535Y-32312495D01*
X192718535Y-32312495D02*
X193670916Y-32502971D01*
X190337582Y-32979161D02*
X190242344Y-33074400D01*
X190242344Y-33074400D02*
X190337582Y-33169638D01*
X190337582Y-33169638D02*
X190432820Y-33074400D01*
X190432820Y-33074400D02*
X190337582Y-32979161D01*
X190337582Y-32979161D02*
X190337582Y-33169638D01*
X190337582Y-31931542D02*
X190242344Y-32026780D01*
X190242344Y-32026780D02*
X190337582Y-32122019D01*
X190337582Y-32122019D02*
X190432820Y-32026780D01*
X190432820Y-32026780D02*
X190337582Y-31931542D01*
X190337582Y-31931542D02*
X190337582Y-32122019D01*
X186909010Y-33169638D02*
X187861391Y-33169638D01*
X187861391Y-33169638D02*
X187861391Y-31169638D01*
X185956629Y-33169638D02*
X186147105Y-33074400D01*
X186147105Y-33074400D02*
X186242343Y-32979161D01*
X186242343Y-32979161D02*
X186337581Y-32788685D01*
X186337581Y-32788685D02*
X186337581Y-32217257D01*
X186337581Y-32217257D02*
X186242343Y-32026780D01*
X186242343Y-32026780D02*
X186147105Y-31931542D01*
X186147105Y-31931542D02*
X185956629Y-31836304D01*
X185956629Y-31836304D02*
X185670914Y-31836304D01*
X185670914Y-31836304D02*
X185480438Y-31931542D01*
X185480438Y-31931542D02*
X185385200Y-32026780D01*
X185385200Y-32026780D02*
X185289962Y-32217257D01*
X185289962Y-32217257D02*
X185289962Y-32788685D01*
X185289962Y-32788685D02*
X185385200Y-32979161D01*
X185385200Y-32979161D02*
X185480438Y-33074400D01*
X185480438Y-33074400D02*
X185670914Y-33169638D01*
X185670914Y-33169638D02*
X185956629Y-33169638D01*
X183575676Y-31836304D02*
X183575676Y-33455352D01*
X183575676Y-33455352D02*
X183670914Y-33645828D01*
X183670914Y-33645828D02*
X183766152Y-33741066D01*
X183766152Y-33741066D02*
X183956629Y-33836304D01*
X183956629Y-33836304D02*
X184242343Y-33836304D01*
X184242343Y-33836304D02*
X184432819Y-33741066D01*
X183575676Y-33074400D02*
X183766152Y-33169638D01*
X183766152Y-33169638D02*
X184147105Y-33169638D01*
X184147105Y-33169638D02*
X184337581Y-33074400D01*
X184337581Y-33074400D02*
X184432819Y-32979161D01*
X184432819Y-32979161D02*
X184528057Y-32788685D01*
X184528057Y-32788685D02*
X184528057Y-32217257D01*
X184528057Y-32217257D02*
X184432819Y-32026780D01*
X184432819Y-32026780D02*
X184337581Y-31931542D01*
X184337581Y-31931542D02*
X184147105Y-31836304D01*
X184147105Y-31836304D02*
X183766152Y-31836304D01*
X183766152Y-31836304D02*
X183575676Y-31931542D01*
X182623295Y-33169638D02*
X182623295Y-31836304D01*
X182623295Y-31169638D02*
X182718533Y-31264876D01*
X182718533Y-31264876D02*
X182623295Y-31360114D01*
X182623295Y-31360114D02*
X182528057Y-31264876D01*
X182528057Y-31264876D02*
X182623295Y-31169638D01*
X182623295Y-31169638D02*
X182623295Y-31360114D01*
X180813771Y-33074400D02*
X181004247Y-33169638D01*
X181004247Y-33169638D02*
X181385200Y-33169638D01*
X181385200Y-33169638D02*
X181575676Y-33074400D01*
X181575676Y-33074400D02*
X181670914Y-32979161D01*
X181670914Y-32979161D02*
X181766152Y-32788685D01*
X181766152Y-32788685D02*
X181766152Y-32217257D01*
X181766152Y-32217257D02*
X181670914Y-32026780D01*
X181670914Y-32026780D02*
X181575676Y-31931542D01*
X181575676Y-31931542D02*
X181385200Y-31836304D01*
X181385200Y-31836304D02*
X181004247Y-31836304D01*
X181004247Y-31836304D02*
X180813771Y-31931542D01*
X180432819Y-33360114D02*
X178909009Y-33360114D01*
X177766151Y-32122019D02*
X177480437Y-32217257D01*
X177480437Y-32217257D02*
X177385199Y-32312495D01*
X177385199Y-32312495D02*
X177289961Y-32502971D01*
X177289961Y-32502971D02*
X177289961Y-32788685D01*
X177289961Y-32788685D02*
X177385199Y-32979161D01*
X177385199Y-32979161D02*
X177480437Y-33074400D01*
X177480437Y-33074400D02*
X177670913Y-33169638D01*
X177670913Y-33169638D02*
X178432818Y-33169638D01*
X178432818Y-33169638D02*
X178432818Y-31169638D01*
X178432818Y-31169638D02*
X177766151Y-31169638D01*
X177766151Y-31169638D02*
X177575675Y-31264876D01*
X177575675Y-31264876D02*
X177480437Y-31360114D01*
X177480437Y-31360114D02*
X177385199Y-31550590D01*
X177385199Y-31550590D02*
X177385199Y-31741066D01*
X177385199Y-31741066D02*
X177480437Y-31931542D01*
X177480437Y-31931542D02*
X177575675Y-32026780D01*
X177575675Y-32026780D02*
X177766151Y-32122019D01*
X177766151Y-32122019D02*
X178432818Y-32122019D01*
X176147104Y-33169638D02*
X176337580Y-33074400D01*
X176337580Y-33074400D02*
X176432818Y-32979161D01*
X176432818Y-32979161D02*
X176528056Y-32788685D01*
X176528056Y-32788685D02*
X176528056Y-32217257D01*
X176528056Y-32217257D02*
X176432818Y-32026780D01*
X176432818Y-32026780D02*
X176337580Y-31931542D01*
X176337580Y-31931542D02*
X176147104Y-31836304D01*
X176147104Y-31836304D02*
X175861389Y-31836304D01*
X175861389Y-31836304D02*
X175670913Y-31931542D01*
X175670913Y-31931542D02*
X175575675Y-32026780D01*
X175575675Y-32026780D02*
X175480437Y-32217257D01*
X175480437Y-32217257D02*
X175480437Y-32788685D01*
X175480437Y-32788685D02*
X175575675Y-32979161D01*
X175575675Y-32979161D02*
X175670913Y-33074400D01*
X175670913Y-33074400D02*
X175861389Y-33169638D01*
X175861389Y-33169638D02*
X176147104Y-33169638D01*
X173766151Y-33169638D02*
X173766151Y-32122019D01*
X173766151Y-32122019D02*
X173861389Y-31931542D01*
X173861389Y-31931542D02*
X174051865Y-31836304D01*
X174051865Y-31836304D02*
X174432818Y-31836304D01*
X174432818Y-31836304D02*
X174623294Y-31931542D01*
X173766151Y-33074400D02*
X173956627Y-33169638D01*
X173956627Y-33169638D02*
X174432818Y-33169638D01*
X174432818Y-33169638D02*
X174623294Y-33074400D01*
X174623294Y-33074400D02*
X174718532Y-32883923D01*
X174718532Y-32883923D02*
X174718532Y-32693447D01*
X174718532Y-32693447D02*
X174623294Y-32502971D01*
X174623294Y-32502971D02*
X174432818Y-32407733D01*
X174432818Y-32407733D02*
X173956627Y-32407733D01*
X173956627Y-32407733D02*
X173766151Y-32312495D01*
X172813770Y-33169638D02*
X172813770Y-31836304D01*
X172813770Y-32217257D02*
X172718532Y-32026780D01*
X172718532Y-32026780D02*
X172623294Y-31931542D01*
X172623294Y-31931542D02*
X172432818Y-31836304D01*
X172432818Y-31836304D02*
X172242341Y-31836304D01*
X170718532Y-33169638D02*
X170718532Y-31169638D01*
X170718532Y-33074400D02*
X170909008Y-33169638D01*
X170909008Y-33169638D02*
X171289961Y-33169638D01*
X171289961Y-33169638D02*
X171480437Y-33074400D01*
X171480437Y-33074400D02*
X171575675Y-32979161D01*
X171575675Y-32979161D02*
X171670913Y-32788685D01*
X171670913Y-32788685D02*
X171670913Y-32217257D01*
X171670913Y-32217257D02*
X171575675Y-32026780D01*
X171575675Y-32026780D02*
X171480437Y-31931542D01*
X171480437Y-31931542D02*
X171289961Y-31836304D01*
X171289961Y-31836304D02*
X170909008Y-31836304D01*
X170909008Y-31836304D02*
X170718532Y-31931542D01*
X215480441Y-35627733D02*
X213956632Y-35627733D01*
X211766155Y-34389638D02*
X211099489Y-36389638D01*
X211099489Y-36389638D02*
X210432822Y-34389638D01*
X209004250Y-36294400D02*
X209194726Y-36389638D01*
X209194726Y-36389638D02*
X209575679Y-36389638D01*
X209575679Y-36389638D02*
X209766155Y-36294400D01*
X209766155Y-36294400D02*
X209861393Y-36103923D01*
X209861393Y-36103923D02*
X209861393Y-35342019D01*
X209861393Y-35342019D02*
X209766155Y-35151542D01*
X209766155Y-35151542D02*
X209575679Y-35056304D01*
X209575679Y-35056304D02*
X209194726Y-35056304D01*
X209194726Y-35056304D02*
X209004250Y-35151542D01*
X209004250Y-35151542D02*
X208909012Y-35342019D01*
X208909012Y-35342019D02*
X208909012Y-35532495D01*
X208909012Y-35532495D02*
X209861393Y-35722971D01*
X208051869Y-36389638D02*
X208051869Y-35056304D01*
X208051869Y-35437257D02*
X207956631Y-35246780D01*
X207956631Y-35246780D02*
X207861393Y-35151542D01*
X207861393Y-35151542D02*
X207670917Y-35056304D01*
X207670917Y-35056304D02*
X207480440Y-35056304D01*
X206909012Y-36294400D02*
X206718536Y-36389638D01*
X206718536Y-36389638D02*
X206337584Y-36389638D01*
X206337584Y-36389638D02*
X206147107Y-36294400D01*
X206147107Y-36294400D02*
X206051869Y-36103923D01*
X206051869Y-36103923D02*
X206051869Y-36008685D01*
X206051869Y-36008685D02*
X206147107Y-35818209D01*
X206147107Y-35818209D02*
X206337584Y-35722971D01*
X206337584Y-35722971D02*
X206623298Y-35722971D01*
X206623298Y-35722971D02*
X206813774Y-35627733D01*
X206813774Y-35627733D02*
X206909012Y-35437257D01*
X206909012Y-35437257D02*
X206909012Y-35342019D01*
X206909012Y-35342019D02*
X206813774Y-35151542D01*
X206813774Y-35151542D02*
X206623298Y-35056304D01*
X206623298Y-35056304D02*
X206337584Y-35056304D01*
X206337584Y-35056304D02*
X206147107Y-35151542D01*
X205194726Y-36389638D02*
X205194726Y-35056304D01*
X205194726Y-34389638D02*
X205289964Y-34484876D01*
X205289964Y-34484876D02*
X205194726Y-34580114D01*
X205194726Y-34580114D02*
X205099488Y-34484876D01*
X205099488Y-34484876D02*
X205194726Y-34389638D01*
X205194726Y-34389638D02*
X205194726Y-34580114D01*
X203956631Y-36389638D02*
X204147107Y-36294400D01*
X204147107Y-36294400D02*
X204242345Y-36199161D01*
X204242345Y-36199161D02*
X204337583Y-36008685D01*
X204337583Y-36008685D02*
X204337583Y-35437257D01*
X204337583Y-35437257D02*
X204242345Y-35246780D01*
X204242345Y-35246780D02*
X204147107Y-35151542D01*
X204147107Y-35151542D02*
X203956631Y-35056304D01*
X203956631Y-35056304D02*
X203670916Y-35056304D01*
X203670916Y-35056304D02*
X203480440Y-35151542D01*
X203480440Y-35151542D02*
X203385202Y-35246780D01*
X203385202Y-35246780D02*
X203289964Y-35437257D01*
X203289964Y-35437257D02*
X203289964Y-36008685D01*
X203289964Y-36008685D02*
X203385202Y-36199161D01*
X203385202Y-36199161D02*
X203480440Y-36294400D01*
X203480440Y-36294400D02*
X203670916Y-36389638D01*
X203670916Y-36389638D02*
X203956631Y-36389638D01*
X202432821Y-35056304D02*
X202432821Y-36389638D01*
X202432821Y-35246780D02*
X202337583Y-35151542D01*
X202337583Y-35151542D02*
X202147107Y-35056304D01*
X202147107Y-35056304D02*
X201861392Y-35056304D01*
X201861392Y-35056304D02*
X201670916Y-35151542D01*
X201670916Y-35151542D02*
X201575678Y-35342019D01*
X201575678Y-35342019D02*
X201575678Y-36389638D01*
X189956627Y-36199161D02*
X189861389Y-36294400D01*
X189861389Y-36294400D02*
X189956627Y-36389638D01*
X189956627Y-36389638D02*
X190051865Y-36294400D01*
X190051865Y-36294400D02*
X189956627Y-36199161D01*
X189956627Y-36199161D02*
X189956627Y-36389638D01*
X189956627Y-35151542D02*
X189861389Y-35246780D01*
X189861389Y-35246780D02*
X189956627Y-35342019D01*
X189956627Y-35342019D02*
X190051865Y-35246780D01*
X190051865Y-35246780D02*
X189956627Y-35151542D01*
X189956627Y-35151542D02*
X189956627Y-35342019D01*
X187575674Y-34580114D02*
X187480436Y-34484876D01*
X187480436Y-34484876D02*
X187289960Y-34389638D01*
X187289960Y-34389638D02*
X186813769Y-34389638D01*
X186813769Y-34389638D02*
X186623293Y-34484876D01*
X186623293Y-34484876D02*
X186528055Y-34580114D01*
X186528055Y-34580114D02*
X186432817Y-34770590D01*
X186432817Y-34770590D02*
X186432817Y-34961066D01*
X186432817Y-34961066D02*
X186528055Y-35246780D01*
X186528055Y-35246780D02*
X187670912Y-36389638D01*
X187670912Y-36389638D02*
X186432817Y-36389638D01*
X185575674Y-36199161D02*
X185480436Y-36294400D01*
X185480436Y-36294400D02*
X185575674Y-36389638D01*
X185575674Y-36389638D02*
X185670912Y-36294400D01*
X185670912Y-36294400D02*
X185575674Y-36199161D01*
X185575674Y-36199161D02*
X185575674Y-36389638D01*
X184242341Y-34389638D02*
X184051864Y-34389638D01*
X184051864Y-34389638D02*
X183861388Y-34484876D01*
X183861388Y-34484876D02*
X183766150Y-34580114D01*
X183766150Y-34580114D02*
X183670912Y-34770590D01*
X183670912Y-34770590D02*
X183575674Y-35151542D01*
X183575674Y-35151542D02*
X183575674Y-35627733D01*
X183575674Y-35627733D02*
X183670912Y-36008685D01*
X183670912Y-36008685D02*
X183766150Y-36199161D01*
X183766150Y-36199161D02*
X183861388Y-36294400D01*
X183861388Y-36294400D02*
X184051864Y-36389638D01*
X184051864Y-36389638D02*
X184242341Y-36389638D01*
X184242341Y-36389638D02*
X184432817Y-36294400D01*
X184432817Y-36294400D02*
X184528055Y-36199161D01*
X184528055Y-36199161D02*
X184623293Y-36008685D01*
X184623293Y-36008685D02*
X184718531Y-35627733D01*
X184718531Y-35627733D02*
X184718531Y-35151542D01*
X184718531Y-35151542D02*
X184623293Y-34770590D01*
X184623293Y-34770590D02*
X184528055Y-34580114D01*
X184528055Y-34580114D02*
X184432817Y-34484876D01*
X184432817Y-34484876D02*
X184242341Y-34389638D01*
X215480441Y-38847733D02*
X213956632Y-38847733D01*
X211480441Y-39609638D02*
X211480441Y-37609638D01*
X211480441Y-37609638D02*
X211004251Y-37609638D01*
X211004251Y-37609638D02*
X210718536Y-37704876D01*
X210718536Y-37704876D02*
X210528060Y-37895352D01*
X210528060Y-37895352D02*
X210432822Y-38085828D01*
X210432822Y-38085828D02*
X210337584Y-38466780D01*
X210337584Y-38466780D02*
X210337584Y-38752495D01*
X210337584Y-38752495D02*
X210432822Y-39133447D01*
X210432822Y-39133447D02*
X210528060Y-39323923D01*
X210528060Y-39323923D02*
X210718536Y-39514400D01*
X210718536Y-39514400D02*
X211004251Y-39609638D01*
X211004251Y-39609638D02*
X211480441Y-39609638D01*
X208718536Y-39514400D02*
X208909012Y-39609638D01*
X208909012Y-39609638D02*
X209289965Y-39609638D01*
X209289965Y-39609638D02*
X209480441Y-39514400D01*
X209480441Y-39514400D02*
X209575679Y-39323923D01*
X209575679Y-39323923D02*
X209575679Y-38562019D01*
X209575679Y-38562019D02*
X209480441Y-38371542D01*
X209480441Y-38371542D02*
X209289965Y-38276304D01*
X209289965Y-38276304D02*
X208909012Y-38276304D01*
X208909012Y-38276304D02*
X208718536Y-38371542D01*
X208718536Y-38371542D02*
X208623298Y-38562019D01*
X208623298Y-38562019D02*
X208623298Y-38752495D01*
X208623298Y-38752495D02*
X209575679Y-38942971D01*
X207861393Y-39514400D02*
X207670917Y-39609638D01*
X207670917Y-39609638D02*
X207289965Y-39609638D01*
X207289965Y-39609638D02*
X207099488Y-39514400D01*
X207099488Y-39514400D02*
X207004250Y-39323923D01*
X207004250Y-39323923D02*
X207004250Y-39228685D01*
X207004250Y-39228685D02*
X207099488Y-39038209D01*
X207099488Y-39038209D02*
X207289965Y-38942971D01*
X207289965Y-38942971D02*
X207575679Y-38942971D01*
X207575679Y-38942971D02*
X207766155Y-38847733D01*
X207766155Y-38847733D02*
X207861393Y-38657257D01*
X207861393Y-38657257D02*
X207861393Y-38562019D01*
X207861393Y-38562019D02*
X207766155Y-38371542D01*
X207766155Y-38371542D02*
X207575679Y-38276304D01*
X207575679Y-38276304D02*
X207289965Y-38276304D01*
X207289965Y-38276304D02*
X207099488Y-38371542D01*
X206147107Y-39609638D02*
X206147107Y-38276304D01*
X206147107Y-37609638D02*
X206242345Y-37704876D01*
X206242345Y-37704876D02*
X206147107Y-37800114D01*
X206147107Y-37800114D02*
X206051869Y-37704876D01*
X206051869Y-37704876D02*
X206147107Y-37609638D01*
X206147107Y-37609638D02*
X206147107Y-37800114D01*
X204337583Y-38276304D02*
X204337583Y-39895352D01*
X204337583Y-39895352D02*
X204432821Y-40085828D01*
X204432821Y-40085828D02*
X204528059Y-40181066D01*
X204528059Y-40181066D02*
X204718536Y-40276304D01*
X204718536Y-40276304D02*
X205004250Y-40276304D01*
X205004250Y-40276304D02*
X205194726Y-40181066D01*
X204337583Y-39514400D02*
X204528059Y-39609638D01*
X204528059Y-39609638D02*
X204909012Y-39609638D01*
X204909012Y-39609638D02*
X205099488Y-39514400D01*
X205099488Y-39514400D02*
X205194726Y-39419161D01*
X205194726Y-39419161D02*
X205289964Y-39228685D01*
X205289964Y-39228685D02*
X205289964Y-38657257D01*
X205289964Y-38657257D02*
X205194726Y-38466780D01*
X205194726Y-38466780D02*
X205099488Y-38371542D01*
X205099488Y-38371542D02*
X204909012Y-38276304D01*
X204909012Y-38276304D02*
X204528059Y-38276304D01*
X204528059Y-38276304D02*
X204337583Y-38371542D01*
X203385202Y-38276304D02*
X203385202Y-39609638D01*
X203385202Y-38466780D02*
X203289964Y-38371542D01*
X203289964Y-38371542D02*
X203099488Y-38276304D01*
X203099488Y-38276304D02*
X202813773Y-38276304D01*
X202813773Y-38276304D02*
X202623297Y-38371542D01*
X202623297Y-38371542D02*
X202528059Y-38562019D01*
X202528059Y-38562019D02*
X202528059Y-39609638D01*
X200813773Y-39514400D02*
X201004249Y-39609638D01*
X201004249Y-39609638D02*
X201385202Y-39609638D01*
X201385202Y-39609638D02*
X201575678Y-39514400D01*
X201575678Y-39514400D02*
X201670916Y-39323923D01*
X201670916Y-39323923D02*
X201670916Y-38562019D01*
X201670916Y-38562019D02*
X201575678Y-38371542D01*
X201575678Y-38371542D02*
X201385202Y-38276304D01*
X201385202Y-38276304D02*
X201004249Y-38276304D01*
X201004249Y-38276304D02*
X200813773Y-38371542D01*
X200813773Y-38371542D02*
X200718535Y-38562019D01*
X200718535Y-38562019D02*
X200718535Y-38752495D01*
X200718535Y-38752495D02*
X201670916Y-38942971D01*
X199004249Y-39609638D02*
X199004249Y-37609638D01*
X199004249Y-39514400D02*
X199194725Y-39609638D01*
X199194725Y-39609638D02*
X199575678Y-39609638D01*
X199575678Y-39609638D02*
X199766154Y-39514400D01*
X199766154Y-39514400D02*
X199861392Y-39419161D01*
X199861392Y-39419161D02*
X199956630Y-39228685D01*
X199956630Y-39228685D02*
X199956630Y-38657257D01*
X199956630Y-38657257D02*
X199861392Y-38466780D01*
X199861392Y-38466780D02*
X199766154Y-38371542D01*
X199766154Y-38371542D02*
X199575678Y-38276304D01*
X199575678Y-38276304D02*
X199194725Y-38276304D01*
X199194725Y-38276304D02*
X199004249Y-38371542D01*
X196528058Y-39609638D02*
X196528058Y-37609638D01*
X196528058Y-37609638D02*
X196051868Y-37609638D01*
X196051868Y-37609638D02*
X195766153Y-37704876D01*
X195766153Y-37704876D02*
X195575677Y-37895352D01*
X195575677Y-37895352D02*
X195480439Y-38085828D01*
X195480439Y-38085828D02*
X195385201Y-38466780D01*
X195385201Y-38466780D02*
X195385201Y-38752495D01*
X195385201Y-38752495D02*
X195480439Y-39133447D01*
X195480439Y-39133447D02*
X195575677Y-39323923D01*
X195575677Y-39323923D02*
X195766153Y-39514400D01*
X195766153Y-39514400D02*
X196051868Y-39609638D01*
X196051868Y-39609638D02*
X196528058Y-39609638D01*
X193670915Y-39609638D02*
X193670915Y-38562019D01*
X193670915Y-38562019D02*
X193766153Y-38371542D01*
X193766153Y-38371542D02*
X193956629Y-38276304D01*
X193956629Y-38276304D02*
X194337582Y-38276304D01*
X194337582Y-38276304D02*
X194528058Y-38371542D01*
X193670915Y-39514400D02*
X193861391Y-39609638D01*
X193861391Y-39609638D02*
X194337582Y-39609638D01*
X194337582Y-39609638D02*
X194528058Y-39514400D01*
X194528058Y-39514400D02*
X194623296Y-39323923D01*
X194623296Y-39323923D02*
X194623296Y-39133447D01*
X194623296Y-39133447D02*
X194528058Y-38942971D01*
X194528058Y-38942971D02*
X194337582Y-38847733D01*
X194337582Y-38847733D02*
X193861391Y-38847733D01*
X193861391Y-38847733D02*
X193670915Y-38752495D01*
X193004248Y-38276304D02*
X192242344Y-38276304D01*
X192718534Y-37609638D02*
X192718534Y-39323923D01*
X192718534Y-39323923D02*
X192623296Y-39514400D01*
X192623296Y-39514400D02*
X192432820Y-39609638D01*
X192432820Y-39609638D02*
X192242344Y-39609638D01*
X190813772Y-39514400D02*
X191004248Y-39609638D01*
X191004248Y-39609638D02*
X191385201Y-39609638D01*
X191385201Y-39609638D02*
X191575677Y-39514400D01*
X191575677Y-39514400D02*
X191670915Y-39323923D01*
X191670915Y-39323923D02*
X191670915Y-38562019D01*
X191670915Y-38562019D02*
X191575677Y-38371542D01*
X191575677Y-38371542D02*
X191385201Y-38276304D01*
X191385201Y-38276304D02*
X191004248Y-38276304D01*
X191004248Y-38276304D02*
X190813772Y-38371542D01*
X190813772Y-38371542D02*
X190718534Y-38562019D01*
X190718534Y-38562019D02*
X190718534Y-38752495D01*
X190718534Y-38752495D02*
X191670915Y-38942971D01*
X186813771Y-39419161D02*
X186718533Y-39514400D01*
X186718533Y-39514400D02*
X186813771Y-39609638D01*
X186813771Y-39609638D02*
X186909009Y-39514400D01*
X186909009Y-39514400D02*
X186813771Y-39419161D01*
X186813771Y-39419161D02*
X186813771Y-39609638D01*
X186813771Y-38371542D02*
X186718533Y-38466780D01*
X186718533Y-38466780D02*
X186813771Y-38562019D01*
X186813771Y-38562019D02*
X186909009Y-38466780D01*
X186909009Y-38466780D02*
X186813771Y-38371542D01*
X186813771Y-38371542D02*
X186813771Y-38562019D01*
X184432818Y-37800114D02*
X184337580Y-37704876D01*
X184337580Y-37704876D02*
X184147104Y-37609638D01*
X184147104Y-37609638D02*
X183670913Y-37609638D01*
X183670913Y-37609638D02*
X183480437Y-37704876D01*
X183480437Y-37704876D02*
X183385199Y-37800114D01*
X183385199Y-37800114D02*
X183289961Y-37990590D01*
X183289961Y-37990590D02*
X183289961Y-38181066D01*
X183289961Y-38181066D02*
X183385199Y-38466780D01*
X183385199Y-38466780D02*
X184528056Y-39609638D01*
X184528056Y-39609638D02*
X183289961Y-39609638D01*
X182051866Y-37609638D02*
X181861389Y-37609638D01*
X181861389Y-37609638D02*
X181670913Y-37704876D01*
X181670913Y-37704876D02*
X181575675Y-37800114D01*
X181575675Y-37800114D02*
X181480437Y-37990590D01*
X181480437Y-37990590D02*
X181385199Y-38371542D01*
X181385199Y-38371542D02*
X181385199Y-38847733D01*
X181385199Y-38847733D02*
X181480437Y-39228685D01*
X181480437Y-39228685D02*
X181575675Y-39419161D01*
X181575675Y-39419161D02*
X181670913Y-39514400D01*
X181670913Y-39514400D02*
X181861389Y-39609638D01*
X181861389Y-39609638D02*
X182051866Y-39609638D01*
X182051866Y-39609638D02*
X182242342Y-39514400D01*
X182242342Y-39514400D02*
X182337580Y-39419161D01*
X182337580Y-39419161D02*
X182432818Y-39228685D01*
X182432818Y-39228685D02*
X182528056Y-38847733D01*
X182528056Y-38847733D02*
X182528056Y-38371542D01*
X182528056Y-38371542D02*
X182432818Y-37990590D01*
X182432818Y-37990590D02*
X182337580Y-37800114D01*
X182337580Y-37800114D02*
X182242342Y-37704876D01*
X182242342Y-37704876D02*
X182051866Y-37609638D01*
X180623294Y-37800114D02*
X180528056Y-37704876D01*
X180528056Y-37704876D02*
X180337580Y-37609638D01*
X180337580Y-37609638D02*
X179861389Y-37609638D01*
X179861389Y-37609638D02*
X179670913Y-37704876D01*
X179670913Y-37704876D02*
X179575675Y-37800114D01*
X179575675Y-37800114D02*
X179480437Y-37990590D01*
X179480437Y-37990590D02*
X179480437Y-38181066D01*
X179480437Y-38181066D02*
X179575675Y-38466780D01*
X179575675Y-38466780D02*
X180718532Y-39609638D01*
X180718532Y-39609638D02*
X179480437Y-39609638D01*
X177670913Y-37609638D02*
X178623294Y-37609638D01*
X178623294Y-37609638D02*
X178718532Y-38562019D01*
X178718532Y-38562019D02*
X178623294Y-38466780D01*
X178623294Y-38466780D02*
X178432818Y-38371542D01*
X178432818Y-38371542D02*
X177956627Y-38371542D01*
X177956627Y-38371542D02*
X177766151Y-38466780D01*
X177766151Y-38466780D02*
X177670913Y-38562019D01*
X177670913Y-38562019D02*
X177575675Y-38752495D01*
X177575675Y-38752495D02*
X177575675Y-39228685D01*
X177575675Y-39228685D02*
X177670913Y-39419161D01*
X177670913Y-39419161D02*
X177766151Y-39514400D01*
X177766151Y-39514400D02*
X177956627Y-39609638D01*
X177956627Y-39609638D02*
X178432818Y-39609638D01*
X178432818Y-39609638D02*
X178623294Y-39514400D01*
X178623294Y-39514400D02*
X178718532Y-39419161D01*
X175289961Y-37514400D02*
X177004246Y-40085828D01*
X174242342Y-37609638D02*
X174051865Y-37609638D01*
X174051865Y-37609638D02*
X173861389Y-37704876D01*
X173861389Y-37704876D02*
X173766151Y-37800114D01*
X173766151Y-37800114D02*
X173670913Y-37990590D01*
X173670913Y-37990590D02*
X173575675Y-38371542D01*
X173575675Y-38371542D02*
X173575675Y-38847733D01*
X173575675Y-38847733D02*
X173670913Y-39228685D01*
X173670913Y-39228685D02*
X173766151Y-39419161D01*
X173766151Y-39419161D02*
X173861389Y-39514400D01*
X173861389Y-39514400D02*
X174051865Y-39609638D01*
X174051865Y-39609638D02*
X174242342Y-39609638D01*
X174242342Y-39609638D02*
X174432818Y-39514400D01*
X174432818Y-39514400D02*
X174528056Y-39419161D01*
X174528056Y-39419161D02*
X174623294Y-39228685D01*
X174623294Y-39228685D02*
X174718532Y-38847733D01*
X174718532Y-38847733D02*
X174718532Y-38371542D01*
X174718532Y-38371542D02*
X174623294Y-37990590D01*
X174623294Y-37990590D02*
X174528056Y-37800114D01*
X174528056Y-37800114D02*
X174432818Y-37704876D01*
X174432818Y-37704876D02*
X174242342Y-37609638D01*
X172909008Y-37609638D02*
X171670913Y-37609638D01*
X171670913Y-37609638D02*
X172337580Y-38371542D01*
X172337580Y-38371542D02*
X172051865Y-38371542D01*
X172051865Y-38371542D02*
X171861389Y-38466780D01*
X171861389Y-38466780D02*
X171766151Y-38562019D01*
X171766151Y-38562019D02*
X171670913Y-38752495D01*
X171670913Y-38752495D02*
X171670913Y-39228685D01*
X171670913Y-39228685D02*
X171766151Y-39419161D01*
X171766151Y-39419161D02*
X171861389Y-39514400D01*
X171861389Y-39514400D02*
X172051865Y-39609638D01*
X172051865Y-39609638D02*
X172623294Y-39609638D01*
X172623294Y-39609638D02*
X172813770Y-39514400D01*
X172813770Y-39514400D02*
X172909008Y-39419161D01*
X169385199Y-37514400D02*
X171099484Y-40085828D01*
X167670913Y-39609638D02*
X168813770Y-39609638D01*
X168242342Y-39609638D02*
X168242342Y-37609638D01*
X168242342Y-37609638D02*
X168432818Y-37895352D01*
X168432818Y-37895352D02*
X168623294Y-38085828D01*
X168623294Y-38085828D02*
X168813770Y-38181066D01*
X165766151Y-39609638D02*
X166909008Y-39609638D01*
X166337580Y-39609638D02*
X166337580Y-37609638D01*
X166337580Y-37609638D02*
X166528056Y-37895352D01*
X166528056Y-37895352D02*
X166718532Y-38085828D01*
X166718532Y-38085828D02*
X166909008Y-38181066D01*
X215480441Y-42067733D02*
X213956632Y-42067733D01*
X211480441Y-42829638D02*
X211480441Y-40829638D01*
X211480441Y-40829638D02*
X211004251Y-40829638D01*
X211004251Y-40829638D02*
X210718536Y-40924876D01*
X210718536Y-40924876D02*
X210528060Y-41115352D01*
X210528060Y-41115352D02*
X210432822Y-41305828D01*
X210432822Y-41305828D02*
X210337584Y-41686780D01*
X210337584Y-41686780D02*
X210337584Y-41972495D01*
X210337584Y-41972495D02*
X210432822Y-42353447D01*
X210432822Y-42353447D02*
X210528060Y-42543923D01*
X210528060Y-42543923D02*
X210718536Y-42734400D01*
X210718536Y-42734400D02*
X211004251Y-42829638D01*
X211004251Y-42829638D02*
X211480441Y-42829638D01*
X208718536Y-42734400D02*
X208909012Y-42829638D01*
X208909012Y-42829638D02*
X209289965Y-42829638D01*
X209289965Y-42829638D02*
X209480441Y-42734400D01*
X209480441Y-42734400D02*
X209575679Y-42543923D01*
X209575679Y-42543923D02*
X209575679Y-41782019D01*
X209575679Y-41782019D02*
X209480441Y-41591542D01*
X209480441Y-41591542D02*
X209289965Y-41496304D01*
X209289965Y-41496304D02*
X208909012Y-41496304D01*
X208909012Y-41496304D02*
X208718536Y-41591542D01*
X208718536Y-41591542D02*
X208623298Y-41782019D01*
X208623298Y-41782019D02*
X208623298Y-41972495D01*
X208623298Y-41972495D02*
X209575679Y-42162971D01*
X207861393Y-42734400D02*
X207670917Y-42829638D01*
X207670917Y-42829638D02*
X207289965Y-42829638D01*
X207289965Y-42829638D02*
X207099488Y-42734400D01*
X207099488Y-42734400D02*
X207004250Y-42543923D01*
X207004250Y-42543923D02*
X207004250Y-42448685D01*
X207004250Y-42448685D02*
X207099488Y-42258209D01*
X207099488Y-42258209D02*
X207289965Y-42162971D01*
X207289965Y-42162971D02*
X207575679Y-42162971D01*
X207575679Y-42162971D02*
X207766155Y-42067733D01*
X207766155Y-42067733D02*
X207861393Y-41877257D01*
X207861393Y-41877257D02*
X207861393Y-41782019D01*
X207861393Y-41782019D02*
X207766155Y-41591542D01*
X207766155Y-41591542D02*
X207575679Y-41496304D01*
X207575679Y-41496304D02*
X207289965Y-41496304D01*
X207289965Y-41496304D02*
X207099488Y-41591542D01*
X206147107Y-42829638D02*
X206147107Y-41496304D01*
X206147107Y-40829638D02*
X206242345Y-40924876D01*
X206242345Y-40924876D02*
X206147107Y-41020114D01*
X206147107Y-41020114D02*
X206051869Y-40924876D01*
X206051869Y-40924876D02*
X206147107Y-40829638D01*
X206147107Y-40829638D02*
X206147107Y-41020114D01*
X204337583Y-41496304D02*
X204337583Y-43115352D01*
X204337583Y-43115352D02*
X204432821Y-43305828D01*
X204432821Y-43305828D02*
X204528059Y-43401066D01*
X204528059Y-43401066D02*
X204718536Y-43496304D01*
X204718536Y-43496304D02*
X205004250Y-43496304D01*
X205004250Y-43496304D02*
X205194726Y-43401066D01*
X204337583Y-42734400D02*
X204528059Y-42829638D01*
X204528059Y-42829638D02*
X204909012Y-42829638D01*
X204909012Y-42829638D02*
X205099488Y-42734400D01*
X205099488Y-42734400D02*
X205194726Y-42639161D01*
X205194726Y-42639161D02*
X205289964Y-42448685D01*
X205289964Y-42448685D02*
X205289964Y-41877257D01*
X205289964Y-41877257D02*
X205194726Y-41686780D01*
X205194726Y-41686780D02*
X205099488Y-41591542D01*
X205099488Y-41591542D02*
X204909012Y-41496304D01*
X204909012Y-41496304D02*
X204528059Y-41496304D01*
X204528059Y-41496304D02*
X204337583Y-41591542D01*
X203385202Y-41496304D02*
X203385202Y-42829638D01*
X203385202Y-41686780D02*
X203289964Y-41591542D01*
X203289964Y-41591542D02*
X203099488Y-41496304D01*
X203099488Y-41496304D02*
X202813773Y-41496304D01*
X202813773Y-41496304D02*
X202623297Y-41591542D01*
X202623297Y-41591542D02*
X202528059Y-41782019D01*
X202528059Y-41782019D02*
X202528059Y-42829638D01*
X200813773Y-42734400D02*
X201004249Y-42829638D01*
X201004249Y-42829638D02*
X201385202Y-42829638D01*
X201385202Y-42829638D02*
X201575678Y-42734400D01*
X201575678Y-42734400D02*
X201670916Y-42543923D01*
X201670916Y-42543923D02*
X201670916Y-41782019D01*
X201670916Y-41782019D02*
X201575678Y-41591542D01*
X201575678Y-41591542D02*
X201385202Y-41496304D01*
X201385202Y-41496304D02*
X201004249Y-41496304D01*
X201004249Y-41496304D02*
X200813773Y-41591542D01*
X200813773Y-41591542D02*
X200718535Y-41782019D01*
X200718535Y-41782019D02*
X200718535Y-41972495D01*
X200718535Y-41972495D02*
X201670916Y-42162971D01*
X199861392Y-42829638D02*
X199861392Y-41496304D01*
X199861392Y-41877257D02*
X199766154Y-41686780D01*
X199766154Y-41686780D02*
X199670916Y-41591542D01*
X199670916Y-41591542D02*
X199480440Y-41496304D01*
X199480440Y-41496304D02*
X199289963Y-41496304D01*
X197099487Y-42829638D02*
X197099487Y-40829638D01*
X197099487Y-40829638D02*
X195956630Y-42829638D01*
X195956630Y-42829638D02*
X195956630Y-40829638D01*
X194147106Y-42829638D02*
X194147106Y-41782019D01*
X194147106Y-41782019D02*
X194242344Y-41591542D01*
X194242344Y-41591542D02*
X194432820Y-41496304D01*
X194432820Y-41496304D02*
X194813773Y-41496304D01*
X194813773Y-41496304D02*
X195004249Y-41591542D01*
X194147106Y-42734400D02*
X194337582Y-42829638D01*
X194337582Y-42829638D02*
X194813773Y-42829638D01*
X194813773Y-42829638D02*
X195004249Y-42734400D01*
X195004249Y-42734400D02*
X195099487Y-42543923D01*
X195099487Y-42543923D02*
X195099487Y-42353447D01*
X195099487Y-42353447D02*
X195004249Y-42162971D01*
X195004249Y-42162971D02*
X194813773Y-42067733D01*
X194813773Y-42067733D02*
X194337582Y-42067733D01*
X194337582Y-42067733D02*
X194147106Y-41972495D01*
X193194725Y-42829638D02*
X193194725Y-41496304D01*
X193194725Y-41686780D02*
X193099487Y-41591542D01*
X193099487Y-41591542D02*
X192909011Y-41496304D01*
X192909011Y-41496304D02*
X192623296Y-41496304D01*
X192623296Y-41496304D02*
X192432820Y-41591542D01*
X192432820Y-41591542D02*
X192337582Y-41782019D01*
X192337582Y-41782019D02*
X192337582Y-42829638D01*
X192337582Y-41782019D02*
X192242344Y-41591542D01*
X192242344Y-41591542D02*
X192051868Y-41496304D01*
X192051868Y-41496304D02*
X191766154Y-41496304D01*
X191766154Y-41496304D02*
X191575677Y-41591542D01*
X191575677Y-41591542D02*
X191480439Y-41782019D01*
X191480439Y-41782019D02*
X191480439Y-42829638D01*
X189766153Y-42734400D02*
X189956629Y-42829638D01*
X189956629Y-42829638D02*
X190337582Y-42829638D01*
X190337582Y-42829638D02*
X190528058Y-42734400D01*
X190528058Y-42734400D02*
X190623296Y-42543923D01*
X190623296Y-42543923D02*
X190623296Y-41782019D01*
X190623296Y-41782019D02*
X190528058Y-41591542D01*
X190528058Y-41591542D02*
X190337582Y-41496304D01*
X190337582Y-41496304D02*
X189956629Y-41496304D01*
X189956629Y-41496304D02*
X189766153Y-41591542D01*
X189766153Y-41591542D02*
X189670915Y-41782019D01*
X189670915Y-41782019D02*
X189670915Y-41972495D01*
X189670915Y-41972495D02*
X190623296Y-42162971D01*
X212432821Y-45287733D02*
X210909012Y-45287733D01*
X208051869Y-45097257D02*
X208051869Y-46049638D01*
X208718535Y-44049638D02*
X208051869Y-45097257D01*
X208051869Y-45097257D02*
X207385202Y-44049638D01*
X205861392Y-44716304D02*
X205861392Y-46049638D01*
X206718535Y-44716304D02*
X206718535Y-45763923D01*
X206718535Y-45763923D02*
X206623297Y-45954400D01*
X206623297Y-45954400D02*
X206432821Y-46049638D01*
X206432821Y-46049638D02*
X206147106Y-46049638D01*
X206147106Y-46049638D02*
X205956630Y-45954400D01*
X205956630Y-45954400D02*
X205861392Y-45859161D01*
X205099487Y-44716304D02*
X204623297Y-46049638D01*
X204147106Y-44716304D02*
X204623297Y-46049638D01*
X204623297Y-46049638D02*
X204813773Y-46525828D01*
X204813773Y-46525828D02*
X204909011Y-46621066D01*
X204909011Y-46621066D02*
X205099487Y-46716304D01*
X202528058Y-46049638D02*
X202528058Y-45002019D01*
X202528058Y-45002019D02*
X202623296Y-44811542D01*
X202623296Y-44811542D02*
X202813772Y-44716304D01*
X202813772Y-44716304D02*
X203194725Y-44716304D01*
X203194725Y-44716304D02*
X203385201Y-44811542D01*
X202528058Y-45954400D02*
X202718534Y-46049638D01*
X202718534Y-46049638D02*
X203194725Y-46049638D01*
X203194725Y-46049638D02*
X203385201Y-45954400D01*
X203385201Y-45954400D02*
X203480439Y-45763923D01*
X203480439Y-45763923D02*
X203480439Y-45573447D01*
X203480439Y-45573447D02*
X203385201Y-45382971D01*
X203385201Y-45382971D02*
X203194725Y-45287733D01*
X203194725Y-45287733D02*
X202718534Y-45287733D01*
X202718534Y-45287733D02*
X202528058Y-45192495D01*
X200051867Y-46049638D02*
X200051867Y-44049638D01*
X200051867Y-44049638D02*
X199385200Y-45478209D01*
X199385200Y-45478209D02*
X198718534Y-44049638D01*
X198718534Y-44049638D02*
X198718534Y-46049638D01*
X197480439Y-46049638D02*
X197670915Y-45954400D01*
X197670915Y-45954400D02*
X197766153Y-45859161D01*
X197766153Y-45859161D02*
X197861391Y-45668685D01*
X197861391Y-45668685D02*
X197861391Y-45097257D01*
X197861391Y-45097257D02*
X197766153Y-44906780D01*
X197766153Y-44906780D02*
X197670915Y-44811542D01*
X197670915Y-44811542D02*
X197480439Y-44716304D01*
X197480439Y-44716304D02*
X197194724Y-44716304D01*
X197194724Y-44716304D02*
X197004248Y-44811542D01*
X197004248Y-44811542D02*
X196909010Y-44906780D01*
X196909010Y-44906780D02*
X196813772Y-45097257D01*
X196813772Y-45097257D02*
X196813772Y-45668685D01*
X196813772Y-45668685D02*
X196909010Y-45859161D01*
X196909010Y-45859161D02*
X197004248Y-45954400D01*
X197004248Y-45954400D02*
X197194724Y-46049638D01*
X197194724Y-46049638D02*
X197480439Y-46049638D01*
X195099486Y-45954400D02*
X195289962Y-46049638D01*
X195289962Y-46049638D02*
X195670915Y-46049638D01*
X195670915Y-46049638D02*
X195861391Y-45954400D01*
X195861391Y-45954400D02*
X195956629Y-45859161D01*
X195956629Y-45859161D02*
X196051867Y-45668685D01*
X196051867Y-45668685D02*
X196051867Y-45097257D01*
X196051867Y-45097257D02*
X195956629Y-44906780D01*
X195956629Y-44906780D02*
X195861391Y-44811542D01*
X195861391Y-44811542D02*
X195670915Y-44716304D01*
X195670915Y-44716304D02*
X195289962Y-44716304D01*
X195289962Y-44716304D02*
X195099486Y-44811542D01*
X194242343Y-46049638D02*
X194242343Y-44049638D01*
X193385200Y-46049638D02*
X193385200Y-45002019D01*
X193385200Y-45002019D02*
X193480438Y-44811542D01*
X193480438Y-44811542D02*
X193670914Y-44716304D01*
X193670914Y-44716304D02*
X193956629Y-44716304D01*
X193956629Y-44716304D02*
X194147105Y-44811542D01*
X194147105Y-44811542D02*
X194242343Y-44906780D01*
X192432819Y-46049638D02*
X192432819Y-44716304D01*
X192432819Y-44049638D02*
X192528057Y-44144876D01*
X192528057Y-44144876D02*
X192432819Y-44240114D01*
X192432819Y-44240114D02*
X192337581Y-44144876D01*
X192337581Y-44144876D02*
X192432819Y-44049638D01*
X192432819Y-44049638D02*
X192432819Y-44240114D01*
X191670914Y-44716304D02*
X190623295Y-44716304D01*
X190623295Y-44716304D02*
X191670914Y-46049638D01*
X191670914Y-46049638D02*
X190623295Y-46049638D01*
X189004247Y-44716304D02*
X189004247Y-46049638D01*
X189861390Y-44716304D02*
X189861390Y-45763923D01*
X189861390Y-45763923D02*
X189766152Y-45954400D01*
X189766152Y-45954400D02*
X189575676Y-46049638D01*
X189575676Y-46049638D02*
X189289961Y-46049638D01*
X189289961Y-46049638D02*
X189099485Y-45954400D01*
X189099485Y-45954400D02*
X189004247Y-45859161D01*
X188051866Y-46049638D02*
X188051866Y-44049638D01*
X187861390Y-45287733D02*
X187289961Y-46049638D01*
X187289961Y-44716304D02*
X188051866Y-45478209D01*
X186432818Y-46049638D02*
X186432818Y-44716304D01*
X186432818Y-44049638D02*
X186528056Y-44144876D01*
X186528056Y-44144876D02*
X186432818Y-44240114D01*
X186432818Y-44240114D02*
X186337580Y-44144876D01*
X186337580Y-44144876D02*
X186432818Y-44049638D01*
X186432818Y-44049638D02*
X186432818Y-44240114D01*
X212432821Y-48507733D02*
X210909012Y-48507733D01*
X208051869Y-48317257D02*
X208051869Y-49269638D01*
X208718535Y-47269638D02*
X208051869Y-48317257D01*
X208051869Y-48317257D02*
X207385202Y-47269638D01*
X205861392Y-47936304D02*
X205861392Y-49269638D01*
X206718535Y-47936304D02*
X206718535Y-48983923D01*
X206718535Y-48983923D02*
X206623297Y-49174400D01*
X206623297Y-49174400D02*
X206432821Y-49269638D01*
X206432821Y-49269638D02*
X206147106Y-49269638D01*
X206147106Y-49269638D02*
X205956630Y-49174400D01*
X205956630Y-49174400D02*
X205861392Y-49079161D01*
X205004249Y-49174400D02*
X204813773Y-49269638D01*
X204813773Y-49269638D02*
X204432821Y-49269638D01*
X204432821Y-49269638D02*
X204242344Y-49174400D01*
X204242344Y-49174400D02*
X204147106Y-48983923D01*
X204147106Y-48983923D02*
X204147106Y-48888685D01*
X204147106Y-48888685D02*
X204242344Y-48698209D01*
X204242344Y-48698209D02*
X204432821Y-48602971D01*
X204432821Y-48602971D02*
X204718535Y-48602971D01*
X204718535Y-48602971D02*
X204909011Y-48507733D01*
X204909011Y-48507733D02*
X205004249Y-48317257D01*
X205004249Y-48317257D02*
X205004249Y-48222019D01*
X205004249Y-48222019D02*
X204909011Y-48031542D01*
X204909011Y-48031542D02*
X204718535Y-47936304D01*
X204718535Y-47936304D02*
X204432821Y-47936304D01*
X204432821Y-47936304D02*
X204242344Y-48031542D01*
X202432820Y-47936304D02*
X202432820Y-49269638D01*
X203289963Y-47936304D02*
X203289963Y-48983923D01*
X203289963Y-48983923D02*
X203194725Y-49174400D01*
X203194725Y-49174400D02*
X203004249Y-49269638D01*
X203004249Y-49269638D02*
X202718534Y-49269638D01*
X202718534Y-49269638D02*
X202528058Y-49174400D01*
X202528058Y-49174400D02*
X202432820Y-49079161D01*
X201480439Y-49269638D02*
X201480439Y-47269638D01*
X201289963Y-48507733D02*
X200718534Y-49269638D01*
X200718534Y-47936304D02*
X201480439Y-48698209D01*
X199099486Y-49174400D02*
X199289962Y-49269638D01*
X199289962Y-49269638D02*
X199670915Y-49269638D01*
X199670915Y-49269638D02*
X199861391Y-49174400D01*
X199861391Y-49174400D02*
X199956629Y-48983923D01*
X199956629Y-48983923D02*
X199956629Y-48222019D01*
X199956629Y-48222019D02*
X199861391Y-48031542D01*
X199861391Y-48031542D02*
X199670915Y-47936304D01*
X199670915Y-47936304D02*
X199289962Y-47936304D01*
X199289962Y-47936304D02*
X199099486Y-48031542D01*
X199099486Y-48031542D02*
X199004248Y-48222019D01*
X199004248Y-48222019D02*
X199004248Y-48412495D01*
X199004248Y-48412495D02*
X199956629Y-48602971D01*
X196242343Y-48317257D02*
X196242343Y-49269638D01*
X196909009Y-47269638D02*
X196242343Y-48317257D01*
X196242343Y-48317257D02*
X195575676Y-47269638D01*
X194051866Y-49269638D02*
X194051866Y-48222019D01*
X194051866Y-48222019D02*
X194147104Y-48031542D01*
X194147104Y-48031542D02*
X194337580Y-47936304D01*
X194337580Y-47936304D02*
X194718533Y-47936304D01*
X194718533Y-47936304D02*
X194909009Y-48031542D01*
X194051866Y-49174400D02*
X194242342Y-49269638D01*
X194242342Y-49269638D02*
X194718533Y-49269638D01*
X194718533Y-49269638D02*
X194909009Y-49174400D01*
X194909009Y-49174400D02*
X195004247Y-48983923D01*
X195004247Y-48983923D02*
X195004247Y-48793447D01*
X195004247Y-48793447D02*
X194909009Y-48602971D01*
X194909009Y-48602971D02*
X194718533Y-48507733D01*
X194718533Y-48507733D02*
X194242342Y-48507733D01*
X194242342Y-48507733D02*
X194051866Y-48412495D01*
X193099485Y-49269638D02*
X193099485Y-47936304D01*
X193099485Y-48126780D02*
X193004247Y-48031542D01*
X193004247Y-48031542D02*
X192813771Y-47936304D01*
X192813771Y-47936304D02*
X192528056Y-47936304D01*
X192528056Y-47936304D02*
X192337580Y-48031542D01*
X192337580Y-48031542D02*
X192242342Y-48222019D01*
X192242342Y-48222019D02*
X192242342Y-49269638D01*
X192242342Y-48222019D02*
X192147104Y-48031542D01*
X192147104Y-48031542D02*
X191956628Y-47936304D01*
X191956628Y-47936304D02*
X191670914Y-47936304D01*
X191670914Y-47936304D02*
X191480437Y-48031542D01*
X191480437Y-48031542D02*
X191385199Y-48222019D01*
X191385199Y-48222019D02*
X191385199Y-49269638D01*
X189575675Y-49269638D02*
X189575675Y-48222019D01*
X189575675Y-48222019D02*
X189670913Y-48031542D01*
X189670913Y-48031542D02*
X189861389Y-47936304D01*
X189861389Y-47936304D02*
X190242342Y-47936304D01*
X190242342Y-47936304D02*
X190432818Y-48031542D01*
X189575675Y-49174400D02*
X189766151Y-49269638D01*
X189766151Y-49269638D02*
X190242342Y-49269638D01*
X190242342Y-49269638D02*
X190432818Y-49174400D01*
X190432818Y-49174400D02*
X190528056Y-48983923D01*
X190528056Y-48983923D02*
X190528056Y-48793447D01*
X190528056Y-48793447D02*
X190432818Y-48602971D01*
X190432818Y-48602971D02*
X190242342Y-48507733D01*
X190242342Y-48507733D02*
X189766151Y-48507733D01*
X189766151Y-48507733D02*
X189575675Y-48412495D01*
X188718532Y-49174400D02*
X188528056Y-49269638D01*
X188528056Y-49269638D02*
X188147104Y-49269638D01*
X188147104Y-49269638D02*
X187956627Y-49174400D01*
X187956627Y-49174400D02*
X187861389Y-48983923D01*
X187861389Y-48983923D02*
X187861389Y-48888685D01*
X187861389Y-48888685D02*
X187956627Y-48698209D01*
X187956627Y-48698209D02*
X188147104Y-48602971D01*
X188147104Y-48602971D02*
X188432818Y-48602971D01*
X188432818Y-48602971D02*
X188623294Y-48507733D01*
X188623294Y-48507733D02*
X188718532Y-48317257D01*
X188718532Y-48317257D02*
X188718532Y-48222019D01*
X188718532Y-48222019D02*
X188623294Y-48031542D01*
X188623294Y-48031542D02*
X188432818Y-47936304D01*
X188432818Y-47936304D02*
X188147104Y-47936304D01*
X188147104Y-47936304D02*
X187956627Y-48031542D01*
X186147103Y-49269638D02*
X186147103Y-48222019D01*
X186147103Y-48222019D02*
X186242341Y-48031542D01*
X186242341Y-48031542D02*
X186432817Y-47936304D01*
X186432817Y-47936304D02*
X186813770Y-47936304D01*
X186813770Y-47936304D02*
X187004246Y-48031542D01*
X186147103Y-49174400D02*
X186337579Y-49269638D01*
X186337579Y-49269638D02*
X186813770Y-49269638D01*
X186813770Y-49269638D02*
X187004246Y-49174400D01*
X187004246Y-49174400D02*
X187099484Y-48983923D01*
X187099484Y-48983923D02*
X187099484Y-48793447D01*
X187099484Y-48793447D02*
X187004246Y-48602971D01*
X187004246Y-48602971D02*
X186813770Y-48507733D01*
X186813770Y-48507733D02*
X186337579Y-48507733D01*
X186337579Y-48507733D02*
X186147103Y-48412495D01*
X185194722Y-49269638D02*
X185194722Y-47269638D01*
X185004246Y-48507733D02*
X184432817Y-49269638D01*
X184432817Y-47936304D02*
X185194722Y-48698209D01*
X183575674Y-49269638D02*
X183575674Y-47936304D01*
X183575674Y-47269638D02*
X183670912Y-47364876D01*
X183670912Y-47364876D02*
X183575674Y-47460114D01*
X183575674Y-47460114D02*
X183480436Y-47364876D01*
X183480436Y-47364876D02*
X183575674Y-47269638D01*
X183575674Y-47269638D02*
X183575674Y-47460114D01*
M02*
