%TF.GenerationSoftware,KiCad,Pcbnew,7.0.11*%
%TF.CreationDate,2025-03-20T11:18:49+09:00*%
%TF.ProjectId,RDC_Humanoid_Logic,5244435f-4875-46d6-916e-6f69645f4c6f,rev?*%
%TF.SameCoordinates,Original*%
%TF.FileFunction,Legend,Top*%
%TF.FilePolarity,Positive*%
%FSLAX46Y46*%
G04 Gerber Fmt 4.6, Leading zero omitted, Abs format (unit mm)*
G04 Created by KiCad (PCBNEW 7.0.11) date 2025-03-20 11:18:49*
%MOMM*%
%LPD*%
G01*
G04 APERTURE LIST*
%ADD10C,0.150000*%
%ADD11C,0.275000*%
%ADD12C,0.300000*%
%ADD13C,0.100000*%
%ADD14C,0.120000*%
G04 APERTURE END LIST*
D10*
X73542500Y-69760000D02*
X129542500Y-69760000D01*
X129542500Y-154760000D01*
X73542500Y-154760000D01*
X73542500Y-69760000D01*
X144780000Y-68580000D02*
X144780000Y-82067400D01*
X138506200Y-82067400D02*
X138507500Y-79475000D01*
X138506200Y-82067400D02*
X144780000Y-82067400D01*
X144780000Y-84556600D01*
X138506200Y-84556600D01*
X138506200Y-82067400D01*
X138507500Y-76875000D02*
X141107500Y-76875000D01*
X141097000Y-68580000D02*
X144780000Y-68580000D01*
X144576800Y-82067400D02*
X138506200Y-82067400D01*
X141097000Y-76885800D02*
X141097000Y-68580000D01*
D11*
X117612500Y-47800000D02*
G75*
G03*
X117337500Y-47800000I-137500J0D01*
G01*
X117337500Y-47800000D02*
G75*
G03*
X117612500Y-47800000I137500J0D01*
G01*
D10*
X196672946Y-131190254D02*
G75*
G03*
X195807854Y-131190254I-432546J0D01*
G01*
X195807854Y-131190254D02*
G75*
G03*
X196672946Y-131190254I432546J0D01*
G01*
X177114946Y-131368800D02*
G75*
G03*
X176249854Y-131368800I-432546J0D01*
G01*
X176249854Y-131368800D02*
G75*
G03*
X177114946Y-131368800I432546J0D01*
G01*
X185058207Y-159794580D02*
X185010588Y-159842200D01*
X185010588Y-159842200D02*
X184867731Y-159889819D01*
X184867731Y-159889819D02*
X184772493Y-159889819D01*
X184772493Y-159889819D02*
X184629636Y-159842200D01*
X184629636Y-159842200D02*
X184534398Y-159746961D01*
X184534398Y-159746961D02*
X184486779Y-159651723D01*
X184486779Y-159651723D02*
X184439160Y-159461247D01*
X184439160Y-159461247D02*
X184439160Y-159318390D01*
X184439160Y-159318390D02*
X184486779Y-159127914D01*
X184486779Y-159127914D02*
X184534398Y-159032676D01*
X184534398Y-159032676D02*
X184629636Y-158937438D01*
X184629636Y-158937438D02*
X184772493Y-158889819D01*
X184772493Y-158889819D02*
X184867731Y-158889819D01*
X184867731Y-158889819D02*
X185010588Y-158937438D01*
X185010588Y-158937438D02*
X185058207Y-158985057D01*
X185439160Y-159604104D02*
X185915350Y-159604104D01*
X185343922Y-159889819D02*
X185677255Y-158889819D01*
X185677255Y-158889819D02*
X186010588Y-159889819D01*
X186343922Y-159889819D02*
X186343922Y-158889819D01*
X186343922Y-158889819D02*
X186915350Y-159889819D01*
X186915350Y-159889819D02*
X186915350Y-158889819D01*
X187343922Y-158985057D02*
X187391541Y-158937438D01*
X187391541Y-158937438D02*
X187486779Y-158889819D01*
X187486779Y-158889819D02*
X187724874Y-158889819D01*
X187724874Y-158889819D02*
X187820112Y-158937438D01*
X187820112Y-158937438D02*
X187867731Y-158985057D01*
X187867731Y-158985057D02*
X187915350Y-159080295D01*
X187915350Y-159080295D02*
X187915350Y-159175533D01*
X187915350Y-159175533D02*
X187867731Y-159318390D01*
X187867731Y-159318390D02*
X187296303Y-159889819D01*
X187296303Y-159889819D02*
X187915350Y-159889819D01*
X143379819Y-80943220D02*
X142713152Y-80943220D01*
X142903628Y-80943220D02*
X142808390Y-80895601D01*
X142808390Y-80895601D02*
X142760771Y-80847982D01*
X142760771Y-80847982D02*
X142713152Y-80752744D01*
X142713152Y-80752744D02*
X142713152Y-80657506D01*
X142713152Y-80324172D02*
X143713152Y-80324172D01*
X142760771Y-80324172D02*
X142713152Y-80228934D01*
X142713152Y-80228934D02*
X142713152Y-80038458D01*
X142713152Y-80038458D02*
X142760771Y-79943220D01*
X142760771Y-79943220D02*
X142808390Y-79895601D01*
X142808390Y-79895601D02*
X142903628Y-79847982D01*
X142903628Y-79847982D02*
X143189342Y-79847982D01*
X143189342Y-79847982D02*
X143284580Y-79895601D01*
X143284580Y-79895601D02*
X143332200Y-79943220D01*
X143332200Y-79943220D02*
X143379819Y-80038458D01*
X143379819Y-80038458D02*
X143379819Y-80228934D01*
X143379819Y-80228934D02*
X143332200Y-80324172D01*
X143379819Y-79419410D02*
X142713152Y-79419410D01*
X142379819Y-79419410D02*
X142427438Y-79467029D01*
X142427438Y-79467029D02*
X142475057Y-79419410D01*
X142475057Y-79419410D02*
X142427438Y-79371791D01*
X142427438Y-79371791D02*
X142379819Y-79419410D01*
X142379819Y-79419410D02*
X142475057Y-79419410D01*
X143475057Y-79181316D02*
X143475057Y-78419411D01*
X142713152Y-78181315D02*
X143713152Y-78181315D01*
X142760771Y-78181315D02*
X142713152Y-78086077D01*
X142713152Y-78086077D02*
X142713152Y-77895601D01*
X142713152Y-77895601D02*
X142760771Y-77800363D01*
X142760771Y-77800363D02*
X142808390Y-77752744D01*
X142808390Y-77752744D02*
X142903628Y-77705125D01*
X142903628Y-77705125D02*
X143189342Y-77705125D01*
X143189342Y-77705125D02*
X143284580Y-77752744D01*
X143284580Y-77752744D02*
X143332200Y-77800363D01*
X143332200Y-77800363D02*
X143379819Y-77895601D01*
X143379819Y-77895601D02*
X143379819Y-78086077D01*
X143379819Y-78086077D02*
X143332200Y-78181315D01*
X143379819Y-77133696D02*
X143332200Y-77228934D01*
X143332200Y-77228934D02*
X143284580Y-77276553D01*
X143284580Y-77276553D02*
X143189342Y-77324172D01*
X143189342Y-77324172D02*
X142903628Y-77324172D01*
X142903628Y-77324172D02*
X142808390Y-77276553D01*
X142808390Y-77276553D02*
X142760771Y-77228934D01*
X142760771Y-77228934D02*
X142713152Y-77133696D01*
X142713152Y-77133696D02*
X142713152Y-76990839D01*
X142713152Y-76990839D02*
X142760771Y-76895601D01*
X142760771Y-76895601D02*
X142808390Y-76847982D01*
X142808390Y-76847982D02*
X142903628Y-76800363D01*
X142903628Y-76800363D02*
X143189342Y-76800363D01*
X143189342Y-76800363D02*
X143284580Y-76847982D01*
X143284580Y-76847982D02*
X143332200Y-76895601D01*
X143332200Y-76895601D02*
X143379819Y-76990839D01*
X143379819Y-76990839D02*
X143379819Y-77133696D01*
X142713152Y-76467029D02*
X143379819Y-76276553D01*
X143379819Y-76276553D02*
X142903628Y-76086077D01*
X142903628Y-76086077D02*
X143379819Y-75895601D01*
X143379819Y-75895601D02*
X142713152Y-75705125D01*
X143332200Y-74943220D02*
X143379819Y-75038458D01*
X143379819Y-75038458D02*
X143379819Y-75228934D01*
X143379819Y-75228934D02*
X143332200Y-75324172D01*
X143332200Y-75324172D02*
X143236961Y-75371791D01*
X143236961Y-75371791D02*
X142856009Y-75371791D01*
X142856009Y-75371791D02*
X142760771Y-75324172D01*
X142760771Y-75324172D02*
X142713152Y-75228934D01*
X142713152Y-75228934D02*
X142713152Y-75038458D01*
X142713152Y-75038458D02*
X142760771Y-74943220D01*
X142760771Y-74943220D02*
X142856009Y-74895601D01*
X142856009Y-74895601D02*
X142951247Y-74895601D01*
X142951247Y-74895601D02*
X143046485Y-75371791D01*
X143379819Y-74467029D02*
X142713152Y-74467029D01*
X142903628Y-74467029D02*
X142808390Y-74419410D01*
X142808390Y-74419410D02*
X142760771Y-74371791D01*
X142760771Y-74371791D02*
X142713152Y-74276553D01*
X142713152Y-74276553D02*
X142713152Y-74181315D01*
X143760771Y-73562267D02*
X143713152Y-73609886D01*
X143713152Y-73609886D02*
X143570295Y-73705124D01*
X143570295Y-73705124D02*
X143475057Y-73752743D01*
X143475057Y-73752743D02*
X143332200Y-73800362D01*
X143332200Y-73800362D02*
X143094104Y-73847981D01*
X143094104Y-73847981D02*
X142903628Y-73847981D01*
X142903628Y-73847981D02*
X142665533Y-73800362D01*
X142665533Y-73800362D02*
X142522676Y-73752743D01*
X142522676Y-73752743D02*
X142427438Y-73705124D01*
X142427438Y-73705124D02*
X142284580Y-73609886D01*
X142284580Y-73609886D02*
X142236961Y-73562267D01*
X142379819Y-72705124D02*
X142379819Y-73181314D01*
X142379819Y-73181314D02*
X142856009Y-73228933D01*
X142856009Y-73228933D02*
X142808390Y-73181314D01*
X142808390Y-73181314D02*
X142760771Y-73086076D01*
X142760771Y-73086076D02*
X142760771Y-72847981D01*
X142760771Y-72847981D02*
X142808390Y-72752743D01*
X142808390Y-72752743D02*
X142856009Y-72705124D01*
X142856009Y-72705124D02*
X142951247Y-72657505D01*
X142951247Y-72657505D02*
X143189342Y-72657505D01*
X143189342Y-72657505D02*
X143284580Y-72705124D01*
X143284580Y-72705124D02*
X143332200Y-72752743D01*
X143332200Y-72752743D02*
X143379819Y-72847981D01*
X143379819Y-72847981D02*
X143379819Y-73086076D01*
X143379819Y-73086076D02*
X143332200Y-73181314D01*
X143332200Y-73181314D02*
X143284580Y-73228933D01*
X142379819Y-72371790D02*
X143379819Y-72038457D01*
X143379819Y-72038457D02*
X142379819Y-71705124D01*
X142379819Y-70895600D02*
X142379819Y-71371790D01*
X142379819Y-71371790D02*
X142856009Y-71419409D01*
X142856009Y-71419409D02*
X142808390Y-71371790D01*
X142808390Y-71371790D02*
X142760771Y-71276552D01*
X142760771Y-71276552D02*
X142760771Y-71038457D01*
X142760771Y-71038457D02*
X142808390Y-70943219D01*
X142808390Y-70943219D02*
X142856009Y-70895600D01*
X142856009Y-70895600D02*
X142951247Y-70847981D01*
X142951247Y-70847981D02*
X143189342Y-70847981D01*
X143189342Y-70847981D02*
X143284580Y-70895600D01*
X143284580Y-70895600D02*
X143332200Y-70943219D01*
X143332200Y-70943219D02*
X143379819Y-71038457D01*
X143379819Y-71038457D02*
X143379819Y-71276552D01*
X143379819Y-71276552D02*
X143332200Y-71371790D01*
X143332200Y-71371790D02*
X143284580Y-71419409D01*
X143094104Y-70467028D02*
X143094104Y-69990838D01*
X143379819Y-70562266D02*
X142379819Y-70228933D01*
X142379819Y-70228933D02*
X143379819Y-69895600D01*
X143760771Y-69657504D02*
X143713152Y-69609885D01*
X143713152Y-69609885D02*
X143570295Y-69514647D01*
X143570295Y-69514647D02*
X143475057Y-69467028D01*
X143475057Y-69467028D02*
X143332200Y-69419409D01*
X143332200Y-69419409D02*
X143094104Y-69371790D01*
X143094104Y-69371790D02*
X142903628Y-69371790D01*
X142903628Y-69371790D02*
X142665533Y-69419409D01*
X142665533Y-69419409D02*
X142522676Y-69467028D01*
X142522676Y-69467028D02*
X142427438Y-69514647D01*
X142427438Y-69514647D02*
X142284580Y-69609885D01*
X142284580Y-69609885D02*
X142236961Y-69657504D01*
X128061779Y-29501069D02*
X128061779Y-28501069D01*
X128061779Y-28501069D02*
X128442731Y-28501069D01*
X128442731Y-28501069D02*
X128537969Y-28548688D01*
X128537969Y-28548688D02*
X128585588Y-28596307D01*
X128585588Y-28596307D02*
X128633207Y-28691545D01*
X128633207Y-28691545D02*
X128633207Y-28834402D01*
X128633207Y-28834402D02*
X128585588Y-28929640D01*
X128585588Y-28929640D02*
X128537969Y-28977259D01*
X128537969Y-28977259D02*
X128442731Y-29024878D01*
X128442731Y-29024878D02*
X128061779Y-29024878D01*
X129252255Y-28501069D02*
X129442731Y-28501069D01*
X129442731Y-28501069D02*
X129537969Y-28548688D01*
X129537969Y-28548688D02*
X129633207Y-28643926D01*
X129633207Y-28643926D02*
X129680826Y-28834402D01*
X129680826Y-28834402D02*
X129680826Y-29167735D01*
X129680826Y-29167735D02*
X129633207Y-29358211D01*
X129633207Y-29358211D02*
X129537969Y-29453450D01*
X129537969Y-29453450D02*
X129442731Y-29501069D01*
X129442731Y-29501069D02*
X129252255Y-29501069D01*
X129252255Y-29501069D02*
X129157017Y-29453450D01*
X129157017Y-29453450D02*
X129061779Y-29358211D01*
X129061779Y-29358211D02*
X129014160Y-29167735D01*
X129014160Y-29167735D02*
X129014160Y-28834402D01*
X129014160Y-28834402D02*
X129061779Y-28643926D01*
X129061779Y-28643926D02*
X129157017Y-28548688D01*
X129157017Y-28548688D02*
X129252255Y-28501069D01*
X130014160Y-28501069D02*
X130252255Y-29501069D01*
X130252255Y-29501069D02*
X130442731Y-28786783D01*
X130442731Y-28786783D02*
X130633207Y-29501069D01*
X130633207Y-29501069D02*
X130871303Y-28501069D01*
X131252255Y-28977259D02*
X131585588Y-28977259D01*
X131728445Y-29501069D02*
X131252255Y-29501069D01*
X131252255Y-29501069D02*
X131252255Y-28501069D01*
X131252255Y-28501069D02*
X131728445Y-28501069D01*
X132728445Y-29501069D02*
X132395112Y-29024878D01*
X132157017Y-29501069D02*
X132157017Y-28501069D01*
X132157017Y-28501069D02*
X132537969Y-28501069D01*
X132537969Y-28501069D02*
X132633207Y-28548688D01*
X132633207Y-28548688D02*
X132680826Y-28596307D01*
X132680826Y-28596307D02*
X132728445Y-28691545D01*
X132728445Y-28691545D02*
X132728445Y-28834402D01*
X132728445Y-28834402D02*
X132680826Y-28929640D01*
X132680826Y-28929640D02*
X132633207Y-28977259D01*
X132633207Y-28977259D02*
X132537969Y-29024878D01*
X132537969Y-29024878D02*
X132157017Y-29024878D01*
D12*
X90716415Y-74669638D02*
X90049748Y-73717257D01*
X89573558Y-74669638D02*
X89573558Y-72669638D01*
X89573558Y-72669638D02*
X90335463Y-72669638D01*
X90335463Y-72669638D02*
X90525939Y-72764876D01*
X90525939Y-72764876D02*
X90621177Y-72860114D01*
X90621177Y-72860114D02*
X90716415Y-73050590D01*
X90716415Y-73050590D02*
X90716415Y-73336304D01*
X90716415Y-73336304D02*
X90621177Y-73526780D01*
X90621177Y-73526780D02*
X90525939Y-73622019D01*
X90525939Y-73622019D02*
X90335463Y-73717257D01*
X90335463Y-73717257D02*
X89573558Y-73717257D01*
X92430701Y-74669638D02*
X92430701Y-73622019D01*
X92430701Y-73622019D02*
X92335463Y-73431542D01*
X92335463Y-73431542D02*
X92144987Y-73336304D01*
X92144987Y-73336304D02*
X91764034Y-73336304D01*
X91764034Y-73336304D02*
X91573558Y-73431542D01*
X92430701Y-74574400D02*
X92240225Y-74669638D01*
X92240225Y-74669638D02*
X91764034Y-74669638D01*
X91764034Y-74669638D02*
X91573558Y-74574400D01*
X91573558Y-74574400D02*
X91478320Y-74383923D01*
X91478320Y-74383923D02*
X91478320Y-74193447D01*
X91478320Y-74193447D02*
X91573558Y-74002971D01*
X91573558Y-74002971D02*
X91764034Y-73907733D01*
X91764034Y-73907733D02*
X92240225Y-73907733D01*
X92240225Y-73907733D02*
X92430701Y-73812495D01*
X93287844Y-74574400D02*
X93478320Y-74669638D01*
X93478320Y-74669638D02*
X93859272Y-74669638D01*
X93859272Y-74669638D02*
X94049749Y-74574400D01*
X94049749Y-74574400D02*
X94144987Y-74383923D01*
X94144987Y-74383923D02*
X94144987Y-74288685D01*
X94144987Y-74288685D02*
X94049749Y-74098209D01*
X94049749Y-74098209D02*
X93859272Y-74002971D01*
X93859272Y-74002971D02*
X93573558Y-74002971D01*
X93573558Y-74002971D02*
X93383082Y-73907733D01*
X93383082Y-73907733D02*
X93287844Y-73717257D01*
X93287844Y-73717257D02*
X93287844Y-73622019D01*
X93287844Y-73622019D02*
X93383082Y-73431542D01*
X93383082Y-73431542D02*
X93573558Y-73336304D01*
X93573558Y-73336304D02*
X93859272Y-73336304D01*
X93859272Y-73336304D02*
X94049749Y-73431542D01*
X95002130Y-73336304D02*
X95002130Y-75336304D01*
X95002130Y-73431542D02*
X95192606Y-73336304D01*
X95192606Y-73336304D02*
X95573559Y-73336304D01*
X95573559Y-73336304D02*
X95764035Y-73431542D01*
X95764035Y-73431542D02*
X95859273Y-73526780D01*
X95859273Y-73526780D02*
X95954511Y-73717257D01*
X95954511Y-73717257D02*
X95954511Y-74288685D01*
X95954511Y-74288685D02*
X95859273Y-74479161D01*
X95859273Y-74479161D02*
X95764035Y-74574400D01*
X95764035Y-74574400D02*
X95573559Y-74669638D01*
X95573559Y-74669638D02*
X95192606Y-74669638D01*
X95192606Y-74669638D02*
X95002130Y-74574400D01*
X96811654Y-74669638D02*
X96811654Y-72669638D01*
X96811654Y-73431542D02*
X97002130Y-73336304D01*
X97002130Y-73336304D02*
X97383083Y-73336304D01*
X97383083Y-73336304D02*
X97573559Y-73431542D01*
X97573559Y-73431542D02*
X97668797Y-73526780D01*
X97668797Y-73526780D02*
X97764035Y-73717257D01*
X97764035Y-73717257D02*
X97764035Y-74288685D01*
X97764035Y-74288685D02*
X97668797Y-74479161D01*
X97668797Y-74479161D02*
X97573559Y-74574400D01*
X97573559Y-74574400D02*
X97383083Y-74669638D01*
X97383083Y-74669638D02*
X97002130Y-74669638D01*
X97002130Y-74669638D02*
X96811654Y-74574400D01*
X99383083Y-74574400D02*
X99192607Y-74669638D01*
X99192607Y-74669638D02*
X98811654Y-74669638D01*
X98811654Y-74669638D02*
X98621178Y-74574400D01*
X98621178Y-74574400D02*
X98525940Y-74383923D01*
X98525940Y-74383923D02*
X98525940Y-73622019D01*
X98525940Y-73622019D02*
X98621178Y-73431542D01*
X98621178Y-73431542D02*
X98811654Y-73336304D01*
X98811654Y-73336304D02*
X99192607Y-73336304D01*
X99192607Y-73336304D02*
X99383083Y-73431542D01*
X99383083Y-73431542D02*
X99478321Y-73622019D01*
X99478321Y-73622019D02*
X99478321Y-73812495D01*
X99478321Y-73812495D02*
X98525940Y-74002971D01*
X100335464Y-74669638D02*
X100335464Y-73336304D01*
X100335464Y-73717257D02*
X100430702Y-73526780D01*
X100430702Y-73526780D02*
X100525940Y-73431542D01*
X100525940Y-73431542D02*
X100716416Y-73336304D01*
X100716416Y-73336304D02*
X100906893Y-73336304D01*
X101573559Y-74669638D02*
X101573559Y-73336304D01*
X101573559Y-73717257D02*
X101668797Y-73526780D01*
X101668797Y-73526780D02*
X101764035Y-73431542D01*
X101764035Y-73431542D02*
X101954511Y-73336304D01*
X101954511Y-73336304D02*
X102144988Y-73336304D01*
X102621178Y-73336304D02*
X103097368Y-74669638D01*
X103573559Y-73336304D02*
X103097368Y-74669638D01*
X103097368Y-74669638D02*
X102906892Y-75145828D01*
X102906892Y-75145828D02*
X102811654Y-75241066D01*
X102811654Y-75241066D02*
X102621178Y-75336304D01*
X105859274Y-74669638D02*
X105859274Y-72669638D01*
X105859274Y-72669638D02*
X106621179Y-72669638D01*
X106621179Y-72669638D02*
X106811655Y-72764876D01*
X106811655Y-72764876D02*
X106906893Y-72860114D01*
X106906893Y-72860114D02*
X107002131Y-73050590D01*
X107002131Y-73050590D02*
X107002131Y-73336304D01*
X107002131Y-73336304D02*
X106906893Y-73526780D01*
X106906893Y-73526780D02*
X106811655Y-73622019D01*
X106811655Y-73622019D02*
X106621179Y-73717257D01*
X106621179Y-73717257D02*
X105859274Y-73717257D01*
X107859274Y-74669638D02*
X107859274Y-73336304D01*
X107859274Y-72669638D02*
X107764036Y-72764876D01*
X107764036Y-72764876D02*
X107859274Y-72860114D01*
X107859274Y-72860114D02*
X107954512Y-72764876D01*
X107954512Y-72764876D02*
X107859274Y-72669638D01*
X107859274Y-72669638D02*
X107859274Y-72860114D01*
X111287846Y-72669638D02*
X110335465Y-72669638D01*
X110335465Y-72669638D02*
X110240227Y-73622019D01*
X110240227Y-73622019D02*
X110335465Y-73526780D01*
X110335465Y-73526780D02*
X110525941Y-73431542D01*
X110525941Y-73431542D02*
X111002132Y-73431542D01*
X111002132Y-73431542D02*
X111192608Y-73526780D01*
X111192608Y-73526780D02*
X111287846Y-73622019D01*
X111287846Y-73622019D02*
X111383084Y-73812495D01*
X111383084Y-73812495D02*
X111383084Y-74288685D01*
X111383084Y-74288685D02*
X111287846Y-74479161D01*
X111287846Y-74479161D02*
X111192608Y-74574400D01*
X111192608Y-74574400D02*
X111002132Y-74669638D01*
X111002132Y-74669638D02*
X110525941Y-74669638D01*
X110525941Y-74669638D02*
X110335465Y-74574400D01*
X110335465Y-74574400D02*
X110240227Y-74479161D01*
D10*
X134708207Y-29448569D02*
X134374874Y-28972378D01*
X134136779Y-29448569D02*
X134136779Y-28448569D01*
X134136779Y-28448569D02*
X134517731Y-28448569D01*
X134517731Y-28448569D02*
X134612969Y-28496188D01*
X134612969Y-28496188D02*
X134660588Y-28543807D01*
X134660588Y-28543807D02*
X134708207Y-28639045D01*
X134708207Y-28639045D02*
X134708207Y-28781902D01*
X134708207Y-28781902D02*
X134660588Y-28877140D01*
X134660588Y-28877140D02*
X134612969Y-28924759D01*
X134612969Y-28924759D02*
X134517731Y-28972378D01*
X134517731Y-28972378D02*
X134136779Y-28972378D01*
X135565350Y-29448569D02*
X135565350Y-28924759D01*
X135565350Y-28924759D02*
X135517731Y-28829521D01*
X135517731Y-28829521D02*
X135422493Y-28781902D01*
X135422493Y-28781902D02*
X135232017Y-28781902D01*
X135232017Y-28781902D02*
X135136779Y-28829521D01*
X135565350Y-29400950D02*
X135470112Y-29448569D01*
X135470112Y-29448569D02*
X135232017Y-29448569D01*
X135232017Y-29448569D02*
X135136779Y-29400950D01*
X135136779Y-29400950D02*
X135089160Y-29305711D01*
X135089160Y-29305711D02*
X135089160Y-29210473D01*
X135089160Y-29210473D02*
X135136779Y-29115235D01*
X135136779Y-29115235D02*
X135232017Y-29067616D01*
X135232017Y-29067616D02*
X135470112Y-29067616D01*
X135470112Y-29067616D02*
X135565350Y-29019997D01*
X135993922Y-29400950D02*
X136089160Y-29448569D01*
X136089160Y-29448569D02*
X136279636Y-29448569D01*
X136279636Y-29448569D02*
X136374874Y-29400950D01*
X136374874Y-29400950D02*
X136422493Y-29305711D01*
X136422493Y-29305711D02*
X136422493Y-29258092D01*
X136422493Y-29258092D02*
X136374874Y-29162854D01*
X136374874Y-29162854D02*
X136279636Y-29115235D01*
X136279636Y-29115235D02*
X136136779Y-29115235D01*
X136136779Y-29115235D02*
X136041541Y-29067616D01*
X136041541Y-29067616D02*
X135993922Y-28972378D01*
X135993922Y-28972378D02*
X135993922Y-28924759D01*
X135993922Y-28924759D02*
X136041541Y-28829521D01*
X136041541Y-28829521D02*
X136136779Y-28781902D01*
X136136779Y-28781902D02*
X136279636Y-28781902D01*
X136279636Y-28781902D02*
X136374874Y-28829521D01*
X136851065Y-29448569D02*
X136851065Y-28448569D01*
X136851065Y-28448569D02*
X137232017Y-28448569D01*
X137232017Y-28448569D02*
X137327255Y-28496188D01*
X137327255Y-28496188D02*
X137374874Y-28543807D01*
X137374874Y-28543807D02*
X137422493Y-28639045D01*
X137422493Y-28639045D02*
X137422493Y-28781902D01*
X137422493Y-28781902D02*
X137374874Y-28877140D01*
X137374874Y-28877140D02*
X137327255Y-28924759D01*
X137327255Y-28924759D02*
X137232017Y-28972378D01*
X137232017Y-28972378D02*
X136851065Y-28972378D01*
X137851065Y-29448569D02*
X137851065Y-28781902D01*
X137851065Y-28448569D02*
X137803446Y-28496188D01*
X137803446Y-28496188D02*
X137851065Y-28543807D01*
X137851065Y-28543807D02*
X137898684Y-28496188D01*
X137898684Y-28496188D02*
X137851065Y-28448569D01*
X137851065Y-28448569D02*
X137851065Y-28543807D01*
X183764580Y-135021792D02*
X183812200Y-135069411D01*
X183812200Y-135069411D02*
X183859819Y-135212268D01*
X183859819Y-135212268D02*
X183859819Y-135307506D01*
X183859819Y-135307506D02*
X183812200Y-135450363D01*
X183812200Y-135450363D02*
X183716961Y-135545601D01*
X183716961Y-135545601D02*
X183621723Y-135593220D01*
X183621723Y-135593220D02*
X183431247Y-135640839D01*
X183431247Y-135640839D02*
X183288390Y-135640839D01*
X183288390Y-135640839D02*
X183097914Y-135593220D01*
X183097914Y-135593220D02*
X183002676Y-135545601D01*
X183002676Y-135545601D02*
X182907438Y-135450363D01*
X182907438Y-135450363D02*
X182859819Y-135307506D01*
X182859819Y-135307506D02*
X182859819Y-135212268D01*
X182859819Y-135212268D02*
X182907438Y-135069411D01*
X182907438Y-135069411D02*
X182955057Y-135021792D01*
X183574104Y-134640839D02*
X183574104Y-134164649D01*
X183859819Y-134736077D02*
X182859819Y-134402744D01*
X182859819Y-134402744D02*
X183859819Y-134069411D01*
X183859819Y-133736077D02*
X182859819Y-133736077D01*
X182859819Y-133736077D02*
X183859819Y-133164649D01*
X183859819Y-133164649D02*
X182859819Y-133164649D01*
X182955057Y-132736077D02*
X182907438Y-132688458D01*
X182907438Y-132688458D02*
X182859819Y-132593220D01*
X182859819Y-132593220D02*
X182859819Y-132355125D01*
X182859819Y-132355125D02*
X182907438Y-132259887D01*
X182907438Y-132259887D02*
X182955057Y-132212268D01*
X182955057Y-132212268D02*
X183050295Y-132164649D01*
X183050295Y-132164649D02*
X183145533Y-132164649D01*
X183145533Y-132164649D02*
X183288390Y-132212268D01*
X183288390Y-132212268D02*
X183859819Y-132783696D01*
X183859819Y-132783696D02*
X183859819Y-132164649D01*
X163468207Y-159794580D02*
X163420588Y-159842200D01*
X163420588Y-159842200D02*
X163277731Y-159889819D01*
X163277731Y-159889819D02*
X163182493Y-159889819D01*
X163182493Y-159889819D02*
X163039636Y-159842200D01*
X163039636Y-159842200D02*
X162944398Y-159746961D01*
X162944398Y-159746961D02*
X162896779Y-159651723D01*
X162896779Y-159651723D02*
X162849160Y-159461247D01*
X162849160Y-159461247D02*
X162849160Y-159318390D01*
X162849160Y-159318390D02*
X162896779Y-159127914D01*
X162896779Y-159127914D02*
X162944398Y-159032676D01*
X162944398Y-159032676D02*
X163039636Y-158937438D01*
X163039636Y-158937438D02*
X163182493Y-158889819D01*
X163182493Y-158889819D02*
X163277731Y-158889819D01*
X163277731Y-158889819D02*
X163420588Y-158937438D01*
X163420588Y-158937438D02*
X163468207Y-158985057D01*
X163849160Y-159604104D02*
X164325350Y-159604104D01*
X163753922Y-159889819D02*
X164087255Y-158889819D01*
X164087255Y-158889819D02*
X164420588Y-159889819D01*
X164753922Y-159889819D02*
X164753922Y-158889819D01*
X164753922Y-158889819D02*
X165325350Y-159889819D01*
X165325350Y-159889819D02*
X165325350Y-158889819D01*
X166325350Y-159889819D02*
X165753922Y-159889819D01*
X166039636Y-159889819D02*
X166039636Y-158889819D01*
X166039636Y-158889819D02*
X165944398Y-159032676D01*
X165944398Y-159032676D02*
X165849160Y-159127914D01*
X165849160Y-159127914D02*
X165753922Y-159175533D01*
X164074580Y-135171792D02*
X164122200Y-135219411D01*
X164122200Y-135219411D02*
X164169819Y-135362268D01*
X164169819Y-135362268D02*
X164169819Y-135457506D01*
X164169819Y-135457506D02*
X164122200Y-135600363D01*
X164122200Y-135600363D02*
X164026961Y-135695601D01*
X164026961Y-135695601D02*
X163931723Y-135743220D01*
X163931723Y-135743220D02*
X163741247Y-135790839D01*
X163741247Y-135790839D02*
X163598390Y-135790839D01*
X163598390Y-135790839D02*
X163407914Y-135743220D01*
X163407914Y-135743220D02*
X163312676Y-135695601D01*
X163312676Y-135695601D02*
X163217438Y-135600363D01*
X163217438Y-135600363D02*
X163169819Y-135457506D01*
X163169819Y-135457506D02*
X163169819Y-135362268D01*
X163169819Y-135362268D02*
X163217438Y-135219411D01*
X163217438Y-135219411D02*
X163265057Y-135171792D01*
X163884104Y-134790839D02*
X163884104Y-134314649D01*
X164169819Y-134886077D02*
X163169819Y-134552744D01*
X163169819Y-134552744D02*
X164169819Y-134219411D01*
X164169819Y-133886077D02*
X163169819Y-133886077D01*
X163169819Y-133886077D02*
X164169819Y-133314649D01*
X164169819Y-133314649D02*
X163169819Y-133314649D01*
X164169819Y-132314649D02*
X164169819Y-132886077D01*
X164169819Y-132600363D02*
X163169819Y-132600363D01*
X163169819Y-132600363D02*
X163312676Y-132695601D01*
X163312676Y-132695601D02*
X163407914Y-132790839D01*
X163407914Y-132790839D02*
X163455533Y-132886077D01*
X144427255Y-29069819D02*
X144617731Y-29069819D01*
X144617731Y-29069819D02*
X144712969Y-29117438D01*
X144712969Y-29117438D02*
X144808207Y-29212676D01*
X144808207Y-29212676D02*
X144855826Y-29403152D01*
X144855826Y-29403152D02*
X144855826Y-29736485D01*
X144855826Y-29736485D02*
X144808207Y-29926961D01*
X144808207Y-29926961D02*
X144712969Y-30022200D01*
X144712969Y-30022200D02*
X144617731Y-30069819D01*
X144617731Y-30069819D02*
X144427255Y-30069819D01*
X144427255Y-30069819D02*
X144332017Y-30022200D01*
X144332017Y-30022200D02*
X144236779Y-29926961D01*
X144236779Y-29926961D02*
X144189160Y-29736485D01*
X144189160Y-29736485D02*
X144189160Y-29403152D01*
X144189160Y-29403152D02*
X144236779Y-29212676D01*
X144236779Y-29212676D02*
X144332017Y-29117438D01*
X144332017Y-29117438D02*
X144427255Y-29069819D01*
X145284398Y-30069819D02*
X145284398Y-29069819D01*
X145284398Y-29069819D02*
X145855826Y-30069819D01*
X145855826Y-30069819D02*
X145855826Y-29069819D01*
X144227255Y-43269819D02*
X144417731Y-43269819D01*
X144417731Y-43269819D02*
X144512969Y-43317438D01*
X144512969Y-43317438D02*
X144608207Y-43412676D01*
X144608207Y-43412676D02*
X144655826Y-43603152D01*
X144655826Y-43603152D02*
X144655826Y-43936485D01*
X144655826Y-43936485D02*
X144608207Y-44126961D01*
X144608207Y-44126961D02*
X144512969Y-44222200D01*
X144512969Y-44222200D02*
X144417731Y-44269819D01*
X144417731Y-44269819D02*
X144227255Y-44269819D01*
X144227255Y-44269819D02*
X144132017Y-44222200D01*
X144132017Y-44222200D02*
X144036779Y-44126961D01*
X144036779Y-44126961D02*
X143989160Y-43936485D01*
X143989160Y-43936485D02*
X143989160Y-43603152D01*
X143989160Y-43603152D02*
X144036779Y-43412676D01*
X144036779Y-43412676D02*
X144132017Y-43317438D01*
X144132017Y-43317438D02*
X144227255Y-43269819D01*
X145417731Y-43746009D02*
X145084398Y-43746009D01*
X145084398Y-44269819D02*
X145084398Y-43269819D01*
X145084398Y-43269819D02*
X145560588Y-43269819D01*
X146274874Y-43746009D02*
X145941541Y-43746009D01*
X145941541Y-44269819D02*
X145941541Y-43269819D01*
X145941541Y-43269819D02*
X146417731Y-43269819D01*
X140464160Y-29322200D02*
X140607017Y-29369819D01*
X140607017Y-29369819D02*
X140845112Y-29369819D01*
X140845112Y-29369819D02*
X140940350Y-29322200D01*
X140940350Y-29322200D02*
X140987969Y-29274580D01*
X140987969Y-29274580D02*
X141035588Y-29179342D01*
X141035588Y-29179342D02*
X141035588Y-29084104D01*
X141035588Y-29084104D02*
X140987969Y-28988866D01*
X140987969Y-28988866D02*
X140940350Y-28941247D01*
X140940350Y-28941247D02*
X140845112Y-28893628D01*
X140845112Y-28893628D02*
X140654636Y-28846009D01*
X140654636Y-28846009D02*
X140559398Y-28798390D01*
X140559398Y-28798390D02*
X140511779Y-28750771D01*
X140511779Y-28750771D02*
X140464160Y-28655533D01*
X140464160Y-28655533D02*
X140464160Y-28560295D01*
X140464160Y-28560295D02*
X140511779Y-28465057D01*
X140511779Y-28465057D02*
X140559398Y-28417438D01*
X140559398Y-28417438D02*
X140654636Y-28369819D01*
X140654636Y-28369819D02*
X140892731Y-28369819D01*
X140892731Y-28369819D02*
X141035588Y-28417438D01*
X141321303Y-28369819D02*
X141892731Y-28369819D01*
X141607017Y-29369819D02*
X141607017Y-28369819D01*
X142226065Y-29369819D02*
X142226065Y-28369819D01*
X142226065Y-28369819D02*
X142559398Y-29084104D01*
X142559398Y-29084104D02*
X142892731Y-28369819D01*
X142892731Y-28369819D02*
X142892731Y-29369819D01*
D12*
X167043558Y-32759638D02*
X167043558Y-30759638D01*
X167043558Y-30759638D02*
X168186415Y-32759638D01*
X168186415Y-32759638D02*
X168186415Y-30759638D01*
X169138796Y-30759638D02*
X169138796Y-32378685D01*
X169138796Y-32378685D02*
X169234034Y-32569161D01*
X169234034Y-32569161D02*
X169329272Y-32664400D01*
X169329272Y-32664400D02*
X169519748Y-32759638D01*
X169519748Y-32759638D02*
X169900701Y-32759638D01*
X169900701Y-32759638D02*
X170091177Y-32664400D01*
X170091177Y-32664400D02*
X170186415Y-32569161D01*
X170186415Y-32569161D02*
X170281653Y-32378685D01*
X170281653Y-32378685D02*
X170281653Y-30759638D01*
X172376891Y-32569161D02*
X172281653Y-32664400D01*
X172281653Y-32664400D02*
X171995939Y-32759638D01*
X171995939Y-32759638D02*
X171805463Y-32759638D01*
X171805463Y-32759638D02*
X171519748Y-32664400D01*
X171519748Y-32664400D02*
X171329272Y-32473923D01*
X171329272Y-32473923D02*
X171234034Y-32283447D01*
X171234034Y-32283447D02*
X171138796Y-31902495D01*
X171138796Y-31902495D02*
X171138796Y-31616780D01*
X171138796Y-31616780D02*
X171234034Y-31235828D01*
X171234034Y-31235828D02*
X171329272Y-31045352D01*
X171329272Y-31045352D02*
X171519748Y-30854876D01*
X171519748Y-30854876D02*
X171805463Y-30759638D01*
X171805463Y-30759638D02*
X171995939Y-30759638D01*
X171995939Y-30759638D02*
X172281653Y-30854876D01*
X172281653Y-30854876D02*
X172376891Y-30950114D01*
X174186415Y-32759638D02*
X173234034Y-32759638D01*
X173234034Y-32759638D02*
X173234034Y-30759638D01*
X174853082Y-31712019D02*
X175519749Y-31712019D01*
X175805463Y-32759638D02*
X174853082Y-32759638D01*
X174853082Y-32759638D02*
X174853082Y-30759638D01*
X174853082Y-30759638D02*
X175805463Y-30759638D01*
X177043558Y-30759638D02*
X177424511Y-30759638D01*
X177424511Y-30759638D02*
X177614987Y-30854876D01*
X177614987Y-30854876D02*
X177805463Y-31045352D01*
X177805463Y-31045352D02*
X177900701Y-31426304D01*
X177900701Y-31426304D02*
X177900701Y-32092971D01*
X177900701Y-32092971D02*
X177805463Y-32473923D01*
X177805463Y-32473923D02*
X177614987Y-32664400D01*
X177614987Y-32664400D02*
X177424511Y-32759638D01*
X177424511Y-32759638D02*
X177043558Y-32759638D01*
X177043558Y-32759638D02*
X176853082Y-32664400D01*
X176853082Y-32664400D02*
X176662606Y-32473923D01*
X176662606Y-32473923D02*
X176567368Y-32092971D01*
X176567368Y-32092971D02*
X176567368Y-31426304D01*
X176567368Y-31426304D02*
X176662606Y-31045352D01*
X176662606Y-31045352D02*
X176853082Y-30854876D01*
X176853082Y-30854876D02*
X177043558Y-30759638D01*
X178757844Y-31997733D02*
X180281654Y-31997733D01*
X181234034Y-32759638D02*
X181234034Y-30759638D01*
X181234034Y-31712019D02*
X182376891Y-31712019D01*
X182376891Y-32759638D02*
X182376891Y-30759638D01*
X183138796Y-30759638D02*
X184472129Y-30759638D01*
X184472129Y-30759638D02*
X183614986Y-32759638D01*
X186186415Y-30759638D02*
X185234034Y-30759638D01*
X185234034Y-30759638D02*
X185138796Y-31712019D01*
X185138796Y-31712019D02*
X185234034Y-31616780D01*
X185234034Y-31616780D02*
X185424510Y-31521542D01*
X185424510Y-31521542D02*
X185900701Y-31521542D01*
X185900701Y-31521542D02*
X186091177Y-31616780D01*
X186091177Y-31616780D02*
X186186415Y-31712019D01*
X186186415Y-31712019D02*
X186281653Y-31902495D01*
X186281653Y-31902495D02*
X186281653Y-32378685D01*
X186281653Y-32378685D02*
X186186415Y-32569161D01*
X186186415Y-32569161D02*
X186091177Y-32664400D01*
X186091177Y-32664400D02*
X185900701Y-32759638D01*
X185900701Y-32759638D02*
X185424510Y-32759638D01*
X185424510Y-32759638D02*
X185234034Y-32664400D01*
X185234034Y-32664400D02*
X185138796Y-32569161D01*
X188091177Y-30759638D02*
X187138796Y-30759638D01*
X187138796Y-30759638D02*
X187043558Y-31712019D01*
X187043558Y-31712019D02*
X187138796Y-31616780D01*
X187138796Y-31616780D02*
X187329272Y-31521542D01*
X187329272Y-31521542D02*
X187805463Y-31521542D01*
X187805463Y-31521542D02*
X187995939Y-31616780D01*
X187995939Y-31616780D02*
X188091177Y-31712019D01*
X188091177Y-31712019D02*
X188186415Y-31902495D01*
X188186415Y-31902495D02*
X188186415Y-32378685D01*
X188186415Y-32378685D02*
X188091177Y-32569161D01*
X188091177Y-32569161D02*
X187995939Y-32664400D01*
X187995939Y-32664400D02*
X187805463Y-32759638D01*
X187805463Y-32759638D02*
X187329272Y-32759638D01*
X187329272Y-32759638D02*
X187138796Y-32664400D01*
X187138796Y-32664400D02*
X187043558Y-32569161D01*
X188853082Y-30759638D02*
X190186415Y-30759638D01*
X190186415Y-30759638D02*
X188853082Y-32759638D01*
X188853082Y-32759638D02*
X190186415Y-32759638D01*
X190948320Y-32759638D02*
X190948320Y-30759638D01*
X191900701Y-31997733D02*
X193424511Y-31997733D01*
X195710224Y-32950114D02*
X195519748Y-32854876D01*
X195519748Y-32854876D02*
X195329272Y-32664400D01*
X195329272Y-32664400D02*
X195043558Y-32378685D01*
X195043558Y-32378685D02*
X194853081Y-32283447D01*
X194853081Y-32283447D02*
X194662605Y-32283447D01*
X194757843Y-32759638D02*
X194567367Y-32664400D01*
X194567367Y-32664400D02*
X194376891Y-32473923D01*
X194376891Y-32473923D02*
X194281653Y-32092971D01*
X194281653Y-32092971D02*
X194281653Y-31426304D01*
X194281653Y-31426304D02*
X194376891Y-31045352D01*
X194376891Y-31045352D02*
X194567367Y-30854876D01*
X194567367Y-30854876D02*
X194757843Y-30759638D01*
X194757843Y-30759638D02*
X195138796Y-30759638D01*
X195138796Y-30759638D02*
X195329272Y-30854876D01*
X195329272Y-30854876D02*
X195519748Y-31045352D01*
X195519748Y-31045352D02*
X195614986Y-31426304D01*
X195614986Y-31426304D02*
X195614986Y-32092971D01*
X195614986Y-32092971D02*
X195519748Y-32473923D01*
X195519748Y-32473923D02*
X195329272Y-32664400D01*
X195329272Y-32664400D02*
X195138796Y-32759638D01*
X195138796Y-32759638D02*
X194757843Y-32759638D01*
D10*
X142363988Y-82889838D02*
X142268750Y-82842219D01*
X142268750Y-82842219D02*
X142125893Y-82842219D01*
X142125893Y-82842219D02*
X141983036Y-82889838D01*
X141983036Y-82889838D02*
X141887798Y-82985076D01*
X141887798Y-82985076D02*
X141840179Y-83080314D01*
X141840179Y-83080314D02*
X141792560Y-83270790D01*
X141792560Y-83270790D02*
X141792560Y-83413647D01*
X141792560Y-83413647D02*
X141840179Y-83604123D01*
X141840179Y-83604123D02*
X141887798Y-83699361D01*
X141887798Y-83699361D02*
X141983036Y-83794600D01*
X141983036Y-83794600D02*
X142125893Y-83842219D01*
X142125893Y-83842219D02*
X142221131Y-83842219D01*
X142221131Y-83842219D02*
X142363988Y-83794600D01*
X142363988Y-83794600D02*
X142411607Y-83746980D01*
X142411607Y-83746980D02*
X142411607Y-83413647D01*
X142411607Y-83413647D02*
X142221131Y-83413647D01*
X142840179Y-83842219D02*
X142840179Y-82842219D01*
X142840179Y-82842219D02*
X143411607Y-83842219D01*
X143411607Y-83842219D02*
X143411607Y-82842219D01*
X143887798Y-83842219D02*
X143887798Y-82842219D01*
X143887798Y-82842219D02*
X144125893Y-82842219D01*
X144125893Y-82842219D02*
X144268750Y-82889838D01*
X144268750Y-82889838D02*
X144363988Y-82985076D01*
X144363988Y-82985076D02*
X144411607Y-83080314D01*
X144411607Y-83080314D02*
X144459226Y-83270790D01*
X144459226Y-83270790D02*
X144459226Y-83413647D01*
X144459226Y-83413647D02*
X144411607Y-83604123D01*
X144411607Y-83604123D02*
X144363988Y-83699361D01*
X144363988Y-83699361D02*
X144268750Y-83794600D01*
X144268750Y-83794600D02*
X144125893Y-83842219D01*
X144125893Y-83842219D02*
X143887798Y-83842219D01*
D13*
X181260476Y-61164895D02*
X181260476Y-61812514D01*
X181260476Y-61812514D02*
X181298571Y-61888704D01*
X181298571Y-61888704D02*
X181336666Y-61926800D01*
X181336666Y-61926800D02*
X181412857Y-61964895D01*
X181412857Y-61964895D02*
X181565238Y-61964895D01*
X181565238Y-61964895D02*
X181641428Y-61926800D01*
X181641428Y-61926800D02*
X181679523Y-61888704D01*
X181679523Y-61888704D02*
X181717619Y-61812514D01*
X181717619Y-61812514D02*
X181717619Y-61164895D01*
X182022380Y-61164895D02*
X182517618Y-61164895D01*
X182517618Y-61164895D02*
X182250952Y-61469657D01*
X182250952Y-61469657D02*
X182365237Y-61469657D01*
X182365237Y-61469657D02*
X182441428Y-61507752D01*
X182441428Y-61507752D02*
X182479523Y-61545847D01*
X182479523Y-61545847D02*
X182517618Y-61622038D01*
X182517618Y-61622038D02*
X182517618Y-61812514D01*
X182517618Y-61812514D02*
X182479523Y-61888704D01*
X182479523Y-61888704D02*
X182441428Y-61926800D01*
X182441428Y-61926800D02*
X182365237Y-61964895D01*
X182365237Y-61964895D02*
X182136666Y-61964895D01*
X182136666Y-61964895D02*
X182060475Y-61926800D01*
X182060475Y-61926800D02*
X182022380Y-61888704D01*
D10*
X83454819Y-54742857D02*
X82978628Y-55076190D01*
X83454819Y-55314285D02*
X82454819Y-55314285D01*
X82454819Y-55314285D02*
X82454819Y-54933333D01*
X82454819Y-54933333D02*
X82502438Y-54838095D01*
X82502438Y-54838095D02*
X82550057Y-54790476D01*
X82550057Y-54790476D02*
X82645295Y-54742857D01*
X82645295Y-54742857D02*
X82788152Y-54742857D01*
X82788152Y-54742857D02*
X82883390Y-54790476D01*
X82883390Y-54790476D02*
X82931009Y-54838095D01*
X82931009Y-54838095D02*
X82978628Y-54933333D01*
X82978628Y-54933333D02*
X82978628Y-55314285D01*
X83454819Y-53790476D02*
X83454819Y-54361904D01*
X83454819Y-54076190D02*
X82454819Y-54076190D01*
X82454819Y-54076190D02*
X82597676Y-54171428D01*
X82597676Y-54171428D02*
X82692914Y-54266666D01*
X82692914Y-54266666D02*
X82740533Y-54361904D01*
X82454819Y-52885714D02*
X82454819Y-53361904D01*
X82454819Y-53361904D02*
X82931009Y-53409523D01*
X82931009Y-53409523D02*
X82883390Y-53361904D01*
X82883390Y-53361904D02*
X82835771Y-53266666D01*
X82835771Y-53266666D02*
X82835771Y-53028571D01*
X82835771Y-53028571D02*
X82883390Y-52933333D01*
X82883390Y-52933333D02*
X82931009Y-52885714D01*
X82931009Y-52885714D02*
X83026247Y-52838095D01*
X83026247Y-52838095D02*
X83264342Y-52838095D01*
X83264342Y-52838095D02*
X83359580Y-52885714D01*
X83359580Y-52885714D02*
X83407200Y-52933333D01*
X83407200Y-52933333D02*
X83454819Y-53028571D01*
X83454819Y-53028571D02*
X83454819Y-53266666D01*
X83454819Y-53266666D02*
X83407200Y-53361904D01*
X83407200Y-53361904D02*
X83359580Y-53409523D01*
D13*
X198188704Y-126914285D02*
X198226800Y-126952381D01*
X198226800Y-126952381D02*
X198264895Y-127066666D01*
X198264895Y-127066666D02*
X198264895Y-127142857D01*
X198264895Y-127142857D02*
X198226800Y-127257143D01*
X198226800Y-127257143D02*
X198150609Y-127333333D01*
X198150609Y-127333333D02*
X198074419Y-127371428D01*
X198074419Y-127371428D02*
X197922038Y-127409524D01*
X197922038Y-127409524D02*
X197807752Y-127409524D01*
X197807752Y-127409524D02*
X197655371Y-127371428D01*
X197655371Y-127371428D02*
X197579180Y-127333333D01*
X197579180Y-127333333D02*
X197502990Y-127257143D01*
X197502990Y-127257143D02*
X197464895Y-127142857D01*
X197464895Y-127142857D02*
X197464895Y-127066666D01*
X197464895Y-127066666D02*
X197502990Y-126952381D01*
X197502990Y-126952381D02*
X197541085Y-126914285D01*
X198264895Y-126152381D02*
X198264895Y-126609524D01*
X198264895Y-126380952D02*
X197464895Y-126380952D01*
X197464895Y-126380952D02*
X197579180Y-126457143D01*
X197579180Y-126457143D02*
X197655371Y-126533333D01*
X197655371Y-126533333D02*
X197693466Y-126609524D01*
X197464895Y-125428571D02*
X197464895Y-125809523D01*
X197464895Y-125809523D02*
X197845847Y-125847619D01*
X197845847Y-125847619D02*
X197807752Y-125809523D01*
X197807752Y-125809523D02*
X197769657Y-125733333D01*
X197769657Y-125733333D02*
X197769657Y-125542857D01*
X197769657Y-125542857D02*
X197807752Y-125466666D01*
X197807752Y-125466666D02*
X197845847Y-125428571D01*
X197845847Y-125428571D02*
X197922038Y-125390476D01*
X197922038Y-125390476D02*
X198112514Y-125390476D01*
X198112514Y-125390476D02*
X198188704Y-125428571D01*
X198188704Y-125428571D02*
X198226800Y-125466666D01*
X198226800Y-125466666D02*
X198264895Y-125542857D01*
X198264895Y-125542857D02*
X198264895Y-125733333D01*
X198264895Y-125733333D02*
X198226800Y-125809523D01*
X198226800Y-125809523D02*
X198188704Y-125847619D01*
X193233333Y-147564895D02*
X193233333Y-148136323D01*
X193233333Y-148136323D02*
X193195238Y-148250609D01*
X193195238Y-148250609D02*
X193119047Y-148326800D01*
X193119047Y-148326800D02*
X193004762Y-148364895D01*
X193004762Y-148364895D02*
X192928571Y-148364895D01*
X193538095Y-147564895D02*
X194033333Y-147564895D01*
X194033333Y-147564895D02*
X193766667Y-147869657D01*
X193766667Y-147869657D02*
X193880952Y-147869657D01*
X193880952Y-147869657D02*
X193957143Y-147907752D01*
X193957143Y-147907752D02*
X193995238Y-147945847D01*
X193995238Y-147945847D02*
X194033333Y-148022038D01*
X194033333Y-148022038D02*
X194033333Y-148212514D01*
X194033333Y-148212514D02*
X193995238Y-148288704D01*
X193995238Y-148288704D02*
X193957143Y-148326800D01*
X193957143Y-148326800D02*
X193880952Y-148364895D01*
X193880952Y-148364895D02*
X193652381Y-148364895D01*
X193652381Y-148364895D02*
X193576190Y-148326800D01*
X193576190Y-148326800D02*
X193538095Y-148288704D01*
X163306667Y-127738704D02*
X163268571Y-127776800D01*
X163268571Y-127776800D02*
X163154286Y-127814895D01*
X163154286Y-127814895D02*
X163078095Y-127814895D01*
X163078095Y-127814895D02*
X162963809Y-127776800D01*
X162963809Y-127776800D02*
X162887619Y-127700609D01*
X162887619Y-127700609D02*
X162849524Y-127624419D01*
X162849524Y-127624419D02*
X162811428Y-127472038D01*
X162811428Y-127472038D02*
X162811428Y-127357752D01*
X162811428Y-127357752D02*
X162849524Y-127205371D01*
X162849524Y-127205371D02*
X162887619Y-127129180D01*
X162887619Y-127129180D02*
X162963809Y-127052990D01*
X162963809Y-127052990D02*
X163078095Y-127014895D01*
X163078095Y-127014895D02*
X163154286Y-127014895D01*
X163154286Y-127014895D02*
X163268571Y-127052990D01*
X163268571Y-127052990D02*
X163306667Y-127091085D01*
X164030476Y-127014895D02*
X163649524Y-127014895D01*
X163649524Y-127014895D02*
X163611428Y-127395847D01*
X163611428Y-127395847D02*
X163649524Y-127357752D01*
X163649524Y-127357752D02*
X163725714Y-127319657D01*
X163725714Y-127319657D02*
X163916190Y-127319657D01*
X163916190Y-127319657D02*
X163992381Y-127357752D01*
X163992381Y-127357752D02*
X164030476Y-127395847D01*
X164030476Y-127395847D02*
X164068571Y-127472038D01*
X164068571Y-127472038D02*
X164068571Y-127662514D01*
X164068571Y-127662514D02*
X164030476Y-127738704D01*
X164030476Y-127738704D02*
X163992381Y-127776800D01*
X163992381Y-127776800D02*
X163916190Y-127814895D01*
X163916190Y-127814895D02*
X163725714Y-127814895D01*
X163725714Y-127814895D02*
X163649524Y-127776800D01*
X163649524Y-127776800D02*
X163611428Y-127738704D01*
X109512380Y-26501561D02*
X109817142Y-26501561D01*
X109626666Y-27034895D02*
X109626666Y-26349180D01*
X109626666Y-26349180D02*
X109664761Y-26272990D01*
X109664761Y-26272990D02*
X109740951Y-26234895D01*
X109740951Y-26234895D02*
X109817142Y-26234895D01*
X110198094Y-27034895D02*
X110121904Y-26996800D01*
X110121904Y-26996800D02*
X110083809Y-26958704D01*
X110083809Y-26958704D02*
X110045713Y-26882514D01*
X110045713Y-26882514D02*
X110045713Y-26653942D01*
X110045713Y-26653942D02*
X110083809Y-26577752D01*
X110083809Y-26577752D02*
X110121904Y-26539657D01*
X110121904Y-26539657D02*
X110198094Y-26501561D01*
X110198094Y-26501561D02*
X110312380Y-26501561D01*
X110312380Y-26501561D02*
X110388571Y-26539657D01*
X110388571Y-26539657D02*
X110426666Y-26577752D01*
X110426666Y-26577752D02*
X110464761Y-26653942D01*
X110464761Y-26653942D02*
X110464761Y-26882514D01*
X110464761Y-26882514D02*
X110426666Y-26958704D01*
X110426666Y-26958704D02*
X110388571Y-26996800D01*
X110388571Y-26996800D02*
X110312380Y-27034895D01*
X110312380Y-27034895D02*
X110198094Y-27034895D01*
X110807619Y-27034895D02*
X110807619Y-26501561D01*
X110807619Y-26653942D02*
X110845714Y-26577752D01*
X110845714Y-26577752D02*
X110883809Y-26539657D01*
X110883809Y-26539657D02*
X110960000Y-26501561D01*
X110960000Y-26501561D02*
X111036190Y-26501561D01*
X111112381Y-27111085D02*
X111721904Y-27111085D01*
X111912381Y-27034895D02*
X111912381Y-26234895D01*
X111912381Y-26234895D02*
X112217143Y-26234895D01*
X112217143Y-26234895D02*
X112293333Y-26272990D01*
X112293333Y-26272990D02*
X112331428Y-26311085D01*
X112331428Y-26311085D02*
X112369524Y-26387276D01*
X112369524Y-26387276D02*
X112369524Y-26501561D01*
X112369524Y-26501561D02*
X112331428Y-26577752D01*
X112331428Y-26577752D02*
X112293333Y-26615847D01*
X112293333Y-26615847D02*
X112217143Y-26653942D01*
X112217143Y-26653942D02*
X111912381Y-26653942D01*
X113131428Y-26272990D02*
X113055238Y-26234895D01*
X113055238Y-26234895D02*
X112940952Y-26234895D01*
X112940952Y-26234895D02*
X112826666Y-26272990D01*
X112826666Y-26272990D02*
X112750476Y-26349180D01*
X112750476Y-26349180D02*
X112712381Y-26425371D01*
X112712381Y-26425371D02*
X112674285Y-26577752D01*
X112674285Y-26577752D02*
X112674285Y-26692038D01*
X112674285Y-26692038D02*
X112712381Y-26844419D01*
X112712381Y-26844419D02*
X112750476Y-26920609D01*
X112750476Y-26920609D02*
X112826666Y-26996800D01*
X112826666Y-26996800D02*
X112940952Y-27034895D01*
X112940952Y-27034895D02*
X113017143Y-27034895D01*
X113017143Y-27034895D02*
X113131428Y-26996800D01*
X113131428Y-26996800D02*
X113169524Y-26958704D01*
X113169524Y-26958704D02*
X113169524Y-26692038D01*
X113169524Y-26692038D02*
X113017143Y-26692038D01*
X113931428Y-27034895D02*
X113474285Y-27034895D01*
X113702857Y-27034895D02*
X113702857Y-26234895D01*
X113702857Y-26234895D02*
X113626666Y-26349180D01*
X113626666Y-26349180D02*
X113550476Y-26425371D01*
X113550476Y-26425371D02*
X113474285Y-26463466D01*
D10*
X99719047Y-27954819D02*
X99385714Y-27478628D01*
X99147619Y-27954819D02*
X99147619Y-26954819D01*
X99147619Y-26954819D02*
X99528571Y-26954819D01*
X99528571Y-26954819D02*
X99623809Y-27002438D01*
X99623809Y-27002438D02*
X99671428Y-27050057D01*
X99671428Y-27050057D02*
X99719047Y-27145295D01*
X99719047Y-27145295D02*
X99719047Y-27288152D01*
X99719047Y-27288152D02*
X99671428Y-27383390D01*
X99671428Y-27383390D02*
X99623809Y-27431009D01*
X99623809Y-27431009D02*
X99528571Y-27478628D01*
X99528571Y-27478628D02*
X99147619Y-27478628D01*
X100528571Y-27907200D02*
X100433333Y-27954819D01*
X100433333Y-27954819D02*
X100242857Y-27954819D01*
X100242857Y-27954819D02*
X100147619Y-27907200D01*
X100147619Y-27907200D02*
X100100000Y-27811961D01*
X100100000Y-27811961D02*
X100100000Y-27431009D01*
X100100000Y-27431009D02*
X100147619Y-27335771D01*
X100147619Y-27335771D02*
X100242857Y-27288152D01*
X100242857Y-27288152D02*
X100433333Y-27288152D01*
X100433333Y-27288152D02*
X100528571Y-27335771D01*
X100528571Y-27335771D02*
X100576190Y-27431009D01*
X100576190Y-27431009D02*
X100576190Y-27526247D01*
X100576190Y-27526247D02*
X100100000Y-27621485D01*
X101433333Y-27954819D02*
X101433333Y-27431009D01*
X101433333Y-27431009D02*
X101385714Y-27335771D01*
X101385714Y-27335771D02*
X101290476Y-27288152D01*
X101290476Y-27288152D02*
X101100000Y-27288152D01*
X101100000Y-27288152D02*
X101004762Y-27335771D01*
X101433333Y-27907200D02*
X101338095Y-27954819D01*
X101338095Y-27954819D02*
X101100000Y-27954819D01*
X101100000Y-27954819D02*
X101004762Y-27907200D01*
X101004762Y-27907200D02*
X100957143Y-27811961D01*
X100957143Y-27811961D02*
X100957143Y-27716723D01*
X100957143Y-27716723D02*
X101004762Y-27621485D01*
X101004762Y-27621485D02*
X101100000Y-27573866D01*
X101100000Y-27573866D02*
X101338095Y-27573866D01*
X101338095Y-27573866D02*
X101433333Y-27526247D01*
X101909524Y-27954819D02*
X101909524Y-27288152D01*
X101909524Y-27478628D02*
X101957143Y-27383390D01*
X101957143Y-27383390D02*
X102004762Y-27335771D01*
X102004762Y-27335771D02*
X102100000Y-27288152D01*
X102100000Y-27288152D02*
X102195238Y-27288152D01*
D13*
X163306667Y-126238704D02*
X163268571Y-126276800D01*
X163268571Y-126276800D02*
X163154286Y-126314895D01*
X163154286Y-126314895D02*
X163078095Y-126314895D01*
X163078095Y-126314895D02*
X162963809Y-126276800D01*
X162963809Y-126276800D02*
X162887619Y-126200609D01*
X162887619Y-126200609D02*
X162849524Y-126124419D01*
X162849524Y-126124419D02*
X162811428Y-125972038D01*
X162811428Y-125972038D02*
X162811428Y-125857752D01*
X162811428Y-125857752D02*
X162849524Y-125705371D01*
X162849524Y-125705371D02*
X162887619Y-125629180D01*
X162887619Y-125629180D02*
X162963809Y-125552990D01*
X162963809Y-125552990D02*
X163078095Y-125514895D01*
X163078095Y-125514895D02*
X163154286Y-125514895D01*
X163154286Y-125514895D02*
X163268571Y-125552990D01*
X163268571Y-125552990D02*
X163306667Y-125591085D01*
X163992381Y-125781561D02*
X163992381Y-126314895D01*
X163801905Y-125476800D02*
X163611428Y-126048228D01*
X163611428Y-126048228D02*
X164106667Y-126048228D01*
X132751800Y-37601667D02*
X132789895Y-37487381D01*
X132789895Y-37487381D02*
X132789895Y-37296905D01*
X132789895Y-37296905D02*
X132751800Y-37220714D01*
X132751800Y-37220714D02*
X132713704Y-37182619D01*
X132713704Y-37182619D02*
X132637514Y-37144524D01*
X132637514Y-37144524D02*
X132561323Y-37144524D01*
X132561323Y-37144524D02*
X132485133Y-37182619D01*
X132485133Y-37182619D02*
X132447038Y-37220714D01*
X132447038Y-37220714D02*
X132408942Y-37296905D01*
X132408942Y-37296905D02*
X132370847Y-37449286D01*
X132370847Y-37449286D02*
X132332752Y-37525476D01*
X132332752Y-37525476D02*
X132294657Y-37563571D01*
X132294657Y-37563571D02*
X132218466Y-37601667D01*
X132218466Y-37601667D02*
X132142276Y-37601667D01*
X132142276Y-37601667D02*
X132066085Y-37563571D01*
X132066085Y-37563571D02*
X132027990Y-37525476D01*
X132027990Y-37525476D02*
X131989895Y-37449286D01*
X131989895Y-37449286D02*
X131989895Y-37258809D01*
X131989895Y-37258809D02*
X132027990Y-37144524D01*
X131989895Y-36877857D02*
X132789895Y-36687381D01*
X132789895Y-36687381D02*
X132218466Y-36535000D01*
X132218466Y-36535000D02*
X132789895Y-36382619D01*
X132789895Y-36382619D02*
X131989895Y-36192143D01*
X132789895Y-35468333D02*
X132789895Y-35925476D01*
X132789895Y-35696904D02*
X131989895Y-35696904D01*
X131989895Y-35696904D02*
X132104180Y-35773095D01*
X132104180Y-35773095D02*
X132180371Y-35849285D01*
X132180371Y-35849285D02*
X132218466Y-35925476D01*
D10*
X168629533Y-126591219D02*
X168296200Y-126115028D01*
X168058105Y-126591219D02*
X168058105Y-125591219D01*
X168058105Y-125591219D02*
X168439057Y-125591219D01*
X168439057Y-125591219D02*
X168534295Y-125638838D01*
X168534295Y-125638838D02*
X168581914Y-125686457D01*
X168581914Y-125686457D02*
X168629533Y-125781695D01*
X168629533Y-125781695D02*
X168629533Y-125924552D01*
X168629533Y-125924552D02*
X168581914Y-126019790D01*
X168581914Y-126019790D02*
X168534295Y-126067409D01*
X168534295Y-126067409D02*
X168439057Y-126115028D01*
X168439057Y-126115028D02*
X168058105Y-126115028D01*
X168962867Y-125591219D02*
X169581914Y-125591219D01*
X169581914Y-125591219D02*
X169248581Y-125972171D01*
X169248581Y-125972171D02*
X169391438Y-125972171D01*
X169391438Y-125972171D02*
X169486676Y-126019790D01*
X169486676Y-126019790D02*
X169534295Y-126067409D01*
X169534295Y-126067409D02*
X169581914Y-126162647D01*
X169581914Y-126162647D02*
X169581914Y-126400742D01*
X169581914Y-126400742D02*
X169534295Y-126495980D01*
X169534295Y-126495980D02*
X169486676Y-126543600D01*
X169486676Y-126543600D02*
X169391438Y-126591219D01*
X169391438Y-126591219D02*
X169105724Y-126591219D01*
X169105724Y-126591219D02*
X169010486Y-126543600D01*
X169010486Y-126543600D02*
X168962867Y-126495980D01*
D13*
X132209524Y-25822395D02*
X132209524Y-25022395D01*
X132209524Y-25022395D02*
X132400000Y-25022395D01*
X132400000Y-25022395D02*
X132514286Y-25060490D01*
X132514286Y-25060490D02*
X132590476Y-25136680D01*
X132590476Y-25136680D02*
X132628571Y-25212871D01*
X132628571Y-25212871D02*
X132666667Y-25365252D01*
X132666667Y-25365252D02*
X132666667Y-25479538D01*
X132666667Y-25479538D02*
X132628571Y-25631919D01*
X132628571Y-25631919D02*
X132590476Y-25708109D01*
X132590476Y-25708109D02*
X132514286Y-25784300D01*
X132514286Y-25784300D02*
X132400000Y-25822395D01*
X132400000Y-25822395D02*
X132209524Y-25822395D01*
X133352381Y-25289061D02*
X133352381Y-25822395D01*
X133161905Y-24984300D02*
X132971428Y-25555728D01*
X132971428Y-25555728D02*
X133466667Y-25555728D01*
X127154524Y-25896145D02*
X127154524Y-25096145D01*
X127154524Y-25096145D02*
X127345000Y-25096145D01*
X127345000Y-25096145D02*
X127459286Y-25134240D01*
X127459286Y-25134240D02*
X127535476Y-25210430D01*
X127535476Y-25210430D02*
X127573571Y-25286621D01*
X127573571Y-25286621D02*
X127611667Y-25439002D01*
X127611667Y-25439002D02*
X127611667Y-25553288D01*
X127611667Y-25553288D02*
X127573571Y-25705669D01*
X127573571Y-25705669D02*
X127535476Y-25781859D01*
X127535476Y-25781859D02*
X127459286Y-25858050D01*
X127459286Y-25858050D02*
X127345000Y-25896145D01*
X127345000Y-25896145D02*
X127154524Y-25896145D01*
X127916428Y-25172335D02*
X127954524Y-25134240D01*
X127954524Y-25134240D02*
X128030714Y-25096145D01*
X128030714Y-25096145D02*
X128221190Y-25096145D01*
X128221190Y-25096145D02*
X128297381Y-25134240D01*
X128297381Y-25134240D02*
X128335476Y-25172335D01*
X128335476Y-25172335D02*
X128373571Y-25248526D01*
X128373571Y-25248526D02*
X128373571Y-25324716D01*
X128373571Y-25324716D02*
X128335476Y-25439002D01*
X128335476Y-25439002D02*
X127878333Y-25896145D01*
X127878333Y-25896145D02*
X128373571Y-25896145D01*
X102485714Y-55394895D02*
X102219047Y-55013942D01*
X102028571Y-55394895D02*
X102028571Y-54594895D01*
X102028571Y-54594895D02*
X102333333Y-54594895D01*
X102333333Y-54594895D02*
X102409523Y-54632990D01*
X102409523Y-54632990D02*
X102447618Y-54671085D01*
X102447618Y-54671085D02*
X102485714Y-54747276D01*
X102485714Y-54747276D02*
X102485714Y-54861561D01*
X102485714Y-54861561D02*
X102447618Y-54937752D01*
X102447618Y-54937752D02*
X102409523Y-54975847D01*
X102409523Y-54975847D02*
X102333333Y-55013942D01*
X102333333Y-55013942D02*
X102028571Y-55013942D01*
X103247618Y-55394895D02*
X102790475Y-55394895D01*
X103019047Y-55394895D02*
X103019047Y-54594895D01*
X103019047Y-54594895D02*
X102942856Y-54709180D01*
X102942856Y-54709180D02*
X102866666Y-54785371D01*
X102866666Y-54785371D02*
X102790475Y-54823466D01*
X103933333Y-54861561D02*
X103933333Y-55394895D01*
X103742857Y-54556800D02*
X103552380Y-55128228D01*
X103552380Y-55128228D02*
X104047619Y-55128228D01*
X135434524Y-46439895D02*
X135434524Y-45639895D01*
X135434524Y-45639895D02*
X135625000Y-45639895D01*
X135625000Y-45639895D02*
X135739286Y-45677990D01*
X135739286Y-45677990D02*
X135815476Y-45754180D01*
X135815476Y-45754180D02*
X135853571Y-45830371D01*
X135853571Y-45830371D02*
X135891667Y-45982752D01*
X135891667Y-45982752D02*
X135891667Y-46097038D01*
X135891667Y-46097038D02*
X135853571Y-46249419D01*
X135853571Y-46249419D02*
X135815476Y-46325609D01*
X135815476Y-46325609D02*
X135739286Y-46401800D01*
X135739286Y-46401800D02*
X135625000Y-46439895D01*
X135625000Y-46439895D02*
X135434524Y-46439895D01*
X136615476Y-45639895D02*
X136234524Y-45639895D01*
X136234524Y-45639895D02*
X136196428Y-46020847D01*
X136196428Y-46020847D02*
X136234524Y-45982752D01*
X136234524Y-45982752D02*
X136310714Y-45944657D01*
X136310714Y-45944657D02*
X136501190Y-45944657D01*
X136501190Y-45944657D02*
X136577381Y-45982752D01*
X136577381Y-45982752D02*
X136615476Y-46020847D01*
X136615476Y-46020847D02*
X136653571Y-46097038D01*
X136653571Y-46097038D02*
X136653571Y-46287514D01*
X136653571Y-46287514D02*
X136615476Y-46363704D01*
X136615476Y-46363704D02*
X136577381Y-46401800D01*
X136577381Y-46401800D02*
X136501190Y-46439895D01*
X136501190Y-46439895D02*
X136310714Y-46439895D01*
X136310714Y-46439895D02*
X136234524Y-46401800D01*
X136234524Y-46401800D02*
X136196428Y-46363704D01*
X143651800Y-37681667D02*
X143689895Y-37567381D01*
X143689895Y-37567381D02*
X143689895Y-37376905D01*
X143689895Y-37376905D02*
X143651800Y-37300714D01*
X143651800Y-37300714D02*
X143613704Y-37262619D01*
X143613704Y-37262619D02*
X143537514Y-37224524D01*
X143537514Y-37224524D02*
X143461323Y-37224524D01*
X143461323Y-37224524D02*
X143385133Y-37262619D01*
X143385133Y-37262619D02*
X143347038Y-37300714D01*
X143347038Y-37300714D02*
X143308942Y-37376905D01*
X143308942Y-37376905D02*
X143270847Y-37529286D01*
X143270847Y-37529286D02*
X143232752Y-37605476D01*
X143232752Y-37605476D02*
X143194657Y-37643571D01*
X143194657Y-37643571D02*
X143118466Y-37681667D01*
X143118466Y-37681667D02*
X143042276Y-37681667D01*
X143042276Y-37681667D02*
X142966085Y-37643571D01*
X142966085Y-37643571D02*
X142927990Y-37605476D01*
X142927990Y-37605476D02*
X142889895Y-37529286D01*
X142889895Y-37529286D02*
X142889895Y-37338809D01*
X142889895Y-37338809D02*
X142927990Y-37224524D01*
X142889895Y-36957857D02*
X143689895Y-36767381D01*
X143689895Y-36767381D02*
X143118466Y-36615000D01*
X143118466Y-36615000D02*
X143689895Y-36462619D01*
X143689895Y-36462619D02*
X142889895Y-36272143D01*
X142889895Y-36043571D02*
X142889895Y-35548333D01*
X142889895Y-35548333D02*
X143194657Y-35814999D01*
X143194657Y-35814999D02*
X143194657Y-35700714D01*
X143194657Y-35700714D02*
X143232752Y-35624523D01*
X143232752Y-35624523D02*
X143270847Y-35586428D01*
X143270847Y-35586428D02*
X143347038Y-35548333D01*
X143347038Y-35548333D02*
X143537514Y-35548333D01*
X143537514Y-35548333D02*
X143613704Y-35586428D01*
X143613704Y-35586428D02*
X143651800Y-35624523D01*
X143651800Y-35624523D02*
X143689895Y-35700714D01*
X143689895Y-35700714D02*
X143689895Y-35929285D01*
X143689895Y-35929285D02*
X143651800Y-36005476D01*
X143651800Y-36005476D02*
X143613704Y-36043571D01*
X182070714Y-124588704D02*
X182032618Y-124626800D01*
X182032618Y-124626800D02*
X181918333Y-124664895D01*
X181918333Y-124664895D02*
X181842142Y-124664895D01*
X181842142Y-124664895D02*
X181727856Y-124626800D01*
X181727856Y-124626800D02*
X181651666Y-124550609D01*
X181651666Y-124550609D02*
X181613571Y-124474419D01*
X181613571Y-124474419D02*
X181575475Y-124322038D01*
X181575475Y-124322038D02*
X181575475Y-124207752D01*
X181575475Y-124207752D02*
X181613571Y-124055371D01*
X181613571Y-124055371D02*
X181651666Y-123979180D01*
X181651666Y-123979180D02*
X181727856Y-123902990D01*
X181727856Y-123902990D02*
X181842142Y-123864895D01*
X181842142Y-123864895D02*
X181918333Y-123864895D01*
X181918333Y-123864895D02*
X182032618Y-123902990D01*
X182032618Y-123902990D02*
X182070714Y-123941085D01*
X182832618Y-124664895D02*
X182375475Y-124664895D01*
X182604047Y-124664895D02*
X182604047Y-123864895D01*
X182604047Y-123864895D02*
X182527856Y-123979180D01*
X182527856Y-123979180D02*
X182451666Y-124055371D01*
X182451666Y-124055371D02*
X182375475Y-124093466D01*
X183137380Y-123941085D02*
X183175476Y-123902990D01*
X183175476Y-123902990D02*
X183251666Y-123864895D01*
X183251666Y-123864895D02*
X183442142Y-123864895D01*
X183442142Y-123864895D02*
X183518333Y-123902990D01*
X183518333Y-123902990D02*
X183556428Y-123941085D01*
X183556428Y-123941085D02*
X183594523Y-124017276D01*
X183594523Y-124017276D02*
X183594523Y-124093466D01*
X183594523Y-124093466D02*
X183556428Y-124207752D01*
X183556428Y-124207752D02*
X183099285Y-124664895D01*
X183099285Y-124664895D02*
X183594523Y-124664895D01*
X178688704Y-141183332D02*
X178726800Y-141221428D01*
X178726800Y-141221428D02*
X178764895Y-141335713D01*
X178764895Y-141335713D02*
X178764895Y-141411904D01*
X178764895Y-141411904D02*
X178726800Y-141526190D01*
X178726800Y-141526190D02*
X178650609Y-141602380D01*
X178650609Y-141602380D02*
X178574419Y-141640475D01*
X178574419Y-141640475D02*
X178422038Y-141678571D01*
X178422038Y-141678571D02*
X178307752Y-141678571D01*
X178307752Y-141678571D02*
X178155371Y-141640475D01*
X178155371Y-141640475D02*
X178079180Y-141602380D01*
X178079180Y-141602380D02*
X178002990Y-141526190D01*
X178002990Y-141526190D02*
X177964895Y-141411904D01*
X177964895Y-141411904D02*
X177964895Y-141335713D01*
X177964895Y-141335713D02*
X178002990Y-141221428D01*
X178002990Y-141221428D02*
X178041085Y-141183332D01*
X177964895Y-140916666D02*
X177964895Y-140383332D01*
X177964895Y-140383332D02*
X178764895Y-140726190D01*
X178688704Y-127283332D02*
X178726800Y-127321428D01*
X178726800Y-127321428D02*
X178764895Y-127435713D01*
X178764895Y-127435713D02*
X178764895Y-127511904D01*
X178764895Y-127511904D02*
X178726800Y-127626190D01*
X178726800Y-127626190D02*
X178650609Y-127702380D01*
X178650609Y-127702380D02*
X178574419Y-127740475D01*
X178574419Y-127740475D02*
X178422038Y-127778571D01*
X178422038Y-127778571D02*
X178307752Y-127778571D01*
X178307752Y-127778571D02*
X178155371Y-127740475D01*
X178155371Y-127740475D02*
X178079180Y-127702380D01*
X178079180Y-127702380D02*
X178002990Y-127626190D01*
X178002990Y-127626190D02*
X177964895Y-127511904D01*
X177964895Y-127511904D02*
X177964895Y-127435713D01*
X177964895Y-127435713D02*
X178002990Y-127321428D01*
X178002990Y-127321428D02*
X178041085Y-127283332D01*
X177964895Y-126597618D02*
X177964895Y-126749999D01*
X177964895Y-126749999D02*
X178002990Y-126826190D01*
X178002990Y-126826190D02*
X178041085Y-126864285D01*
X178041085Y-126864285D02*
X178155371Y-126940475D01*
X178155371Y-126940475D02*
X178307752Y-126978571D01*
X178307752Y-126978571D02*
X178612514Y-126978571D01*
X178612514Y-126978571D02*
X178688704Y-126940475D01*
X178688704Y-126940475D02*
X178726800Y-126902380D01*
X178726800Y-126902380D02*
X178764895Y-126826190D01*
X178764895Y-126826190D02*
X178764895Y-126673809D01*
X178764895Y-126673809D02*
X178726800Y-126597618D01*
X178726800Y-126597618D02*
X178688704Y-126559523D01*
X178688704Y-126559523D02*
X178612514Y-126521428D01*
X178612514Y-126521428D02*
X178422038Y-126521428D01*
X178422038Y-126521428D02*
X178345847Y-126559523D01*
X178345847Y-126559523D02*
X178307752Y-126597618D01*
X178307752Y-126597618D02*
X178269657Y-126673809D01*
X178269657Y-126673809D02*
X178269657Y-126826190D01*
X178269657Y-126826190D02*
X178307752Y-126902380D01*
X178307752Y-126902380D02*
X178345847Y-126940475D01*
X178345847Y-126940475D02*
X178422038Y-126978571D01*
X198188704Y-142014285D02*
X198226800Y-142052381D01*
X198226800Y-142052381D02*
X198264895Y-142166666D01*
X198264895Y-142166666D02*
X198264895Y-142242857D01*
X198264895Y-142242857D02*
X198226800Y-142357143D01*
X198226800Y-142357143D02*
X198150609Y-142433333D01*
X198150609Y-142433333D02*
X198074419Y-142471428D01*
X198074419Y-142471428D02*
X197922038Y-142509524D01*
X197922038Y-142509524D02*
X197807752Y-142509524D01*
X197807752Y-142509524D02*
X197655371Y-142471428D01*
X197655371Y-142471428D02*
X197579180Y-142433333D01*
X197579180Y-142433333D02*
X197502990Y-142357143D01*
X197502990Y-142357143D02*
X197464895Y-142242857D01*
X197464895Y-142242857D02*
X197464895Y-142166666D01*
X197464895Y-142166666D02*
X197502990Y-142052381D01*
X197502990Y-142052381D02*
X197541085Y-142014285D01*
X198264895Y-141252381D02*
X198264895Y-141709524D01*
X198264895Y-141480952D02*
X197464895Y-141480952D01*
X197464895Y-141480952D02*
X197579180Y-141557143D01*
X197579180Y-141557143D02*
X197655371Y-141633333D01*
X197655371Y-141633333D02*
X197693466Y-141709524D01*
X197464895Y-140566666D02*
X197464895Y-140719047D01*
X197464895Y-140719047D02*
X197502990Y-140795238D01*
X197502990Y-140795238D02*
X197541085Y-140833333D01*
X197541085Y-140833333D02*
X197655371Y-140909523D01*
X197655371Y-140909523D02*
X197807752Y-140947619D01*
X197807752Y-140947619D02*
X198112514Y-140947619D01*
X198112514Y-140947619D02*
X198188704Y-140909523D01*
X198188704Y-140909523D02*
X198226800Y-140871428D01*
X198226800Y-140871428D02*
X198264895Y-140795238D01*
X198264895Y-140795238D02*
X198264895Y-140642857D01*
X198264895Y-140642857D02*
X198226800Y-140566666D01*
X198226800Y-140566666D02*
X198188704Y-140528571D01*
X198188704Y-140528571D02*
X198112514Y-140490476D01*
X198112514Y-140490476D02*
X197922038Y-140490476D01*
X197922038Y-140490476D02*
X197845847Y-140528571D01*
X197845847Y-140528571D02*
X197807752Y-140566666D01*
X197807752Y-140566666D02*
X197769657Y-140642857D01*
X197769657Y-140642857D02*
X197769657Y-140795238D01*
X197769657Y-140795238D02*
X197807752Y-140871428D01*
X197807752Y-140871428D02*
X197845847Y-140909523D01*
X197845847Y-140909523D02*
X197922038Y-140947619D01*
X138240833Y-75439895D02*
X138240833Y-76011323D01*
X138240833Y-76011323D02*
X138202738Y-76125609D01*
X138202738Y-76125609D02*
X138126547Y-76201800D01*
X138126547Y-76201800D02*
X138012262Y-76239895D01*
X138012262Y-76239895D02*
X137936071Y-76239895D01*
X138964643Y-75706561D02*
X138964643Y-76239895D01*
X138774167Y-75401800D02*
X138583690Y-75973228D01*
X138583690Y-75973228D02*
X139078929Y-75973228D01*
X137809524Y-25764895D02*
X137809524Y-24964895D01*
X137809524Y-24964895D02*
X138000000Y-24964895D01*
X138000000Y-24964895D02*
X138114286Y-25002990D01*
X138114286Y-25002990D02*
X138190476Y-25079180D01*
X138190476Y-25079180D02*
X138228571Y-25155371D01*
X138228571Y-25155371D02*
X138266667Y-25307752D01*
X138266667Y-25307752D02*
X138266667Y-25422038D01*
X138266667Y-25422038D02*
X138228571Y-25574419D01*
X138228571Y-25574419D02*
X138190476Y-25650609D01*
X138190476Y-25650609D02*
X138114286Y-25726800D01*
X138114286Y-25726800D02*
X138000000Y-25764895D01*
X138000000Y-25764895D02*
X137809524Y-25764895D01*
X138533333Y-24964895D02*
X139028571Y-24964895D01*
X139028571Y-24964895D02*
X138761905Y-25269657D01*
X138761905Y-25269657D02*
X138876190Y-25269657D01*
X138876190Y-25269657D02*
X138952381Y-25307752D01*
X138952381Y-25307752D02*
X138990476Y-25345847D01*
X138990476Y-25345847D02*
X139028571Y-25422038D01*
X139028571Y-25422038D02*
X139028571Y-25612514D01*
X139028571Y-25612514D02*
X138990476Y-25688704D01*
X138990476Y-25688704D02*
X138952381Y-25726800D01*
X138952381Y-25726800D02*
X138876190Y-25764895D01*
X138876190Y-25764895D02*
X138647619Y-25764895D01*
X138647619Y-25764895D02*
X138571428Y-25726800D01*
X138571428Y-25726800D02*
X138533333Y-25688704D01*
X68841085Y-57896190D02*
X68802990Y-57972380D01*
X68802990Y-57972380D02*
X68726800Y-58048571D01*
X68726800Y-58048571D02*
X68612514Y-58162857D01*
X68612514Y-58162857D02*
X68574419Y-58239047D01*
X68574419Y-58239047D02*
X68574419Y-58315238D01*
X68764895Y-58277142D02*
X68726800Y-58353333D01*
X68726800Y-58353333D02*
X68650609Y-58429523D01*
X68650609Y-58429523D02*
X68498228Y-58467619D01*
X68498228Y-58467619D02*
X68231561Y-58467619D01*
X68231561Y-58467619D02*
X68079180Y-58429523D01*
X68079180Y-58429523D02*
X68002990Y-58353333D01*
X68002990Y-58353333D02*
X67964895Y-58277142D01*
X67964895Y-58277142D02*
X67964895Y-58124761D01*
X67964895Y-58124761D02*
X68002990Y-58048571D01*
X68002990Y-58048571D02*
X68079180Y-57972380D01*
X68079180Y-57972380D02*
X68231561Y-57934285D01*
X68231561Y-57934285D02*
X68498228Y-57934285D01*
X68498228Y-57934285D02*
X68650609Y-57972380D01*
X68650609Y-57972380D02*
X68726800Y-58048571D01*
X68726800Y-58048571D02*
X68764895Y-58124761D01*
X68764895Y-58124761D02*
X68764895Y-58277142D01*
X68041085Y-57629524D02*
X68002990Y-57591428D01*
X68002990Y-57591428D02*
X67964895Y-57515238D01*
X67964895Y-57515238D02*
X67964895Y-57324762D01*
X67964895Y-57324762D02*
X68002990Y-57248571D01*
X68002990Y-57248571D02*
X68041085Y-57210476D01*
X68041085Y-57210476D02*
X68117276Y-57172381D01*
X68117276Y-57172381D02*
X68193466Y-57172381D01*
X68193466Y-57172381D02*
X68307752Y-57210476D01*
X68307752Y-57210476D02*
X68764895Y-57667619D01*
X68764895Y-57667619D02*
X68764895Y-57172381D01*
X179945847Y-127416666D02*
X179945847Y-127683332D01*
X180364895Y-127683332D02*
X179564895Y-127683332D01*
X179564895Y-127683332D02*
X179564895Y-127302380D01*
X179945847Y-126730952D02*
X179983942Y-126616666D01*
X179983942Y-126616666D02*
X180022038Y-126578571D01*
X180022038Y-126578571D02*
X180098228Y-126540475D01*
X180098228Y-126540475D02*
X180212514Y-126540475D01*
X180212514Y-126540475D02*
X180288704Y-126578571D01*
X180288704Y-126578571D02*
X180326800Y-126616666D01*
X180326800Y-126616666D02*
X180364895Y-126692856D01*
X180364895Y-126692856D02*
X180364895Y-126997618D01*
X180364895Y-126997618D02*
X179564895Y-126997618D01*
X179564895Y-126997618D02*
X179564895Y-126730952D01*
X179564895Y-126730952D02*
X179602990Y-126654761D01*
X179602990Y-126654761D02*
X179641085Y-126616666D01*
X179641085Y-126616666D02*
X179717276Y-126578571D01*
X179717276Y-126578571D02*
X179793466Y-126578571D01*
X179793466Y-126578571D02*
X179869657Y-126616666D01*
X179869657Y-126616666D02*
X179907752Y-126654761D01*
X179907752Y-126654761D02*
X179945847Y-126730952D01*
X179945847Y-126730952D02*
X179945847Y-126997618D01*
X179564895Y-126273809D02*
X179564895Y-125778571D01*
X179564895Y-125778571D02*
X179869657Y-126045237D01*
X179869657Y-126045237D02*
X179869657Y-125930952D01*
X179869657Y-125930952D02*
X179907752Y-125854761D01*
X179907752Y-125854761D02*
X179945847Y-125816666D01*
X179945847Y-125816666D02*
X180022038Y-125778571D01*
X180022038Y-125778571D02*
X180212514Y-125778571D01*
X180212514Y-125778571D02*
X180288704Y-125816666D01*
X180288704Y-125816666D02*
X180326800Y-125854761D01*
X180326800Y-125854761D02*
X180364895Y-125930952D01*
X180364895Y-125930952D02*
X180364895Y-126159523D01*
X180364895Y-126159523D02*
X180326800Y-126235714D01*
X180326800Y-126235714D02*
X180288704Y-126273809D01*
X171933333Y-147564895D02*
X171933333Y-148136323D01*
X171933333Y-148136323D02*
X171895238Y-148250609D01*
X171895238Y-148250609D02*
X171819047Y-148326800D01*
X171819047Y-148326800D02*
X171704762Y-148364895D01*
X171704762Y-148364895D02*
X171628571Y-148364895D01*
X172276190Y-147641085D02*
X172314286Y-147602990D01*
X172314286Y-147602990D02*
X172390476Y-147564895D01*
X172390476Y-147564895D02*
X172580952Y-147564895D01*
X172580952Y-147564895D02*
X172657143Y-147602990D01*
X172657143Y-147602990D02*
X172695238Y-147641085D01*
X172695238Y-147641085D02*
X172733333Y-147717276D01*
X172733333Y-147717276D02*
X172733333Y-147793466D01*
X172733333Y-147793466D02*
X172695238Y-147907752D01*
X172695238Y-147907752D02*
X172238095Y-148364895D01*
X172238095Y-148364895D02*
X172733333Y-148364895D01*
X81788704Y-53658332D02*
X81826800Y-53696428D01*
X81826800Y-53696428D02*
X81864895Y-53810713D01*
X81864895Y-53810713D02*
X81864895Y-53886904D01*
X81864895Y-53886904D02*
X81826800Y-54001190D01*
X81826800Y-54001190D02*
X81750609Y-54077380D01*
X81750609Y-54077380D02*
X81674419Y-54115475D01*
X81674419Y-54115475D02*
X81522038Y-54153571D01*
X81522038Y-54153571D02*
X81407752Y-54153571D01*
X81407752Y-54153571D02*
X81255371Y-54115475D01*
X81255371Y-54115475D02*
X81179180Y-54077380D01*
X81179180Y-54077380D02*
X81102990Y-54001190D01*
X81102990Y-54001190D02*
X81064895Y-53886904D01*
X81064895Y-53886904D02*
X81064895Y-53810713D01*
X81064895Y-53810713D02*
X81102990Y-53696428D01*
X81102990Y-53696428D02*
X81141085Y-53658332D01*
X81141085Y-53353571D02*
X81102990Y-53315475D01*
X81102990Y-53315475D02*
X81064895Y-53239285D01*
X81064895Y-53239285D02*
X81064895Y-53048809D01*
X81064895Y-53048809D02*
X81102990Y-52972618D01*
X81102990Y-52972618D02*
X81141085Y-52934523D01*
X81141085Y-52934523D02*
X81217276Y-52896428D01*
X81217276Y-52896428D02*
X81293466Y-52896428D01*
X81293466Y-52896428D02*
X81407752Y-52934523D01*
X81407752Y-52934523D02*
X81864895Y-53391666D01*
X81864895Y-53391666D02*
X81864895Y-52896428D01*
X191033333Y-124345847D02*
X190766667Y-124345847D01*
X190766667Y-124764895D02*
X190766667Y-123964895D01*
X190766667Y-123964895D02*
X191147619Y-123964895D01*
X191719047Y-124345847D02*
X191833333Y-124383942D01*
X191833333Y-124383942D02*
X191871428Y-124422038D01*
X191871428Y-124422038D02*
X191909524Y-124498228D01*
X191909524Y-124498228D02*
X191909524Y-124612514D01*
X191909524Y-124612514D02*
X191871428Y-124688704D01*
X191871428Y-124688704D02*
X191833333Y-124726800D01*
X191833333Y-124726800D02*
X191757143Y-124764895D01*
X191757143Y-124764895D02*
X191452381Y-124764895D01*
X191452381Y-124764895D02*
X191452381Y-123964895D01*
X191452381Y-123964895D02*
X191719047Y-123964895D01*
X191719047Y-123964895D02*
X191795238Y-124002990D01*
X191795238Y-124002990D02*
X191833333Y-124041085D01*
X191833333Y-124041085D02*
X191871428Y-124117276D01*
X191871428Y-124117276D02*
X191871428Y-124193466D01*
X191871428Y-124193466D02*
X191833333Y-124269657D01*
X191833333Y-124269657D02*
X191795238Y-124307752D01*
X191795238Y-124307752D02*
X191719047Y-124345847D01*
X191719047Y-124345847D02*
X191452381Y-124345847D01*
X192176190Y-123964895D02*
X192709524Y-123964895D01*
X192709524Y-123964895D02*
X192366666Y-124764895D01*
X199445847Y-127166666D02*
X199445847Y-127433332D01*
X199864895Y-127433332D02*
X199064895Y-127433332D01*
X199064895Y-127433332D02*
X199064895Y-127052380D01*
X199445847Y-126480952D02*
X199483942Y-126366666D01*
X199483942Y-126366666D02*
X199522038Y-126328571D01*
X199522038Y-126328571D02*
X199598228Y-126290475D01*
X199598228Y-126290475D02*
X199712514Y-126290475D01*
X199712514Y-126290475D02*
X199788704Y-126328571D01*
X199788704Y-126328571D02*
X199826800Y-126366666D01*
X199826800Y-126366666D02*
X199864895Y-126442856D01*
X199864895Y-126442856D02*
X199864895Y-126747618D01*
X199864895Y-126747618D02*
X199064895Y-126747618D01*
X199064895Y-126747618D02*
X199064895Y-126480952D01*
X199064895Y-126480952D02*
X199102990Y-126404761D01*
X199102990Y-126404761D02*
X199141085Y-126366666D01*
X199141085Y-126366666D02*
X199217276Y-126328571D01*
X199217276Y-126328571D02*
X199293466Y-126328571D01*
X199293466Y-126328571D02*
X199369657Y-126366666D01*
X199369657Y-126366666D02*
X199407752Y-126404761D01*
X199407752Y-126404761D02*
X199445847Y-126480952D01*
X199445847Y-126480952D02*
X199445847Y-126747618D01*
X199407752Y-125833333D02*
X199369657Y-125909523D01*
X199369657Y-125909523D02*
X199331561Y-125947618D01*
X199331561Y-125947618D02*
X199255371Y-125985714D01*
X199255371Y-125985714D02*
X199217276Y-125985714D01*
X199217276Y-125985714D02*
X199141085Y-125947618D01*
X199141085Y-125947618D02*
X199102990Y-125909523D01*
X199102990Y-125909523D02*
X199064895Y-125833333D01*
X199064895Y-125833333D02*
X199064895Y-125680952D01*
X199064895Y-125680952D02*
X199102990Y-125604761D01*
X199102990Y-125604761D02*
X199141085Y-125566666D01*
X199141085Y-125566666D02*
X199217276Y-125528571D01*
X199217276Y-125528571D02*
X199255371Y-125528571D01*
X199255371Y-125528571D02*
X199331561Y-125566666D01*
X199331561Y-125566666D02*
X199369657Y-125604761D01*
X199369657Y-125604761D02*
X199407752Y-125680952D01*
X199407752Y-125680952D02*
X199407752Y-125833333D01*
X199407752Y-125833333D02*
X199445847Y-125909523D01*
X199445847Y-125909523D02*
X199483942Y-125947618D01*
X199483942Y-125947618D02*
X199560133Y-125985714D01*
X199560133Y-125985714D02*
X199712514Y-125985714D01*
X199712514Y-125985714D02*
X199788704Y-125947618D01*
X199788704Y-125947618D02*
X199826800Y-125909523D01*
X199826800Y-125909523D02*
X199864895Y-125833333D01*
X199864895Y-125833333D02*
X199864895Y-125680952D01*
X199864895Y-125680952D02*
X199826800Y-125604761D01*
X199826800Y-125604761D02*
X199788704Y-125566666D01*
X199788704Y-125566666D02*
X199712514Y-125528571D01*
X199712514Y-125528571D02*
X199560133Y-125528571D01*
X199560133Y-125528571D02*
X199483942Y-125566666D01*
X199483942Y-125566666D02*
X199445847Y-125604761D01*
X199445847Y-125604761D02*
X199407752Y-125680952D01*
X122994895Y-48633332D02*
X122613942Y-48899999D01*
X122994895Y-49090475D02*
X122194895Y-49090475D01*
X122194895Y-49090475D02*
X122194895Y-48785713D01*
X122194895Y-48785713D02*
X122232990Y-48709523D01*
X122232990Y-48709523D02*
X122271085Y-48671428D01*
X122271085Y-48671428D02*
X122347276Y-48633332D01*
X122347276Y-48633332D02*
X122461561Y-48633332D01*
X122461561Y-48633332D02*
X122537752Y-48671428D01*
X122537752Y-48671428D02*
X122575847Y-48709523D01*
X122575847Y-48709523D02*
X122613942Y-48785713D01*
X122613942Y-48785713D02*
X122613942Y-49090475D01*
X122194895Y-48366666D02*
X122194895Y-47833332D01*
X122194895Y-47833332D02*
X122994895Y-48176190D01*
D10*
X174633333Y-143634819D02*
X174300000Y-143158628D01*
X174061905Y-143634819D02*
X174061905Y-142634819D01*
X174061905Y-142634819D02*
X174442857Y-142634819D01*
X174442857Y-142634819D02*
X174538095Y-142682438D01*
X174538095Y-142682438D02*
X174585714Y-142730057D01*
X174585714Y-142730057D02*
X174633333Y-142825295D01*
X174633333Y-142825295D02*
X174633333Y-142968152D01*
X174633333Y-142968152D02*
X174585714Y-143063390D01*
X174585714Y-143063390D02*
X174538095Y-143111009D01*
X174538095Y-143111009D02*
X174442857Y-143158628D01*
X174442857Y-143158628D02*
X174061905Y-143158628D01*
X175490476Y-142968152D02*
X175490476Y-143634819D01*
X175252381Y-142587200D02*
X175014286Y-143301485D01*
X175014286Y-143301485D02*
X175633333Y-143301485D01*
D13*
X177914895Y-134759523D02*
X178562514Y-134759523D01*
X178562514Y-134759523D02*
X178638704Y-134721428D01*
X178638704Y-134721428D02*
X178676800Y-134683333D01*
X178676800Y-134683333D02*
X178714895Y-134607142D01*
X178714895Y-134607142D02*
X178714895Y-134454761D01*
X178714895Y-134454761D02*
X178676800Y-134378571D01*
X178676800Y-134378571D02*
X178638704Y-134340476D01*
X178638704Y-134340476D02*
X178562514Y-134302380D01*
X178562514Y-134302380D02*
X177914895Y-134302380D01*
X178714895Y-133502381D02*
X178714895Y-133959524D01*
X178714895Y-133730952D02*
X177914895Y-133730952D01*
X177914895Y-133730952D02*
X178029180Y-133807143D01*
X178029180Y-133807143D02*
X178105371Y-133883333D01*
X178105371Y-133883333D02*
X178143466Y-133959524D01*
X96431561Y-44742857D02*
X96431561Y-44438095D01*
X96164895Y-44628571D02*
X96850609Y-44628571D01*
X96850609Y-44628571D02*
X96926800Y-44590476D01*
X96926800Y-44590476D02*
X96964895Y-44514286D01*
X96964895Y-44514286D02*
X96964895Y-44438095D01*
X96964895Y-44057143D02*
X96926800Y-44133333D01*
X96926800Y-44133333D02*
X96888704Y-44171428D01*
X96888704Y-44171428D02*
X96812514Y-44209524D01*
X96812514Y-44209524D02*
X96583942Y-44209524D01*
X96583942Y-44209524D02*
X96507752Y-44171428D01*
X96507752Y-44171428D02*
X96469657Y-44133333D01*
X96469657Y-44133333D02*
X96431561Y-44057143D01*
X96431561Y-44057143D02*
X96431561Y-43942857D01*
X96431561Y-43942857D02*
X96469657Y-43866666D01*
X96469657Y-43866666D02*
X96507752Y-43828571D01*
X96507752Y-43828571D02*
X96583942Y-43790476D01*
X96583942Y-43790476D02*
X96812514Y-43790476D01*
X96812514Y-43790476D02*
X96888704Y-43828571D01*
X96888704Y-43828571D02*
X96926800Y-43866666D01*
X96926800Y-43866666D02*
X96964895Y-43942857D01*
X96964895Y-43942857D02*
X96964895Y-44057143D01*
X97041085Y-43638095D02*
X97041085Y-43028571D01*
X96926800Y-42876190D02*
X96964895Y-42761904D01*
X96964895Y-42761904D02*
X96964895Y-42571428D01*
X96964895Y-42571428D02*
X96926800Y-42495237D01*
X96926800Y-42495237D02*
X96888704Y-42457142D01*
X96888704Y-42457142D02*
X96812514Y-42419047D01*
X96812514Y-42419047D02*
X96736323Y-42419047D01*
X96736323Y-42419047D02*
X96660133Y-42457142D01*
X96660133Y-42457142D02*
X96622038Y-42495237D01*
X96622038Y-42495237D02*
X96583942Y-42571428D01*
X96583942Y-42571428D02*
X96545847Y-42723809D01*
X96545847Y-42723809D02*
X96507752Y-42799999D01*
X96507752Y-42799999D02*
X96469657Y-42838094D01*
X96469657Y-42838094D02*
X96393466Y-42876190D01*
X96393466Y-42876190D02*
X96317276Y-42876190D01*
X96317276Y-42876190D02*
X96241085Y-42838094D01*
X96241085Y-42838094D02*
X96202990Y-42799999D01*
X96202990Y-42799999D02*
X96164895Y-42723809D01*
X96164895Y-42723809D02*
X96164895Y-42533332D01*
X96164895Y-42533332D02*
X96202990Y-42419047D01*
X96164895Y-42190475D02*
X96164895Y-41733332D01*
X96964895Y-41961904D02*
X96164895Y-41961904D01*
X96964895Y-41466665D02*
X96164895Y-41466665D01*
X96164895Y-41466665D02*
X96736323Y-41199999D01*
X96736323Y-41199999D02*
X96164895Y-40933332D01*
X96164895Y-40933332D02*
X96964895Y-40933332D01*
X96964895Y-40133332D02*
X96964895Y-40590475D01*
X96964895Y-40361903D02*
X96164895Y-40361903D01*
X96164895Y-40361903D02*
X96279180Y-40438094D01*
X96279180Y-40438094D02*
X96355371Y-40514284D01*
X96355371Y-40514284D02*
X96393466Y-40590475D01*
X199688704Y-142014285D02*
X199726800Y-142052381D01*
X199726800Y-142052381D02*
X199764895Y-142166666D01*
X199764895Y-142166666D02*
X199764895Y-142242857D01*
X199764895Y-142242857D02*
X199726800Y-142357143D01*
X199726800Y-142357143D02*
X199650609Y-142433333D01*
X199650609Y-142433333D02*
X199574419Y-142471428D01*
X199574419Y-142471428D02*
X199422038Y-142509524D01*
X199422038Y-142509524D02*
X199307752Y-142509524D01*
X199307752Y-142509524D02*
X199155371Y-142471428D01*
X199155371Y-142471428D02*
X199079180Y-142433333D01*
X199079180Y-142433333D02*
X199002990Y-142357143D01*
X199002990Y-142357143D02*
X198964895Y-142242857D01*
X198964895Y-142242857D02*
X198964895Y-142166666D01*
X198964895Y-142166666D02*
X199002990Y-142052381D01*
X199002990Y-142052381D02*
X199041085Y-142014285D01*
X199764895Y-141252381D02*
X199764895Y-141709524D01*
X199764895Y-141480952D02*
X198964895Y-141480952D01*
X198964895Y-141480952D02*
X199079180Y-141557143D01*
X199079180Y-141557143D02*
X199155371Y-141633333D01*
X199155371Y-141633333D02*
X199193466Y-141709524D01*
X199307752Y-140795238D02*
X199269657Y-140871428D01*
X199269657Y-140871428D02*
X199231561Y-140909523D01*
X199231561Y-140909523D02*
X199155371Y-140947619D01*
X199155371Y-140947619D02*
X199117276Y-140947619D01*
X199117276Y-140947619D02*
X199041085Y-140909523D01*
X199041085Y-140909523D02*
X199002990Y-140871428D01*
X199002990Y-140871428D02*
X198964895Y-140795238D01*
X198964895Y-140795238D02*
X198964895Y-140642857D01*
X198964895Y-140642857D02*
X199002990Y-140566666D01*
X199002990Y-140566666D02*
X199041085Y-140528571D01*
X199041085Y-140528571D02*
X199117276Y-140490476D01*
X199117276Y-140490476D02*
X199155371Y-140490476D01*
X199155371Y-140490476D02*
X199231561Y-140528571D01*
X199231561Y-140528571D02*
X199269657Y-140566666D01*
X199269657Y-140566666D02*
X199307752Y-140642857D01*
X199307752Y-140642857D02*
X199307752Y-140795238D01*
X199307752Y-140795238D02*
X199345847Y-140871428D01*
X199345847Y-140871428D02*
X199383942Y-140909523D01*
X199383942Y-140909523D02*
X199460133Y-140947619D01*
X199460133Y-140947619D02*
X199612514Y-140947619D01*
X199612514Y-140947619D02*
X199688704Y-140909523D01*
X199688704Y-140909523D02*
X199726800Y-140871428D01*
X199726800Y-140871428D02*
X199764895Y-140795238D01*
X199764895Y-140795238D02*
X199764895Y-140642857D01*
X199764895Y-140642857D02*
X199726800Y-140566666D01*
X199726800Y-140566666D02*
X199688704Y-140528571D01*
X199688704Y-140528571D02*
X199612514Y-140490476D01*
X199612514Y-140490476D02*
X199460133Y-140490476D01*
X199460133Y-140490476D02*
X199383942Y-140528571D01*
X199383942Y-140528571D02*
X199345847Y-140566666D01*
X199345847Y-140566666D02*
X199307752Y-140642857D01*
X138341905Y-27264895D02*
X138075238Y-26883942D01*
X137884762Y-27264895D02*
X137884762Y-26464895D01*
X137884762Y-26464895D02*
X138189524Y-26464895D01*
X138189524Y-26464895D02*
X138265714Y-26502990D01*
X138265714Y-26502990D02*
X138303809Y-26541085D01*
X138303809Y-26541085D02*
X138341905Y-26617276D01*
X138341905Y-26617276D02*
X138341905Y-26731561D01*
X138341905Y-26731561D02*
X138303809Y-26807752D01*
X138303809Y-26807752D02*
X138265714Y-26845847D01*
X138265714Y-26845847D02*
X138189524Y-26883942D01*
X138189524Y-26883942D02*
X137884762Y-26883942D01*
X139103809Y-27264895D02*
X138646666Y-27264895D01*
X138875238Y-27264895D02*
X138875238Y-26464895D01*
X138875238Y-26464895D02*
X138799047Y-26579180D01*
X138799047Y-26579180D02*
X138722857Y-26655371D01*
X138722857Y-26655371D02*
X138646666Y-26693466D01*
X139599048Y-26464895D02*
X139675238Y-26464895D01*
X139675238Y-26464895D02*
X139751429Y-26502990D01*
X139751429Y-26502990D02*
X139789524Y-26541085D01*
X139789524Y-26541085D02*
X139827619Y-26617276D01*
X139827619Y-26617276D02*
X139865714Y-26769657D01*
X139865714Y-26769657D02*
X139865714Y-26960133D01*
X139865714Y-26960133D02*
X139827619Y-27112514D01*
X139827619Y-27112514D02*
X139789524Y-27188704D01*
X139789524Y-27188704D02*
X139751429Y-27226800D01*
X139751429Y-27226800D02*
X139675238Y-27264895D01*
X139675238Y-27264895D02*
X139599048Y-27264895D01*
X139599048Y-27264895D02*
X139522857Y-27226800D01*
X139522857Y-27226800D02*
X139484762Y-27188704D01*
X139484762Y-27188704D02*
X139446667Y-27112514D01*
X139446667Y-27112514D02*
X139408571Y-26960133D01*
X139408571Y-26960133D02*
X139408571Y-26769657D01*
X139408571Y-26769657D02*
X139446667Y-26617276D01*
X139446667Y-26617276D02*
X139484762Y-26541085D01*
X139484762Y-26541085D02*
X139522857Y-26502990D01*
X139522857Y-26502990D02*
X139599048Y-26464895D01*
X96331561Y-62190476D02*
X96331561Y-61885714D01*
X96064895Y-62076190D02*
X96750609Y-62076190D01*
X96750609Y-62076190D02*
X96826800Y-62038095D01*
X96826800Y-62038095D02*
X96864895Y-61961905D01*
X96864895Y-61961905D02*
X96864895Y-61885714D01*
X96864895Y-61504762D02*
X96826800Y-61580952D01*
X96826800Y-61580952D02*
X96788704Y-61619047D01*
X96788704Y-61619047D02*
X96712514Y-61657143D01*
X96712514Y-61657143D02*
X96483942Y-61657143D01*
X96483942Y-61657143D02*
X96407752Y-61619047D01*
X96407752Y-61619047D02*
X96369657Y-61580952D01*
X96369657Y-61580952D02*
X96331561Y-61504762D01*
X96331561Y-61504762D02*
X96331561Y-61390476D01*
X96331561Y-61390476D02*
X96369657Y-61314285D01*
X96369657Y-61314285D02*
X96407752Y-61276190D01*
X96407752Y-61276190D02*
X96483942Y-61238095D01*
X96483942Y-61238095D02*
X96712514Y-61238095D01*
X96712514Y-61238095D02*
X96788704Y-61276190D01*
X96788704Y-61276190D02*
X96826800Y-61314285D01*
X96826800Y-61314285D02*
X96864895Y-61390476D01*
X96864895Y-61390476D02*
X96864895Y-61504762D01*
X96941085Y-61085714D02*
X96941085Y-60476190D01*
X96864895Y-59828570D02*
X96483942Y-60095237D01*
X96864895Y-60285713D02*
X96064895Y-60285713D01*
X96064895Y-60285713D02*
X96064895Y-59980951D01*
X96064895Y-59980951D02*
X96102990Y-59904761D01*
X96102990Y-59904761D02*
X96141085Y-59866666D01*
X96141085Y-59866666D02*
X96217276Y-59828570D01*
X96217276Y-59828570D02*
X96331561Y-59828570D01*
X96331561Y-59828570D02*
X96407752Y-59866666D01*
X96407752Y-59866666D02*
X96445847Y-59904761D01*
X96445847Y-59904761D02*
X96483942Y-59980951D01*
X96483942Y-59980951D02*
X96483942Y-60285713D01*
X96864895Y-59485713D02*
X96064895Y-59485713D01*
X96064895Y-59485713D02*
X96064895Y-59180951D01*
X96064895Y-59180951D02*
X96102990Y-59104761D01*
X96102990Y-59104761D02*
X96141085Y-59066666D01*
X96141085Y-59066666D02*
X96217276Y-59028570D01*
X96217276Y-59028570D02*
X96331561Y-59028570D01*
X96331561Y-59028570D02*
X96407752Y-59066666D01*
X96407752Y-59066666D02*
X96445847Y-59104761D01*
X96445847Y-59104761D02*
X96483942Y-59180951D01*
X96483942Y-59180951D02*
X96483942Y-59485713D01*
X96864895Y-58685713D02*
X96064895Y-58685713D01*
X96864895Y-57885714D02*
X96864895Y-58342857D01*
X96864895Y-58114285D02*
X96064895Y-58114285D01*
X96064895Y-58114285D02*
X96179180Y-58190476D01*
X96179180Y-58190476D02*
X96255371Y-58266666D01*
X96255371Y-58266666D02*
X96293466Y-58342857D01*
X182170714Y-143988704D02*
X182132618Y-144026800D01*
X182132618Y-144026800D02*
X182018333Y-144064895D01*
X182018333Y-144064895D02*
X181942142Y-144064895D01*
X181942142Y-144064895D02*
X181827856Y-144026800D01*
X181827856Y-144026800D02*
X181751666Y-143950609D01*
X181751666Y-143950609D02*
X181713571Y-143874419D01*
X181713571Y-143874419D02*
X181675475Y-143722038D01*
X181675475Y-143722038D02*
X181675475Y-143607752D01*
X181675475Y-143607752D02*
X181713571Y-143455371D01*
X181713571Y-143455371D02*
X181751666Y-143379180D01*
X181751666Y-143379180D02*
X181827856Y-143302990D01*
X181827856Y-143302990D02*
X181942142Y-143264895D01*
X181942142Y-143264895D02*
X182018333Y-143264895D01*
X182018333Y-143264895D02*
X182132618Y-143302990D01*
X182132618Y-143302990D02*
X182170714Y-143341085D01*
X182475475Y-143341085D02*
X182513571Y-143302990D01*
X182513571Y-143302990D02*
X182589761Y-143264895D01*
X182589761Y-143264895D02*
X182780237Y-143264895D01*
X182780237Y-143264895D02*
X182856428Y-143302990D01*
X182856428Y-143302990D02*
X182894523Y-143341085D01*
X182894523Y-143341085D02*
X182932618Y-143417276D01*
X182932618Y-143417276D02*
X182932618Y-143493466D01*
X182932618Y-143493466D02*
X182894523Y-143607752D01*
X182894523Y-143607752D02*
X182437380Y-144064895D01*
X182437380Y-144064895D02*
X182932618Y-144064895D01*
X183427857Y-143264895D02*
X183504047Y-143264895D01*
X183504047Y-143264895D02*
X183580238Y-143302990D01*
X183580238Y-143302990D02*
X183618333Y-143341085D01*
X183618333Y-143341085D02*
X183656428Y-143417276D01*
X183656428Y-143417276D02*
X183694523Y-143569657D01*
X183694523Y-143569657D02*
X183694523Y-143760133D01*
X183694523Y-143760133D02*
X183656428Y-143912514D01*
X183656428Y-143912514D02*
X183618333Y-143988704D01*
X183618333Y-143988704D02*
X183580238Y-144026800D01*
X183580238Y-144026800D02*
X183504047Y-144064895D01*
X183504047Y-144064895D02*
X183427857Y-144064895D01*
X183427857Y-144064895D02*
X183351666Y-144026800D01*
X183351666Y-144026800D02*
X183313571Y-143988704D01*
X183313571Y-143988704D02*
X183275476Y-143912514D01*
X183275476Y-143912514D02*
X183237380Y-143760133D01*
X183237380Y-143760133D02*
X183237380Y-143569657D01*
X183237380Y-143569657D02*
X183275476Y-143417276D01*
X183275476Y-143417276D02*
X183313571Y-143341085D01*
X183313571Y-143341085D02*
X183351666Y-143302990D01*
X183351666Y-143302990D02*
X183427857Y-143264895D01*
X87764895Y-54514285D02*
X87383942Y-54780952D01*
X87764895Y-54971428D02*
X86964895Y-54971428D01*
X86964895Y-54971428D02*
X86964895Y-54666666D01*
X86964895Y-54666666D02*
X87002990Y-54590476D01*
X87002990Y-54590476D02*
X87041085Y-54552381D01*
X87041085Y-54552381D02*
X87117276Y-54514285D01*
X87117276Y-54514285D02*
X87231561Y-54514285D01*
X87231561Y-54514285D02*
X87307752Y-54552381D01*
X87307752Y-54552381D02*
X87345847Y-54590476D01*
X87345847Y-54590476D02*
X87383942Y-54666666D01*
X87383942Y-54666666D02*
X87383942Y-54971428D01*
X87764895Y-53752381D02*
X87764895Y-54209524D01*
X87764895Y-53980952D02*
X86964895Y-53980952D01*
X86964895Y-53980952D02*
X87079180Y-54057143D01*
X87079180Y-54057143D02*
X87155371Y-54133333D01*
X87155371Y-54133333D02*
X87193466Y-54209524D01*
X87041085Y-53447619D02*
X87002990Y-53409523D01*
X87002990Y-53409523D02*
X86964895Y-53333333D01*
X86964895Y-53333333D02*
X86964895Y-53142857D01*
X86964895Y-53142857D02*
X87002990Y-53066666D01*
X87002990Y-53066666D02*
X87041085Y-53028571D01*
X87041085Y-53028571D02*
X87117276Y-52990476D01*
X87117276Y-52990476D02*
X87193466Y-52990476D01*
X87193466Y-52990476D02*
X87307752Y-53028571D01*
X87307752Y-53028571D02*
X87764895Y-53485714D01*
X87764895Y-53485714D02*
X87764895Y-52990476D01*
X162600714Y-142638704D02*
X162562618Y-142676800D01*
X162562618Y-142676800D02*
X162448333Y-142714895D01*
X162448333Y-142714895D02*
X162372142Y-142714895D01*
X162372142Y-142714895D02*
X162257856Y-142676800D01*
X162257856Y-142676800D02*
X162181666Y-142600609D01*
X162181666Y-142600609D02*
X162143571Y-142524419D01*
X162143571Y-142524419D02*
X162105475Y-142372038D01*
X162105475Y-142372038D02*
X162105475Y-142257752D01*
X162105475Y-142257752D02*
X162143571Y-142105371D01*
X162143571Y-142105371D02*
X162181666Y-142029180D01*
X162181666Y-142029180D02*
X162257856Y-141952990D01*
X162257856Y-141952990D02*
X162372142Y-141914895D01*
X162372142Y-141914895D02*
X162448333Y-141914895D01*
X162448333Y-141914895D02*
X162562618Y-141952990D01*
X162562618Y-141952990D02*
X162600714Y-141991085D01*
X163362618Y-142714895D02*
X162905475Y-142714895D01*
X163134047Y-142714895D02*
X163134047Y-141914895D01*
X163134047Y-141914895D02*
X163057856Y-142029180D01*
X163057856Y-142029180D02*
X162981666Y-142105371D01*
X162981666Y-142105371D02*
X162905475Y-142143466D01*
X163857857Y-141914895D02*
X163934047Y-141914895D01*
X163934047Y-141914895D02*
X164010238Y-141952990D01*
X164010238Y-141952990D02*
X164048333Y-141991085D01*
X164048333Y-141991085D02*
X164086428Y-142067276D01*
X164086428Y-142067276D02*
X164124523Y-142219657D01*
X164124523Y-142219657D02*
X164124523Y-142410133D01*
X164124523Y-142410133D02*
X164086428Y-142562514D01*
X164086428Y-142562514D02*
X164048333Y-142638704D01*
X164048333Y-142638704D02*
X164010238Y-142676800D01*
X164010238Y-142676800D02*
X163934047Y-142714895D01*
X163934047Y-142714895D02*
X163857857Y-142714895D01*
X163857857Y-142714895D02*
X163781666Y-142676800D01*
X163781666Y-142676800D02*
X163743571Y-142638704D01*
X163743571Y-142638704D02*
X163705476Y-142562514D01*
X163705476Y-142562514D02*
X163667380Y-142410133D01*
X163667380Y-142410133D02*
X163667380Y-142219657D01*
X163667380Y-142219657D02*
X163705476Y-142067276D01*
X163705476Y-142067276D02*
X163743571Y-141991085D01*
X163743571Y-141991085D02*
X163781666Y-141952990D01*
X163781666Y-141952990D02*
X163857857Y-141914895D01*
X84191667Y-46864895D02*
X83925000Y-46483942D01*
X83734524Y-46864895D02*
X83734524Y-46064895D01*
X83734524Y-46064895D02*
X84039286Y-46064895D01*
X84039286Y-46064895D02*
X84115476Y-46102990D01*
X84115476Y-46102990D02*
X84153571Y-46141085D01*
X84153571Y-46141085D02*
X84191667Y-46217276D01*
X84191667Y-46217276D02*
X84191667Y-46331561D01*
X84191667Y-46331561D02*
X84153571Y-46407752D01*
X84153571Y-46407752D02*
X84115476Y-46445847D01*
X84115476Y-46445847D02*
X84039286Y-46483942D01*
X84039286Y-46483942D02*
X83734524Y-46483942D01*
X84953571Y-46864895D02*
X84496428Y-46864895D01*
X84725000Y-46864895D02*
X84725000Y-46064895D01*
X84725000Y-46064895D02*
X84648809Y-46179180D01*
X84648809Y-46179180D02*
X84572619Y-46255371D01*
X84572619Y-46255371D02*
X84496428Y-46293466D01*
X162448333Y-145395847D02*
X162181667Y-145395847D01*
X162181667Y-145814895D02*
X162181667Y-145014895D01*
X162181667Y-145014895D02*
X162562619Y-145014895D01*
X163134047Y-145395847D02*
X163248333Y-145433942D01*
X163248333Y-145433942D02*
X163286428Y-145472038D01*
X163286428Y-145472038D02*
X163324524Y-145548228D01*
X163324524Y-145548228D02*
X163324524Y-145662514D01*
X163324524Y-145662514D02*
X163286428Y-145738704D01*
X163286428Y-145738704D02*
X163248333Y-145776800D01*
X163248333Y-145776800D02*
X163172143Y-145814895D01*
X163172143Y-145814895D02*
X162867381Y-145814895D01*
X162867381Y-145814895D02*
X162867381Y-145014895D01*
X162867381Y-145014895D02*
X163134047Y-145014895D01*
X163134047Y-145014895D02*
X163210238Y-145052990D01*
X163210238Y-145052990D02*
X163248333Y-145091085D01*
X163248333Y-145091085D02*
X163286428Y-145167276D01*
X163286428Y-145167276D02*
X163286428Y-145243466D01*
X163286428Y-145243466D02*
X163248333Y-145319657D01*
X163248333Y-145319657D02*
X163210238Y-145357752D01*
X163210238Y-145357752D02*
X163134047Y-145395847D01*
X163134047Y-145395847D02*
X162867381Y-145395847D01*
X164048333Y-145014895D02*
X163667381Y-145014895D01*
X163667381Y-145014895D02*
X163629285Y-145395847D01*
X163629285Y-145395847D02*
X163667381Y-145357752D01*
X163667381Y-145357752D02*
X163743571Y-145319657D01*
X163743571Y-145319657D02*
X163934047Y-145319657D01*
X163934047Y-145319657D02*
X164010238Y-145357752D01*
X164010238Y-145357752D02*
X164048333Y-145395847D01*
X164048333Y-145395847D02*
X164086428Y-145472038D01*
X164086428Y-145472038D02*
X164086428Y-145662514D01*
X164086428Y-145662514D02*
X164048333Y-145738704D01*
X164048333Y-145738704D02*
X164010238Y-145776800D01*
X164010238Y-145776800D02*
X163934047Y-145814895D01*
X163934047Y-145814895D02*
X163743571Y-145814895D01*
X163743571Y-145814895D02*
X163667381Y-145776800D01*
X163667381Y-145776800D02*
X163629285Y-145738704D01*
X182095714Y-127588704D02*
X182057618Y-127626800D01*
X182057618Y-127626800D02*
X181943333Y-127664895D01*
X181943333Y-127664895D02*
X181867142Y-127664895D01*
X181867142Y-127664895D02*
X181752856Y-127626800D01*
X181752856Y-127626800D02*
X181676666Y-127550609D01*
X181676666Y-127550609D02*
X181638571Y-127474419D01*
X181638571Y-127474419D02*
X181600475Y-127322038D01*
X181600475Y-127322038D02*
X181600475Y-127207752D01*
X181600475Y-127207752D02*
X181638571Y-127055371D01*
X181638571Y-127055371D02*
X181676666Y-126979180D01*
X181676666Y-126979180D02*
X181752856Y-126902990D01*
X181752856Y-126902990D02*
X181867142Y-126864895D01*
X181867142Y-126864895D02*
X181943333Y-126864895D01*
X181943333Y-126864895D02*
X182057618Y-126902990D01*
X182057618Y-126902990D02*
X182095714Y-126941085D01*
X182857618Y-127664895D02*
X182400475Y-127664895D01*
X182629047Y-127664895D02*
X182629047Y-126864895D01*
X182629047Y-126864895D02*
X182552856Y-126979180D01*
X182552856Y-126979180D02*
X182476666Y-127055371D01*
X182476666Y-127055371D02*
X182400475Y-127093466D01*
X183543333Y-127131561D02*
X183543333Y-127664895D01*
X183352857Y-126826800D02*
X183162380Y-127398228D01*
X183162380Y-127398228D02*
X183657619Y-127398228D01*
X181933333Y-122645847D02*
X181666667Y-122645847D01*
X181666667Y-123064895D02*
X181666667Y-122264895D01*
X181666667Y-122264895D02*
X182047619Y-122264895D01*
X182619047Y-122645847D02*
X182733333Y-122683942D01*
X182733333Y-122683942D02*
X182771428Y-122722038D01*
X182771428Y-122722038D02*
X182809524Y-122798228D01*
X182809524Y-122798228D02*
X182809524Y-122912514D01*
X182809524Y-122912514D02*
X182771428Y-122988704D01*
X182771428Y-122988704D02*
X182733333Y-123026800D01*
X182733333Y-123026800D02*
X182657143Y-123064895D01*
X182657143Y-123064895D02*
X182352381Y-123064895D01*
X182352381Y-123064895D02*
X182352381Y-122264895D01*
X182352381Y-122264895D02*
X182619047Y-122264895D01*
X182619047Y-122264895D02*
X182695238Y-122302990D01*
X182695238Y-122302990D02*
X182733333Y-122341085D01*
X182733333Y-122341085D02*
X182771428Y-122417276D01*
X182771428Y-122417276D02*
X182771428Y-122493466D01*
X182771428Y-122493466D02*
X182733333Y-122569657D01*
X182733333Y-122569657D02*
X182695238Y-122607752D01*
X182695238Y-122607752D02*
X182619047Y-122645847D01*
X182619047Y-122645847D02*
X182352381Y-122645847D01*
X183495238Y-122264895D02*
X183342857Y-122264895D01*
X183342857Y-122264895D02*
X183266666Y-122302990D01*
X183266666Y-122302990D02*
X183228571Y-122341085D01*
X183228571Y-122341085D02*
X183152381Y-122455371D01*
X183152381Y-122455371D02*
X183114285Y-122607752D01*
X183114285Y-122607752D02*
X183114285Y-122912514D01*
X183114285Y-122912514D02*
X183152381Y-122988704D01*
X183152381Y-122988704D02*
X183190476Y-123026800D01*
X183190476Y-123026800D02*
X183266666Y-123064895D01*
X183266666Y-123064895D02*
X183419047Y-123064895D01*
X183419047Y-123064895D02*
X183495238Y-123026800D01*
X183495238Y-123026800D02*
X183533333Y-122988704D01*
X183533333Y-122988704D02*
X183571428Y-122912514D01*
X183571428Y-122912514D02*
X183571428Y-122722038D01*
X183571428Y-122722038D02*
X183533333Y-122645847D01*
X183533333Y-122645847D02*
X183495238Y-122607752D01*
X183495238Y-122607752D02*
X183419047Y-122569657D01*
X183419047Y-122569657D02*
X183266666Y-122569657D01*
X183266666Y-122569657D02*
X183190476Y-122607752D01*
X183190476Y-122607752D02*
X183152381Y-122645847D01*
X183152381Y-122645847D02*
X183114285Y-122722038D01*
X181212380Y-145245847D02*
X180945714Y-145245847D01*
X180945714Y-145664895D02*
X180945714Y-144864895D01*
X180945714Y-144864895D02*
X181326666Y-144864895D01*
X181898094Y-145245847D02*
X182012380Y-145283942D01*
X182012380Y-145283942D02*
X182050475Y-145322038D01*
X182050475Y-145322038D02*
X182088571Y-145398228D01*
X182088571Y-145398228D02*
X182088571Y-145512514D01*
X182088571Y-145512514D02*
X182050475Y-145588704D01*
X182050475Y-145588704D02*
X182012380Y-145626800D01*
X182012380Y-145626800D02*
X181936190Y-145664895D01*
X181936190Y-145664895D02*
X181631428Y-145664895D01*
X181631428Y-145664895D02*
X181631428Y-144864895D01*
X181631428Y-144864895D02*
X181898094Y-144864895D01*
X181898094Y-144864895D02*
X181974285Y-144902990D01*
X181974285Y-144902990D02*
X182012380Y-144941085D01*
X182012380Y-144941085D02*
X182050475Y-145017276D01*
X182050475Y-145017276D02*
X182050475Y-145093466D01*
X182050475Y-145093466D02*
X182012380Y-145169657D01*
X182012380Y-145169657D02*
X181974285Y-145207752D01*
X181974285Y-145207752D02*
X181898094Y-145245847D01*
X181898094Y-145245847D02*
X181631428Y-145245847D01*
X182850475Y-145664895D02*
X182393332Y-145664895D01*
X182621904Y-145664895D02*
X182621904Y-144864895D01*
X182621904Y-144864895D02*
X182545713Y-144979180D01*
X182545713Y-144979180D02*
X182469523Y-145055371D01*
X182469523Y-145055371D02*
X182393332Y-145093466D01*
X183345714Y-144864895D02*
X183421904Y-144864895D01*
X183421904Y-144864895D02*
X183498095Y-144902990D01*
X183498095Y-144902990D02*
X183536190Y-144941085D01*
X183536190Y-144941085D02*
X183574285Y-145017276D01*
X183574285Y-145017276D02*
X183612380Y-145169657D01*
X183612380Y-145169657D02*
X183612380Y-145360133D01*
X183612380Y-145360133D02*
X183574285Y-145512514D01*
X183574285Y-145512514D02*
X183536190Y-145588704D01*
X183536190Y-145588704D02*
X183498095Y-145626800D01*
X183498095Y-145626800D02*
X183421904Y-145664895D01*
X183421904Y-145664895D02*
X183345714Y-145664895D01*
X183345714Y-145664895D02*
X183269523Y-145626800D01*
X183269523Y-145626800D02*
X183231428Y-145588704D01*
X183231428Y-145588704D02*
X183193333Y-145512514D01*
X183193333Y-145512514D02*
X183155237Y-145360133D01*
X183155237Y-145360133D02*
X183155237Y-145169657D01*
X183155237Y-145169657D02*
X183193333Y-145017276D01*
X183193333Y-145017276D02*
X183231428Y-144941085D01*
X183231428Y-144941085D02*
X183269523Y-144902990D01*
X183269523Y-144902990D02*
X183345714Y-144864895D01*
X168395833Y-142145847D02*
X168129167Y-142145847D01*
X168129167Y-142564895D02*
X168129167Y-141764895D01*
X168129167Y-141764895D02*
X168510119Y-141764895D01*
X169081547Y-142145847D02*
X169195833Y-142183942D01*
X169195833Y-142183942D02*
X169233928Y-142222038D01*
X169233928Y-142222038D02*
X169272024Y-142298228D01*
X169272024Y-142298228D02*
X169272024Y-142412514D01*
X169272024Y-142412514D02*
X169233928Y-142488704D01*
X169233928Y-142488704D02*
X169195833Y-142526800D01*
X169195833Y-142526800D02*
X169119643Y-142564895D01*
X169119643Y-142564895D02*
X168814881Y-142564895D01*
X168814881Y-142564895D02*
X168814881Y-141764895D01*
X168814881Y-141764895D02*
X169081547Y-141764895D01*
X169081547Y-141764895D02*
X169157738Y-141802990D01*
X169157738Y-141802990D02*
X169195833Y-141841085D01*
X169195833Y-141841085D02*
X169233928Y-141917276D01*
X169233928Y-141917276D02*
X169233928Y-141993466D01*
X169233928Y-141993466D02*
X169195833Y-142069657D01*
X169195833Y-142069657D02*
X169157738Y-142107752D01*
X169157738Y-142107752D02*
X169081547Y-142145847D01*
X169081547Y-142145847D02*
X168814881Y-142145847D01*
X169957738Y-142031561D02*
X169957738Y-142564895D01*
X169767262Y-141726800D02*
X169576785Y-142298228D01*
X169576785Y-142298228D02*
X170072024Y-142298228D01*
X68841085Y-50896190D02*
X68802990Y-50972380D01*
X68802990Y-50972380D02*
X68726800Y-51048571D01*
X68726800Y-51048571D02*
X68612514Y-51162857D01*
X68612514Y-51162857D02*
X68574419Y-51239047D01*
X68574419Y-51239047D02*
X68574419Y-51315238D01*
X68764895Y-51277142D02*
X68726800Y-51353333D01*
X68726800Y-51353333D02*
X68650609Y-51429523D01*
X68650609Y-51429523D02*
X68498228Y-51467619D01*
X68498228Y-51467619D02*
X68231561Y-51467619D01*
X68231561Y-51467619D02*
X68079180Y-51429523D01*
X68079180Y-51429523D02*
X68002990Y-51353333D01*
X68002990Y-51353333D02*
X67964895Y-51277142D01*
X67964895Y-51277142D02*
X67964895Y-51124761D01*
X67964895Y-51124761D02*
X68002990Y-51048571D01*
X68002990Y-51048571D02*
X68079180Y-50972380D01*
X68079180Y-50972380D02*
X68231561Y-50934285D01*
X68231561Y-50934285D02*
X68498228Y-50934285D01*
X68498228Y-50934285D02*
X68650609Y-50972380D01*
X68650609Y-50972380D02*
X68726800Y-51048571D01*
X68726800Y-51048571D02*
X68764895Y-51124761D01*
X68764895Y-51124761D02*
X68764895Y-51277142D01*
X68764895Y-50172381D02*
X68764895Y-50629524D01*
X68764895Y-50400952D02*
X67964895Y-50400952D01*
X67964895Y-50400952D02*
X68079180Y-50477143D01*
X68079180Y-50477143D02*
X68155371Y-50553333D01*
X68155371Y-50553333D02*
X68193466Y-50629524D01*
X180188704Y-141183332D02*
X180226800Y-141221428D01*
X180226800Y-141221428D02*
X180264895Y-141335713D01*
X180264895Y-141335713D02*
X180264895Y-141411904D01*
X180264895Y-141411904D02*
X180226800Y-141526190D01*
X180226800Y-141526190D02*
X180150609Y-141602380D01*
X180150609Y-141602380D02*
X180074419Y-141640475D01*
X180074419Y-141640475D02*
X179922038Y-141678571D01*
X179922038Y-141678571D02*
X179807752Y-141678571D01*
X179807752Y-141678571D02*
X179655371Y-141640475D01*
X179655371Y-141640475D02*
X179579180Y-141602380D01*
X179579180Y-141602380D02*
X179502990Y-141526190D01*
X179502990Y-141526190D02*
X179464895Y-141411904D01*
X179464895Y-141411904D02*
X179464895Y-141335713D01*
X179464895Y-141335713D02*
X179502990Y-141221428D01*
X179502990Y-141221428D02*
X179541085Y-141183332D01*
X180264895Y-140802380D02*
X180264895Y-140649999D01*
X180264895Y-140649999D02*
X180226800Y-140573809D01*
X180226800Y-140573809D02*
X180188704Y-140535713D01*
X180188704Y-140535713D02*
X180074419Y-140459523D01*
X180074419Y-140459523D02*
X179922038Y-140421428D01*
X179922038Y-140421428D02*
X179617276Y-140421428D01*
X179617276Y-140421428D02*
X179541085Y-140459523D01*
X179541085Y-140459523D02*
X179502990Y-140497618D01*
X179502990Y-140497618D02*
X179464895Y-140573809D01*
X179464895Y-140573809D02*
X179464895Y-140726190D01*
X179464895Y-140726190D02*
X179502990Y-140802380D01*
X179502990Y-140802380D02*
X179541085Y-140840475D01*
X179541085Y-140840475D02*
X179617276Y-140878571D01*
X179617276Y-140878571D02*
X179807752Y-140878571D01*
X179807752Y-140878571D02*
X179883942Y-140840475D01*
X179883942Y-140840475D02*
X179922038Y-140802380D01*
X179922038Y-140802380D02*
X179960133Y-140726190D01*
X179960133Y-140726190D02*
X179960133Y-140573809D01*
X179960133Y-140573809D02*
X179922038Y-140497618D01*
X179922038Y-140497618D02*
X179883942Y-140459523D01*
X179883942Y-140459523D02*
X179807752Y-140421428D01*
X182145714Y-140963704D02*
X182107618Y-141001800D01*
X182107618Y-141001800D02*
X181993333Y-141039895D01*
X181993333Y-141039895D02*
X181917142Y-141039895D01*
X181917142Y-141039895D02*
X181802856Y-141001800D01*
X181802856Y-141001800D02*
X181726666Y-140925609D01*
X181726666Y-140925609D02*
X181688571Y-140849419D01*
X181688571Y-140849419D02*
X181650475Y-140697038D01*
X181650475Y-140697038D02*
X181650475Y-140582752D01*
X181650475Y-140582752D02*
X181688571Y-140430371D01*
X181688571Y-140430371D02*
X181726666Y-140354180D01*
X181726666Y-140354180D02*
X181802856Y-140277990D01*
X181802856Y-140277990D02*
X181917142Y-140239895D01*
X181917142Y-140239895D02*
X181993333Y-140239895D01*
X181993333Y-140239895D02*
X182107618Y-140277990D01*
X182107618Y-140277990D02*
X182145714Y-140316085D01*
X182907618Y-141039895D02*
X182450475Y-141039895D01*
X182679047Y-141039895D02*
X182679047Y-140239895D01*
X182679047Y-140239895D02*
X182602856Y-140354180D01*
X182602856Y-140354180D02*
X182526666Y-140430371D01*
X182526666Y-140430371D02*
X182450475Y-140468466D01*
X183174285Y-140239895D02*
X183707619Y-140239895D01*
X183707619Y-140239895D02*
X183364761Y-141039895D01*
X163366667Y-141138704D02*
X163328571Y-141176800D01*
X163328571Y-141176800D02*
X163214286Y-141214895D01*
X163214286Y-141214895D02*
X163138095Y-141214895D01*
X163138095Y-141214895D02*
X163023809Y-141176800D01*
X163023809Y-141176800D02*
X162947619Y-141100609D01*
X162947619Y-141100609D02*
X162909524Y-141024419D01*
X162909524Y-141024419D02*
X162871428Y-140872038D01*
X162871428Y-140872038D02*
X162871428Y-140757752D01*
X162871428Y-140757752D02*
X162909524Y-140605371D01*
X162909524Y-140605371D02*
X162947619Y-140529180D01*
X162947619Y-140529180D02*
X163023809Y-140452990D01*
X163023809Y-140452990D02*
X163138095Y-140414895D01*
X163138095Y-140414895D02*
X163214286Y-140414895D01*
X163214286Y-140414895D02*
X163328571Y-140452990D01*
X163328571Y-140452990D02*
X163366667Y-140491085D01*
X163823809Y-140757752D02*
X163747619Y-140719657D01*
X163747619Y-140719657D02*
X163709524Y-140681561D01*
X163709524Y-140681561D02*
X163671428Y-140605371D01*
X163671428Y-140605371D02*
X163671428Y-140567276D01*
X163671428Y-140567276D02*
X163709524Y-140491085D01*
X163709524Y-140491085D02*
X163747619Y-140452990D01*
X163747619Y-140452990D02*
X163823809Y-140414895D01*
X163823809Y-140414895D02*
X163976190Y-140414895D01*
X163976190Y-140414895D02*
X164052381Y-140452990D01*
X164052381Y-140452990D02*
X164090476Y-140491085D01*
X164090476Y-140491085D02*
X164128571Y-140567276D01*
X164128571Y-140567276D02*
X164128571Y-140605371D01*
X164128571Y-140605371D02*
X164090476Y-140681561D01*
X164090476Y-140681561D02*
X164052381Y-140719657D01*
X164052381Y-140719657D02*
X163976190Y-140757752D01*
X163976190Y-140757752D02*
X163823809Y-140757752D01*
X163823809Y-140757752D02*
X163747619Y-140795847D01*
X163747619Y-140795847D02*
X163709524Y-140833942D01*
X163709524Y-140833942D02*
X163671428Y-140910133D01*
X163671428Y-140910133D02*
X163671428Y-141062514D01*
X163671428Y-141062514D02*
X163709524Y-141138704D01*
X163709524Y-141138704D02*
X163747619Y-141176800D01*
X163747619Y-141176800D02*
X163823809Y-141214895D01*
X163823809Y-141214895D02*
X163976190Y-141214895D01*
X163976190Y-141214895D02*
X164052381Y-141176800D01*
X164052381Y-141176800D02*
X164090476Y-141138704D01*
X164090476Y-141138704D02*
X164128571Y-141062514D01*
X164128571Y-141062514D02*
X164128571Y-140910133D01*
X164128571Y-140910133D02*
X164090476Y-140833942D01*
X164090476Y-140833942D02*
X164052381Y-140795847D01*
X164052381Y-140795847D02*
X163976190Y-140757752D01*
X113865476Y-49264895D02*
X113865476Y-49912514D01*
X113865476Y-49912514D02*
X113903571Y-49988704D01*
X113903571Y-49988704D02*
X113941666Y-50026800D01*
X113941666Y-50026800D02*
X114017857Y-50064895D01*
X114017857Y-50064895D02*
X114170238Y-50064895D01*
X114170238Y-50064895D02*
X114246428Y-50026800D01*
X114246428Y-50026800D02*
X114284523Y-49988704D01*
X114284523Y-49988704D02*
X114322619Y-49912514D01*
X114322619Y-49912514D02*
X114322619Y-49264895D01*
X115046428Y-49531561D02*
X115046428Y-50064895D01*
X114855952Y-49226800D02*
X114665475Y-49798228D01*
X114665475Y-49798228D02*
X115160714Y-49798228D01*
D10*
X188123533Y-126438819D02*
X187790200Y-125962628D01*
X187552105Y-126438819D02*
X187552105Y-125438819D01*
X187552105Y-125438819D02*
X187933057Y-125438819D01*
X187933057Y-125438819D02*
X188028295Y-125486438D01*
X188028295Y-125486438D02*
X188075914Y-125534057D01*
X188075914Y-125534057D02*
X188123533Y-125629295D01*
X188123533Y-125629295D02*
X188123533Y-125772152D01*
X188123533Y-125772152D02*
X188075914Y-125867390D01*
X188075914Y-125867390D02*
X188028295Y-125915009D01*
X188028295Y-125915009D02*
X187933057Y-125962628D01*
X187933057Y-125962628D02*
X187552105Y-125962628D01*
X189028295Y-125438819D02*
X188552105Y-125438819D01*
X188552105Y-125438819D02*
X188504486Y-125915009D01*
X188504486Y-125915009D02*
X188552105Y-125867390D01*
X188552105Y-125867390D02*
X188647343Y-125819771D01*
X188647343Y-125819771D02*
X188885438Y-125819771D01*
X188885438Y-125819771D02*
X188980676Y-125867390D01*
X188980676Y-125867390D02*
X189028295Y-125915009D01*
X189028295Y-125915009D02*
X189075914Y-126010247D01*
X189075914Y-126010247D02*
X189075914Y-126248342D01*
X189075914Y-126248342D02*
X189028295Y-126343580D01*
X189028295Y-126343580D02*
X188980676Y-126391200D01*
X188980676Y-126391200D02*
X188885438Y-126438819D01*
X188885438Y-126438819D02*
X188647343Y-126438819D01*
X188647343Y-126438819D02*
X188552105Y-126391200D01*
X188552105Y-126391200D02*
X188504486Y-126343580D01*
D13*
X138151800Y-37441667D02*
X138189895Y-37327381D01*
X138189895Y-37327381D02*
X138189895Y-37136905D01*
X138189895Y-37136905D02*
X138151800Y-37060714D01*
X138151800Y-37060714D02*
X138113704Y-37022619D01*
X138113704Y-37022619D02*
X138037514Y-36984524D01*
X138037514Y-36984524D02*
X137961323Y-36984524D01*
X137961323Y-36984524D02*
X137885133Y-37022619D01*
X137885133Y-37022619D02*
X137847038Y-37060714D01*
X137847038Y-37060714D02*
X137808942Y-37136905D01*
X137808942Y-37136905D02*
X137770847Y-37289286D01*
X137770847Y-37289286D02*
X137732752Y-37365476D01*
X137732752Y-37365476D02*
X137694657Y-37403571D01*
X137694657Y-37403571D02*
X137618466Y-37441667D01*
X137618466Y-37441667D02*
X137542276Y-37441667D01*
X137542276Y-37441667D02*
X137466085Y-37403571D01*
X137466085Y-37403571D02*
X137427990Y-37365476D01*
X137427990Y-37365476D02*
X137389895Y-37289286D01*
X137389895Y-37289286D02*
X137389895Y-37098809D01*
X137389895Y-37098809D02*
X137427990Y-36984524D01*
X137389895Y-36717857D02*
X138189895Y-36527381D01*
X138189895Y-36527381D02*
X137618466Y-36375000D01*
X137618466Y-36375000D02*
X138189895Y-36222619D01*
X138189895Y-36222619D02*
X137389895Y-36032143D01*
X137466085Y-35765476D02*
X137427990Y-35727380D01*
X137427990Y-35727380D02*
X137389895Y-35651190D01*
X137389895Y-35651190D02*
X137389895Y-35460714D01*
X137389895Y-35460714D02*
X137427990Y-35384523D01*
X137427990Y-35384523D02*
X137466085Y-35346428D01*
X137466085Y-35346428D02*
X137542276Y-35308333D01*
X137542276Y-35308333D02*
X137618466Y-35308333D01*
X137618466Y-35308333D02*
X137732752Y-35346428D01*
X137732752Y-35346428D02*
X138189895Y-35803571D01*
X138189895Y-35803571D02*
X138189895Y-35308333D01*
X182095714Y-126088704D02*
X182057618Y-126126800D01*
X182057618Y-126126800D02*
X181943333Y-126164895D01*
X181943333Y-126164895D02*
X181867142Y-126164895D01*
X181867142Y-126164895D02*
X181752856Y-126126800D01*
X181752856Y-126126800D02*
X181676666Y-126050609D01*
X181676666Y-126050609D02*
X181638571Y-125974419D01*
X181638571Y-125974419D02*
X181600475Y-125822038D01*
X181600475Y-125822038D02*
X181600475Y-125707752D01*
X181600475Y-125707752D02*
X181638571Y-125555371D01*
X181638571Y-125555371D02*
X181676666Y-125479180D01*
X181676666Y-125479180D02*
X181752856Y-125402990D01*
X181752856Y-125402990D02*
X181867142Y-125364895D01*
X181867142Y-125364895D02*
X181943333Y-125364895D01*
X181943333Y-125364895D02*
X182057618Y-125402990D01*
X182057618Y-125402990D02*
X182095714Y-125441085D01*
X182857618Y-126164895D02*
X182400475Y-126164895D01*
X182629047Y-126164895D02*
X182629047Y-125364895D01*
X182629047Y-125364895D02*
X182552856Y-125479180D01*
X182552856Y-125479180D02*
X182476666Y-125555371D01*
X182476666Y-125555371D02*
X182400475Y-125593466D01*
X183124285Y-125364895D02*
X183619523Y-125364895D01*
X183619523Y-125364895D02*
X183352857Y-125669657D01*
X183352857Y-125669657D02*
X183467142Y-125669657D01*
X183467142Y-125669657D02*
X183543333Y-125707752D01*
X183543333Y-125707752D02*
X183581428Y-125745847D01*
X183581428Y-125745847D02*
X183619523Y-125822038D01*
X183619523Y-125822038D02*
X183619523Y-126012514D01*
X183619523Y-126012514D02*
X183581428Y-126088704D01*
X183581428Y-126088704D02*
X183543333Y-126126800D01*
X183543333Y-126126800D02*
X183467142Y-126164895D01*
X183467142Y-126164895D02*
X183238571Y-126164895D01*
X183238571Y-126164895D02*
X183162380Y-126126800D01*
X183162380Y-126126800D02*
X183124285Y-126088704D01*
X162600714Y-144138704D02*
X162562618Y-144176800D01*
X162562618Y-144176800D02*
X162448333Y-144214895D01*
X162448333Y-144214895D02*
X162372142Y-144214895D01*
X162372142Y-144214895D02*
X162257856Y-144176800D01*
X162257856Y-144176800D02*
X162181666Y-144100609D01*
X162181666Y-144100609D02*
X162143571Y-144024419D01*
X162143571Y-144024419D02*
X162105475Y-143872038D01*
X162105475Y-143872038D02*
X162105475Y-143757752D01*
X162105475Y-143757752D02*
X162143571Y-143605371D01*
X162143571Y-143605371D02*
X162181666Y-143529180D01*
X162181666Y-143529180D02*
X162257856Y-143452990D01*
X162257856Y-143452990D02*
X162372142Y-143414895D01*
X162372142Y-143414895D02*
X162448333Y-143414895D01*
X162448333Y-143414895D02*
X162562618Y-143452990D01*
X162562618Y-143452990D02*
X162600714Y-143491085D01*
X163362618Y-144214895D02*
X162905475Y-144214895D01*
X163134047Y-144214895D02*
X163134047Y-143414895D01*
X163134047Y-143414895D02*
X163057856Y-143529180D01*
X163057856Y-143529180D02*
X162981666Y-143605371D01*
X162981666Y-143605371D02*
X162905475Y-143643466D01*
X164124523Y-144214895D02*
X163667380Y-144214895D01*
X163895952Y-144214895D02*
X163895952Y-143414895D01*
X163895952Y-143414895D02*
X163819761Y-143529180D01*
X163819761Y-143529180D02*
X163743571Y-143605371D01*
X163743571Y-143605371D02*
X163667380Y-143643466D01*
X84655046Y-63924704D02*
X84616950Y-63962800D01*
X84616950Y-63962800D02*
X84502665Y-64000895D01*
X84502665Y-64000895D02*
X84426474Y-64000895D01*
X84426474Y-64000895D02*
X84312188Y-63962800D01*
X84312188Y-63962800D02*
X84235998Y-63886609D01*
X84235998Y-63886609D02*
X84197903Y-63810419D01*
X84197903Y-63810419D02*
X84159807Y-63658038D01*
X84159807Y-63658038D02*
X84159807Y-63543752D01*
X84159807Y-63543752D02*
X84197903Y-63391371D01*
X84197903Y-63391371D02*
X84235998Y-63315180D01*
X84235998Y-63315180D02*
X84312188Y-63238990D01*
X84312188Y-63238990D02*
X84426474Y-63200895D01*
X84426474Y-63200895D02*
X84502665Y-63200895D01*
X84502665Y-63200895D02*
X84616950Y-63238990D01*
X84616950Y-63238990D02*
X84655046Y-63277085D01*
X85416950Y-64000895D02*
X84959807Y-64000895D01*
X85188379Y-64000895D02*
X85188379Y-63200895D01*
X85188379Y-63200895D02*
X85112188Y-63315180D01*
X85112188Y-63315180D02*
X85035998Y-63391371D01*
X85035998Y-63391371D02*
X84959807Y-63429466D01*
X84864895Y-53658332D02*
X84483942Y-53924999D01*
X84864895Y-54115475D02*
X84064895Y-54115475D01*
X84064895Y-54115475D02*
X84064895Y-53810713D01*
X84064895Y-53810713D02*
X84102990Y-53734523D01*
X84102990Y-53734523D02*
X84141085Y-53696428D01*
X84141085Y-53696428D02*
X84217276Y-53658332D01*
X84217276Y-53658332D02*
X84331561Y-53658332D01*
X84331561Y-53658332D02*
X84407752Y-53696428D01*
X84407752Y-53696428D02*
X84445847Y-53734523D01*
X84445847Y-53734523D02*
X84483942Y-53810713D01*
X84483942Y-53810713D02*
X84483942Y-54115475D01*
X84141085Y-53353571D02*
X84102990Y-53315475D01*
X84102990Y-53315475D02*
X84064895Y-53239285D01*
X84064895Y-53239285D02*
X84064895Y-53048809D01*
X84064895Y-53048809D02*
X84102990Y-52972618D01*
X84102990Y-52972618D02*
X84141085Y-52934523D01*
X84141085Y-52934523D02*
X84217276Y-52896428D01*
X84217276Y-52896428D02*
X84293466Y-52896428D01*
X84293466Y-52896428D02*
X84407752Y-52934523D01*
X84407752Y-52934523D02*
X84864895Y-53391666D01*
X84864895Y-53391666D02*
X84864895Y-52896428D01*
X102585714Y-37894895D02*
X102319047Y-37513942D01*
X102128571Y-37894895D02*
X102128571Y-37094895D01*
X102128571Y-37094895D02*
X102433333Y-37094895D01*
X102433333Y-37094895D02*
X102509523Y-37132990D01*
X102509523Y-37132990D02*
X102547618Y-37171085D01*
X102547618Y-37171085D02*
X102585714Y-37247276D01*
X102585714Y-37247276D02*
X102585714Y-37361561D01*
X102585714Y-37361561D02*
X102547618Y-37437752D01*
X102547618Y-37437752D02*
X102509523Y-37475847D01*
X102509523Y-37475847D02*
X102433333Y-37513942D01*
X102433333Y-37513942D02*
X102128571Y-37513942D01*
X103347618Y-37894895D02*
X102890475Y-37894895D01*
X103119047Y-37894895D02*
X103119047Y-37094895D01*
X103119047Y-37094895D02*
X103042856Y-37209180D01*
X103042856Y-37209180D02*
X102966666Y-37285371D01*
X102966666Y-37285371D02*
X102890475Y-37323466D01*
X103614285Y-37094895D02*
X104109523Y-37094895D01*
X104109523Y-37094895D02*
X103842857Y-37399657D01*
X103842857Y-37399657D02*
X103957142Y-37399657D01*
X103957142Y-37399657D02*
X104033333Y-37437752D01*
X104033333Y-37437752D02*
X104071428Y-37475847D01*
X104071428Y-37475847D02*
X104109523Y-37552038D01*
X104109523Y-37552038D02*
X104109523Y-37742514D01*
X104109523Y-37742514D02*
X104071428Y-37818704D01*
X104071428Y-37818704D02*
X104033333Y-37856800D01*
X104033333Y-37856800D02*
X103957142Y-37894895D01*
X103957142Y-37894895D02*
X103728571Y-37894895D01*
X103728571Y-37894895D02*
X103652380Y-37856800D01*
X103652380Y-37856800D02*
X103614285Y-37818704D01*
X182170714Y-142488704D02*
X182132618Y-142526800D01*
X182132618Y-142526800D02*
X182018333Y-142564895D01*
X182018333Y-142564895D02*
X181942142Y-142564895D01*
X181942142Y-142564895D02*
X181827856Y-142526800D01*
X181827856Y-142526800D02*
X181751666Y-142450609D01*
X181751666Y-142450609D02*
X181713571Y-142374419D01*
X181713571Y-142374419D02*
X181675475Y-142222038D01*
X181675475Y-142222038D02*
X181675475Y-142107752D01*
X181675475Y-142107752D02*
X181713571Y-141955371D01*
X181713571Y-141955371D02*
X181751666Y-141879180D01*
X181751666Y-141879180D02*
X181827856Y-141802990D01*
X181827856Y-141802990D02*
X181942142Y-141764895D01*
X181942142Y-141764895D02*
X182018333Y-141764895D01*
X182018333Y-141764895D02*
X182132618Y-141802990D01*
X182132618Y-141802990D02*
X182170714Y-141841085D01*
X182932618Y-142564895D02*
X182475475Y-142564895D01*
X182704047Y-142564895D02*
X182704047Y-141764895D01*
X182704047Y-141764895D02*
X182627856Y-141879180D01*
X182627856Y-141879180D02*
X182551666Y-141955371D01*
X182551666Y-141955371D02*
X182475475Y-141993466D01*
X183313571Y-142564895D02*
X183465952Y-142564895D01*
X183465952Y-142564895D02*
X183542142Y-142526800D01*
X183542142Y-142526800D02*
X183580238Y-142488704D01*
X183580238Y-142488704D02*
X183656428Y-142374419D01*
X183656428Y-142374419D02*
X183694523Y-142222038D01*
X183694523Y-142222038D02*
X183694523Y-141917276D01*
X183694523Y-141917276D02*
X183656428Y-141841085D01*
X183656428Y-141841085D02*
X183618333Y-141802990D01*
X183618333Y-141802990D02*
X183542142Y-141764895D01*
X183542142Y-141764895D02*
X183389761Y-141764895D01*
X183389761Y-141764895D02*
X183313571Y-141802990D01*
X183313571Y-141802990D02*
X183275476Y-141841085D01*
X183275476Y-141841085D02*
X183237380Y-141917276D01*
X183237380Y-141917276D02*
X183237380Y-142107752D01*
X183237380Y-142107752D02*
X183275476Y-142183942D01*
X183275476Y-142183942D02*
X183313571Y-142222038D01*
X183313571Y-142222038D02*
X183389761Y-142260133D01*
X183389761Y-142260133D02*
X183542142Y-142260133D01*
X183542142Y-142260133D02*
X183618333Y-142222038D01*
X183618333Y-142222038D02*
X183656428Y-142183942D01*
X183656428Y-142183942D02*
X183694523Y-142107752D01*
X197414895Y-134609523D02*
X198062514Y-134609523D01*
X198062514Y-134609523D02*
X198138704Y-134571428D01*
X198138704Y-134571428D02*
X198176800Y-134533333D01*
X198176800Y-134533333D02*
X198214895Y-134457142D01*
X198214895Y-134457142D02*
X198214895Y-134304761D01*
X198214895Y-134304761D02*
X198176800Y-134228571D01*
X198176800Y-134228571D02*
X198138704Y-134190476D01*
X198138704Y-134190476D02*
X198062514Y-134152380D01*
X198062514Y-134152380D02*
X197414895Y-134152380D01*
X197491085Y-133809524D02*
X197452990Y-133771428D01*
X197452990Y-133771428D02*
X197414895Y-133695238D01*
X197414895Y-133695238D02*
X197414895Y-133504762D01*
X197414895Y-133504762D02*
X197452990Y-133428571D01*
X197452990Y-133428571D02*
X197491085Y-133390476D01*
X197491085Y-133390476D02*
X197567276Y-133352381D01*
X197567276Y-133352381D02*
X197643466Y-133352381D01*
X197643466Y-133352381D02*
X197757752Y-133390476D01*
X197757752Y-133390476D02*
X198214895Y-133847619D01*
X198214895Y-133847619D02*
X198214895Y-133352381D01*
X163306667Y-124738704D02*
X163268571Y-124776800D01*
X163268571Y-124776800D02*
X163154286Y-124814895D01*
X163154286Y-124814895D02*
X163078095Y-124814895D01*
X163078095Y-124814895D02*
X162963809Y-124776800D01*
X162963809Y-124776800D02*
X162887619Y-124700609D01*
X162887619Y-124700609D02*
X162849524Y-124624419D01*
X162849524Y-124624419D02*
X162811428Y-124472038D01*
X162811428Y-124472038D02*
X162811428Y-124357752D01*
X162811428Y-124357752D02*
X162849524Y-124205371D01*
X162849524Y-124205371D02*
X162887619Y-124129180D01*
X162887619Y-124129180D02*
X162963809Y-124052990D01*
X162963809Y-124052990D02*
X163078095Y-124014895D01*
X163078095Y-124014895D02*
X163154286Y-124014895D01*
X163154286Y-124014895D02*
X163268571Y-124052990D01*
X163268571Y-124052990D02*
X163306667Y-124091085D01*
X163573333Y-124014895D02*
X164068571Y-124014895D01*
X164068571Y-124014895D02*
X163801905Y-124319657D01*
X163801905Y-124319657D02*
X163916190Y-124319657D01*
X163916190Y-124319657D02*
X163992381Y-124357752D01*
X163992381Y-124357752D02*
X164030476Y-124395847D01*
X164030476Y-124395847D02*
X164068571Y-124472038D01*
X164068571Y-124472038D02*
X164068571Y-124662514D01*
X164068571Y-124662514D02*
X164030476Y-124738704D01*
X164030476Y-124738704D02*
X163992381Y-124776800D01*
X163992381Y-124776800D02*
X163916190Y-124814895D01*
X163916190Y-124814895D02*
X163687619Y-124814895D01*
X163687619Y-124814895D02*
X163611428Y-124776800D01*
X163611428Y-124776800D02*
X163573333Y-124738704D01*
X162433333Y-122795847D02*
X162166667Y-122795847D01*
X162166667Y-123214895D02*
X162166667Y-122414895D01*
X162166667Y-122414895D02*
X162547619Y-122414895D01*
X163119047Y-122795847D02*
X163233333Y-122833942D01*
X163233333Y-122833942D02*
X163271428Y-122872038D01*
X163271428Y-122872038D02*
X163309524Y-122948228D01*
X163309524Y-122948228D02*
X163309524Y-123062514D01*
X163309524Y-123062514D02*
X163271428Y-123138704D01*
X163271428Y-123138704D02*
X163233333Y-123176800D01*
X163233333Y-123176800D02*
X163157143Y-123214895D01*
X163157143Y-123214895D02*
X162852381Y-123214895D01*
X162852381Y-123214895D02*
X162852381Y-122414895D01*
X162852381Y-122414895D02*
X163119047Y-122414895D01*
X163119047Y-122414895D02*
X163195238Y-122452990D01*
X163195238Y-122452990D02*
X163233333Y-122491085D01*
X163233333Y-122491085D02*
X163271428Y-122567276D01*
X163271428Y-122567276D02*
X163271428Y-122643466D01*
X163271428Y-122643466D02*
X163233333Y-122719657D01*
X163233333Y-122719657D02*
X163195238Y-122757752D01*
X163195238Y-122757752D02*
X163119047Y-122795847D01*
X163119047Y-122795847D02*
X162852381Y-122795847D01*
X164071428Y-123214895D02*
X163614285Y-123214895D01*
X163842857Y-123214895D02*
X163842857Y-122414895D01*
X163842857Y-122414895D02*
X163766666Y-122529180D01*
X163766666Y-122529180D02*
X163690476Y-122605371D01*
X163690476Y-122605371D02*
X163614285Y-122643466D01*
X122864895Y-45533332D02*
X122483942Y-45799999D01*
X122864895Y-45990475D02*
X122064895Y-45990475D01*
X122064895Y-45990475D02*
X122064895Y-45685713D01*
X122064895Y-45685713D02*
X122102990Y-45609523D01*
X122102990Y-45609523D02*
X122141085Y-45571428D01*
X122141085Y-45571428D02*
X122217276Y-45533332D01*
X122217276Y-45533332D02*
X122331561Y-45533332D01*
X122331561Y-45533332D02*
X122407752Y-45571428D01*
X122407752Y-45571428D02*
X122445847Y-45609523D01*
X122445847Y-45609523D02*
X122483942Y-45685713D01*
X122483942Y-45685713D02*
X122483942Y-45990475D01*
X122407752Y-45076190D02*
X122369657Y-45152380D01*
X122369657Y-45152380D02*
X122331561Y-45190475D01*
X122331561Y-45190475D02*
X122255371Y-45228571D01*
X122255371Y-45228571D02*
X122217276Y-45228571D01*
X122217276Y-45228571D02*
X122141085Y-45190475D01*
X122141085Y-45190475D02*
X122102990Y-45152380D01*
X122102990Y-45152380D02*
X122064895Y-45076190D01*
X122064895Y-45076190D02*
X122064895Y-44923809D01*
X122064895Y-44923809D02*
X122102990Y-44847618D01*
X122102990Y-44847618D02*
X122141085Y-44809523D01*
X122141085Y-44809523D02*
X122217276Y-44771428D01*
X122217276Y-44771428D02*
X122255371Y-44771428D01*
X122255371Y-44771428D02*
X122331561Y-44809523D01*
X122331561Y-44809523D02*
X122369657Y-44847618D01*
X122369657Y-44847618D02*
X122407752Y-44923809D01*
X122407752Y-44923809D02*
X122407752Y-45076190D01*
X122407752Y-45076190D02*
X122445847Y-45152380D01*
X122445847Y-45152380D02*
X122483942Y-45190475D01*
X122483942Y-45190475D02*
X122560133Y-45228571D01*
X122560133Y-45228571D02*
X122712514Y-45228571D01*
X122712514Y-45228571D02*
X122788704Y-45190475D01*
X122788704Y-45190475D02*
X122826800Y-45152380D01*
X122826800Y-45152380D02*
X122864895Y-45076190D01*
X122864895Y-45076190D02*
X122864895Y-44923809D01*
X122864895Y-44923809D02*
X122826800Y-44847618D01*
X122826800Y-44847618D02*
X122788704Y-44809523D01*
X122788704Y-44809523D02*
X122712514Y-44771428D01*
X122712514Y-44771428D02*
X122560133Y-44771428D01*
X122560133Y-44771428D02*
X122483942Y-44809523D01*
X122483942Y-44809523D02*
X122445847Y-44847618D01*
X122445847Y-44847618D02*
X122407752Y-44923809D01*
X132741905Y-27402395D02*
X132475238Y-27021442D01*
X132284762Y-27402395D02*
X132284762Y-26602395D01*
X132284762Y-26602395D02*
X132589524Y-26602395D01*
X132589524Y-26602395D02*
X132665714Y-26640490D01*
X132665714Y-26640490D02*
X132703809Y-26678585D01*
X132703809Y-26678585D02*
X132741905Y-26754776D01*
X132741905Y-26754776D02*
X132741905Y-26869061D01*
X132741905Y-26869061D02*
X132703809Y-26945252D01*
X132703809Y-26945252D02*
X132665714Y-26983347D01*
X132665714Y-26983347D02*
X132589524Y-27021442D01*
X132589524Y-27021442D02*
X132284762Y-27021442D01*
X133503809Y-27402395D02*
X133046666Y-27402395D01*
X133275238Y-27402395D02*
X133275238Y-26602395D01*
X133275238Y-26602395D02*
X133199047Y-26716680D01*
X133199047Y-26716680D02*
X133122857Y-26792871D01*
X133122857Y-26792871D02*
X133046666Y-26830966D01*
X134265714Y-27402395D02*
X133808571Y-27402395D01*
X134037143Y-27402395D02*
X134037143Y-26602395D01*
X134037143Y-26602395D02*
X133960952Y-26716680D01*
X133960952Y-26716680D02*
X133884762Y-26792871D01*
X133884762Y-26792871D02*
X133808571Y-26830966D01*
X171433333Y-124495847D02*
X171166667Y-124495847D01*
X171166667Y-124914895D02*
X171166667Y-124114895D01*
X171166667Y-124114895D02*
X171547619Y-124114895D01*
X172119047Y-124495847D02*
X172233333Y-124533942D01*
X172233333Y-124533942D02*
X172271428Y-124572038D01*
X172271428Y-124572038D02*
X172309524Y-124648228D01*
X172309524Y-124648228D02*
X172309524Y-124762514D01*
X172309524Y-124762514D02*
X172271428Y-124838704D01*
X172271428Y-124838704D02*
X172233333Y-124876800D01*
X172233333Y-124876800D02*
X172157143Y-124914895D01*
X172157143Y-124914895D02*
X171852381Y-124914895D01*
X171852381Y-124914895D02*
X171852381Y-124114895D01*
X171852381Y-124114895D02*
X172119047Y-124114895D01*
X172119047Y-124114895D02*
X172195238Y-124152990D01*
X172195238Y-124152990D02*
X172233333Y-124191085D01*
X172233333Y-124191085D02*
X172271428Y-124267276D01*
X172271428Y-124267276D02*
X172271428Y-124343466D01*
X172271428Y-124343466D02*
X172233333Y-124419657D01*
X172233333Y-124419657D02*
X172195238Y-124457752D01*
X172195238Y-124457752D02*
X172119047Y-124495847D01*
X172119047Y-124495847D02*
X171852381Y-124495847D01*
X172614285Y-124191085D02*
X172652381Y-124152990D01*
X172652381Y-124152990D02*
X172728571Y-124114895D01*
X172728571Y-124114895D02*
X172919047Y-124114895D01*
X172919047Y-124114895D02*
X172995238Y-124152990D01*
X172995238Y-124152990D02*
X173033333Y-124191085D01*
X173033333Y-124191085D02*
X173071428Y-124267276D01*
X173071428Y-124267276D02*
X173071428Y-124343466D01*
X173071428Y-124343466D02*
X173033333Y-124457752D01*
X173033333Y-124457752D02*
X172576190Y-124914895D01*
X172576190Y-124914895D02*
X173071428Y-124914895D01*
X187933333Y-142045847D02*
X187666667Y-142045847D01*
X187666667Y-142464895D02*
X187666667Y-141664895D01*
X187666667Y-141664895D02*
X188047619Y-141664895D01*
X188619047Y-142045847D02*
X188733333Y-142083942D01*
X188733333Y-142083942D02*
X188771428Y-142122038D01*
X188771428Y-142122038D02*
X188809524Y-142198228D01*
X188809524Y-142198228D02*
X188809524Y-142312514D01*
X188809524Y-142312514D02*
X188771428Y-142388704D01*
X188771428Y-142388704D02*
X188733333Y-142426800D01*
X188733333Y-142426800D02*
X188657143Y-142464895D01*
X188657143Y-142464895D02*
X188352381Y-142464895D01*
X188352381Y-142464895D02*
X188352381Y-141664895D01*
X188352381Y-141664895D02*
X188619047Y-141664895D01*
X188619047Y-141664895D02*
X188695238Y-141702990D01*
X188695238Y-141702990D02*
X188733333Y-141741085D01*
X188733333Y-141741085D02*
X188771428Y-141817276D01*
X188771428Y-141817276D02*
X188771428Y-141893466D01*
X188771428Y-141893466D02*
X188733333Y-141969657D01*
X188733333Y-141969657D02*
X188695238Y-142007752D01*
X188695238Y-142007752D02*
X188619047Y-142045847D01*
X188619047Y-142045847D02*
X188352381Y-142045847D01*
X189190476Y-142464895D02*
X189342857Y-142464895D01*
X189342857Y-142464895D02*
X189419047Y-142426800D01*
X189419047Y-142426800D02*
X189457143Y-142388704D01*
X189457143Y-142388704D02*
X189533333Y-142274419D01*
X189533333Y-142274419D02*
X189571428Y-142122038D01*
X189571428Y-142122038D02*
X189571428Y-141817276D01*
X189571428Y-141817276D02*
X189533333Y-141741085D01*
X189533333Y-141741085D02*
X189495238Y-141702990D01*
X189495238Y-141702990D02*
X189419047Y-141664895D01*
X189419047Y-141664895D02*
X189266666Y-141664895D01*
X189266666Y-141664895D02*
X189190476Y-141702990D01*
X189190476Y-141702990D02*
X189152381Y-141741085D01*
X189152381Y-141741085D02*
X189114285Y-141817276D01*
X189114285Y-141817276D02*
X189114285Y-142007752D01*
X189114285Y-142007752D02*
X189152381Y-142083942D01*
X189152381Y-142083942D02*
X189190476Y-142122038D01*
X189190476Y-142122038D02*
X189266666Y-142160133D01*
X189266666Y-142160133D02*
X189419047Y-142160133D01*
X189419047Y-142160133D02*
X189495238Y-142122038D01*
X189495238Y-142122038D02*
X189533333Y-142083942D01*
X189533333Y-142083942D02*
X189571428Y-142007752D01*
D10*
X83213666Y-17418819D02*
X83213666Y-18133104D01*
X83213666Y-18133104D02*
X83166047Y-18275961D01*
X83166047Y-18275961D02*
X83070809Y-18371200D01*
X83070809Y-18371200D02*
X82927952Y-18418819D01*
X82927952Y-18418819D02*
X82832714Y-18418819D01*
X84213666Y-18418819D02*
X83642238Y-18418819D01*
X83927952Y-18418819D02*
X83927952Y-17418819D01*
X83927952Y-17418819D02*
X83832714Y-17561676D01*
X83832714Y-17561676D02*
X83737476Y-17656914D01*
X83737476Y-17656914D02*
X83642238Y-17704533D01*
X88875571Y-38078700D02*
X90018429Y-38078700D01*
X89447000Y-38650128D02*
X89447000Y-37507271D01*
X76575571Y-38078700D02*
X77718429Y-38078700D01*
X194133333Y-143484819D02*
X193800000Y-143008628D01*
X193561905Y-143484819D02*
X193561905Y-142484819D01*
X193561905Y-142484819D02*
X193942857Y-142484819D01*
X193942857Y-142484819D02*
X194038095Y-142532438D01*
X194038095Y-142532438D02*
X194085714Y-142580057D01*
X194085714Y-142580057D02*
X194133333Y-142675295D01*
X194133333Y-142675295D02*
X194133333Y-142818152D01*
X194133333Y-142818152D02*
X194085714Y-142913390D01*
X194085714Y-142913390D02*
X194038095Y-142961009D01*
X194038095Y-142961009D02*
X193942857Y-143008628D01*
X193942857Y-143008628D02*
X193561905Y-143008628D01*
X194990476Y-142484819D02*
X194800000Y-142484819D01*
X194800000Y-142484819D02*
X194704762Y-142532438D01*
X194704762Y-142532438D02*
X194657143Y-142580057D01*
X194657143Y-142580057D02*
X194561905Y-142722914D01*
X194561905Y-142722914D02*
X194514286Y-142913390D01*
X194514286Y-142913390D02*
X194514286Y-143294342D01*
X194514286Y-143294342D02*
X194561905Y-143389580D01*
X194561905Y-143389580D02*
X194609524Y-143437200D01*
X194609524Y-143437200D02*
X194704762Y-143484819D01*
X194704762Y-143484819D02*
X194895238Y-143484819D01*
X194895238Y-143484819D02*
X194990476Y-143437200D01*
X194990476Y-143437200D02*
X195038095Y-143389580D01*
X195038095Y-143389580D02*
X195085714Y-143294342D01*
X195085714Y-143294342D02*
X195085714Y-143056247D01*
X195085714Y-143056247D02*
X195038095Y-142961009D01*
X195038095Y-142961009D02*
X194990476Y-142913390D01*
X194990476Y-142913390D02*
X194895238Y-142865771D01*
X194895238Y-142865771D02*
X194704762Y-142865771D01*
X194704762Y-142865771D02*
X194609524Y-142913390D01*
X194609524Y-142913390D02*
X194561905Y-142961009D01*
X194561905Y-142961009D02*
X194514286Y-143056247D01*
D13*
X127591667Y-27396145D02*
X127325000Y-27015192D01*
X127134524Y-27396145D02*
X127134524Y-26596145D01*
X127134524Y-26596145D02*
X127439286Y-26596145D01*
X127439286Y-26596145D02*
X127515476Y-26634240D01*
X127515476Y-26634240D02*
X127553571Y-26672335D01*
X127553571Y-26672335D02*
X127591667Y-26748526D01*
X127591667Y-26748526D02*
X127591667Y-26862811D01*
X127591667Y-26862811D02*
X127553571Y-26939002D01*
X127553571Y-26939002D02*
X127515476Y-26977097D01*
X127515476Y-26977097D02*
X127439286Y-27015192D01*
X127439286Y-27015192D02*
X127134524Y-27015192D01*
X127972619Y-27396145D02*
X128125000Y-27396145D01*
X128125000Y-27396145D02*
X128201190Y-27358050D01*
X128201190Y-27358050D02*
X128239286Y-27319954D01*
X128239286Y-27319954D02*
X128315476Y-27205669D01*
X128315476Y-27205669D02*
X128353571Y-27053288D01*
X128353571Y-27053288D02*
X128353571Y-26748526D01*
X128353571Y-26748526D02*
X128315476Y-26672335D01*
X128315476Y-26672335D02*
X128277381Y-26634240D01*
X128277381Y-26634240D02*
X128201190Y-26596145D01*
X128201190Y-26596145D02*
X128048809Y-26596145D01*
X128048809Y-26596145D02*
X127972619Y-26634240D01*
X127972619Y-26634240D02*
X127934524Y-26672335D01*
X127934524Y-26672335D02*
X127896428Y-26748526D01*
X127896428Y-26748526D02*
X127896428Y-26939002D01*
X127896428Y-26939002D02*
X127934524Y-27015192D01*
X127934524Y-27015192D02*
X127972619Y-27053288D01*
X127972619Y-27053288D02*
X128048809Y-27091383D01*
X128048809Y-27091383D02*
X128201190Y-27091383D01*
X128201190Y-27091383D02*
X128277381Y-27053288D01*
X128277381Y-27053288D02*
X128315476Y-27015192D01*
X128315476Y-27015192D02*
X128353571Y-26939002D01*
D10*
X83792105Y-41697819D02*
X83792105Y-40697819D01*
X83792105Y-40697819D02*
X84030200Y-40697819D01*
X84030200Y-40697819D02*
X84173057Y-40745438D01*
X84173057Y-40745438D02*
X84268295Y-40840676D01*
X84268295Y-40840676D02*
X84315914Y-40935914D01*
X84315914Y-40935914D02*
X84363533Y-41126390D01*
X84363533Y-41126390D02*
X84363533Y-41269247D01*
X84363533Y-41269247D02*
X84315914Y-41459723D01*
X84315914Y-41459723D02*
X84268295Y-41554961D01*
X84268295Y-41554961D02*
X84173057Y-41650200D01*
X84173057Y-41650200D02*
X84030200Y-41697819D01*
X84030200Y-41697819D02*
X83792105Y-41697819D01*
X85315914Y-41697819D02*
X84744486Y-41697819D01*
X85030200Y-41697819D02*
X85030200Y-40697819D01*
X85030200Y-40697819D02*
X84934962Y-40840676D01*
X84934962Y-40840676D02*
X84839724Y-40935914D01*
X84839724Y-40935914D02*
X84744486Y-40983533D01*
D14*
%TO.C,U3*%
X146870000Y-27420000D02*
X216870000Y-27420000D01*
X216870000Y-27420000D02*
X216870000Y-160760000D01*
X216870000Y-160760000D02*
X146870000Y-160760000D01*
X146870000Y-160760000D02*
X146870000Y-27420000D01*
%TO.C,R15*%
X83522500Y-50962742D02*
X83522500Y-51437258D01*
X82477500Y-50962742D02*
X82477500Y-51437258D01*
%TO.C,C15*%
X198410000Y-129434420D02*
X198410000Y-129715580D01*
X197390000Y-129434420D02*
X197390000Y-129715580D01*
%TO.C,J3*%
X188390000Y-149090000D02*
X188390000Y-161910000D01*
X188390000Y-161910000D02*
X198610000Y-161910000D01*
X189500000Y-154600000D02*
X188390000Y-154600000D01*
X189500000Y-158010000D02*
X189500000Y-154600000D01*
X189500000Y-159610000D02*
X191900000Y-159610000D01*
X189500000Y-161910000D02*
X189500000Y-159610000D01*
X189610000Y-149090000D02*
X188390000Y-149090000D01*
X189610000Y-151990000D02*
X189610000Y-149090000D01*
X189890000Y-151990000D02*
X189610000Y-151990000D01*
X190600000Y-151000000D02*
X191400000Y-151000000D01*
X190600000Y-154600000D02*
X190600000Y-158010000D01*
X190600000Y-158010000D02*
X189500000Y-158010000D01*
X191000000Y-151400000D02*
X190600000Y-151000000D01*
X191100000Y-154600000D02*
X190600000Y-154600000D01*
X191100000Y-159610000D02*
X191100000Y-154600000D01*
X191400000Y-151000000D02*
X191000000Y-151400000D01*
X192700000Y-156000000D02*
X194300000Y-156000000D01*
X192700000Y-157800000D02*
X192700000Y-156000000D01*
X194300000Y-156000000D02*
X194300000Y-157800000D01*
X194300000Y-157800000D02*
X192700000Y-157800000D01*
X195100000Y-159610000D02*
X197500000Y-159610000D01*
X195900000Y-154600000D02*
X196400000Y-154600000D01*
X195900000Y-159610000D02*
X195900000Y-154600000D01*
X196400000Y-154600000D02*
X196400000Y-158010000D01*
X196400000Y-158010000D02*
X197500000Y-158010000D01*
X197390000Y-149090000D02*
X197390000Y-151990000D01*
X197390000Y-151990000D02*
X197110000Y-151990000D01*
X197500000Y-154600000D02*
X198610000Y-154600000D01*
X197500000Y-158010000D02*
X197500000Y-154600000D01*
X197500000Y-159610000D02*
X197500000Y-161910000D01*
X198610000Y-149090000D02*
X197390000Y-149090000D01*
X198610000Y-161910000D02*
X198610000Y-149090000D01*
%TO.C,C5*%
X165940580Y-127960000D02*
X165659420Y-127960000D01*
X165940580Y-126940000D02*
X165659420Y-126940000D01*
%TO.C,for_PG1*%
X97850000Y-25950000D02*
X109350000Y-25950000D01*
X109350000Y-25950000D02*
X109350000Y-33500000D01*
X109350000Y-33500000D02*
X97850000Y-33500000D01*
X97850000Y-33500000D02*
X97850000Y-25950000D01*
%TO.C,C4*%
X165940580Y-126460000D02*
X165659420Y-126460000D01*
X165940580Y-125440000D02*
X165659420Y-125440000D01*
D13*
%TO.C,SW1*%
X127975000Y-41575000D02*
X129425000Y-41575000D01*
X127975000Y-41575000D02*
X127975000Y-31375000D01*
X131625000Y-41575000D02*
X133075000Y-41575000D01*
X133075000Y-41575000D02*
X133075000Y-31375000D01*
X128000000Y-31375000D02*
X129450000Y-31375000D01*
X131600000Y-31375000D02*
X133050000Y-31375000D01*
D14*
%TO.C,R3*%
X169033458Y-127979700D02*
X168558942Y-127979700D01*
X169033458Y-126934700D02*
X168558942Y-126934700D01*
%TO.C,D4*%
X134402500Y-24822500D02*
X134402500Y-26292500D01*
X134402500Y-26292500D02*
X136687500Y-26292500D01*
X136687500Y-24822500D02*
X134402500Y-24822500D01*
%TO.C,D2*%
X128940000Y-24796250D02*
X128940000Y-26266250D01*
X128940000Y-26266250D02*
X131225000Y-26266250D01*
X131225000Y-24796250D02*
X128940000Y-24796250D01*
%TO.C,R14*%
X103237258Y-54122500D02*
X102762742Y-54122500D01*
X103237258Y-53077500D02*
X102762742Y-53077500D01*
%TO.C,D5*%
X133665000Y-43275000D02*
X133665000Y-45275000D01*
X133665000Y-43275000D02*
X137675000Y-43275000D01*
X133665000Y-45275000D02*
X137675000Y-45275000D01*
D13*
%TO.C,SW3*%
X138975000Y-41615000D02*
X140425000Y-41615000D01*
X138975000Y-41615000D02*
X138975000Y-31415000D01*
X142625000Y-41615000D02*
X144075000Y-41615000D01*
X144075000Y-41615000D02*
X144075000Y-31415000D01*
X139000000Y-31415000D02*
X140450000Y-31415000D01*
X142600000Y-31415000D02*
X144050000Y-31415000D01*
D14*
%TO.C,C12*%
X185440580Y-124810000D02*
X185159420Y-124810000D01*
X185440580Y-123790000D02*
X185159420Y-123790000D01*
%TO.C,C7*%
X177890000Y-138715580D02*
X177890000Y-138434420D01*
X178910000Y-138715580D02*
X178910000Y-138434420D01*
%TO.C,C6*%
X178910000Y-129584420D02*
X178910000Y-129865580D01*
X177890000Y-129584420D02*
X177890000Y-129865580D01*
%TO.C,C16*%
X197390000Y-138565580D02*
X197390000Y-138284420D01*
X198410000Y-138565580D02*
X198410000Y-138284420D01*
%TO.C,J4*%
X135907500Y-76875000D02*
X137237500Y-76875000D01*
X135907500Y-78205000D02*
X135907500Y-76875000D01*
X135907500Y-79475000D02*
X135907500Y-127795000D01*
X135907500Y-79475000D02*
X138507500Y-79475000D01*
X135907500Y-127795000D02*
X141107500Y-127795000D01*
X138507500Y-76875000D02*
X141107500Y-76875000D01*
X138507500Y-79475000D02*
X138507500Y-76875000D01*
X141107500Y-76875000D02*
X141107500Y-127795000D01*
%TO.C,D3*%
X140035000Y-24665000D02*
X140035000Y-26135000D01*
X140035000Y-26135000D02*
X142320000Y-26135000D01*
X142320000Y-24665000D02*
X140035000Y-24665000D01*
%TO.C,Q2*%
X77470000Y-61350000D02*
X77470000Y-61080000D01*
X77470000Y-61080000D02*
X80300000Y-61080000D01*
X77470000Y-54720000D02*
X78570000Y-54720000D01*
X77470000Y-54450000D02*
X77470000Y-54720000D01*
X71050000Y-61350000D02*
X77470000Y-61350000D01*
X71050000Y-54450000D02*
X77470000Y-54450000D01*
%TO.C,FB3*%
X179440000Y-130387122D02*
X179440000Y-129587878D01*
X180560000Y-130387122D02*
X180560000Y-129587878D01*
%TO.C,J2*%
X167090000Y-149090000D02*
X167090000Y-161910000D01*
X167090000Y-161910000D02*
X177310000Y-161910000D01*
X168200000Y-154600000D02*
X167090000Y-154600000D01*
X168200000Y-158010000D02*
X168200000Y-154600000D01*
X168200000Y-159610000D02*
X170600000Y-159610000D01*
X168200000Y-161910000D02*
X168200000Y-159610000D01*
X168310000Y-149090000D02*
X167090000Y-149090000D01*
X168310000Y-151990000D02*
X168310000Y-149090000D01*
X168590000Y-151990000D02*
X168310000Y-151990000D01*
X169300000Y-151000000D02*
X170100000Y-151000000D01*
X169300000Y-154600000D02*
X169300000Y-158010000D01*
X169300000Y-158010000D02*
X168200000Y-158010000D01*
X169700000Y-151400000D02*
X169300000Y-151000000D01*
X169800000Y-154600000D02*
X169300000Y-154600000D01*
X169800000Y-159610000D02*
X169800000Y-154600000D01*
X170100000Y-151000000D02*
X169700000Y-151400000D01*
X171400000Y-156000000D02*
X173000000Y-156000000D01*
X171400000Y-157800000D02*
X171400000Y-156000000D01*
X173000000Y-156000000D02*
X173000000Y-157800000D01*
X173000000Y-157800000D02*
X171400000Y-157800000D01*
X173800000Y-159610000D02*
X176200000Y-159610000D01*
X174600000Y-154600000D02*
X175100000Y-154600000D01*
X174600000Y-159610000D02*
X174600000Y-154600000D01*
X175100000Y-154600000D02*
X175100000Y-158010000D01*
X175100000Y-158010000D02*
X176200000Y-158010000D01*
X176090000Y-149090000D02*
X176090000Y-151990000D01*
X176090000Y-151990000D02*
X175810000Y-151990000D01*
X176200000Y-154600000D02*
X177310000Y-154600000D01*
X176200000Y-158010000D02*
X176200000Y-154600000D01*
X176200000Y-159610000D02*
X176200000Y-161910000D01*
X177310000Y-149090000D02*
X176090000Y-149090000D01*
X177310000Y-161910000D02*
X177310000Y-149090000D01*
%TO.C,C2*%
X82010000Y-51059420D02*
X82010000Y-51340580D01*
X80990000Y-51059420D02*
X80990000Y-51340580D01*
%TO.C,FB7*%
X188962122Y-124960000D02*
X188162878Y-124960000D01*
X188962122Y-123840000D02*
X188162878Y-123840000D01*
%TO.C,FB8*%
X198940000Y-130237122D02*
X198940000Y-129437878D01*
X200060000Y-130237122D02*
X200060000Y-129437878D01*
%TO.C,R7*%
X121722500Y-48262742D02*
X121722500Y-48737258D01*
X120677500Y-48262742D02*
X120677500Y-48737258D01*
%TO.C,R4*%
X175037258Y-142272500D02*
X174562742Y-142272500D01*
X175037258Y-141227500D02*
X174562742Y-141227500D01*
%TO.C,U1*%
X177510000Y-130290000D02*
X177275000Y-130290000D01*
X177275000Y-130290000D02*
X177275000Y-128475000D01*
X164490000Y-130290000D02*
X164725000Y-130290000D01*
X177510000Y-134150000D02*
X177510000Y-130290000D01*
X177510000Y-134150000D02*
X177510000Y-138010000D01*
X164490000Y-134150000D02*
X164490000Y-130290000D01*
X164490000Y-134150000D02*
X164490000Y-138010000D01*
X177510000Y-138010000D02*
X177275000Y-138010000D01*
X164490000Y-138010000D02*
X164725000Y-138010000D01*
%TO.C,to_STM1*%
X97850000Y-34400000D02*
X126350000Y-34400000D01*
X126350000Y-34400000D02*
X126350000Y-50400000D01*
X126350000Y-50400000D02*
X97850000Y-50400000D01*
X97850000Y-50400000D02*
X97850000Y-34400000D01*
%TO.C,C18*%
X198890000Y-138565580D02*
X198890000Y-138284420D01*
X199910000Y-138565580D02*
X199910000Y-138284420D01*
%TO.C,R10*%
X141262742Y-26377500D02*
X141737258Y-26377500D01*
X141262742Y-27422500D02*
X141737258Y-27422500D01*
%TO.C,to_RPI1*%
X97850000Y-52000000D02*
X126350000Y-52000000D01*
X126350000Y-52000000D02*
X126350000Y-68000000D01*
X126350000Y-68000000D02*
X97850000Y-68000000D01*
X97850000Y-68000000D02*
X97850000Y-52000000D01*
%TO.C,C20*%
X185440580Y-144210000D02*
X185159420Y-144210000D01*
X185440580Y-143190000D02*
X185159420Y-143190000D01*
%TO.C,R12*%
X85477500Y-54237258D02*
X85477500Y-53762742D01*
X86522500Y-54237258D02*
X86522500Y-53762742D01*
%TO.C,C10*%
X165940580Y-142860000D02*
X165659420Y-142860000D01*
X165940580Y-141840000D02*
X165659420Y-141840000D01*
%TO.C,R1*%
X81762742Y-45977500D02*
X82237258Y-45977500D01*
X81762742Y-47022500D02*
X82237258Y-47022500D01*
%TO.C,FB5*%
X165662878Y-144890000D02*
X166462122Y-144890000D01*
X165662878Y-146010000D02*
X166462122Y-146010000D01*
%TO.C,C14*%
X185440580Y-127810000D02*
X185159420Y-127810000D01*
X185440580Y-126790000D02*
X185159420Y-126790000D01*
%TO.C,FB6*%
X185962122Y-123260000D02*
X185162878Y-123260000D01*
X185962122Y-122140000D02*
X185162878Y-122140000D01*
%TO.C,FB10*%
X185162878Y-144740000D02*
X185962122Y-144740000D01*
X185162878Y-145860000D02*
X185962122Y-145860000D01*
%TO.C,FB4*%
X168662878Y-143190000D02*
X169462122Y-143190000D01*
X168662878Y-144310000D02*
X169462122Y-144310000D01*
%TO.C,Q1*%
X77470000Y-54350000D02*
X77470000Y-54080000D01*
X77470000Y-54080000D02*
X80300000Y-54080000D01*
X77470000Y-47720000D02*
X78570000Y-47720000D01*
X77470000Y-47450000D02*
X77470000Y-47720000D01*
X71050000Y-54350000D02*
X77470000Y-54350000D01*
X71050000Y-47450000D02*
X77470000Y-47450000D01*
%TO.C,C9*%
X179390000Y-138715580D02*
X179390000Y-138434420D01*
X180410000Y-138715580D02*
X180410000Y-138434420D01*
%TO.C,C17*%
X185440580Y-141210000D02*
X185159420Y-141210000D01*
X185440580Y-140190000D02*
X185159420Y-140190000D01*
%TO.C,C8*%
X165940580Y-141360000D02*
X165659420Y-141360000D01*
X165940580Y-140340000D02*
X165659420Y-140340000D01*
%TO.C,U4*%
X118085000Y-48860000D02*
X118085000Y-48140000D01*
X118085000Y-48140000D02*
X120125000Y-48140000D01*
X118085000Y-36140000D02*
X118085000Y-36860000D01*
X114475000Y-48860000D02*
X118085000Y-48860000D01*
X114475000Y-48860000D02*
X110865000Y-48860000D01*
X114475000Y-36140000D02*
X118085000Y-36140000D01*
X114475000Y-36140000D02*
X110865000Y-36140000D01*
X110865000Y-48860000D02*
X110865000Y-48140000D01*
X110865000Y-36140000D02*
X110865000Y-36860000D01*
%TO.C,R5*%
X188527458Y-127852700D02*
X188052942Y-127852700D01*
X188527458Y-126807700D02*
X188052942Y-126807700D01*
D13*
%TO.C,SW2*%
X133475000Y-41575000D02*
X134925000Y-41575000D01*
X133475000Y-41575000D02*
X133475000Y-31375000D01*
X137125000Y-41575000D02*
X138575000Y-41575000D01*
X138575000Y-41575000D02*
X138575000Y-31375000D01*
X133500000Y-31375000D02*
X134950000Y-31375000D01*
X137100000Y-31375000D02*
X138550000Y-31375000D01*
D14*
%TO.C,C13*%
X185440580Y-126310000D02*
X185159420Y-126310000D01*
X185440580Y-125290000D02*
X185159420Y-125290000D01*
%TO.C,C11*%
X165940580Y-144360000D02*
X165659420Y-144360000D01*
X165940580Y-143340000D02*
X165659420Y-143340000D01*
%TO.C,C1*%
X81355759Y-57597000D02*
X81985759Y-57597000D01*
X81670759Y-57282000D02*
X81670759Y-57912000D01*
X84856000Y-56206000D02*
X84856000Y-62666000D01*
X84896000Y-56206000D02*
X84896000Y-62666000D01*
X84936000Y-56206000D02*
X84936000Y-62666000D01*
X84976000Y-56208000D02*
X84976000Y-62664000D01*
X85016000Y-56209000D02*
X85016000Y-62663000D01*
X85056000Y-56212000D02*
X85056000Y-62660000D01*
X85096000Y-56214000D02*
X85096000Y-58396000D01*
X85096000Y-60476000D02*
X85096000Y-62658000D01*
X85136000Y-56218000D02*
X85136000Y-58396000D01*
X85136000Y-60476000D02*
X85136000Y-62654000D01*
X85176000Y-56221000D02*
X85176000Y-58396000D01*
X85176000Y-60476000D02*
X85176000Y-62651000D01*
X85216000Y-56225000D02*
X85216000Y-58396000D01*
X85216000Y-60476000D02*
X85216000Y-62647000D01*
X85256000Y-56230000D02*
X85256000Y-58396000D01*
X85256000Y-60476000D02*
X85256000Y-62642000D01*
X85296000Y-56235000D02*
X85296000Y-58396000D01*
X85296000Y-60476000D02*
X85296000Y-62637000D01*
X85336000Y-56241000D02*
X85336000Y-58396000D01*
X85336000Y-60476000D02*
X85336000Y-62631000D01*
X85376000Y-56247000D02*
X85376000Y-58396000D01*
X85376000Y-60476000D02*
X85376000Y-62625000D01*
X85416000Y-56254000D02*
X85416000Y-58396000D01*
X85416000Y-60476000D02*
X85416000Y-62618000D01*
X85456000Y-56261000D02*
X85456000Y-58396000D01*
X85456000Y-60476000D02*
X85456000Y-62611000D01*
X85496000Y-56269000D02*
X85496000Y-58396000D01*
X85496000Y-60476000D02*
X85496000Y-62603000D01*
X85536000Y-56277000D02*
X85536000Y-58396000D01*
X85536000Y-60476000D02*
X85536000Y-62595000D01*
X85577000Y-56286000D02*
X85577000Y-58396000D01*
X85577000Y-60476000D02*
X85577000Y-62586000D01*
X85617000Y-56295000D02*
X85617000Y-58396000D01*
X85617000Y-60476000D02*
X85617000Y-62577000D01*
X85657000Y-56305000D02*
X85657000Y-58396000D01*
X85657000Y-60476000D02*
X85657000Y-62567000D01*
X85697000Y-56315000D02*
X85697000Y-58396000D01*
X85697000Y-60476000D02*
X85697000Y-62557000D01*
X85737000Y-56326000D02*
X85737000Y-58396000D01*
X85737000Y-60476000D02*
X85737000Y-62546000D01*
X85777000Y-56338000D02*
X85777000Y-58396000D01*
X85777000Y-60476000D02*
X85777000Y-62534000D01*
X85817000Y-56350000D02*
X85817000Y-58396000D01*
X85817000Y-60476000D02*
X85817000Y-62522000D01*
X85857000Y-56362000D02*
X85857000Y-58396000D01*
X85857000Y-60476000D02*
X85857000Y-62510000D01*
X85897000Y-56375000D02*
X85897000Y-58396000D01*
X85897000Y-60476000D02*
X85897000Y-62497000D01*
X85937000Y-56389000D02*
X85937000Y-58396000D01*
X85937000Y-60476000D02*
X85937000Y-62483000D01*
X85977000Y-56403000D02*
X85977000Y-58396000D01*
X85977000Y-60476000D02*
X85977000Y-62469000D01*
X86017000Y-56418000D02*
X86017000Y-58396000D01*
X86017000Y-60476000D02*
X86017000Y-62454000D01*
X86057000Y-56434000D02*
X86057000Y-58396000D01*
X86057000Y-60476000D02*
X86057000Y-62438000D01*
X86097000Y-56450000D02*
X86097000Y-58396000D01*
X86097000Y-60476000D02*
X86097000Y-62422000D01*
X86137000Y-56466000D02*
X86137000Y-58396000D01*
X86137000Y-60476000D02*
X86137000Y-62406000D01*
X86177000Y-56484000D02*
X86177000Y-58396000D01*
X86177000Y-60476000D02*
X86177000Y-62388000D01*
X86217000Y-56502000D02*
X86217000Y-58396000D01*
X86217000Y-60476000D02*
X86217000Y-62370000D01*
X86257000Y-56520000D02*
X86257000Y-58396000D01*
X86257000Y-60476000D02*
X86257000Y-62352000D01*
X86297000Y-56540000D02*
X86297000Y-58396000D01*
X86297000Y-60476000D02*
X86297000Y-62332000D01*
X86337000Y-56560000D02*
X86337000Y-58396000D01*
X86337000Y-60476000D02*
X86337000Y-62312000D01*
X86377000Y-56580000D02*
X86377000Y-58396000D01*
X86377000Y-60476000D02*
X86377000Y-62292000D01*
X86417000Y-56602000D02*
X86417000Y-58396000D01*
X86417000Y-60476000D02*
X86417000Y-62270000D01*
X86457000Y-56624000D02*
X86457000Y-58396000D01*
X86457000Y-60476000D02*
X86457000Y-62248000D01*
X86497000Y-56646000D02*
X86497000Y-58396000D01*
X86497000Y-60476000D02*
X86497000Y-62226000D01*
X86537000Y-56670000D02*
X86537000Y-58396000D01*
X86537000Y-60476000D02*
X86537000Y-62202000D01*
X86577000Y-56694000D02*
X86577000Y-58396000D01*
X86577000Y-60476000D02*
X86577000Y-62178000D01*
X86617000Y-56720000D02*
X86617000Y-58396000D01*
X86617000Y-60476000D02*
X86617000Y-62152000D01*
X86657000Y-56746000D02*
X86657000Y-58396000D01*
X86657000Y-60476000D02*
X86657000Y-62126000D01*
X86697000Y-56772000D02*
X86697000Y-58396000D01*
X86697000Y-60476000D02*
X86697000Y-62100000D01*
X86737000Y-56800000D02*
X86737000Y-58396000D01*
X86737000Y-60476000D02*
X86737000Y-62072000D01*
X86777000Y-56829000D02*
X86777000Y-58396000D01*
X86777000Y-60476000D02*
X86777000Y-62043000D01*
X86817000Y-56858000D02*
X86817000Y-58396000D01*
X86817000Y-60476000D02*
X86817000Y-62014000D01*
X86857000Y-56888000D02*
X86857000Y-58396000D01*
X86857000Y-60476000D02*
X86857000Y-61984000D01*
X86897000Y-56920000D02*
X86897000Y-58396000D01*
X86897000Y-60476000D02*
X86897000Y-61952000D01*
X86937000Y-56952000D02*
X86937000Y-58396000D01*
X86937000Y-60476000D02*
X86937000Y-61920000D01*
X86977000Y-56986000D02*
X86977000Y-58396000D01*
X86977000Y-60476000D02*
X86977000Y-61886000D01*
X87017000Y-57020000D02*
X87017000Y-58396000D01*
X87017000Y-60476000D02*
X87017000Y-61852000D01*
X87057000Y-57056000D02*
X87057000Y-58396000D01*
X87057000Y-60476000D02*
X87057000Y-61816000D01*
X87097000Y-57093000D02*
X87097000Y-58396000D01*
X87097000Y-60476000D02*
X87097000Y-61779000D01*
X87137000Y-57131000D02*
X87137000Y-58396000D01*
X87137000Y-60476000D02*
X87137000Y-61741000D01*
X87177000Y-57171000D02*
X87177000Y-61701000D01*
X87217000Y-57212000D02*
X87217000Y-61660000D01*
X87257000Y-57254000D02*
X87257000Y-61618000D01*
X87297000Y-57299000D02*
X87297000Y-61573000D01*
X87337000Y-57344000D02*
X87337000Y-61528000D01*
X87377000Y-57392000D02*
X87377000Y-61480000D01*
X87417000Y-57441000D02*
X87417000Y-61431000D01*
X87457000Y-57492000D02*
X87457000Y-61380000D01*
X87497000Y-57546000D02*
X87497000Y-61326000D01*
X87537000Y-57602000D02*
X87537000Y-61270000D01*
X87577000Y-57660000D02*
X87577000Y-61212000D01*
X87617000Y-57722000D02*
X87617000Y-61150000D01*
X87657000Y-57786000D02*
X87657000Y-61086000D01*
X87697000Y-57855000D02*
X87697000Y-61017000D01*
X87737000Y-57927000D02*
X87737000Y-60945000D01*
X87777000Y-58004000D02*
X87777000Y-60868000D01*
X87817000Y-58086000D02*
X87817000Y-60786000D01*
X87857000Y-58174000D02*
X87857000Y-60698000D01*
X87897000Y-58271000D02*
X87897000Y-60601000D01*
X87937000Y-58377000D02*
X87937000Y-60495000D01*
X87977000Y-58496000D02*
X87977000Y-60376000D01*
X88017000Y-58634000D02*
X88017000Y-60238000D01*
X88057000Y-58803000D02*
X88057000Y-60069000D01*
X88097000Y-59034000D02*
X88097000Y-59838000D01*
X88126000Y-59436000D02*
G75*
G03*
X81586000Y-59436000I-3270000J0D01*
G01*
X81586000Y-59436000D02*
G75*
G03*
X88126000Y-59436000I3270000J0D01*
G01*
%TO.C,R2*%
X83977500Y-51437258D02*
X83977500Y-50962742D01*
X85022500Y-51437258D02*
X85022500Y-50962742D01*
%TO.C,R13*%
X103337258Y-36622500D02*
X102862742Y-36622500D01*
X103337258Y-35577500D02*
X102862742Y-35577500D01*
%TO.C,C19*%
X185440580Y-142710000D02*
X185159420Y-142710000D01*
X185440580Y-141690000D02*
X185159420Y-141690000D01*
%TO.C,U2*%
X197010000Y-130140000D02*
X196775000Y-130140000D01*
X196775000Y-130140000D02*
X196775000Y-128325000D01*
X183990000Y-130140000D02*
X184225000Y-130140000D01*
X197010000Y-134000000D02*
X197010000Y-130140000D01*
X197010000Y-134000000D02*
X197010000Y-137860000D01*
X183990000Y-134000000D02*
X183990000Y-130140000D01*
X183990000Y-134000000D02*
X183990000Y-137860000D01*
X197010000Y-137860000D02*
X196775000Y-137860000D01*
X183990000Y-137860000D02*
X184225000Y-137860000D01*
%TO.C,C3*%
X165940580Y-124960000D02*
X165659420Y-124960000D01*
X165940580Y-123940000D02*
X165659420Y-123940000D01*
%TO.C,FB1*%
X166462122Y-123410000D02*
X165662878Y-123410000D01*
X166462122Y-122290000D02*
X165662878Y-122290000D01*
%TO.C,R8*%
X120677500Y-45637258D02*
X120677500Y-45162742D01*
X121722500Y-45637258D02*
X121722500Y-45162742D01*
%TO.C,R11*%
X135630242Y-26535000D02*
X136104758Y-26535000D01*
X135630242Y-27580000D02*
X136104758Y-27580000D01*
%TO.C,FB2*%
X169437122Y-125110000D02*
X168637878Y-125110000D01*
X169437122Y-123990000D02*
X168637878Y-123990000D01*
%TO.C,FB9*%
X188162878Y-143040000D02*
X188962122Y-143040000D01*
X188162878Y-144160000D02*
X188962122Y-144160000D01*
%TO.C,J1*%
X75687000Y-19004000D02*
X75687000Y-33314000D01*
X75687000Y-19004000D02*
X91407000Y-19004000D01*
X82257000Y-37424000D02*
X85997000Y-37424000D01*
X91407000Y-19004000D02*
X91407000Y-33314000D01*
X75687001Y-33314000D02*
G75*
G03*
X77680194Y-36836957I4109998J-1D01*
G01*
X88498648Y-37244413D02*
G75*
G03*
X91407000Y-33314000I-1201648J3930413D01*
G01*
%TO.C,R6*%
X194537258Y-142122500D02*
X194062742Y-142122500D01*
X194537258Y-141077500D02*
X194062742Y-141077500D01*
%TO.C,R9*%
X130167742Y-26508750D02*
X130642258Y-26508750D01*
X130167742Y-27553750D02*
X130642258Y-27553750D01*
%TO.C,D1*%
X86890200Y-40243000D02*
X86890200Y-38243000D01*
X86890200Y-40243000D02*
X82880200Y-40243000D01*
X86890200Y-38243000D02*
X82880200Y-38243000D01*
%TD*%
M02*
