%TF.GenerationSoftware,KiCad,Pcbnew,7.0.11-rc3*%
%TF.CreationDate,2025-03-25T15:56:03+09:00*%
%TF.ProjectId,RDC_Humanoid_Power_Relay_Switch,5244435f-4875-46d6-916e-6f69645f506f,rev?*%
%TF.SameCoordinates,Original*%
%TF.FileFunction,Copper,L1,Top*%
%TF.FilePolarity,Positive*%
%FSLAX46Y46*%
G04 Gerber Fmt 4.6, Leading zero omitted, Abs format (unit mm)*
G04 Created by KiCad (PCBNEW 7.0.11-rc3) date 2025-03-25 15:56:03*
%MOMM*%
%LPD*%
G01*
G04 APERTURE LIST*
G04 Aperture macros list*
%AMRoundRect*
0 Rectangle with rounded corners*
0 $1 Rounding radius*
0 $2 $3 $4 $5 $6 $7 $8 $9 X,Y pos of 4 corners*
0 Add a 4 corners polygon primitive as box body*
4,1,4,$2,$3,$4,$5,$6,$7,$8,$9,$2,$3,0*
0 Add four circle primitives for the rounded corners*
1,1,$1+$1,$2,$3*
1,1,$1+$1,$4,$5*
1,1,$1+$1,$6,$7*
1,1,$1+$1,$8,$9*
0 Add four rect primitives between the rounded corners*
20,1,$1+$1,$2,$3,$4,$5,0*
20,1,$1+$1,$4,$5,$6,$7,0*
20,1,$1+$1,$6,$7,$8,$9,0*
20,1,$1+$1,$8,$9,$2,$3,0*%
G04 Aperture macros list end*
%TA.AperFunction,ComponentPad*%
%ADD10RoundRect,0.250000X-0.600000X-0.725000X0.600000X-0.725000X0.600000X0.725000X-0.600000X0.725000X0*%
%TD*%
%TA.AperFunction,ComponentPad*%
%ADD11O,1.700000X1.950000*%
%TD*%
%TA.AperFunction,SMDPad,CuDef*%
%ADD12RoundRect,0.200000X-0.200000X-0.275000X0.200000X-0.275000X0.200000X0.275000X-0.200000X0.275000X0*%
%TD*%
%TA.AperFunction,ComponentPad*%
%ADD13RoundRect,0.250000X0.725000X-0.600000X0.725000X0.600000X-0.725000X0.600000X-0.725000X-0.600000X0*%
%TD*%
%TA.AperFunction,ComponentPad*%
%ADD14O,1.950000X1.700000*%
%TD*%
%TA.AperFunction,ComponentPad*%
%ADD15R,0.900000X2.000000*%
%TD*%
%TA.AperFunction,ComponentPad*%
%ADD16RoundRect,1.025000X-1.025000X-1.025000X1.025000X-1.025000X1.025000X1.025000X-1.025000X1.025000X0*%
%TD*%
%TA.AperFunction,ComponentPad*%
%ADD17C,4.100000*%
%TD*%
%TA.AperFunction,SMDPad,CuDef*%
%ADD18RoundRect,0.225000X0.225000X0.375000X-0.225000X0.375000X-0.225000X-0.375000X0.225000X-0.375000X0*%
%TD*%
%TA.AperFunction,ComponentPad*%
%ADD19R,2.000000X1.905000*%
%TD*%
%TA.AperFunction,ComponentPad*%
%ADD20O,2.000000X1.905000*%
%TD*%
%TA.AperFunction,SMDPad,CuDef*%
%ADD21RoundRect,0.200000X0.200000X0.275000X-0.200000X0.275000X-0.200000X-0.275000X0.200000X-0.275000X0*%
%TD*%
%TA.AperFunction,SMDPad,CuDef*%
%ADD22RoundRect,0.112500X-0.187500X-0.112500X0.187500X-0.112500X0.187500X0.112500X-0.187500X0.112500X0*%
%TD*%
%TA.AperFunction,ViaPad*%
%ADD23C,0.600000*%
%TD*%
%TA.AperFunction,Conductor*%
%ADD24C,1.000000*%
%TD*%
%TA.AperFunction,Conductor*%
%ADD25C,0.200000*%
%TD*%
G04 APERTURE END LIST*
D10*
%TO.P,J3,1,Pin_1*%
%TO.N,Net-(D2-K)*%
X53340000Y-59690000D03*
D11*
%TO.P,J3,2,Pin_2*%
%TO.N,unconnected-(J3-Pin_2-Pad2)*%
X55840000Y-59690000D03*
%TO.P,J3,3,Pin_3*%
%TO.N,+12V*%
X58340000Y-59690000D03*
%TD*%
D12*
%TO.P,R1,1*%
%TO.N,Net-(J2-Pin_1)*%
X62288800Y-53797200D03*
%TO.P,R1,2*%
%TO.N,Net-(Q1-G)*%
X63938800Y-53797200D03*
%TD*%
D13*
%TO.P,J2,1,Pin_1*%
%TO.N,Net-(J2-Pin_1)*%
X70125000Y-48798800D03*
D14*
%TO.P,J2,2,Pin_2*%
%TO.N,+12V*%
X70125000Y-46298800D03*
%TD*%
D15*
%TO.P,J1,*%
%TO.N,*%
X50120600Y-39859600D03*
X63620600Y-39859600D03*
D16*
%TO.P,J1,1,Pin_1*%
%TO.N,GND*%
X53270600Y-45859600D03*
D17*
%TO.P,J1,2,Pin_2*%
%TO.N,+12V*%
X60470600Y-45859600D03*
%TD*%
D18*
%TO.P,D1,1,K*%
%TO.N,+12V*%
X59815000Y-53949600D03*
%TO.P,D1,2,A*%
%TO.N,Net-(D1-A)*%
X56515000Y-53949600D03*
%TD*%
D19*
%TO.P,Q1,1,G*%
%TO.N,Net-(Q1-G)*%
X66136400Y-55778400D03*
D20*
%TO.P,Q1,2,D*%
%TO.N,Net-(D2-K)*%
X66136400Y-58318400D03*
%TO.P,Q1,3,S*%
%TO.N,GND*%
X66136400Y-60858400D03*
%TD*%
D21*
%TO.P,R2,1*%
%TO.N,Net-(Q1-G)*%
X63938800Y-56794400D03*
%TO.P,R2,2*%
%TO.N,GND*%
X62288800Y-56794400D03*
%TD*%
D22*
%TO.P,D2,1,K*%
%TO.N,Net-(D2-K)*%
X53128200Y-54102000D03*
%TO.P,D2,2,A*%
%TO.N,Net-(D1-A)*%
X55228200Y-54102000D03*
%TD*%
D23*
%TO.N,GND*%
X69977000Y-59817000D03*
X49606200Y-53467000D03*
X67564000Y-41503600D03*
X52070000Y-61595000D03*
X56896000Y-55118000D03*
X63246000Y-50800000D03*
X73152000Y-44958000D03*
X67564000Y-53848000D03*
X76708000Y-42164000D03*
X42418000Y-53848000D03*
X47498000Y-34798000D03*
X76962000Y-55880000D03*
X46736000Y-56134000D03*
X56337200Y-56540400D03*
X65786000Y-48260000D03*
X47752000Y-42164000D03*
X68326000Y-37846000D03*
X39370000Y-45974000D03*
X61214000Y-59690000D03*
X47421800Y-50825400D03*
X78232000Y-40386000D03*
X39370000Y-41656000D03*
X61214000Y-53086000D03*
X47752000Y-65532000D03*
X78232000Y-57912000D03*
X55626000Y-34798000D03*
X67564000Y-50292000D03*
X56896000Y-46736000D03*
X78105000Y-49530000D03*
X58420000Y-66040000D03*
X39116000Y-51054000D03*
X63246000Y-48260000D03*
X65024000Y-59690000D03*
X54356000Y-54864000D03*
X51562000Y-34798000D03*
X62738000Y-55118000D03*
X42672000Y-48514000D03*
X73406000Y-53594000D03*
X53594000Y-65786000D03*
X56896000Y-52578000D03*
X62992000Y-66040000D03*
X54508400Y-56743600D03*
X64008000Y-42418000D03*
X59944000Y-34798000D03*
X56896000Y-42164000D03*
X42418000Y-57912000D03*
X73914000Y-55626000D03*
X55626000Y-37592000D03*
X63754000Y-34798000D03*
X43510200Y-43510200D03*
X68072000Y-34798000D03*
X57658000Y-63500000D03*
X47523400Y-46380400D03*
X47752000Y-37338000D03*
X72390000Y-50292000D03*
X54102000Y-53340000D03*
X55626000Y-61468000D03*
X60198000Y-38100000D03*
X63754000Y-37846000D03*
X71374000Y-56134000D03*
X62738000Y-63500000D03*
X53848000Y-63500000D03*
X61722000Y-56388000D03*
X53086000Y-41402000D03*
X74676000Y-57658000D03*
X61214000Y-54356000D03*
X39116000Y-56896000D03*
X78105000Y-45720000D03*
X65024000Y-52832000D03*
X67564000Y-63246000D03*
X67564000Y-57404000D03*
X78105000Y-53340000D03*
X49530000Y-63500000D03*
X67310000Y-66040000D03*
X51816000Y-37592000D03*
X72390000Y-42418000D03*
X46990000Y-60960000D03*
X52070000Y-57785000D03*
X76200000Y-53594000D03*
X53086000Y-50292000D03*
X71882000Y-65532000D03*
%TD*%
D24*
%TO.N,Net-(D2-K)*%
X53340000Y-54313800D02*
X53128200Y-54102000D01*
X53340000Y-59690000D02*
X53340000Y-54313800D01*
D25*
%TO.N,Net-(D1-A)*%
X56362600Y-54102000D02*
X56515000Y-53949600D01*
D24*
X55228200Y-54102000D02*
X56362600Y-54102000D01*
%TO.N,GND*%
X62128400Y-56794400D02*
X61722000Y-56388000D01*
X62288800Y-56794400D02*
X62128400Y-56794400D01*
%TO.N,Net-(J2-Pin_1)*%
X70125000Y-48798800D02*
X67025200Y-48798800D01*
X62288800Y-53535200D02*
X62288800Y-53797200D01*
X67025200Y-48798800D02*
X62288800Y-53535200D01*
%TO.N,Net-(Q1-G)*%
X66136400Y-55778400D02*
X64040400Y-55778400D01*
X63938800Y-55880000D02*
X63938800Y-56794400D01*
X63938800Y-53797200D02*
X63938800Y-55880000D01*
D25*
X64040400Y-55778400D02*
X63938800Y-55880000D01*
%TD*%
%TA.AperFunction,Conductor*%
%TO.N,+12V*%
G36*
X63781848Y-43186958D02*
G01*
X63828745Y-43203368D01*
X63828750Y-43203369D01*
X64007996Y-43223565D01*
X64008000Y-43223565D01*
X64008004Y-43223565D01*
X64187249Y-43203369D01*
X64187252Y-43203368D01*
X64187255Y-43203368D01*
X64234152Y-43186957D01*
X64275107Y-43180000D01*
X71402400Y-43180000D01*
X71469439Y-43199685D01*
X71515194Y-43252489D01*
X71526400Y-43304000D01*
X71526400Y-47374000D01*
X71506715Y-47441039D01*
X71453911Y-47486794D01*
X71402400Y-47498000D01*
X71141102Y-47498000D01*
X71102099Y-47491706D01*
X71002800Y-47458802D01*
X71002797Y-47458801D01*
X71002792Y-47458800D01*
X71002790Y-47458800D01*
X70900010Y-47448300D01*
X69349998Y-47448300D01*
X69349981Y-47448301D01*
X69247203Y-47458800D01*
X69247200Y-47458801D01*
X69147902Y-47491706D01*
X69108898Y-47498000D01*
X66053107Y-47498000D01*
X66012152Y-47491042D01*
X65965254Y-47474631D01*
X65965249Y-47474630D01*
X65786004Y-47454435D01*
X65785996Y-47454435D01*
X65606750Y-47474630D01*
X65606745Y-47474631D01*
X65559848Y-47491042D01*
X65518893Y-47498000D01*
X63513107Y-47498000D01*
X63472152Y-47491042D01*
X63425254Y-47474631D01*
X63425249Y-47474630D01*
X63246004Y-47454435D01*
X63245996Y-47454435D01*
X63066750Y-47474630D01*
X63066745Y-47474631D01*
X63019848Y-47491042D01*
X62978893Y-47498000D01*
X62865000Y-47498000D01*
X62864999Y-47498000D01*
X62864998Y-47498001D01*
X62840689Y-47547447D01*
X62795386Y-47597730D01*
X62743738Y-47630183D01*
X62616184Y-47757737D01*
X62520211Y-47910476D01*
X62460631Y-48080745D01*
X62460630Y-48080750D01*
X62440435Y-48259996D01*
X62440435Y-48260003D01*
X62445687Y-48306618D01*
X62433746Y-48375208D01*
X60629800Y-52044598D01*
X60629800Y-52486760D01*
X60610115Y-52553799D01*
X60593481Y-52574441D01*
X60584184Y-52583737D01*
X60488211Y-52736476D01*
X60428631Y-52906745D01*
X60428630Y-52906750D01*
X60408435Y-53085996D01*
X60408435Y-53086003D01*
X60428630Y-53265249D01*
X60428631Y-53265254D01*
X60488211Y-53435523D01*
X60584184Y-53588262D01*
X60593481Y-53597559D01*
X60626966Y-53658882D01*
X60629800Y-53685240D01*
X60629800Y-53756760D01*
X60610115Y-53823799D01*
X60593481Y-53844441D01*
X60584184Y-53853737D01*
X60488211Y-54006476D01*
X60428631Y-54176745D01*
X60428630Y-54176750D01*
X60408435Y-54355996D01*
X60408435Y-54356003D01*
X60428630Y-54535249D01*
X60428631Y-54535254D01*
X60488211Y-54705523D01*
X60584184Y-54858262D01*
X60593481Y-54867559D01*
X60626966Y-54928882D01*
X60629800Y-54955240D01*
X60629800Y-59090760D01*
X60610115Y-59157799D01*
X60593481Y-59178441D01*
X60584184Y-59187737D01*
X60488211Y-59340476D01*
X60428631Y-59510745D01*
X60428630Y-59510750D01*
X60408435Y-59689996D01*
X60408435Y-59690003D01*
X60428630Y-59869249D01*
X60428631Y-59869254D01*
X60488211Y-60039523D01*
X60584184Y-60192262D01*
X60593481Y-60201559D01*
X60626966Y-60262882D01*
X60629800Y-60289240D01*
X60629800Y-61446501D01*
X60610115Y-61513540D01*
X60557311Y-61559295D01*
X60506705Y-61570498D01*
X57274905Y-61594088D01*
X57207724Y-61574893D01*
X57161585Y-61522424D01*
X57150000Y-61470091D01*
X57150000Y-60160269D01*
X57154224Y-60128179D01*
X57175063Y-60050408D01*
X57190500Y-59873966D01*
X57190500Y-59506034D01*
X57175063Y-59329592D01*
X57154225Y-59251822D01*
X57150000Y-59219729D01*
X57150000Y-56004000D01*
X57169685Y-55936961D01*
X57222489Y-55891206D01*
X57274000Y-55880000D01*
X57785000Y-55880000D01*
X57785000Y-43304000D01*
X57804685Y-43236961D01*
X57857489Y-43191206D01*
X57909000Y-43180000D01*
X63740893Y-43180000D01*
X63781848Y-43186958D01*
G37*
%TD.AperFunction*%
%TD*%
%TA.AperFunction,Conductor*%
%TO.N,GND*%
G36*
X54545703Y-54837029D02*
G01*
X54554371Y-54845307D01*
X54573141Y-54865053D01*
X54684322Y-54942437D01*
X54740149Y-54981294D01*
X54740150Y-54981294D01*
X54740151Y-54981295D01*
X54927142Y-55061540D01*
X55126459Y-55102500D01*
X56413343Y-55102500D01*
X56489190Y-55094787D01*
X56565038Y-55087074D01*
X56664759Y-55055785D01*
X56701881Y-55050099D01*
X56788338Y-55050099D01*
X56788344Y-55050099D01*
X56788352Y-55050098D01*
X56788355Y-55050098D01*
X56842760Y-55044540D01*
X56887708Y-55039949D01*
X57048697Y-54986603D01*
X57090404Y-54960877D01*
X57157794Y-54942437D01*
X57224458Y-54963358D01*
X57269228Y-55017000D01*
X57279500Y-55066416D01*
X57279500Y-55262526D01*
X57259815Y-55329565D01*
X57207011Y-55375320D01*
X57168763Y-55385814D01*
X57167751Y-55385923D01*
X57166540Y-55386053D01*
X57166537Y-55386054D01*
X57115027Y-55397260D01*
X57012502Y-55431383D01*
X57012496Y-55431386D01*
X56891462Y-55509171D01*
X56891451Y-55509179D01*
X56838659Y-55554923D01*
X56744433Y-55663664D01*
X56744430Y-55663668D01*
X56684664Y-55794534D01*
X56664976Y-55861582D01*
X56644500Y-56004001D01*
X56644500Y-56728710D01*
X56624815Y-56795749D01*
X56572011Y-56841504D01*
X56522566Y-56852693D01*
X55448198Y-56870599D01*
X54515289Y-57289457D01*
X54446069Y-57298959D01*
X54382700Y-57269528D01*
X54345302Y-57210509D01*
X54340500Y-57176336D01*
X54340500Y-54930742D01*
X54360185Y-54863703D01*
X54412989Y-54817948D01*
X54482147Y-54808004D01*
X54545703Y-54837029D01*
G37*
%TD.AperFunction*%
%TA.AperFunction,Conductor*%
G36*
X63307753Y-47970090D02*
G01*
X63324831Y-47973239D01*
X63387484Y-47989401D01*
X63387499Y-47989403D01*
X63387501Y-47989404D01*
X63404946Y-47992367D01*
X63428439Y-47996359D01*
X63476323Y-48000397D01*
X63513089Y-48003499D01*
X63513105Y-48003499D01*
X63513107Y-48003500D01*
X63513108Y-48003500D01*
X65518892Y-48003500D01*
X65518893Y-48003500D01*
X65518894Y-48003499D01*
X65518910Y-48003499D01*
X65549690Y-48000902D01*
X65603561Y-47996359D01*
X65644516Y-47989401D01*
X65707178Y-47973236D01*
X65724241Y-47970090D01*
X65772117Y-47964696D01*
X65799873Y-47964696D01*
X65847753Y-47970090D01*
X65864831Y-47973239D01*
X65927484Y-47989401D01*
X65927499Y-47989403D01*
X65927501Y-47989404D01*
X65944946Y-47992367D01*
X65968439Y-47996359D01*
X66016323Y-48000397D01*
X66053089Y-48003499D01*
X66053105Y-48003499D01*
X66053107Y-48003500D01*
X66106216Y-48003500D01*
X66173255Y-48023185D01*
X66219010Y-48075989D01*
X66228954Y-48145147D01*
X66199929Y-48208703D01*
X66193897Y-48215181D01*
X61591446Y-52817632D01*
X61589199Y-52819824D01*
X61525746Y-52880142D01*
X61492045Y-52928561D01*
X61486374Y-52936082D01*
X61449102Y-52981792D01*
X61449098Y-52981798D01*
X61435009Y-53008768D01*
X61426882Y-53022183D01*
X61409502Y-53047155D01*
X61386238Y-53101365D01*
X61382198Y-53109872D01*
X61354890Y-53162151D01*
X61354890Y-53162152D01*
X61346520Y-53191401D01*
X61341259Y-53206179D01*
X61329259Y-53234143D01*
X61323472Y-53262304D01*
X61317491Y-53291411D01*
X61317388Y-53291911D01*
X61315142Y-53301060D01*
X61298913Y-53357777D01*
X61298912Y-53357786D01*
X61298835Y-53358801D01*
X61298636Y-53359325D01*
X61297805Y-53363966D01*
X61296939Y-53363810D01*
X61274112Y-53424150D01*
X61217982Y-53465759D01*
X61148268Y-53470416D01*
X61087103Y-53436644D01*
X61066362Y-53408802D01*
X61037147Y-53355298D01*
X61025632Y-53339916D01*
X61019904Y-53331576D01*
X61000729Y-53301060D01*
X60953963Y-53226633D01*
X60941917Y-53201618D01*
X60929189Y-53165246D01*
X60923012Y-53138179D01*
X60918697Y-53099883D01*
X60918696Y-53072125D01*
X60923011Y-53033815D01*
X60929186Y-53006761D01*
X60941920Y-52970370D01*
X60953962Y-52945365D01*
X60986146Y-52894146D01*
X60994589Y-52882313D01*
X61003711Y-52870994D01*
X61003713Y-52870990D01*
X61003722Y-52870980D01*
X61035367Y-52827096D01*
X61095138Y-52696219D01*
X61114823Y-52629180D01*
X61114824Y-52629176D01*
X61135300Y-52486760D01*
X61135300Y-52190967D01*
X61148021Y-52136260D01*
X62887389Y-48598228D01*
X62931755Y-48461908D01*
X62943696Y-48393318D01*
X62947036Y-48282312D01*
X62947756Y-48272211D01*
X62955011Y-48207821D01*
X62961188Y-48180758D01*
X62973916Y-48144381D01*
X62985958Y-48119372D01*
X63006474Y-48086721D01*
X63023776Y-48065027D01*
X63052800Y-48036003D01*
X63061261Y-48028773D01*
X63061043Y-48028514D01*
X63087331Y-48006405D01*
X63136169Y-47981235D01*
X63167173Y-47973237D01*
X63184249Y-47970090D01*
X63232117Y-47964696D01*
X63259873Y-47964696D01*
X63307753Y-47970090D01*
G37*
%TD.AperFunction*%
%TA.AperFunction,Conductor*%
G36*
X73966433Y-33556515D02*
G01*
X73967739Y-33556602D01*
X73975108Y-33556602D01*
X74038312Y-33556602D01*
X74043720Y-33556719D01*
X74434743Y-33573792D01*
X74445477Y-33574732D01*
X74830859Y-33625468D01*
X74841493Y-33627343D01*
X75220990Y-33711476D01*
X75231416Y-33714270D01*
X75602135Y-33831157D01*
X75612270Y-33834846D01*
X75971387Y-33983598D01*
X75981179Y-33988164D01*
X76261399Y-34134037D01*
X76325942Y-34167636D01*
X76335309Y-34173043D01*
X76605434Y-34345132D01*
X76663124Y-34381884D01*
X76671983Y-34388087D01*
X76980364Y-34624717D01*
X76988638Y-34631661D01*
X77244151Y-34865795D01*
X77275203Y-34894249D01*
X77282852Y-34901898D01*
X77545439Y-35188461D01*
X77552393Y-35196748D01*
X77789007Y-35505110D01*
X77795212Y-35513971D01*
X78004056Y-35841791D01*
X78009464Y-35851159D01*
X78188933Y-36195916D01*
X78193505Y-36205720D01*
X78217779Y-36264323D01*
X78331504Y-36538879D01*
X78342248Y-36564816D01*
X78345947Y-36574979D01*
X78452559Y-36913109D01*
X78462828Y-36945676D01*
X78465628Y-36956126D01*
X78549754Y-37335599D01*
X78551632Y-37346252D01*
X78602365Y-37731602D01*
X78603308Y-37742378D01*
X78618934Y-38100289D01*
X78620382Y-38133435D01*
X78620500Y-38138844D01*
X78620500Y-61973293D01*
X78620382Y-61978702D01*
X78603310Y-62369723D01*
X78602367Y-62380500D01*
X78551634Y-62765848D01*
X78549756Y-62776501D01*
X78465628Y-63155978D01*
X78462828Y-63166427D01*
X78345949Y-63537120D01*
X78342249Y-63547285D01*
X78193507Y-63906381D01*
X78188935Y-63916185D01*
X78009465Y-64260942D01*
X78004057Y-64270310D01*
X77795213Y-64598130D01*
X77789008Y-64606991D01*
X77552394Y-64915353D01*
X77545440Y-64923640D01*
X77282853Y-65210204D01*
X77275204Y-65217853D01*
X76988640Y-65480440D01*
X76980353Y-65487394D01*
X76671991Y-65724008D01*
X76663130Y-65730213D01*
X76335310Y-65939057D01*
X76325942Y-65944465D01*
X75981185Y-66123935D01*
X75971381Y-66128507D01*
X75612285Y-66277249D01*
X75602120Y-66280949D01*
X75231427Y-66397828D01*
X75220978Y-66400628D01*
X74841501Y-66484756D01*
X74830848Y-66486634D01*
X74445500Y-66537367D01*
X74434723Y-66538310D01*
X74043703Y-66555382D01*
X74038294Y-66555500D01*
X43182706Y-66555500D01*
X43177297Y-66555382D01*
X42786276Y-66538310D01*
X42775501Y-66537367D01*
X42686792Y-66525688D01*
X42390151Y-66486634D01*
X42379498Y-66484756D01*
X42000021Y-66400628D01*
X41989572Y-66397828D01*
X41618879Y-66280949D01*
X41608714Y-66277249D01*
X41249618Y-66128507D01*
X41239814Y-66123935D01*
X40895057Y-65944465D01*
X40885689Y-65939057D01*
X40557869Y-65730213D01*
X40549008Y-65724008D01*
X40240646Y-65487394D01*
X40232359Y-65480440D01*
X39945795Y-65217853D01*
X39938146Y-65210204D01*
X39675559Y-64923640D01*
X39668605Y-64915353D01*
X39431991Y-64606991D01*
X39425786Y-64598130D01*
X39216942Y-64270310D01*
X39211534Y-64260942D01*
X39032064Y-63916185D01*
X39027492Y-63906381D01*
X38878744Y-63547270D01*
X38875055Y-63537135D01*
X38758168Y-63166416D01*
X38755374Y-63155990D01*
X38671241Y-62776493D01*
X38669365Y-62765848D01*
X38618630Y-62380477D01*
X38617690Y-62369742D01*
X38604506Y-62067763D01*
X41325787Y-62067763D01*
X41355413Y-62337013D01*
X41355415Y-62337024D01*
X41423926Y-62599082D01*
X41423928Y-62599088D01*
X41529870Y-62848390D01*
X41601998Y-62966575D01*
X41670979Y-63079605D01*
X41670986Y-63079615D01*
X41844253Y-63287819D01*
X41844259Y-63287824D01*
X42045998Y-63468582D01*
X42271910Y-63618044D01*
X42517176Y-63733020D01*
X42517183Y-63733022D01*
X42517185Y-63733023D01*
X42776557Y-63811057D01*
X42776564Y-63811058D01*
X42776569Y-63811060D01*
X43044561Y-63850500D01*
X43044566Y-63850500D01*
X43247629Y-63850500D01*
X43247631Y-63850500D01*
X43247636Y-63850499D01*
X43247648Y-63850499D01*
X43285191Y-63847750D01*
X43450156Y-63835677D01*
X43562758Y-63810593D01*
X43714546Y-63776782D01*
X43714548Y-63776781D01*
X43714553Y-63776780D01*
X43967558Y-63680014D01*
X44203777Y-63547441D01*
X44418177Y-63381888D01*
X44606186Y-63186881D01*
X44763799Y-62966579D01*
X44867002Y-62765848D01*
X44887649Y-62725690D01*
X44887651Y-62725684D01*
X44887656Y-62725675D01*
X44975118Y-62469305D01*
X45024319Y-62202933D01*
X45034212Y-61932235D01*
X45004586Y-61662982D01*
X44936072Y-61400912D01*
X44830130Y-61151610D01*
X44689018Y-60920390D01*
X44599747Y-60813119D01*
X44515746Y-60712180D01*
X44515740Y-60712175D01*
X44314002Y-60531418D01*
X44213613Y-60465001D01*
X51989500Y-60465001D01*
X51989501Y-60465018D01*
X52000000Y-60567796D01*
X52000001Y-60567799D01*
X52047843Y-60712175D01*
X52055186Y-60734334D01*
X52147288Y-60883656D01*
X52271344Y-61007712D01*
X52420666Y-61099814D01*
X52587203Y-61154999D01*
X52689991Y-61165500D01*
X53990008Y-61165499D01*
X54092797Y-61154999D01*
X54259334Y-61099814D01*
X54408656Y-61007712D01*
X54445449Y-60970919D01*
X54506772Y-60937434D01*
X54533130Y-60934600D01*
X55045331Y-60934600D01*
X55112370Y-60954285D01*
X55116454Y-60957025D01*
X55162168Y-60989034D01*
X55162170Y-60989035D01*
X55376337Y-61088903D01*
X55604592Y-61150063D01*
X55781034Y-61165500D01*
X55839999Y-61170659D01*
X55840000Y-61170659D01*
X55840001Y-61170659D01*
X55898966Y-61165500D01*
X56075408Y-61150063D01*
X56303663Y-61088903D01*
X56468096Y-61012225D01*
X56537172Y-61001734D01*
X56600956Y-61030253D01*
X56639196Y-61088730D01*
X56644500Y-61124608D01*
X56644500Y-61470093D01*
X56656448Y-61579343D01*
X56656449Y-61579348D01*
X56668033Y-61631678D01*
X56668036Y-61631689D01*
X56703309Y-61735763D01*
X56703310Y-61735765D01*
X56781978Y-61856234D01*
X56828117Y-61908703D01*
X56937539Y-62002129D01*
X56975452Y-62019110D01*
X57050765Y-62052843D01*
X57068850Y-62060943D01*
X57136031Y-62080138D01*
X57136033Y-62080138D01*
X57136228Y-62080164D01*
X57143944Y-62081245D01*
X57144371Y-62081274D01*
X57278595Y-62099575D01*
X60510395Y-62075985D01*
X60583117Y-62067763D01*
X72145787Y-62067763D01*
X72175413Y-62337013D01*
X72175415Y-62337024D01*
X72243926Y-62599082D01*
X72243928Y-62599088D01*
X72349870Y-62848390D01*
X72421998Y-62966575D01*
X72490979Y-63079605D01*
X72490986Y-63079615D01*
X72664253Y-63287819D01*
X72664259Y-63287824D01*
X72865998Y-63468582D01*
X73091910Y-63618044D01*
X73337176Y-63733020D01*
X73337183Y-63733022D01*
X73337185Y-63733023D01*
X73596557Y-63811057D01*
X73596564Y-63811058D01*
X73596569Y-63811060D01*
X73864561Y-63850500D01*
X73864566Y-63850500D01*
X74067629Y-63850500D01*
X74067631Y-63850500D01*
X74067636Y-63850499D01*
X74067648Y-63850499D01*
X74105191Y-63847750D01*
X74270156Y-63835677D01*
X74382758Y-63810593D01*
X74534546Y-63776782D01*
X74534548Y-63776781D01*
X74534553Y-63776780D01*
X74787558Y-63680014D01*
X75023777Y-63547441D01*
X75238177Y-63381888D01*
X75426186Y-63186881D01*
X75583799Y-62966579D01*
X75687002Y-62765848D01*
X75707649Y-62725690D01*
X75707651Y-62725684D01*
X75707656Y-62725675D01*
X75795118Y-62469305D01*
X75844319Y-62202933D01*
X75854212Y-61932235D01*
X75824586Y-61662982D01*
X75756072Y-61400912D01*
X75650130Y-61151610D01*
X75509018Y-60920390D01*
X75419747Y-60813119D01*
X75335746Y-60712180D01*
X75335740Y-60712175D01*
X75134002Y-60531418D01*
X74908092Y-60381957D01*
X74908090Y-60381956D01*
X74662824Y-60266980D01*
X74662819Y-60266978D01*
X74662814Y-60266976D01*
X74403442Y-60188942D01*
X74403428Y-60188939D01*
X74287791Y-60171921D01*
X74135439Y-60149500D01*
X73932369Y-60149500D01*
X73932351Y-60149500D01*
X73729844Y-60164323D01*
X73729831Y-60164325D01*
X73465453Y-60223217D01*
X73465446Y-60223220D01*
X73212439Y-60319987D01*
X72976226Y-60452557D01*
X72761822Y-60618112D01*
X72573822Y-60813109D01*
X72573816Y-60813116D01*
X72416202Y-61033419D01*
X72416199Y-61033424D01*
X72292350Y-61274309D01*
X72292343Y-61274327D01*
X72204884Y-61530685D01*
X72204882Y-61530695D01*
X72157572Y-61786832D01*
X72155681Y-61797068D01*
X72155680Y-61797075D01*
X72145787Y-62067763D01*
X60583117Y-62067763D01*
X60615966Y-62064049D01*
X60666572Y-62052846D01*
X60767304Y-62019114D01*
X60888343Y-61941326D01*
X60941147Y-61895571D01*
X61035367Y-61786837D01*
X61095138Y-61655960D01*
X61114823Y-61588921D01*
X61114824Y-61588917D01*
X61135300Y-61446501D01*
X61135300Y-60289240D01*
X61132403Y-60235200D01*
X61129569Y-60208842D01*
X61120914Y-60155430D01*
X61070632Y-60020621D01*
X61037147Y-59959298D01*
X61025632Y-59943916D01*
X61019904Y-59935576D01*
X60953964Y-59830634D01*
X60941917Y-59805618D01*
X60929189Y-59769246D01*
X60923012Y-59742179D01*
X60918697Y-59703883D01*
X60918696Y-59676125D01*
X60923011Y-59637815D01*
X60929186Y-59610761D01*
X60941920Y-59574370D01*
X60953962Y-59549365D01*
X60986146Y-59498146D01*
X60994589Y-59486313D01*
X61003711Y-59474994D01*
X61003713Y-59474990D01*
X61003722Y-59474980D01*
X61035367Y-59431096D01*
X61095138Y-59300219D01*
X61114823Y-59233180D01*
X61114824Y-59233176D01*
X61135300Y-59090760D01*
X61135300Y-54955240D01*
X61132403Y-54901200D01*
X61132012Y-54897568D01*
X61129570Y-54874855D01*
X61129567Y-54874828D01*
X61120914Y-54821432D01*
X61120914Y-54821430D01*
X61118406Y-54814706D01*
X61070632Y-54686621D01*
X61037147Y-54625298D01*
X61025632Y-54609916D01*
X61019904Y-54601576D01*
X61008589Y-54583569D01*
X60953963Y-54496633D01*
X60941917Y-54471618D01*
X60940774Y-54468352D01*
X60929189Y-54435246D01*
X60923012Y-54408179D01*
X60918697Y-54369883D01*
X60918696Y-54342125D01*
X60923011Y-54303815D01*
X60929186Y-54276761D01*
X60941920Y-54240370D01*
X60953962Y-54215365D01*
X60986146Y-54164146D01*
X60994589Y-54152313D01*
X61003711Y-54140994D01*
X61003713Y-54140990D01*
X61003722Y-54140980D01*
X61035367Y-54097096D01*
X61078250Y-54003196D01*
X61124005Y-53950393D01*
X61191045Y-53930709D01*
X61258084Y-53950394D01*
X61303839Y-54003198D01*
X61309357Y-54017588D01*
X61364637Y-54193779D01*
X61364644Y-54193794D01*
X61423044Y-54299012D01*
X61433010Y-54322298D01*
X61445320Y-54361801D01*
X61445320Y-54361803D01*
X61457594Y-54382106D01*
X61519678Y-54484806D01*
X61533330Y-54507388D01*
X61653611Y-54627669D01*
X61653613Y-54627670D01*
X61653615Y-54627672D01*
X61799194Y-54715678D01*
X61961604Y-54766286D01*
X62032184Y-54772700D01*
X62049026Y-54772700D01*
X62080106Y-54776658D01*
X62107197Y-54783672D01*
X62136515Y-54791263D01*
X62339736Y-54801569D01*
X62518847Y-54774129D01*
X62537623Y-54772700D01*
X62545413Y-54772700D01*
X62545416Y-54772700D01*
X62615996Y-54766286D01*
X62777414Y-54715986D01*
X62847270Y-54714837D01*
X62906663Y-54751638D01*
X62936731Y-54814706D01*
X62938300Y-54834373D01*
X62938300Y-56845143D01*
X62953725Y-56996839D01*
X63014637Y-57190979D01*
X63014644Y-57190994D01*
X63073044Y-57296212D01*
X63083010Y-57319498D01*
X63095320Y-57359001D01*
X63095320Y-57359003D01*
X63183330Y-57504588D01*
X63303611Y-57624869D01*
X63303613Y-57624870D01*
X63303615Y-57624872D01*
X63449194Y-57712878D01*
X63611604Y-57763486D01*
X63682184Y-57769900D01*
X63699026Y-57769900D01*
X63730106Y-57773858D01*
X63757197Y-57780872D01*
X63786515Y-57788463D01*
X63989736Y-57798769D01*
X64168847Y-57771329D01*
X64187623Y-57769900D01*
X64195413Y-57769900D01*
X64195416Y-57769900D01*
X64265996Y-57763486D01*
X64428406Y-57712878D01*
X64555161Y-57636251D01*
X64622714Y-57618415D01*
X64689188Y-57639932D01*
X64733476Y-57693972D01*
X64741517Y-57763378D01*
X64736591Y-57782631D01*
X64675534Y-57960483D01*
X64635900Y-58198002D01*
X64635900Y-58438797D01*
X64675534Y-58676316D01*
X64753718Y-58904056D01*
X64753721Y-58904065D01*
X64868329Y-59115841D01*
X64911851Y-59171758D01*
X65016229Y-59305863D01*
X65193390Y-59468951D01*
X65394978Y-59600655D01*
X65615495Y-59697383D01*
X65848924Y-59756495D01*
X66028800Y-59771400D01*
X66028804Y-59771400D01*
X66243996Y-59771400D01*
X66244000Y-59771400D01*
X66423876Y-59756495D01*
X66657305Y-59697383D01*
X66877822Y-59600655D01*
X67079410Y-59468951D01*
X67256571Y-59305863D01*
X67404472Y-59115839D01*
X67519079Y-58904064D01*
X67597266Y-58676313D01*
X67636900Y-58438799D01*
X67636900Y-58198001D01*
X67597266Y-57960487D01*
X67519079Y-57732736D01*
X67404472Y-57520961D01*
X67404470Y-57520958D01*
X67404466Y-57520952D01*
X67293567Y-57378469D01*
X67267924Y-57313475D01*
X67281490Y-57244935D01*
X67329959Y-57194611D01*
X67348081Y-57186127D01*
X67378731Y-57174696D01*
X67493946Y-57088446D01*
X67580196Y-56973231D01*
X67630491Y-56838383D01*
X67636900Y-56778773D01*
X67636899Y-54778028D01*
X67630491Y-54718417D01*
X67630175Y-54717571D01*
X67580197Y-54583571D01*
X67580193Y-54583564D01*
X67493947Y-54468355D01*
X67493944Y-54468352D01*
X67378735Y-54382106D01*
X67378728Y-54382102D01*
X67243882Y-54331808D01*
X67243883Y-54331808D01*
X67184283Y-54325401D01*
X67184281Y-54325400D01*
X67184273Y-54325400D01*
X67184264Y-54325400D01*
X65088529Y-54325400D01*
X65088521Y-54325401D01*
X65076552Y-54326688D01*
X65007793Y-54314281D01*
X64956657Y-54266669D01*
X64939300Y-54203398D01*
X64939300Y-53746456D01*
X64923874Y-53594760D01*
X64862962Y-53400620D01*
X64862960Y-53400617D01*
X64862959Y-53400612D01*
X64804550Y-53295379D01*
X64794590Y-53272107D01*
X64782278Y-53232594D01*
X64694272Y-53087015D01*
X64694270Y-53087013D01*
X64694269Y-53087011D01*
X64573988Y-52966730D01*
X64538997Y-52945577D01*
X64521342Y-52934904D01*
X64474155Y-52883377D01*
X64462317Y-52814517D01*
X64489586Y-52750189D01*
X64497802Y-52741117D01*
X67403301Y-49835619D01*
X67464624Y-49802134D01*
X67490982Y-49799300D01*
X68696042Y-49799300D01*
X68763081Y-49818985D01*
X68801580Y-49858202D01*
X68807288Y-49867456D01*
X68931344Y-49991512D01*
X69080666Y-50083614D01*
X69247203Y-50138799D01*
X69349991Y-50149300D01*
X70900008Y-50149299D01*
X71002797Y-50138799D01*
X71169334Y-50083614D01*
X71318656Y-49991512D01*
X71442712Y-49867456D01*
X71534814Y-49718134D01*
X71589999Y-49551597D01*
X71600500Y-49448809D01*
X71600499Y-48148792D01*
X71592629Y-48071754D01*
X71605047Y-48004955D01*
X75374500Y-48004955D01*
X75376644Y-48028773D01*
X75389622Y-48172986D01*
X75389623Y-48172992D01*
X75449503Y-48389960D01*
X75449508Y-48389973D01*
X75547167Y-48592766D01*
X75547171Y-48592774D01*
X75679473Y-48774872D01*
X75679474Y-48774874D01*
X75842176Y-48930433D01*
X76030033Y-49054436D01*
X76237004Y-49142900D01*
X76237007Y-49142901D01*
X76237012Y-49142903D01*
X76456463Y-49192991D01*
X76681330Y-49203090D01*
X76904387Y-49172875D01*
X77118464Y-49103317D01*
X77316681Y-48996652D01*
X77492666Y-48856308D01*
X77640765Y-48686796D01*
X77756215Y-48493564D01*
X77835307Y-48282824D01*
X77860431Y-48144381D01*
X77875500Y-48061349D01*
X77875500Y-47092652D01*
X77875500Y-47092645D01*
X77860377Y-46924612D01*
X77830064Y-46814776D01*
X77800496Y-46707639D01*
X77800491Y-46707626D01*
X77702832Y-46504833D01*
X77702828Y-46504825D01*
X77570526Y-46322727D01*
X77570525Y-46322725D01*
X77407823Y-46167166D01*
X77219966Y-46043163D01*
X77012995Y-45954699D01*
X77012982Y-45954695D01*
X76793542Y-45904610D01*
X76793538Y-45904609D01*
X76793537Y-45904609D01*
X76793536Y-45904608D01*
X76793531Y-45904608D01*
X76568674Y-45894510D01*
X76568673Y-45894510D01*
X76568670Y-45894510D01*
X76345613Y-45924725D01*
X76345610Y-45924725D01*
X76345609Y-45924726D01*
X76131534Y-45994283D01*
X75933321Y-46100946D01*
X75933318Y-46100948D01*
X75757336Y-46241289D01*
X75609236Y-46410803D01*
X75493787Y-46604032D01*
X75493786Y-46604034D01*
X75414692Y-46814776D01*
X75374500Y-47036250D01*
X75374500Y-47036253D01*
X75374500Y-48004955D01*
X71605047Y-48004955D01*
X71605398Y-48003065D01*
X71653279Y-47952180D01*
X71662478Y-47947294D01*
X71663889Y-47946617D01*
X71663904Y-47946613D01*
X71784943Y-47868825D01*
X71837747Y-47823070D01*
X71931967Y-47714336D01*
X71991738Y-47583459D01*
X72011423Y-47516420D01*
X72011424Y-47516416D01*
X72031900Y-47374000D01*
X72031900Y-43304000D01*
X72020347Y-43196544D01*
X72009141Y-43145033D01*
X72009037Y-43144722D01*
X71975016Y-43042502D01*
X71975013Y-43042496D01*
X71897228Y-42921462D01*
X71897225Y-42921457D01*
X71897220Y-42921451D01*
X71851476Y-42868659D01*
X71851472Y-42868656D01*
X71851470Y-42868653D01*
X71742736Y-42774433D01*
X71742733Y-42774431D01*
X71742731Y-42774430D01*
X71611865Y-42714664D01*
X71611860Y-42714662D01*
X71611859Y-42714662D01*
X71544820Y-42694977D01*
X71544822Y-42694977D01*
X71544817Y-42694976D01*
X71482747Y-42686052D01*
X71402400Y-42674500D01*
X64275107Y-42674500D01*
X64275087Y-42674500D01*
X64190452Y-42681638D01*
X64190449Y-42681639D01*
X64149496Y-42688596D01*
X64149483Y-42688598D01*
X64086827Y-42704760D01*
X64069742Y-42707910D01*
X64040398Y-42711216D01*
X64021884Y-42713302D01*
X63994122Y-42713302D01*
X63946253Y-42707909D01*
X63929168Y-42704759D01*
X63866521Y-42688599D01*
X63825564Y-42681641D01*
X63825552Y-42681640D01*
X63740910Y-42674500D01*
X63740893Y-42674500D01*
X57909000Y-42674500D01*
X57908991Y-42674500D01*
X57908990Y-42674501D01*
X57801549Y-42686052D01*
X57801537Y-42686054D01*
X57750027Y-42697260D01*
X57647502Y-42731383D01*
X57647496Y-42731386D01*
X57526462Y-42809171D01*
X57526451Y-42809179D01*
X57473659Y-42854923D01*
X57379433Y-42963664D01*
X57379430Y-42963668D01*
X57319664Y-43094534D01*
X57299976Y-43161582D01*
X57294949Y-43196549D01*
X57279502Y-43303990D01*
X57279500Y-43304001D01*
X57279500Y-52832783D01*
X57259815Y-52899822D01*
X57207011Y-52945577D01*
X57137853Y-52955521D01*
X57090403Y-52938322D01*
X57086771Y-52936082D01*
X57069819Y-52925625D01*
X57048699Y-52912598D01*
X57048694Y-52912596D01*
X56887709Y-52859251D01*
X56788346Y-52849100D01*
X56241662Y-52849100D01*
X56241644Y-52849101D01*
X56142292Y-52859250D01*
X56142289Y-52859251D01*
X55981305Y-52912596D01*
X55981294Y-52912601D01*
X55836959Y-53001629D01*
X55836955Y-53001632D01*
X55773407Y-53065181D01*
X55712084Y-53098666D01*
X55685726Y-53101500D01*
X55177457Y-53101500D01*
X55025760Y-53116925D01*
X54831620Y-53177837D01*
X54831605Y-53177844D01*
X54653700Y-53276589D01*
X54653695Y-53276592D01*
X54499306Y-53409132D01*
X54499304Y-53409134D01*
X54374754Y-53570037D01*
X54374750Y-53570044D01*
X54330869Y-53659502D01*
X54283672Y-53711021D01*
X54216114Y-53728845D01*
X54149645Y-53707314D01*
X54124751Y-53682029D01*
X54123374Y-53683153D01*
X54119400Y-53678279D01*
X54077699Y-53636578D01*
X54071294Y-53629668D01*
X54049981Y-53604842D01*
X54032866Y-53584905D01*
X54008800Y-53566276D01*
X53997029Y-53555908D01*
X53799782Y-53358662D01*
X53795657Y-53355298D01*
X53681607Y-53262302D01*
X53501249Y-53168091D01*
X53480493Y-53162152D01*
X53322438Y-53116926D01*
X53305618Y-53112113D01*
X53305617Y-53112112D01*
X53305616Y-53112112D01*
X53102725Y-53096662D01*
X53102722Y-53096662D01*
X52900878Y-53122368D01*
X52900870Y-53122370D01*
X52708329Y-53188183D01*
X52708317Y-53188189D01*
X52532978Y-53291406D01*
X52532971Y-53291411D01*
X52381987Y-53427820D01*
X52381987Y-53427821D01*
X52261553Y-53591828D01*
X52261549Y-53591835D01*
X52176597Y-53776725D01*
X52176593Y-53776737D01*
X52130596Y-53974945D01*
X52125442Y-54178358D01*
X52161340Y-54378648D01*
X52161342Y-54378654D01*
X52236822Y-54567615D01*
X52236826Y-54567622D01*
X52251125Y-54589318D01*
X52315255Y-54686623D01*
X52319036Y-54692359D01*
X52339492Y-54759167D01*
X52339500Y-54760596D01*
X52339500Y-58261042D01*
X52319815Y-58328081D01*
X52280598Y-58366580D01*
X52271344Y-58372287D01*
X52147289Y-58496342D01*
X52055187Y-58645663D01*
X52055185Y-58645668D01*
X52027349Y-58729670D01*
X52000001Y-58812203D01*
X52000001Y-58812204D01*
X52000000Y-58812204D01*
X51989500Y-58914983D01*
X51989500Y-60465001D01*
X44213613Y-60465001D01*
X44088092Y-60381957D01*
X44088090Y-60381956D01*
X43842824Y-60266980D01*
X43842819Y-60266978D01*
X43842814Y-60266976D01*
X43583442Y-60188942D01*
X43583428Y-60188939D01*
X43467791Y-60171921D01*
X43315439Y-60149500D01*
X43112369Y-60149500D01*
X43112351Y-60149500D01*
X42909844Y-60164323D01*
X42909831Y-60164325D01*
X42645453Y-60223217D01*
X42645446Y-60223220D01*
X42392439Y-60319987D01*
X42156226Y-60452557D01*
X41941822Y-60618112D01*
X41753822Y-60813109D01*
X41753816Y-60813116D01*
X41596202Y-61033419D01*
X41596199Y-61033424D01*
X41472350Y-61274309D01*
X41472343Y-61274327D01*
X41384884Y-61530685D01*
X41384882Y-61530695D01*
X41337572Y-61786832D01*
X41335681Y-61797068D01*
X41335680Y-61797075D01*
X41325787Y-62067763D01*
X38604506Y-62067763D01*
X38600618Y-61978701D01*
X38600500Y-61973293D01*
X38600500Y-40907470D01*
X49170100Y-40907470D01*
X49170101Y-40907476D01*
X49176508Y-40967083D01*
X49226802Y-41101928D01*
X49226806Y-41101935D01*
X49313052Y-41217144D01*
X49313055Y-41217147D01*
X49428264Y-41303393D01*
X49428271Y-41303397D01*
X49563117Y-41353691D01*
X49563116Y-41353691D01*
X49570044Y-41354435D01*
X49622727Y-41360100D01*
X50618472Y-41360099D01*
X50678083Y-41353691D01*
X50812931Y-41303396D01*
X50928146Y-41217146D01*
X51014396Y-41101931D01*
X51064691Y-40967083D01*
X51071100Y-40907473D01*
X51071100Y-40907470D01*
X62670100Y-40907470D01*
X62670101Y-40907476D01*
X62676508Y-40967083D01*
X62726802Y-41101928D01*
X62726806Y-41101935D01*
X62813052Y-41217144D01*
X62813055Y-41217147D01*
X62928264Y-41303393D01*
X62928271Y-41303397D01*
X63063117Y-41353691D01*
X63063116Y-41353691D01*
X63070044Y-41354435D01*
X63122727Y-41360100D01*
X64118472Y-41360099D01*
X64178083Y-41353691D01*
X64312931Y-41303396D01*
X64428146Y-41217146D01*
X64514396Y-41101931D01*
X64564691Y-40967083D01*
X64571100Y-40907473D01*
X64571099Y-38811728D01*
X64564691Y-38752117D01*
X64544912Y-38699088D01*
X64514397Y-38617271D01*
X64514393Y-38617264D01*
X64428147Y-38502055D01*
X64428144Y-38502052D01*
X64312935Y-38415806D01*
X64312928Y-38415802D01*
X64178082Y-38365508D01*
X64178083Y-38365508D01*
X64118483Y-38359101D01*
X64118481Y-38359100D01*
X64118473Y-38359100D01*
X64118464Y-38359100D01*
X63122729Y-38359100D01*
X63122723Y-38359101D01*
X63063116Y-38365508D01*
X62928271Y-38415802D01*
X62928264Y-38415806D01*
X62813055Y-38502052D01*
X62813052Y-38502055D01*
X62726806Y-38617264D01*
X62726802Y-38617271D01*
X62676508Y-38752117D01*
X62670101Y-38811716D01*
X62670101Y-38811723D01*
X62670100Y-38811735D01*
X62670100Y-40907470D01*
X51071100Y-40907470D01*
X51071099Y-38811728D01*
X51064691Y-38752117D01*
X51044912Y-38699088D01*
X51014397Y-38617271D01*
X51014393Y-38617264D01*
X50928147Y-38502055D01*
X50928144Y-38502052D01*
X50812935Y-38415806D01*
X50812928Y-38415802D01*
X50678082Y-38365508D01*
X50678083Y-38365508D01*
X50618483Y-38359101D01*
X50618481Y-38359100D01*
X50618473Y-38359100D01*
X50618464Y-38359100D01*
X49622729Y-38359100D01*
X49622723Y-38359101D01*
X49563116Y-38365508D01*
X49428271Y-38415802D01*
X49428264Y-38415806D01*
X49313055Y-38502052D01*
X49313052Y-38502055D01*
X49226806Y-38617264D01*
X49226802Y-38617271D01*
X49176508Y-38752117D01*
X49170101Y-38811716D01*
X49170101Y-38811723D01*
X49170100Y-38811735D01*
X49170100Y-40907470D01*
X38600500Y-40907470D01*
X38600500Y-38167763D01*
X41325787Y-38167763D01*
X41355413Y-38437013D01*
X41355415Y-38437024D01*
X41402538Y-38617271D01*
X41423928Y-38699088D01*
X41529870Y-38948390D01*
X41601998Y-39066575D01*
X41670979Y-39179605D01*
X41670986Y-39179615D01*
X41844253Y-39387819D01*
X41844259Y-39387824D01*
X42045998Y-39568582D01*
X42271910Y-39718044D01*
X42517176Y-39833020D01*
X42517183Y-39833022D01*
X42517185Y-39833023D01*
X42776557Y-39911057D01*
X42776564Y-39911058D01*
X42776569Y-39911060D01*
X43044561Y-39950500D01*
X43044566Y-39950500D01*
X43247629Y-39950500D01*
X43247631Y-39950500D01*
X43247636Y-39950499D01*
X43247648Y-39950499D01*
X43285191Y-39947750D01*
X43450156Y-39935677D01*
X43562758Y-39910593D01*
X43714546Y-39876782D01*
X43714548Y-39876781D01*
X43714553Y-39876780D01*
X43967558Y-39780014D01*
X44203777Y-39647441D01*
X44418177Y-39481888D01*
X44606186Y-39286881D01*
X44763799Y-39066579D01*
X44837787Y-38922669D01*
X44887649Y-38825690D01*
X44887651Y-38825684D01*
X44887656Y-38825675D01*
X44975118Y-38569305D01*
X45024319Y-38302933D01*
X45029259Y-38167763D01*
X72145787Y-38167763D01*
X72175413Y-38437013D01*
X72175415Y-38437024D01*
X72222538Y-38617271D01*
X72243928Y-38699088D01*
X72349870Y-38948390D01*
X72421998Y-39066575D01*
X72490979Y-39179605D01*
X72490986Y-39179615D01*
X72664253Y-39387819D01*
X72664259Y-39387824D01*
X72865998Y-39568582D01*
X73091910Y-39718044D01*
X73337176Y-39833020D01*
X73337183Y-39833022D01*
X73337185Y-39833023D01*
X73596557Y-39911057D01*
X73596564Y-39911058D01*
X73596569Y-39911060D01*
X73864561Y-39950500D01*
X73864566Y-39950500D01*
X74067629Y-39950500D01*
X74067631Y-39950500D01*
X74067636Y-39950499D01*
X74067648Y-39950499D01*
X74105191Y-39947750D01*
X74270156Y-39935677D01*
X74382758Y-39910593D01*
X74534546Y-39876782D01*
X74534548Y-39876781D01*
X74534553Y-39876780D01*
X74787558Y-39780014D01*
X75023777Y-39647441D01*
X75238177Y-39481888D01*
X75426186Y-39286881D01*
X75583799Y-39066579D01*
X75657787Y-38922669D01*
X75707649Y-38825690D01*
X75707651Y-38825684D01*
X75707656Y-38825675D01*
X75795118Y-38569305D01*
X75844319Y-38302933D01*
X75854212Y-38032235D01*
X75824586Y-37762982D01*
X75756072Y-37500912D01*
X75650130Y-37251610D01*
X75509018Y-37020390D01*
X75500753Y-37010458D01*
X75335746Y-36812180D01*
X75335740Y-36812175D01*
X75134002Y-36631418D01*
X74908092Y-36481957D01*
X74908090Y-36481956D01*
X74662824Y-36366980D01*
X74662819Y-36366978D01*
X74662814Y-36366976D01*
X74403442Y-36288942D01*
X74403428Y-36288939D01*
X74287791Y-36271921D01*
X74135439Y-36249500D01*
X73932369Y-36249500D01*
X73932351Y-36249500D01*
X73729844Y-36264323D01*
X73729831Y-36264325D01*
X73465453Y-36323217D01*
X73465446Y-36323220D01*
X73212439Y-36419987D01*
X72976226Y-36552557D01*
X72976224Y-36552558D01*
X72976223Y-36552559D01*
X72935430Y-36584058D01*
X72761822Y-36718112D01*
X72573822Y-36913109D01*
X72573816Y-36913116D01*
X72416202Y-37133419D01*
X72416199Y-37133424D01*
X72292350Y-37374309D01*
X72292343Y-37374327D01*
X72204884Y-37630685D01*
X72204882Y-37630695D01*
X72158697Y-37880742D01*
X72155681Y-37897068D01*
X72155680Y-37897075D01*
X72145787Y-38167763D01*
X45029259Y-38167763D01*
X45034212Y-38032235D01*
X45004586Y-37762982D01*
X44936072Y-37500912D01*
X44830130Y-37251610D01*
X44689018Y-37020390D01*
X44680753Y-37010458D01*
X44515746Y-36812180D01*
X44515740Y-36812175D01*
X44314002Y-36631418D01*
X44088092Y-36481957D01*
X44088090Y-36481956D01*
X43842824Y-36366980D01*
X43842819Y-36366978D01*
X43842814Y-36366976D01*
X43583442Y-36288942D01*
X43583428Y-36288939D01*
X43467791Y-36271921D01*
X43315439Y-36249500D01*
X43112369Y-36249500D01*
X43112351Y-36249500D01*
X42909844Y-36264323D01*
X42909831Y-36264325D01*
X42645453Y-36323217D01*
X42645446Y-36323220D01*
X42392439Y-36419987D01*
X42156226Y-36552557D01*
X42156224Y-36552558D01*
X42156223Y-36552559D01*
X42115430Y-36584058D01*
X41941822Y-36718112D01*
X41753822Y-36913109D01*
X41753816Y-36913116D01*
X41596202Y-37133419D01*
X41596199Y-37133424D01*
X41472350Y-37374309D01*
X41472343Y-37374327D01*
X41384884Y-37630685D01*
X41384882Y-37630695D01*
X41338697Y-37880742D01*
X41335681Y-37897068D01*
X41335680Y-37897075D01*
X41325787Y-38167763D01*
X38600500Y-38167763D01*
X38600500Y-38102706D01*
X38600618Y-38097298D01*
X38602063Y-38064201D01*
X38617690Y-37706255D01*
X38618629Y-37695524D01*
X38669367Y-37310137D01*
X38671240Y-37299510D01*
X38755375Y-36920004D01*
X38758166Y-36909589D01*
X38875057Y-36538857D01*
X38878741Y-36528736D01*
X39027498Y-36169603D01*
X39032056Y-36159829D01*
X39211540Y-35815045D01*
X39216935Y-35805700D01*
X39425793Y-35477858D01*
X39431983Y-35469018D01*
X39668612Y-35160637D01*
X39675550Y-35152368D01*
X39938157Y-34865783D01*
X39945783Y-34858157D01*
X40232368Y-34595550D01*
X40240637Y-34588612D01*
X40549018Y-34351983D01*
X40557858Y-34345793D01*
X40885700Y-34136935D01*
X40895045Y-34131540D01*
X41239829Y-33952056D01*
X41249603Y-33947498D01*
X41608736Y-33798741D01*
X41618857Y-33795057D01*
X41989589Y-33678166D01*
X42000004Y-33675375D01*
X42379510Y-33591240D01*
X42390137Y-33589367D01*
X42775524Y-33538629D01*
X42786253Y-33537690D01*
X43177221Y-33520620D01*
X43182751Y-33520503D01*
X73966433Y-33556515D01*
G37*
%TD.AperFunction*%
%TD*%
M02*
