%TF.GenerationSoftware,KiCad,Pcbnew,7.0.11-rc3*%
%TF.CreationDate,2025-03-25T15:56:03+09:00*%
%TF.ProjectId,RDC_Humanoid_Power_Relay_Switch,5244435f-4875-46d6-916e-6f69645f506f,rev?*%
%TF.SameCoordinates,Original*%
%TF.FileFunction,Legend,Top*%
%TF.FilePolarity,Positive*%
%FSLAX46Y46*%
G04 Gerber Fmt 4.6, Leading zero omitted, Abs format (unit mm)*
G04 Created by KiCad (PCBNEW 7.0.11-rc3) date 2025-03-25 15:56:03*
%MOMM*%
%LPD*%
G01*
G04 APERTURE LIST*
%ADD10C,0.150000*%
%ADD11C,0.120000*%
G04 APERTURE END LIST*
D10*
X55506666Y-55594819D02*
X55506666Y-56309104D01*
X55506666Y-56309104D02*
X55459047Y-56451961D01*
X55459047Y-56451961D02*
X55363809Y-56547200D01*
X55363809Y-56547200D02*
X55220952Y-56594819D01*
X55220952Y-56594819D02*
X55125714Y-56594819D01*
X55887619Y-55594819D02*
X56506666Y-55594819D01*
X56506666Y-55594819D02*
X56173333Y-55975771D01*
X56173333Y-55975771D02*
X56316190Y-55975771D01*
X56316190Y-55975771D02*
X56411428Y-56023390D01*
X56411428Y-56023390D02*
X56459047Y-56071009D01*
X56459047Y-56071009D02*
X56506666Y-56166247D01*
X56506666Y-56166247D02*
X56506666Y-56404342D01*
X56506666Y-56404342D02*
X56459047Y-56499580D01*
X56459047Y-56499580D02*
X56411428Y-56547200D01*
X56411428Y-56547200D02*
X56316190Y-56594819D01*
X56316190Y-56594819D02*
X56030476Y-56594819D01*
X56030476Y-56594819D02*
X55935238Y-56547200D01*
X55935238Y-56547200D02*
X55887619Y-56499580D01*
X62947133Y-55801419D02*
X62613800Y-55325228D01*
X62375705Y-55801419D02*
X62375705Y-54801419D01*
X62375705Y-54801419D02*
X62756657Y-54801419D01*
X62756657Y-54801419D02*
X62851895Y-54849038D01*
X62851895Y-54849038D02*
X62899514Y-54896657D01*
X62899514Y-54896657D02*
X62947133Y-54991895D01*
X62947133Y-54991895D02*
X62947133Y-55134752D01*
X62947133Y-55134752D02*
X62899514Y-55229990D01*
X62899514Y-55229990D02*
X62851895Y-55277609D01*
X62851895Y-55277609D02*
X62756657Y-55325228D01*
X62756657Y-55325228D02*
X62375705Y-55325228D01*
X63899514Y-55801419D02*
X63328086Y-55801419D01*
X63613800Y-55801419D02*
X63613800Y-54801419D01*
X63613800Y-54801419D02*
X63518562Y-54944276D01*
X63518562Y-54944276D02*
X63423324Y-55039514D01*
X63423324Y-55039514D02*
X63328086Y-55087133D01*
X66485419Y-47856733D02*
X67199704Y-47856733D01*
X67199704Y-47856733D02*
X67342561Y-47904352D01*
X67342561Y-47904352D02*
X67437800Y-47999590D01*
X67437800Y-47999590D02*
X67485419Y-48142447D01*
X67485419Y-48142447D02*
X67485419Y-48237685D01*
X66580657Y-47428161D02*
X66533038Y-47380542D01*
X66533038Y-47380542D02*
X66485419Y-47285304D01*
X66485419Y-47285304D02*
X66485419Y-47047209D01*
X66485419Y-47047209D02*
X66533038Y-46951971D01*
X66533038Y-46951971D02*
X66580657Y-46904352D01*
X66580657Y-46904352D02*
X66675895Y-46856733D01*
X66675895Y-46856733D02*
X66771133Y-46856733D01*
X66771133Y-46856733D02*
X66913990Y-46904352D01*
X66913990Y-46904352D02*
X67485419Y-47475780D01*
X67485419Y-47475780D02*
X67485419Y-46856733D01*
X56562666Y-48654619D02*
X56562666Y-49368904D01*
X56562666Y-49368904D02*
X56515047Y-49511761D01*
X56515047Y-49511761D02*
X56419809Y-49607000D01*
X56419809Y-49607000D02*
X56276952Y-49654619D01*
X56276952Y-49654619D02*
X56181714Y-49654619D01*
X57562666Y-49654619D02*
X56991238Y-49654619D01*
X57276952Y-49654619D02*
X57276952Y-48654619D01*
X57276952Y-48654619D02*
X57181714Y-48797476D01*
X57181714Y-48797476D02*
X57086476Y-48892714D01*
X57086476Y-48892714D02*
X56991238Y-48940333D01*
X49899171Y-48474300D02*
X51042029Y-48474300D01*
X62199171Y-48474300D02*
X63342029Y-48474300D01*
X62770600Y-49045728D02*
X62770600Y-47902871D01*
X57402505Y-52575619D02*
X57402505Y-51575619D01*
X57402505Y-51575619D02*
X57640600Y-51575619D01*
X57640600Y-51575619D02*
X57783457Y-51623238D01*
X57783457Y-51623238D02*
X57878695Y-51718476D01*
X57878695Y-51718476D02*
X57926314Y-51813714D01*
X57926314Y-51813714D02*
X57973933Y-52004190D01*
X57973933Y-52004190D02*
X57973933Y-52147047D01*
X57973933Y-52147047D02*
X57926314Y-52337523D01*
X57926314Y-52337523D02*
X57878695Y-52432761D01*
X57878695Y-52432761D02*
X57783457Y-52528000D01*
X57783457Y-52528000D02*
X57640600Y-52575619D01*
X57640600Y-52575619D02*
X57402505Y-52575619D01*
X58926314Y-52575619D02*
X58354886Y-52575619D01*
X58640600Y-52575619D02*
X58640600Y-51575619D01*
X58640600Y-51575619D02*
X58545362Y-51718476D01*
X58545362Y-51718476D02*
X58450124Y-51813714D01*
X58450124Y-51813714D02*
X58354886Y-51861333D01*
X70956457Y-58413638D02*
X70908838Y-58508876D01*
X70908838Y-58508876D02*
X70813600Y-58604114D01*
X70813600Y-58604114D02*
X70670742Y-58746971D01*
X70670742Y-58746971D02*
X70623123Y-58842209D01*
X70623123Y-58842209D02*
X70623123Y-58937447D01*
X70861219Y-58889828D02*
X70813600Y-58985066D01*
X70813600Y-58985066D02*
X70718361Y-59080304D01*
X70718361Y-59080304D02*
X70527885Y-59127923D01*
X70527885Y-59127923D02*
X70194552Y-59127923D01*
X70194552Y-59127923D02*
X70004076Y-59080304D01*
X70004076Y-59080304D02*
X69908838Y-58985066D01*
X69908838Y-58985066D02*
X69861219Y-58889828D01*
X69861219Y-58889828D02*
X69861219Y-58699352D01*
X69861219Y-58699352D02*
X69908838Y-58604114D01*
X69908838Y-58604114D02*
X70004076Y-58508876D01*
X70004076Y-58508876D02*
X70194552Y-58461257D01*
X70194552Y-58461257D02*
X70527885Y-58461257D01*
X70527885Y-58461257D02*
X70718361Y-58508876D01*
X70718361Y-58508876D02*
X70813600Y-58604114D01*
X70813600Y-58604114D02*
X70861219Y-58699352D01*
X70861219Y-58699352D02*
X70861219Y-58889828D01*
X70861219Y-57508876D02*
X70861219Y-58080304D01*
X70861219Y-57794590D02*
X69861219Y-57794590D01*
X69861219Y-57794590D02*
X70004076Y-57889828D01*
X70004076Y-57889828D02*
X70099314Y-57985066D01*
X70099314Y-57985066D02*
X70146933Y-58080304D01*
X62947133Y-58679219D02*
X62613800Y-58203028D01*
X62375705Y-58679219D02*
X62375705Y-57679219D01*
X62375705Y-57679219D02*
X62756657Y-57679219D01*
X62756657Y-57679219D02*
X62851895Y-57726838D01*
X62851895Y-57726838D02*
X62899514Y-57774457D01*
X62899514Y-57774457D02*
X62947133Y-57869695D01*
X62947133Y-57869695D02*
X62947133Y-58012552D01*
X62947133Y-58012552D02*
X62899514Y-58107790D01*
X62899514Y-58107790D02*
X62851895Y-58155409D01*
X62851895Y-58155409D02*
X62756657Y-58203028D01*
X62756657Y-58203028D02*
X62375705Y-58203028D01*
X63328086Y-57774457D02*
X63375705Y-57726838D01*
X63375705Y-57726838D02*
X63470943Y-57679219D01*
X63470943Y-57679219D02*
X63709038Y-57679219D01*
X63709038Y-57679219D02*
X63804276Y-57726838D01*
X63804276Y-57726838D02*
X63851895Y-57774457D01*
X63851895Y-57774457D02*
X63899514Y-57869695D01*
X63899514Y-57869695D02*
X63899514Y-57964933D01*
X63899514Y-57964933D02*
X63851895Y-58107790D01*
X63851895Y-58107790D02*
X63280467Y-58679219D01*
X63280467Y-58679219D02*
X63899514Y-58679219D01*
X53440105Y-52956619D02*
X53440105Y-51956619D01*
X53440105Y-51956619D02*
X53678200Y-51956619D01*
X53678200Y-51956619D02*
X53821057Y-52004238D01*
X53821057Y-52004238D02*
X53916295Y-52099476D01*
X53916295Y-52099476D02*
X53963914Y-52194714D01*
X53963914Y-52194714D02*
X54011533Y-52385190D01*
X54011533Y-52385190D02*
X54011533Y-52528047D01*
X54011533Y-52528047D02*
X53963914Y-52718523D01*
X53963914Y-52718523D02*
X53916295Y-52813761D01*
X53916295Y-52813761D02*
X53821057Y-52909000D01*
X53821057Y-52909000D02*
X53678200Y-52956619D01*
X53678200Y-52956619D02*
X53440105Y-52956619D01*
X54392486Y-52051857D02*
X54440105Y-52004238D01*
X54440105Y-52004238D02*
X54535343Y-51956619D01*
X54535343Y-51956619D02*
X54773438Y-51956619D01*
X54773438Y-51956619D02*
X54868676Y-52004238D01*
X54868676Y-52004238D02*
X54916295Y-52051857D01*
X54916295Y-52051857D02*
X54963914Y-52147095D01*
X54963914Y-52147095D02*
X54963914Y-52242333D01*
X54963914Y-52242333D02*
X54916295Y-52385190D01*
X54916295Y-52385190D02*
X54344867Y-52956619D01*
X54344867Y-52956619D02*
X54963914Y-52956619D01*
D11*
%TO.C,J3*%
X60140000Y-62440000D02*
X55840000Y-62440000D01*
X60890000Y-57240000D02*
X59090000Y-57240000D01*
X52590000Y-57240000D02*
X50790000Y-57240000D01*
X59090000Y-57240000D02*
X59090000Y-57990000D01*
X60890000Y-59490000D02*
X60140000Y-59490000D01*
X60140000Y-59490000D02*
X60140000Y-62440000D01*
X57590000Y-57240000D02*
X54090000Y-57240000D01*
X60890000Y-57990000D02*
X60890000Y-57240000D01*
X51740000Y-56940000D02*
X50490000Y-56940000D01*
X60900000Y-57230000D02*
X50780000Y-57230000D01*
X50790000Y-57240000D02*
X50790000Y-57990000D01*
X51540000Y-62440000D02*
X55840000Y-62440000D01*
X57590000Y-57990000D02*
X57590000Y-57240000D01*
X50780000Y-57230000D02*
X50780000Y-63200000D01*
X50790000Y-59490000D02*
X51540000Y-59490000D01*
X51540000Y-59490000D02*
X51540000Y-62440000D01*
X59090000Y-57990000D02*
X60890000Y-57990000D01*
X52590000Y-57990000D02*
X52590000Y-57240000D01*
X54090000Y-57240000D02*
X54090000Y-57990000D01*
X60900000Y-63200000D02*
X60900000Y-57230000D01*
X50790000Y-57990000D02*
X52590000Y-57990000D01*
X54090000Y-57990000D02*
X57590000Y-57990000D01*
X50780000Y-63200000D02*
X60900000Y-63200000D01*
X50490000Y-56940000D02*
X50490000Y-58190000D01*
%TO.C,R1*%
X62876542Y-53274700D02*
X63351058Y-53274700D01*
X62876542Y-54319700D02*
X63351058Y-54319700D01*
%TO.C,J2*%
X66615000Y-51408800D02*
X79435000Y-51408800D01*
X79435000Y-51408800D02*
X79435000Y-43688800D01*
X72125000Y-50748800D02*
X72125000Y-51408800D01*
X75535000Y-50748800D02*
X72125000Y-50748800D01*
X77135000Y-50298800D02*
X77135000Y-49148800D01*
X79435000Y-50298800D02*
X77135000Y-50298800D01*
X66615000Y-50188800D02*
X66615000Y-51408800D01*
X69515000Y-50188800D02*
X66615000Y-50188800D01*
X69515000Y-49908800D02*
X69515000Y-50188800D01*
X72125000Y-49648800D02*
X75535000Y-49648800D01*
X75535000Y-49648800D02*
X75535000Y-50748800D01*
X68525000Y-49198800D02*
X68525000Y-48398800D01*
X72125000Y-49148800D02*
X72125000Y-49648800D01*
X77135000Y-49148800D02*
X72125000Y-49148800D01*
X68925000Y-48798800D02*
X68525000Y-49198800D01*
X68525000Y-48398800D02*
X68925000Y-48798800D01*
X73525000Y-47948800D02*
X73525000Y-47148800D01*
X75325000Y-47948800D02*
X73525000Y-47948800D01*
X73525000Y-47148800D02*
X75325000Y-47148800D01*
X75325000Y-47148800D02*
X75325000Y-47948800D01*
X72125000Y-45948800D02*
X72125000Y-45448800D01*
X77135000Y-45948800D02*
X72125000Y-45948800D01*
X77135000Y-45948800D02*
X77135000Y-44798800D01*
X72125000Y-45448800D02*
X75535000Y-45448800D01*
X75535000Y-45448800D02*
X75535000Y-44348800D01*
X66615000Y-44908800D02*
X69515000Y-44908800D01*
X69515000Y-44908800D02*
X69515000Y-45188800D01*
X77135000Y-44798800D02*
X79435000Y-44798800D01*
X72125000Y-44348800D02*
X72125000Y-43688800D01*
X75535000Y-44348800D02*
X72125000Y-44348800D01*
X66615000Y-43688800D02*
X66615000Y-44908800D01*
X79435000Y-43688800D02*
X66615000Y-43688800D01*
%TO.C,J1*%
X49010600Y-29399600D02*
X49010600Y-43709600D01*
X49010600Y-29399600D02*
X64730600Y-29399600D01*
X55580600Y-47819600D02*
X59320600Y-47819600D01*
X64730600Y-29399600D02*
X64730600Y-43709600D01*
X49010601Y-43709600D02*
G75*
G03*
X51003794Y-47232557I4109998J-1D01*
G01*
X61822248Y-47640013D02*
G75*
G03*
X64730600Y-43709600I-1201648J3930413D01*
G01*
%TO.C,D1*%
X60525000Y-54949600D02*
X60525000Y-52949600D01*
X60525000Y-54949600D02*
X56515000Y-54949600D01*
X60525000Y-52949600D02*
X56515000Y-52949600D01*
%TO.C,Q1*%
X69406400Y-53198400D02*
X64765400Y-53198400D01*
X69406400Y-53198400D02*
X69406400Y-63438400D01*
X67896400Y-53198400D02*
X67896400Y-63438400D01*
X64765400Y-53198400D02*
X64765400Y-63438400D01*
X69406400Y-56468400D02*
X67896400Y-56468400D01*
X69406400Y-60169400D02*
X67896400Y-60169400D01*
X69406400Y-63438400D02*
X64765400Y-63438400D01*
%TO.C,R2*%
X63351058Y-57316900D02*
X62876542Y-57316900D01*
X63351058Y-56271900D02*
X62876542Y-56271900D01*
%TO.C,D2*%
X52568200Y-53252000D02*
X52568200Y-54952000D01*
X52568200Y-53252000D02*
X55228200Y-53252000D01*
X52568200Y-54952000D02*
X55228200Y-54952000D01*
%TD*%
M02*
