%TF.GenerationSoftware,KiCad,Pcbnew,7.0.11-rc3*%
%TF.CreationDate,2025-03-25T15:56:03+09:00*%
%TF.ProjectId,RDC_Humanoid_Power_Relay_Switch,5244435f-4875-46d6-916e-6f69645f506f,rev?*%
%TF.SameCoordinates,Original*%
%TF.FileFunction,Legend,Bot*%
%TF.FilePolarity,Positive*%
%FSLAX46Y46*%
G04 Gerber Fmt 4.6, Leading zero omitted, Abs format (unit mm)*
G04 Created by KiCad (PCBNEW 7.0.11-rc3) date 2025-03-25 15:56:03*
%MOMM*%
%LPD*%
G01*
G04 APERTURE LIST*
%ADD10C,0.100000*%
G04 APERTURE END LIST*
D10*
X40610471Y-41516131D02*
X40224757Y-41266131D01*
X40610471Y-41087560D02*
X39800471Y-41087560D01*
X39800471Y-41087560D02*
X39800471Y-41373274D01*
X39800471Y-41373274D02*
X39839042Y-41444703D01*
X39839042Y-41444703D02*
X39877614Y-41480417D01*
X39877614Y-41480417D02*
X39954757Y-41516131D01*
X39954757Y-41516131D02*
X40070471Y-41516131D01*
X40070471Y-41516131D02*
X40147614Y-41480417D01*
X40147614Y-41480417D02*
X40186185Y-41444703D01*
X40186185Y-41444703D02*
X40224757Y-41373274D01*
X40224757Y-41373274D02*
X40224757Y-41087560D01*
X40610471Y-41837560D02*
X39800471Y-41837560D01*
X39800471Y-41837560D02*
X39800471Y-42016131D01*
X39800471Y-42016131D02*
X39839042Y-42123274D01*
X39839042Y-42123274D02*
X39916185Y-42194703D01*
X39916185Y-42194703D02*
X39993328Y-42230417D01*
X39993328Y-42230417D02*
X40147614Y-42266131D01*
X40147614Y-42266131D02*
X40263328Y-42266131D01*
X40263328Y-42266131D02*
X40417614Y-42230417D01*
X40417614Y-42230417D02*
X40494757Y-42194703D01*
X40494757Y-42194703D02*
X40571900Y-42123274D01*
X40571900Y-42123274D02*
X40610471Y-42016131D01*
X40610471Y-42016131D02*
X40610471Y-41837560D01*
X40533328Y-43016131D02*
X40571900Y-42980417D01*
X40571900Y-42980417D02*
X40610471Y-42873274D01*
X40610471Y-42873274D02*
X40610471Y-42801846D01*
X40610471Y-42801846D02*
X40571900Y-42694703D01*
X40571900Y-42694703D02*
X40494757Y-42623274D01*
X40494757Y-42623274D02*
X40417614Y-42587560D01*
X40417614Y-42587560D02*
X40263328Y-42551846D01*
X40263328Y-42551846D02*
X40147614Y-42551846D01*
X40147614Y-42551846D02*
X39993328Y-42587560D01*
X39993328Y-42587560D02*
X39916185Y-42623274D01*
X39916185Y-42623274D02*
X39839042Y-42694703D01*
X39839042Y-42694703D02*
X39800471Y-42801846D01*
X39800471Y-42801846D02*
X39800471Y-42873274D01*
X39800471Y-42873274D02*
X39839042Y-42980417D01*
X39839042Y-42980417D02*
X39877614Y-43016131D01*
X40687614Y-43158989D02*
X40687614Y-43730417D01*
X40186185Y-44158989D02*
X40224757Y-44266132D01*
X40224757Y-44266132D02*
X40263328Y-44301846D01*
X40263328Y-44301846D02*
X40340471Y-44337560D01*
X40340471Y-44337560D02*
X40456185Y-44337560D01*
X40456185Y-44337560D02*
X40533328Y-44301846D01*
X40533328Y-44301846D02*
X40571900Y-44266132D01*
X40571900Y-44266132D02*
X40610471Y-44194703D01*
X40610471Y-44194703D02*
X40610471Y-43908989D01*
X40610471Y-43908989D02*
X39800471Y-43908989D01*
X39800471Y-43908989D02*
X39800471Y-44158989D01*
X39800471Y-44158989D02*
X39839042Y-44230418D01*
X39839042Y-44230418D02*
X39877614Y-44266132D01*
X39877614Y-44266132D02*
X39954757Y-44301846D01*
X39954757Y-44301846D02*
X40031900Y-44301846D01*
X40031900Y-44301846D02*
X40109042Y-44266132D01*
X40109042Y-44266132D02*
X40147614Y-44230418D01*
X40147614Y-44230418D02*
X40186185Y-44158989D01*
X40186185Y-44158989D02*
X40186185Y-43908989D01*
X40610471Y-44658989D02*
X40070471Y-44658989D01*
X39800471Y-44658989D02*
X39839042Y-44623275D01*
X39839042Y-44623275D02*
X39877614Y-44658989D01*
X39877614Y-44658989D02*
X39839042Y-44694703D01*
X39839042Y-44694703D02*
X39800471Y-44658989D01*
X39800471Y-44658989D02*
X39877614Y-44658989D01*
X40070471Y-45016132D02*
X40880471Y-45016132D01*
X40109042Y-45016132D02*
X40070471Y-45087561D01*
X40070471Y-45087561D02*
X40070471Y-45230418D01*
X40070471Y-45230418D02*
X40109042Y-45301846D01*
X40109042Y-45301846D02*
X40147614Y-45337561D01*
X40147614Y-45337561D02*
X40224757Y-45373275D01*
X40224757Y-45373275D02*
X40456185Y-45373275D01*
X40456185Y-45373275D02*
X40533328Y-45337561D01*
X40533328Y-45337561D02*
X40571900Y-45301846D01*
X40571900Y-45301846D02*
X40610471Y-45230418D01*
X40610471Y-45230418D02*
X40610471Y-45087561D01*
X40610471Y-45087561D02*
X40571900Y-45016132D01*
X40571900Y-45980417D02*
X40610471Y-45908989D01*
X40610471Y-45908989D02*
X40610471Y-45766132D01*
X40610471Y-45766132D02*
X40571900Y-45694703D01*
X40571900Y-45694703D02*
X40494757Y-45658989D01*
X40494757Y-45658989D02*
X40186185Y-45658989D01*
X40186185Y-45658989D02*
X40109042Y-45694703D01*
X40109042Y-45694703D02*
X40070471Y-45766132D01*
X40070471Y-45766132D02*
X40070471Y-45908989D01*
X40070471Y-45908989D02*
X40109042Y-45980417D01*
X40109042Y-45980417D02*
X40186185Y-46016132D01*
X40186185Y-46016132D02*
X40263328Y-46016132D01*
X40263328Y-46016132D02*
X40340471Y-45658989D01*
X40610471Y-46658989D02*
X39800471Y-46658989D01*
X40571900Y-46658989D02*
X40610471Y-46587560D01*
X40610471Y-46587560D02*
X40610471Y-46444703D01*
X40610471Y-46444703D02*
X40571900Y-46373274D01*
X40571900Y-46373274D02*
X40533328Y-46337560D01*
X40533328Y-46337560D02*
X40456185Y-46301846D01*
X40456185Y-46301846D02*
X40224757Y-46301846D01*
X40224757Y-46301846D02*
X40147614Y-46337560D01*
X40147614Y-46337560D02*
X40109042Y-46373274D01*
X40109042Y-46373274D02*
X40070471Y-46444703D01*
X40070471Y-46444703D02*
X40070471Y-46587560D01*
X40070471Y-46587560D02*
X40109042Y-46658989D01*
X40610471Y-47337560D02*
X40186185Y-47337560D01*
X40186185Y-47337560D02*
X40109042Y-47301845D01*
X40109042Y-47301845D02*
X40070471Y-47230417D01*
X40070471Y-47230417D02*
X40070471Y-47087560D01*
X40070471Y-47087560D02*
X40109042Y-47016131D01*
X40571900Y-47337560D02*
X40610471Y-47266131D01*
X40610471Y-47266131D02*
X40610471Y-47087560D01*
X40610471Y-47087560D02*
X40571900Y-47016131D01*
X40571900Y-47016131D02*
X40494757Y-46980417D01*
X40494757Y-46980417D02*
X40417614Y-46980417D01*
X40417614Y-46980417D02*
X40340471Y-47016131D01*
X40340471Y-47016131D02*
X40301900Y-47087560D01*
X40301900Y-47087560D02*
X40301900Y-47266131D01*
X40301900Y-47266131D02*
X40263328Y-47337560D01*
X40610471Y-47801845D02*
X40571900Y-47730416D01*
X40571900Y-47730416D02*
X40494757Y-47694702D01*
X40494757Y-47694702D02*
X39800471Y-47694702D01*
X40687614Y-47908988D02*
X40687614Y-48480416D01*
X40610471Y-49087559D02*
X40224757Y-48837559D01*
X40610471Y-48658988D02*
X39800471Y-48658988D01*
X39800471Y-48658988D02*
X39800471Y-48944702D01*
X39800471Y-48944702D02*
X39839042Y-49016131D01*
X39839042Y-49016131D02*
X39877614Y-49051845D01*
X39877614Y-49051845D02*
X39954757Y-49087559D01*
X39954757Y-49087559D02*
X40070471Y-49087559D01*
X40070471Y-49087559D02*
X40147614Y-49051845D01*
X40147614Y-49051845D02*
X40186185Y-49016131D01*
X40186185Y-49016131D02*
X40224757Y-48944702D01*
X40224757Y-48944702D02*
X40224757Y-48658988D01*
X40610471Y-49516131D02*
X40571900Y-49444702D01*
X40571900Y-49444702D02*
X40533328Y-49408988D01*
X40533328Y-49408988D02*
X40456185Y-49373274D01*
X40456185Y-49373274D02*
X40224757Y-49373274D01*
X40224757Y-49373274D02*
X40147614Y-49408988D01*
X40147614Y-49408988D02*
X40109042Y-49444702D01*
X40109042Y-49444702D02*
X40070471Y-49516131D01*
X40070471Y-49516131D02*
X40070471Y-49623274D01*
X40070471Y-49623274D02*
X40109042Y-49694702D01*
X40109042Y-49694702D02*
X40147614Y-49730417D01*
X40147614Y-49730417D02*
X40224757Y-49766131D01*
X40224757Y-49766131D02*
X40456185Y-49766131D01*
X40456185Y-49766131D02*
X40533328Y-49730417D01*
X40533328Y-49730417D02*
X40571900Y-49694702D01*
X40571900Y-49694702D02*
X40610471Y-49623274D01*
X40610471Y-49623274D02*
X40610471Y-49516131D01*
X40610471Y-50087559D02*
X39800471Y-50087559D01*
X40109042Y-50087559D02*
X40070471Y-50158988D01*
X40070471Y-50158988D02*
X40070471Y-50301845D01*
X40070471Y-50301845D02*
X40109042Y-50373273D01*
X40109042Y-50373273D02*
X40147614Y-50408988D01*
X40147614Y-50408988D02*
X40224757Y-50444702D01*
X40224757Y-50444702D02*
X40456185Y-50444702D01*
X40456185Y-50444702D02*
X40533328Y-50408988D01*
X40533328Y-50408988D02*
X40571900Y-50373273D01*
X40571900Y-50373273D02*
X40610471Y-50301845D01*
X40610471Y-50301845D02*
X40610471Y-50158988D01*
X40610471Y-50158988D02*
X40571900Y-50087559D01*
X40610471Y-50873273D02*
X40571900Y-50801844D01*
X40571900Y-50801844D02*
X40533328Y-50766130D01*
X40533328Y-50766130D02*
X40456185Y-50730416D01*
X40456185Y-50730416D02*
X40224757Y-50730416D01*
X40224757Y-50730416D02*
X40147614Y-50766130D01*
X40147614Y-50766130D02*
X40109042Y-50801844D01*
X40109042Y-50801844D02*
X40070471Y-50873273D01*
X40070471Y-50873273D02*
X40070471Y-50980416D01*
X40070471Y-50980416D02*
X40109042Y-51051844D01*
X40109042Y-51051844D02*
X40147614Y-51087559D01*
X40147614Y-51087559D02*
X40224757Y-51123273D01*
X40224757Y-51123273D02*
X40456185Y-51123273D01*
X40456185Y-51123273D02*
X40533328Y-51087559D01*
X40533328Y-51087559D02*
X40571900Y-51051844D01*
X40571900Y-51051844D02*
X40610471Y-50980416D01*
X40610471Y-50980416D02*
X40610471Y-50873273D01*
X40070471Y-51337558D02*
X40070471Y-51623272D01*
X39800471Y-51444701D02*
X40494757Y-51444701D01*
X40494757Y-51444701D02*
X40571900Y-51480415D01*
X40571900Y-51480415D02*
X40610471Y-51551844D01*
X40610471Y-51551844D02*
X40610471Y-51623272D01*
X41606000Y-41087560D02*
X41606000Y-41658989D01*
X41837428Y-43016131D02*
X41876000Y-42980417D01*
X41876000Y-42980417D02*
X41914571Y-42873274D01*
X41914571Y-42873274D02*
X41914571Y-42801846D01*
X41914571Y-42801846D02*
X41876000Y-42694703D01*
X41876000Y-42694703D02*
X41798857Y-42623274D01*
X41798857Y-42623274D02*
X41721714Y-42587560D01*
X41721714Y-42587560D02*
X41567428Y-42551846D01*
X41567428Y-42551846D02*
X41451714Y-42551846D01*
X41451714Y-42551846D02*
X41297428Y-42587560D01*
X41297428Y-42587560D02*
X41220285Y-42623274D01*
X41220285Y-42623274D02*
X41143142Y-42694703D01*
X41143142Y-42694703D02*
X41104571Y-42801846D01*
X41104571Y-42801846D02*
X41104571Y-42873274D01*
X41104571Y-42873274D02*
X41143142Y-42980417D01*
X41143142Y-42980417D02*
X41181714Y-43016131D01*
X41914571Y-43337560D02*
X41374571Y-43337560D01*
X41104571Y-43337560D02*
X41143142Y-43301846D01*
X41143142Y-43301846D02*
X41181714Y-43337560D01*
X41181714Y-43337560D02*
X41143142Y-43373274D01*
X41143142Y-43373274D02*
X41104571Y-43337560D01*
X41104571Y-43337560D02*
X41181714Y-43337560D01*
X41914571Y-43694703D02*
X41374571Y-43694703D01*
X41528857Y-43694703D02*
X41451714Y-43730417D01*
X41451714Y-43730417D02*
X41413142Y-43766132D01*
X41413142Y-43766132D02*
X41374571Y-43837560D01*
X41374571Y-43837560D02*
X41374571Y-43908989D01*
X41876000Y-44480418D02*
X41914571Y-44408989D01*
X41914571Y-44408989D02*
X41914571Y-44266132D01*
X41914571Y-44266132D02*
X41876000Y-44194703D01*
X41876000Y-44194703D02*
X41837428Y-44158989D01*
X41837428Y-44158989D02*
X41760285Y-44123275D01*
X41760285Y-44123275D02*
X41528857Y-44123275D01*
X41528857Y-44123275D02*
X41451714Y-44158989D01*
X41451714Y-44158989D02*
X41413142Y-44194703D01*
X41413142Y-44194703D02*
X41374571Y-44266132D01*
X41374571Y-44266132D02*
X41374571Y-44408989D01*
X41374571Y-44408989D02*
X41413142Y-44480418D01*
X41374571Y-45123275D02*
X41914571Y-45123275D01*
X41374571Y-44801846D02*
X41798857Y-44801846D01*
X41798857Y-44801846D02*
X41876000Y-44837560D01*
X41876000Y-44837560D02*
X41914571Y-44908989D01*
X41914571Y-44908989D02*
X41914571Y-45016132D01*
X41914571Y-45016132D02*
X41876000Y-45087560D01*
X41876000Y-45087560D02*
X41837428Y-45123275D01*
X41914571Y-45480417D02*
X41374571Y-45480417D01*
X41104571Y-45480417D02*
X41143142Y-45444703D01*
X41143142Y-45444703D02*
X41181714Y-45480417D01*
X41181714Y-45480417D02*
X41143142Y-45516131D01*
X41143142Y-45516131D02*
X41104571Y-45480417D01*
X41104571Y-45480417D02*
X41181714Y-45480417D01*
X41374571Y-45730417D02*
X41374571Y-46016131D01*
X41104571Y-45837560D02*
X41798857Y-45837560D01*
X41798857Y-45837560D02*
X41876000Y-45873274D01*
X41876000Y-45873274D02*
X41914571Y-45944703D01*
X41914571Y-45944703D02*
X41914571Y-46016131D01*
X41914571Y-46837560D02*
X41104571Y-46837560D01*
X41104571Y-46837560D02*
X41914571Y-47266131D01*
X41914571Y-47266131D02*
X41104571Y-47266131D01*
X41914571Y-47944703D02*
X41490285Y-47944703D01*
X41490285Y-47944703D02*
X41413142Y-47908988D01*
X41413142Y-47908988D02*
X41374571Y-47837560D01*
X41374571Y-47837560D02*
X41374571Y-47694703D01*
X41374571Y-47694703D02*
X41413142Y-47623274D01*
X41876000Y-47944703D02*
X41914571Y-47873274D01*
X41914571Y-47873274D02*
X41914571Y-47694703D01*
X41914571Y-47694703D02*
X41876000Y-47623274D01*
X41876000Y-47623274D02*
X41798857Y-47587560D01*
X41798857Y-47587560D02*
X41721714Y-47587560D01*
X41721714Y-47587560D02*
X41644571Y-47623274D01*
X41644571Y-47623274D02*
X41606000Y-47694703D01*
X41606000Y-47694703D02*
X41606000Y-47873274D01*
X41606000Y-47873274D02*
X41567428Y-47944703D01*
X41914571Y-48301845D02*
X41374571Y-48301845D01*
X41451714Y-48301845D02*
X41413142Y-48337559D01*
X41413142Y-48337559D02*
X41374571Y-48408988D01*
X41374571Y-48408988D02*
X41374571Y-48516131D01*
X41374571Y-48516131D02*
X41413142Y-48587559D01*
X41413142Y-48587559D02*
X41490285Y-48623274D01*
X41490285Y-48623274D02*
X41914571Y-48623274D01*
X41490285Y-48623274D02*
X41413142Y-48658988D01*
X41413142Y-48658988D02*
X41374571Y-48730416D01*
X41374571Y-48730416D02*
X41374571Y-48837559D01*
X41374571Y-48837559D02*
X41413142Y-48908988D01*
X41413142Y-48908988D02*
X41490285Y-48944702D01*
X41490285Y-48944702D02*
X41914571Y-48944702D01*
X41876000Y-49587559D02*
X41914571Y-49516131D01*
X41914571Y-49516131D02*
X41914571Y-49373274D01*
X41914571Y-49373274D02*
X41876000Y-49301845D01*
X41876000Y-49301845D02*
X41798857Y-49266131D01*
X41798857Y-49266131D02*
X41490285Y-49266131D01*
X41490285Y-49266131D02*
X41413142Y-49301845D01*
X41413142Y-49301845D02*
X41374571Y-49373274D01*
X41374571Y-49373274D02*
X41374571Y-49516131D01*
X41374571Y-49516131D02*
X41413142Y-49587559D01*
X41413142Y-49587559D02*
X41490285Y-49623274D01*
X41490285Y-49623274D02*
X41567428Y-49623274D01*
X41567428Y-49623274D02*
X41644571Y-49266131D01*
X41837428Y-51087560D02*
X41876000Y-51123274D01*
X41876000Y-51123274D02*
X41914571Y-51087560D01*
X41914571Y-51087560D02*
X41876000Y-51051846D01*
X41876000Y-51051846D02*
X41837428Y-51087560D01*
X41837428Y-51087560D02*
X41914571Y-51087560D01*
X41413142Y-51087560D02*
X41451714Y-51123274D01*
X41451714Y-51123274D02*
X41490285Y-51087560D01*
X41490285Y-51087560D02*
X41451714Y-51051846D01*
X41451714Y-51051846D02*
X41413142Y-51087560D01*
X41413142Y-51087560D02*
X41490285Y-51087560D01*
X41914571Y-52444703D02*
X41528857Y-52194703D01*
X41914571Y-52016132D02*
X41104571Y-52016132D01*
X41104571Y-52016132D02*
X41104571Y-52301846D01*
X41104571Y-52301846D02*
X41143142Y-52373275D01*
X41143142Y-52373275D02*
X41181714Y-52408989D01*
X41181714Y-52408989D02*
X41258857Y-52444703D01*
X41258857Y-52444703D02*
X41374571Y-52444703D01*
X41374571Y-52444703D02*
X41451714Y-52408989D01*
X41451714Y-52408989D02*
X41490285Y-52373275D01*
X41490285Y-52373275D02*
X41528857Y-52301846D01*
X41528857Y-52301846D02*
X41528857Y-52016132D01*
X41876000Y-53051846D02*
X41914571Y-52980418D01*
X41914571Y-52980418D02*
X41914571Y-52837561D01*
X41914571Y-52837561D02*
X41876000Y-52766132D01*
X41876000Y-52766132D02*
X41798857Y-52730418D01*
X41798857Y-52730418D02*
X41490285Y-52730418D01*
X41490285Y-52730418D02*
X41413142Y-52766132D01*
X41413142Y-52766132D02*
X41374571Y-52837561D01*
X41374571Y-52837561D02*
X41374571Y-52980418D01*
X41374571Y-52980418D02*
X41413142Y-53051846D01*
X41413142Y-53051846D02*
X41490285Y-53087561D01*
X41490285Y-53087561D02*
X41567428Y-53087561D01*
X41567428Y-53087561D02*
X41644571Y-52730418D01*
X41914571Y-53516132D02*
X41876000Y-53444703D01*
X41876000Y-53444703D02*
X41798857Y-53408989D01*
X41798857Y-53408989D02*
X41104571Y-53408989D01*
X41914571Y-54123275D02*
X41490285Y-54123275D01*
X41490285Y-54123275D02*
X41413142Y-54087560D01*
X41413142Y-54087560D02*
X41374571Y-54016132D01*
X41374571Y-54016132D02*
X41374571Y-53873275D01*
X41374571Y-53873275D02*
X41413142Y-53801846D01*
X41876000Y-54123275D02*
X41914571Y-54051846D01*
X41914571Y-54051846D02*
X41914571Y-53873275D01*
X41914571Y-53873275D02*
X41876000Y-53801846D01*
X41876000Y-53801846D02*
X41798857Y-53766132D01*
X41798857Y-53766132D02*
X41721714Y-53766132D01*
X41721714Y-53766132D02*
X41644571Y-53801846D01*
X41644571Y-53801846D02*
X41606000Y-53873275D01*
X41606000Y-53873275D02*
X41606000Y-54051846D01*
X41606000Y-54051846D02*
X41567428Y-54123275D01*
X41374571Y-54408988D02*
X41914571Y-54587560D01*
X41374571Y-54766131D02*
X41914571Y-54587560D01*
X41914571Y-54587560D02*
X42107428Y-54516131D01*
X42107428Y-54516131D02*
X42146000Y-54480417D01*
X42146000Y-54480417D02*
X42184571Y-54408988D01*
X41991714Y-54873275D02*
X41991714Y-55444703D01*
X41876000Y-55587561D02*
X41914571Y-55694704D01*
X41914571Y-55694704D02*
X41914571Y-55873275D01*
X41914571Y-55873275D02*
X41876000Y-55944704D01*
X41876000Y-55944704D02*
X41837428Y-55980418D01*
X41837428Y-55980418D02*
X41760285Y-56016132D01*
X41760285Y-56016132D02*
X41683142Y-56016132D01*
X41683142Y-56016132D02*
X41606000Y-55980418D01*
X41606000Y-55980418D02*
X41567428Y-55944704D01*
X41567428Y-55944704D02*
X41528857Y-55873275D01*
X41528857Y-55873275D02*
X41490285Y-55730418D01*
X41490285Y-55730418D02*
X41451714Y-55658989D01*
X41451714Y-55658989D02*
X41413142Y-55623275D01*
X41413142Y-55623275D02*
X41336000Y-55587561D01*
X41336000Y-55587561D02*
X41258857Y-55587561D01*
X41258857Y-55587561D02*
X41181714Y-55623275D01*
X41181714Y-55623275D02*
X41143142Y-55658989D01*
X41143142Y-55658989D02*
X41104571Y-55730418D01*
X41104571Y-55730418D02*
X41104571Y-55908989D01*
X41104571Y-55908989D02*
X41143142Y-56016132D01*
X41374571Y-56266132D02*
X41914571Y-56408990D01*
X41914571Y-56408990D02*
X41528857Y-56551847D01*
X41528857Y-56551847D02*
X41914571Y-56694704D01*
X41914571Y-56694704D02*
X41374571Y-56837561D01*
X41914571Y-57123275D02*
X41374571Y-57123275D01*
X41104571Y-57123275D02*
X41143142Y-57087561D01*
X41143142Y-57087561D02*
X41181714Y-57123275D01*
X41181714Y-57123275D02*
X41143142Y-57158989D01*
X41143142Y-57158989D02*
X41104571Y-57123275D01*
X41104571Y-57123275D02*
X41181714Y-57123275D01*
X41374571Y-57373275D02*
X41374571Y-57658989D01*
X41104571Y-57480418D02*
X41798857Y-57480418D01*
X41798857Y-57480418D02*
X41876000Y-57516132D01*
X41876000Y-57516132D02*
X41914571Y-57587561D01*
X41914571Y-57587561D02*
X41914571Y-57658989D01*
X41876000Y-58230418D02*
X41914571Y-58158989D01*
X41914571Y-58158989D02*
X41914571Y-58016132D01*
X41914571Y-58016132D02*
X41876000Y-57944703D01*
X41876000Y-57944703D02*
X41837428Y-57908989D01*
X41837428Y-57908989D02*
X41760285Y-57873275D01*
X41760285Y-57873275D02*
X41528857Y-57873275D01*
X41528857Y-57873275D02*
X41451714Y-57908989D01*
X41451714Y-57908989D02*
X41413142Y-57944703D01*
X41413142Y-57944703D02*
X41374571Y-58016132D01*
X41374571Y-58016132D02*
X41374571Y-58158989D01*
X41374571Y-58158989D02*
X41413142Y-58230418D01*
X41914571Y-58551846D02*
X41104571Y-58551846D01*
X41914571Y-58873275D02*
X41490285Y-58873275D01*
X41490285Y-58873275D02*
X41413142Y-58837560D01*
X41413142Y-58837560D02*
X41374571Y-58766132D01*
X41374571Y-58766132D02*
X41374571Y-58658989D01*
X41374571Y-58658989D02*
X41413142Y-58587560D01*
X41413142Y-58587560D02*
X41451714Y-58551846D01*
X42910100Y-41087560D02*
X42910100Y-41658989D01*
X42408671Y-42480417D02*
X43218671Y-42730417D01*
X43218671Y-42730417D02*
X42408671Y-42980417D01*
X43180100Y-43516131D02*
X43218671Y-43444703D01*
X43218671Y-43444703D02*
X43218671Y-43301846D01*
X43218671Y-43301846D02*
X43180100Y-43230417D01*
X43180100Y-43230417D02*
X43102957Y-43194703D01*
X43102957Y-43194703D02*
X42794385Y-43194703D01*
X42794385Y-43194703D02*
X42717242Y-43230417D01*
X42717242Y-43230417D02*
X42678671Y-43301846D01*
X42678671Y-43301846D02*
X42678671Y-43444703D01*
X42678671Y-43444703D02*
X42717242Y-43516131D01*
X42717242Y-43516131D02*
X42794385Y-43551846D01*
X42794385Y-43551846D02*
X42871528Y-43551846D01*
X42871528Y-43551846D02*
X42948671Y-43194703D01*
X43218671Y-43873274D02*
X42678671Y-43873274D01*
X42832957Y-43873274D02*
X42755814Y-43908988D01*
X42755814Y-43908988D02*
X42717242Y-43944703D01*
X42717242Y-43944703D02*
X42678671Y-44016131D01*
X42678671Y-44016131D02*
X42678671Y-44087560D01*
X43180100Y-44301846D02*
X43218671Y-44373274D01*
X43218671Y-44373274D02*
X43218671Y-44516131D01*
X43218671Y-44516131D02*
X43180100Y-44587560D01*
X43180100Y-44587560D02*
X43102957Y-44623274D01*
X43102957Y-44623274D02*
X43064385Y-44623274D01*
X43064385Y-44623274D02*
X42987242Y-44587560D01*
X42987242Y-44587560D02*
X42948671Y-44516131D01*
X42948671Y-44516131D02*
X42948671Y-44408989D01*
X42948671Y-44408989D02*
X42910100Y-44337560D01*
X42910100Y-44337560D02*
X42832957Y-44301846D01*
X42832957Y-44301846D02*
X42794385Y-44301846D01*
X42794385Y-44301846D02*
X42717242Y-44337560D01*
X42717242Y-44337560D02*
X42678671Y-44408989D01*
X42678671Y-44408989D02*
X42678671Y-44516131D01*
X42678671Y-44516131D02*
X42717242Y-44587560D01*
X43218671Y-44944703D02*
X42678671Y-44944703D01*
X42408671Y-44944703D02*
X42447242Y-44908989D01*
X42447242Y-44908989D02*
X42485814Y-44944703D01*
X42485814Y-44944703D02*
X42447242Y-44980417D01*
X42447242Y-44980417D02*
X42408671Y-44944703D01*
X42408671Y-44944703D02*
X42485814Y-44944703D01*
X43218671Y-45408989D02*
X43180100Y-45337560D01*
X43180100Y-45337560D02*
X43141528Y-45301846D01*
X43141528Y-45301846D02*
X43064385Y-45266132D01*
X43064385Y-45266132D02*
X42832957Y-45266132D01*
X42832957Y-45266132D02*
X42755814Y-45301846D01*
X42755814Y-45301846D02*
X42717242Y-45337560D01*
X42717242Y-45337560D02*
X42678671Y-45408989D01*
X42678671Y-45408989D02*
X42678671Y-45516132D01*
X42678671Y-45516132D02*
X42717242Y-45587560D01*
X42717242Y-45587560D02*
X42755814Y-45623275D01*
X42755814Y-45623275D02*
X42832957Y-45658989D01*
X42832957Y-45658989D02*
X43064385Y-45658989D01*
X43064385Y-45658989D02*
X43141528Y-45623275D01*
X43141528Y-45623275D02*
X43180100Y-45587560D01*
X43180100Y-45587560D02*
X43218671Y-45516132D01*
X43218671Y-45516132D02*
X43218671Y-45408989D01*
X42678671Y-45980417D02*
X43218671Y-45980417D01*
X42755814Y-45980417D02*
X42717242Y-46016131D01*
X42717242Y-46016131D02*
X42678671Y-46087560D01*
X42678671Y-46087560D02*
X42678671Y-46194703D01*
X42678671Y-46194703D02*
X42717242Y-46266131D01*
X42717242Y-46266131D02*
X42794385Y-46301846D01*
X42794385Y-46301846D02*
X43218671Y-46301846D01*
X43141528Y-51230420D02*
X43180100Y-51266134D01*
X43180100Y-51266134D02*
X43218671Y-51230420D01*
X43218671Y-51230420D02*
X43180100Y-51194706D01*
X43180100Y-51194706D02*
X43141528Y-51230420D01*
X43141528Y-51230420D02*
X43218671Y-51230420D01*
X42717242Y-51230420D02*
X42755814Y-51266134D01*
X42755814Y-51266134D02*
X42794385Y-51230420D01*
X42794385Y-51230420D02*
X42755814Y-51194706D01*
X42755814Y-51194706D02*
X42717242Y-51230420D01*
X42717242Y-51230420D02*
X42794385Y-51230420D01*
X42485814Y-52123278D02*
X42447242Y-52158992D01*
X42447242Y-52158992D02*
X42408671Y-52230421D01*
X42408671Y-52230421D02*
X42408671Y-52408992D01*
X42408671Y-52408992D02*
X42447242Y-52480421D01*
X42447242Y-52480421D02*
X42485814Y-52516135D01*
X42485814Y-52516135D02*
X42562957Y-52551849D01*
X42562957Y-52551849D02*
X42640100Y-52551849D01*
X42640100Y-52551849D02*
X42755814Y-52516135D01*
X42755814Y-52516135D02*
X43218671Y-52087563D01*
X43218671Y-52087563D02*
X43218671Y-52551849D01*
X43141528Y-52873278D02*
X43180100Y-52908992D01*
X43180100Y-52908992D02*
X43218671Y-52873278D01*
X43218671Y-52873278D02*
X43180100Y-52837564D01*
X43180100Y-52837564D02*
X43141528Y-52873278D01*
X43141528Y-52873278D02*
X43218671Y-52873278D01*
X42408671Y-53373278D02*
X42408671Y-53444707D01*
X42408671Y-53444707D02*
X42447242Y-53516135D01*
X42447242Y-53516135D02*
X42485814Y-53551850D01*
X42485814Y-53551850D02*
X42562957Y-53587564D01*
X42562957Y-53587564D02*
X42717242Y-53623278D01*
X42717242Y-53623278D02*
X42910100Y-53623278D01*
X42910100Y-53623278D02*
X43064385Y-53587564D01*
X43064385Y-53587564D02*
X43141528Y-53551850D01*
X43141528Y-53551850D02*
X43180100Y-53516135D01*
X43180100Y-53516135D02*
X43218671Y-53444707D01*
X43218671Y-53444707D02*
X43218671Y-53373278D01*
X43218671Y-53373278D02*
X43180100Y-53301850D01*
X43180100Y-53301850D02*
X43141528Y-53266135D01*
X43141528Y-53266135D02*
X43064385Y-53230421D01*
X43064385Y-53230421D02*
X42910100Y-53194707D01*
X42910100Y-53194707D02*
X42717242Y-53194707D01*
X42717242Y-53194707D02*
X42562957Y-53230421D01*
X42562957Y-53230421D02*
X42485814Y-53266135D01*
X42485814Y-53266135D02*
X42447242Y-53301850D01*
X42447242Y-53301850D02*
X42408671Y-53373278D01*
X44214200Y-41087560D02*
X44214200Y-41658989D01*
X44522771Y-42587560D02*
X43712771Y-42587560D01*
X43712771Y-42587560D02*
X43712771Y-42766131D01*
X43712771Y-42766131D02*
X43751342Y-42873274D01*
X43751342Y-42873274D02*
X43828485Y-42944703D01*
X43828485Y-42944703D02*
X43905628Y-42980417D01*
X43905628Y-42980417D02*
X44059914Y-43016131D01*
X44059914Y-43016131D02*
X44175628Y-43016131D01*
X44175628Y-43016131D02*
X44329914Y-42980417D01*
X44329914Y-42980417D02*
X44407057Y-42944703D01*
X44407057Y-42944703D02*
X44484200Y-42873274D01*
X44484200Y-42873274D02*
X44522771Y-42766131D01*
X44522771Y-42766131D02*
X44522771Y-42587560D01*
X44484200Y-43623274D02*
X44522771Y-43551846D01*
X44522771Y-43551846D02*
X44522771Y-43408989D01*
X44522771Y-43408989D02*
X44484200Y-43337560D01*
X44484200Y-43337560D02*
X44407057Y-43301846D01*
X44407057Y-43301846D02*
X44098485Y-43301846D01*
X44098485Y-43301846D02*
X44021342Y-43337560D01*
X44021342Y-43337560D02*
X43982771Y-43408989D01*
X43982771Y-43408989D02*
X43982771Y-43551846D01*
X43982771Y-43551846D02*
X44021342Y-43623274D01*
X44021342Y-43623274D02*
X44098485Y-43658989D01*
X44098485Y-43658989D02*
X44175628Y-43658989D01*
X44175628Y-43658989D02*
X44252771Y-43301846D01*
X44484200Y-43944703D02*
X44522771Y-44016131D01*
X44522771Y-44016131D02*
X44522771Y-44158988D01*
X44522771Y-44158988D02*
X44484200Y-44230417D01*
X44484200Y-44230417D02*
X44407057Y-44266131D01*
X44407057Y-44266131D02*
X44368485Y-44266131D01*
X44368485Y-44266131D02*
X44291342Y-44230417D01*
X44291342Y-44230417D02*
X44252771Y-44158988D01*
X44252771Y-44158988D02*
X44252771Y-44051846D01*
X44252771Y-44051846D02*
X44214200Y-43980417D01*
X44214200Y-43980417D02*
X44137057Y-43944703D01*
X44137057Y-43944703D02*
X44098485Y-43944703D01*
X44098485Y-43944703D02*
X44021342Y-43980417D01*
X44021342Y-43980417D02*
X43982771Y-44051846D01*
X43982771Y-44051846D02*
X43982771Y-44158988D01*
X43982771Y-44158988D02*
X44021342Y-44230417D01*
X44522771Y-44587560D02*
X43982771Y-44587560D01*
X43712771Y-44587560D02*
X43751342Y-44551846D01*
X43751342Y-44551846D02*
X43789914Y-44587560D01*
X43789914Y-44587560D02*
X43751342Y-44623274D01*
X43751342Y-44623274D02*
X43712771Y-44587560D01*
X43712771Y-44587560D02*
X43789914Y-44587560D01*
X43982771Y-45266132D02*
X44638485Y-45266132D01*
X44638485Y-45266132D02*
X44715628Y-45230417D01*
X44715628Y-45230417D02*
X44754200Y-45194703D01*
X44754200Y-45194703D02*
X44792771Y-45123274D01*
X44792771Y-45123274D02*
X44792771Y-45016132D01*
X44792771Y-45016132D02*
X44754200Y-44944703D01*
X44484200Y-45266132D02*
X44522771Y-45194703D01*
X44522771Y-45194703D02*
X44522771Y-45051846D01*
X44522771Y-45051846D02*
X44484200Y-44980417D01*
X44484200Y-44980417D02*
X44445628Y-44944703D01*
X44445628Y-44944703D02*
X44368485Y-44908989D01*
X44368485Y-44908989D02*
X44137057Y-44908989D01*
X44137057Y-44908989D02*
X44059914Y-44944703D01*
X44059914Y-44944703D02*
X44021342Y-44980417D01*
X44021342Y-44980417D02*
X43982771Y-45051846D01*
X43982771Y-45051846D02*
X43982771Y-45194703D01*
X43982771Y-45194703D02*
X44021342Y-45266132D01*
X43982771Y-45623274D02*
X44522771Y-45623274D01*
X44059914Y-45623274D02*
X44021342Y-45658988D01*
X44021342Y-45658988D02*
X43982771Y-45730417D01*
X43982771Y-45730417D02*
X43982771Y-45837560D01*
X43982771Y-45837560D02*
X44021342Y-45908988D01*
X44021342Y-45908988D02*
X44098485Y-45944703D01*
X44098485Y-45944703D02*
X44522771Y-45944703D01*
X44484200Y-46587559D02*
X44522771Y-46516131D01*
X44522771Y-46516131D02*
X44522771Y-46373274D01*
X44522771Y-46373274D02*
X44484200Y-46301845D01*
X44484200Y-46301845D02*
X44407057Y-46266131D01*
X44407057Y-46266131D02*
X44098485Y-46266131D01*
X44098485Y-46266131D02*
X44021342Y-46301845D01*
X44021342Y-46301845D02*
X43982771Y-46373274D01*
X43982771Y-46373274D02*
X43982771Y-46516131D01*
X43982771Y-46516131D02*
X44021342Y-46587559D01*
X44021342Y-46587559D02*
X44098485Y-46623274D01*
X44098485Y-46623274D02*
X44175628Y-46623274D01*
X44175628Y-46623274D02*
X44252771Y-46266131D01*
X44522771Y-47266131D02*
X43712771Y-47266131D01*
X44484200Y-47266131D02*
X44522771Y-47194702D01*
X44522771Y-47194702D02*
X44522771Y-47051845D01*
X44522771Y-47051845D02*
X44484200Y-46980416D01*
X44484200Y-46980416D02*
X44445628Y-46944702D01*
X44445628Y-46944702D02*
X44368485Y-46908988D01*
X44368485Y-46908988D02*
X44137057Y-46908988D01*
X44137057Y-46908988D02*
X44059914Y-46944702D01*
X44059914Y-46944702D02*
X44021342Y-46980416D01*
X44021342Y-46980416D02*
X43982771Y-47051845D01*
X43982771Y-47051845D02*
X43982771Y-47194702D01*
X43982771Y-47194702D02*
X44021342Y-47266131D01*
X44522771Y-48194702D02*
X43712771Y-48194702D01*
X43712771Y-48194702D02*
X43712771Y-48373273D01*
X43712771Y-48373273D02*
X43751342Y-48480416D01*
X43751342Y-48480416D02*
X43828485Y-48551845D01*
X43828485Y-48551845D02*
X43905628Y-48587559D01*
X43905628Y-48587559D02*
X44059914Y-48623273D01*
X44059914Y-48623273D02*
X44175628Y-48623273D01*
X44175628Y-48623273D02*
X44329914Y-48587559D01*
X44329914Y-48587559D02*
X44407057Y-48551845D01*
X44407057Y-48551845D02*
X44484200Y-48480416D01*
X44484200Y-48480416D02*
X44522771Y-48373273D01*
X44522771Y-48373273D02*
X44522771Y-48194702D01*
X44522771Y-49266131D02*
X44098485Y-49266131D01*
X44098485Y-49266131D02*
X44021342Y-49230416D01*
X44021342Y-49230416D02*
X43982771Y-49158988D01*
X43982771Y-49158988D02*
X43982771Y-49016131D01*
X43982771Y-49016131D02*
X44021342Y-48944702D01*
X44484200Y-49266131D02*
X44522771Y-49194702D01*
X44522771Y-49194702D02*
X44522771Y-49016131D01*
X44522771Y-49016131D02*
X44484200Y-48944702D01*
X44484200Y-48944702D02*
X44407057Y-48908988D01*
X44407057Y-48908988D02*
X44329914Y-48908988D01*
X44329914Y-48908988D02*
X44252771Y-48944702D01*
X44252771Y-48944702D02*
X44214200Y-49016131D01*
X44214200Y-49016131D02*
X44214200Y-49194702D01*
X44214200Y-49194702D02*
X44175628Y-49266131D01*
X43982771Y-49516130D02*
X43982771Y-49801844D01*
X43712771Y-49623273D02*
X44407057Y-49623273D01*
X44407057Y-49623273D02*
X44484200Y-49658987D01*
X44484200Y-49658987D02*
X44522771Y-49730416D01*
X44522771Y-49730416D02*
X44522771Y-49801844D01*
X44484200Y-50337558D02*
X44522771Y-50266130D01*
X44522771Y-50266130D02*
X44522771Y-50123273D01*
X44522771Y-50123273D02*
X44484200Y-50051844D01*
X44484200Y-50051844D02*
X44407057Y-50016130D01*
X44407057Y-50016130D02*
X44098485Y-50016130D01*
X44098485Y-50016130D02*
X44021342Y-50051844D01*
X44021342Y-50051844D02*
X43982771Y-50123273D01*
X43982771Y-50123273D02*
X43982771Y-50266130D01*
X43982771Y-50266130D02*
X44021342Y-50337558D01*
X44021342Y-50337558D02*
X44098485Y-50373273D01*
X44098485Y-50373273D02*
X44175628Y-50373273D01*
X44175628Y-50373273D02*
X44252771Y-50016130D01*
X44445628Y-51266130D02*
X44484200Y-51301844D01*
X44484200Y-51301844D02*
X44522771Y-51266130D01*
X44522771Y-51266130D02*
X44484200Y-51230416D01*
X44484200Y-51230416D02*
X44445628Y-51266130D01*
X44445628Y-51266130D02*
X44522771Y-51266130D01*
X44021342Y-51266130D02*
X44059914Y-51301844D01*
X44059914Y-51301844D02*
X44098485Y-51266130D01*
X44098485Y-51266130D02*
X44059914Y-51230416D01*
X44059914Y-51230416D02*
X44021342Y-51266130D01*
X44021342Y-51266130D02*
X44098485Y-51266130D01*
X43789914Y-52158988D02*
X43751342Y-52194702D01*
X43751342Y-52194702D02*
X43712771Y-52266131D01*
X43712771Y-52266131D02*
X43712771Y-52444702D01*
X43712771Y-52444702D02*
X43751342Y-52516131D01*
X43751342Y-52516131D02*
X43789914Y-52551845D01*
X43789914Y-52551845D02*
X43867057Y-52587559D01*
X43867057Y-52587559D02*
X43944200Y-52587559D01*
X43944200Y-52587559D02*
X44059914Y-52551845D01*
X44059914Y-52551845D02*
X44522771Y-52123273D01*
X44522771Y-52123273D02*
X44522771Y-52587559D01*
X43712771Y-53051845D02*
X43712771Y-53123274D01*
X43712771Y-53123274D02*
X43751342Y-53194702D01*
X43751342Y-53194702D02*
X43789914Y-53230417D01*
X43789914Y-53230417D02*
X43867057Y-53266131D01*
X43867057Y-53266131D02*
X44021342Y-53301845D01*
X44021342Y-53301845D02*
X44214200Y-53301845D01*
X44214200Y-53301845D02*
X44368485Y-53266131D01*
X44368485Y-53266131D02*
X44445628Y-53230417D01*
X44445628Y-53230417D02*
X44484200Y-53194702D01*
X44484200Y-53194702D02*
X44522771Y-53123274D01*
X44522771Y-53123274D02*
X44522771Y-53051845D01*
X44522771Y-53051845D02*
X44484200Y-52980417D01*
X44484200Y-52980417D02*
X44445628Y-52944702D01*
X44445628Y-52944702D02*
X44368485Y-52908988D01*
X44368485Y-52908988D02*
X44214200Y-52873274D01*
X44214200Y-52873274D02*
X44021342Y-52873274D01*
X44021342Y-52873274D02*
X43867057Y-52908988D01*
X43867057Y-52908988D02*
X43789914Y-52944702D01*
X43789914Y-52944702D02*
X43751342Y-52980417D01*
X43751342Y-52980417D02*
X43712771Y-53051845D01*
X43789914Y-53587560D02*
X43751342Y-53623274D01*
X43751342Y-53623274D02*
X43712771Y-53694703D01*
X43712771Y-53694703D02*
X43712771Y-53873274D01*
X43712771Y-53873274D02*
X43751342Y-53944703D01*
X43751342Y-53944703D02*
X43789914Y-53980417D01*
X43789914Y-53980417D02*
X43867057Y-54016131D01*
X43867057Y-54016131D02*
X43944200Y-54016131D01*
X43944200Y-54016131D02*
X44059914Y-53980417D01*
X44059914Y-53980417D02*
X44522771Y-53551845D01*
X44522771Y-53551845D02*
X44522771Y-54016131D01*
X43712771Y-54694703D02*
X43712771Y-54337560D01*
X43712771Y-54337560D02*
X44098485Y-54301846D01*
X44098485Y-54301846D02*
X44059914Y-54337560D01*
X44059914Y-54337560D02*
X44021342Y-54408989D01*
X44021342Y-54408989D02*
X44021342Y-54587560D01*
X44021342Y-54587560D02*
X44059914Y-54658989D01*
X44059914Y-54658989D02*
X44098485Y-54694703D01*
X44098485Y-54694703D02*
X44175628Y-54730417D01*
X44175628Y-54730417D02*
X44368485Y-54730417D01*
X44368485Y-54730417D02*
X44445628Y-54694703D01*
X44445628Y-54694703D02*
X44484200Y-54658989D01*
X44484200Y-54658989D02*
X44522771Y-54587560D01*
X44522771Y-54587560D02*
X44522771Y-54408989D01*
X44522771Y-54408989D02*
X44484200Y-54337560D01*
X44484200Y-54337560D02*
X44445628Y-54301846D01*
X43674200Y-55587560D02*
X44715628Y-54944703D01*
X43712771Y-55980417D02*
X43712771Y-56051846D01*
X43712771Y-56051846D02*
X43751342Y-56123274D01*
X43751342Y-56123274D02*
X43789914Y-56158989D01*
X43789914Y-56158989D02*
X43867057Y-56194703D01*
X43867057Y-56194703D02*
X44021342Y-56230417D01*
X44021342Y-56230417D02*
X44214200Y-56230417D01*
X44214200Y-56230417D02*
X44368485Y-56194703D01*
X44368485Y-56194703D02*
X44445628Y-56158989D01*
X44445628Y-56158989D02*
X44484200Y-56123274D01*
X44484200Y-56123274D02*
X44522771Y-56051846D01*
X44522771Y-56051846D02*
X44522771Y-55980417D01*
X44522771Y-55980417D02*
X44484200Y-55908989D01*
X44484200Y-55908989D02*
X44445628Y-55873274D01*
X44445628Y-55873274D02*
X44368485Y-55837560D01*
X44368485Y-55837560D02*
X44214200Y-55801846D01*
X44214200Y-55801846D02*
X44021342Y-55801846D01*
X44021342Y-55801846D02*
X43867057Y-55837560D01*
X43867057Y-55837560D02*
X43789914Y-55873274D01*
X43789914Y-55873274D02*
X43751342Y-55908989D01*
X43751342Y-55908989D02*
X43712771Y-55980417D01*
X43712771Y-56480417D02*
X43712771Y-56944703D01*
X43712771Y-56944703D02*
X44021342Y-56694703D01*
X44021342Y-56694703D02*
X44021342Y-56801846D01*
X44021342Y-56801846D02*
X44059914Y-56873275D01*
X44059914Y-56873275D02*
X44098485Y-56908989D01*
X44098485Y-56908989D02*
X44175628Y-56944703D01*
X44175628Y-56944703D02*
X44368485Y-56944703D01*
X44368485Y-56944703D02*
X44445628Y-56908989D01*
X44445628Y-56908989D02*
X44484200Y-56873275D01*
X44484200Y-56873275D02*
X44522771Y-56801846D01*
X44522771Y-56801846D02*
X44522771Y-56587560D01*
X44522771Y-56587560D02*
X44484200Y-56516132D01*
X44484200Y-56516132D02*
X44445628Y-56480417D01*
X43674200Y-57801846D02*
X44715628Y-57158989D01*
X43789914Y-58016132D02*
X43751342Y-58051846D01*
X43751342Y-58051846D02*
X43712771Y-58123275D01*
X43712771Y-58123275D02*
X43712771Y-58301846D01*
X43712771Y-58301846D02*
X43751342Y-58373275D01*
X43751342Y-58373275D02*
X43789914Y-58408989D01*
X43789914Y-58408989D02*
X43867057Y-58444703D01*
X43867057Y-58444703D02*
X43944200Y-58444703D01*
X43944200Y-58444703D02*
X44059914Y-58408989D01*
X44059914Y-58408989D02*
X44522771Y-57980417D01*
X44522771Y-57980417D02*
X44522771Y-58444703D01*
X43712771Y-59123275D02*
X43712771Y-58766132D01*
X43712771Y-58766132D02*
X44098485Y-58730418D01*
X44098485Y-58730418D02*
X44059914Y-58766132D01*
X44059914Y-58766132D02*
X44021342Y-58837561D01*
X44021342Y-58837561D02*
X44021342Y-59016132D01*
X44021342Y-59016132D02*
X44059914Y-59087561D01*
X44059914Y-59087561D02*
X44098485Y-59123275D01*
X44098485Y-59123275D02*
X44175628Y-59158989D01*
X44175628Y-59158989D02*
X44368485Y-59158989D01*
X44368485Y-59158989D02*
X44445628Y-59123275D01*
X44445628Y-59123275D02*
X44484200Y-59087561D01*
X44484200Y-59087561D02*
X44522771Y-59016132D01*
X44522771Y-59016132D02*
X44522771Y-58837561D01*
X44522771Y-58837561D02*
X44484200Y-58766132D01*
X44484200Y-58766132D02*
X44445628Y-58730418D01*
X45518300Y-41087560D02*
X45518300Y-41658989D01*
X45826871Y-42587560D02*
X45016871Y-42587560D01*
X45016871Y-42587560D02*
X45016871Y-42766131D01*
X45016871Y-42766131D02*
X45055442Y-42873274D01*
X45055442Y-42873274D02*
X45132585Y-42944703D01*
X45132585Y-42944703D02*
X45209728Y-42980417D01*
X45209728Y-42980417D02*
X45364014Y-43016131D01*
X45364014Y-43016131D02*
X45479728Y-43016131D01*
X45479728Y-43016131D02*
X45634014Y-42980417D01*
X45634014Y-42980417D02*
X45711157Y-42944703D01*
X45711157Y-42944703D02*
X45788300Y-42873274D01*
X45788300Y-42873274D02*
X45826871Y-42766131D01*
X45826871Y-42766131D02*
X45826871Y-42587560D01*
X45788300Y-43623274D02*
X45826871Y-43551846D01*
X45826871Y-43551846D02*
X45826871Y-43408989D01*
X45826871Y-43408989D02*
X45788300Y-43337560D01*
X45788300Y-43337560D02*
X45711157Y-43301846D01*
X45711157Y-43301846D02*
X45402585Y-43301846D01*
X45402585Y-43301846D02*
X45325442Y-43337560D01*
X45325442Y-43337560D02*
X45286871Y-43408989D01*
X45286871Y-43408989D02*
X45286871Y-43551846D01*
X45286871Y-43551846D02*
X45325442Y-43623274D01*
X45325442Y-43623274D02*
X45402585Y-43658989D01*
X45402585Y-43658989D02*
X45479728Y-43658989D01*
X45479728Y-43658989D02*
X45556871Y-43301846D01*
X45788300Y-43944703D02*
X45826871Y-44016131D01*
X45826871Y-44016131D02*
X45826871Y-44158988D01*
X45826871Y-44158988D02*
X45788300Y-44230417D01*
X45788300Y-44230417D02*
X45711157Y-44266131D01*
X45711157Y-44266131D02*
X45672585Y-44266131D01*
X45672585Y-44266131D02*
X45595442Y-44230417D01*
X45595442Y-44230417D02*
X45556871Y-44158988D01*
X45556871Y-44158988D02*
X45556871Y-44051846D01*
X45556871Y-44051846D02*
X45518300Y-43980417D01*
X45518300Y-43980417D02*
X45441157Y-43944703D01*
X45441157Y-43944703D02*
X45402585Y-43944703D01*
X45402585Y-43944703D02*
X45325442Y-43980417D01*
X45325442Y-43980417D02*
X45286871Y-44051846D01*
X45286871Y-44051846D02*
X45286871Y-44158988D01*
X45286871Y-44158988D02*
X45325442Y-44230417D01*
X45826871Y-44587560D02*
X45286871Y-44587560D01*
X45016871Y-44587560D02*
X45055442Y-44551846D01*
X45055442Y-44551846D02*
X45094014Y-44587560D01*
X45094014Y-44587560D02*
X45055442Y-44623274D01*
X45055442Y-44623274D02*
X45016871Y-44587560D01*
X45016871Y-44587560D02*
X45094014Y-44587560D01*
X45286871Y-45266132D02*
X45942585Y-45266132D01*
X45942585Y-45266132D02*
X46019728Y-45230417D01*
X46019728Y-45230417D02*
X46058300Y-45194703D01*
X46058300Y-45194703D02*
X46096871Y-45123274D01*
X46096871Y-45123274D02*
X46096871Y-45016132D01*
X46096871Y-45016132D02*
X46058300Y-44944703D01*
X45788300Y-45266132D02*
X45826871Y-45194703D01*
X45826871Y-45194703D02*
X45826871Y-45051846D01*
X45826871Y-45051846D02*
X45788300Y-44980417D01*
X45788300Y-44980417D02*
X45749728Y-44944703D01*
X45749728Y-44944703D02*
X45672585Y-44908989D01*
X45672585Y-44908989D02*
X45441157Y-44908989D01*
X45441157Y-44908989D02*
X45364014Y-44944703D01*
X45364014Y-44944703D02*
X45325442Y-44980417D01*
X45325442Y-44980417D02*
X45286871Y-45051846D01*
X45286871Y-45051846D02*
X45286871Y-45194703D01*
X45286871Y-45194703D02*
X45325442Y-45266132D01*
X45286871Y-45623274D02*
X45826871Y-45623274D01*
X45364014Y-45623274D02*
X45325442Y-45658988D01*
X45325442Y-45658988D02*
X45286871Y-45730417D01*
X45286871Y-45730417D02*
X45286871Y-45837560D01*
X45286871Y-45837560D02*
X45325442Y-45908988D01*
X45325442Y-45908988D02*
X45402585Y-45944703D01*
X45402585Y-45944703D02*
X45826871Y-45944703D01*
X45788300Y-46587559D02*
X45826871Y-46516131D01*
X45826871Y-46516131D02*
X45826871Y-46373274D01*
X45826871Y-46373274D02*
X45788300Y-46301845D01*
X45788300Y-46301845D02*
X45711157Y-46266131D01*
X45711157Y-46266131D02*
X45402585Y-46266131D01*
X45402585Y-46266131D02*
X45325442Y-46301845D01*
X45325442Y-46301845D02*
X45286871Y-46373274D01*
X45286871Y-46373274D02*
X45286871Y-46516131D01*
X45286871Y-46516131D02*
X45325442Y-46587559D01*
X45325442Y-46587559D02*
X45402585Y-46623274D01*
X45402585Y-46623274D02*
X45479728Y-46623274D01*
X45479728Y-46623274D02*
X45556871Y-46266131D01*
X45826871Y-46944702D02*
X45286871Y-46944702D01*
X45441157Y-46944702D02*
X45364014Y-46980416D01*
X45364014Y-46980416D02*
X45325442Y-47016131D01*
X45325442Y-47016131D02*
X45286871Y-47087559D01*
X45286871Y-47087559D02*
X45286871Y-47158988D01*
X45826871Y-47980417D02*
X45016871Y-47980417D01*
X45016871Y-47980417D02*
X45826871Y-48408988D01*
X45826871Y-48408988D02*
X45016871Y-48408988D01*
X45826871Y-49087560D02*
X45402585Y-49087560D01*
X45402585Y-49087560D02*
X45325442Y-49051845D01*
X45325442Y-49051845D02*
X45286871Y-48980417D01*
X45286871Y-48980417D02*
X45286871Y-48837560D01*
X45286871Y-48837560D02*
X45325442Y-48766131D01*
X45788300Y-49087560D02*
X45826871Y-49016131D01*
X45826871Y-49016131D02*
X45826871Y-48837560D01*
X45826871Y-48837560D02*
X45788300Y-48766131D01*
X45788300Y-48766131D02*
X45711157Y-48730417D01*
X45711157Y-48730417D02*
X45634014Y-48730417D01*
X45634014Y-48730417D02*
X45556871Y-48766131D01*
X45556871Y-48766131D02*
X45518300Y-48837560D01*
X45518300Y-48837560D02*
X45518300Y-49016131D01*
X45518300Y-49016131D02*
X45479728Y-49087560D01*
X45826871Y-49444702D02*
X45286871Y-49444702D01*
X45364014Y-49444702D02*
X45325442Y-49480416D01*
X45325442Y-49480416D02*
X45286871Y-49551845D01*
X45286871Y-49551845D02*
X45286871Y-49658988D01*
X45286871Y-49658988D02*
X45325442Y-49730416D01*
X45325442Y-49730416D02*
X45402585Y-49766131D01*
X45402585Y-49766131D02*
X45826871Y-49766131D01*
X45402585Y-49766131D02*
X45325442Y-49801845D01*
X45325442Y-49801845D02*
X45286871Y-49873273D01*
X45286871Y-49873273D02*
X45286871Y-49980416D01*
X45286871Y-49980416D02*
X45325442Y-50051845D01*
X45325442Y-50051845D02*
X45402585Y-50087559D01*
X45402585Y-50087559D02*
X45826871Y-50087559D01*
X45788300Y-50730416D02*
X45826871Y-50658988D01*
X45826871Y-50658988D02*
X45826871Y-50516131D01*
X45826871Y-50516131D02*
X45788300Y-50444702D01*
X45788300Y-50444702D02*
X45711157Y-50408988D01*
X45711157Y-50408988D02*
X45402585Y-50408988D01*
X45402585Y-50408988D02*
X45325442Y-50444702D01*
X45325442Y-50444702D02*
X45286871Y-50516131D01*
X45286871Y-50516131D02*
X45286871Y-50658988D01*
X45286871Y-50658988D02*
X45325442Y-50730416D01*
X45325442Y-50730416D02*
X45402585Y-50766131D01*
X45402585Y-50766131D02*
X45479728Y-50766131D01*
X45479728Y-50766131D02*
X45556871Y-50408988D01*
X46822400Y-42230418D02*
X46822400Y-42801847D01*
X46745257Y-43873275D02*
X47130971Y-43873275D01*
X46320971Y-43623275D02*
X46745257Y-43873275D01*
X46745257Y-43873275D02*
X46320971Y-44123275D01*
X46590971Y-44694704D02*
X47130971Y-44694704D01*
X46590971Y-44373275D02*
X47015257Y-44373275D01*
X47015257Y-44373275D02*
X47092400Y-44408989D01*
X47092400Y-44408989D02*
X47130971Y-44480418D01*
X47130971Y-44480418D02*
X47130971Y-44587561D01*
X47130971Y-44587561D02*
X47092400Y-44658989D01*
X47092400Y-44658989D02*
X47053828Y-44694704D01*
X47092400Y-45016132D02*
X47130971Y-45087560D01*
X47130971Y-45087560D02*
X47130971Y-45230417D01*
X47130971Y-45230417D02*
X47092400Y-45301846D01*
X47092400Y-45301846D02*
X47015257Y-45337560D01*
X47015257Y-45337560D02*
X46976685Y-45337560D01*
X46976685Y-45337560D02*
X46899542Y-45301846D01*
X46899542Y-45301846D02*
X46860971Y-45230417D01*
X46860971Y-45230417D02*
X46860971Y-45123275D01*
X46860971Y-45123275D02*
X46822400Y-45051846D01*
X46822400Y-45051846D02*
X46745257Y-45016132D01*
X46745257Y-45016132D02*
X46706685Y-45016132D01*
X46706685Y-45016132D02*
X46629542Y-45051846D01*
X46629542Y-45051846D02*
X46590971Y-45123275D01*
X46590971Y-45123275D02*
X46590971Y-45230417D01*
X46590971Y-45230417D02*
X46629542Y-45301846D01*
X46590971Y-45980418D02*
X47130971Y-45980418D01*
X46590971Y-45658989D02*
X47015257Y-45658989D01*
X47015257Y-45658989D02*
X47092400Y-45694703D01*
X47092400Y-45694703D02*
X47130971Y-45766132D01*
X47130971Y-45766132D02*
X47130971Y-45873275D01*
X47130971Y-45873275D02*
X47092400Y-45944703D01*
X47092400Y-45944703D02*
X47053828Y-45980418D01*
X47130971Y-46337560D02*
X46320971Y-46337560D01*
X46822400Y-46408989D02*
X47130971Y-46623274D01*
X46590971Y-46623274D02*
X46899542Y-46337560D01*
X47092400Y-47230417D02*
X47130971Y-47158989D01*
X47130971Y-47158989D02*
X47130971Y-47016132D01*
X47130971Y-47016132D02*
X47092400Y-46944703D01*
X47092400Y-46944703D02*
X47015257Y-46908989D01*
X47015257Y-46908989D02*
X46706685Y-46908989D01*
X46706685Y-46908989D02*
X46629542Y-46944703D01*
X46629542Y-46944703D02*
X46590971Y-47016132D01*
X46590971Y-47016132D02*
X46590971Y-47158989D01*
X46590971Y-47158989D02*
X46629542Y-47230417D01*
X46629542Y-47230417D02*
X46706685Y-47266132D01*
X46706685Y-47266132D02*
X46783828Y-47266132D01*
X46783828Y-47266132D02*
X46860971Y-46908989D01*
X46745257Y-48301846D02*
X47130971Y-48301846D01*
X46320971Y-48051846D02*
X46745257Y-48301846D01*
X46745257Y-48301846D02*
X46320971Y-48551846D01*
X47130971Y-49123275D02*
X46706685Y-49123275D01*
X46706685Y-49123275D02*
X46629542Y-49087560D01*
X46629542Y-49087560D02*
X46590971Y-49016132D01*
X46590971Y-49016132D02*
X46590971Y-48873275D01*
X46590971Y-48873275D02*
X46629542Y-48801846D01*
X47092400Y-49123275D02*
X47130971Y-49051846D01*
X47130971Y-49051846D02*
X47130971Y-48873275D01*
X47130971Y-48873275D02*
X47092400Y-48801846D01*
X47092400Y-48801846D02*
X47015257Y-48766132D01*
X47015257Y-48766132D02*
X46938114Y-48766132D01*
X46938114Y-48766132D02*
X46860971Y-48801846D01*
X46860971Y-48801846D02*
X46822400Y-48873275D01*
X46822400Y-48873275D02*
X46822400Y-49051846D01*
X46822400Y-49051846D02*
X46783828Y-49123275D01*
X47130971Y-49480417D02*
X46590971Y-49480417D01*
X46668114Y-49480417D02*
X46629542Y-49516131D01*
X46629542Y-49516131D02*
X46590971Y-49587560D01*
X46590971Y-49587560D02*
X46590971Y-49694703D01*
X46590971Y-49694703D02*
X46629542Y-49766131D01*
X46629542Y-49766131D02*
X46706685Y-49801846D01*
X46706685Y-49801846D02*
X47130971Y-49801846D01*
X46706685Y-49801846D02*
X46629542Y-49837560D01*
X46629542Y-49837560D02*
X46590971Y-49908988D01*
X46590971Y-49908988D02*
X46590971Y-50016131D01*
X46590971Y-50016131D02*
X46629542Y-50087560D01*
X46629542Y-50087560D02*
X46706685Y-50123274D01*
X46706685Y-50123274D02*
X47130971Y-50123274D01*
X47130971Y-50801846D02*
X46706685Y-50801846D01*
X46706685Y-50801846D02*
X46629542Y-50766131D01*
X46629542Y-50766131D02*
X46590971Y-50694703D01*
X46590971Y-50694703D02*
X46590971Y-50551846D01*
X46590971Y-50551846D02*
X46629542Y-50480417D01*
X47092400Y-50801846D02*
X47130971Y-50730417D01*
X47130971Y-50730417D02*
X47130971Y-50551846D01*
X47130971Y-50551846D02*
X47092400Y-50480417D01*
X47092400Y-50480417D02*
X47015257Y-50444703D01*
X47015257Y-50444703D02*
X46938114Y-50444703D01*
X46938114Y-50444703D02*
X46860971Y-50480417D01*
X46860971Y-50480417D02*
X46822400Y-50551846D01*
X46822400Y-50551846D02*
X46822400Y-50730417D01*
X46822400Y-50730417D02*
X46783828Y-50801846D01*
X47092400Y-51123274D02*
X47130971Y-51194702D01*
X47130971Y-51194702D02*
X47130971Y-51337559D01*
X47130971Y-51337559D02*
X47092400Y-51408988D01*
X47092400Y-51408988D02*
X47015257Y-51444702D01*
X47015257Y-51444702D02*
X46976685Y-51444702D01*
X46976685Y-51444702D02*
X46899542Y-51408988D01*
X46899542Y-51408988D02*
X46860971Y-51337559D01*
X46860971Y-51337559D02*
X46860971Y-51230417D01*
X46860971Y-51230417D02*
X46822400Y-51158988D01*
X46822400Y-51158988D02*
X46745257Y-51123274D01*
X46745257Y-51123274D02*
X46706685Y-51123274D01*
X46706685Y-51123274D02*
X46629542Y-51158988D01*
X46629542Y-51158988D02*
X46590971Y-51230417D01*
X46590971Y-51230417D02*
X46590971Y-51337559D01*
X46590971Y-51337559D02*
X46629542Y-51408988D01*
X47130971Y-52087560D02*
X46706685Y-52087560D01*
X46706685Y-52087560D02*
X46629542Y-52051845D01*
X46629542Y-52051845D02*
X46590971Y-51980417D01*
X46590971Y-51980417D02*
X46590971Y-51837560D01*
X46590971Y-51837560D02*
X46629542Y-51766131D01*
X47092400Y-52087560D02*
X47130971Y-52016131D01*
X47130971Y-52016131D02*
X47130971Y-51837560D01*
X47130971Y-51837560D02*
X47092400Y-51766131D01*
X47092400Y-51766131D02*
X47015257Y-51730417D01*
X47015257Y-51730417D02*
X46938114Y-51730417D01*
X46938114Y-51730417D02*
X46860971Y-51766131D01*
X46860971Y-51766131D02*
X46822400Y-51837560D01*
X46822400Y-51837560D02*
X46822400Y-52016131D01*
X46822400Y-52016131D02*
X46783828Y-52087560D01*
X47130971Y-52444702D02*
X46320971Y-52444702D01*
X46822400Y-52516131D02*
X47130971Y-52730416D01*
X46590971Y-52730416D02*
X46899542Y-52444702D01*
X47130971Y-53051845D02*
X46590971Y-53051845D01*
X46320971Y-53051845D02*
X46359542Y-53016131D01*
X46359542Y-53016131D02*
X46398114Y-53051845D01*
X46398114Y-53051845D02*
X46359542Y-53087559D01*
X46359542Y-53087559D02*
X46320971Y-53051845D01*
X46320971Y-53051845D02*
X46398114Y-53051845D01*
X48126500Y-42230418D02*
X48126500Y-42801847D01*
X48049357Y-43873275D02*
X48435071Y-43873275D01*
X47625071Y-43623275D02*
X48049357Y-43873275D01*
X48049357Y-43873275D02*
X47625071Y-44123275D01*
X47895071Y-44694704D02*
X48435071Y-44694704D01*
X47895071Y-44373275D02*
X48319357Y-44373275D01*
X48319357Y-44373275D02*
X48396500Y-44408989D01*
X48396500Y-44408989D02*
X48435071Y-44480418D01*
X48435071Y-44480418D02*
X48435071Y-44587561D01*
X48435071Y-44587561D02*
X48396500Y-44658989D01*
X48396500Y-44658989D02*
X48357928Y-44694704D01*
X47895071Y-44980417D02*
X48435071Y-45158989D01*
X47895071Y-45337560D02*
X48435071Y-45158989D01*
X48435071Y-45158989D02*
X48627928Y-45087560D01*
X48627928Y-45087560D02*
X48666500Y-45051846D01*
X48666500Y-45051846D02*
X48705071Y-44980417D01*
X48435071Y-45944704D02*
X48010785Y-45944704D01*
X48010785Y-45944704D02*
X47933642Y-45908989D01*
X47933642Y-45908989D02*
X47895071Y-45837561D01*
X47895071Y-45837561D02*
X47895071Y-45694704D01*
X47895071Y-45694704D02*
X47933642Y-45623275D01*
X48396500Y-45944704D02*
X48435071Y-45873275D01*
X48435071Y-45873275D02*
X48435071Y-45694704D01*
X48435071Y-45694704D02*
X48396500Y-45623275D01*
X48396500Y-45623275D02*
X48319357Y-45587561D01*
X48319357Y-45587561D02*
X48242214Y-45587561D01*
X48242214Y-45587561D02*
X48165071Y-45623275D01*
X48165071Y-45623275D02*
X48126500Y-45694704D01*
X48126500Y-45694704D02*
X48126500Y-45873275D01*
X48126500Y-45873275D02*
X48087928Y-45944704D01*
X48435071Y-46873275D02*
X47625071Y-46873275D01*
X47625071Y-46873275D02*
X48203642Y-47123275D01*
X48203642Y-47123275D02*
X47625071Y-47373275D01*
X47625071Y-47373275D02*
X48435071Y-47373275D01*
X48435071Y-47837561D02*
X48396500Y-47766132D01*
X48396500Y-47766132D02*
X48357928Y-47730418D01*
X48357928Y-47730418D02*
X48280785Y-47694704D01*
X48280785Y-47694704D02*
X48049357Y-47694704D01*
X48049357Y-47694704D02*
X47972214Y-47730418D01*
X47972214Y-47730418D02*
X47933642Y-47766132D01*
X47933642Y-47766132D02*
X47895071Y-47837561D01*
X47895071Y-47837561D02*
X47895071Y-47944704D01*
X47895071Y-47944704D02*
X47933642Y-48016132D01*
X47933642Y-48016132D02*
X47972214Y-48051847D01*
X47972214Y-48051847D02*
X48049357Y-48087561D01*
X48049357Y-48087561D02*
X48280785Y-48087561D01*
X48280785Y-48087561D02*
X48357928Y-48051847D01*
X48357928Y-48051847D02*
X48396500Y-48016132D01*
X48396500Y-48016132D02*
X48435071Y-47944704D01*
X48435071Y-47944704D02*
X48435071Y-47837561D01*
X48396500Y-48730418D02*
X48435071Y-48658989D01*
X48435071Y-48658989D02*
X48435071Y-48516132D01*
X48435071Y-48516132D02*
X48396500Y-48444703D01*
X48396500Y-48444703D02*
X48357928Y-48408989D01*
X48357928Y-48408989D02*
X48280785Y-48373275D01*
X48280785Y-48373275D02*
X48049357Y-48373275D01*
X48049357Y-48373275D02*
X47972214Y-48408989D01*
X47972214Y-48408989D02*
X47933642Y-48444703D01*
X47933642Y-48444703D02*
X47895071Y-48516132D01*
X47895071Y-48516132D02*
X47895071Y-48658989D01*
X47895071Y-48658989D02*
X47933642Y-48730418D01*
X48435071Y-49051846D02*
X47625071Y-49051846D01*
X48435071Y-49373275D02*
X48010785Y-49373275D01*
X48010785Y-49373275D02*
X47933642Y-49337560D01*
X47933642Y-49337560D02*
X47895071Y-49266132D01*
X47895071Y-49266132D02*
X47895071Y-49158989D01*
X47895071Y-49158989D02*
X47933642Y-49087560D01*
X47933642Y-49087560D02*
X47972214Y-49051846D01*
X48435071Y-49730417D02*
X47895071Y-49730417D01*
X47625071Y-49730417D02*
X47663642Y-49694703D01*
X47663642Y-49694703D02*
X47702214Y-49730417D01*
X47702214Y-49730417D02*
X47663642Y-49766131D01*
X47663642Y-49766131D02*
X47625071Y-49730417D01*
X47625071Y-49730417D02*
X47702214Y-49730417D01*
X47895071Y-50016131D02*
X47895071Y-50408989D01*
X47895071Y-50408989D02*
X48435071Y-50016131D01*
X48435071Y-50016131D02*
X48435071Y-50408989D01*
X47895071Y-51016132D02*
X48435071Y-51016132D01*
X47895071Y-50694703D02*
X48319357Y-50694703D01*
X48319357Y-50694703D02*
X48396500Y-50730417D01*
X48396500Y-50730417D02*
X48435071Y-50801846D01*
X48435071Y-50801846D02*
X48435071Y-50908989D01*
X48435071Y-50908989D02*
X48396500Y-50980417D01*
X48396500Y-50980417D02*
X48357928Y-51016132D01*
X48435071Y-51373274D02*
X47625071Y-51373274D01*
X48126500Y-51444703D02*
X48435071Y-51658988D01*
X47895071Y-51658988D02*
X48203642Y-51373274D01*
X48435071Y-51980417D02*
X47895071Y-51980417D01*
X47625071Y-51980417D02*
X47663642Y-51944703D01*
X47663642Y-51944703D02*
X47702214Y-51980417D01*
X47702214Y-51980417D02*
X47663642Y-52016131D01*
X47663642Y-52016131D02*
X47625071Y-51980417D01*
X47625071Y-51980417D02*
X47702214Y-51980417D01*
M02*
