M48
; DRILL file {KiCad 7.0.11-rc3} date Tue Mar 25 15:55:59 2025
; FORMAT={-:-/ absolute / inch / decimal}
; #@! TF.CreationDate,2025-03-25T15:55:59+09:00
; #@! TF.GenerationSoftware,Kicad,Pcbnew,7.0.11-rc3
; #@! TF.FileFunction,Plated,1,2,PTH
FMAT,2
INCH
; #@! TA.AperFunction,Plated,PTH,ViaDrill
T1C0.0118
; #@! TA.AperFunction,Plated,PTH,ComponentDrill
T2C0.0236
; #@! TA.AperFunction,Plated,PTH,ComponentDrill
T3C0.0374
; #@! TA.AperFunction,Plated,PTH,ComponentDrill
T4C0.0433
; #@! TA.AperFunction,Plated,PTH,ComponentDrill
T5C0.1063
%
G90
G05
T1
X1.54Y-2.01
X1.54Y-2.24
X1.55Y-1.64
X1.55Y-1.81
X1.67Y-2.12
X1.67Y-2.28
X1.68Y-1.91
X1.713Y-1.713
X1.84Y-2.21
X1.85Y-2.4
X1.867Y-2.001
X1.87Y-1.37
X1.871Y-1.826
X1.88Y-1.47
X1.88Y-1.66
X1.88Y-2.58
X1.95Y-2.5
X1.953Y-2.105
X2.03Y-1.37
X2.04Y-1.48
X2.05Y-2.275
X2.05Y-2.425
X2.09Y-1.63
X2.09Y-1.98
X2.11Y-2.59
X2.12Y-2.5
X2.13Y-2.1
X2.14Y-2.16
X2.146Y-2.234
X2.19Y-1.37
X2.19Y-1.48
X2.19Y-2.42
X2.218Y-2.226
X2.24Y-1.66
X2.24Y-1.84
X2.24Y-2.07
X2.24Y-2.17
X2.27Y-2.5
X2.3Y-2.6
X2.36Y-1.37
X2.37Y-1.5
X2.41Y-2.09
X2.41Y-2.14
X2.41Y-2.35
X2.43Y-2.22
X2.47Y-2.17
X2.47Y-2.5
X2.48Y-2.6
X2.49Y-1.9
X2.49Y-2.0
X2.51Y-1.37
X2.51Y-1.49
X2.52Y-1.67
X2.56Y-2.08
X2.56Y-2.35
X2.59Y-1.9
X2.65Y-2.6
X2.66Y-1.634
X2.66Y-1.98
X2.66Y-2.12
X2.66Y-2.26
X2.66Y-2.49
X2.68Y-1.37
X2.69Y-1.49
X2.755Y-2.355
X2.81Y-2.21
X2.83Y-2.58
X2.85Y-1.67
X2.85Y-1.98
X2.88Y-1.77
X2.89Y-2.11
X2.91Y-2.19
X2.94Y-2.27
X3.0Y-2.11
X3.02Y-1.66
X3.03Y-2.2
X3.075Y-1.8
X3.075Y-1.95
X3.075Y-2.1
X3.08Y-1.59
X3.08Y-2.28
T3
X2.1Y-2.35
X2.1984Y-2.35
X2.2969Y-2.35
X2.7608Y-1.8228
X2.7608Y-1.9212
T4
X2.6038Y-2.196
X2.6038Y-2.296
X2.6038Y-2.396
T5
X2.0973Y-1.8055
X2.3807Y-1.8055
T2
G00X1.9733Y-1.5476
M15
G01X1.9733Y-1.5909
M16
G05
G00X2.5047Y-1.5476
M15
G01X2.5047Y-1.5909
M16
G05
M30
