%TF.GenerationSoftware,KiCad,Pcbnew,9.0.2*%
%TF.CreationDate,2025-09-29T11:38:53+09:00*%
%TF.ProjectId,RDC_Humanoid_Logic,5244435f-4875-46d6-916e-6f69645f4c6f,rev?*%
%TF.SameCoordinates,Original*%
%TF.FileFunction,Legend,Top*%
%TF.FilePolarity,Positive*%
%FSLAX46Y46*%
G04 Gerber Fmt 4.6, Leading zero omitted, Abs format (unit mm)*
G04 Created by KiCad (PCBNEW 9.0.2) date 2025-09-29 11:38:53*
%MOMM*%
%LPD*%
G01*
G04 APERTURE LIST*
%ADD10C,0.150000*%
%ADD11C,0.300000*%
%ADD12C,0.100000*%
%ADD13C,0.120000*%
G04 APERTURE END LIST*
D10*
X186558207Y-159194580D02*
X186510588Y-159242200D01*
X186510588Y-159242200D02*
X186367731Y-159289819D01*
X186367731Y-159289819D02*
X186272493Y-159289819D01*
X186272493Y-159289819D02*
X186129636Y-159242200D01*
X186129636Y-159242200D02*
X186034398Y-159146961D01*
X186034398Y-159146961D02*
X185986779Y-159051723D01*
X185986779Y-159051723D02*
X185939160Y-158861247D01*
X185939160Y-158861247D02*
X185939160Y-158718390D01*
X185939160Y-158718390D02*
X185986779Y-158527914D01*
X185986779Y-158527914D02*
X186034398Y-158432676D01*
X186034398Y-158432676D02*
X186129636Y-158337438D01*
X186129636Y-158337438D02*
X186272493Y-158289819D01*
X186272493Y-158289819D02*
X186367731Y-158289819D01*
X186367731Y-158289819D02*
X186510588Y-158337438D01*
X186510588Y-158337438D02*
X186558207Y-158385057D01*
X186939160Y-159004104D02*
X187415350Y-159004104D01*
X186843922Y-159289819D02*
X187177255Y-158289819D01*
X187177255Y-158289819D02*
X187510588Y-159289819D01*
X187843922Y-159289819D02*
X187843922Y-158289819D01*
X187843922Y-158289819D02*
X188415350Y-159289819D01*
X188415350Y-159289819D02*
X188415350Y-158289819D01*
X188843922Y-158385057D02*
X188891541Y-158337438D01*
X188891541Y-158337438D02*
X188986779Y-158289819D01*
X188986779Y-158289819D02*
X189224874Y-158289819D01*
X189224874Y-158289819D02*
X189320112Y-158337438D01*
X189320112Y-158337438D02*
X189367731Y-158385057D01*
X189367731Y-158385057D02*
X189415350Y-158480295D01*
X189415350Y-158480295D02*
X189415350Y-158575533D01*
X189415350Y-158575533D02*
X189367731Y-158718390D01*
X189367731Y-158718390D02*
X188796303Y-159289819D01*
X188796303Y-159289819D02*
X189415350Y-159289819D01*
X144369819Y-86413220D02*
X143703152Y-86413220D01*
X143893628Y-86413220D02*
X143798390Y-86365601D01*
X143798390Y-86365601D02*
X143750771Y-86317982D01*
X143750771Y-86317982D02*
X143703152Y-86222744D01*
X143703152Y-86222744D02*
X143703152Y-86127506D01*
X143703152Y-85794172D02*
X144703152Y-85794172D01*
X143750771Y-85794172D02*
X143703152Y-85698934D01*
X143703152Y-85698934D02*
X143703152Y-85508458D01*
X143703152Y-85508458D02*
X143750771Y-85413220D01*
X143750771Y-85413220D02*
X143798390Y-85365601D01*
X143798390Y-85365601D02*
X143893628Y-85317982D01*
X143893628Y-85317982D02*
X144179342Y-85317982D01*
X144179342Y-85317982D02*
X144274580Y-85365601D01*
X144274580Y-85365601D02*
X144322200Y-85413220D01*
X144322200Y-85413220D02*
X144369819Y-85508458D01*
X144369819Y-85508458D02*
X144369819Y-85698934D01*
X144369819Y-85698934D02*
X144322200Y-85794172D01*
X144369819Y-84889410D02*
X143703152Y-84889410D01*
X143369819Y-84889410D02*
X143417438Y-84937029D01*
X143417438Y-84937029D02*
X143465057Y-84889410D01*
X143465057Y-84889410D02*
X143417438Y-84841791D01*
X143417438Y-84841791D02*
X143369819Y-84889410D01*
X143369819Y-84889410D02*
X143465057Y-84889410D01*
X144465057Y-84651316D02*
X144465057Y-83889411D01*
X143703152Y-83651315D02*
X144703152Y-83651315D01*
X143750771Y-83651315D02*
X143703152Y-83556077D01*
X143703152Y-83556077D02*
X143703152Y-83365601D01*
X143703152Y-83365601D02*
X143750771Y-83270363D01*
X143750771Y-83270363D02*
X143798390Y-83222744D01*
X143798390Y-83222744D02*
X143893628Y-83175125D01*
X143893628Y-83175125D02*
X144179342Y-83175125D01*
X144179342Y-83175125D02*
X144274580Y-83222744D01*
X144274580Y-83222744D02*
X144322200Y-83270363D01*
X144322200Y-83270363D02*
X144369819Y-83365601D01*
X144369819Y-83365601D02*
X144369819Y-83556077D01*
X144369819Y-83556077D02*
X144322200Y-83651315D01*
X144369819Y-82603696D02*
X144322200Y-82698934D01*
X144322200Y-82698934D02*
X144274580Y-82746553D01*
X144274580Y-82746553D02*
X144179342Y-82794172D01*
X144179342Y-82794172D02*
X143893628Y-82794172D01*
X143893628Y-82794172D02*
X143798390Y-82746553D01*
X143798390Y-82746553D02*
X143750771Y-82698934D01*
X143750771Y-82698934D02*
X143703152Y-82603696D01*
X143703152Y-82603696D02*
X143703152Y-82460839D01*
X143703152Y-82460839D02*
X143750771Y-82365601D01*
X143750771Y-82365601D02*
X143798390Y-82317982D01*
X143798390Y-82317982D02*
X143893628Y-82270363D01*
X143893628Y-82270363D02*
X144179342Y-82270363D01*
X144179342Y-82270363D02*
X144274580Y-82317982D01*
X144274580Y-82317982D02*
X144322200Y-82365601D01*
X144322200Y-82365601D02*
X144369819Y-82460839D01*
X144369819Y-82460839D02*
X144369819Y-82603696D01*
X143703152Y-81937029D02*
X144369819Y-81746553D01*
X144369819Y-81746553D02*
X143893628Y-81556077D01*
X143893628Y-81556077D02*
X144369819Y-81365601D01*
X144369819Y-81365601D02*
X143703152Y-81175125D01*
X144322200Y-80413220D02*
X144369819Y-80508458D01*
X144369819Y-80508458D02*
X144369819Y-80698934D01*
X144369819Y-80698934D02*
X144322200Y-80794172D01*
X144322200Y-80794172D02*
X144226961Y-80841791D01*
X144226961Y-80841791D02*
X143846009Y-80841791D01*
X143846009Y-80841791D02*
X143750771Y-80794172D01*
X143750771Y-80794172D02*
X143703152Y-80698934D01*
X143703152Y-80698934D02*
X143703152Y-80508458D01*
X143703152Y-80508458D02*
X143750771Y-80413220D01*
X143750771Y-80413220D02*
X143846009Y-80365601D01*
X143846009Y-80365601D02*
X143941247Y-80365601D01*
X143941247Y-80365601D02*
X144036485Y-80841791D01*
X144369819Y-79937029D02*
X143703152Y-79937029D01*
X143893628Y-79937029D02*
X143798390Y-79889410D01*
X143798390Y-79889410D02*
X143750771Y-79841791D01*
X143750771Y-79841791D02*
X143703152Y-79746553D01*
X143703152Y-79746553D02*
X143703152Y-79651315D01*
X144750771Y-79032267D02*
X144703152Y-79079886D01*
X144703152Y-79079886D02*
X144560295Y-79175124D01*
X144560295Y-79175124D02*
X144465057Y-79222743D01*
X144465057Y-79222743D02*
X144322200Y-79270362D01*
X144322200Y-79270362D02*
X144084104Y-79317981D01*
X144084104Y-79317981D02*
X143893628Y-79317981D01*
X143893628Y-79317981D02*
X143655533Y-79270362D01*
X143655533Y-79270362D02*
X143512676Y-79222743D01*
X143512676Y-79222743D02*
X143417438Y-79175124D01*
X143417438Y-79175124D02*
X143274580Y-79079886D01*
X143274580Y-79079886D02*
X143226961Y-79032267D01*
X143369819Y-78175124D02*
X143369819Y-78651314D01*
X143369819Y-78651314D02*
X143846009Y-78698933D01*
X143846009Y-78698933D02*
X143798390Y-78651314D01*
X143798390Y-78651314D02*
X143750771Y-78556076D01*
X143750771Y-78556076D02*
X143750771Y-78317981D01*
X143750771Y-78317981D02*
X143798390Y-78222743D01*
X143798390Y-78222743D02*
X143846009Y-78175124D01*
X143846009Y-78175124D02*
X143941247Y-78127505D01*
X143941247Y-78127505D02*
X144179342Y-78127505D01*
X144179342Y-78127505D02*
X144274580Y-78175124D01*
X144274580Y-78175124D02*
X144322200Y-78222743D01*
X144322200Y-78222743D02*
X144369819Y-78317981D01*
X144369819Y-78317981D02*
X144369819Y-78556076D01*
X144369819Y-78556076D02*
X144322200Y-78651314D01*
X144322200Y-78651314D02*
X144274580Y-78698933D01*
X143369819Y-77841790D02*
X144369819Y-77508457D01*
X144369819Y-77508457D02*
X143369819Y-77175124D01*
X143369819Y-76365600D02*
X143369819Y-76841790D01*
X143369819Y-76841790D02*
X143846009Y-76889409D01*
X143846009Y-76889409D02*
X143798390Y-76841790D01*
X143798390Y-76841790D02*
X143750771Y-76746552D01*
X143750771Y-76746552D02*
X143750771Y-76508457D01*
X143750771Y-76508457D02*
X143798390Y-76413219D01*
X143798390Y-76413219D02*
X143846009Y-76365600D01*
X143846009Y-76365600D02*
X143941247Y-76317981D01*
X143941247Y-76317981D02*
X144179342Y-76317981D01*
X144179342Y-76317981D02*
X144274580Y-76365600D01*
X144274580Y-76365600D02*
X144322200Y-76413219D01*
X144322200Y-76413219D02*
X144369819Y-76508457D01*
X144369819Y-76508457D02*
X144369819Y-76746552D01*
X144369819Y-76746552D02*
X144322200Y-76841790D01*
X144322200Y-76841790D02*
X144274580Y-76889409D01*
X144084104Y-75937028D02*
X144084104Y-75460838D01*
X144369819Y-76032266D02*
X143369819Y-75698933D01*
X143369819Y-75698933D02*
X144369819Y-75365600D01*
X144750771Y-75127504D02*
X144703152Y-75079885D01*
X144703152Y-75079885D02*
X144560295Y-74984647D01*
X144560295Y-74984647D02*
X144465057Y-74937028D01*
X144465057Y-74937028D02*
X144322200Y-74889409D01*
X144322200Y-74889409D02*
X144084104Y-74841790D01*
X144084104Y-74841790D02*
X143893628Y-74841790D01*
X143893628Y-74841790D02*
X143655533Y-74889409D01*
X143655533Y-74889409D02*
X143512676Y-74937028D01*
X143512676Y-74937028D02*
X143417438Y-74984647D01*
X143417438Y-74984647D02*
X143274580Y-75079885D01*
X143274580Y-75079885D02*
X143226961Y-75127504D01*
X78586779Y-145369819D02*
X78586779Y-144369819D01*
X78586779Y-144369819D02*
X78967731Y-144369819D01*
X78967731Y-144369819D02*
X79062969Y-144417438D01*
X79062969Y-144417438D02*
X79110588Y-144465057D01*
X79110588Y-144465057D02*
X79158207Y-144560295D01*
X79158207Y-144560295D02*
X79158207Y-144703152D01*
X79158207Y-144703152D02*
X79110588Y-144798390D01*
X79110588Y-144798390D02*
X79062969Y-144846009D01*
X79062969Y-144846009D02*
X78967731Y-144893628D01*
X78967731Y-144893628D02*
X78586779Y-144893628D01*
X79777255Y-144369819D02*
X79967731Y-144369819D01*
X79967731Y-144369819D02*
X80062969Y-144417438D01*
X80062969Y-144417438D02*
X80158207Y-144512676D01*
X80158207Y-144512676D02*
X80205826Y-144703152D01*
X80205826Y-144703152D02*
X80205826Y-145036485D01*
X80205826Y-145036485D02*
X80158207Y-145226961D01*
X80158207Y-145226961D02*
X80062969Y-145322200D01*
X80062969Y-145322200D02*
X79967731Y-145369819D01*
X79967731Y-145369819D02*
X79777255Y-145369819D01*
X79777255Y-145369819D02*
X79682017Y-145322200D01*
X79682017Y-145322200D02*
X79586779Y-145226961D01*
X79586779Y-145226961D02*
X79539160Y-145036485D01*
X79539160Y-145036485D02*
X79539160Y-144703152D01*
X79539160Y-144703152D02*
X79586779Y-144512676D01*
X79586779Y-144512676D02*
X79682017Y-144417438D01*
X79682017Y-144417438D02*
X79777255Y-144369819D01*
X80539160Y-144369819D02*
X80777255Y-145369819D01*
X80777255Y-145369819D02*
X80967731Y-144655533D01*
X80967731Y-144655533D02*
X81158207Y-145369819D01*
X81158207Y-145369819D02*
X81396303Y-144369819D01*
X81777255Y-144846009D02*
X82110588Y-144846009D01*
X82253445Y-145369819D02*
X81777255Y-145369819D01*
X81777255Y-145369819D02*
X81777255Y-144369819D01*
X81777255Y-144369819D02*
X82253445Y-144369819D01*
X83253445Y-145369819D02*
X82920112Y-144893628D01*
X82682017Y-145369819D02*
X82682017Y-144369819D01*
X82682017Y-144369819D02*
X83062969Y-144369819D01*
X83062969Y-144369819D02*
X83158207Y-144417438D01*
X83158207Y-144417438D02*
X83205826Y-144465057D01*
X83205826Y-144465057D02*
X83253445Y-144560295D01*
X83253445Y-144560295D02*
X83253445Y-144703152D01*
X83253445Y-144703152D02*
X83205826Y-144798390D01*
X83205826Y-144798390D02*
X83158207Y-144846009D01*
X83158207Y-144846009D02*
X83062969Y-144893628D01*
X83062969Y-144893628D02*
X82682017Y-144893628D01*
D11*
X104816415Y-81489638D02*
X104149748Y-80537257D01*
X103673558Y-81489638D02*
X103673558Y-79489638D01*
X103673558Y-79489638D02*
X104435463Y-79489638D01*
X104435463Y-79489638D02*
X104625939Y-79584876D01*
X104625939Y-79584876D02*
X104721177Y-79680114D01*
X104721177Y-79680114D02*
X104816415Y-79870590D01*
X104816415Y-79870590D02*
X104816415Y-80156304D01*
X104816415Y-80156304D02*
X104721177Y-80346780D01*
X104721177Y-80346780D02*
X104625939Y-80442019D01*
X104625939Y-80442019D02*
X104435463Y-80537257D01*
X104435463Y-80537257D02*
X103673558Y-80537257D01*
X106530701Y-81489638D02*
X106530701Y-80442019D01*
X106530701Y-80442019D02*
X106435463Y-80251542D01*
X106435463Y-80251542D02*
X106244987Y-80156304D01*
X106244987Y-80156304D02*
X105864034Y-80156304D01*
X105864034Y-80156304D02*
X105673558Y-80251542D01*
X106530701Y-81394400D02*
X106340225Y-81489638D01*
X106340225Y-81489638D02*
X105864034Y-81489638D01*
X105864034Y-81489638D02*
X105673558Y-81394400D01*
X105673558Y-81394400D02*
X105578320Y-81203923D01*
X105578320Y-81203923D02*
X105578320Y-81013447D01*
X105578320Y-81013447D02*
X105673558Y-80822971D01*
X105673558Y-80822971D02*
X105864034Y-80727733D01*
X105864034Y-80727733D02*
X106340225Y-80727733D01*
X106340225Y-80727733D02*
X106530701Y-80632495D01*
X107387844Y-81394400D02*
X107578320Y-81489638D01*
X107578320Y-81489638D02*
X107959272Y-81489638D01*
X107959272Y-81489638D02*
X108149749Y-81394400D01*
X108149749Y-81394400D02*
X108244987Y-81203923D01*
X108244987Y-81203923D02*
X108244987Y-81108685D01*
X108244987Y-81108685D02*
X108149749Y-80918209D01*
X108149749Y-80918209D02*
X107959272Y-80822971D01*
X107959272Y-80822971D02*
X107673558Y-80822971D01*
X107673558Y-80822971D02*
X107483082Y-80727733D01*
X107483082Y-80727733D02*
X107387844Y-80537257D01*
X107387844Y-80537257D02*
X107387844Y-80442019D01*
X107387844Y-80442019D02*
X107483082Y-80251542D01*
X107483082Y-80251542D02*
X107673558Y-80156304D01*
X107673558Y-80156304D02*
X107959272Y-80156304D01*
X107959272Y-80156304D02*
X108149749Y-80251542D01*
X109102130Y-80156304D02*
X109102130Y-82156304D01*
X109102130Y-80251542D02*
X109292606Y-80156304D01*
X109292606Y-80156304D02*
X109673559Y-80156304D01*
X109673559Y-80156304D02*
X109864035Y-80251542D01*
X109864035Y-80251542D02*
X109959273Y-80346780D01*
X109959273Y-80346780D02*
X110054511Y-80537257D01*
X110054511Y-80537257D02*
X110054511Y-81108685D01*
X110054511Y-81108685D02*
X109959273Y-81299161D01*
X109959273Y-81299161D02*
X109864035Y-81394400D01*
X109864035Y-81394400D02*
X109673559Y-81489638D01*
X109673559Y-81489638D02*
X109292606Y-81489638D01*
X109292606Y-81489638D02*
X109102130Y-81394400D01*
X110911654Y-81489638D02*
X110911654Y-79489638D01*
X110911654Y-80251542D02*
X111102130Y-80156304D01*
X111102130Y-80156304D02*
X111483083Y-80156304D01*
X111483083Y-80156304D02*
X111673559Y-80251542D01*
X111673559Y-80251542D02*
X111768797Y-80346780D01*
X111768797Y-80346780D02*
X111864035Y-80537257D01*
X111864035Y-80537257D02*
X111864035Y-81108685D01*
X111864035Y-81108685D02*
X111768797Y-81299161D01*
X111768797Y-81299161D02*
X111673559Y-81394400D01*
X111673559Y-81394400D02*
X111483083Y-81489638D01*
X111483083Y-81489638D02*
X111102130Y-81489638D01*
X111102130Y-81489638D02*
X110911654Y-81394400D01*
X113483083Y-81394400D02*
X113292607Y-81489638D01*
X113292607Y-81489638D02*
X112911654Y-81489638D01*
X112911654Y-81489638D02*
X112721178Y-81394400D01*
X112721178Y-81394400D02*
X112625940Y-81203923D01*
X112625940Y-81203923D02*
X112625940Y-80442019D01*
X112625940Y-80442019D02*
X112721178Y-80251542D01*
X112721178Y-80251542D02*
X112911654Y-80156304D01*
X112911654Y-80156304D02*
X113292607Y-80156304D01*
X113292607Y-80156304D02*
X113483083Y-80251542D01*
X113483083Y-80251542D02*
X113578321Y-80442019D01*
X113578321Y-80442019D02*
X113578321Y-80632495D01*
X113578321Y-80632495D02*
X112625940Y-80822971D01*
X114435464Y-81489638D02*
X114435464Y-80156304D01*
X114435464Y-80537257D02*
X114530702Y-80346780D01*
X114530702Y-80346780D02*
X114625940Y-80251542D01*
X114625940Y-80251542D02*
X114816416Y-80156304D01*
X114816416Y-80156304D02*
X115006893Y-80156304D01*
X115673559Y-81489638D02*
X115673559Y-80156304D01*
X115673559Y-80537257D02*
X115768797Y-80346780D01*
X115768797Y-80346780D02*
X115864035Y-80251542D01*
X115864035Y-80251542D02*
X116054511Y-80156304D01*
X116054511Y-80156304D02*
X116244988Y-80156304D01*
X116721178Y-80156304D02*
X117197368Y-81489638D01*
X117673559Y-80156304D02*
X117197368Y-81489638D01*
X117197368Y-81489638D02*
X117006892Y-81965828D01*
X117006892Y-81965828D02*
X116911654Y-82061066D01*
X116911654Y-82061066D02*
X116721178Y-82156304D01*
X119959274Y-81489638D02*
X119959274Y-79489638D01*
X119959274Y-79489638D02*
X120721179Y-79489638D01*
X120721179Y-79489638D02*
X120911655Y-79584876D01*
X120911655Y-79584876D02*
X121006893Y-79680114D01*
X121006893Y-79680114D02*
X121102131Y-79870590D01*
X121102131Y-79870590D02*
X121102131Y-80156304D01*
X121102131Y-80156304D02*
X121006893Y-80346780D01*
X121006893Y-80346780D02*
X120911655Y-80442019D01*
X120911655Y-80442019D02*
X120721179Y-80537257D01*
X120721179Y-80537257D02*
X119959274Y-80537257D01*
X121959274Y-81489638D02*
X121959274Y-80156304D01*
X121959274Y-79489638D02*
X121864036Y-79584876D01*
X121864036Y-79584876D02*
X121959274Y-79680114D01*
X121959274Y-79680114D02*
X122054512Y-79584876D01*
X122054512Y-79584876D02*
X121959274Y-79489638D01*
X121959274Y-79489638D02*
X121959274Y-79680114D01*
X125387846Y-79489638D02*
X124435465Y-79489638D01*
X124435465Y-79489638D02*
X124340227Y-80442019D01*
X124340227Y-80442019D02*
X124435465Y-80346780D01*
X124435465Y-80346780D02*
X124625941Y-80251542D01*
X124625941Y-80251542D02*
X125102132Y-80251542D01*
X125102132Y-80251542D02*
X125292608Y-80346780D01*
X125292608Y-80346780D02*
X125387846Y-80442019D01*
X125387846Y-80442019D02*
X125483084Y-80632495D01*
X125483084Y-80632495D02*
X125483084Y-81108685D01*
X125483084Y-81108685D02*
X125387846Y-81299161D01*
X125387846Y-81299161D02*
X125292608Y-81394400D01*
X125292608Y-81394400D02*
X125102132Y-81489638D01*
X125102132Y-81489638D02*
X124625941Y-81489638D01*
X124625941Y-81489638D02*
X124435465Y-81394400D01*
X124435465Y-81394400D02*
X124340227Y-81299161D01*
D10*
X74158207Y-145369819D02*
X73824874Y-144893628D01*
X73586779Y-145369819D02*
X73586779Y-144369819D01*
X73586779Y-144369819D02*
X73967731Y-144369819D01*
X73967731Y-144369819D02*
X74062969Y-144417438D01*
X74062969Y-144417438D02*
X74110588Y-144465057D01*
X74110588Y-144465057D02*
X74158207Y-144560295D01*
X74158207Y-144560295D02*
X74158207Y-144703152D01*
X74158207Y-144703152D02*
X74110588Y-144798390D01*
X74110588Y-144798390D02*
X74062969Y-144846009D01*
X74062969Y-144846009D02*
X73967731Y-144893628D01*
X73967731Y-144893628D02*
X73586779Y-144893628D01*
X75015350Y-145369819D02*
X75015350Y-144846009D01*
X75015350Y-144846009D02*
X74967731Y-144750771D01*
X74967731Y-144750771D02*
X74872493Y-144703152D01*
X74872493Y-144703152D02*
X74682017Y-144703152D01*
X74682017Y-144703152D02*
X74586779Y-144750771D01*
X75015350Y-145322200D02*
X74920112Y-145369819D01*
X74920112Y-145369819D02*
X74682017Y-145369819D01*
X74682017Y-145369819D02*
X74586779Y-145322200D01*
X74586779Y-145322200D02*
X74539160Y-145226961D01*
X74539160Y-145226961D02*
X74539160Y-145131723D01*
X74539160Y-145131723D02*
X74586779Y-145036485D01*
X74586779Y-145036485D02*
X74682017Y-144988866D01*
X74682017Y-144988866D02*
X74920112Y-144988866D01*
X74920112Y-144988866D02*
X75015350Y-144941247D01*
X75443922Y-145322200D02*
X75539160Y-145369819D01*
X75539160Y-145369819D02*
X75729636Y-145369819D01*
X75729636Y-145369819D02*
X75824874Y-145322200D01*
X75824874Y-145322200D02*
X75872493Y-145226961D01*
X75872493Y-145226961D02*
X75872493Y-145179342D01*
X75872493Y-145179342D02*
X75824874Y-145084104D01*
X75824874Y-145084104D02*
X75729636Y-145036485D01*
X75729636Y-145036485D02*
X75586779Y-145036485D01*
X75586779Y-145036485D02*
X75491541Y-144988866D01*
X75491541Y-144988866D02*
X75443922Y-144893628D01*
X75443922Y-144893628D02*
X75443922Y-144846009D01*
X75443922Y-144846009D02*
X75491541Y-144750771D01*
X75491541Y-144750771D02*
X75586779Y-144703152D01*
X75586779Y-144703152D02*
X75729636Y-144703152D01*
X75729636Y-144703152D02*
X75824874Y-144750771D01*
X76301065Y-145369819D02*
X76301065Y-144369819D01*
X76301065Y-144369819D02*
X76682017Y-144369819D01*
X76682017Y-144369819D02*
X76777255Y-144417438D01*
X76777255Y-144417438D02*
X76824874Y-144465057D01*
X76824874Y-144465057D02*
X76872493Y-144560295D01*
X76872493Y-144560295D02*
X76872493Y-144703152D01*
X76872493Y-144703152D02*
X76824874Y-144798390D01*
X76824874Y-144798390D02*
X76777255Y-144846009D01*
X76777255Y-144846009D02*
X76682017Y-144893628D01*
X76682017Y-144893628D02*
X76301065Y-144893628D01*
X77301065Y-145369819D02*
X77301065Y-144703152D01*
X77301065Y-144369819D02*
X77253446Y-144417438D01*
X77253446Y-144417438D02*
X77301065Y-144465057D01*
X77301065Y-144465057D02*
X77348684Y-144417438D01*
X77348684Y-144417438D02*
X77301065Y-144369819D01*
X77301065Y-144369819D02*
X77301065Y-144465057D01*
X183745580Y-136967792D02*
X183793200Y-137015411D01*
X183793200Y-137015411D02*
X183840819Y-137158268D01*
X183840819Y-137158268D02*
X183840819Y-137253506D01*
X183840819Y-137253506D02*
X183793200Y-137396363D01*
X183793200Y-137396363D02*
X183697961Y-137491601D01*
X183697961Y-137491601D02*
X183602723Y-137539220D01*
X183602723Y-137539220D02*
X183412247Y-137586839D01*
X183412247Y-137586839D02*
X183269390Y-137586839D01*
X183269390Y-137586839D02*
X183078914Y-137539220D01*
X183078914Y-137539220D02*
X182983676Y-137491601D01*
X182983676Y-137491601D02*
X182888438Y-137396363D01*
X182888438Y-137396363D02*
X182840819Y-137253506D01*
X182840819Y-137253506D02*
X182840819Y-137158268D01*
X182840819Y-137158268D02*
X182888438Y-137015411D01*
X182888438Y-137015411D02*
X182936057Y-136967792D01*
X183555104Y-136586839D02*
X183555104Y-136110649D01*
X183840819Y-136682077D02*
X182840819Y-136348744D01*
X182840819Y-136348744D02*
X183840819Y-136015411D01*
X183840819Y-135682077D02*
X182840819Y-135682077D01*
X182840819Y-135682077D02*
X183840819Y-135110649D01*
X183840819Y-135110649D02*
X182840819Y-135110649D01*
X182936057Y-134682077D02*
X182888438Y-134634458D01*
X182888438Y-134634458D02*
X182840819Y-134539220D01*
X182840819Y-134539220D02*
X182840819Y-134301125D01*
X182840819Y-134301125D02*
X182888438Y-134205887D01*
X182888438Y-134205887D02*
X182936057Y-134158268D01*
X182936057Y-134158268D02*
X183031295Y-134110649D01*
X183031295Y-134110649D02*
X183126533Y-134110649D01*
X183126533Y-134110649D02*
X183269390Y-134158268D01*
X183269390Y-134158268D02*
X183840819Y-134729696D01*
X183840819Y-134729696D02*
X183840819Y-134110649D01*
X164974207Y-160160580D02*
X164926588Y-160208200D01*
X164926588Y-160208200D02*
X164783731Y-160255819D01*
X164783731Y-160255819D02*
X164688493Y-160255819D01*
X164688493Y-160255819D02*
X164545636Y-160208200D01*
X164545636Y-160208200D02*
X164450398Y-160112961D01*
X164450398Y-160112961D02*
X164402779Y-160017723D01*
X164402779Y-160017723D02*
X164355160Y-159827247D01*
X164355160Y-159827247D02*
X164355160Y-159684390D01*
X164355160Y-159684390D02*
X164402779Y-159493914D01*
X164402779Y-159493914D02*
X164450398Y-159398676D01*
X164450398Y-159398676D02*
X164545636Y-159303438D01*
X164545636Y-159303438D02*
X164688493Y-159255819D01*
X164688493Y-159255819D02*
X164783731Y-159255819D01*
X164783731Y-159255819D02*
X164926588Y-159303438D01*
X164926588Y-159303438D02*
X164974207Y-159351057D01*
X165355160Y-159970104D02*
X165831350Y-159970104D01*
X165259922Y-160255819D02*
X165593255Y-159255819D01*
X165593255Y-159255819D02*
X165926588Y-160255819D01*
X166259922Y-160255819D02*
X166259922Y-159255819D01*
X166259922Y-159255819D02*
X166831350Y-160255819D01*
X166831350Y-160255819D02*
X166831350Y-159255819D01*
X167831350Y-160255819D02*
X167259922Y-160255819D01*
X167545636Y-160255819D02*
X167545636Y-159255819D01*
X167545636Y-159255819D02*
X167450398Y-159398676D01*
X167450398Y-159398676D02*
X167355160Y-159493914D01*
X167355160Y-159493914D02*
X167259922Y-159541533D01*
X164055580Y-137117792D02*
X164103200Y-137165411D01*
X164103200Y-137165411D02*
X164150819Y-137308268D01*
X164150819Y-137308268D02*
X164150819Y-137403506D01*
X164150819Y-137403506D02*
X164103200Y-137546363D01*
X164103200Y-137546363D02*
X164007961Y-137641601D01*
X164007961Y-137641601D02*
X163912723Y-137689220D01*
X163912723Y-137689220D02*
X163722247Y-137736839D01*
X163722247Y-137736839D02*
X163579390Y-137736839D01*
X163579390Y-137736839D02*
X163388914Y-137689220D01*
X163388914Y-137689220D02*
X163293676Y-137641601D01*
X163293676Y-137641601D02*
X163198438Y-137546363D01*
X163198438Y-137546363D02*
X163150819Y-137403506D01*
X163150819Y-137403506D02*
X163150819Y-137308268D01*
X163150819Y-137308268D02*
X163198438Y-137165411D01*
X163198438Y-137165411D02*
X163246057Y-137117792D01*
X163865104Y-136736839D02*
X163865104Y-136260649D01*
X164150819Y-136832077D02*
X163150819Y-136498744D01*
X163150819Y-136498744D02*
X164150819Y-136165411D01*
X164150819Y-135832077D02*
X163150819Y-135832077D01*
X163150819Y-135832077D02*
X164150819Y-135260649D01*
X164150819Y-135260649D02*
X163150819Y-135260649D01*
X164150819Y-134260649D02*
X164150819Y-134832077D01*
X164150819Y-134546363D02*
X163150819Y-134546363D01*
X163150819Y-134546363D02*
X163293676Y-134641601D01*
X163293676Y-134641601D02*
X163388914Y-134736839D01*
X163388914Y-134736839D02*
X163436533Y-134832077D01*
X68539160Y-145322200D02*
X68682017Y-145369819D01*
X68682017Y-145369819D02*
X68920112Y-145369819D01*
X68920112Y-145369819D02*
X69015350Y-145322200D01*
X69015350Y-145322200D02*
X69062969Y-145274580D01*
X69062969Y-145274580D02*
X69110588Y-145179342D01*
X69110588Y-145179342D02*
X69110588Y-145084104D01*
X69110588Y-145084104D02*
X69062969Y-144988866D01*
X69062969Y-144988866D02*
X69015350Y-144941247D01*
X69015350Y-144941247D02*
X68920112Y-144893628D01*
X68920112Y-144893628D02*
X68729636Y-144846009D01*
X68729636Y-144846009D02*
X68634398Y-144798390D01*
X68634398Y-144798390D02*
X68586779Y-144750771D01*
X68586779Y-144750771D02*
X68539160Y-144655533D01*
X68539160Y-144655533D02*
X68539160Y-144560295D01*
X68539160Y-144560295D02*
X68586779Y-144465057D01*
X68586779Y-144465057D02*
X68634398Y-144417438D01*
X68634398Y-144417438D02*
X68729636Y-144369819D01*
X68729636Y-144369819D02*
X68967731Y-144369819D01*
X68967731Y-144369819D02*
X69110588Y-144417438D01*
X69396303Y-144369819D02*
X69967731Y-144369819D01*
X69682017Y-145369819D02*
X69682017Y-144369819D01*
X70301065Y-145369819D02*
X70301065Y-144369819D01*
X70301065Y-144369819D02*
X70634398Y-145084104D01*
X70634398Y-145084104D02*
X70967731Y-144369819D01*
X70967731Y-144369819D02*
X70967731Y-145369819D01*
D11*
X168423558Y-32489638D02*
X168423558Y-30489638D01*
X168423558Y-30489638D02*
X169566415Y-32489638D01*
X169566415Y-32489638D02*
X169566415Y-30489638D01*
X170518796Y-30489638D02*
X170518796Y-32108685D01*
X170518796Y-32108685D02*
X170614034Y-32299161D01*
X170614034Y-32299161D02*
X170709272Y-32394400D01*
X170709272Y-32394400D02*
X170899748Y-32489638D01*
X170899748Y-32489638D02*
X171280701Y-32489638D01*
X171280701Y-32489638D02*
X171471177Y-32394400D01*
X171471177Y-32394400D02*
X171566415Y-32299161D01*
X171566415Y-32299161D02*
X171661653Y-32108685D01*
X171661653Y-32108685D02*
X171661653Y-30489638D01*
X173756891Y-32299161D02*
X173661653Y-32394400D01*
X173661653Y-32394400D02*
X173375939Y-32489638D01*
X173375939Y-32489638D02*
X173185463Y-32489638D01*
X173185463Y-32489638D02*
X172899748Y-32394400D01*
X172899748Y-32394400D02*
X172709272Y-32203923D01*
X172709272Y-32203923D02*
X172614034Y-32013447D01*
X172614034Y-32013447D02*
X172518796Y-31632495D01*
X172518796Y-31632495D02*
X172518796Y-31346780D01*
X172518796Y-31346780D02*
X172614034Y-30965828D01*
X172614034Y-30965828D02*
X172709272Y-30775352D01*
X172709272Y-30775352D02*
X172899748Y-30584876D01*
X172899748Y-30584876D02*
X173185463Y-30489638D01*
X173185463Y-30489638D02*
X173375939Y-30489638D01*
X173375939Y-30489638D02*
X173661653Y-30584876D01*
X173661653Y-30584876D02*
X173756891Y-30680114D01*
X175566415Y-32489638D02*
X174614034Y-32489638D01*
X174614034Y-32489638D02*
X174614034Y-30489638D01*
X176233082Y-31442019D02*
X176899749Y-31442019D01*
X177185463Y-32489638D02*
X176233082Y-32489638D01*
X176233082Y-32489638D02*
X176233082Y-30489638D01*
X176233082Y-30489638D02*
X177185463Y-30489638D01*
X178423558Y-30489638D02*
X178804511Y-30489638D01*
X178804511Y-30489638D02*
X178994987Y-30584876D01*
X178994987Y-30584876D02*
X179185463Y-30775352D01*
X179185463Y-30775352D02*
X179280701Y-31156304D01*
X179280701Y-31156304D02*
X179280701Y-31822971D01*
X179280701Y-31822971D02*
X179185463Y-32203923D01*
X179185463Y-32203923D02*
X178994987Y-32394400D01*
X178994987Y-32394400D02*
X178804511Y-32489638D01*
X178804511Y-32489638D02*
X178423558Y-32489638D01*
X178423558Y-32489638D02*
X178233082Y-32394400D01*
X178233082Y-32394400D02*
X178042606Y-32203923D01*
X178042606Y-32203923D02*
X177947368Y-31822971D01*
X177947368Y-31822971D02*
X177947368Y-31156304D01*
X177947368Y-31156304D02*
X178042606Y-30775352D01*
X178042606Y-30775352D02*
X178233082Y-30584876D01*
X178233082Y-30584876D02*
X178423558Y-30489638D01*
X180137844Y-31727733D02*
X181661654Y-31727733D01*
X182614034Y-32489638D02*
X182614034Y-30489638D01*
X182614034Y-31442019D02*
X183756891Y-31442019D01*
X183756891Y-32489638D02*
X183756891Y-30489638D01*
X184518796Y-30489638D02*
X185852129Y-30489638D01*
X185852129Y-30489638D02*
X184994986Y-32489638D01*
X187566415Y-30489638D02*
X186614034Y-30489638D01*
X186614034Y-30489638D02*
X186518796Y-31442019D01*
X186518796Y-31442019D02*
X186614034Y-31346780D01*
X186614034Y-31346780D02*
X186804510Y-31251542D01*
X186804510Y-31251542D02*
X187280701Y-31251542D01*
X187280701Y-31251542D02*
X187471177Y-31346780D01*
X187471177Y-31346780D02*
X187566415Y-31442019D01*
X187566415Y-31442019D02*
X187661653Y-31632495D01*
X187661653Y-31632495D02*
X187661653Y-32108685D01*
X187661653Y-32108685D02*
X187566415Y-32299161D01*
X187566415Y-32299161D02*
X187471177Y-32394400D01*
X187471177Y-32394400D02*
X187280701Y-32489638D01*
X187280701Y-32489638D02*
X186804510Y-32489638D01*
X186804510Y-32489638D02*
X186614034Y-32394400D01*
X186614034Y-32394400D02*
X186518796Y-32299161D01*
X189471177Y-30489638D02*
X188518796Y-30489638D01*
X188518796Y-30489638D02*
X188423558Y-31442019D01*
X188423558Y-31442019D02*
X188518796Y-31346780D01*
X188518796Y-31346780D02*
X188709272Y-31251542D01*
X188709272Y-31251542D02*
X189185463Y-31251542D01*
X189185463Y-31251542D02*
X189375939Y-31346780D01*
X189375939Y-31346780D02*
X189471177Y-31442019D01*
X189471177Y-31442019D02*
X189566415Y-31632495D01*
X189566415Y-31632495D02*
X189566415Y-32108685D01*
X189566415Y-32108685D02*
X189471177Y-32299161D01*
X189471177Y-32299161D02*
X189375939Y-32394400D01*
X189375939Y-32394400D02*
X189185463Y-32489638D01*
X189185463Y-32489638D02*
X188709272Y-32489638D01*
X188709272Y-32489638D02*
X188518796Y-32394400D01*
X188518796Y-32394400D02*
X188423558Y-32299161D01*
X190233082Y-30489638D02*
X191566415Y-30489638D01*
X191566415Y-30489638D02*
X190233082Y-32489638D01*
X190233082Y-32489638D02*
X191566415Y-32489638D01*
X192328320Y-32489638D02*
X192328320Y-30489638D01*
X193280701Y-31727733D02*
X194804511Y-31727733D01*
X197090224Y-32680114D02*
X196899748Y-32584876D01*
X196899748Y-32584876D02*
X196709272Y-32394400D01*
X196709272Y-32394400D02*
X196423558Y-32108685D01*
X196423558Y-32108685D02*
X196233081Y-32013447D01*
X196233081Y-32013447D02*
X196042605Y-32013447D01*
X196137843Y-32489638D02*
X195947367Y-32394400D01*
X195947367Y-32394400D02*
X195756891Y-32203923D01*
X195756891Y-32203923D02*
X195661653Y-31822971D01*
X195661653Y-31822971D02*
X195661653Y-31156304D01*
X195661653Y-31156304D02*
X195756891Y-30775352D01*
X195756891Y-30775352D02*
X195947367Y-30584876D01*
X195947367Y-30584876D02*
X196137843Y-30489638D01*
X196137843Y-30489638D02*
X196518796Y-30489638D01*
X196518796Y-30489638D02*
X196709272Y-30584876D01*
X196709272Y-30584876D02*
X196899748Y-30775352D01*
X196899748Y-30775352D02*
X196994986Y-31156304D01*
X196994986Y-31156304D02*
X196994986Y-31822971D01*
X196994986Y-31822971D02*
X196899748Y-32203923D01*
X196899748Y-32203923D02*
X196709272Y-32394400D01*
X196709272Y-32394400D02*
X196518796Y-32489638D01*
X196518796Y-32489638D02*
X196137843Y-32489638D01*
D10*
X143353988Y-88359838D02*
X143258750Y-88312219D01*
X143258750Y-88312219D02*
X143115893Y-88312219D01*
X143115893Y-88312219D02*
X142973036Y-88359838D01*
X142973036Y-88359838D02*
X142877798Y-88455076D01*
X142877798Y-88455076D02*
X142830179Y-88550314D01*
X142830179Y-88550314D02*
X142782560Y-88740790D01*
X142782560Y-88740790D02*
X142782560Y-88883647D01*
X142782560Y-88883647D02*
X142830179Y-89074123D01*
X142830179Y-89074123D02*
X142877798Y-89169361D01*
X142877798Y-89169361D02*
X142973036Y-89264600D01*
X142973036Y-89264600D02*
X143115893Y-89312219D01*
X143115893Y-89312219D02*
X143211131Y-89312219D01*
X143211131Y-89312219D02*
X143353988Y-89264600D01*
X143353988Y-89264600D02*
X143401607Y-89216980D01*
X143401607Y-89216980D02*
X143401607Y-88883647D01*
X143401607Y-88883647D02*
X143211131Y-88883647D01*
X143830179Y-89312219D02*
X143830179Y-88312219D01*
X143830179Y-88312219D02*
X144401607Y-89312219D01*
X144401607Y-89312219D02*
X144401607Y-88312219D01*
X144877798Y-89312219D02*
X144877798Y-88312219D01*
X144877798Y-88312219D02*
X145115893Y-88312219D01*
X145115893Y-88312219D02*
X145258750Y-88359838D01*
X145258750Y-88359838D02*
X145353988Y-88455076D01*
X145353988Y-88455076D02*
X145401607Y-88550314D01*
X145401607Y-88550314D02*
X145449226Y-88740790D01*
X145449226Y-88740790D02*
X145449226Y-88883647D01*
X145449226Y-88883647D02*
X145401607Y-89074123D01*
X145401607Y-89074123D02*
X145353988Y-89169361D01*
X145353988Y-89169361D02*
X145258750Y-89264600D01*
X145258750Y-89264600D02*
X145115893Y-89312219D01*
X145115893Y-89312219D02*
X144877798Y-89312219D01*
D12*
X181260476Y-93124895D02*
X181260476Y-93772514D01*
X181260476Y-93772514D02*
X181298571Y-93848704D01*
X181298571Y-93848704D02*
X181336666Y-93886800D01*
X181336666Y-93886800D02*
X181412857Y-93924895D01*
X181412857Y-93924895D02*
X181565238Y-93924895D01*
X181565238Y-93924895D02*
X181641428Y-93886800D01*
X181641428Y-93886800D02*
X181679523Y-93848704D01*
X181679523Y-93848704D02*
X181717619Y-93772514D01*
X181717619Y-93772514D02*
X181717619Y-93124895D01*
X182022380Y-93124895D02*
X182517618Y-93124895D01*
X182517618Y-93124895D02*
X182250952Y-93429657D01*
X182250952Y-93429657D02*
X182365237Y-93429657D01*
X182365237Y-93429657D02*
X182441428Y-93467752D01*
X182441428Y-93467752D02*
X182479523Y-93505847D01*
X182479523Y-93505847D02*
X182517618Y-93582038D01*
X182517618Y-93582038D02*
X182517618Y-93772514D01*
X182517618Y-93772514D02*
X182479523Y-93848704D01*
X182479523Y-93848704D02*
X182441428Y-93886800D01*
X182441428Y-93886800D02*
X182365237Y-93924895D01*
X182365237Y-93924895D02*
X182136666Y-93924895D01*
X182136666Y-93924895D02*
X182060475Y-93886800D01*
X182060475Y-93886800D02*
X182022380Y-93848704D01*
D10*
X100304819Y-63842857D02*
X99828628Y-64176190D01*
X100304819Y-64414285D02*
X99304819Y-64414285D01*
X99304819Y-64414285D02*
X99304819Y-64033333D01*
X99304819Y-64033333D02*
X99352438Y-63938095D01*
X99352438Y-63938095D02*
X99400057Y-63890476D01*
X99400057Y-63890476D02*
X99495295Y-63842857D01*
X99495295Y-63842857D02*
X99638152Y-63842857D01*
X99638152Y-63842857D02*
X99733390Y-63890476D01*
X99733390Y-63890476D02*
X99781009Y-63938095D01*
X99781009Y-63938095D02*
X99828628Y-64033333D01*
X99828628Y-64033333D02*
X99828628Y-64414285D01*
X100304819Y-62890476D02*
X100304819Y-63461904D01*
X100304819Y-63176190D02*
X99304819Y-63176190D01*
X99304819Y-63176190D02*
X99447676Y-63271428D01*
X99447676Y-63271428D02*
X99542914Y-63366666D01*
X99542914Y-63366666D02*
X99590533Y-63461904D01*
X99304819Y-61985714D02*
X99304819Y-62461904D01*
X99304819Y-62461904D02*
X99781009Y-62509523D01*
X99781009Y-62509523D02*
X99733390Y-62461904D01*
X99733390Y-62461904D02*
X99685771Y-62366666D01*
X99685771Y-62366666D02*
X99685771Y-62128571D01*
X99685771Y-62128571D02*
X99733390Y-62033333D01*
X99733390Y-62033333D02*
X99781009Y-61985714D01*
X99781009Y-61985714D02*
X99876247Y-61938095D01*
X99876247Y-61938095D02*
X100114342Y-61938095D01*
X100114342Y-61938095D02*
X100209580Y-61985714D01*
X100209580Y-61985714D02*
X100257200Y-62033333D01*
X100257200Y-62033333D02*
X100304819Y-62128571D01*
X100304819Y-62128571D02*
X100304819Y-62366666D01*
X100304819Y-62366666D02*
X100257200Y-62461904D01*
X100257200Y-62461904D02*
X100209580Y-62509523D01*
D12*
X198169704Y-128860285D02*
X198207800Y-128898381D01*
X198207800Y-128898381D02*
X198245895Y-129012666D01*
X198245895Y-129012666D02*
X198245895Y-129088857D01*
X198245895Y-129088857D02*
X198207800Y-129203143D01*
X198207800Y-129203143D02*
X198131609Y-129279333D01*
X198131609Y-129279333D02*
X198055419Y-129317428D01*
X198055419Y-129317428D02*
X197903038Y-129355524D01*
X197903038Y-129355524D02*
X197788752Y-129355524D01*
X197788752Y-129355524D02*
X197636371Y-129317428D01*
X197636371Y-129317428D02*
X197560180Y-129279333D01*
X197560180Y-129279333D02*
X197483990Y-129203143D01*
X197483990Y-129203143D02*
X197445895Y-129088857D01*
X197445895Y-129088857D02*
X197445895Y-129012666D01*
X197445895Y-129012666D02*
X197483990Y-128898381D01*
X197483990Y-128898381D02*
X197522085Y-128860285D01*
X198245895Y-128098381D02*
X198245895Y-128555524D01*
X198245895Y-128326952D02*
X197445895Y-128326952D01*
X197445895Y-128326952D02*
X197560180Y-128403143D01*
X197560180Y-128403143D02*
X197636371Y-128479333D01*
X197636371Y-128479333D02*
X197674466Y-128555524D01*
X197445895Y-127374571D02*
X197445895Y-127755523D01*
X197445895Y-127755523D02*
X197826847Y-127793619D01*
X197826847Y-127793619D02*
X197788752Y-127755523D01*
X197788752Y-127755523D02*
X197750657Y-127679333D01*
X197750657Y-127679333D02*
X197750657Y-127488857D01*
X197750657Y-127488857D02*
X197788752Y-127412666D01*
X197788752Y-127412666D02*
X197826847Y-127374571D01*
X197826847Y-127374571D02*
X197903038Y-127336476D01*
X197903038Y-127336476D02*
X198093514Y-127336476D01*
X198093514Y-127336476D02*
X198169704Y-127374571D01*
X198169704Y-127374571D02*
X198207800Y-127412666D01*
X198207800Y-127412666D02*
X198245895Y-127488857D01*
X198245895Y-127488857D02*
X198245895Y-127679333D01*
X198245895Y-127679333D02*
X198207800Y-127755523D01*
X198207800Y-127755523D02*
X198169704Y-127793619D01*
X193208333Y-150544895D02*
X193208333Y-151116323D01*
X193208333Y-151116323D02*
X193170238Y-151230609D01*
X193170238Y-151230609D02*
X193094047Y-151306800D01*
X193094047Y-151306800D02*
X192979762Y-151344895D01*
X192979762Y-151344895D02*
X192903571Y-151344895D01*
X193513095Y-150544895D02*
X194008333Y-150544895D01*
X194008333Y-150544895D02*
X193741667Y-150849657D01*
X193741667Y-150849657D02*
X193855952Y-150849657D01*
X193855952Y-150849657D02*
X193932143Y-150887752D01*
X193932143Y-150887752D02*
X193970238Y-150925847D01*
X193970238Y-150925847D02*
X194008333Y-151002038D01*
X194008333Y-151002038D02*
X194008333Y-151192514D01*
X194008333Y-151192514D02*
X193970238Y-151268704D01*
X193970238Y-151268704D02*
X193932143Y-151306800D01*
X193932143Y-151306800D02*
X193855952Y-151344895D01*
X193855952Y-151344895D02*
X193627381Y-151344895D01*
X193627381Y-151344895D02*
X193551190Y-151306800D01*
X193551190Y-151306800D02*
X193513095Y-151268704D01*
X163287667Y-129684704D02*
X163249571Y-129722800D01*
X163249571Y-129722800D02*
X163135286Y-129760895D01*
X163135286Y-129760895D02*
X163059095Y-129760895D01*
X163059095Y-129760895D02*
X162944809Y-129722800D01*
X162944809Y-129722800D02*
X162868619Y-129646609D01*
X162868619Y-129646609D02*
X162830524Y-129570419D01*
X162830524Y-129570419D02*
X162792428Y-129418038D01*
X162792428Y-129418038D02*
X162792428Y-129303752D01*
X162792428Y-129303752D02*
X162830524Y-129151371D01*
X162830524Y-129151371D02*
X162868619Y-129075180D01*
X162868619Y-129075180D02*
X162944809Y-128998990D01*
X162944809Y-128998990D02*
X163059095Y-128960895D01*
X163059095Y-128960895D02*
X163135286Y-128960895D01*
X163135286Y-128960895D02*
X163249571Y-128998990D01*
X163249571Y-128998990D02*
X163287667Y-129037085D01*
X164011476Y-128960895D02*
X163630524Y-128960895D01*
X163630524Y-128960895D02*
X163592428Y-129341847D01*
X163592428Y-129341847D02*
X163630524Y-129303752D01*
X163630524Y-129303752D02*
X163706714Y-129265657D01*
X163706714Y-129265657D02*
X163897190Y-129265657D01*
X163897190Y-129265657D02*
X163973381Y-129303752D01*
X163973381Y-129303752D02*
X164011476Y-129341847D01*
X164011476Y-129341847D02*
X164049571Y-129418038D01*
X164049571Y-129418038D02*
X164049571Y-129608514D01*
X164049571Y-129608514D02*
X164011476Y-129684704D01*
X164011476Y-129684704D02*
X163973381Y-129722800D01*
X163973381Y-129722800D02*
X163897190Y-129760895D01*
X163897190Y-129760895D02*
X163706714Y-129760895D01*
X163706714Y-129760895D02*
X163630524Y-129722800D01*
X163630524Y-129722800D02*
X163592428Y-129684704D01*
X126065380Y-33991561D02*
X126370142Y-33991561D01*
X126179666Y-34524895D02*
X126179666Y-33839180D01*
X126179666Y-33839180D02*
X126217761Y-33762990D01*
X126217761Y-33762990D02*
X126293951Y-33724895D01*
X126293951Y-33724895D02*
X126370142Y-33724895D01*
X126751094Y-34524895D02*
X126674904Y-34486800D01*
X126674904Y-34486800D02*
X126636809Y-34448704D01*
X126636809Y-34448704D02*
X126598713Y-34372514D01*
X126598713Y-34372514D02*
X126598713Y-34143942D01*
X126598713Y-34143942D02*
X126636809Y-34067752D01*
X126636809Y-34067752D02*
X126674904Y-34029657D01*
X126674904Y-34029657D02*
X126751094Y-33991561D01*
X126751094Y-33991561D02*
X126865380Y-33991561D01*
X126865380Y-33991561D02*
X126941571Y-34029657D01*
X126941571Y-34029657D02*
X126979666Y-34067752D01*
X126979666Y-34067752D02*
X127017761Y-34143942D01*
X127017761Y-34143942D02*
X127017761Y-34372514D01*
X127017761Y-34372514D02*
X126979666Y-34448704D01*
X126979666Y-34448704D02*
X126941571Y-34486800D01*
X126941571Y-34486800D02*
X126865380Y-34524895D01*
X126865380Y-34524895D02*
X126751094Y-34524895D01*
X127360619Y-34524895D02*
X127360619Y-33991561D01*
X127360619Y-34143942D02*
X127398714Y-34067752D01*
X127398714Y-34067752D02*
X127436809Y-34029657D01*
X127436809Y-34029657D02*
X127513000Y-33991561D01*
X127513000Y-33991561D02*
X127589190Y-33991561D01*
X127665381Y-34601085D02*
X128274904Y-34601085D01*
X128465381Y-34524895D02*
X128465381Y-33724895D01*
X128465381Y-33724895D02*
X128770143Y-33724895D01*
X128770143Y-33724895D02*
X128846333Y-33762990D01*
X128846333Y-33762990D02*
X128884428Y-33801085D01*
X128884428Y-33801085D02*
X128922524Y-33877276D01*
X128922524Y-33877276D02*
X128922524Y-33991561D01*
X128922524Y-33991561D02*
X128884428Y-34067752D01*
X128884428Y-34067752D02*
X128846333Y-34105847D01*
X128846333Y-34105847D02*
X128770143Y-34143942D01*
X128770143Y-34143942D02*
X128465381Y-34143942D01*
X129684428Y-33762990D02*
X129608238Y-33724895D01*
X129608238Y-33724895D02*
X129493952Y-33724895D01*
X129493952Y-33724895D02*
X129379666Y-33762990D01*
X129379666Y-33762990D02*
X129303476Y-33839180D01*
X129303476Y-33839180D02*
X129265381Y-33915371D01*
X129265381Y-33915371D02*
X129227285Y-34067752D01*
X129227285Y-34067752D02*
X129227285Y-34182038D01*
X129227285Y-34182038D02*
X129265381Y-34334419D01*
X129265381Y-34334419D02*
X129303476Y-34410609D01*
X129303476Y-34410609D02*
X129379666Y-34486800D01*
X129379666Y-34486800D02*
X129493952Y-34524895D01*
X129493952Y-34524895D02*
X129570143Y-34524895D01*
X129570143Y-34524895D02*
X129684428Y-34486800D01*
X129684428Y-34486800D02*
X129722524Y-34448704D01*
X129722524Y-34448704D02*
X129722524Y-34182038D01*
X129722524Y-34182038D02*
X129570143Y-34182038D01*
X130484428Y-34524895D02*
X130027285Y-34524895D01*
X130255857Y-34524895D02*
X130255857Y-33724895D01*
X130255857Y-33724895D02*
X130179666Y-33839180D01*
X130179666Y-33839180D02*
X130103476Y-33915371D01*
X130103476Y-33915371D02*
X130027285Y-33953466D01*
D10*
X116272047Y-31614819D02*
X115938714Y-31138628D01*
X115700619Y-31614819D02*
X115700619Y-30614819D01*
X115700619Y-30614819D02*
X116081571Y-30614819D01*
X116081571Y-30614819D02*
X116176809Y-30662438D01*
X116176809Y-30662438D02*
X116224428Y-30710057D01*
X116224428Y-30710057D02*
X116272047Y-30805295D01*
X116272047Y-30805295D02*
X116272047Y-30948152D01*
X116272047Y-30948152D02*
X116224428Y-31043390D01*
X116224428Y-31043390D02*
X116176809Y-31091009D01*
X116176809Y-31091009D02*
X116081571Y-31138628D01*
X116081571Y-31138628D02*
X115700619Y-31138628D01*
X117081571Y-31567200D02*
X116986333Y-31614819D01*
X116986333Y-31614819D02*
X116795857Y-31614819D01*
X116795857Y-31614819D02*
X116700619Y-31567200D01*
X116700619Y-31567200D02*
X116653000Y-31471961D01*
X116653000Y-31471961D02*
X116653000Y-31091009D01*
X116653000Y-31091009D02*
X116700619Y-30995771D01*
X116700619Y-30995771D02*
X116795857Y-30948152D01*
X116795857Y-30948152D02*
X116986333Y-30948152D01*
X116986333Y-30948152D02*
X117081571Y-30995771D01*
X117081571Y-30995771D02*
X117129190Y-31091009D01*
X117129190Y-31091009D02*
X117129190Y-31186247D01*
X117129190Y-31186247D02*
X116653000Y-31281485D01*
X117986333Y-31614819D02*
X117986333Y-31091009D01*
X117986333Y-31091009D02*
X117938714Y-30995771D01*
X117938714Y-30995771D02*
X117843476Y-30948152D01*
X117843476Y-30948152D02*
X117653000Y-30948152D01*
X117653000Y-30948152D02*
X117557762Y-30995771D01*
X117986333Y-31567200D02*
X117891095Y-31614819D01*
X117891095Y-31614819D02*
X117653000Y-31614819D01*
X117653000Y-31614819D02*
X117557762Y-31567200D01*
X117557762Y-31567200D02*
X117510143Y-31471961D01*
X117510143Y-31471961D02*
X117510143Y-31376723D01*
X117510143Y-31376723D02*
X117557762Y-31281485D01*
X117557762Y-31281485D02*
X117653000Y-31233866D01*
X117653000Y-31233866D02*
X117891095Y-31233866D01*
X117891095Y-31233866D02*
X117986333Y-31186247D01*
X118462524Y-31614819D02*
X118462524Y-30948152D01*
X118462524Y-31138628D02*
X118510143Y-31043390D01*
X118510143Y-31043390D02*
X118557762Y-30995771D01*
X118557762Y-30995771D02*
X118653000Y-30948152D01*
X118653000Y-30948152D02*
X118748238Y-30948152D01*
D12*
X163287667Y-128184704D02*
X163249571Y-128222800D01*
X163249571Y-128222800D02*
X163135286Y-128260895D01*
X163135286Y-128260895D02*
X163059095Y-128260895D01*
X163059095Y-128260895D02*
X162944809Y-128222800D01*
X162944809Y-128222800D02*
X162868619Y-128146609D01*
X162868619Y-128146609D02*
X162830524Y-128070419D01*
X162830524Y-128070419D02*
X162792428Y-127918038D01*
X162792428Y-127918038D02*
X162792428Y-127803752D01*
X162792428Y-127803752D02*
X162830524Y-127651371D01*
X162830524Y-127651371D02*
X162868619Y-127575180D01*
X162868619Y-127575180D02*
X162944809Y-127498990D01*
X162944809Y-127498990D02*
X163059095Y-127460895D01*
X163059095Y-127460895D02*
X163135286Y-127460895D01*
X163135286Y-127460895D02*
X163249571Y-127498990D01*
X163249571Y-127498990D02*
X163287667Y-127537085D01*
X163973381Y-127727561D02*
X163973381Y-128260895D01*
X163782905Y-127422800D02*
X163592428Y-127994228D01*
X163592428Y-127994228D02*
X164087667Y-127994228D01*
X78748200Y-151039582D02*
X78710104Y-151153868D01*
X78710104Y-151153868D02*
X78710104Y-151344344D01*
X78710104Y-151344344D02*
X78748200Y-151420535D01*
X78748200Y-151420535D02*
X78786295Y-151458630D01*
X78786295Y-151458630D02*
X78862485Y-151496725D01*
X78862485Y-151496725D02*
X78938676Y-151496725D01*
X78938676Y-151496725D02*
X79014866Y-151458630D01*
X79014866Y-151458630D02*
X79052961Y-151420535D01*
X79052961Y-151420535D02*
X79091057Y-151344344D01*
X79091057Y-151344344D02*
X79129152Y-151191963D01*
X79129152Y-151191963D02*
X79167247Y-151115773D01*
X79167247Y-151115773D02*
X79205342Y-151077678D01*
X79205342Y-151077678D02*
X79281533Y-151039582D01*
X79281533Y-151039582D02*
X79357723Y-151039582D01*
X79357723Y-151039582D02*
X79433914Y-151077678D01*
X79433914Y-151077678D02*
X79472009Y-151115773D01*
X79472009Y-151115773D02*
X79510104Y-151191963D01*
X79510104Y-151191963D02*
X79510104Y-151382440D01*
X79510104Y-151382440D02*
X79472009Y-151496725D01*
X79510104Y-151763392D02*
X78710104Y-151953868D01*
X78710104Y-151953868D02*
X79281533Y-152106249D01*
X79281533Y-152106249D02*
X78710104Y-152258630D01*
X78710104Y-152258630D02*
X79510104Y-152449107D01*
X78710104Y-153172916D02*
X78710104Y-152715773D01*
X78710104Y-152944345D02*
X79510104Y-152944345D01*
X79510104Y-152944345D02*
X79395819Y-152868154D01*
X79395819Y-152868154D02*
X79319628Y-152791964D01*
X79319628Y-152791964D02*
X79281533Y-152715773D01*
D10*
X168610533Y-128537219D02*
X168277200Y-128061028D01*
X168039105Y-128537219D02*
X168039105Y-127537219D01*
X168039105Y-127537219D02*
X168420057Y-127537219D01*
X168420057Y-127537219D02*
X168515295Y-127584838D01*
X168515295Y-127584838D02*
X168562914Y-127632457D01*
X168562914Y-127632457D02*
X168610533Y-127727695D01*
X168610533Y-127727695D02*
X168610533Y-127870552D01*
X168610533Y-127870552D02*
X168562914Y-127965790D01*
X168562914Y-127965790D02*
X168515295Y-128013409D01*
X168515295Y-128013409D02*
X168420057Y-128061028D01*
X168420057Y-128061028D02*
X168039105Y-128061028D01*
X168943867Y-127537219D02*
X169562914Y-127537219D01*
X169562914Y-127537219D02*
X169229581Y-127918171D01*
X169229581Y-127918171D02*
X169372438Y-127918171D01*
X169372438Y-127918171D02*
X169467676Y-127965790D01*
X169467676Y-127965790D02*
X169515295Y-128013409D01*
X169515295Y-128013409D02*
X169562914Y-128108647D01*
X169562914Y-128108647D02*
X169562914Y-128346742D01*
X169562914Y-128346742D02*
X169515295Y-128441980D01*
X169515295Y-128441980D02*
X169467676Y-128489600D01*
X169467676Y-128489600D02*
X169372438Y-128537219D01*
X169372438Y-128537219D02*
X169086724Y-128537219D01*
X169086724Y-128537219D02*
X168991486Y-128489600D01*
X168991486Y-128489600D02*
X168943867Y-128441980D01*
D12*
X63214895Y-161257975D02*
X62414895Y-161257975D01*
X62414895Y-161257975D02*
X62414895Y-161067499D01*
X62414895Y-161067499D02*
X62452990Y-160953213D01*
X62452990Y-160953213D02*
X62529180Y-160877023D01*
X62529180Y-160877023D02*
X62605371Y-160838928D01*
X62605371Y-160838928D02*
X62757752Y-160800832D01*
X62757752Y-160800832D02*
X62872038Y-160800832D01*
X62872038Y-160800832D02*
X63024419Y-160838928D01*
X63024419Y-160838928D02*
X63100609Y-160877023D01*
X63100609Y-160877023D02*
X63176800Y-160953213D01*
X63176800Y-160953213D02*
X63214895Y-161067499D01*
X63214895Y-161067499D02*
X63214895Y-161257975D01*
X62681561Y-160115118D02*
X63214895Y-160115118D01*
X62376800Y-160305594D02*
X62948228Y-160496071D01*
X62948228Y-160496071D02*
X62948228Y-160000832D01*
X61614895Y-161202975D02*
X60814895Y-161202975D01*
X60814895Y-161202975D02*
X60814895Y-161012499D01*
X60814895Y-161012499D02*
X60852990Y-160898213D01*
X60852990Y-160898213D02*
X60929180Y-160822023D01*
X60929180Y-160822023D02*
X61005371Y-160783928D01*
X61005371Y-160783928D02*
X61157752Y-160745832D01*
X61157752Y-160745832D02*
X61272038Y-160745832D01*
X61272038Y-160745832D02*
X61424419Y-160783928D01*
X61424419Y-160783928D02*
X61500609Y-160822023D01*
X61500609Y-160822023D02*
X61576800Y-160898213D01*
X61576800Y-160898213D02*
X61614895Y-161012499D01*
X61614895Y-161012499D02*
X61614895Y-161202975D01*
X60891085Y-160441071D02*
X60852990Y-160402975D01*
X60852990Y-160402975D02*
X60814895Y-160326785D01*
X60814895Y-160326785D02*
X60814895Y-160136309D01*
X60814895Y-160136309D02*
X60852990Y-160060118D01*
X60852990Y-160060118D02*
X60891085Y-160022023D01*
X60891085Y-160022023D02*
X60967276Y-159983928D01*
X60967276Y-159983928D02*
X61043466Y-159983928D01*
X61043466Y-159983928D02*
X61157752Y-160022023D01*
X61157752Y-160022023D02*
X61614895Y-160479166D01*
X61614895Y-160479166D02*
X61614895Y-159983928D01*
X119038714Y-59054895D02*
X118772047Y-58673942D01*
X118581571Y-59054895D02*
X118581571Y-58254895D01*
X118581571Y-58254895D02*
X118886333Y-58254895D01*
X118886333Y-58254895D02*
X118962523Y-58292990D01*
X118962523Y-58292990D02*
X119000618Y-58331085D01*
X119000618Y-58331085D02*
X119038714Y-58407276D01*
X119038714Y-58407276D02*
X119038714Y-58521561D01*
X119038714Y-58521561D02*
X119000618Y-58597752D01*
X119000618Y-58597752D02*
X118962523Y-58635847D01*
X118962523Y-58635847D02*
X118886333Y-58673942D01*
X118886333Y-58673942D02*
X118581571Y-58673942D01*
X119800618Y-59054895D02*
X119343475Y-59054895D01*
X119572047Y-59054895D02*
X119572047Y-58254895D01*
X119572047Y-58254895D02*
X119495856Y-58369180D01*
X119495856Y-58369180D02*
X119419666Y-58445371D01*
X119419666Y-58445371D02*
X119343475Y-58483466D01*
X120486333Y-58521561D02*
X120486333Y-59054895D01*
X120295857Y-58216800D02*
X120105380Y-58788228D01*
X120105380Y-58788228D02*
X120600619Y-58788228D01*
X67848200Y-150959582D02*
X67810104Y-151073868D01*
X67810104Y-151073868D02*
X67810104Y-151264344D01*
X67810104Y-151264344D02*
X67848200Y-151340535D01*
X67848200Y-151340535D02*
X67886295Y-151378630D01*
X67886295Y-151378630D02*
X67962485Y-151416725D01*
X67962485Y-151416725D02*
X68038676Y-151416725D01*
X68038676Y-151416725D02*
X68114866Y-151378630D01*
X68114866Y-151378630D02*
X68152961Y-151340535D01*
X68152961Y-151340535D02*
X68191057Y-151264344D01*
X68191057Y-151264344D02*
X68229152Y-151111963D01*
X68229152Y-151111963D02*
X68267247Y-151035773D01*
X68267247Y-151035773D02*
X68305342Y-150997678D01*
X68305342Y-150997678D02*
X68381533Y-150959582D01*
X68381533Y-150959582D02*
X68457723Y-150959582D01*
X68457723Y-150959582D02*
X68533914Y-150997678D01*
X68533914Y-150997678D02*
X68572009Y-151035773D01*
X68572009Y-151035773D02*
X68610104Y-151111963D01*
X68610104Y-151111963D02*
X68610104Y-151302440D01*
X68610104Y-151302440D02*
X68572009Y-151416725D01*
X68610104Y-151683392D02*
X67810104Y-151873868D01*
X67810104Y-151873868D02*
X68381533Y-152026249D01*
X68381533Y-152026249D02*
X67810104Y-152178630D01*
X67810104Y-152178630D02*
X68610104Y-152369107D01*
X68610104Y-152597678D02*
X68610104Y-153092916D01*
X68610104Y-153092916D02*
X68305342Y-152826250D01*
X68305342Y-152826250D02*
X68305342Y-152940535D01*
X68305342Y-152940535D02*
X68267247Y-153016726D01*
X68267247Y-153016726D02*
X68229152Y-153054821D01*
X68229152Y-153054821D02*
X68152961Y-153092916D01*
X68152961Y-153092916D02*
X67962485Y-153092916D01*
X67962485Y-153092916D02*
X67886295Y-153054821D01*
X67886295Y-153054821D02*
X67848200Y-153016726D01*
X67848200Y-153016726D02*
X67810104Y-152940535D01*
X67810104Y-152940535D02*
X67810104Y-152711964D01*
X67810104Y-152711964D02*
X67848200Y-152635773D01*
X67848200Y-152635773D02*
X67886295Y-152597678D01*
X182051714Y-126534704D02*
X182013618Y-126572800D01*
X182013618Y-126572800D02*
X181899333Y-126610895D01*
X181899333Y-126610895D02*
X181823142Y-126610895D01*
X181823142Y-126610895D02*
X181708856Y-126572800D01*
X181708856Y-126572800D02*
X181632666Y-126496609D01*
X181632666Y-126496609D02*
X181594571Y-126420419D01*
X181594571Y-126420419D02*
X181556475Y-126268038D01*
X181556475Y-126268038D02*
X181556475Y-126153752D01*
X181556475Y-126153752D02*
X181594571Y-126001371D01*
X181594571Y-126001371D02*
X181632666Y-125925180D01*
X181632666Y-125925180D02*
X181708856Y-125848990D01*
X181708856Y-125848990D02*
X181823142Y-125810895D01*
X181823142Y-125810895D02*
X181899333Y-125810895D01*
X181899333Y-125810895D02*
X182013618Y-125848990D01*
X182013618Y-125848990D02*
X182051714Y-125887085D01*
X182813618Y-126610895D02*
X182356475Y-126610895D01*
X182585047Y-126610895D02*
X182585047Y-125810895D01*
X182585047Y-125810895D02*
X182508856Y-125925180D01*
X182508856Y-125925180D02*
X182432666Y-126001371D01*
X182432666Y-126001371D02*
X182356475Y-126039466D01*
X183118380Y-125887085D02*
X183156476Y-125848990D01*
X183156476Y-125848990D02*
X183232666Y-125810895D01*
X183232666Y-125810895D02*
X183423142Y-125810895D01*
X183423142Y-125810895D02*
X183499333Y-125848990D01*
X183499333Y-125848990D02*
X183537428Y-125887085D01*
X183537428Y-125887085D02*
X183575523Y-125963276D01*
X183575523Y-125963276D02*
X183575523Y-126039466D01*
X183575523Y-126039466D02*
X183537428Y-126153752D01*
X183537428Y-126153752D02*
X183080285Y-126610895D01*
X183080285Y-126610895D02*
X183575523Y-126610895D01*
X178669704Y-143129332D02*
X178707800Y-143167428D01*
X178707800Y-143167428D02*
X178745895Y-143281713D01*
X178745895Y-143281713D02*
X178745895Y-143357904D01*
X178745895Y-143357904D02*
X178707800Y-143472190D01*
X178707800Y-143472190D02*
X178631609Y-143548380D01*
X178631609Y-143548380D02*
X178555419Y-143586475D01*
X178555419Y-143586475D02*
X178403038Y-143624571D01*
X178403038Y-143624571D02*
X178288752Y-143624571D01*
X178288752Y-143624571D02*
X178136371Y-143586475D01*
X178136371Y-143586475D02*
X178060180Y-143548380D01*
X178060180Y-143548380D02*
X177983990Y-143472190D01*
X177983990Y-143472190D02*
X177945895Y-143357904D01*
X177945895Y-143357904D02*
X177945895Y-143281713D01*
X177945895Y-143281713D02*
X177983990Y-143167428D01*
X177983990Y-143167428D02*
X178022085Y-143129332D01*
X177945895Y-142862666D02*
X177945895Y-142329332D01*
X177945895Y-142329332D02*
X178745895Y-142672190D01*
X178669704Y-129229332D02*
X178707800Y-129267428D01*
X178707800Y-129267428D02*
X178745895Y-129381713D01*
X178745895Y-129381713D02*
X178745895Y-129457904D01*
X178745895Y-129457904D02*
X178707800Y-129572190D01*
X178707800Y-129572190D02*
X178631609Y-129648380D01*
X178631609Y-129648380D02*
X178555419Y-129686475D01*
X178555419Y-129686475D02*
X178403038Y-129724571D01*
X178403038Y-129724571D02*
X178288752Y-129724571D01*
X178288752Y-129724571D02*
X178136371Y-129686475D01*
X178136371Y-129686475D02*
X178060180Y-129648380D01*
X178060180Y-129648380D02*
X177983990Y-129572190D01*
X177983990Y-129572190D02*
X177945895Y-129457904D01*
X177945895Y-129457904D02*
X177945895Y-129381713D01*
X177945895Y-129381713D02*
X177983990Y-129267428D01*
X177983990Y-129267428D02*
X178022085Y-129229332D01*
X177945895Y-128543618D02*
X177945895Y-128695999D01*
X177945895Y-128695999D02*
X177983990Y-128772190D01*
X177983990Y-128772190D02*
X178022085Y-128810285D01*
X178022085Y-128810285D02*
X178136371Y-128886475D01*
X178136371Y-128886475D02*
X178288752Y-128924571D01*
X178288752Y-128924571D02*
X178593514Y-128924571D01*
X178593514Y-128924571D02*
X178669704Y-128886475D01*
X178669704Y-128886475D02*
X178707800Y-128848380D01*
X178707800Y-128848380D02*
X178745895Y-128772190D01*
X178745895Y-128772190D02*
X178745895Y-128619809D01*
X178745895Y-128619809D02*
X178707800Y-128543618D01*
X178707800Y-128543618D02*
X178669704Y-128505523D01*
X178669704Y-128505523D02*
X178593514Y-128467428D01*
X178593514Y-128467428D02*
X178403038Y-128467428D01*
X178403038Y-128467428D02*
X178326847Y-128505523D01*
X178326847Y-128505523D02*
X178288752Y-128543618D01*
X178288752Y-128543618D02*
X178250657Y-128619809D01*
X178250657Y-128619809D02*
X178250657Y-128772190D01*
X178250657Y-128772190D02*
X178288752Y-128848380D01*
X178288752Y-128848380D02*
X178326847Y-128886475D01*
X178326847Y-128886475D02*
X178403038Y-128924571D01*
X198169704Y-143960285D02*
X198207800Y-143998381D01*
X198207800Y-143998381D02*
X198245895Y-144112666D01*
X198245895Y-144112666D02*
X198245895Y-144188857D01*
X198245895Y-144188857D02*
X198207800Y-144303143D01*
X198207800Y-144303143D02*
X198131609Y-144379333D01*
X198131609Y-144379333D02*
X198055419Y-144417428D01*
X198055419Y-144417428D02*
X197903038Y-144455524D01*
X197903038Y-144455524D02*
X197788752Y-144455524D01*
X197788752Y-144455524D02*
X197636371Y-144417428D01*
X197636371Y-144417428D02*
X197560180Y-144379333D01*
X197560180Y-144379333D02*
X197483990Y-144303143D01*
X197483990Y-144303143D02*
X197445895Y-144188857D01*
X197445895Y-144188857D02*
X197445895Y-144112666D01*
X197445895Y-144112666D02*
X197483990Y-143998381D01*
X197483990Y-143998381D02*
X197522085Y-143960285D01*
X198245895Y-143198381D02*
X198245895Y-143655524D01*
X198245895Y-143426952D02*
X197445895Y-143426952D01*
X197445895Y-143426952D02*
X197560180Y-143503143D01*
X197560180Y-143503143D02*
X197636371Y-143579333D01*
X197636371Y-143579333D02*
X197674466Y-143655524D01*
X197445895Y-142512666D02*
X197445895Y-142665047D01*
X197445895Y-142665047D02*
X197483990Y-142741238D01*
X197483990Y-142741238D02*
X197522085Y-142779333D01*
X197522085Y-142779333D02*
X197636371Y-142855523D01*
X197636371Y-142855523D02*
X197788752Y-142893619D01*
X197788752Y-142893619D02*
X198093514Y-142893619D01*
X198093514Y-142893619D02*
X198169704Y-142855523D01*
X198169704Y-142855523D02*
X198207800Y-142817428D01*
X198207800Y-142817428D02*
X198245895Y-142741238D01*
X198245895Y-142741238D02*
X198245895Y-142588857D01*
X198245895Y-142588857D02*
X198207800Y-142512666D01*
X198207800Y-142512666D02*
X198169704Y-142474571D01*
X198169704Y-142474571D02*
X198093514Y-142436476D01*
X198093514Y-142436476D02*
X197903038Y-142436476D01*
X197903038Y-142436476D02*
X197826847Y-142474571D01*
X197826847Y-142474571D02*
X197788752Y-142512666D01*
X197788752Y-142512666D02*
X197750657Y-142588857D01*
X197750657Y-142588857D02*
X197750657Y-142741238D01*
X197750657Y-142741238D02*
X197788752Y-142817428D01*
X197788752Y-142817428D02*
X197826847Y-142855523D01*
X197826847Y-142855523D02*
X197903038Y-142893619D01*
X138233333Y-80854895D02*
X138233333Y-81426323D01*
X138233333Y-81426323D02*
X138195238Y-81540609D01*
X138195238Y-81540609D02*
X138119047Y-81616800D01*
X138119047Y-81616800D02*
X138004762Y-81654895D01*
X138004762Y-81654895D02*
X137928571Y-81654895D01*
X138957143Y-81121561D02*
X138957143Y-81654895D01*
X138766667Y-80816800D02*
X138576190Y-81388228D01*
X138576190Y-81388228D02*
X139071429Y-81388228D01*
X64614895Y-161262975D02*
X63814895Y-161262975D01*
X63814895Y-161262975D02*
X63814895Y-161072499D01*
X63814895Y-161072499D02*
X63852990Y-160958213D01*
X63852990Y-160958213D02*
X63929180Y-160882023D01*
X63929180Y-160882023D02*
X64005371Y-160843928D01*
X64005371Y-160843928D02*
X64157752Y-160805832D01*
X64157752Y-160805832D02*
X64272038Y-160805832D01*
X64272038Y-160805832D02*
X64424419Y-160843928D01*
X64424419Y-160843928D02*
X64500609Y-160882023D01*
X64500609Y-160882023D02*
X64576800Y-160958213D01*
X64576800Y-160958213D02*
X64614895Y-161072499D01*
X64614895Y-161072499D02*
X64614895Y-161262975D01*
X63814895Y-160539166D02*
X63814895Y-160043928D01*
X63814895Y-160043928D02*
X64119657Y-160310594D01*
X64119657Y-160310594D02*
X64119657Y-160196309D01*
X64119657Y-160196309D02*
X64157752Y-160120118D01*
X64157752Y-160120118D02*
X64195847Y-160082023D01*
X64195847Y-160082023D02*
X64272038Y-160043928D01*
X64272038Y-160043928D02*
X64462514Y-160043928D01*
X64462514Y-160043928D02*
X64538704Y-160082023D01*
X64538704Y-160082023D02*
X64576800Y-160120118D01*
X64576800Y-160120118D02*
X64614895Y-160196309D01*
X64614895Y-160196309D02*
X64614895Y-160424880D01*
X64614895Y-160424880D02*
X64576800Y-160501071D01*
X64576800Y-160501071D02*
X64538704Y-160539166D01*
X85691085Y-66996190D02*
X85652990Y-67072380D01*
X85652990Y-67072380D02*
X85576800Y-67148571D01*
X85576800Y-67148571D02*
X85462514Y-67262857D01*
X85462514Y-67262857D02*
X85424419Y-67339047D01*
X85424419Y-67339047D02*
X85424419Y-67415238D01*
X85614895Y-67377142D02*
X85576800Y-67453333D01*
X85576800Y-67453333D02*
X85500609Y-67529523D01*
X85500609Y-67529523D02*
X85348228Y-67567619D01*
X85348228Y-67567619D02*
X85081561Y-67567619D01*
X85081561Y-67567619D02*
X84929180Y-67529523D01*
X84929180Y-67529523D02*
X84852990Y-67453333D01*
X84852990Y-67453333D02*
X84814895Y-67377142D01*
X84814895Y-67377142D02*
X84814895Y-67224761D01*
X84814895Y-67224761D02*
X84852990Y-67148571D01*
X84852990Y-67148571D02*
X84929180Y-67072380D01*
X84929180Y-67072380D02*
X85081561Y-67034285D01*
X85081561Y-67034285D02*
X85348228Y-67034285D01*
X85348228Y-67034285D02*
X85500609Y-67072380D01*
X85500609Y-67072380D02*
X85576800Y-67148571D01*
X85576800Y-67148571D02*
X85614895Y-67224761D01*
X85614895Y-67224761D02*
X85614895Y-67377142D01*
X84891085Y-66729524D02*
X84852990Y-66691428D01*
X84852990Y-66691428D02*
X84814895Y-66615238D01*
X84814895Y-66615238D02*
X84814895Y-66424762D01*
X84814895Y-66424762D02*
X84852990Y-66348571D01*
X84852990Y-66348571D02*
X84891085Y-66310476D01*
X84891085Y-66310476D02*
X84967276Y-66272381D01*
X84967276Y-66272381D02*
X85043466Y-66272381D01*
X85043466Y-66272381D02*
X85157752Y-66310476D01*
X85157752Y-66310476D02*
X85614895Y-66767619D01*
X85614895Y-66767619D02*
X85614895Y-66272381D01*
X179926847Y-129362666D02*
X179926847Y-129629332D01*
X180345895Y-129629332D02*
X179545895Y-129629332D01*
X179545895Y-129629332D02*
X179545895Y-129248380D01*
X179926847Y-128676952D02*
X179964942Y-128562666D01*
X179964942Y-128562666D02*
X180003038Y-128524571D01*
X180003038Y-128524571D02*
X180079228Y-128486475D01*
X180079228Y-128486475D02*
X180193514Y-128486475D01*
X180193514Y-128486475D02*
X180269704Y-128524571D01*
X180269704Y-128524571D02*
X180307800Y-128562666D01*
X180307800Y-128562666D02*
X180345895Y-128638856D01*
X180345895Y-128638856D02*
X180345895Y-128943618D01*
X180345895Y-128943618D02*
X179545895Y-128943618D01*
X179545895Y-128943618D02*
X179545895Y-128676952D01*
X179545895Y-128676952D02*
X179583990Y-128600761D01*
X179583990Y-128600761D02*
X179622085Y-128562666D01*
X179622085Y-128562666D02*
X179698276Y-128524571D01*
X179698276Y-128524571D02*
X179774466Y-128524571D01*
X179774466Y-128524571D02*
X179850657Y-128562666D01*
X179850657Y-128562666D02*
X179888752Y-128600761D01*
X179888752Y-128600761D02*
X179926847Y-128676952D01*
X179926847Y-128676952D02*
X179926847Y-128943618D01*
X179545895Y-128219809D02*
X179545895Y-127724571D01*
X179545895Y-127724571D02*
X179850657Y-127991237D01*
X179850657Y-127991237D02*
X179850657Y-127876952D01*
X179850657Y-127876952D02*
X179888752Y-127800761D01*
X179888752Y-127800761D02*
X179926847Y-127762666D01*
X179926847Y-127762666D02*
X180003038Y-127724571D01*
X180003038Y-127724571D02*
X180193514Y-127724571D01*
X180193514Y-127724571D02*
X180269704Y-127762666D01*
X180269704Y-127762666D02*
X180307800Y-127800761D01*
X180307800Y-127800761D02*
X180345895Y-127876952D01*
X180345895Y-127876952D02*
X180345895Y-128105523D01*
X180345895Y-128105523D02*
X180307800Y-128181714D01*
X180307800Y-128181714D02*
X180269704Y-128219809D01*
X171908333Y-150544895D02*
X171908333Y-151116323D01*
X171908333Y-151116323D02*
X171870238Y-151230609D01*
X171870238Y-151230609D02*
X171794047Y-151306800D01*
X171794047Y-151306800D02*
X171679762Y-151344895D01*
X171679762Y-151344895D02*
X171603571Y-151344895D01*
X172251190Y-150621085D02*
X172289286Y-150582990D01*
X172289286Y-150582990D02*
X172365476Y-150544895D01*
X172365476Y-150544895D02*
X172555952Y-150544895D01*
X172555952Y-150544895D02*
X172632143Y-150582990D01*
X172632143Y-150582990D02*
X172670238Y-150621085D01*
X172670238Y-150621085D02*
X172708333Y-150697276D01*
X172708333Y-150697276D02*
X172708333Y-150773466D01*
X172708333Y-150773466D02*
X172670238Y-150887752D01*
X172670238Y-150887752D02*
X172213095Y-151344895D01*
X172213095Y-151344895D02*
X172708333Y-151344895D01*
X98638704Y-62758332D02*
X98676800Y-62796428D01*
X98676800Y-62796428D02*
X98714895Y-62910713D01*
X98714895Y-62910713D02*
X98714895Y-62986904D01*
X98714895Y-62986904D02*
X98676800Y-63101190D01*
X98676800Y-63101190D02*
X98600609Y-63177380D01*
X98600609Y-63177380D02*
X98524419Y-63215475D01*
X98524419Y-63215475D02*
X98372038Y-63253571D01*
X98372038Y-63253571D02*
X98257752Y-63253571D01*
X98257752Y-63253571D02*
X98105371Y-63215475D01*
X98105371Y-63215475D02*
X98029180Y-63177380D01*
X98029180Y-63177380D02*
X97952990Y-63101190D01*
X97952990Y-63101190D02*
X97914895Y-62986904D01*
X97914895Y-62986904D02*
X97914895Y-62910713D01*
X97914895Y-62910713D02*
X97952990Y-62796428D01*
X97952990Y-62796428D02*
X97991085Y-62758332D01*
X97991085Y-62453571D02*
X97952990Y-62415475D01*
X97952990Y-62415475D02*
X97914895Y-62339285D01*
X97914895Y-62339285D02*
X97914895Y-62148809D01*
X97914895Y-62148809D02*
X97952990Y-62072618D01*
X97952990Y-62072618D02*
X97991085Y-62034523D01*
X97991085Y-62034523D02*
X98067276Y-61996428D01*
X98067276Y-61996428D02*
X98143466Y-61996428D01*
X98143466Y-61996428D02*
X98257752Y-62034523D01*
X98257752Y-62034523D02*
X98714895Y-62491666D01*
X98714895Y-62491666D02*
X98714895Y-61996428D01*
D10*
X176554819Y-122083333D02*
X177269104Y-122083333D01*
X177269104Y-122083333D02*
X177411961Y-122130952D01*
X177411961Y-122130952D02*
X177507200Y-122226190D01*
X177507200Y-122226190D02*
X177554819Y-122369047D01*
X177554819Y-122369047D02*
X177554819Y-122464285D01*
X176554819Y-121178571D02*
X176554819Y-121369047D01*
X176554819Y-121369047D02*
X176602438Y-121464285D01*
X176602438Y-121464285D02*
X176650057Y-121511904D01*
X176650057Y-121511904D02*
X176792914Y-121607142D01*
X176792914Y-121607142D02*
X176983390Y-121654761D01*
X176983390Y-121654761D02*
X177364342Y-121654761D01*
X177364342Y-121654761D02*
X177459580Y-121607142D01*
X177459580Y-121607142D02*
X177507200Y-121559523D01*
X177507200Y-121559523D02*
X177554819Y-121464285D01*
X177554819Y-121464285D02*
X177554819Y-121273809D01*
X177554819Y-121273809D02*
X177507200Y-121178571D01*
X177507200Y-121178571D02*
X177459580Y-121130952D01*
X177459580Y-121130952D02*
X177364342Y-121083333D01*
X177364342Y-121083333D02*
X177126247Y-121083333D01*
X177126247Y-121083333D02*
X177031009Y-121130952D01*
X177031009Y-121130952D02*
X176983390Y-121178571D01*
X176983390Y-121178571D02*
X176935771Y-121273809D01*
X176935771Y-121273809D02*
X176935771Y-121464285D01*
X176935771Y-121464285D02*
X176983390Y-121559523D01*
X176983390Y-121559523D02*
X177031009Y-121607142D01*
X177031009Y-121607142D02*
X177126247Y-121654761D01*
D12*
X191014333Y-126291847D02*
X190747667Y-126291847D01*
X190747667Y-126710895D02*
X190747667Y-125910895D01*
X190747667Y-125910895D02*
X191128619Y-125910895D01*
X191700047Y-126291847D02*
X191814333Y-126329942D01*
X191814333Y-126329942D02*
X191852428Y-126368038D01*
X191852428Y-126368038D02*
X191890524Y-126444228D01*
X191890524Y-126444228D02*
X191890524Y-126558514D01*
X191890524Y-126558514D02*
X191852428Y-126634704D01*
X191852428Y-126634704D02*
X191814333Y-126672800D01*
X191814333Y-126672800D02*
X191738143Y-126710895D01*
X191738143Y-126710895D02*
X191433381Y-126710895D01*
X191433381Y-126710895D02*
X191433381Y-125910895D01*
X191433381Y-125910895D02*
X191700047Y-125910895D01*
X191700047Y-125910895D02*
X191776238Y-125948990D01*
X191776238Y-125948990D02*
X191814333Y-125987085D01*
X191814333Y-125987085D02*
X191852428Y-126063276D01*
X191852428Y-126063276D02*
X191852428Y-126139466D01*
X191852428Y-126139466D02*
X191814333Y-126215657D01*
X191814333Y-126215657D02*
X191776238Y-126253752D01*
X191776238Y-126253752D02*
X191700047Y-126291847D01*
X191700047Y-126291847D02*
X191433381Y-126291847D01*
X192157190Y-125910895D02*
X192690524Y-125910895D01*
X192690524Y-125910895D02*
X192347666Y-126710895D01*
X199426847Y-129112666D02*
X199426847Y-129379332D01*
X199845895Y-129379332D02*
X199045895Y-129379332D01*
X199045895Y-129379332D02*
X199045895Y-128998380D01*
X199426847Y-128426952D02*
X199464942Y-128312666D01*
X199464942Y-128312666D02*
X199503038Y-128274571D01*
X199503038Y-128274571D02*
X199579228Y-128236475D01*
X199579228Y-128236475D02*
X199693514Y-128236475D01*
X199693514Y-128236475D02*
X199769704Y-128274571D01*
X199769704Y-128274571D02*
X199807800Y-128312666D01*
X199807800Y-128312666D02*
X199845895Y-128388856D01*
X199845895Y-128388856D02*
X199845895Y-128693618D01*
X199845895Y-128693618D02*
X199045895Y-128693618D01*
X199045895Y-128693618D02*
X199045895Y-128426952D01*
X199045895Y-128426952D02*
X199083990Y-128350761D01*
X199083990Y-128350761D02*
X199122085Y-128312666D01*
X199122085Y-128312666D02*
X199198276Y-128274571D01*
X199198276Y-128274571D02*
X199274466Y-128274571D01*
X199274466Y-128274571D02*
X199350657Y-128312666D01*
X199350657Y-128312666D02*
X199388752Y-128350761D01*
X199388752Y-128350761D02*
X199426847Y-128426952D01*
X199426847Y-128426952D02*
X199426847Y-128693618D01*
X199388752Y-127779333D02*
X199350657Y-127855523D01*
X199350657Y-127855523D02*
X199312561Y-127893618D01*
X199312561Y-127893618D02*
X199236371Y-127931714D01*
X199236371Y-127931714D02*
X199198276Y-127931714D01*
X199198276Y-127931714D02*
X199122085Y-127893618D01*
X199122085Y-127893618D02*
X199083990Y-127855523D01*
X199083990Y-127855523D02*
X199045895Y-127779333D01*
X199045895Y-127779333D02*
X199045895Y-127626952D01*
X199045895Y-127626952D02*
X199083990Y-127550761D01*
X199083990Y-127550761D02*
X199122085Y-127512666D01*
X199122085Y-127512666D02*
X199198276Y-127474571D01*
X199198276Y-127474571D02*
X199236371Y-127474571D01*
X199236371Y-127474571D02*
X199312561Y-127512666D01*
X199312561Y-127512666D02*
X199350657Y-127550761D01*
X199350657Y-127550761D02*
X199388752Y-127626952D01*
X199388752Y-127626952D02*
X199388752Y-127779333D01*
X199388752Y-127779333D02*
X199426847Y-127855523D01*
X199426847Y-127855523D02*
X199464942Y-127893618D01*
X199464942Y-127893618D02*
X199541133Y-127931714D01*
X199541133Y-127931714D02*
X199693514Y-127931714D01*
X199693514Y-127931714D02*
X199769704Y-127893618D01*
X199769704Y-127893618D02*
X199807800Y-127855523D01*
X199807800Y-127855523D02*
X199845895Y-127779333D01*
X199845895Y-127779333D02*
X199845895Y-127626952D01*
X199845895Y-127626952D02*
X199807800Y-127550761D01*
X199807800Y-127550761D02*
X199769704Y-127512666D01*
X199769704Y-127512666D02*
X199693514Y-127474571D01*
X199693514Y-127474571D02*
X199541133Y-127474571D01*
X199541133Y-127474571D02*
X199464942Y-127512666D01*
X199464942Y-127512666D02*
X199426847Y-127550761D01*
X199426847Y-127550761D02*
X199388752Y-127626952D01*
X138616667Y-45614895D02*
X138350000Y-45233942D01*
X138159524Y-45614895D02*
X138159524Y-44814895D01*
X138159524Y-44814895D02*
X138464286Y-44814895D01*
X138464286Y-44814895D02*
X138540476Y-44852990D01*
X138540476Y-44852990D02*
X138578571Y-44891085D01*
X138578571Y-44891085D02*
X138616667Y-44967276D01*
X138616667Y-44967276D02*
X138616667Y-45081561D01*
X138616667Y-45081561D02*
X138578571Y-45157752D01*
X138578571Y-45157752D02*
X138540476Y-45195847D01*
X138540476Y-45195847D02*
X138464286Y-45233942D01*
X138464286Y-45233942D02*
X138159524Y-45233942D01*
X138883333Y-44814895D02*
X139416667Y-44814895D01*
X139416667Y-44814895D02*
X139073809Y-45614895D01*
X177895895Y-136705523D02*
X178543514Y-136705523D01*
X178543514Y-136705523D02*
X178619704Y-136667428D01*
X178619704Y-136667428D02*
X178657800Y-136629333D01*
X178657800Y-136629333D02*
X178695895Y-136553142D01*
X178695895Y-136553142D02*
X178695895Y-136400761D01*
X178695895Y-136400761D02*
X178657800Y-136324571D01*
X178657800Y-136324571D02*
X178619704Y-136286476D01*
X178619704Y-136286476D02*
X178543514Y-136248380D01*
X178543514Y-136248380D02*
X177895895Y-136248380D01*
X178695895Y-135448381D02*
X178695895Y-135905524D01*
X178695895Y-135676952D02*
X177895895Y-135676952D01*
X177895895Y-135676952D02*
X178010180Y-135753143D01*
X178010180Y-135753143D02*
X178086371Y-135829333D01*
X178086371Y-135829333D02*
X178124466Y-135905524D01*
X112984561Y-48402857D02*
X112984561Y-48098095D01*
X112717895Y-48288571D02*
X113403609Y-48288571D01*
X113403609Y-48288571D02*
X113479800Y-48250476D01*
X113479800Y-48250476D02*
X113517895Y-48174286D01*
X113517895Y-48174286D02*
X113517895Y-48098095D01*
X113517895Y-47717143D02*
X113479800Y-47793333D01*
X113479800Y-47793333D02*
X113441704Y-47831428D01*
X113441704Y-47831428D02*
X113365514Y-47869524D01*
X113365514Y-47869524D02*
X113136942Y-47869524D01*
X113136942Y-47869524D02*
X113060752Y-47831428D01*
X113060752Y-47831428D02*
X113022657Y-47793333D01*
X113022657Y-47793333D02*
X112984561Y-47717143D01*
X112984561Y-47717143D02*
X112984561Y-47602857D01*
X112984561Y-47602857D02*
X113022657Y-47526666D01*
X113022657Y-47526666D02*
X113060752Y-47488571D01*
X113060752Y-47488571D02*
X113136942Y-47450476D01*
X113136942Y-47450476D02*
X113365514Y-47450476D01*
X113365514Y-47450476D02*
X113441704Y-47488571D01*
X113441704Y-47488571D02*
X113479800Y-47526666D01*
X113479800Y-47526666D02*
X113517895Y-47602857D01*
X113517895Y-47602857D02*
X113517895Y-47717143D01*
X113594085Y-47298095D02*
X113594085Y-46688571D01*
X113479800Y-46536190D02*
X113517895Y-46421904D01*
X113517895Y-46421904D02*
X113517895Y-46231428D01*
X113517895Y-46231428D02*
X113479800Y-46155237D01*
X113479800Y-46155237D02*
X113441704Y-46117142D01*
X113441704Y-46117142D02*
X113365514Y-46079047D01*
X113365514Y-46079047D02*
X113289323Y-46079047D01*
X113289323Y-46079047D02*
X113213133Y-46117142D01*
X113213133Y-46117142D02*
X113175038Y-46155237D01*
X113175038Y-46155237D02*
X113136942Y-46231428D01*
X113136942Y-46231428D02*
X113098847Y-46383809D01*
X113098847Y-46383809D02*
X113060752Y-46459999D01*
X113060752Y-46459999D02*
X113022657Y-46498094D01*
X113022657Y-46498094D02*
X112946466Y-46536190D01*
X112946466Y-46536190D02*
X112870276Y-46536190D01*
X112870276Y-46536190D02*
X112794085Y-46498094D01*
X112794085Y-46498094D02*
X112755990Y-46459999D01*
X112755990Y-46459999D02*
X112717895Y-46383809D01*
X112717895Y-46383809D02*
X112717895Y-46193332D01*
X112717895Y-46193332D02*
X112755990Y-46079047D01*
X112717895Y-45850475D02*
X112717895Y-45393332D01*
X113517895Y-45621904D02*
X112717895Y-45621904D01*
X113517895Y-45126665D02*
X112717895Y-45126665D01*
X112717895Y-45126665D02*
X113289323Y-44859999D01*
X113289323Y-44859999D02*
X112717895Y-44593332D01*
X112717895Y-44593332D02*
X113517895Y-44593332D01*
X113517895Y-43793332D02*
X113517895Y-44250475D01*
X113517895Y-44021903D02*
X112717895Y-44021903D01*
X112717895Y-44021903D02*
X112832180Y-44098094D01*
X112832180Y-44098094D02*
X112908371Y-44174284D01*
X112908371Y-44174284D02*
X112946466Y-44250475D01*
X199669704Y-143960285D02*
X199707800Y-143998381D01*
X199707800Y-143998381D02*
X199745895Y-144112666D01*
X199745895Y-144112666D02*
X199745895Y-144188857D01*
X199745895Y-144188857D02*
X199707800Y-144303143D01*
X199707800Y-144303143D02*
X199631609Y-144379333D01*
X199631609Y-144379333D02*
X199555419Y-144417428D01*
X199555419Y-144417428D02*
X199403038Y-144455524D01*
X199403038Y-144455524D02*
X199288752Y-144455524D01*
X199288752Y-144455524D02*
X199136371Y-144417428D01*
X199136371Y-144417428D02*
X199060180Y-144379333D01*
X199060180Y-144379333D02*
X198983990Y-144303143D01*
X198983990Y-144303143D02*
X198945895Y-144188857D01*
X198945895Y-144188857D02*
X198945895Y-144112666D01*
X198945895Y-144112666D02*
X198983990Y-143998381D01*
X198983990Y-143998381D02*
X199022085Y-143960285D01*
X199745895Y-143198381D02*
X199745895Y-143655524D01*
X199745895Y-143426952D02*
X198945895Y-143426952D01*
X198945895Y-143426952D02*
X199060180Y-143503143D01*
X199060180Y-143503143D02*
X199136371Y-143579333D01*
X199136371Y-143579333D02*
X199174466Y-143655524D01*
X199288752Y-142741238D02*
X199250657Y-142817428D01*
X199250657Y-142817428D02*
X199212561Y-142855523D01*
X199212561Y-142855523D02*
X199136371Y-142893619D01*
X199136371Y-142893619D02*
X199098276Y-142893619D01*
X199098276Y-142893619D02*
X199022085Y-142855523D01*
X199022085Y-142855523D02*
X198983990Y-142817428D01*
X198983990Y-142817428D02*
X198945895Y-142741238D01*
X198945895Y-142741238D02*
X198945895Y-142588857D01*
X198945895Y-142588857D02*
X198983990Y-142512666D01*
X198983990Y-142512666D02*
X199022085Y-142474571D01*
X199022085Y-142474571D02*
X199098276Y-142436476D01*
X199098276Y-142436476D02*
X199136371Y-142436476D01*
X199136371Y-142436476D02*
X199212561Y-142474571D01*
X199212561Y-142474571D02*
X199250657Y-142512666D01*
X199250657Y-142512666D02*
X199288752Y-142588857D01*
X199288752Y-142588857D02*
X199288752Y-142741238D01*
X199288752Y-142741238D02*
X199326847Y-142817428D01*
X199326847Y-142817428D02*
X199364942Y-142855523D01*
X199364942Y-142855523D02*
X199441133Y-142893619D01*
X199441133Y-142893619D02*
X199593514Y-142893619D01*
X199593514Y-142893619D02*
X199669704Y-142855523D01*
X199669704Y-142855523D02*
X199707800Y-142817428D01*
X199707800Y-142817428D02*
X199745895Y-142741238D01*
X199745895Y-142741238D02*
X199745895Y-142588857D01*
X199745895Y-142588857D02*
X199707800Y-142512666D01*
X199707800Y-142512666D02*
X199669704Y-142474571D01*
X199669704Y-142474571D02*
X199593514Y-142436476D01*
X199593514Y-142436476D02*
X199441133Y-142436476D01*
X199441133Y-142436476D02*
X199364942Y-142474571D01*
X199364942Y-142474571D02*
X199326847Y-142512666D01*
X199326847Y-142512666D02*
X199288752Y-142588857D01*
X64614895Y-152976785D02*
X64233942Y-153243452D01*
X64614895Y-153433928D02*
X63814895Y-153433928D01*
X63814895Y-153433928D02*
X63814895Y-153129166D01*
X63814895Y-153129166D02*
X63852990Y-153052976D01*
X63852990Y-153052976D02*
X63891085Y-153014881D01*
X63891085Y-153014881D02*
X63967276Y-152976785D01*
X63967276Y-152976785D02*
X64081561Y-152976785D01*
X64081561Y-152976785D02*
X64157752Y-153014881D01*
X64157752Y-153014881D02*
X64195847Y-153052976D01*
X64195847Y-153052976D02*
X64233942Y-153129166D01*
X64233942Y-153129166D02*
X64233942Y-153433928D01*
X64614895Y-152214881D02*
X64614895Y-152672024D01*
X64614895Y-152443452D02*
X63814895Y-152443452D01*
X63814895Y-152443452D02*
X63929180Y-152519643D01*
X63929180Y-152519643D02*
X64005371Y-152595833D01*
X64005371Y-152595833D02*
X64043466Y-152672024D01*
X63814895Y-151719642D02*
X63814895Y-151643452D01*
X63814895Y-151643452D02*
X63852990Y-151567261D01*
X63852990Y-151567261D02*
X63891085Y-151529166D01*
X63891085Y-151529166D02*
X63967276Y-151491071D01*
X63967276Y-151491071D02*
X64119657Y-151452976D01*
X64119657Y-151452976D02*
X64310133Y-151452976D01*
X64310133Y-151452976D02*
X64462514Y-151491071D01*
X64462514Y-151491071D02*
X64538704Y-151529166D01*
X64538704Y-151529166D02*
X64576800Y-151567261D01*
X64576800Y-151567261D02*
X64614895Y-151643452D01*
X64614895Y-151643452D02*
X64614895Y-151719642D01*
X64614895Y-151719642D02*
X64576800Y-151795833D01*
X64576800Y-151795833D02*
X64538704Y-151833928D01*
X64538704Y-151833928D02*
X64462514Y-151872023D01*
X64462514Y-151872023D02*
X64310133Y-151910119D01*
X64310133Y-151910119D02*
X64119657Y-151910119D01*
X64119657Y-151910119D02*
X63967276Y-151872023D01*
X63967276Y-151872023D02*
X63891085Y-151833928D01*
X63891085Y-151833928D02*
X63852990Y-151795833D01*
X63852990Y-151795833D02*
X63814895Y-151719642D01*
X112884561Y-65850476D02*
X112884561Y-65545714D01*
X112617895Y-65736190D02*
X113303609Y-65736190D01*
X113303609Y-65736190D02*
X113379800Y-65698095D01*
X113379800Y-65698095D02*
X113417895Y-65621905D01*
X113417895Y-65621905D02*
X113417895Y-65545714D01*
X113417895Y-65164762D02*
X113379800Y-65240952D01*
X113379800Y-65240952D02*
X113341704Y-65279047D01*
X113341704Y-65279047D02*
X113265514Y-65317143D01*
X113265514Y-65317143D02*
X113036942Y-65317143D01*
X113036942Y-65317143D02*
X112960752Y-65279047D01*
X112960752Y-65279047D02*
X112922657Y-65240952D01*
X112922657Y-65240952D02*
X112884561Y-65164762D01*
X112884561Y-65164762D02*
X112884561Y-65050476D01*
X112884561Y-65050476D02*
X112922657Y-64974285D01*
X112922657Y-64974285D02*
X112960752Y-64936190D01*
X112960752Y-64936190D02*
X113036942Y-64898095D01*
X113036942Y-64898095D02*
X113265514Y-64898095D01*
X113265514Y-64898095D02*
X113341704Y-64936190D01*
X113341704Y-64936190D02*
X113379800Y-64974285D01*
X113379800Y-64974285D02*
X113417895Y-65050476D01*
X113417895Y-65050476D02*
X113417895Y-65164762D01*
X113494085Y-64745714D02*
X113494085Y-64136190D01*
X113417895Y-63488570D02*
X113036942Y-63755237D01*
X113417895Y-63945713D02*
X112617895Y-63945713D01*
X112617895Y-63945713D02*
X112617895Y-63640951D01*
X112617895Y-63640951D02*
X112655990Y-63564761D01*
X112655990Y-63564761D02*
X112694085Y-63526666D01*
X112694085Y-63526666D02*
X112770276Y-63488570D01*
X112770276Y-63488570D02*
X112884561Y-63488570D01*
X112884561Y-63488570D02*
X112960752Y-63526666D01*
X112960752Y-63526666D02*
X112998847Y-63564761D01*
X112998847Y-63564761D02*
X113036942Y-63640951D01*
X113036942Y-63640951D02*
X113036942Y-63945713D01*
X113417895Y-63145713D02*
X112617895Y-63145713D01*
X112617895Y-63145713D02*
X112617895Y-62840951D01*
X112617895Y-62840951D02*
X112655990Y-62764761D01*
X112655990Y-62764761D02*
X112694085Y-62726666D01*
X112694085Y-62726666D02*
X112770276Y-62688570D01*
X112770276Y-62688570D02*
X112884561Y-62688570D01*
X112884561Y-62688570D02*
X112960752Y-62726666D01*
X112960752Y-62726666D02*
X112998847Y-62764761D01*
X112998847Y-62764761D02*
X113036942Y-62840951D01*
X113036942Y-62840951D02*
X113036942Y-63145713D01*
X113417895Y-62345713D02*
X112617895Y-62345713D01*
X113417895Y-61545714D02*
X113417895Y-62002857D01*
X113417895Y-61774285D02*
X112617895Y-61774285D01*
X112617895Y-61774285D02*
X112732180Y-61850476D01*
X112732180Y-61850476D02*
X112808371Y-61926666D01*
X112808371Y-61926666D02*
X112846466Y-62002857D01*
X182151714Y-145934704D02*
X182113618Y-145972800D01*
X182113618Y-145972800D02*
X181999333Y-146010895D01*
X181999333Y-146010895D02*
X181923142Y-146010895D01*
X181923142Y-146010895D02*
X181808856Y-145972800D01*
X181808856Y-145972800D02*
X181732666Y-145896609D01*
X181732666Y-145896609D02*
X181694571Y-145820419D01*
X181694571Y-145820419D02*
X181656475Y-145668038D01*
X181656475Y-145668038D02*
X181656475Y-145553752D01*
X181656475Y-145553752D02*
X181694571Y-145401371D01*
X181694571Y-145401371D02*
X181732666Y-145325180D01*
X181732666Y-145325180D02*
X181808856Y-145248990D01*
X181808856Y-145248990D02*
X181923142Y-145210895D01*
X181923142Y-145210895D02*
X181999333Y-145210895D01*
X181999333Y-145210895D02*
X182113618Y-145248990D01*
X182113618Y-145248990D02*
X182151714Y-145287085D01*
X182456475Y-145287085D02*
X182494571Y-145248990D01*
X182494571Y-145248990D02*
X182570761Y-145210895D01*
X182570761Y-145210895D02*
X182761237Y-145210895D01*
X182761237Y-145210895D02*
X182837428Y-145248990D01*
X182837428Y-145248990D02*
X182875523Y-145287085D01*
X182875523Y-145287085D02*
X182913618Y-145363276D01*
X182913618Y-145363276D02*
X182913618Y-145439466D01*
X182913618Y-145439466D02*
X182875523Y-145553752D01*
X182875523Y-145553752D02*
X182418380Y-146010895D01*
X182418380Y-146010895D02*
X182913618Y-146010895D01*
X183408857Y-145210895D02*
X183485047Y-145210895D01*
X183485047Y-145210895D02*
X183561238Y-145248990D01*
X183561238Y-145248990D02*
X183599333Y-145287085D01*
X183599333Y-145287085D02*
X183637428Y-145363276D01*
X183637428Y-145363276D02*
X183675523Y-145515657D01*
X183675523Y-145515657D02*
X183675523Y-145706133D01*
X183675523Y-145706133D02*
X183637428Y-145858514D01*
X183637428Y-145858514D02*
X183599333Y-145934704D01*
X183599333Y-145934704D02*
X183561238Y-145972800D01*
X183561238Y-145972800D02*
X183485047Y-146010895D01*
X183485047Y-146010895D02*
X183408857Y-146010895D01*
X183408857Y-146010895D02*
X183332666Y-145972800D01*
X183332666Y-145972800D02*
X183294571Y-145934704D01*
X183294571Y-145934704D02*
X183256476Y-145858514D01*
X183256476Y-145858514D02*
X183218380Y-145706133D01*
X183218380Y-145706133D02*
X183218380Y-145515657D01*
X183218380Y-145515657D02*
X183256476Y-145363276D01*
X183256476Y-145363276D02*
X183294571Y-145287085D01*
X183294571Y-145287085D02*
X183332666Y-145248990D01*
X183332666Y-145248990D02*
X183408857Y-145210895D01*
X104614895Y-63614285D02*
X104233942Y-63880952D01*
X104614895Y-64071428D02*
X103814895Y-64071428D01*
X103814895Y-64071428D02*
X103814895Y-63766666D01*
X103814895Y-63766666D02*
X103852990Y-63690476D01*
X103852990Y-63690476D02*
X103891085Y-63652381D01*
X103891085Y-63652381D02*
X103967276Y-63614285D01*
X103967276Y-63614285D02*
X104081561Y-63614285D01*
X104081561Y-63614285D02*
X104157752Y-63652381D01*
X104157752Y-63652381D02*
X104195847Y-63690476D01*
X104195847Y-63690476D02*
X104233942Y-63766666D01*
X104233942Y-63766666D02*
X104233942Y-64071428D01*
X104614895Y-62852381D02*
X104614895Y-63309524D01*
X104614895Y-63080952D02*
X103814895Y-63080952D01*
X103814895Y-63080952D02*
X103929180Y-63157143D01*
X103929180Y-63157143D02*
X104005371Y-63233333D01*
X104005371Y-63233333D02*
X104043466Y-63309524D01*
X103891085Y-62547619D02*
X103852990Y-62509523D01*
X103852990Y-62509523D02*
X103814895Y-62433333D01*
X103814895Y-62433333D02*
X103814895Y-62242857D01*
X103814895Y-62242857D02*
X103852990Y-62166666D01*
X103852990Y-62166666D02*
X103891085Y-62128571D01*
X103891085Y-62128571D02*
X103967276Y-62090476D01*
X103967276Y-62090476D02*
X104043466Y-62090476D01*
X104043466Y-62090476D02*
X104157752Y-62128571D01*
X104157752Y-62128571D02*
X104614895Y-62585714D01*
X104614895Y-62585714D02*
X104614895Y-62090476D01*
X162581714Y-144584704D02*
X162543618Y-144622800D01*
X162543618Y-144622800D02*
X162429333Y-144660895D01*
X162429333Y-144660895D02*
X162353142Y-144660895D01*
X162353142Y-144660895D02*
X162238856Y-144622800D01*
X162238856Y-144622800D02*
X162162666Y-144546609D01*
X162162666Y-144546609D02*
X162124571Y-144470419D01*
X162124571Y-144470419D02*
X162086475Y-144318038D01*
X162086475Y-144318038D02*
X162086475Y-144203752D01*
X162086475Y-144203752D02*
X162124571Y-144051371D01*
X162124571Y-144051371D02*
X162162666Y-143975180D01*
X162162666Y-143975180D02*
X162238856Y-143898990D01*
X162238856Y-143898990D02*
X162353142Y-143860895D01*
X162353142Y-143860895D02*
X162429333Y-143860895D01*
X162429333Y-143860895D02*
X162543618Y-143898990D01*
X162543618Y-143898990D02*
X162581714Y-143937085D01*
X163343618Y-144660895D02*
X162886475Y-144660895D01*
X163115047Y-144660895D02*
X163115047Y-143860895D01*
X163115047Y-143860895D02*
X163038856Y-143975180D01*
X163038856Y-143975180D02*
X162962666Y-144051371D01*
X162962666Y-144051371D02*
X162886475Y-144089466D01*
X163838857Y-143860895D02*
X163915047Y-143860895D01*
X163915047Y-143860895D02*
X163991238Y-143898990D01*
X163991238Y-143898990D02*
X164029333Y-143937085D01*
X164029333Y-143937085D02*
X164067428Y-144013276D01*
X164067428Y-144013276D02*
X164105523Y-144165657D01*
X164105523Y-144165657D02*
X164105523Y-144356133D01*
X164105523Y-144356133D02*
X164067428Y-144508514D01*
X164067428Y-144508514D02*
X164029333Y-144584704D01*
X164029333Y-144584704D02*
X163991238Y-144622800D01*
X163991238Y-144622800D02*
X163915047Y-144660895D01*
X163915047Y-144660895D02*
X163838857Y-144660895D01*
X163838857Y-144660895D02*
X163762666Y-144622800D01*
X163762666Y-144622800D02*
X163724571Y-144584704D01*
X163724571Y-144584704D02*
X163686476Y-144508514D01*
X163686476Y-144508514D02*
X163648380Y-144356133D01*
X163648380Y-144356133D02*
X163648380Y-144165657D01*
X163648380Y-144165657D02*
X163686476Y-144013276D01*
X163686476Y-144013276D02*
X163724571Y-143937085D01*
X163724571Y-143937085D02*
X163762666Y-143898990D01*
X163762666Y-143898990D02*
X163838857Y-143860895D01*
X101041667Y-55964895D02*
X100775000Y-55583942D01*
X100584524Y-55964895D02*
X100584524Y-55164895D01*
X100584524Y-55164895D02*
X100889286Y-55164895D01*
X100889286Y-55164895D02*
X100965476Y-55202990D01*
X100965476Y-55202990D02*
X101003571Y-55241085D01*
X101003571Y-55241085D02*
X101041667Y-55317276D01*
X101041667Y-55317276D02*
X101041667Y-55431561D01*
X101041667Y-55431561D02*
X101003571Y-55507752D01*
X101003571Y-55507752D02*
X100965476Y-55545847D01*
X100965476Y-55545847D02*
X100889286Y-55583942D01*
X100889286Y-55583942D02*
X100584524Y-55583942D01*
X101803571Y-55964895D02*
X101346428Y-55964895D01*
X101575000Y-55964895D02*
X101575000Y-55164895D01*
X101575000Y-55164895D02*
X101498809Y-55279180D01*
X101498809Y-55279180D02*
X101422619Y-55355371D01*
X101422619Y-55355371D02*
X101346428Y-55393466D01*
X162429333Y-147341847D02*
X162162667Y-147341847D01*
X162162667Y-147760895D02*
X162162667Y-146960895D01*
X162162667Y-146960895D02*
X162543619Y-146960895D01*
X163115047Y-147341847D02*
X163229333Y-147379942D01*
X163229333Y-147379942D02*
X163267428Y-147418038D01*
X163267428Y-147418038D02*
X163305524Y-147494228D01*
X163305524Y-147494228D02*
X163305524Y-147608514D01*
X163305524Y-147608514D02*
X163267428Y-147684704D01*
X163267428Y-147684704D02*
X163229333Y-147722800D01*
X163229333Y-147722800D02*
X163153143Y-147760895D01*
X163153143Y-147760895D02*
X162848381Y-147760895D01*
X162848381Y-147760895D02*
X162848381Y-146960895D01*
X162848381Y-146960895D02*
X163115047Y-146960895D01*
X163115047Y-146960895D02*
X163191238Y-146998990D01*
X163191238Y-146998990D02*
X163229333Y-147037085D01*
X163229333Y-147037085D02*
X163267428Y-147113276D01*
X163267428Y-147113276D02*
X163267428Y-147189466D01*
X163267428Y-147189466D02*
X163229333Y-147265657D01*
X163229333Y-147265657D02*
X163191238Y-147303752D01*
X163191238Y-147303752D02*
X163115047Y-147341847D01*
X163115047Y-147341847D02*
X162848381Y-147341847D01*
X164029333Y-146960895D02*
X163648381Y-146960895D01*
X163648381Y-146960895D02*
X163610285Y-147341847D01*
X163610285Y-147341847D02*
X163648381Y-147303752D01*
X163648381Y-147303752D02*
X163724571Y-147265657D01*
X163724571Y-147265657D02*
X163915047Y-147265657D01*
X163915047Y-147265657D02*
X163991238Y-147303752D01*
X163991238Y-147303752D02*
X164029333Y-147341847D01*
X164029333Y-147341847D02*
X164067428Y-147418038D01*
X164067428Y-147418038D02*
X164067428Y-147608514D01*
X164067428Y-147608514D02*
X164029333Y-147684704D01*
X164029333Y-147684704D02*
X163991238Y-147722800D01*
X163991238Y-147722800D02*
X163915047Y-147760895D01*
X163915047Y-147760895D02*
X163724571Y-147760895D01*
X163724571Y-147760895D02*
X163648381Y-147722800D01*
X163648381Y-147722800D02*
X163610285Y-147684704D01*
X182076714Y-129534704D02*
X182038618Y-129572800D01*
X182038618Y-129572800D02*
X181924333Y-129610895D01*
X181924333Y-129610895D02*
X181848142Y-129610895D01*
X181848142Y-129610895D02*
X181733856Y-129572800D01*
X181733856Y-129572800D02*
X181657666Y-129496609D01*
X181657666Y-129496609D02*
X181619571Y-129420419D01*
X181619571Y-129420419D02*
X181581475Y-129268038D01*
X181581475Y-129268038D02*
X181581475Y-129153752D01*
X181581475Y-129153752D02*
X181619571Y-129001371D01*
X181619571Y-129001371D02*
X181657666Y-128925180D01*
X181657666Y-128925180D02*
X181733856Y-128848990D01*
X181733856Y-128848990D02*
X181848142Y-128810895D01*
X181848142Y-128810895D02*
X181924333Y-128810895D01*
X181924333Y-128810895D02*
X182038618Y-128848990D01*
X182038618Y-128848990D02*
X182076714Y-128887085D01*
X182838618Y-129610895D02*
X182381475Y-129610895D01*
X182610047Y-129610895D02*
X182610047Y-128810895D01*
X182610047Y-128810895D02*
X182533856Y-128925180D01*
X182533856Y-128925180D02*
X182457666Y-129001371D01*
X182457666Y-129001371D02*
X182381475Y-129039466D01*
X183524333Y-129077561D02*
X183524333Y-129610895D01*
X183333857Y-128772800D02*
X183143380Y-129344228D01*
X183143380Y-129344228D02*
X183638619Y-129344228D01*
X181914333Y-124591847D02*
X181647667Y-124591847D01*
X181647667Y-125010895D02*
X181647667Y-124210895D01*
X181647667Y-124210895D02*
X182028619Y-124210895D01*
X182600047Y-124591847D02*
X182714333Y-124629942D01*
X182714333Y-124629942D02*
X182752428Y-124668038D01*
X182752428Y-124668038D02*
X182790524Y-124744228D01*
X182790524Y-124744228D02*
X182790524Y-124858514D01*
X182790524Y-124858514D02*
X182752428Y-124934704D01*
X182752428Y-124934704D02*
X182714333Y-124972800D01*
X182714333Y-124972800D02*
X182638143Y-125010895D01*
X182638143Y-125010895D02*
X182333381Y-125010895D01*
X182333381Y-125010895D02*
X182333381Y-124210895D01*
X182333381Y-124210895D02*
X182600047Y-124210895D01*
X182600047Y-124210895D02*
X182676238Y-124248990D01*
X182676238Y-124248990D02*
X182714333Y-124287085D01*
X182714333Y-124287085D02*
X182752428Y-124363276D01*
X182752428Y-124363276D02*
X182752428Y-124439466D01*
X182752428Y-124439466D02*
X182714333Y-124515657D01*
X182714333Y-124515657D02*
X182676238Y-124553752D01*
X182676238Y-124553752D02*
X182600047Y-124591847D01*
X182600047Y-124591847D02*
X182333381Y-124591847D01*
X183476238Y-124210895D02*
X183323857Y-124210895D01*
X183323857Y-124210895D02*
X183247666Y-124248990D01*
X183247666Y-124248990D02*
X183209571Y-124287085D01*
X183209571Y-124287085D02*
X183133381Y-124401371D01*
X183133381Y-124401371D02*
X183095285Y-124553752D01*
X183095285Y-124553752D02*
X183095285Y-124858514D01*
X183095285Y-124858514D02*
X183133381Y-124934704D01*
X183133381Y-124934704D02*
X183171476Y-124972800D01*
X183171476Y-124972800D02*
X183247666Y-125010895D01*
X183247666Y-125010895D02*
X183400047Y-125010895D01*
X183400047Y-125010895D02*
X183476238Y-124972800D01*
X183476238Y-124972800D02*
X183514333Y-124934704D01*
X183514333Y-124934704D02*
X183552428Y-124858514D01*
X183552428Y-124858514D02*
X183552428Y-124668038D01*
X183552428Y-124668038D02*
X183514333Y-124591847D01*
X183514333Y-124591847D02*
X183476238Y-124553752D01*
X183476238Y-124553752D02*
X183400047Y-124515657D01*
X183400047Y-124515657D02*
X183247666Y-124515657D01*
X183247666Y-124515657D02*
X183171476Y-124553752D01*
X183171476Y-124553752D02*
X183133381Y-124591847D01*
X183133381Y-124591847D02*
X183095285Y-124668038D01*
X181193380Y-147191847D02*
X180926714Y-147191847D01*
X180926714Y-147610895D02*
X180926714Y-146810895D01*
X180926714Y-146810895D02*
X181307666Y-146810895D01*
X181879094Y-147191847D02*
X181993380Y-147229942D01*
X181993380Y-147229942D02*
X182031475Y-147268038D01*
X182031475Y-147268038D02*
X182069571Y-147344228D01*
X182069571Y-147344228D02*
X182069571Y-147458514D01*
X182069571Y-147458514D02*
X182031475Y-147534704D01*
X182031475Y-147534704D02*
X181993380Y-147572800D01*
X181993380Y-147572800D02*
X181917190Y-147610895D01*
X181917190Y-147610895D02*
X181612428Y-147610895D01*
X181612428Y-147610895D02*
X181612428Y-146810895D01*
X181612428Y-146810895D02*
X181879094Y-146810895D01*
X181879094Y-146810895D02*
X181955285Y-146848990D01*
X181955285Y-146848990D02*
X181993380Y-146887085D01*
X181993380Y-146887085D02*
X182031475Y-146963276D01*
X182031475Y-146963276D02*
X182031475Y-147039466D01*
X182031475Y-147039466D02*
X181993380Y-147115657D01*
X181993380Y-147115657D02*
X181955285Y-147153752D01*
X181955285Y-147153752D02*
X181879094Y-147191847D01*
X181879094Y-147191847D02*
X181612428Y-147191847D01*
X182831475Y-147610895D02*
X182374332Y-147610895D01*
X182602904Y-147610895D02*
X182602904Y-146810895D01*
X182602904Y-146810895D02*
X182526713Y-146925180D01*
X182526713Y-146925180D02*
X182450523Y-147001371D01*
X182450523Y-147001371D02*
X182374332Y-147039466D01*
X183326714Y-146810895D02*
X183402904Y-146810895D01*
X183402904Y-146810895D02*
X183479095Y-146848990D01*
X183479095Y-146848990D02*
X183517190Y-146887085D01*
X183517190Y-146887085D02*
X183555285Y-146963276D01*
X183555285Y-146963276D02*
X183593380Y-147115657D01*
X183593380Y-147115657D02*
X183593380Y-147306133D01*
X183593380Y-147306133D02*
X183555285Y-147458514D01*
X183555285Y-147458514D02*
X183517190Y-147534704D01*
X183517190Y-147534704D02*
X183479095Y-147572800D01*
X183479095Y-147572800D02*
X183402904Y-147610895D01*
X183402904Y-147610895D02*
X183326714Y-147610895D01*
X183326714Y-147610895D02*
X183250523Y-147572800D01*
X183250523Y-147572800D02*
X183212428Y-147534704D01*
X183212428Y-147534704D02*
X183174333Y-147458514D01*
X183174333Y-147458514D02*
X183136237Y-147306133D01*
X183136237Y-147306133D02*
X183136237Y-147115657D01*
X183136237Y-147115657D02*
X183174333Y-146963276D01*
X183174333Y-146963276D02*
X183212428Y-146887085D01*
X183212428Y-146887085D02*
X183250523Y-146848990D01*
X183250523Y-146848990D02*
X183326714Y-146810895D01*
X168376833Y-144091847D02*
X168110167Y-144091847D01*
X168110167Y-144510895D02*
X168110167Y-143710895D01*
X168110167Y-143710895D02*
X168491119Y-143710895D01*
X169062547Y-144091847D02*
X169176833Y-144129942D01*
X169176833Y-144129942D02*
X169214928Y-144168038D01*
X169214928Y-144168038D02*
X169253024Y-144244228D01*
X169253024Y-144244228D02*
X169253024Y-144358514D01*
X169253024Y-144358514D02*
X169214928Y-144434704D01*
X169214928Y-144434704D02*
X169176833Y-144472800D01*
X169176833Y-144472800D02*
X169100643Y-144510895D01*
X169100643Y-144510895D02*
X168795881Y-144510895D01*
X168795881Y-144510895D02*
X168795881Y-143710895D01*
X168795881Y-143710895D02*
X169062547Y-143710895D01*
X169062547Y-143710895D02*
X169138738Y-143748990D01*
X169138738Y-143748990D02*
X169176833Y-143787085D01*
X169176833Y-143787085D02*
X169214928Y-143863276D01*
X169214928Y-143863276D02*
X169214928Y-143939466D01*
X169214928Y-143939466D02*
X169176833Y-144015657D01*
X169176833Y-144015657D02*
X169138738Y-144053752D01*
X169138738Y-144053752D02*
X169062547Y-144091847D01*
X169062547Y-144091847D02*
X168795881Y-144091847D01*
X169938738Y-143977561D02*
X169938738Y-144510895D01*
X169748262Y-143672800D02*
X169557785Y-144244228D01*
X169557785Y-144244228D02*
X170053024Y-144244228D01*
X85691085Y-59996190D02*
X85652990Y-60072380D01*
X85652990Y-60072380D02*
X85576800Y-60148571D01*
X85576800Y-60148571D02*
X85462514Y-60262857D01*
X85462514Y-60262857D02*
X85424419Y-60339047D01*
X85424419Y-60339047D02*
X85424419Y-60415238D01*
X85614895Y-60377142D02*
X85576800Y-60453333D01*
X85576800Y-60453333D02*
X85500609Y-60529523D01*
X85500609Y-60529523D02*
X85348228Y-60567619D01*
X85348228Y-60567619D02*
X85081561Y-60567619D01*
X85081561Y-60567619D02*
X84929180Y-60529523D01*
X84929180Y-60529523D02*
X84852990Y-60453333D01*
X84852990Y-60453333D02*
X84814895Y-60377142D01*
X84814895Y-60377142D02*
X84814895Y-60224761D01*
X84814895Y-60224761D02*
X84852990Y-60148571D01*
X84852990Y-60148571D02*
X84929180Y-60072380D01*
X84929180Y-60072380D02*
X85081561Y-60034285D01*
X85081561Y-60034285D02*
X85348228Y-60034285D01*
X85348228Y-60034285D02*
X85500609Y-60072380D01*
X85500609Y-60072380D02*
X85576800Y-60148571D01*
X85576800Y-60148571D02*
X85614895Y-60224761D01*
X85614895Y-60224761D02*
X85614895Y-60377142D01*
X85614895Y-59272381D02*
X85614895Y-59729524D01*
X85614895Y-59500952D02*
X84814895Y-59500952D01*
X84814895Y-59500952D02*
X84929180Y-59577143D01*
X84929180Y-59577143D02*
X85005371Y-59653333D01*
X85005371Y-59653333D02*
X85043466Y-59729524D01*
X180169704Y-143129332D02*
X180207800Y-143167428D01*
X180207800Y-143167428D02*
X180245895Y-143281713D01*
X180245895Y-143281713D02*
X180245895Y-143357904D01*
X180245895Y-143357904D02*
X180207800Y-143472190D01*
X180207800Y-143472190D02*
X180131609Y-143548380D01*
X180131609Y-143548380D02*
X180055419Y-143586475D01*
X180055419Y-143586475D02*
X179903038Y-143624571D01*
X179903038Y-143624571D02*
X179788752Y-143624571D01*
X179788752Y-143624571D02*
X179636371Y-143586475D01*
X179636371Y-143586475D02*
X179560180Y-143548380D01*
X179560180Y-143548380D02*
X179483990Y-143472190D01*
X179483990Y-143472190D02*
X179445895Y-143357904D01*
X179445895Y-143357904D02*
X179445895Y-143281713D01*
X179445895Y-143281713D02*
X179483990Y-143167428D01*
X179483990Y-143167428D02*
X179522085Y-143129332D01*
X180245895Y-142748380D02*
X180245895Y-142595999D01*
X180245895Y-142595999D02*
X180207800Y-142519809D01*
X180207800Y-142519809D02*
X180169704Y-142481713D01*
X180169704Y-142481713D02*
X180055419Y-142405523D01*
X180055419Y-142405523D02*
X179903038Y-142367428D01*
X179903038Y-142367428D02*
X179598276Y-142367428D01*
X179598276Y-142367428D02*
X179522085Y-142405523D01*
X179522085Y-142405523D02*
X179483990Y-142443618D01*
X179483990Y-142443618D02*
X179445895Y-142519809D01*
X179445895Y-142519809D02*
X179445895Y-142672190D01*
X179445895Y-142672190D02*
X179483990Y-142748380D01*
X179483990Y-142748380D02*
X179522085Y-142786475D01*
X179522085Y-142786475D02*
X179598276Y-142824571D01*
X179598276Y-142824571D02*
X179788752Y-142824571D01*
X179788752Y-142824571D02*
X179864942Y-142786475D01*
X179864942Y-142786475D02*
X179903038Y-142748380D01*
X179903038Y-142748380D02*
X179941133Y-142672190D01*
X179941133Y-142672190D02*
X179941133Y-142519809D01*
X179941133Y-142519809D02*
X179903038Y-142443618D01*
X179903038Y-142443618D02*
X179864942Y-142405523D01*
X179864942Y-142405523D02*
X179788752Y-142367428D01*
X182126714Y-142909704D02*
X182088618Y-142947800D01*
X182088618Y-142947800D02*
X181974333Y-142985895D01*
X181974333Y-142985895D02*
X181898142Y-142985895D01*
X181898142Y-142985895D02*
X181783856Y-142947800D01*
X181783856Y-142947800D02*
X181707666Y-142871609D01*
X181707666Y-142871609D02*
X181669571Y-142795419D01*
X181669571Y-142795419D02*
X181631475Y-142643038D01*
X181631475Y-142643038D02*
X181631475Y-142528752D01*
X181631475Y-142528752D02*
X181669571Y-142376371D01*
X181669571Y-142376371D02*
X181707666Y-142300180D01*
X181707666Y-142300180D02*
X181783856Y-142223990D01*
X181783856Y-142223990D02*
X181898142Y-142185895D01*
X181898142Y-142185895D02*
X181974333Y-142185895D01*
X181974333Y-142185895D02*
X182088618Y-142223990D01*
X182088618Y-142223990D02*
X182126714Y-142262085D01*
X182888618Y-142985895D02*
X182431475Y-142985895D01*
X182660047Y-142985895D02*
X182660047Y-142185895D01*
X182660047Y-142185895D02*
X182583856Y-142300180D01*
X182583856Y-142300180D02*
X182507666Y-142376371D01*
X182507666Y-142376371D02*
X182431475Y-142414466D01*
X183155285Y-142185895D02*
X183688619Y-142185895D01*
X183688619Y-142185895D02*
X183345761Y-142985895D01*
X163347667Y-143084704D02*
X163309571Y-143122800D01*
X163309571Y-143122800D02*
X163195286Y-143160895D01*
X163195286Y-143160895D02*
X163119095Y-143160895D01*
X163119095Y-143160895D02*
X163004809Y-143122800D01*
X163004809Y-143122800D02*
X162928619Y-143046609D01*
X162928619Y-143046609D02*
X162890524Y-142970419D01*
X162890524Y-142970419D02*
X162852428Y-142818038D01*
X162852428Y-142818038D02*
X162852428Y-142703752D01*
X162852428Y-142703752D02*
X162890524Y-142551371D01*
X162890524Y-142551371D02*
X162928619Y-142475180D01*
X162928619Y-142475180D02*
X163004809Y-142398990D01*
X163004809Y-142398990D02*
X163119095Y-142360895D01*
X163119095Y-142360895D02*
X163195286Y-142360895D01*
X163195286Y-142360895D02*
X163309571Y-142398990D01*
X163309571Y-142398990D02*
X163347667Y-142437085D01*
X163804809Y-142703752D02*
X163728619Y-142665657D01*
X163728619Y-142665657D02*
X163690524Y-142627561D01*
X163690524Y-142627561D02*
X163652428Y-142551371D01*
X163652428Y-142551371D02*
X163652428Y-142513276D01*
X163652428Y-142513276D02*
X163690524Y-142437085D01*
X163690524Y-142437085D02*
X163728619Y-142398990D01*
X163728619Y-142398990D02*
X163804809Y-142360895D01*
X163804809Y-142360895D02*
X163957190Y-142360895D01*
X163957190Y-142360895D02*
X164033381Y-142398990D01*
X164033381Y-142398990D02*
X164071476Y-142437085D01*
X164071476Y-142437085D02*
X164109571Y-142513276D01*
X164109571Y-142513276D02*
X164109571Y-142551371D01*
X164109571Y-142551371D02*
X164071476Y-142627561D01*
X164071476Y-142627561D02*
X164033381Y-142665657D01*
X164033381Y-142665657D02*
X163957190Y-142703752D01*
X163957190Y-142703752D02*
X163804809Y-142703752D01*
X163804809Y-142703752D02*
X163728619Y-142741847D01*
X163728619Y-142741847D02*
X163690524Y-142779942D01*
X163690524Y-142779942D02*
X163652428Y-142856133D01*
X163652428Y-142856133D02*
X163652428Y-143008514D01*
X163652428Y-143008514D02*
X163690524Y-143084704D01*
X163690524Y-143084704D02*
X163728619Y-143122800D01*
X163728619Y-143122800D02*
X163804809Y-143160895D01*
X163804809Y-143160895D02*
X163957190Y-143160895D01*
X163957190Y-143160895D02*
X164033381Y-143122800D01*
X164033381Y-143122800D02*
X164071476Y-143084704D01*
X164071476Y-143084704D02*
X164109571Y-143008514D01*
X164109571Y-143008514D02*
X164109571Y-142856133D01*
X164109571Y-142856133D02*
X164071476Y-142779942D01*
X164071476Y-142779942D02*
X164033381Y-142741847D01*
X164033381Y-142741847D02*
X163957190Y-142703752D01*
D10*
X188104533Y-128384819D02*
X187771200Y-127908628D01*
X187533105Y-128384819D02*
X187533105Y-127384819D01*
X187533105Y-127384819D02*
X187914057Y-127384819D01*
X187914057Y-127384819D02*
X188009295Y-127432438D01*
X188009295Y-127432438D02*
X188056914Y-127480057D01*
X188056914Y-127480057D02*
X188104533Y-127575295D01*
X188104533Y-127575295D02*
X188104533Y-127718152D01*
X188104533Y-127718152D02*
X188056914Y-127813390D01*
X188056914Y-127813390D02*
X188009295Y-127861009D01*
X188009295Y-127861009D02*
X187914057Y-127908628D01*
X187914057Y-127908628D02*
X187533105Y-127908628D01*
X189009295Y-127384819D02*
X188533105Y-127384819D01*
X188533105Y-127384819D02*
X188485486Y-127861009D01*
X188485486Y-127861009D02*
X188533105Y-127813390D01*
X188533105Y-127813390D02*
X188628343Y-127765771D01*
X188628343Y-127765771D02*
X188866438Y-127765771D01*
X188866438Y-127765771D02*
X188961676Y-127813390D01*
X188961676Y-127813390D02*
X189009295Y-127861009D01*
X189009295Y-127861009D02*
X189056914Y-127956247D01*
X189056914Y-127956247D02*
X189056914Y-128194342D01*
X189056914Y-128194342D02*
X189009295Y-128289580D01*
X189009295Y-128289580D02*
X188961676Y-128337200D01*
X188961676Y-128337200D02*
X188866438Y-128384819D01*
X188866438Y-128384819D02*
X188628343Y-128384819D01*
X188628343Y-128384819D02*
X188533105Y-128337200D01*
X188533105Y-128337200D02*
X188485486Y-128289580D01*
D12*
X73348200Y-151199582D02*
X73310104Y-151313868D01*
X73310104Y-151313868D02*
X73310104Y-151504344D01*
X73310104Y-151504344D02*
X73348200Y-151580535D01*
X73348200Y-151580535D02*
X73386295Y-151618630D01*
X73386295Y-151618630D02*
X73462485Y-151656725D01*
X73462485Y-151656725D02*
X73538676Y-151656725D01*
X73538676Y-151656725D02*
X73614866Y-151618630D01*
X73614866Y-151618630D02*
X73652961Y-151580535D01*
X73652961Y-151580535D02*
X73691057Y-151504344D01*
X73691057Y-151504344D02*
X73729152Y-151351963D01*
X73729152Y-151351963D02*
X73767247Y-151275773D01*
X73767247Y-151275773D02*
X73805342Y-151237678D01*
X73805342Y-151237678D02*
X73881533Y-151199582D01*
X73881533Y-151199582D02*
X73957723Y-151199582D01*
X73957723Y-151199582D02*
X74033914Y-151237678D01*
X74033914Y-151237678D02*
X74072009Y-151275773D01*
X74072009Y-151275773D02*
X74110104Y-151351963D01*
X74110104Y-151351963D02*
X74110104Y-151542440D01*
X74110104Y-151542440D02*
X74072009Y-151656725D01*
X74110104Y-151923392D02*
X73310104Y-152113868D01*
X73310104Y-152113868D02*
X73881533Y-152266249D01*
X73881533Y-152266249D02*
X73310104Y-152418630D01*
X73310104Y-152418630D02*
X74110104Y-152609107D01*
X74033914Y-152875773D02*
X74072009Y-152913869D01*
X74072009Y-152913869D02*
X74110104Y-152990059D01*
X74110104Y-152990059D02*
X74110104Y-153180535D01*
X74110104Y-153180535D02*
X74072009Y-153256726D01*
X74072009Y-153256726D02*
X74033914Y-153294821D01*
X74033914Y-153294821D02*
X73957723Y-153332916D01*
X73957723Y-153332916D02*
X73881533Y-153332916D01*
X73881533Y-153332916D02*
X73767247Y-153294821D01*
X73767247Y-153294821D02*
X73310104Y-152837678D01*
X73310104Y-152837678D02*
X73310104Y-153332916D01*
X182076714Y-128034704D02*
X182038618Y-128072800D01*
X182038618Y-128072800D02*
X181924333Y-128110895D01*
X181924333Y-128110895D02*
X181848142Y-128110895D01*
X181848142Y-128110895D02*
X181733856Y-128072800D01*
X181733856Y-128072800D02*
X181657666Y-127996609D01*
X181657666Y-127996609D02*
X181619571Y-127920419D01*
X181619571Y-127920419D02*
X181581475Y-127768038D01*
X181581475Y-127768038D02*
X181581475Y-127653752D01*
X181581475Y-127653752D02*
X181619571Y-127501371D01*
X181619571Y-127501371D02*
X181657666Y-127425180D01*
X181657666Y-127425180D02*
X181733856Y-127348990D01*
X181733856Y-127348990D02*
X181848142Y-127310895D01*
X181848142Y-127310895D02*
X181924333Y-127310895D01*
X181924333Y-127310895D02*
X182038618Y-127348990D01*
X182038618Y-127348990D02*
X182076714Y-127387085D01*
X182838618Y-128110895D02*
X182381475Y-128110895D01*
X182610047Y-128110895D02*
X182610047Y-127310895D01*
X182610047Y-127310895D02*
X182533856Y-127425180D01*
X182533856Y-127425180D02*
X182457666Y-127501371D01*
X182457666Y-127501371D02*
X182381475Y-127539466D01*
X183105285Y-127310895D02*
X183600523Y-127310895D01*
X183600523Y-127310895D02*
X183333857Y-127615657D01*
X183333857Y-127615657D02*
X183448142Y-127615657D01*
X183448142Y-127615657D02*
X183524333Y-127653752D01*
X183524333Y-127653752D02*
X183562428Y-127691847D01*
X183562428Y-127691847D02*
X183600523Y-127768038D01*
X183600523Y-127768038D02*
X183600523Y-127958514D01*
X183600523Y-127958514D02*
X183562428Y-128034704D01*
X183562428Y-128034704D02*
X183524333Y-128072800D01*
X183524333Y-128072800D02*
X183448142Y-128110895D01*
X183448142Y-128110895D02*
X183219571Y-128110895D01*
X183219571Y-128110895D02*
X183143380Y-128072800D01*
X183143380Y-128072800D02*
X183105285Y-128034704D01*
D10*
X78354819Y-140583333D02*
X79069104Y-140583333D01*
X79069104Y-140583333D02*
X79211961Y-140630952D01*
X79211961Y-140630952D02*
X79307200Y-140726190D01*
X79307200Y-140726190D02*
X79354819Y-140869047D01*
X79354819Y-140869047D02*
X79354819Y-140964285D01*
X78354819Y-139630952D02*
X78354819Y-140107142D01*
X78354819Y-140107142D02*
X78831009Y-140154761D01*
X78831009Y-140154761D02*
X78783390Y-140107142D01*
X78783390Y-140107142D02*
X78735771Y-140011904D01*
X78735771Y-140011904D02*
X78735771Y-139773809D01*
X78735771Y-139773809D02*
X78783390Y-139678571D01*
X78783390Y-139678571D02*
X78831009Y-139630952D01*
X78831009Y-139630952D02*
X78926247Y-139583333D01*
X78926247Y-139583333D02*
X79164342Y-139583333D01*
X79164342Y-139583333D02*
X79259580Y-139630952D01*
X79259580Y-139630952D02*
X79307200Y-139678571D01*
X79307200Y-139678571D02*
X79354819Y-139773809D01*
X79354819Y-139773809D02*
X79354819Y-140011904D01*
X79354819Y-140011904D02*
X79307200Y-140107142D01*
X79307200Y-140107142D02*
X79259580Y-140154761D01*
D12*
X162581714Y-146084704D02*
X162543618Y-146122800D01*
X162543618Y-146122800D02*
X162429333Y-146160895D01*
X162429333Y-146160895D02*
X162353142Y-146160895D01*
X162353142Y-146160895D02*
X162238856Y-146122800D01*
X162238856Y-146122800D02*
X162162666Y-146046609D01*
X162162666Y-146046609D02*
X162124571Y-145970419D01*
X162124571Y-145970419D02*
X162086475Y-145818038D01*
X162086475Y-145818038D02*
X162086475Y-145703752D01*
X162086475Y-145703752D02*
X162124571Y-145551371D01*
X162124571Y-145551371D02*
X162162666Y-145475180D01*
X162162666Y-145475180D02*
X162238856Y-145398990D01*
X162238856Y-145398990D02*
X162353142Y-145360895D01*
X162353142Y-145360895D02*
X162429333Y-145360895D01*
X162429333Y-145360895D02*
X162543618Y-145398990D01*
X162543618Y-145398990D02*
X162581714Y-145437085D01*
X163343618Y-146160895D02*
X162886475Y-146160895D01*
X163115047Y-146160895D02*
X163115047Y-145360895D01*
X163115047Y-145360895D02*
X163038856Y-145475180D01*
X163038856Y-145475180D02*
X162962666Y-145551371D01*
X162962666Y-145551371D02*
X162886475Y-145589466D01*
X164105523Y-146160895D02*
X163648380Y-146160895D01*
X163876952Y-146160895D02*
X163876952Y-145360895D01*
X163876952Y-145360895D02*
X163800761Y-145475180D01*
X163800761Y-145475180D02*
X163724571Y-145551371D01*
X163724571Y-145551371D02*
X163648380Y-145589466D01*
X101505046Y-73024704D02*
X101466950Y-73062800D01*
X101466950Y-73062800D02*
X101352665Y-73100895D01*
X101352665Y-73100895D02*
X101276474Y-73100895D01*
X101276474Y-73100895D02*
X101162188Y-73062800D01*
X101162188Y-73062800D02*
X101085998Y-72986609D01*
X101085998Y-72986609D02*
X101047903Y-72910419D01*
X101047903Y-72910419D02*
X101009807Y-72758038D01*
X101009807Y-72758038D02*
X101009807Y-72643752D01*
X101009807Y-72643752D02*
X101047903Y-72491371D01*
X101047903Y-72491371D02*
X101085998Y-72415180D01*
X101085998Y-72415180D02*
X101162188Y-72338990D01*
X101162188Y-72338990D02*
X101276474Y-72300895D01*
X101276474Y-72300895D02*
X101352665Y-72300895D01*
X101352665Y-72300895D02*
X101466950Y-72338990D01*
X101466950Y-72338990D02*
X101505046Y-72377085D01*
X102266950Y-73100895D02*
X101809807Y-73100895D01*
X102038379Y-73100895D02*
X102038379Y-72300895D01*
X102038379Y-72300895D02*
X101962188Y-72415180D01*
X101962188Y-72415180D02*
X101885998Y-72491371D01*
X101885998Y-72491371D02*
X101809807Y-72529466D01*
X101714895Y-62758332D02*
X101333942Y-63024999D01*
X101714895Y-63215475D02*
X100914895Y-63215475D01*
X100914895Y-63215475D02*
X100914895Y-62910713D01*
X100914895Y-62910713D02*
X100952990Y-62834523D01*
X100952990Y-62834523D02*
X100991085Y-62796428D01*
X100991085Y-62796428D02*
X101067276Y-62758332D01*
X101067276Y-62758332D02*
X101181561Y-62758332D01*
X101181561Y-62758332D02*
X101257752Y-62796428D01*
X101257752Y-62796428D02*
X101295847Y-62834523D01*
X101295847Y-62834523D02*
X101333942Y-62910713D01*
X101333942Y-62910713D02*
X101333942Y-63215475D01*
X100991085Y-62453571D02*
X100952990Y-62415475D01*
X100952990Y-62415475D02*
X100914895Y-62339285D01*
X100914895Y-62339285D02*
X100914895Y-62148809D01*
X100914895Y-62148809D02*
X100952990Y-62072618D01*
X100952990Y-62072618D02*
X100991085Y-62034523D01*
X100991085Y-62034523D02*
X101067276Y-61996428D01*
X101067276Y-61996428D02*
X101143466Y-61996428D01*
X101143466Y-61996428D02*
X101257752Y-62034523D01*
X101257752Y-62034523D02*
X101714895Y-62491666D01*
X101714895Y-62491666D02*
X101714895Y-61996428D01*
X119138714Y-41544895D02*
X118872047Y-41163942D01*
X118681571Y-41544895D02*
X118681571Y-40744895D01*
X118681571Y-40744895D02*
X118986333Y-40744895D01*
X118986333Y-40744895D02*
X119062523Y-40782990D01*
X119062523Y-40782990D02*
X119100618Y-40821085D01*
X119100618Y-40821085D02*
X119138714Y-40897276D01*
X119138714Y-40897276D02*
X119138714Y-41011561D01*
X119138714Y-41011561D02*
X119100618Y-41087752D01*
X119100618Y-41087752D02*
X119062523Y-41125847D01*
X119062523Y-41125847D02*
X118986333Y-41163942D01*
X118986333Y-41163942D02*
X118681571Y-41163942D01*
X119900618Y-41544895D02*
X119443475Y-41544895D01*
X119672047Y-41544895D02*
X119672047Y-40744895D01*
X119672047Y-40744895D02*
X119595856Y-40859180D01*
X119595856Y-40859180D02*
X119519666Y-40935371D01*
X119519666Y-40935371D02*
X119443475Y-40973466D01*
X120167285Y-40744895D02*
X120662523Y-40744895D01*
X120662523Y-40744895D02*
X120395857Y-41049657D01*
X120395857Y-41049657D02*
X120510142Y-41049657D01*
X120510142Y-41049657D02*
X120586333Y-41087752D01*
X120586333Y-41087752D02*
X120624428Y-41125847D01*
X120624428Y-41125847D02*
X120662523Y-41202038D01*
X120662523Y-41202038D02*
X120662523Y-41392514D01*
X120662523Y-41392514D02*
X120624428Y-41468704D01*
X120624428Y-41468704D02*
X120586333Y-41506800D01*
X120586333Y-41506800D02*
X120510142Y-41544895D01*
X120510142Y-41544895D02*
X120281571Y-41544895D01*
X120281571Y-41544895D02*
X120205380Y-41506800D01*
X120205380Y-41506800D02*
X120167285Y-41468704D01*
X182151714Y-144434704D02*
X182113618Y-144472800D01*
X182113618Y-144472800D02*
X181999333Y-144510895D01*
X181999333Y-144510895D02*
X181923142Y-144510895D01*
X181923142Y-144510895D02*
X181808856Y-144472800D01*
X181808856Y-144472800D02*
X181732666Y-144396609D01*
X181732666Y-144396609D02*
X181694571Y-144320419D01*
X181694571Y-144320419D02*
X181656475Y-144168038D01*
X181656475Y-144168038D02*
X181656475Y-144053752D01*
X181656475Y-144053752D02*
X181694571Y-143901371D01*
X181694571Y-143901371D02*
X181732666Y-143825180D01*
X181732666Y-143825180D02*
X181808856Y-143748990D01*
X181808856Y-143748990D02*
X181923142Y-143710895D01*
X181923142Y-143710895D02*
X181999333Y-143710895D01*
X181999333Y-143710895D02*
X182113618Y-143748990D01*
X182113618Y-143748990D02*
X182151714Y-143787085D01*
X182913618Y-144510895D02*
X182456475Y-144510895D01*
X182685047Y-144510895D02*
X182685047Y-143710895D01*
X182685047Y-143710895D02*
X182608856Y-143825180D01*
X182608856Y-143825180D02*
X182532666Y-143901371D01*
X182532666Y-143901371D02*
X182456475Y-143939466D01*
X183294571Y-144510895D02*
X183446952Y-144510895D01*
X183446952Y-144510895D02*
X183523142Y-144472800D01*
X183523142Y-144472800D02*
X183561238Y-144434704D01*
X183561238Y-144434704D02*
X183637428Y-144320419D01*
X183637428Y-144320419D02*
X183675523Y-144168038D01*
X183675523Y-144168038D02*
X183675523Y-143863276D01*
X183675523Y-143863276D02*
X183637428Y-143787085D01*
X183637428Y-143787085D02*
X183599333Y-143748990D01*
X183599333Y-143748990D02*
X183523142Y-143710895D01*
X183523142Y-143710895D02*
X183370761Y-143710895D01*
X183370761Y-143710895D02*
X183294571Y-143748990D01*
X183294571Y-143748990D02*
X183256476Y-143787085D01*
X183256476Y-143787085D02*
X183218380Y-143863276D01*
X183218380Y-143863276D02*
X183218380Y-144053752D01*
X183218380Y-144053752D02*
X183256476Y-144129942D01*
X183256476Y-144129942D02*
X183294571Y-144168038D01*
X183294571Y-144168038D02*
X183370761Y-144206133D01*
X183370761Y-144206133D02*
X183523142Y-144206133D01*
X183523142Y-144206133D02*
X183599333Y-144168038D01*
X183599333Y-144168038D02*
X183637428Y-144129942D01*
X183637428Y-144129942D02*
X183675523Y-144053752D01*
D10*
X192804819Y-122083333D02*
X193519104Y-122083333D01*
X193519104Y-122083333D02*
X193661961Y-122130952D01*
X193661961Y-122130952D02*
X193757200Y-122226190D01*
X193757200Y-122226190D02*
X193804819Y-122369047D01*
X193804819Y-122369047D02*
X193804819Y-122464285D01*
X192804819Y-121702380D02*
X192804819Y-121035714D01*
X192804819Y-121035714D02*
X193804819Y-121464285D01*
D12*
X197395895Y-136555523D02*
X198043514Y-136555523D01*
X198043514Y-136555523D02*
X198119704Y-136517428D01*
X198119704Y-136517428D02*
X198157800Y-136479333D01*
X198157800Y-136479333D02*
X198195895Y-136403142D01*
X198195895Y-136403142D02*
X198195895Y-136250761D01*
X198195895Y-136250761D02*
X198157800Y-136174571D01*
X198157800Y-136174571D02*
X198119704Y-136136476D01*
X198119704Y-136136476D02*
X198043514Y-136098380D01*
X198043514Y-136098380D02*
X197395895Y-136098380D01*
X197472085Y-135755524D02*
X197433990Y-135717428D01*
X197433990Y-135717428D02*
X197395895Y-135641238D01*
X197395895Y-135641238D02*
X197395895Y-135450762D01*
X197395895Y-135450762D02*
X197433990Y-135374571D01*
X197433990Y-135374571D02*
X197472085Y-135336476D01*
X197472085Y-135336476D02*
X197548276Y-135298381D01*
X197548276Y-135298381D02*
X197624466Y-135298381D01*
X197624466Y-135298381D02*
X197738752Y-135336476D01*
X197738752Y-135336476D02*
X198195895Y-135793619D01*
X198195895Y-135793619D02*
X198195895Y-135298381D01*
X163287667Y-126684704D02*
X163249571Y-126722800D01*
X163249571Y-126722800D02*
X163135286Y-126760895D01*
X163135286Y-126760895D02*
X163059095Y-126760895D01*
X163059095Y-126760895D02*
X162944809Y-126722800D01*
X162944809Y-126722800D02*
X162868619Y-126646609D01*
X162868619Y-126646609D02*
X162830524Y-126570419D01*
X162830524Y-126570419D02*
X162792428Y-126418038D01*
X162792428Y-126418038D02*
X162792428Y-126303752D01*
X162792428Y-126303752D02*
X162830524Y-126151371D01*
X162830524Y-126151371D02*
X162868619Y-126075180D01*
X162868619Y-126075180D02*
X162944809Y-125998990D01*
X162944809Y-125998990D02*
X163059095Y-125960895D01*
X163059095Y-125960895D02*
X163135286Y-125960895D01*
X163135286Y-125960895D02*
X163249571Y-125998990D01*
X163249571Y-125998990D02*
X163287667Y-126037085D01*
X163554333Y-125960895D02*
X164049571Y-125960895D01*
X164049571Y-125960895D02*
X163782905Y-126265657D01*
X163782905Y-126265657D02*
X163897190Y-126265657D01*
X163897190Y-126265657D02*
X163973381Y-126303752D01*
X163973381Y-126303752D02*
X164011476Y-126341847D01*
X164011476Y-126341847D02*
X164049571Y-126418038D01*
X164049571Y-126418038D02*
X164049571Y-126608514D01*
X164049571Y-126608514D02*
X164011476Y-126684704D01*
X164011476Y-126684704D02*
X163973381Y-126722800D01*
X163973381Y-126722800D02*
X163897190Y-126760895D01*
X163897190Y-126760895D02*
X163668619Y-126760895D01*
X163668619Y-126760895D02*
X163592428Y-126722800D01*
X163592428Y-126722800D02*
X163554333Y-126684704D01*
X162414333Y-124741847D02*
X162147667Y-124741847D01*
X162147667Y-125160895D02*
X162147667Y-124360895D01*
X162147667Y-124360895D02*
X162528619Y-124360895D01*
X163100047Y-124741847D02*
X163214333Y-124779942D01*
X163214333Y-124779942D02*
X163252428Y-124818038D01*
X163252428Y-124818038D02*
X163290524Y-124894228D01*
X163290524Y-124894228D02*
X163290524Y-125008514D01*
X163290524Y-125008514D02*
X163252428Y-125084704D01*
X163252428Y-125084704D02*
X163214333Y-125122800D01*
X163214333Y-125122800D02*
X163138143Y-125160895D01*
X163138143Y-125160895D02*
X162833381Y-125160895D01*
X162833381Y-125160895D02*
X162833381Y-124360895D01*
X162833381Y-124360895D02*
X163100047Y-124360895D01*
X163100047Y-124360895D02*
X163176238Y-124398990D01*
X163176238Y-124398990D02*
X163214333Y-124437085D01*
X163214333Y-124437085D02*
X163252428Y-124513276D01*
X163252428Y-124513276D02*
X163252428Y-124589466D01*
X163252428Y-124589466D02*
X163214333Y-124665657D01*
X163214333Y-124665657D02*
X163176238Y-124703752D01*
X163176238Y-124703752D02*
X163100047Y-124741847D01*
X163100047Y-124741847D02*
X162833381Y-124741847D01*
X164052428Y-125160895D02*
X163595285Y-125160895D01*
X163823857Y-125160895D02*
X163823857Y-124360895D01*
X163823857Y-124360895D02*
X163747666Y-124475180D01*
X163747666Y-124475180D02*
X163671476Y-124551371D01*
X163671476Y-124551371D02*
X163595285Y-124589466D01*
X138616667Y-41364895D02*
X138350000Y-40983942D01*
X138159524Y-41364895D02*
X138159524Y-40564895D01*
X138159524Y-40564895D02*
X138464286Y-40564895D01*
X138464286Y-40564895D02*
X138540476Y-40602990D01*
X138540476Y-40602990D02*
X138578571Y-40641085D01*
X138578571Y-40641085D02*
X138616667Y-40717276D01*
X138616667Y-40717276D02*
X138616667Y-40831561D01*
X138616667Y-40831561D02*
X138578571Y-40907752D01*
X138578571Y-40907752D02*
X138540476Y-40945847D01*
X138540476Y-40945847D02*
X138464286Y-40983942D01*
X138464286Y-40983942D02*
X138159524Y-40983942D01*
X139073809Y-40907752D02*
X138997619Y-40869657D01*
X138997619Y-40869657D02*
X138959524Y-40831561D01*
X138959524Y-40831561D02*
X138921428Y-40755371D01*
X138921428Y-40755371D02*
X138921428Y-40717276D01*
X138921428Y-40717276D02*
X138959524Y-40641085D01*
X138959524Y-40641085D02*
X138997619Y-40602990D01*
X138997619Y-40602990D02*
X139073809Y-40564895D01*
X139073809Y-40564895D02*
X139226190Y-40564895D01*
X139226190Y-40564895D02*
X139302381Y-40602990D01*
X139302381Y-40602990D02*
X139340476Y-40641085D01*
X139340476Y-40641085D02*
X139378571Y-40717276D01*
X139378571Y-40717276D02*
X139378571Y-40755371D01*
X139378571Y-40755371D02*
X139340476Y-40831561D01*
X139340476Y-40831561D02*
X139302381Y-40869657D01*
X139302381Y-40869657D02*
X139226190Y-40907752D01*
X139226190Y-40907752D02*
X139073809Y-40907752D01*
X139073809Y-40907752D02*
X138997619Y-40945847D01*
X138997619Y-40945847D02*
X138959524Y-40983942D01*
X138959524Y-40983942D02*
X138921428Y-41060133D01*
X138921428Y-41060133D02*
X138921428Y-41212514D01*
X138921428Y-41212514D02*
X138959524Y-41288704D01*
X138959524Y-41288704D02*
X138997619Y-41326800D01*
X138997619Y-41326800D02*
X139073809Y-41364895D01*
X139073809Y-41364895D02*
X139226190Y-41364895D01*
X139226190Y-41364895D02*
X139302381Y-41326800D01*
X139302381Y-41326800D02*
X139340476Y-41288704D01*
X139340476Y-41288704D02*
X139378571Y-41212514D01*
X139378571Y-41212514D02*
X139378571Y-41060133D01*
X139378571Y-41060133D02*
X139340476Y-40983942D01*
X139340476Y-40983942D02*
X139302381Y-40945847D01*
X139302381Y-40945847D02*
X139226190Y-40907752D01*
D10*
X128113095Y-52368819D02*
X128113095Y-53178342D01*
X128113095Y-53178342D02*
X128160714Y-53273580D01*
X128160714Y-53273580D02*
X128208333Y-53321200D01*
X128208333Y-53321200D02*
X128303571Y-53368819D01*
X128303571Y-53368819D02*
X128494047Y-53368819D01*
X128494047Y-53368819D02*
X128589285Y-53321200D01*
X128589285Y-53321200D02*
X128636904Y-53273580D01*
X128636904Y-53273580D02*
X128684523Y-53178342D01*
X128684523Y-53178342D02*
X128684523Y-52368819D01*
X129589285Y-52702152D02*
X129589285Y-53368819D01*
X129351190Y-52321200D02*
X129113095Y-53035485D01*
X129113095Y-53035485D02*
X129732142Y-53035485D01*
D12*
X63094895Y-152944285D02*
X62713942Y-153210952D01*
X63094895Y-153401428D02*
X62294895Y-153401428D01*
X62294895Y-153401428D02*
X62294895Y-153096666D01*
X62294895Y-153096666D02*
X62332990Y-153020476D01*
X62332990Y-153020476D02*
X62371085Y-152982381D01*
X62371085Y-152982381D02*
X62447276Y-152944285D01*
X62447276Y-152944285D02*
X62561561Y-152944285D01*
X62561561Y-152944285D02*
X62637752Y-152982381D01*
X62637752Y-152982381D02*
X62675847Y-153020476D01*
X62675847Y-153020476D02*
X62713942Y-153096666D01*
X62713942Y-153096666D02*
X62713942Y-153401428D01*
X63094895Y-152182381D02*
X63094895Y-152639524D01*
X63094895Y-152410952D02*
X62294895Y-152410952D01*
X62294895Y-152410952D02*
X62409180Y-152487143D01*
X62409180Y-152487143D02*
X62485371Y-152563333D01*
X62485371Y-152563333D02*
X62523466Y-152639524D01*
X63094895Y-151420476D02*
X63094895Y-151877619D01*
X63094895Y-151649047D02*
X62294895Y-151649047D01*
X62294895Y-151649047D02*
X62409180Y-151725238D01*
X62409180Y-151725238D02*
X62485371Y-151801428D01*
X62485371Y-151801428D02*
X62523466Y-151877619D01*
X171414333Y-126441847D02*
X171147667Y-126441847D01*
X171147667Y-126860895D02*
X171147667Y-126060895D01*
X171147667Y-126060895D02*
X171528619Y-126060895D01*
X172100047Y-126441847D02*
X172214333Y-126479942D01*
X172214333Y-126479942D02*
X172252428Y-126518038D01*
X172252428Y-126518038D02*
X172290524Y-126594228D01*
X172290524Y-126594228D02*
X172290524Y-126708514D01*
X172290524Y-126708514D02*
X172252428Y-126784704D01*
X172252428Y-126784704D02*
X172214333Y-126822800D01*
X172214333Y-126822800D02*
X172138143Y-126860895D01*
X172138143Y-126860895D02*
X171833381Y-126860895D01*
X171833381Y-126860895D02*
X171833381Y-126060895D01*
X171833381Y-126060895D02*
X172100047Y-126060895D01*
X172100047Y-126060895D02*
X172176238Y-126098990D01*
X172176238Y-126098990D02*
X172214333Y-126137085D01*
X172214333Y-126137085D02*
X172252428Y-126213276D01*
X172252428Y-126213276D02*
X172252428Y-126289466D01*
X172252428Y-126289466D02*
X172214333Y-126365657D01*
X172214333Y-126365657D02*
X172176238Y-126403752D01*
X172176238Y-126403752D02*
X172100047Y-126441847D01*
X172100047Y-126441847D02*
X171833381Y-126441847D01*
X172595285Y-126137085D02*
X172633381Y-126098990D01*
X172633381Y-126098990D02*
X172709571Y-126060895D01*
X172709571Y-126060895D02*
X172900047Y-126060895D01*
X172900047Y-126060895D02*
X172976238Y-126098990D01*
X172976238Y-126098990D02*
X173014333Y-126137085D01*
X173014333Y-126137085D02*
X173052428Y-126213276D01*
X173052428Y-126213276D02*
X173052428Y-126289466D01*
X173052428Y-126289466D02*
X173014333Y-126403752D01*
X173014333Y-126403752D02*
X172557190Y-126860895D01*
X172557190Y-126860895D02*
X173052428Y-126860895D01*
X187914333Y-143991847D02*
X187647667Y-143991847D01*
X187647667Y-144410895D02*
X187647667Y-143610895D01*
X187647667Y-143610895D02*
X188028619Y-143610895D01*
X188600047Y-143991847D02*
X188714333Y-144029942D01*
X188714333Y-144029942D02*
X188752428Y-144068038D01*
X188752428Y-144068038D02*
X188790524Y-144144228D01*
X188790524Y-144144228D02*
X188790524Y-144258514D01*
X188790524Y-144258514D02*
X188752428Y-144334704D01*
X188752428Y-144334704D02*
X188714333Y-144372800D01*
X188714333Y-144372800D02*
X188638143Y-144410895D01*
X188638143Y-144410895D02*
X188333381Y-144410895D01*
X188333381Y-144410895D02*
X188333381Y-143610895D01*
X188333381Y-143610895D02*
X188600047Y-143610895D01*
X188600047Y-143610895D02*
X188676238Y-143648990D01*
X188676238Y-143648990D02*
X188714333Y-143687085D01*
X188714333Y-143687085D02*
X188752428Y-143763276D01*
X188752428Y-143763276D02*
X188752428Y-143839466D01*
X188752428Y-143839466D02*
X188714333Y-143915657D01*
X188714333Y-143915657D02*
X188676238Y-143953752D01*
X188676238Y-143953752D02*
X188600047Y-143991847D01*
X188600047Y-143991847D02*
X188333381Y-143991847D01*
X189171476Y-144410895D02*
X189323857Y-144410895D01*
X189323857Y-144410895D02*
X189400047Y-144372800D01*
X189400047Y-144372800D02*
X189438143Y-144334704D01*
X189438143Y-144334704D02*
X189514333Y-144220419D01*
X189514333Y-144220419D02*
X189552428Y-144068038D01*
X189552428Y-144068038D02*
X189552428Y-143763276D01*
X189552428Y-143763276D02*
X189514333Y-143687085D01*
X189514333Y-143687085D02*
X189476238Y-143648990D01*
X189476238Y-143648990D02*
X189400047Y-143610895D01*
X189400047Y-143610895D02*
X189247666Y-143610895D01*
X189247666Y-143610895D02*
X189171476Y-143648990D01*
X189171476Y-143648990D02*
X189133381Y-143687085D01*
X189133381Y-143687085D02*
X189095285Y-143763276D01*
X189095285Y-143763276D02*
X189095285Y-143953752D01*
X189095285Y-143953752D02*
X189133381Y-144029942D01*
X189133381Y-144029942D02*
X189171476Y-144068038D01*
X189171476Y-144068038D02*
X189247666Y-144106133D01*
X189247666Y-144106133D02*
X189400047Y-144106133D01*
X189400047Y-144106133D02*
X189476238Y-144068038D01*
X189476238Y-144068038D02*
X189514333Y-144029942D01*
X189514333Y-144029942D02*
X189552428Y-143953752D01*
D10*
X78104819Y-44933333D02*
X78819104Y-44933333D01*
X78819104Y-44933333D02*
X78961961Y-44980952D01*
X78961961Y-44980952D02*
X79057200Y-45076190D01*
X79057200Y-45076190D02*
X79104819Y-45219047D01*
X79104819Y-45219047D02*
X79104819Y-45314285D01*
X79104819Y-43933333D02*
X79104819Y-44504761D01*
X79104819Y-44219047D02*
X78104819Y-44219047D01*
X78104819Y-44219047D02*
X78247676Y-44314285D01*
X78247676Y-44314285D02*
X78342914Y-44409523D01*
X78342914Y-44409523D02*
X78390533Y-44504761D01*
X98764700Y-39271428D02*
X98764700Y-38128571D01*
X99336128Y-38699999D02*
X98193271Y-38699999D01*
X98764700Y-51571428D02*
X98764700Y-50428571D01*
X194114333Y-145430819D02*
X193781000Y-144954628D01*
X193542905Y-145430819D02*
X193542905Y-144430819D01*
X193542905Y-144430819D02*
X193923857Y-144430819D01*
X193923857Y-144430819D02*
X194019095Y-144478438D01*
X194019095Y-144478438D02*
X194066714Y-144526057D01*
X194066714Y-144526057D02*
X194114333Y-144621295D01*
X194114333Y-144621295D02*
X194114333Y-144764152D01*
X194114333Y-144764152D02*
X194066714Y-144859390D01*
X194066714Y-144859390D02*
X194019095Y-144907009D01*
X194019095Y-144907009D02*
X193923857Y-144954628D01*
X193923857Y-144954628D02*
X193542905Y-144954628D01*
X194971476Y-144430819D02*
X194781000Y-144430819D01*
X194781000Y-144430819D02*
X194685762Y-144478438D01*
X194685762Y-144478438D02*
X194638143Y-144526057D01*
X194638143Y-144526057D02*
X194542905Y-144668914D01*
X194542905Y-144668914D02*
X194495286Y-144859390D01*
X194495286Y-144859390D02*
X194495286Y-145240342D01*
X194495286Y-145240342D02*
X194542905Y-145335580D01*
X194542905Y-145335580D02*
X194590524Y-145383200D01*
X194590524Y-145383200D02*
X194685762Y-145430819D01*
X194685762Y-145430819D02*
X194876238Y-145430819D01*
X194876238Y-145430819D02*
X194971476Y-145383200D01*
X194971476Y-145383200D02*
X195019095Y-145335580D01*
X195019095Y-145335580D02*
X195066714Y-145240342D01*
X195066714Y-145240342D02*
X195066714Y-145002247D01*
X195066714Y-145002247D02*
X195019095Y-144907009D01*
X195019095Y-144907009D02*
X194971476Y-144859390D01*
X194971476Y-144859390D02*
X194876238Y-144811771D01*
X194876238Y-144811771D02*
X194685762Y-144811771D01*
X194685762Y-144811771D02*
X194590524Y-144859390D01*
X194590524Y-144859390D02*
X194542905Y-144907009D01*
X194542905Y-144907009D02*
X194495286Y-145002247D01*
D12*
X61614895Y-152995832D02*
X61233942Y-153262499D01*
X61614895Y-153452975D02*
X60814895Y-153452975D01*
X60814895Y-153452975D02*
X60814895Y-153148213D01*
X60814895Y-153148213D02*
X60852990Y-153072023D01*
X60852990Y-153072023D02*
X60891085Y-153033928D01*
X60891085Y-153033928D02*
X60967276Y-152995832D01*
X60967276Y-152995832D02*
X61081561Y-152995832D01*
X61081561Y-152995832D02*
X61157752Y-153033928D01*
X61157752Y-153033928D02*
X61195847Y-153072023D01*
X61195847Y-153072023D02*
X61233942Y-153148213D01*
X61233942Y-153148213D02*
X61233942Y-153452975D01*
X61614895Y-152614880D02*
X61614895Y-152462499D01*
X61614895Y-152462499D02*
X61576800Y-152386309D01*
X61576800Y-152386309D02*
X61538704Y-152348213D01*
X61538704Y-152348213D02*
X61424419Y-152272023D01*
X61424419Y-152272023D02*
X61272038Y-152233928D01*
X61272038Y-152233928D02*
X60967276Y-152233928D01*
X60967276Y-152233928D02*
X60891085Y-152272023D01*
X60891085Y-152272023D02*
X60852990Y-152310118D01*
X60852990Y-152310118D02*
X60814895Y-152386309D01*
X60814895Y-152386309D02*
X60814895Y-152538690D01*
X60814895Y-152538690D02*
X60852990Y-152614880D01*
X60852990Y-152614880D02*
X60891085Y-152652975D01*
X60891085Y-152652975D02*
X60967276Y-152691071D01*
X60967276Y-152691071D02*
X61157752Y-152691071D01*
X61157752Y-152691071D02*
X61233942Y-152652975D01*
X61233942Y-152652975D02*
X61272038Y-152614880D01*
X61272038Y-152614880D02*
X61310133Y-152538690D01*
X61310133Y-152538690D02*
X61310133Y-152386309D01*
X61310133Y-152386309D02*
X61272038Y-152310118D01*
X61272038Y-152310118D02*
X61233942Y-152272023D01*
X61233942Y-152272023D02*
X61157752Y-152233928D01*
D10*
X102383819Y-44354894D02*
X101383819Y-44354894D01*
X101383819Y-44354894D02*
X101383819Y-44116799D01*
X101383819Y-44116799D02*
X101431438Y-43973942D01*
X101431438Y-43973942D02*
X101526676Y-43878704D01*
X101526676Y-43878704D02*
X101621914Y-43831085D01*
X101621914Y-43831085D02*
X101812390Y-43783466D01*
X101812390Y-43783466D02*
X101955247Y-43783466D01*
X101955247Y-43783466D02*
X102145723Y-43831085D01*
X102145723Y-43831085D02*
X102240961Y-43878704D01*
X102240961Y-43878704D02*
X102336200Y-43973942D01*
X102336200Y-43973942D02*
X102383819Y-44116799D01*
X102383819Y-44116799D02*
X102383819Y-44354894D01*
X102383819Y-42831085D02*
X102383819Y-43402513D01*
X102383819Y-43116799D02*
X101383819Y-43116799D01*
X101383819Y-43116799D02*
X101526676Y-43212037D01*
X101526676Y-43212037D02*
X101621914Y-43307275D01*
X101621914Y-43307275D02*
X101669533Y-43402513D01*
%TO.C,U3*%
D13*
X216870000Y-160760000D02*
X146870000Y-160760000D01*
X146870000Y-27420000D01*
X216870000Y-27420000D01*
X216870000Y-160760000D01*
%TO.C,R15*%
X99327500Y-60062742D02*
X99327500Y-60537258D01*
X100372500Y-60062742D02*
X100372500Y-60537258D01*
%TO.C,C15*%
X197371000Y-131380420D02*
X197371000Y-131661580D01*
X198391000Y-131380420D02*
X198391000Y-131661580D01*
%TO.C,J3*%
X189890000Y-150490000D02*
X189890000Y-163310000D01*
X189890000Y-163310000D02*
X200110000Y-163310000D01*
X191000000Y-156000000D02*
X189890000Y-156000000D01*
X191000000Y-159410000D02*
X191000000Y-156000000D01*
X191000000Y-161010000D02*
X193400000Y-161010000D01*
X191000000Y-163310000D02*
X191000000Y-161010000D01*
X191110000Y-150490000D02*
X189890000Y-150490000D01*
X191110000Y-153390000D02*
X191110000Y-150490000D01*
X191390000Y-153390000D02*
X191110000Y-153390000D01*
X192100000Y-152400000D02*
X192900000Y-152400000D01*
X192100000Y-156000000D02*
X192100000Y-159410000D01*
X192100000Y-159410000D02*
X191000000Y-159410000D01*
X192500000Y-152800000D02*
X192100000Y-152400000D01*
X192600000Y-156000000D02*
X192100000Y-156000000D01*
X192600000Y-161010000D02*
X192600000Y-156000000D01*
X192900000Y-152400000D02*
X192500000Y-152800000D01*
X194200000Y-157400000D02*
X195800000Y-157400000D01*
X194200000Y-159200000D02*
X194200000Y-157400000D01*
X195800000Y-157400000D02*
X195800000Y-159200000D01*
X195800000Y-159200000D02*
X194200000Y-159200000D01*
X196600000Y-161010000D02*
X199000000Y-161010000D01*
X197400000Y-156000000D02*
X197900000Y-156000000D01*
X197400000Y-161010000D02*
X197400000Y-156000000D01*
X197900000Y-156000000D02*
X197900000Y-159410000D01*
X197900000Y-159410000D02*
X199000000Y-159410000D01*
X198890000Y-150490000D02*
X198890000Y-153390000D01*
X198890000Y-153390000D02*
X198610000Y-153390000D01*
X199000000Y-156000000D02*
X200110000Y-156000000D01*
X199000000Y-159410000D02*
X199000000Y-156000000D01*
X199000000Y-161010000D02*
X199000000Y-163310000D01*
X200110000Y-150490000D02*
X198890000Y-150490000D01*
X200110000Y-163310000D02*
X200110000Y-150490000D01*
%TO.C,C5*%
X165921580Y-128886000D02*
X165640420Y-128886000D01*
X165921580Y-129906000D02*
X165640420Y-129906000D01*
%TO.C,for_PG1*%
X114403000Y-29610000D02*
X125903000Y-29610000D01*
X125903000Y-37160000D01*
X114403000Y-37160000D01*
X114403000Y-29610000D01*
%TO.C,C4*%
X165921580Y-127386000D02*
X165640420Y-127386000D01*
X165921580Y-128406000D02*
X165640420Y-128406000D01*
D12*
%TO.C,SW1*%
X78425000Y-147066250D02*
X78425000Y-157266250D01*
X79875000Y-147066250D02*
X78425000Y-147066250D01*
X79900000Y-157266250D02*
X78450000Y-157266250D01*
X83500000Y-157266250D02*
X82050000Y-157266250D01*
X83525000Y-147066250D02*
X82075000Y-147066250D01*
X83525000Y-147066250D02*
X83525000Y-157266250D01*
D13*
%TO.C,R3*%
X169014458Y-128880700D02*
X168539942Y-128880700D01*
X169014458Y-129925700D02*
X168539942Y-129925700D01*
%TO.C,D4*%
X62015000Y-156840000D02*
X62015000Y-159125000D01*
X63485000Y-156840000D02*
X62015000Y-156840000D01*
X63485000Y-159125000D02*
X63485000Y-156840000D01*
%TO.C,D2*%
X60515000Y-156877500D02*
X60515000Y-159162500D01*
X61985000Y-156877500D02*
X60515000Y-156877500D01*
X61985000Y-159162500D02*
X61985000Y-156877500D01*
%TO.C,R14*%
X119790258Y-56737500D02*
X119315742Y-56737500D01*
X119790258Y-57782500D02*
X119315742Y-57782500D01*
D12*
%TO.C,SW3*%
X67425000Y-147026250D02*
X67425000Y-157226250D01*
X68875000Y-147026250D02*
X67425000Y-147026250D01*
X68900000Y-157226250D02*
X67450000Y-157226250D01*
X72500000Y-157226250D02*
X71050000Y-157226250D01*
X72525000Y-147026250D02*
X71075000Y-147026250D01*
X72525000Y-147026250D02*
X72525000Y-157226250D01*
D13*
%TO.C,C12*%
X185421580Y-125736000D02*
X185140420Y-125736000D01*
X185421580Y-126756000D02*
X185140420Y-126756000D01*
%TO.C,C7*%
X177871000Y-140661580D02*
X177871000Y-140380420D01*
X178891000Y-140661580D02*
X178891000Y-140380420D01*
%TO.C,C6*%
X177871000Y-131530420D02*
X177871000Y-131811580D01*
X178891000Y-131530420D02*
X178891000Y-131811580D01*
%TO.C,C16*%
X197371000Y-140511580D02*
X197371000Y-140230420D01*
X198391000Y-140511580D02*
X198391000Y-140230420D01*
%TO.C,J4*%
X135900000Y-82290000D02*
X137230000Y-82290000D01*
X135900000Y-83620000D02*
X135900000Y-82290000D01*
X135900000Y-84890000D02*
X135900000Y-133210000D01*
X135900000Y-84890000D02*
X138500000Y-84890000D01*
X135900000Y-133210000D02*
X141100000Y-133210000D01*
X138500000Y-82290000D02*
X141100000Y-82290000D01*
X138500000Y-84890000D02*
X138500000Y-82290000D01*
X141100000Y-82290000D02*
X141100000Y-133210000D01*
D12*
X86000000Y-75250000D02*
X142000000Y-75250000D01*
X142000000Y-160250000D01*
X86000000Y-160250000D01*
X86000000Y-75250000D01*
X86000000Y-139750000D02*
X106000000Y-139750000D01*
X106000000Y-163150000D01*
X86000000Y-163150000D01*
X86000000Y-139750000D01*
D13*
%TO.C,D3*%
X63515000Y-156877500D02*
X63515000Y-159162500D01*
X64985000Y-156877500D02*
X63515000Y-156877500D01*
X64985000Y-159162500D02*
X64985000Y-156877500D01*
%TO.C,Q2*%
X87900000Y-63550000D02*
X94320000Y-63550000D01*
X87900000Y-70450000D02*
X94320000Y-70450000D01*
X94320000Y-63550000D02*
X94320000Y-63820000D01*
X94320000Y-63820000D02*
X95420000Y-63820000D01*
X94320000Y-70180000D02*
X97150000Y-70180000D01*
X94320000Y-70450000D02*
X94320000Y-70180000D01*
%TO.C,FB3*%
X179421000Y-132333122D02*
X179421000Y-131533878D01*
X180541000Y-132333122D02*
X180541000Y-131533878D01*
%TO.C,J2*%
X168590000Y-150490000D02*
X168590000Y-163310000D01*
X168590000Y-163310000D02*
X178810000Y-163310000D01*
X169700000Y-156000000D02*
X168590000Y-156000000D01*
X169700000Y-159410000D02*
X169700000Y-156000000D01*
X169700000Y-161010000D02*
X172100000Y-161010000D01*
X169700000Y-163310000D02*
X169700000Y-161010000D01*
X169810000Y-150490000D02*
X168590000Y-150490000D01*
X169810000Y-153390000D02*
X169810000Y-150490000D01*
X170090000Y-153390000D02*
X169810000Y-153390000D01*
X170800000Y-152400000D02*
X171600000Y-152400000D01*
X170800000Y-156000000D02*
X170800000Y-159410000D01*
X170800000Y-159410000D02*
X169700000Y-159410000D01*
X171200000Y-152800000D02*
X170800000Y-152400000D01*
X171300000Y-156000000D02*
X170800000Y-156000000D01*
X171300000Y-161010000D02*
X171300000Y-156000000D01*
X171600000Y-152400000D02*
X171200000Y-152800000D01*
X172900000Y-157400000D02*
X174500000Y-157400000D01*
X172900000Y-159200000D02*
X172900000Y-157400000D01*
X174500000Y-157400000D02*
X174500000Y-159200000D01*
X174500000Y-159200000D02*
X172900000Y-159200000D01*
X175300000Y-161010000D02*
X177700000Y-161010000D01*
X176100000Y-156000000D02*
X176600000Y-156000000D01*
X176100000Y-161010000D02*
X176100000Y-156000000D01*
X176600000Y-156000000D02*
X176600000Y-159410000D01*
X176600000Y-159410000D02*
X177700000Y-159410000D01*
X177590000Y-150490000D02*
X177590000Y-153390000D01*
X177590000Y-153390000D02*
X177310000Y-153390000D01*
X177700000Y-156000000D02*
X178810000Y-156000000D01*
X177700000Y-159410000D02*
X177700000Y-156000000D01*
X177700000Y-161010000D02*
X177700000Y-163310000D01*
X178810000Y-150490000D02*
X177590000Y-150490000D01*
X178810000Y-163310000D02*
X178810000Y-150490000D01*
%TO.C,C2*%
X97840000Y-60159420D02*
X97840000Y-60440580D01*
X98860000Y-60159420D02*
X98860000Y-60440580D01*
%TO.C,J6*%
X177940000Y-121750000D02*
X177940000Y-120950000D01*
X177940000Y-121750000D02*
X177940000Y-122550000D01*
X181060000Y-121750000D02*
X181060000Y-120950000D01*
X181060000Y-121750000D02*
X181060000Y-122550000D01*
X177990000Y-123050000D02*
X177660000Y-123290000D01*
X177660000Y-122810000D01*
X177990000Y-123050000D01*
G36*
X177990000Y-123050000D02*
G01*
X177660000Y-123290000D01*
X177660000Y-122810000D01*
X177990000Y-123050000D01*
G37*
%TO.C,FB7*%
X188943122Y-125786000D02*
X188143878Y-125786000D01*
X188943122Y-126906000D02*
X188143878Y-126906000D01*
%TO.C,FB8*%
X198921000Y-132183122D02*
X198921000Y-131383878D01*
X200041000Y-132183122D02*
X200041000Y-131383878D01*
%TO.C,R7*%
X138512742Y-43227500D02*
X138987258Y-43227500D01*
X138512742Y-44272500D02*
X138987258Y-44272500D01*
%TO.C,R4*%
X175018258Y-143173500D02*
X174543742Y-143173500D01*
X175018258Y-144218500D02*
X174543742Y-144218500D01*
%TO.C,U1*%
X164471000Y-132236000D02*
X164706000Y-132236000D01*
X164471000Y-136096000D02*
X164471000Y-132236000D01*
X164471000Y-136096000D02*
X164471000Y-139956000D01*
X164471000Y-139956000D02*
X164706000Y-139956000D01*
X177256000Y-132236000D02*
X177256000Y-130421000D01*
X177491000Y-132236000D02*
X177256000Y-132236000D01*
X177491000Y-136096000D02*
X177491000Y-132236000D01*
X177491000Y-136096000D02*
X177491000Y-139956000D01*
X177491000Y-139956000D02*
X177256000Y-139956000D01*
%TO.C,to_STM1*%
X114403000Y-38060000D02*
X142903000Y-38060000D01*
X142903000Y-54060000D01*
X114403000Y-54060000D01*
X114403000Y-38060000D01*
%TO.C,C18*%
X198871000Y-140511580D02*
X198871000Y-140230420D01*
X199891000Y-140511580D02*
X199891000Y-140230420D01*
%TO.C,R10*%
X63727500Y-155487258D02*
X63727500Y-155012742D01*
X64772500Y-155487258D02*
X64772500Y-155012742D01*
%TO.C,to_RPI1*%
X114403000Y-55660000D02*
X142903000Y-55660000D01*
X142903000Y-71660000D01*
X114403000Y-71660000D01*
X114403000Y-55660000D01*
%TO.C,C20*%
X185421580Y-145136000D02*
X185140420Y-145136000D01*
X185421580Y-146156000D02*
X185140420Y-146156000D01*
%TO.C,R12*%
X102327500Y-63337258D02*
X102327500Y-62862742D01*
X103372500Y-63337258D02*
X103372500Y-62862742D01*
%TO.C,C10*%
X165921580Y-143786000D02*
X165640420Y-143786000D01*
X165921580Y-144806000D02*
X165640420Y-144806000D01*
%TO.C,R1*%
X98612742Y-55077500D02*
X99087258Y-55077500D01*
X98612742Y-56122500D02*
X99087258Y-56122500D01*
%TO.C,FB5*%
X165643878Y-146836000D02*
X166443122Y-146836000D01*
X165643878Y-147956000D02*
X166443122Y-147956000D01*
%TO.C,C14*%
X185421580Y-128736000D02*
X185140420Y-128736000D01*
X185421580Y-129756000D02*
X185140420Y-129756000D01*
%TO.C,FB6*%
X185943122Y-124086000D02*
X185143878Y-124086000D01*
X185943122Y-125206000D02*
X185143878Y-125206000D01*
%TO.C,FB10*%
X185143878Y-146686000D02*
X185943122Y-146686000D01*
X185143878Y-147806000D02*
X185943122Y-147806000D01*
%TO.C,FB4*%
X168643878Y-145136000D02*
X169443122Y-145136000D01*
X168643878Y-146256000D02*
X169443122Y-146256000D01*
%TO.C,Q1*%
X87900000Y-56550000D02*
X94320000Y-56550000D01*
X87900000Y-63450000D02*
X94320000Y-63450000D01*
X94320000Y-56550000D02*
X94320000Y-56820000D01*
X94320000Y-56820000D02*
X95420000Y-56820000D01*
X94320000Y-63180000D02*
X97150000Y-63180000D01*
X94320000Y-63450000D02*
X94320000Y-63180000D01*
%TO.C,C9*%
X179371000Y-140661580D02*
X179371000Y-140380420D01*
X180391000Y-140661580D02*
X180391000Y-140380420D01*
%TO.C,C17*%
X185421580Y-142136000D02*
X185140420Y-142136000D01*
X185421580Y-143156000D02*
X185140420Y-143156000D01*
%TO.C,C8*%
X165921580Y-142286000D02*
X165640420Y-142286000D01*
X165921580Y-143306000D02*
X165640420Y-143306000D01*
%TO.C,R5*%
X188508458Y-128753700D02*
X188033942Y-128753700D01*
X188508458Y-129798700D02*
X188033942Y-129798700D01*
D12*
%TO.C,SW2*%
X72925000Y-147066250D02*
X72925000Y-157266250D01*
X74375000Y-147066250D02*
X72925000Y-147066250D01*
X74400000Y-157266250D02*
X72950000Y-157266250D01*
X78000000Y-157266250D02*
X76550000Y-157266250D01*
X78025000Y-147066250D02*
X76575000Y-147066250D01*
X78025000Y-147066250D02*
X78025000Y-157266250D01*
D13*
%TO.C,C13*%
X185421580Y-127236000D02*
X185140420Y-127236000D01*
X185421580Y-128256000D02*
X185140420Y-128256000D01*
%TO.C,J5*%
X74940000Y-140250000D02*
X74940000Y-139450000D01*
X74940000Y-140250000D02*
X74940000Y-141050000D01*
X78060000Y-140250000D02*
X78060000Y-139450000D01*
X78060000Y-140250000D02*
X78060000Y-141050000D01*
X78340000Y-139190000D02*
X78010000Y-138950000D01*
X78340000Y-138710000D01*
X78340000Y-139190000D01*
G36*
X78340000Y-139190000D02*
G01*
X78010000Y-138950000D01*
X78340000Y-138710000D01*
X78340000Y-139190000D01*
G37*
%TO.C,C11*%
X165921580Y-145286000D02*
X165640420Y-145286000D01*
X165921580Y-146306000D02*
X165640420Y-146306000D01*
%TO.C,C1*%
X98205759Y-66697000D02*
X98835759Y-66697000D01*
X98520759Y-66382000D02*
X98520759Y-67012000D01*
X101706000Y-65306000D02*
X101706000Y-71766000D01*
X101746000Y-65306000D02*
X101746000Y-71766000D01*
X101786000Y-65306000D02*
X101786000Y-71766000D01*
X101826000Y-65308000D02*
X101826000Y-71764000D01*
X101866000Y-65309000D02*
X101866000Y-71763000D01*
X101906000Y-65312000D02*
X101906000Y-71760000D01*
X101946000Y-65314000D02*
X101946000Y-67496000D01*
X101946000Y-69576000D02*
X101946000Y-71758000D01*
X101986000Y-65318000D02*
X101986000Y-67496000D01*
X101986000Y-69576000D02*
X101986000Y-71754000D01*
X102026000Y-65321000D02*
X102026000Y-67496000D01*
X102026000Y-69576000D02*
X102026000Y-71751000D01*
X102066000Y-65325000D02*
X102066000Y-67496000D01*
X102066000Y-69576000D02*
X102066000Y-71747000D01*
X102106000Y-65330000D02*
X102106000Y-67496000D01*
X102106000Y-69576000D02*
X102106000Y-71742000D01*
X102146000Y-65335000D02*
X102146000Y-67496000D01*
X102146000Y-69576000D02*
X102146000Y-71737000D01*
X102186000Y-65341000D02*
X102186000Y-67496000D01*
X102186000Y-69576000D02*
X102186000Y-71731000D01*
X102226000Y-65347000D02*
X102226000Y-67496000D01*
X102226000Y-69576000D02*
X102226000Y-71725000D01*
X102266000Y-65354000D02*
X102266000Y-67496000D01*
X102266000Y-69576000D02*
X102266000Y-71718000D01*
X102306000Y-65361000D02*
X102306000Y-67496000D01*
X102306000Y-69576000D02*
X102306000Y-71711000D01*
X102346000Y-65369000D02*
X102346000Y-67496000D01*
X102346000Y-69576000D02*
X102346000Y-71703000D01*
X102386000Y-65377000D02*
X102386000Y-67496000D01*
X102386000Y-69576000D02*
X102386000Y-71695000D01*
X102427000Y-65386000D02*
X102427000Y-67496000D01*
X102427000Y-69576000D02*
X102427000Y-71686000D01*
X102467000Y-65395000D02*
X102467000Y-67496000D01*
X102467000Y-69576000D02*
X102467000Y-71677000D01*
X102507000Y-65405000D02*
X102507000Y-67496000D01*
X102507000Y-69576000D02*
X102507000Y-71667000D01*
X102547000Y-65415000D02*
X102547000Y-67496000D01*
X102547000Y-69576000D02*
X102547000Y-71657000D01*
X102587000Y-65426000D02*
X102587000Y-67496000D01*
X102587000Y-69576000D02*
X102587000Y-71646000D01*
X102627000Y-65438000D02*
X102627000Y-67496000D01*
X102627000Y-69576000D02*
X102627000Y-71634000D01*
X102667000Y-65450000D02*
X102667000Y-67496000D01*
X102667000Y-69576000D02*
X102667000Y-71622000D01*
X102707000Y-65462000D02*
X102707000Y-67496000D01*
X102707000Y-69576000D02*
X102707000Y-71610000D01*
X102747000Y-65475000D02*
X102747000Y-67496000D01*
X102747000Y-69576000D02*
X102747000Y-71597000D01*
X102787000Y-65489000D02*
X102787000Y-67496000D01*
X102787000Y-69576000D02*
X102787000Y-71583000D01*
X102827000Y-65503000D02*
X102827000Y-67496000D01*
X102827000Y-69576000D02*
X102827000Y-71569000D01*
X102867000Y-65518000D02*
X102867000Y-67496000D01*
X102867000Y-69576000D02*
X102867000Y-71554000D01*
X102907000Y-65534000D02*
X102907000Y-67496000D01*
X102907000Y-69576000D02*
X102907000Y-71538000D01*
X102947000Y-65550000D02*
X102947000Y-67496000D01*
X102947000Y-69576000D02*
X102947000Y-71522000D01*
X102987000Y-65566000D02*
X102987000Y-67496000D01*
X102987000Y-69576000D02*
X102987000Y-71506000D01*
X103027000Y-65584000D02*
X103027000Y-67496000D01*
X103027000Y-69576000D02*
X103027000Y-71488000D01*
X103067000Y-65602000D02*
X103067000Y-67496000D01*
X103067000Y-69576000D02*
X103067000Y-71470000D01*
X103107000Y-65620000D02*
X103107000Y-67496000D01*
X103107000Y-69576000D02*
X103107000Y-71452000D01*
X103147000Y-65640000D02*
X103147000Y-67496000D01*
X103147000Y-69576000D02*
X103147000Y-71432000D01*
X103187000Y-65660000D02*
X103187000Y-67496000D01*
X103187000Y-69576000D02*
X103187000Y-71412000D01*
X103227000Y-65680000D02*
X103227000Y-67496000D01*
X103227000Y-69576000D02*
X103227000Y-71392000D01*
X103267000Y-65702000D02*
X103267000Y-67496000D01*
X103267000Y-69576000D02*
X103267000Y-71370000D01*
X103307000Y-65724000D02*
X103307000Y-67496000D01*
X103307000Y-69576000D02*
X103307000Y-71348000D01*
X103347000Y-65746000D02*
X103347000Y-67496000D01*
X103347000Y-69576000D02*
X103347000Y-71326000D01*
X103387000Y-65770000D02*
X103387000Y-67496000D01*
X103387000Y-69576000D02*
X103387000Y-71302000D01*
X103427000Y-65794000D02*
X103427000Y-67496000D01*
X103427000Y-69576000D02*
X103427000Y-71278000D01*
X103467000Y-65820000D02*
X103467000Y-67496000D01*
X103467000Y-69576000D02*
X103467000Y-71252000D01*
X103507000Y-65846000D02*
X103507000Y-67496000D01*
X103507000Y-69576000D02*
X103507000Y-71226000D01*
X103547000Y-65872000D02*
X103547000Y-67496000D01*
X103547000Y-69576000D02*
X103547000Y-71200000D01*
X103587000Y-65900000D02*
X103587000Y-67496000D01*
X103587000Y-69576000D02*
X103587000Y-71172000D01*
X103627000Y-65929000D02*
X103627000Y-67496000D01*
X103627000Y-69576000D02*
X103627000Y-71143000D01*
X103667000Y-65958000D02*
X103667000Y-67496000D01*
X103667000Y-69576000D02*
X103667000Y-71114000D01*
X103707000Y-65988000D02*
X103707000Y-67496000D01*
X103707000Y-69576000D02*
X103707000Y-71084000D01*
X103747000Y-66020000D02*
X103747000Y-67496000D01*
X103747000Y-69576000D02*
X103747000Y-71052000D01*
X103787000Y-66052000D02*
X103787000Y-67496000D01*
X103787000Y-69576000D02*
X103787000Y-71020000D01*
X103827000Y-66086000D02*
X103827000Y-67496000D01*
X103827000Y-69576000D02*
X103827000Y-70986000D01*
X103867000Y-66120000D02*
X103867000Y-67496000D01*
X103867000Y-69576000D02*
X103867000Y-70952000D01*
X103907000Y-66156000D02*
X103907000Y-67496000D01*
X103907000Y-69576000D02*
X103907000Y-70916000D01*
X103947000Y-66193000D02*
X103947000Y-67496000D01*
X103947000Y-69576000D02*
X103947000Y-70879000D01*
X103987000Y-66231000D02*
X103987000Y-67496000D01*
X103987000Y-69576000D02*
X103987000Y-70841000D01*
X104027000Y-66271000D02*
X104027000Y-70801000D01*
X104067000Y-66312000D02*
X104067000Y-70760000D01*
X104107000Y-66354000D02*
X104107000Y-70718000D01*
X104147000Y-66399000D02*
X104147000Y-70673000D01*
X104187000Y-66444000D02*
X104187000Y-70628000D01*
X104227000Y-66492000D02*
X104227000Y-70580000D01*
X104267000Y-66541000D02*
X104267000Y-70531000D01*
X104307000Y-66592000D02*
X104307000Y-70480000D01*
X104347000Y-66646000D02*
X104347000Y-70426000D01*
X104387000Y-66702000D02*
X104387000Y-70370000D01*
X104427000Y-66760000D02*
X104427000Y-70312000D01*
X104467000Y-66822000D02*
X104467000Y-70250000D01*
X104507000Y-66886000D02*
X104507000Y-70186000D01*
X104547000Y-66955000D02*
X104547000Y-70117000D01*
X104587000Y-67027000D02*
X104587000Y-70045000D01*
X104627000Y-67104000D02*
X104627000Y-69968000D01*
X104667000Y-67186000D02*
X104667000Y-69886000D01*
X104707000Y-67274000D02*
X104707000Y-69798000D01*
X104747000Y-67371000D02*
X104747000Y-69701000D01*
X104787000Y-67477000D02*
X104787000Y-69595000D01*
X104827000Y-67596000D02*
X104827000Y-69476000D01*
X104867000Y-67734000D02*
X104867000Y-69338000D01*
X104907000Y-67903000D02*
X104907000Y-69169000D01*
X104947000Y-68134000D02*
X104947000Y-68938000D01*
X104976000Y-68536000D02*
G75*
G02*
X98436000Y-68536000I-3270000J0D01*
G01*
X98436000Y-68536000D02*
G75*
G02*
X104976000Y-68536000I3270000J0D01*
G01*
%TO.C,R2*%
X100827500Y-60537258D02*
X100827500Y-60062742D01*
X101872500Y-60537258D02*
X101872500Y-60062742D01*
%TO.C,R13*%
X119890258Y-39227500D02*
X119415742Y-39227500D01*
X119890258Y-40272500D02*
X119415742Y-40272500D01*
%TO.C,C19*%
X185421580Y-143636000D02*
X185140420Y-143636000D01*
X185421580Y-144656000D02*
X185140420Y-144656000D01*
%TO.C,J7*%
X194190000Y-121750000D02*
X194190000Y-120950000D01*
X194190000Y-121750000D02*
X194190000Y-122550000D01*
X197310000Y-121750000D02*
X197310000Y-120950000D01*
X197310000Y-121750000D02*
X197310000Y-122550000D01*
X194240000Y-123050000D02*
X193910000Y-123290000D01*
X193910000Y-122810000D01*
X194240000Y-123050000D01*
G36*
X194240000Y-123050000D02*
G01*
X193910000Y-123290000D01*
X193910000Y-122810000D01*
X194240000Y-123050000D01*
G37*
%TO.C,U2*%
X183971000Y-132086000D02*
X184206000Y-132086000D01*
X183971000Y-135946000D02*
X183971000Y-132086000D01*
X183971000Y-135946000D02*
X183971000Y-139806000D01*
X183971000Y-139806000D02*
X184206000Y-139806000D01*
X196756000Y-132086000D02*
X196756000Y-130271000D01*
X196991000Y-132086000D02*
X196756000Y-132086000D01*
X196991000Y-135946000D02*
X196991000Y-132086000D01*
X196991000Y-135946000D02*
X196991000Y-139806000D01*
X196991000Y-139806000D02*
X196756000Y-139806000D01*
%TO.C,C3*%
X165921580Y-125886000D02*
X165640420Y-125886000D01*
X165921580Y-126906000D02*
X165640420Y-126906000D01*
%TO.C,FB1*%
X166443122Y-124236000D02*
X165643878Y-124236000D01*
X166443122Y-125356000D02*
X165643878Y-125356000D01*
%TO.C,R8*%
X138512742Y-41727500D02*
X138987258Y-41727500D01*
X138512742Y-42772500D02*
X138987258Y-42772500D01*
%TO.C,U4*%
X125017500Y-40336500D02*
X125017500Y-40564000D01*
X125017500Y-52071500D02*
X125017500Y-51844000D01*
X128875000Y-40336500D02*
X125017500Y-40336500D01*
X128875000Y-40336500D02*
X132732500Y-40336500D01*
X128875000Y-52071500D02*
X125017500Y-52071500D01*
X128875000Y-52071500D02*
X132732500Y-52071500D01*
X132732500Y-40336500D02*
X132732500Y-40564000D01*
X132732500Y-52071500D02*
X132732500Y-51844000D01*
X133926250Y-52314000D02*
X133246250Y-52314000D01*
X133586250Y-51844000D01*
X133926250Y-52314000D01*
G36*
X133926250Y-52314000D02*
G01*
X133246250Y-52314000D01*
X133586250Y-51844000D01*
X133926250Y-52314000D01*
G37*
%TO.C,R11*%
X62227500Y-155487258D02*
X62227500Y-155012742D01*
X63272500Y-155487258D02*
X63272500Y-155012742D01*
%TO.C,FB2*%
X169418122Y-125936000D02*
X168618878Y-125936000D01*
X169418122Y-127056000D02*
X168618878Y-127056000D01*
%TO.C,FB9*%
X188143878Y-144986000D02*
X188943122Y-144986000D01*
X188143878Y-146106000D02*
X188943122Y-146106000D01*
%TO.C,J1*%
X79690000Y-36740000D02*
X94000000Y-36740000D01*
X79690000Y-52460000D02*
X79690000Y-36740000D01*
X79690000Y-52460000D02*
X94000000Y-52460000D01*
X98110000Y-45890000D02*
X98110000Y-42150000D01*
X94000000Y-36740000D02*
G75*
G02*
X97930413Y-39648352I0J-4110000D01*
G01*
X97522958Y-50466806D02*
G75*
G02*
X94000000Y-52460000I-3522957J2116805D01*
G01*
%TO.C,R6*%
X194518258Y-143023500D02*
X194043742Y-143023500D01*
X194518258Y-144068500D02*
X194043742Y-144068500D01*
%TO.C,R9*%
X60727500Y-155487258D02*
X60727500Y-155012742D01*
X61772500Y-155487258D02*
X61772500Y-155012742D01*
%TO.C,D1*%
X98929000Y-41256800D02*
X98929000Y-45266800D01*
X100929000Y-41256800D02*
X98929000Y-41256800D01*
X100929000Y-41256800D02*
X100929000Y-45266800D01*
%TD*%
M02*
