M48
; DRILL file {KiCad 9.0.2} date 2025-09-29T11:38:25+0900
; FORMAT={-:-/ absolute / metric / decimal}
; #@! TF.CreationDate,2025-09-29T11:38:25+09:00
; #@! TF.GenerationSoftware,Kicad,Pcbnew,9.0.2
; #@! TF.FileFunction,Plated,1,2,PTH
FMAT,2
METRIC
; #@! TA.AperFunction,Plated,PTH,ViaDrill
T1C0.400
; #@! TA.AperFunction,Plated,PTH,ComponentDrill
T2C0.600
; #@! TA.AperFunction,Plated,PTH,ComponentDrill
T3C0.800
; #@! TA.AperFunction,Plated,PTH,ComponentDrill
T4C0.900
; #@! TA.AperFunction,Plated,PTH,ComponentDrill
T5C0.950
; #@! TA.AperFunction,Plated,PTH,ComponentDrill
T6C1.000
; #@! TA.AperFunction,Plated,PTH,ComponentDrill
T7C1.100
; #@! TA.AperFunction,Plated,PTH,ComponentDrill
T8C2.700
%
G90
G05
T1
X58.0Y-156.75
X59.5Y-143.5
X60.25Y-153.5
X60.25Y-160.5
X63.5Y-151.5
X64.25Y-161.5
X65.25Y-141.25
X65.25Y-153.5
X65.5Y-158.25
X68.25Y-149.0
X68.25Y-155.75
X68.5Y-158.75
X70.25Y-144.75
X70.75Y-139.0
X70.75Y-161.5
X71.25Y-130.75
X71.25Y-156.0
X71.25Y-158.5
X72.0Y-151.5
X72.75Y-140.75
X73.25Y-146.25
X74.0Y-151.0
X74.0Y-153.5
X74.414Y-139.664
X74.5Y-158.75
X75.25Y-145.25
X75.75Y-143.25
X76.75Y-156.0
X76.75Y-158.75
X77.0Y-123.75
X77.25Y-132.5
X77.25Y-153.0
X78.25Y-148.75
X78.5Y-158.75
X78.75Y-144.0
X79.0Y-161.5
X79.5Y-146.0
X79.75Y-137.75
X79.75Y-150.75
X79.75Y-160.725
X80.25Y-154.0
X82.5Y-73.75
X82.5Y-150.75
X82.5Y-161.25
X82.75Y-54.75
X82.75Y-156.5
X83.25Y-115.75
X83.25Y-126.75
X83.25Y-159.275
X83.5Y-87.25
X83.5Y-104.5
X84.0Y-40.5
X84.25Y-133.5
X84.5Y-159.0
X84.75Y-139.25
X85.0Y-160.75
X85.25Y-63.75
X86.25Y-153.0
X86.5Y-144.5
X86.5Y-148.5
X87.0Y-155.5
X87.5Y-52.25
X88.5Y-161.5
X88.75Y-82.25
X89.0Y-110.75
X89.25Y-46.5
X89.25Y-120.25
X89.75Y-71.5
X89.75Y-94.25
X90.0Y-127.5
X90.25Y-141.0
X90.75Y-159.0
X92.0Y-150.25
X92.5Y-146.5
X92.75Y-41.0
X92.75Y-56.25
X92.75Y-131.5
X92.75Y-142.0
X92.75Y-156.25
X93.25Y-159.5
X94.0Y-69.25
X94.5Y-150.75
X94.75Y-136.75
X94.75Y-147.5
X94.75Y-161.5
X95.25Y-113.75
X95.25Y-127.0
X95.5Y-71.75
X95.5Y-82.0
X95.5Y-96.25
X95.5Y-104.5
X95.5Y-121.5
X95.75Y-129.75
X96.0Y-32.25
X96.25Y-142.75
X96.5Y-138.25
X97.5Y-144.75
X98.25Y-150.75
X98.25Y-156.25
X98.75Y-135.0
X99.0Y-111.0
X99.0Y-118.5
X99.0Y-128.0
X99.0Y-141.75
X99.125Y-46.375
X99.25Y-82.25
X99.25Y-103.5
X99.25Y-123.75
X99.5Y-71.75
X99.75Y-93.75
X100.75Y-55.5
X100.75Y-145.0
X101.25Y-29.5
X101.5Y-58.5
X102.25Y-161.25
X103.0Y-61.0
X104.75Y-105.25
X104.75Y-117.5
X104.75Y-153.0
X105.25Y-122.0
X105.5Y-83.0
X106.0Y-111.25
X106.0Y-132.5
X106.25Y-32.25
X106.25Y-92.5
X106.75Y-159.25
X107.75Y-146.5
X108.25Y-72.75
X109.25Y-161.25
X111.5Y-97.5
X111.75Y-105.5
X111.75Y-110.75
X112.25Y-114.5
X112.25Y-154.0
X113.0Y-77.5
X113.25Y-158.75
X113.5Y-86.25
X114.75Y-55.0
X116.0Y-136.25
X116.75Y-32.25
X116.75Y-122.25
X117.0Y-149.75
X117.25Y-41.0
X117.25Y-56.0
X117.25Y-72.5
X117.5Y-60.0
X117.75Y-99.75
X118.25Y-153.5
X118.5Y-91.75
X119.0Y-42.5
X119.0Y-45.25
X119.0Y-50.25
X119.0Y-54.75
X119.0Y-104.0
X119.25Y-159.75
X119.5Y-38.75
X119.5Y-58.25
X119.5Y-107.5
X121.25Y-36.75
X121.75Y-29.5
X121.75Y-41.0
X121.75Y-48.0
X121.75Y-55.75
X122.0Y-63.25
X122.25Y-145.25
X122.5Y-42.5
X122.5Y-45.0
X122.5Y-51.25
X122.973Y-91.25
X123.75Y-147.5
X124.0Y-39.0
X124.0Y-90.0
X124.25Y-33.75
X124.25Y-92.5
X124.5Y-76.25
X124.5Y-85.5
X124.5Y-98.0
X124.5Y-156.25
X125.75Y-42.5
X125.75Y-43.75
X125.75Y-48.0
X125.75Y-51.75
X126.0Y-41.25
X126.0Y-100.5
X126.25Y-127.0
X126.5Y-44.75
X126.5Y-139.75
X126.75Y-114.0
X127.25Y-86.75
X127.5Y-90.25
X128.75Y-59.5
X129.0Y-49.75
X129.0Y-80.25
X129.25Y-69.25
X129.5Y-43.5
X130.0Y-141.5
X130.25Y-92.5
X130.25Y-135.75
X131.25Y-82.75
X132.0Y-30.75
X132.25Y-149.5
X132.5Y-52.5
X132.5Y-58.5
X132.5Y-63.75
X132.5Y-70.0
X132.5Y-75.5
X132.5Y-90.0
X132.75Y-85.25
X133.5Y-92.5
X133.75Y-159.25
X134.0Y-40.0
X135.0Y-132.5
X135.25Y-87.0
X135.25Y-107.5
X135.25Y-120.25
X135.5Y-45.25
X135.5Y-100.0
X135.75Y-50.5
X135.75Y-90.0
X137.5Y-81.75
X139.25Y-48.75
X139.25Y-55.75
X139.25Y-65.75
X139.25Y-76.75
X139.25Y-143.75
X139.5Y-70.75
X139.5Y-153.0
X139.75Y-45.0
X140.0Y-41.0
X141.5Y-129.75
X141.75Y-113.25
X142.25Y-93.5
X143.0Y-123.0
X144.0Y-117.25
X144.0Y-158.25
X144.25Y-30.75
X145.5Y-127.0
X146.25Y-63.0
X146.25Y-89.25
X146.25Y-136.0
X146.5Y-56.25
X146.75Y-107.25
X147.0Y-95.0
X147.0Y-119.0
X147.25Y-101.25
X148.25Y-113.0
X148.25Y-149.75
X148.5Y-141.75
X149.0Y-159.75
X150.5Y-130.75
X150.75Y-115.25
X151.25Y-89.0
X151.5Y-37.75
X151.75Y-56.0
X151.75Y-63.0
X151.75Y-97.0
X152.0Y-107.25
X152.25Y-120.0
X153.5Y-78.5
X153.75Y-65.0
X154.0Y-45.25
X154.0Y-54.75
X154.25Y-50.25
X154.25Y-89.25
X154.25Y-97.0
X154.25Y-103.5
X154.25Y-111.25
X155.5Y-125.75
X155.5Y-137.5
X155.75Y-144.0
X156.0Y-154.25
X156.25Y-84.5
X157.25Y-131.0
X157.75Y-30.75
X158.75Y-59.0
X161.75Y-111.5
X161.75Y-116.25
X161.75Y-124.0
X162.0Y-35.75
X162.25Y-104.5
X162.25Y-152.75
X162.5Y-74.5
X162.5Y-89.0
X162.5Y-135.5
X162.5Y-146.0
X162.75Y-126.713
X162.75Y-140.5
X162.75Y-159.75
X162.812Y-124.438
X163.5Y-51.25
X163.75Y-128.5
X164.0Y-131.25
X164.0Y-140.25
X164.0Y-148.5
X164.0Y-153.75
X164.0Y-159.25
X164.75Y-135.0
X165.75Y-101.5
X166.0Y-60.0
X166.0Y-133.5
X167.0Y-136.75
X167.25Y-150.5
X167.25Y-156.5
X167.75Y-161.25
X168.181Y-147.396
X168.25Y-41.75
X168.25Y-72.0
X168.281Y-124.796
X168.5Y-104.5
X168.75Y-81.25
X168.75Y-111.5
X168.75Y-142.75
X169.0Y-90.5
X169.0Y-97.25
X169.0Y-116.75
X170.25Y-102.5
X170.25Y-159.75
X170.281Y-133.196
X170.381Y-138.996
X170.75Y-29.75
X170.75Y-135.0
X170.981Y-129.446
X171.0Y-122.25
X171.0Y-143.25
X171.5Y-60.0
X171.5Y-66.25
X171.581Y-138.996
X172.846Y-145.696
X172.879Y-133.264
X172.886Y-139.001
X173.0Y-144.5
X173.0Y-147.0
X173.0Y-150.5
X174.5Y-50.75
X174.75Y-156.25
X174.981Y-129.446
X175.0Y-152.75
X175.25Y-128.25
X175.25Y-136.75
X175.426Y-133.246
X176.25Y-35.5
X176.746Y-145.696
X176.75Y-135.0
X176.75Y-147.0
X177.25Y-72.0
X177.25Y-82.0
X177.25Y-91.5
X177.25Y-110.75
X177.25Y-111.75
X177.5Y-65.5
X177.5Y-100.5
X177.5Y-109.25
X177.5Y-113.5
X177.75Y-118.5
X177.75Y-149.75
X178.0Y-161.25
X178.25Y-160.0
X178.381Y-133.496
X178.381Y-138.596
X178.5Y-124.25
X179.5Y-128.5
X181.25Y-117.5
X181.5Y-106.25
X181.5Y-113.25
X181.5Y-129.0
X181.5Y-133.0
X181.5Y-144.75
X181.75Y-96.25
X181.75Y-122.5
X182.0Y-74.0
X182.0Y-86.75
X182.0Y-137.25
X182.5Y-118.75
X182.5Y-151.0
X182.75Y-155.75
X183.5Y-127.0
X183.5Y-133.5
X184.0Y-29.75
X184.0Y-50.75
X184.25Y-134.75
X184.5Y-58.25
X186.0Y-42.5
X186.5Y-106.0
X186.75Y-118.5
X186.75Y-122.5
X187.0Y-133.5
X187.781Y-124.646
X187.781Y-147.246
X188.0Y-136.5
X188.0Y-159.75
X188.25Y-142.5
X188.5Y-70.25
X188.5Y-95.25
X188.5Y-161.25
X188.75Y-123.25
X188.78Y-122.22
X189.0Y-83.25
X189.25Y-125.0
X189.25Y-154.25
X189.5Y-149.75
X189.881Y-133.146
X189.881Y-138.846
X190.25Y-122.5
X190.311Y-128.946
X190.75Y-135.0
X190.75Y-143.0
X191.181Y-138.846
X191.75Y-64.0
X191.75Y-111.25
X192.0Y-126.75
X192.361Y-133.137
X192.381Y-138.846
X192.446Y-145.546
X192.5Y-144.25
X192.5Y-146.75
X192.5Y-149.75
X192.75Y-128.0
X193.25Y-158.75
X193.5Y-122.5
X194.75Y-124.25
X194.75Y-128.0
X194.901Y-133.112
X195.0Y-34.75
X195.25Y-91.5
X195.5Y-77.0
X195.5Y-103.25
X195.75Y-126.25
X195.75Y-137.0
X196.046Y-145.546
X196.25Y-135.0
X196.25Y-147.0
X196.25Y-152.75
X196.796Y-128.996
X197.25Y-155.75
X197.75Y-123.5
X197.881Y-133.446
X197.881Y-138.546
X198.0Y-161.5
X198.5Y-119.0
X198.5Y-129.25
X199.0Y-42.0
X199.546Y-134.046
X200.25Y-126.0
X200.25Y-143.25
X200.5Y-49.75
X200.75Y-135.0
X201.5Y-55.25
X201.5Y-110.0
X201.5Y-150.25
X201.75Y-61.75
X201.75Y-67.0
X201.75Y-72.25
X201.75Y-77.0
X201.75Y-87.25
X201.75Y-105.0
X201.75Y-122.0
X201.75Y-138.25
X201.75Y-159.75
X202.0Y-29.75
X202.0Y-92.25
X202.0Y-115.5
X203.0Y-161.25
X203.25Y-137.5
X203.5Y-145.0
X203.5Y-154.5
X204.75Y-97.75
X205.0Y-130.25
X207.5Y-135.75
X207.75Y-84.5
X207.75Y-112.5
X208.0Y-154.25
X208.25Y-145.0
X208.5Y-35.25
X208.75Y-160.5
X209.0Y-125.75
X209.25Y-41.25
X209.25Y-49.0
X209.25Y-61.5
X209.25Y-92.25
X209.25Y-99.75
X209.25Y-115.25
X209.5Y-77.0
X212.25Y-130.75
X214.25Y-29.75
X215.0Y-44.25
X215.0Y-54.0
X215.0Y-61.75
X215.0Y-75.0
X215.0Y-84.5
X215.0Y-94.75
X215.0Y-115.0
X215.0Y-125.5
X216.25Y-154.0
X216.5Y-144.5
X217.0Y-135.0
X218.0Y-161.0
X218.75Y-107.0
X219.0Y-45.75
X219.25Y-67.0
X219.5Y-87.75
X223.25Y-99.75
X223.25Y-128.5
X223.75Y-116.0
X223.75Y-140.75
X224.0Y-37.0
X224.25Y-56.5
X224.25Y-77.75
X224.5Y-151.75
T3
X100.456Y-68.536
X102.956Y-68.536
T4
X117.613Y-35.16
X120.153Y-35.16
X122.693Y-35.16
T5
X171.2Y-154.0
X173.7Y-154.0
X176.2Y-154.0
X192.5Y-154.0
X195.0Y-154.0
X197.5Y-154.0
T6
X115.673Y-39.71
X115.673Y-42.25
X115.673Y-44.79
X115.673Y-47.33
X115.673Y-49.87
X115.673Y-52.41
X115.673Y-57.31
X115.673Y-59.85
X115.673Y-62.39
X115.673Y-64.93
X115.673Y-67.47
X115.673Y-70.01
X137.23Y-83.62
X137.23Y-86.16
X137.23Y-88.7
X137.23Y-91.24
X137.23Y-93.78
X137.23Y-96.32
X137.23Y-98.86
X137.23Y-101.4
X137.23Y-103.94
X137.23Y-106.48
X137.23Y-109.02
X137.23Y-111.56
X137.23Y-114.1
X137.23Y-116.64
X137.23Y-119.18
X137.23Y-121.72
X137.23Y-124.26
X137.23Y-126.8
X137.23Y-129.34
X137.23Y-131.88
X139.77Y-83.62
X139.77Y-86.16
X139.77Y-88.7
X139.77Y-91.24
X139.77Y-93.78
X139.77Y-96.32
X139.77Y-98.86
X139.77Y-101.4
X139.77Y-103.94
X139.77Y-106.48
X139.77Y-109.02
X139.77Y-111.56
X139.77Y-114.1
X139.77Y-116.64
X139.77Y-119.18
X139.77Y-121.72
X139.77Y-124.26
X139.77Y-126.8
X139.77Y-129.34
X139.77Y-131.88
X141.633Y-39.71
X141.633Y-42.25
X141.633Y-44.79
X141.633Y-47.33
X141.633Y-49.87
X141.633Y-52.41
X141.633Y-57.31
X141.633Y-59.85
X141.633Y-62.39
X141.633Y-64.93
X141.633Y-67.47
X141.633Y-70.01
X157.74Y-60.54
X157.74Y-63.08
X157.74Y-65.62
X157.74Y-68.16
X157.74Y-70.7
X157.74Y-73.24
X157.74Y-75.78
X157.74Y-78.32
X157.74Y-80.86
X157.74Y-83.4
X157.74Y-85.94
X157.74Y-88.48
X157.74Y-91.02
X157.74Y-93.56
X157.74Y-96.1
X157.74Y-98.64
X157.74Y-101.18
X157.74Y-104.99
X157.74Y-107.53
X157.74Y-110.07
X157.74Y-112.61
X157.74Y-115.15
X157.74Y-117.69
X157.74Y-120.23
X157.74Y-122.77
X157.74Y-125.31
X157.74Y-127.85
X160.28Y-60.54
X160.28Y-63.08
X160.28Y-65.62
X160.28Y-68.16
X160.28Y-70.7
X160.28Y-73.24
X160.28Y-75.78
X160.28Y-78.32
X160.28Y-80.86
X160.28Y-83.4
X160.28Y-85.94
X160.28Y-88.48
X160.28Y-91.02
X160.28Y-93.56
X160.28Y-96.1
X160.28Y-98.64
X160.28Y-101.18
X160.28Y-104.99
X160.28Y-107.53
X160.28Y-110.07
X160.28Y-112.61
X160.28Y-115.15
X160.28Y-117.69
X160.28Y-120.23
X160.28Y-122.77
X160.28Y-125.31
X160.28Y-127.85
X203.46Y-60.54
X203.46Y-63.08
X203.46Y-65.62
X203.46Y-68.16
X203.46Y-70.7
X203.46Y-73.24
X203.46Y-75.78
X203.46Y-78.32
X203.46Y-80.86
X203.46Y-83.4
X203.46Y-85.94
X203.46Y-88.48
X203.46Y-91.02
X203.46Y-93.56
X203.46Y-96.1
X203.46Y-101.18
X203.46Y-103.72
X203.46Y-106.26
X203.46Y-108.8
X203.46Y-111.34
X203.46Y-113.88
X203.46Y-116.42
X203.46Y-118.96
X206.0Y-60.54
X206.0Y-63.08
X206.0Y-65.62
X206.0Y-68.16
X206.0Y-70.7
X206.0Y-73.24
X206.0Y-75.78
X206.0Y-78.32
X206.0Y-80.86
X206.0Y-83.4
X206.0Y-85.94
X206.0Y-88.48
X206.0Y-91.02
X206.0Y-93.56
X206.0Y-96.1
X206.0Y-101.18
X206.0Y-103.72
X206.0Y-106.26
X206.0Y-108.8
X206.0Y-111.34
X206.0Y-113.88
X206.0Y-116.42
X206.0Y-118.96
X210.83Y-42.76
X210.83Y-45.3
X210.83Y-47.84
X210.83Y-50.38
X210.83Y-52.92
X210.83Y-55.46
X210.83Y-58.0
X210.83Y-60.54
X210.83Y-63.08
X210.83Y-65.62
X210.83Y-68.16
X210.83Y-70.7
X210.83Y-73.24
X210.83Y-75.78
X210.83Y-78.32
X210.83Y-80.86
X210.83Y-83.4
X210.83Y-85.94
X210.83Y-88.48
X210.83Y-91.02
X210.83Y-93.56
X210.83Y-96.1
X210.83Y-98.64
X210.83Y-101.18
X210.83Y-103.72
X210.83Y-106.26
X210.83Y-108.8
X210.83Y-111.34
X210.83Y-113.88
X210.83Y-116.42
X210.83Y-118.96
X210.83Y-121.5
X210.83Y-124.04
X210.83Y-126.58
X210.83Y-129.12
X213.37Y-42.76
X213.37Y-45.3
X213.37Y-47.84
X213.37Y-50.38
X213.37Y-52.92
X213.37Y-55.46
X213.37Y-58.0
X213.37Y-60.54
X213.37Y-63.08
X213.37Y-65.62
X213.37Y-68.16
X213.37Y-70.7
X213.37Y-73.24
X213.37Y-75.78
X213.37Y-78.32
X213.37Y-80.86
X213.37Y-83.4
X213.37Y-85.94
X213.37Y-88.48
X213.37Y-91.02
X213.37Y-93.56
X213.37Y-96.1
X213.37Y-98.64
X213.37Y-101.18
X213.37Y-103.72
X213.37Y-106.26
X213.37Y-108.8
X213.37Y-111.34
X213.37Y-113.88
X213.37Y-116.42
X213.37Y-118.96
X213.37Y-121.5
X213.37Y-124.04
X213.37Y-126.58
X213.37Y-129.12
T7
X69.975Y-147.046
X69.975Y-149.586
X69.975Y-152.126
X69.975Y-157.206
X75.475Y-147.086
X75.475Y-149.626
X75.475Y-152.166
X75.475Y-157.246
X80.975Y-147.086
X80.975Y-149.626
X80.975Y-152.166
X80.975Y-157.246
T8
X96.15Y-41.0
X96.15Y-48.2
T2
G00X89.6Y-37.85
M15
G01X90.7Y-37.85
M16
G05
G00X89.6Y-51.35
M15
G01X90.7Y-51.35
M16
G05
M30
