%TF.GenerationSoftware,KiCad,Pcbnew,9.0.2*%
%TF.CreationDate,2025-09-29T11:38:53+09:00*%
%TF.ProjectId,RDC_Humanoid_Logic,5244435f-4875-46d6-916e-6f69645f4c6f,rev?*%
%TF.SameCoordinates,Original*%
%TF.FileFunction,Paste,Top*%
%TF.FilePolarity,Positive*%
%FSLAX46Y46*%
G04 Gerber Fmt 4.6, Leading zero omitted, Abs format (unit mm)*
G04 Created by KiCad (PCBNEW 9.0.2) date 2025-09-29 11:38:53*
%MOMM*%
%LPD*%
G01*
G04 APERTURE LIST*
G04 Aperture macros list*
%AMRoundRect*
0 Rectangle with rounded corners*
0 $1 Rounding radius*
0 $2 $3 $4 $5 $6 $7 $8 $9 X,Y pos of 4 corners*
0 Add a 4 corners polygon primitive as box body*
4,1,4,$2,$3,$4,$5,$6,$7,$8,$9,$2,$3,0*
0 Add four circle primitives for the rounded corners*
1,1,$1+$1,$2,$3*
1,1,$1+$1,$4,$5*
1,1,$1+$1,$6,$7*
1,1,$1+$1,$8,$9*
0 Add four rect primitives between the rounded corners*
20,1,$1+$1,$2,$3,$4,$5,0*
20,1,$1+$1,$4,$5,$6,$7,0*
20,1,$1+$1,$6,$7,$8,$9,0*
20,1,$1+$1,$8,$9,$2,$3,0*%
G04 Aperture macros list end*
%ADD10RoundRect,0.200000X-0.275000X0.200000X-0.275000X-0.200000X0.275000X-0.200000X0.275000X0.200000X0*%
%ADD11RoundRect,0.225000X-0.250000X0.225000X-0.250000X-0.225000X0.250000X-0.225000X0.250000X0.225000X0*%
%ADD12RoundRect,0.225000X0.225000X0.250000X-0.225000X0.250000X-0.225000X-0.250000X0.225000X-0.250000X0*%
%ADD13RoundRect,0.200000X0.200000X0.275000X-0.200000X0.275000X-0.200000X-0.275000X0.200000X-0.275000X0*%
%ADD14RoundRect,0.218750X-0.256250X0.218750X-0.256250X-0.218750X0.256250X-0.218750X0.256250X0.218750X0*%
%ADD15RoundRect,0.225000X0.250000X-0.225000X0.250000X0.225000X-0.250000X0.225000X-0.250000X-0.225000X0*%
%ADD16RoundRect,0.250000X0.850000X0.350000X-0.850000X0.350000X-0.850000X-0.350000X0.850000X-0.350000X0*%
%ADD17RoundRect,0.250000X1.275000X1.125000X-1.275000X1.125000X-1.275000X-1.125000X1.275000X-1.125000X0*%
%ADD18RoundRect,0.218750X0.381250X-0.218750X0.381250X0.218750X-0.381250X0.218750X-0.381250X-0.218750X0*%
%ADD19RoundRect,0.150000X0.150000X-0.512500X0.150000X0.512500X-0.150000X0.512500X-0.150000X-0.512500X0*%
%ADD20RoundRect,0.218750X0.218750X0.381250X-0.218750X0.381250X-0.218750X-0.381250X0.218750X-0.381250X0*%
%ADD21RoundRect,0.200000X-0.200000X-0.275000X0.200000X-0.275000X0.200000X0.275000X-0.200000X0.275000X0*%
%ADD22RoundRect,0.150000X-0.150000X0.875000X-0.150000X-0.875000X0.150000X-0.875000X0.150000X0.875000X0*%
%ADD23RoundRect,0.200000X0.275000X-0.200000X0.275000X0.200000X-0.275000X0.200000X-0.275000X-0.200000X0*%
%ADD24RoundRect,0.218750X-0.218750X-0.381250X0.218750X-0.381250X0.218750X0.381250X-0.218750X0.381250X0*%
%ADD25RoundRect,0.150000X-0.150000X0.512500X-0.150000X-0.512500X0.150000X-0.512500X0.150000X0.512500X0*%
%ADD26RoundRect,0.150000X0.800000X0.150000X-0.800000X0.150000X-0.800000X-0.150000X0.800000X-0.150000X0*%
%ADD27RoundRect,0.225000X-0.375000X0.225000X-0.375000X-0.225000X0.375000X-0.225000X0.375000X0.225000X0*%
G04 APERTURE END LIST*
D10*
%TO.C,R15*%
X99850000Y-59475000D03*
X99850000Y-61125000D03*
%TD*%
D11*
%TO.C,C15*%
X197881000Y-130746000D03*
X197881000Y-132296000D03*
%TD*%
D12*
%TO.C,C5*%
X166556000Y-129396000D03*
X165006000Y-129396000D03*
%TD*%
%TO.C,C4*%
X166556000Y-127896000D03*
X165006000Y-127896000D03*
%TD*%
D13*
%TO.C,R3*%
X169602200Y-129403200D03*
X167952200Y-129403200D03*
%TD*%
D14*
%TO.C,D4*%
X62750000Y-157537500D03*
X62750000Y-159112500D03*
%TD*%
%TO.C,D2*%
X61250000Y-157575000D03*
X61250000Y-159150000D03*
%TD*%
D13*
%TO.C,R14*%
X120378000Y-57260000D03*
X118728000Y-57260000D03*
%TD*%
D12*
%TO.C,C12*%
X186056000Y-126246000D03*
X184506000Y-126246000D03*
%TD*%
D15*
%TO.C,C7*%
X178381000Y-141296000D03*
X178381000Y-139746000D03*
%TD*%
D11*
%TO.C,C6*%
X178381000Y-130896000D03*
X178381000Y-132446000D03*
%TD*%
D15*
%TO.C,C16*%
X197881000Y-141146000D03*
X197881000Y-139596000D03*
%TD*%
D14*
%TO.C,D3*%
X64250000Y-157575000D03*
X64250000Y-159150000D03*
%TD*%
D16*
%TO.C,Q2*%
X96050000Y-69280000D03*
D17*
X91425000Y-68525000D03*
X91425000Y-65475000D03*
X88075000Y-68525000D03*
X88075000Y-65475000D03*
D16*
X96050000Y-64720000D03*
%TD*%
D18*
%TO.C,FB3*%
X179981000Y-132996000D03*
X179981000Y-130871000D03*
%TD*%
D11*
%TO.C,C2*%
X98350000Y-59525000D03*
X98350000Y-61075000D03*
%TD*%
D19*
%TO.C,J6*%
X178550000Y-122887500D03*
X180450000Y-122887500D03*
X179500000Y-120612500D03*
%TD*%
D20*
%TO.C,FB7*%
X189606000Y-126346000D03*
X187481000Y-126346000D03*
%TD*%
D18*
%TO.C,FB8*%
X199481000Y-132846000D03*
X199481000Y-130721000D03*
%TD*%
D21*
%TO.C,R7*%
X137925000Y-43750000D03*
X139575000Y-43750000D03*
%TD*%
D13*
%TO.C,R4*%
X175606000Y-143696000D03*
X173956000Y-143696000D03*
%TD*%
D22*
%TO.C,U1*%
X176696000Y-131446000D03*
X175426000Y-131446000D03*
X174156000Y-131446000D03*
X172886000Y-131446000D03*
X171616000Y-131446000D03*
X170346000Y-131446000D03*
X169076000Y-131446000D03*
X167806000Y-131446000D03*
X166536000Y-131446000D03*
X165266000Y-131446000D03*
X165266000Y-140746000D03*
X166536000Y-140746000D03*
X167806000Y-140746000D03*
X169076000Y-140746000D03*
X170346000Y-140746000D03*
X171616000Y-140746000D03*
X172886000Y-140746000D03*
X174156000Y-140746000D03*
X175426000Y-140746000D03*
X176696000Y-140746000D03*
%TD*%
D15*
%TO.C,C18*%
X199381000Y-141146000D03*
X199381000Y-139596000D03*
%TD*%
D23*
%TO.C,R10*%
X64250000Y-156075000D03*
X64250000Y-154425000D03*
%TD*%
D12*
%TO.C,C20*%
X186056000Y-145646000D03*
X184506000Y-145646000D03*
%TD*%
D23*
%TO.C,R12*%
X102850000Y-63925000D03*
X102850000Y-62275000D03*
%TD*%
D12*
%TO.C,C10*%
X166556000Y-144296000D03*
X165006000Y-144296000D03*
%TD*%
D21*
%TO.C,R1*%
X98025000Y-55600000D03*
X99675000Y-55600000D03*
%TD*%
D24*
%TO.C,FB5*%
X164981000Y-147396000D03*
X167106000Y-147396000D03*
%TD*%
D12*
%TO.C,C14*%
X186056000Y-129246000D03*
X184506000Y-129246000D03*
%TD*%
D20*
%TO.C,FB6*%
X186606000Y-124646000D03*
X184481000Y-124646000D03*
%TD*%
D24*
%TO.C,FB10*%
X184481000Y-147246000D03*
X186606000Y-147246000D03*
%TD*%
%TO.C,FB4*%
X167981000Y-145696000D03*
X170106000Y-145696000D03*
%TD*%
D16*
%TO.C,Q1*%
X96050000Y-62280000D03*
D17*
X91425000Y-61525000D03*
X91425000Y-58475000D03*
X88075000Y-61525000D03*
X88075000Y-58475000D03*
D16*
X96050000Y-57720000D03*
%TD*%
D15*
%TO.C,C9*%
X179881000Y-141296000D03*
X179881000Y-139746000D03*
%TD*%
D12*
%TO.C,C17*%
X186056000Y-142646000D03*
X184506000Y-142646000D03*
%TD*%
%TO.C,C8*%
X166556000Y-142796000D03*
X165006000Y-142796000D03*
%TD*%
D13*
%TO.C,R5*%
X189096200Y-129276200D03*
X187446200Y-129276200D03*
%TD*%
D12*
%TO.C,C13*%
X186056000Y-127746000D03*
X184506000Y-127746000D03*
%TD*%
D25*
%TO.C,J5*%
X77450000Y-139112500D03*
X76500000Y-139112500D03*
X75550000Y-139112500D03*
X75550000Y-141387500D03*
X77450000Y-141387500D03*
%TD*%
D12*
%TO.C,C11*%
X166556000Y-145796000D03*
X165006000Y-145796000D03*
%TD*%
D23*
%TO.C,R2*%
X101350000Y-61125000D03*
X101350000Y-59475000D03*
%TD*%
D13*
%TO.C,R13*%
X120478000Y-39750000D03*
X118828000Y-39750000D03*
%TD*%
D12*
%TO.C,C19*%
X186056000Y-144146000D03*
X184506000Y-144146000D03*
%TD*%
D19*
%TO.C,J7*%
X194800000Y-122887500D03*
X196700000Y-122887500D03*
X195750000Y-120612500D03*
%TD*%
D22*
%TO.C,U2*%
X196196000Y-131296000D03*
X194926000Y-131296000D03*
X193656000Y-131296000D03*
X192386000Y-131296000D03*
X191116000Y-131296000D03*
X189846000Y-131296000D03*
X188576000Y-131296000D03*
X187306000Y-131296000D03*
X186036000Y-131296000D03*
X184766000Y-131296000D03*
X184766000Y-140596000D03*
X186036000Y-140596000D03*
X187306000Y-140596000D03*
X188576000Y-140596000D03*
X189846000Y-140596000D03*
X191116000Y-140596000D03*
X192386000Y-140596000D03*
X193656000Y-140596000D03*
X194926000Y-140596000D03*
X196196000Y-140596000D03*
%TD*%
D12*
%TO.C,C3*%
X166556000Y-126396000D03*
X165006000Y-126396000D03*
%TD*%
D20*
%TO.C,FB1*%
X167106000Y-124796000D03*
X164981000Y-124796000D03*
%TD*%
D21*
%TO.C,R8*%
X137925000Y-42250000D03*
X139575000Y-42250000D03*
%TD*%
D26*
%TO.C,U4*%
X133600000Y-51284000D03*
X133600000Y-50014000D03*
X133600000Y-48744000D03*
X133600000Y-47474000D03*
X133600000Y-46204000D03*
X133600000Y-44934000D03*
X133600000Y-43664000D03*
X133600000Y-42394000D03*
X133600000Y-41124000D03*
X124150000Y-41124000D03*
X124150000Y-42394000D03*
X124150000Y-43664000D03*
X124150000Y-44934000D03*
X124150000Y-46204000D03*
X124150000Y-47474000D03*
X124150000Y-48744000D03*
X124150000Y-50014000D03*
X124150000Y-51284000D03*
%TD*%
D23*
%TO.C,R11*%
X62750000Y-156075000D03*
X62750000Y-154425000D03*
%TD*%
D20*
%TO.C,FB2*%
X170081000Y-126496000D03*
X167956000Y-126496000D03*
%TD*%
D24*
%TO.C,FB9*%
X187481000Y-145546000D03*
X189606000Y-145546000D03*
%TD*%
D13*
%TO.C,R6*%
X195106000Y-143546000D03*
X193456000Y-143546000D03*
%TD*%
D23*
%TO.C,R9*%
X61250000Y-156075000D03*
X61250000Y-154425000D03*
%TD*%
D27*
%TO.C,D1*%
X99929000Y-41966800D03*
X99929000Y-45266800D03*
%TD*%
M02*
