%TF.GenerationSoftware,KiCad,Pcbnew,9.0.1*%
%TF.CreationDate,2025-04-23T20:11:47+09:00*%
%TF.ProjectId,RDC_Humanoid_CAN_chain,5244435f-4875-46d6-916e-6f69645f4341,rev?*%
%TF.SameCoordinates,Original*%
%TF.FileFunction,Copper,L1,Top*%
%TF.FilePolarity,Positive*%
%FSLAX46Y46*%
G04 Gerber Fmt 4.6, Leading zero omitted, Abs format (unit mm)*
G04 Created by KiCad (PCBNEW 9.0.1) date 2025-04-23 20:11:47*
%MOMM*%
%LPD*%
G01*
G04 APERTURE LIST*
G04 Aperture macros list*
%AMRoundRect*
0 Rectangle with rounded corners*
0 $1 Rounding radius*
0 $2 $3 $4 $5 $6 $7 $8 $9 X,Y pos of 4 corners*
0 Add a 4 corners polygon primitive as box body*
4,1,4,$2,$3,$4,$5,$6,$7,$8,$9,$2,$3,0*
0 Add four circle primitives for the rounded corners*
1,1,$1+$1,$2,$3*
1,1,$1+$1,$4,$5*
1,1,$1+$1,$6,$7*
1,1,$1+$1,$8,$9*
0 Add four rect primitives between the rounded corners*
20,1,$1+$1,$2,$3,$4,$5,0*
20,1,$1+$1,$4,$5,$6,$7,0*
20,1,$1+$1,$6,$7,$8,$9,0*
20,1,$1+$1,$8,$9,$2,$3,0*%
G04 Aperture macros list end*
%TA.AperFunction,ComponentPad*%
%ADD10RoundRect,0.250000X-0.600000X-0.725000X0.600000X-0.725000X0.600000X0.725000X-0.600000X0.725000X0*%
%TD*%
%TA.AperFunction,ComponentPad*%
%ADD11O,1.700000X1.950000*%
%TD*%
%TA.AperFunction,ComponentPad*%
%ADD12RoundRect,0.250000X0.600000X0.725000X-0.600000X0.725000X-0.600000X-0.725000X0.600000X-0.725000X0*%
%TD*%
%TA.AperFunction,SMDPad,CuDef*%
%ADD13R,8.000000X8.000000*%
%TD*%
%TA.AperFunction,ViaPad*%
%ADD14C,0.600000*%
%TD*%
%TA.AperFunction,Conductor*%
%ADD15C,0.200000*%
%TD*%
G04 APERTURE END LIST*
D10*
%TO.P,J2,1,Pin_1*%
%TO.N,/L_Root_CAN_L*%
X63930000Y-93990000D03*
D11*
%TO.P,J2,2,Pin_2*%
%TO.N,/L_Root_CAN_H*%
X66430000Y-93990000D03*
%TO.P,J2,3,Pin_3*%
%TO.N,GND*%
X68930000Y-93990000D03*
%TD*%
D12*
%TO.P,J6,1,Pin_1*%
%TO.N,/L_Root_CAN_L*%
X89270000Y-85820000D03*
D11*
%TO.P,J6,2,Pin_2*%
%TO.N,/L_Root_CAN_H*%
X86770000Y-85820000D03*
%TD*%
D12*
%TO.P,J8,1,Pin_1*%
%TO.N,/L_Root_CAN_L*%
X66410000Y-85820000D03*
D11*
%TO.P,J8,2,Pin_2*%
%TO.N,/L_Root_CAN_H*%
X63910000Y-85820000D03*
%TD*%
D12*
%TO.P,J4,1,Pin_1*%
%TO.N,/R_Root_CAN_L*%
X43550000Y-85820000D03*
D11*
%TO.P,J4,2,Pin_2*%
%TO.N,/R_Root_CAN_H*%
X41050000Y-85820000D03*
%TD*%
D12*
%TO.P,J5,1,Pin_1*%
%TO.N,/R_Root_CAN_L*%
X32140000Y-85820000D03*
D11*
%TO.P,J5,2,Pin_2*%
%TO.N,/R_Root_CAN_H*%
X29640000Y-85820000D03*
%TD*%
D12*
%TO.P,J3,1,Pin_1*%
%TO.N,/R_Root_CAN_L*%
X54980000Y-85820000D03*
D11*
%TO.P,J3,2,Pin_2*%
%TO.N,/R_Root_CAN_H*%
X52480000Y-85820000D03*
%TD*%
D13*
%TO.P,REF\u002A\u002A,1*%
%TO.N,GND*%
X40000000Y-96500000D03*
%TD*%
D12*
%TO.P,J7,1,Pin_1*%
%TO.N,/L_Root_CAN_L*%
X77840000Y-85820000D03*
D11*
%TO.P,J7,2,Pin_2*%
%TO.N,/L_Root_CAN_H*%
X75340000Y-85820000D03*
%TD*%
D10*
%TO.P,J1,1,Pin_1*%
%TO.N,/R_Root_CAN_L*%
X49960000Y-93990000D03*
D11*
%TO.P,J1,2,Pin_2*%
%TO.N,/R_Root_CAN_H*%
X52460000Y-93990000D03*
%TO.P,J1,3,Pin_3*%
%TO.N,GND*%
X54960000Y-93990000D03*
%TD*%
D14*
%TO.N,GND*%
X59750000Y-90500000D03*
X62250000Y-92500000D03*
X67750000Y-87500000D03*
X90750000Y-87250000D03*
X79500000Y-97500000D03*
X42750000Y-83500000D03*
X54250000Y-87500000D03*
X80000000Y-83500000D03*
X73250000Y-101250000D03*
X38750000Y-78750000D03*
X51500000Y-95500000D03*
X45250000Y-85500000D03*
X54000000Y-83500000D03*
X38250000Y-83500000D03*
X84750000Y-90750000D03*
X57000000Y-78750000D03*
X93000000Y-80750000D03*
X57000000Y-91500000D03*
X68250000Y-85500000D03*
X53250000Y-92500000D03*
X63500000Y-87500000D03*
X67250000Y-83500000D03*
X79000000Y-91000000D03*
X65500000Y-95500000D03*
X67250000Y-92500000D03*
X75750000Y-83500000D03*
X76500000Y-87250000D03*
X49750000Y-101352160D03*
X56750000Y-85750000D03*
X62250000Y-85750000D03*
X47750000Y-88000000D03*
X88000000Y-87500000D03*
X73500000Y-85500000D03*
X85000000Y-85500000D03*
X48500000Y-92500000D03*
X73500000Y-97000000D03*
X26000000Y-98250000D03*
X65500000Y-92500000D03*
X93000000Y-88750000D03*
X50250000Y-83500000D03*
X84750000Y-97500000D03*
X78500000Y-101250000D03*
X83750000Y-101250000D03*
X83750000Y-83500000D03*
X62500000Y-95750000D03*
X90750000Y-84250000D03*
X50750000Y-85500000D03*
X28000000Y-78750000D03*
X61250000Y-78750000D03*
X59750000Y-96750000D03*
X79500000Y-85500000D03*
X88000000Y-83500000D03*
X69250000Y-101250000D03*
X56500000Y-101250000D03*
X26000000Y-89500000D03*
X71250000Y-83500000D03*
X80500000Y-78750000D03*
X84250000Y-78750000D03*
X26000000Y-93750000D03*
X73250000Y-90750000D03*
X62250000Y-101250000D03*
X26000000Y-85250000D03*
X45750000Y-78750000D03*
X89500000Y-101250000D03*
X51500000Y-87250000D03*
X49750000Y-78750000D03*
X30000000Y-84000000D03*
X30750000Y-87250000D03*
X93000000Y-98250000D03*
X33500000Y-78750000D03*
X33750000Y-83500000D03*
X26000000Y-81000000D03*
X51500000Y-92500000D03*
X69250000Y-78500000D03*
X39250000Y-85500000D03*
X29750000Y-101250000D03*
X46250000Y-83500000D03*
X65250000Y-88500000D03*
X36500000Y-87750000D03*
X28000000Y-86250000D03*
X48750000Y-95500000D03*
X33750000Y-85500000D03*
X64250000Y-84000000D03*
X73000000Y-78750000D03*
X34500000Y-101500000D03*
X34436261Y-96500000D03*
X46000000Y-101250000D03*
X46000000Y-97500000D03*
X46000000Y-91250000D03*
X34500000Y-91250000D03*
%TD*%
D15*
%TO.N,/R_Root_CAN_H*%
X30915000Y-84545000D02*
X39775000Y-84545000D01*
X39775000Y-84545000D02*
X41050000Y-85820000D01*
X51205000Y-84545000D02*
X52480000Y-85820000D01*
X52460000Y-93990000D02*
X52460000Y-85480000D01*
X41050000Y-85820000D02*
X42325000Y-84545000D01*
X42325000Y-84545000D02*
X51205000Y-84545000D01*
X29640000Y-85820000D02*
X30915000Y-84545000D01*
X52460000Y-85840000D02*
X52480000Y-85820000D01*
%TO.N,/L_Root_CAN_H*%
X66430000Y-93990000D02*
X66430000Y-88340000D01*
X75340000Y-85820000D02*
X74065000Y-84545000D01*
X86770000Y-85820000D02*
X86770000Y-85480000D01*
X74065000Y-84545000D02*
X65185000Y-84545000D01*
X76615000Y-84545000D02*
X75340000Y-85820000D01*
X65185000Y-84545000D02*
X63910000Y-85820000D01*
X66430000Y-88340000D02*
X63910000Y-85820000D01*
X86770000Y-85480000D02*
X85835000Y-84545000D01*
X85835000Y-84545000D02*
X76615000Y-84545000D01*
%TD*%
%TA.AperFunction,Conductor*%
%TO.N,GND*%
G36*
X90563243Y-77705669D02*
G01*
X90899450Y-77723290D01*
X90912358Y-77724647D01*
X91241677Y-77776806D01*
X91254342Y-77779497D01*
X91576422Y-77865798D01*
X91588749Y-77869803D01*
X91900038Y-77989296D01*
X91911873Y-77994565D01*
X92208976Y-78145947D01*
X92220191Y-78152423D01*
X92499832Y-78334023D01*
X92510313Y-78341638D01*
X92712484Y-78505352D01*
X92769441Y-78551475D01*
X92779086Y-78560160D01*
X93014839Y-78795913D01*
X93023524Y-78805558D01*
X93233359Y-79064683D01*
X93240978Y-79075171D01*
X93422573Y-79354802D01*
X93429055Y-79366029D01*
X93554805Y-79612826D01*
X93580429Y-79663115D01*
X93585708Y-79674972D01*
X93705193Y-79986241D01*
X93709204Y-79998586D01*
X93782953Y-80273825D01*
X93795498Y-80320642D01*
X93798196Y-80333337D01*
X93850352Y-80662641D01*
X93851709Y-80675549D01*
X93869330Y-81011756D01*
X93869500Y-81018246D01*
X93869500Y-97522293D01*
X93869382Y-97527702D01*
X93852310Y-97918723D01*
X93851367Y-97929500D01*
X93800634Y-98314848D01*
X93798756Y-98325501D01*
X93714628Y-98704978D01*
X93711828Y-98715427D01*
X93594949Y-99086120D01*
X93591249Y-99096285D01*
X93442507Y-99455381D01*
X93437935Y-99465185D01*
X93258465Y-99809942D01*
X93253057Y-99819310D01*
X93044213Y-100147130D01*
X93038008Y-100155991D01*
X92801394Y-100464353D01*
X92794440Y-100472640D01*
X92531853Y-100759204D01*
X92524204Y-100766853D01*
X92237640Y-101029440D01*
X92229353Y-101036394D01*
X91920991Y-101273008D01*
X91912130Y-101279213D01*
X91584310Y-101488057D01*
X91574942Y-101493465D01*
X91230185Y-101672935D01*
X91220381Y-101677507D01*
X90861285Y-101826249D01*
X90851120Y-101829949D01*
X90480427Y-101946828D01*
X90469978Y-101949628D01*
X90090501Y-102033756D01*
X90079848Y-102035634D01*
X89694500Y-102086367D01*
X89683723Y-102087310D01*
X89292703Y-102104382D01*
X89287294Y-102104500D01*
X29602706Y-102104500D01*
X29597297Y-102104382D01*
X29206276Y-102087310D01*
X29195501Y-102086367D01*
X29106792Y-102074688D01*
X28810151Y-102035634D01*
X28799498Y-102033756D01*
X28420021Y-101949628D01*
X28409572Y-101946828D01*
X28038879Y-101829949D01*
X28028714Y-101826249D01*
X27669618Y-101677507D01*
X27659814Y-101672935D01*
X27315057Y-101493465D01*
X27305689Y-101488057D01*
X26977869Y-101279213D01*
X26969008Y-101273008D01*
X26660646Y-101036394D01*
X26652359Y-101029440D01*
X26365795Y-100766853D01*
X26358146Y-100759204D01*
X26095559Y-100472640D01*
X26088597Y-100464343D01*
X26086943Y-100462187D01*
X26086942Y-100462186D01*
X26032762Y-100391577D01*
X50809500Y-100391577D01*
X50809500Y-100588422D01*
X50840290Y-100782826D01*
X50901117Y-100970029D01*
X50934932Y-101036394D01*
X50990476Y-101145405D01*
X51106172Y-101304646D01*
X51245354Y-101443828D01*
X51404595Y-101559524D01*
X51487455Y-101601743D01*
X51579970Y-101648882D01*
X51579972Y-101648882D01*
X51579975Y-101648884D01*
X51653996Y-101672935D01*
X51767173Y-101709709D01*
X51961578Y-101740500D01*
X51961583Y-101740500D01*
X52958422Y-101740500D01*
X53152826Y-101709709D01*
X53340025Y-101648884D01*
X53515405Y-101559524D01*
X53674646Y-101443828D01*
X53813828Y-101304646D01*
X53929524Y-101145405D01*
X54018884Y-100970025D01*
X54079709Y-100782826D01*
X54083450Y-100759204D01*
X54110500Y-100588422D01*
X54110500Y-100391577D01*
X64779500Y-100391577D01*
X64779500Y-100588422D01*
X64810290Y-100782826D01*
X64871117Y-100970029D01*
X64904932Y-101036394D01*
X64960476Y-101145405D01*
X65076172Y-101304646D01*
X65215354Y-101443828D01*
X65374595Y-101559524D01*
X65457455Y-101601743D01*
X65549970Y-101648882D01*
X65549972Y-101648882D01*
X65549975Y-101648884D01*
X65623996Y-101672935D01*
X65737173Y-101709709D01*
X65931578Y-101740500D01*
X65931583Y-101740500D01*
X66928422Y-101740500D01*
X67122826Y-101709709D01*
X67310025Y-101648884D01*
X67485405Y-101559524D01*
X67644646Y-101443828D01*
X67783828Y-101304646D01*
X67899524Y-101145405D01*
X67988884Y-100970025D01*
X68049709Y-100782826D01*
X68053450Y-100759204D01*
X68080500Y-100588422D01*
X68080500Y-100391577D01*
X68049709Y-100197173D01*
X67988882Y-100009970D01*
X67941743Y-99917455D01*
X67899524Y-99834595D01*
X67783828Y-99675354D01*
X67644646Y-99536172D01*
X67485405Y-99420476D01*
X67310029Y-99331117D01*
X67122826Y-99270290D01*
X66928422Y-99239500D01*
X66928417Y-99239500D01*
X65931583Y-99239500D01*
X65931578Y-99239500D01*
X65737173Y-99270290D01*
X65549970Y-99331117D01*
X65374594Y-99420476D01*
X65283741Y-99486485D01*
X65215354Y-99536172D01*
X65215352Y-99536174D01*
X65215351Y-99536174D01*
X65076174Y-99675351D01*
X65076174Y-99675352D01*
X65076172Y-99675354D01*
X65026485Y-99743741D01*
X64960476Y-99834594D01*
X64871117Y-100009970D01*
X64810290Y-100197173D01*
X64779500Y-100391577D01*
X54110500Y-100391577D01*
X54079709Y-100197173D01*
X54018882Y-100009970D01*
X53971743Y-99917455D01*
X53929524Y-99834595D01*
X53813828Y-99675354D01*
X53674646Y-99536172D01*
X53515405Y-99420476D01*
X53340029Y-99331117D01*
X53152826Y-99270290D01*
X52958422Y-99239500D01*
X52958417Y-99239500D01*
X51961583Y-99239500D01*
X51961578Y-99239500D01*
X51767173Y-99270290D01*
X51579970Y-99331117D01*
X51404594Y-99420476D01*
X51313741Y-99486485D01*
X51245354Y-99536172D01*
X51245352Y-99536174D01*
X51245351Y-99536174D01*
X51106174Y-99675351D01*
X51106174Y-99675352D01*
X51106172Y-99675354D01*
X51056485Y-99743741D01*
X50990476Y-99834594D01*
X50901117Y-100009970D01*
X50840290Y-100197173D01*
X50809500Y-100391577D01*
X26032762Y-100391577D01*
X25851991Y-100155991D01*
X25845786Y-100147130D01*
X25636942Y-99819310D01*
X25631534Y-99809942D01*
X25452064Y-99465185D01*
X25447492Y-99455381D01*
X25433034Y-99420476D01*
X25298744Y-99096270D01*
X25295055Y-99086135D01*
X25178168Y-98715416D01*
X25175374Y-98704990D01*
X25091241Y-98325493D01*
X25089365Y-98314848D01*
X25038630Y-97929477D01*
X25037690Y-97918742D01*
X25020618Y-97527701D01*
X25020500Y-97522293D01*
X25020500Y-94863711D01*
X28384500Y-94863711D01*
X28384500Y-95106288D01*
X28416161Y-95346785D01*
X28478947Y-95581104D01*
X28571773Y-95805205D01*
X28571776Y-95805212D01*
X28693064Y-96015289D01*
X28693066Y-96015292D01*
X28693067Y-96015293D01*
X28840733Y-96207736D01*
X28840739Y-96207743D01*
X29012256Y-96379260D01*
X29012263Y-96379266D01*
X29125321Y-96466018D01*
X29204711Y-96526936D01*
X29414788Y-96648224D01*
X29638900Y-96741054D01*
X29873211Y-96803838D01*
X30053586Y-96827584D01*
X30113711Y-96835500D01*
X30113712Y-96835500D01*
X30356289Y-96835500D01*
X30404388Y-96829167D01*
X30596789Y-96803838D01*
X30831100Y-96741054D01*
X31055212Y-96648224D01*
X31265289Y-96526936D01*
X31457738Y-96379265D01*
X31629265Y-96207738D01*
X31776936Y-96015289D01*
X31898224Y-95805212D01*
X31991054Y-95581100D01*
X32053838Y-95346789D01*
X32085500Y-95106288D01*
X32085500Y-94863712D01*
X32053838Y-94623211D01*
X31991054Y-94388900D01*
X31898224Y-94164788D01*
X31776936Y-93954711D01*
X31629265Y-93762262D01*
X31629260Y-93762256D01*
X31457743Y-93590739D01*
X31457736Y-93590733D01*
X31265293Y-93443067D01*
X31265292Y-93443066D01*
X31265289Y-93443064D01*
X31093661Y-93343974D01*
X31055214Y-93321777D01*
X31055205Y-93321773D01*
X30831104Y-93228947D01*
X30652769Y-93181162D01*
X30596789Y-93166162D01*
X30596788Y-93166161D01*
X30596785Y-93166161D01*
X30356289Y-93134500D01*
X30356288Y-93134500D01*
X30113712Y-93134500D01*
X30113711Y-93134500D01*
X29873214Y-93166161D01*
X29638895Y-93228947D01*
X29414794Y-93321773D01*
X29414785Y-93321777D01*
X29204706Y-93443067D01*
X29012263Y-93590733D01*
X29012256Y-93590739D01*
X28840739Y-93762256D01*
X28840733Y-93762263D01*
X28693067Y-93954706D01*
X28571777Y-94164785D01*
X28571773Y-94164794D01*
X28478947Y-94388895D01*
X28416161Y-94623214D01*
X28384500Y-94863711D01*
X25020500Y-94863711D01*
X25020500Y-85588713D01*
X28289500Y-85588713D01*
X28289500Y-86051286D01*
X28322753Y-86261239D01*
X28388444Y-86463414D01*
X28484951Y-86652820D01*
X28609890Y-86824786D01*
X28760213Y-86975109D01*
X28932179Y-87100048D01*
X28932181Y-87100049D01*
X28932184Y-87100051D01*
X29121588Y-87196557D01*
X29323757Y-87262246D01*
X29533713Y-87295500D01*
X29533714Y-87295500D01*
X29746286Y-87295500D01*
X29746287Y-87295500D01*
X29956243Y-87262246D01*
X30158412Y-87196557D01*
X30347816Y-87100051D01*
X30519792Y-86975104D01*
X30658604Y-86836291D01*
X30719923Y-86802809D01*
X30789615Y-86807793D01*
X30845549Y-86849664D01*
X30851821Y-86858878D01*
X30855185Y-86864333D01*
X30855186Y-86864334D01*
X30947288Y-87013656D01*
X31071344Y-87137712D01*
X31220666Y-87229814D01*
X31387203Y-87284999D01*
X31489991Y-87295500D01*
X32790008Y-87295499D01*
X32892797Y-87284999D01*
X33059334Y-87229814D01*
X33208656Y-87137712D01*
X33332712Y-87013656D01*
X33424814Y-86864334D01*
X33479999Y-86697797D01*
X33490500Y-86595009D01*
X33490499Y-85269499D01*
X33510184Y-85202461D01*
X33562987Y-85156706D01*
X33614499Y-85145500D01*
X39474903Y-85145500D01*
X39504343Y-85154144D01*
X39534330Y-85160668D01*
X39539345Y-85164422D01*
X39541942Y-85165185D01*
X39562584Y-85181819D01*
X39691738Y-85310973D01*
X39725223Y-85372296D01*
X39726530Y-85418052D01*
X39699500Y-85588713D01*
X39699500Y-86051286D01*
X39732753Y-86261239D01*
X39798444Y-86463414D01*
X39894951Y-86652820D01*
X40019890Y-86824786D01*
X40170213Y-86975109D01*
X40342179Y-87100048D01*
X40342181Y-87100049D01*
X40342184Y-87100051D01*
X40531588Y-87196557D01*
X40733757Y-87262246D01*
X40943713Y-87295500D01*
X40943714Y-87295500D01*
X41156286Y-87295500D01*
X41156287Y-87295500D01*
X41366243Y-87262246D01*
X41568412Y-87196557D01*
X41757816Y-87100051D01*
X41929792Y-86975104D01*
X42068604Y-86836291D01*
X42129923Y-86802809D01*
X42199615Y-86807793D01*
X42255549Y-86849664D01*
X42261821Y-86858878D01*
X42265185Y-86864333D01*
X42265186Y-86864334D01*
X42357288Y-87013656D01*
X42481344Y-87137712D01*
X42630666Y-87229814D01*
X42797203Y-87284999D01*
X42899991Y-87295500D01*
X44200008Y-87295499D01*
X44302797Y-87284999D01*
X44469334Y-87229814D01*
X44618656Y-87137712D01*
X44742712Y-87013656D01*
X44834814Y-86864334D01*
X44889999Y-86697797D01*
X44900500Y-86595009D01*
X44900499Y-85269499D01*
X44920184Y-85202461D01*
X44972987Y-85156706D01*
X45024499Y-85145500D01*
X50904903Y-85145500D01*
X50934343Y-85154144D01*
X50964330Y-85160668D01*
X50969345Y-85164422D01*
X50971942Y-85165185D01*
X50992584Y-85181819D01*
X51121738Y-85310973D01*
X51155223Y-85372296D01*
X51156530Y-85418052D01*
X51129500Y-85588713D01*
X51129500Y-86051286D01*
X51162753Y-86261239D01*
X51228444Y-86463414D01*
X51324951Y-86652820D01*
X51449890Y-86824786D01*
X51449896Y-86824792D01*
X51600208Y-86975104D01*
X51772184Y-87100051D01*
X51791793Y-87110042D01*
X51842589Y-87158014D01*
X51859500Y-87220527D01*
X51859500Y-92579281D01*
X51839815Y-92646320D01*
X51791795Y-92689765D01*
X51752185Y-92709947D01*
X51752184Y-92709948D01*
X51580215Y-92834889D01*
X51441398Y-92973706D01*
X51380075Y-93007190D01*
X51310383Y-93002206D01*
X51254450Y-92960334D01*
X51248178Y-92951120D01*
X51152712Y-92796344D01*
X51028657Y-92672289D01*
X51028656Y-92672288D01*
X50879334Y-92580186D01*
X50712797Y-92525001D01*
X50712795Y-92525000D01*
X50610010Y-92514500D01*
X49309998Y-92514500D01*
X49309981Y-92514501D01*
X49207203Y-92525000D01*
X49207200Y-92525001D01*
X49040668Y-92580185D01*
X49040663Y-92580187D01*
X48891342Y-92672289D01*
X48767289Y-92796342D01*
X48675187Y-92945663D01*
X48675185Y-92945668D01*
X48670325Y-92960334D01*
X48620001Y-93112203D01*
X48620001Y-93112204D01*
X48620000Y-93112204D01*
X48609500Y-93214983D01*
X48609500Y-94765001D01*
X48609501Y-94765018D01*
X48620000Y-94867796D01*
X48620001Y-94867799D01*
X48665894Y-95006294D01*
X48675186Y-95034334D01*
X48767288Y-95183656D01*
X48891344Y-95307712D01*
X49040666Y-95399814D01*
X49207203Y-95454999D01*
X49309991Y-95465500D01*
X50610008Y-95465499D01*
X50712797Y-95454999D01*
X50879334Y-95399814D01*
X51028656Y-95307712D01*
X51152712Y-95183656D01*
X51244814Y-95034334D01*
X51244814Y-95034331D01*
X51248178Y-95028879D01*
X51300126Y-94982154D01*
X51369088Y-94970931D01*
X51433170Y-94998774D01*
X51441398Y-95006294D01*
X51580213Y-95145109D01*
X51752179Y-95270048D01*
X51752181Y-95270049D01*
X51752184Y-95270051D01*
X51941588Y-95366557D01*
X52143757Y-95432246D01*
X52353713Y-95465500D01*
X52353714Y-95465500D01*
X52566286Y-95465500D01*
X52566287Y-95465500D01*
X52776243Y-95432246D01*
X52978412Y-95366557D01*
X53167816Y-95270051D01*
X53189789Y-95254086D01*
X53339786Y-95145109D01*
X53339788Y-95145106D01*
X53339792Y-95145104D01*
X53490104Y-94994792D01*
X53490106Y-94994788D01*
X53490109Y-94994786D01*
X53615048Y-94822820D01*
X53615047Y-94822820D01*
X53615051Y-94822816D01*
X53711557Y-94633412D01*
X53777246Y-94431243D01*
X53810500Y-94221287D01*
X53810500Y-93758713D01*
X53777246Y-93548757D01*
X53711557Y-93346588D01*
X53615051Y-93157184D01*
X53615049Y-93157181D01*
X53615048Y-93157179D01*
X53490109Y-92985213D01*
X53339786Y-92834890D01*
X53167815Y-92709948D01*
X53167814Y-92709947D01*
X53128205Y-92689765D01*
X53077409Y-92641791D01*
X53060500Y-92579281D01*
X53060500Y-87240908D01*
X53080185Y-87173869D01*
X53128204Y-87130424D01*
X53187816Y-87100051D01*
X53359792Y-86975104D01*
X53498604Y-86836291D01*
X53559923Y-86802809D01*
X53629615Y-86807793D01*
X53685549Y-86849664D01*
X53691821Y-86858878D01*
X53695185Y-86864333D01*
X53695186Y-86864334D01*
X53787288Y-87013656D01*
X53911344Y-87137712D01*
X54060666Y-87229814D01*
X54227203Y-87284999D01*
X54329991Y-87295500D01*
X55630008Y-87295499D01*
X55732797Y-87284999D01*
X55899334Y-87229814D01*
X56048656Y-87137712D01*
X56172712Y-87013656D01*
X56264814Y-86864334D01*
X56319999Y-86697797D01*
X56330500Y-86595009D01*
X56330499Y-85588713D01*
X62559500Y-85588713D01*
X62559500Y-86051286D01*
X62592753Y-86261239D01*
X62658444Y-86463414D01*
X62754951Y-86652820D01*
X62879890Y-86824786D01*
X63030213Y-86975109D01*
X63202179Y-87100048D01*
X63202181Y-87100049D01*
X63202184Y-87100051D01*
X63391588Y-87196557D01*
X63593757Y-87262246D01*
X63803713Y-87295500D01*
X63803714Y-87295500D01*
X64016286Y-87295500D01*
X64016287Y-87295500D01*
X64226243Y-87262246D01*
X64362873Y-87217851D01*
X64432708Y-87215856D01*
X64488867Y-87248102D01*
X65793181Y-88552416D01*
X65826666Y-88613739D01*
X65829500Y-88640097D01*
X65829500Y-92579281D01*
X65809815Y-92646320D01*
X65761795Y-92689765D01*
X65722185Y-92709947D01*
X65722184Y-92709948D01*
X65550215Y-92834889D01*
X65411398Y-92973706D01*
X65350075Y-93007190D01*
X65280383Y-93002206D01*
X65224450Y-92960334D01*
X65218178Y-92951120D01*
X65122712Y-92796344D01*
X64998657Y-92672289D01*
X64998656Y-92672288D01*
X64849334Y-92580186D01*
X64682797Y-92525001D01*
X64682795Y-92525000D01*
X64580010Y-92514500D01*
X63279998Y-92514500D01*
X63279981Y-92514501D01*
X63177203Y-92525000D01*
X63177200Y-92525001D01*
X63010668Y-92580185D01*
X63010663Y-92580187D01*
X62861342Y-92672289D01*
X62737289Y-92796342D01*
X62645187Y-92945663D01*
X62645185Y-92945668D01*
X62640325Y-92960334D01*
X62590001Y-93112203D01*
X62590001Y-93112204D01*
X62590000Y-93112204D01*
X62579500Y-93214983D01*
X62579500Y-94765001D01*
X62579501Y-94765018D01*
X62590000Y-94867796D01*
X62590001Y-94867799D01*
X62635894Y-95006294D01*
X62645186Y-95034334D01*
X62737288Y-95183656D01*
X62861344Y-95307712D01*
X63010666Y-95399814D01*
X63177203Y-95454999D01*
X63279991Y-95465500D01*
X64580008Y-95465499D01*
X64682797Y-95454999D01*
X64849334Y-95399814D01*
X64998656Y-95307712D01*
X65122712Y-95183656D01*
X65214814Y-95034334D01*
X65214814Y-95034331D01*
X65218178Y-95028879D01*
X65270126Y-94982154D01*
X65339088Y-94970931D01*
X65403170Y-94998774D01*
X65411398Y-95006294D01*
X65550213Y-95145109D01*
X65722179Y-95270048D01*
X65722181Y-95270049D01*
X65722184Y-95270051D01*
X65911588Y-95366557D01*
X66113757Y-95432246D01*
X66323713Y-95465500D01*
X66323714Y-95465500D01*
X66536286Y-95465500D01*
X66536287Y-95465500D01*
X66746243Y-95432246D01*
X66948412Y-95366557D01*
X67137816Y-95270051D01*
X67159789Y-95254086D01*
X67309786Y-95145109D01*
X67309788Y-95145106D01*
X67309792Y-95145104D01*
X67460104Y-94994792D01*
X67460106Y-94994788D01*
X67460109Y-94994786D01*
X67544442Y-94878711D01*
X86649500Y-94878711D01*
X86649500Y-95121288D01*
X86679186Y-95346785D01*
X86681162Y-95361789D01*
X86706138Y-95454999D01*
X86743947Y-95596104D01*
X86830560Y-95805205D01*
X86836776Y-95820212D01*
X86958064Y-96030289D01*
X86958066Y-96030292D01*
X86958067Y-96030293D01*
X87105733Y-96222736D01*
X87105739Y-96222743D01*
X87277256Y-96394260D01*
X87277262Y-96394265D01*
X87469711Y-96541936D01*
X87679788Y-96663224D01*
X87903900Y-96756054D01*
X88138211Y-96818838D01*
X88318586Y-96842584D01*
X88378711Y-96850500D01*
X88378712Y-96850500D01*
X88621289Y-96850500D01*
X88669388Y-96844167D01*
X88861789Y-96818838D01*
X89096100Y-96756054D01*
X89320212Y-96663224D01*
X89530289Y-96541936D01*
X89722738Y-96394265D01*
X89894265Y-96222738D01*
X90041936Y-96030289D01*
X90163224Y-95820212D01*
X90256054Y-95596100D01*
X90318838Y-95361789D01*
X90350500Y-95121288D01*
X90350500Y-94878712D01*
X90318838Y-94638211D01*
X90256054Y-94403900D01*
X90163224Y-94179788D01*
X90041936Y-93969711D01*
X89894265Y-93777262D01*
X89894260Y-93777256D01*
X89722743Y-93605739D01*
X89722736Y-93605733D01*
X89530293Y-93458067D01*
X89530292Y-93458066D01*
X89530289Y-93458064D01*
X89320212Y-93336776D01*
X89320205Y-93336773D01*
X89096104Y-93243947D01*
X88861785Y-93181161D01*
X88621289Y-93149500D01*
X88621288Y-93149500D01*
X88378712Y-93149500D01*
X88378711Y-93149500D01*
X88138214Y-93181161D01*
X87903895Y-93243947D01*
X87679794Y-93336773D01*
X87679785Y-93336777D01*
X87469706Y-93458067D01*
X87277263Y-93605733D01*
X87277256Y-93605739D01*
X87105739Y-93777256D01*
X87105733Y-93777263D01*
X86958067Y-93969706D01*
X86836777Y-94179785D01*
X86836773Y-94179794D01*
X86743947Y-94403895D01*
X86681161Y-94638214D01*
X86649500Y-94878711D01*
X67544442Y-94878711D01*
X67585050Y-94822818D01*
X67587321Y-94818361D01*
X67587321Y-94818360D01*
X67587322Y-94818358D01*
X67681557Y-94633412D01*
X67747246Y-94431243D01*
X67780500Y-94221287D01*
X67780500Y-93758713D01*
X67747246Y-93548757D01*
X67681557Y-93346588D01*
X67585051Y-93157184D01*
X67585049Y-93157181D01*
X67585048Y-93157179D01*
X67460109Y-92985213D01*
X67309786Y-92834890D01*
X67137815Y-92709948D01*
X67137814Y-92709947D01*
X67098205Y-92689765D01*
X67047409Y-92641791D01*
X67030500Y-92579281D01*
X67030500Y-88260945D01*
X67030500Y-88260943D01*
X66989577Y-88108216D01*
X66989577Y-88108215D01*
X66989577Y-88108214D01*
X66960639Y-88058095D01*
X66960637Y-88058092D01*
X66910520Y-87971284D01*
X66798716Y-87859480D01*
X66798715Y-87859479D01*
X66794385Y-87855149D01*
X66794374Y-87855139D01*
X66446415Y-87507180D01*
X66412930Y-87445857D01*
X66417914Y-87376165D01*
X66459786Y-87320232D01*
X66525250Y-87295815D01*
X66534096Y-87295499D01*
X67060002Y-87295499D01*
X67060008Y-87295499D01*
X67162797Y-87284999D01*
X67329334Y-87229814D01*
X67478656Y-87137712D01*
X67602712Y-87013656D01*
X67694814Y-86864334D01*
X67749999Y-86697797D01*
X67760500Y-86595009D01*
X67760499Y-85269499D01*
X67780184Y-85202461D01*
X67832987Y-85156706D01*
X67884499Y-85145500D01*
X73764903Y-85145500D01*
X73794343Y-85154144D01*
X73824330Y-85160668D01*
X73829345Y-85164422D01*
X73831942Y-85165185D01*
X73852584Y-85181819D01*
X73981738Y-85310973D01*
X74015223Y-85372296D01*
X74016530Y-85418052D01*
X73989500Y-85588713D01*
X73989500Y-86051286D01*
X74022753Y-86261239D01*
X74088444Y-86463414D01*
X74184951Y-86652820D01*
X74309890Y-86824786D01*
X74460213Y-86975109D01*
X74632179Y-87100048D01*
X74632181Y-87100049D01*
X74632184Y-87100051D01*
X74821588Y-87196557D01*
X75023757Y-87262246D01*
X75233713Y-87295500D01*
X75233714Y-87295500D01*
X75446286Y-87295500D01*
X75446287Y-87295500D01*
X75656243Y-87262246D01*
X75858412Y-87196557D01*
X76047816Y-87100051D01*
X76219792Y-86975104D01*
X76358604Y-86836291D01*
X76419923Y-86802809D01*
X76489615Y-86807793D01*
X76545549Y-86849664D01*
X76551821Y-86858878D01*
X76555185Y-86864333D01*
X76555186Y-86864334D01*
X76647288Y-87013656D01*
X76771344Y-87137712D01*
X76920666Y-87229814D01*
X77087203Y-87284999D01*
X77189991Y-87295500D01*
X78490008Y-87295499D01*
X78592797Y-87284999D01*
X78759334Y-87229814D01*
X78908656Y-87137712D01*
X79032712Y-87013656D01*
X79124814Y-86864334D01*
X79179999Y-86697797D01*
X79190500Y-86595009D01*
X79190499Y-85269499D01*
X79210184Y-85202461D01*
X79262987Y-85156706D01*
X79314499Y-85145500D01*
X85357873Y-85145500D01*
X85424912Y-85165185D01*
X85470667Y-85217989D01*
X85480611Y-85287147D01*
X85475805Y-85307813D01*
X85459319Y-85358553D01*
X85452753Y-85378760D01*
X85419500Y-85588713D01*
X85419500Y-86051286D01*
X85452753Y-86261239D01*
X85518444Y-86463414D01*
X85614951Y-86652820D01*
X85739890Y-86824786D01*
X85890213Y-86975109D01*
X86062179Y-87100048D01*
X86062181Y-87100049D01*
X86062184Y-87100051D01*
X86251588Y-87196557D01*
X86453757Y-87262246D01*
X86663713Y-87295500D01*
X86663714Y-87295500D01*
X86876286Y-87295500D01*
X86876287Y-87295500D01*
X87086243Y-87262246D01*
X87288412Y-87196557D01*
X87477816Y-87100051D01*
X87649792Y-86975104D01*
X87788604Y-86836291D01*
X87849923Y-86802809D01*
X87919615Y-86807793D01*
X87975549Y-86849664D01*
X87981821Y-86858878D01*
X87985185Y-86864333D01*
X87985186Y-86864334D01*
X88077288Y-87013656D01*
X88201344Y-87137712D01*
X88350666Y-87229814D01*
X88517203Y-87284999D01*
X88619991Y-87295500D01*
X89920008Y-87295499D01*
X90022797Y-87284999D01*
X90189334Y-87229814D01*
X90338656Y-87137712D01*
X90462712Y-87013656D01*
X90554814Y-86864334D01*
X90609999Y-86697797D01*
X90620500Y-86595009D01*
X90620499Y-85044992D01*
X90609999Y-84942203D01*
X90554814Y-84775666D01*
X90462712Y-84626344D01*
X90338656Y-84502288D01*
X90213969Y-84425381D01*
X90189336Y-84410187D01*
X90189331Y-84410185D01*
X90187862Y-84409698D01*
X90022797Y-84355001D01*
X90022795Y-84355000D01*
X89920010Y-84344500D01*
X88619998Y-84344500D01*
X88619981Y-84344501D01*
X88517203Y-84355000D01*
X88517200Y-84355001D01*
X88350668Y-84410185D01*
X88350663Y-84410187D01*
X88201342Y-84502289D01*
X88077289Y-84626342D01*
X87981821Y-84781121D01*
X87929873Y-84827845D01*
X87860910Y-84839068D01*
X87796828Y-84811224D01*
X87788601Y-84803705D01*
X87649786Y-84664890D01*
X87477820Y-84539951D01*
X87288414Y-84443444D01*
X87288413Y-84443443D01*
X87288412Y-84443443D01*
X87086243Y-84377754D01*
X87086241Y-84377753D01*
X87086240Y-84377753D01*
X86912717Y-84350270D01*
X86876287Y-84344500D01*
X86663713Y-84344500D01*
X86663708Y-84344500D01*
X86570746Y-84359224D01*
X86565320Y-84358522D01*
X86560194Y-84360435D01*
X86531043Y-84354093D01*
X86501453Y-84350270D01*
X86495847Y-84346437D01*
X86491921Y-84345583D01*
X86463667Y-84324432D01*
X86322590Y-84183355D01*
X86322588Y-84183352D01*
X86203717Y-84064481D01*
X86203716Y-84064480D01*
X86116904Y-84014360D01*
X86116904Y-84014359D01*
X86116900Y-84014358D01*
X86066785Y-83985423D01*
X85914057Y-83944499D01*
X85755943Y-83944499D01*
X85748347Y-83944499D01*
X85748331Y-83944500D01*
X76694057Y-83944500D01*
X76535942Y-83944500D01*
X76383215Y-83985423D01*
X76383214Y-83985423D01*
X76383212Y-83985424D01*
X76383209Y-83985425D01*
X76333096Y-84014359D01*
X76333095Y-84014360D01*
X76289689Y-84039420D01*
X76246285Y-84064479D01*
X76246282Y-84064481D01*
X76134478Y-84176286D01*
X75918867Y-84391896D01*
X75857544Y-84425381D01*
X75792868Y-84422146D01*
X75656240Y-84377753D01*
X75482717Y-84350270D01*
X75446287Y-84344500D01*
X75233713Y-84344500D01*
X75197283Y-84350270D01*
X75023760Y-84377753D01*
X75023757Y-84377754D01*
X74887129Y-84422147D01*
X74817290Y-84424142D01*
X74761132Y-84391897D01*
X74552590Y-84183355D01*
X74552588Y-84183352D01*
X74433717Y-84064481D01*
X74433716Y-84064480D01*
X74346904Y-84014360D01*
X74346904Y-84014359D01*
X74346900Y-84014358D01*
X74296785Y-83985423D01*
X74144057Y-83944499D01*
X73985943Y-83944499D01*
X73978347Y-83944499D01*
X73978331Y-83944500D01*
X65264057Y-83944500D01*
X65105942Y-83944500D01*
X64953215Y-83985423D01*
X64953214Y-83985423D01*
X64953212Y-83985424D01*
X64953209Y-83985425D01*
X64903096Y-84014359D01*
X64903095Y-84014360D01*
X64859689Y-84039420D01*
X64816285Y-84064479D01*
X64816282Y-84064481D01*
X64704478Y-84176286D01*
X64488867Y-84391896D01*
X64427544Y-84425381D01*
X64362868Y-84422146D01*
X64226240Y-84377753D01*
X64052717Y-84350270D01*
X64016287Y-84344500D01*
X63803713Y-84344500D01*
X63767283Y-84350270D01*
X63593760Y-84377753D01*
X63391585Y-84443444D01*
X63202179Y-84539951D01*
X63030213Y-84664890D01*
X62879890Y-84815213D01*
X62754951Y-84987179D01*
X62658444Y-85176585D01*
X62592753Y-85378760D01*
X62559500Y-85588713D01*
X56330499Y-85588713D01*
X56330499Y-85044992D01*
X56319999Y-84942203D01*
X56264814Y-84775666D01*
X56172712Y-84626344D01*
X56048656Y-84502288D01*
X55923969Y-84425381D01*
X55899336Y-84410187D01*
X55899331Y-84410185D01*
X55897862Y-84409698D01*
X55732797Y-84355001D01*
X55732795Y-84355000D01*
X55630010Y-84344500D01*
X54329998Y-84344500D01*
X54329981Y-84344501D01*
X54227203Y-84355000D01*
X54227200Y-84355001D01*
X54060668Y-84410185D01*
X54060663Y-84410187D01*
X53911342Y-84502289D01*
X53787289Y-84626342D01*
X53691821Y-84781121D01*
X53639873Y-84827845D01*
X53570910Y-84839068D01*
X53506828Y-84811224D01*
X53498601Y-84803705D01*
X53359786Y-84664890D01*
X53187820Y-84539951D01*
X52998414Y-84443444D01*
X52998413Y-84443443D01*
X52998412Y-84443443D01*
X52796243Y-84377754D01*
X52796241Y-84377753D01*
X52796240Y-84377753D01*
X52622717Y-84350270D01*
X52586287Y-84344500D01*
X52373713Y-84344500D01*
X52337283Y-84350270D01*
X52163760Y-84377753D01*
X52163757Y-84377754D01*
X52027129Y-84422147D01*
X51957290Y-84424142D01*
X51901132Y-84391897D01*
X51692590Y-84183355D01*
X51692588Y-84183352D01*
X51573717Y-84064481D01*
X51573716Y-84064480D01*
X51486904Y-84014360D01*
X51486904Y-84014359D01*
X51486900Y-84014358D01*
X51436785Y-83985423D01*
X51284057Y-83944499D01*
X51125943Y-83944499D01*
X51118347Y-83944499D01*
X51118331Y-83944500D01*
X42404057Y-83944500D01*
X42245942Y-83944500D01*
X42093215Y-83985423D01*
X42093214Y-83985423D01*
X42093212Y-83985424D01*
X42093209Y-83985425D01*
X42043096Y-84014359D01*
X42043095Y-84014360D01*
X41999689Y-84039420D01*
X41956285Y-84064479D01*
X41956282Y-84064481D01*
X41844478Y-84176286D01*
X41628867Y-84391896D01*
X41567544Y-84425381D01*
X41502868Y-84422146D01*
X41366240Y-84377753D01*
X41192717Y-84350270D01*
X41156287Y-84344500D01*
X40943713Y-84344500D01*
X40907283Y-84350270D01*
X40733760Y-84377753D01*
X40733757Y-84377754D01*
X40597129Y-84422147D01*
X40527290Y-84424142D01*
X40471132Y-84391897D01*
X40262590Y-84183355D01*
X40262588Y-84183352D01*
X40143717Y-84064481D01*
X40143716Y-84064480D01*
X40056904Y-84014360D01*
X40056904Y-84014359D01*
X40056900Y-84014358D01*
X40006785Y-83985423D01*
X39854057Y-83944499D01*
X39695943Y-83944499D01*
X39688347Y-83944499D01*
X39688331Y-83944500D01*
X30994057Y-83944500D01*
X30835942Y-83944500D01*
X30683215Y-83985423D01*
X30683214Y-83985423D01*
X30683212Y-83985424D01*
X30683209Y-83985425D01*
X30633096Y-84014359D01*
X30633095Y-84014360D01*
X30589689Y-84039420D01*
X30546285Y-84064479D01*
X30546282Y-84064481D01*
X30434478Y-84176286D01*
X30218867Y-84391896D01*
X30157544Y-84425381D01*
X30092868Y-84422146D01*
X29956240Y-84377753D01*
X29782717Y-84350270D01*
X29746287Y-84344500D01*
X29533713Y-84344500D01*
X29497283Y-84350270D01*
X29323760Y-84377753D01*
X29121585Y-84443444D01*
X28932179Y-84539951D01*
X28760213Y-84664890D01*
X28609890Y-84815213D01*
X28484951Y-84987179D01*
X28388444Y-85176585D01*
X28322753Y-85378760D01*
X28289500Y-85588713D01*
X25020500Y-85588713D01*
X25020500Y-81018246D01*
X25020670Y-81011756D01*
X25038290Y-80675549D01*
X25039647Y-80662641D01*
X25054241Y-80570500D01*
X25091806Y-80333318D01*
X25094496Y-80320661D01*
X25180799Y-79998571D01*
X25184801Y-79986256D01*
X25304298Y-79674954D01*
X25309561Y-79663133D01*
X25460951Y-79366014D01*
X25467417Y-79354816D01*
X25553943Y-79221577D01*
X29239500Y-79221577D01*
X29239500Y-79418422D01*
X29270290Y-79612826D01*
X29331117Y-79800029D01*
X29420476Y-79975405D01*
X29536172Y-80134646D01*
X29675354Y-80273828D01*
X29834595Y-80389524D01*
X29917455Y-80431743D01*
X30009970Y-80478882D01*
X30009972Y-80478882D01*
X30009975Y-80478884D01*
X30110317Y-80511487D01*
X30197173Y-80539709D01*
X30391578Y-80570500D01*
X30391583Y-80570500D01*
X31388422Y-80570500D01*
X31582826Y-80539709D01*
X31770025Y-80478884D01*
X31945405Y-80389524D01*
X32104646Y-80273828D01*
X32243828Y-80134646D01*
X32359524Y-79975405D01*
X32448884Y-79800025D01*
X32509709Y-79612826D01*
X32540500Y-79418422D01*
X32540500Y-79221577D01*
X40649500Y-79221577D01*
X40649500Y-79418422D01*
X40680290Y-79612826D01*
X40741117Y-79800029D01*
X40830476Y-79975405D01*
X40946172Y-80134646D01*
X41085354Y-80273828D01*
X41244595Y-80389524D01*
X41327455Y-80431743D01*
X41419970Y-80478882D01*
X41419972Y-80478882D01*
X41419975Y-80478884D01*
X41520317Y-80511487D01*
X41607173Y-80539709D01*
X41801578Y-80570500D01*
X41801583Y-80570500D01*
X42798422Y-80570500D01*
X42992826Y-80539709D01*
X43180025Y-80478884D01*
X43355405Y-80389524D01*
X43514646Y-80273828D01*
X43653828Y-80134646D01*
X43769524Y-79975405D01*
X43858884Y-79800025D01*
X43919709Y-79612826D01*
X43950500Y-79418422D01*
X43950500Y-79221577D01*
X52079500Y-79221577D01*
X52079500Y-79418422D01*
X52110290Y-79612826D01*
X52171117Y-79800029D01*
X52260476Y-79975405D01*
X52376172Y-80134646D01*
X52515354Y-80273828D01*
X52674595Y-80389524D01*
X52757455Y-80431743D01*
X52849970Y-80478882D01*
X52849972Y-80478882D01*
X52849975Y-80478884D01*
X52950317Y-80511487D01*
X53037173Y-80539709D01*
X53231578Y-80570500D01*
X53231583Y-80570500D01*
X54228422Y-80570500D01*
X54422826Y-80539709D01*
X54610025Y-80478884D01*
X54785405Y-80389524D01*
X54944646Y-80273828D01*
X55083828Y-80134646D01*
X55199524Y-79975405D01*
X55288884Y-79800025D01*
X55349709Y-79612826D01*
X55380500Y-79418422D01*
X55380500Y-79221577D01*
X63509500Y-79221577D01*
X63509500Y-79418422D01*
X63540290Y-79612826D01*
X63601117Y-79800029D01*
X63690476Y-79975405D01*
X63806172Y-80134646D01*
X63945354Y-80273828D01*
X64104595Y-80389524D01*
X64187455Y-80431743D01*
X64279970Y-80478882D01*
X64279972Y-80478882D01*
X64279975Y-80478884D01*
X64380317Y-80511487D01*
X64467173Y-80539709D01*
X64661578Y-80570500D01*
X64661583Y-80570500D01*
X65658422Y-80570500D01*
X65852826Y-80539709D01*
X66040025Y-80478884D01*
X66215405Y-80389524D01*
X66374646Y-80273828D01*
X66513828Y-80134646D01*
X66629524Y-79975405D01*
X66718884Y-79800025D01*
X66779709Y-79612826D01*
X66810500Y-79418422D01*
X66810500Y-79221577D01*
X74939500Y-79221577D01*
X74939500Y-79418422D01*
X74970290Y-79612826D01*
X75031117Y-79800029D01*
X75120476Y-79975405D01*
X75236172Y-80134646D01*
X75375354Y-80273828D01*
X75534595Y-80389524D01*
X75617455Y-80431743D01*
X75709970Y-80478882D01*
X75709972Y-80478882D01*
X75709975Y-80478884D01*
X75810317Y-80511487D01*
X75897173Y-80539709D01*
X76091578Y-80570500D01*
X76091583Y-80570500D01*
X77088422Y-80570500D01*
X77282826Y-80539709D01*
X77470025Y-80478884D01*
X77645405Y-80389524D01*
X77804646Y-80273828D01*
X77943828Y-80134646D01*
X78059524Y-79975405D01*
X78148884Y-79800025D01*
X78209709Y-79612826D01*
X78240500Y-79418422D01*
X78240500Y-79221577D01*
X86369500Y-79221577D01*
X86369500Y-79418422D01*
X86400290Y-79612826D01*
X86461117Y-79800029D01*
X86550476Y-79975405D01*
X86666172Y-80134646D01*
X86805354Y-80273828D01*
X86964595Y-80389524D01*
X87047455Y-80431743D01*
X87139970Y-80478882D01*
X87139972Y-80478882D01*
X87139975Y-80478884D01*
X87240317Y-80511487D01*
X87327173Y-80539709D01*
X87521578Y-80570500D01*
X87521583Y-80570500D01*
X88518422Y-80570500D01*
X88712826Y-80539709D01*
X88900025Y-80478884D01*
X89075405Y-80389524D01*
X89234646Y-80273828D01*
X89373828Y-80134646D01*
X89489524Y-79975405D01*
X89578884Y-79800025D01*
X89639709Y-79612826D01*
X89670500Y-79418422D01*
X89670500Y-79221577D01*
X89639709Y-79027173D01*
X89578882Y-78839970D01*
X89489523Y-78664594D01*
X89373828Y-78505354D01*
X89234646Y-78366172D01*
X89075405Y-78250476D01*
X88900029Y-78161117D01*
X88712826Y-78100290D01*
X88518422Y-78069500D01*
X88518417Y-78069500D01*
X87521583Y-78069500D01*
X87521578Y-78069500D01*
X87327173Y-78100290D01*
X87139970Y-78161117D01*
X86964594Y-78250476D01*
X86953812Y-78258310D01*
X86805354Y-78366172D01*
X86805352Y-78366174D01*
X86805351Y-78366174D01*
X86666174Y-78505351D01*
X86666174Y-78505352D01*
X86666172Y-78505354D01*
X86632663Y-78551475D01*
X86550476Y-78664594D01*
X86461117Y-78839970D01*
X86400290Y-79027173D01*
X86369500Y-79221577D01*
X78240500Y-79221577D01*
X78209709Y-79027173D01*
X78148882Y-78839970D01*
X78059523Y-78664594D01*
X77943828Y-78505354D01*
X77804646Y-78366172D01*
X77645405Y-78250476D01*
X77470029Y-78161117D01*
X77282826Y-78100290D01*
X77088422Y-78069500D01*
X77088417Y-78069500D01*
X76091583Y-78069500D01*
X76091578Y-78069500D01*
X75897173Y-78100290D01*
X75709970Y-78161117D01*
X75534594Y-78250476D01*
X75523812Y-78258310D01*
X75375354Y-78366172D01*
X75375352Y-78366174D01*
X75375351Y-78366174D01*
X75236174Y-78505351D01*
X75236174Y-78505352D01*
X75236172Y-78505354D01*
X75202663Y-78551475D01*
X75120476Y-78664594D01*
X75031117Y-78839970D01*
X74970290Y-79027173D01*
X74939500Y-79221577D01*
X66810500Y-79221577D01*
X66779709Y-79027173D01*
X66718882Y-78839970D01*
X66629523Y-78664594D01*
X66513828Y-78505354D01*
X66374646Y-78366172D01*
X66215405Y-78250476D01*
X66040029Y-78161117D01*
X65852826Y-78100290D01*
X65658422Y-78069500D01*
X65658417Y-78069500D01*
X64661583Y-78069500D01*
X64661578Y-78069500D01*
X64467173Y-78100290D01*
X64279970Y-78161117D01*
X64104594Y-78250476D01*
X64093812Y-78258310D01*
X63945354Y-78366172D01*
X63945352Y-78366174D01*
X63945351Y-78366174D01*
X63806174Y-78505351D01*
X63806174Y-78505352D01*
X63806172Y-78505354D01*
X63772663Y-78551475D01*
X63690476Y-78664594D01*
X63601117Y-78839970D01*
X63540290Y-79027173D01*
X63509500Y-79221577D01*
X55380500Y-79221577D01*
X55349709Y-79027173D01*
X55288882Y-78839970D01*
X55199523Y-78664594D01*
X55083828Y-78505354D01*
X54944646Y-78366172D01*
X54785405Y-78250476D01*
X54610029Y-78161117D01*
X54422826Y-78100290D01*
X54228422Y-78069500D01*
X54228417Y-78069500D01*
X53231583Y-78069500D01*
X53231578Y-78069500D01*
X53037173Y-78100290D01*
X52849970Y-78161117D01*
X52674594Y-78250476D01*
X52663812Y-78258310D01*
X52515354Y-78366172D01*
X52515352Y-78366174D01*
X52515351Y-78366174D01*
X52376174Y-78505351D01*
X52376174Y-78505352D01*
X52376172Y-78505354D01*
X52342663Y-78551475D01*
X52260476Y-78664594D01*
X52171117Y-78839970D01*
X52110290Y-79027173D01*
X52079500Y-79221577D01*
X43950500Y-79221577D01*
X43919709Y-79027173D01*
X43858882Y-78839970D01*
X43769523Y-78664594D01*
X43653828Y-78505354D01*
X43514646Y-78366172D01*
X43355405Y-78250476D01*
X43180029Y-78161117D01*
X42992826Y-78100290D01*
X42798422Y-78069500D01*
X42798417Y-78069500D01*
X41801583Y-78069500D01*
X41801578Y-78069500D01*
X41607173Y-78100290D01*
X41419970Y-78161117D01*
X41244594Y-78250476D01*
X41233812Y-78258310D01*
X41085354Y-78366172D01*
X41085352Y-78366174D01*
X41085351Y-78366174D01*
X40946174Y-78505351D01*
X40946174Y-78505352D01*
X40946172Y-78505354D01*
X40912663Y-78551475D01*
X40830476Y-78664594D01*
X40741117Y-78839970D01*
X40680290Y-79027173D01*
X40649500Y-79221577D01*
X32540500Y-79221577D01*
X32509709Y-79027173D01*
X32448882Y-78839970D01*
X32359523Y-78664594D01*
X32243828Y-78505354D01*
X32104646Y-78366172D01*
X31945405Y-78250476D01*
X31770029Y-78161117D01*
X31582826Y-78100290D01*
X31388422Y-78069500D01*
X31388417Y-78069500D01*
X30391583Y-78069500D01*
X30391578Y-78069500D01*
X30197173Y-78100290D01*
X30009970Y-78161117D01*
X29834594Y-78250476D01*
X29823812Y-78258310D01*
X29675354Y-78366172D01*
X29675352Y-78366174D01*
X29675351Y-78366174D01*
X29536174Y-78505351D01*
X29536174Y-78505352D01*
X29536172Y-78505354D01*
X29502663Y-78551475D01*
X29420476Y-78664594D01*
X29331117Y-78839970D01*
X29270290Y-79027173D01*
X29239500Y-79221577D01*
X25553943Y-79221577D01*
X25649029Y-79075158D01*
X25656631Y-79064695D01*
X25866483Y-78805548D01*
X25875150Y-78795923D01*
X26110923Y-78560150D01*
X26120548Y-78551483D01*
X26379695Y-78341631D01*
X26390158Y-78334029D01*
X26669816Y-78152417D01*
X26681014Y-78145951D01*
X26978133Y-77994561D01*
X26989954Y-77989298D01*
X27301256Y-77869801D01*
X27313571Y-77865799D01*
X27635661Y-77779496D01*
X27648318Y-77776806D01*
X27977643Y-77724646D01*
X27990547Y-77723290D01*
X28326756Y-77705669D01*
X28333246Y-77705500D01*
X28395892Y-77705500D01*
X90494108Y-77705500D01*
X90556754Y-77705500D01*
X90563243Y-77705669D01*
G37*
%TD.AperFunction*%
%TD*%
M02*
