%TF.GenerationSoftware,KiCad,Pcbnew,9.0.1*%
%TF.CreationDate,2025-04-23T20:11:47+09:00*%
%TF.ProjectId,RDC_Humanoid_CAN_chain,5244435f-4875-46d6-916e-6f69645f4341,rev?*%
%TF.SameCoordinates,Original*%
%TF.FileFunction,Legend,Bot*%
%TF.FilePolarity,Positive*%
%FSLAX46Y46*%
G04 Gerber Fmt 4.6, Leading zero omitted, Abs format (unit mm)*
G04 Created by KiCad (PCBNEW 9.0.1) date 2025-04-23 20:11:47*
%MOMM*%
%LPD*%
G01*
G04 APERTURE LIST*
%ADD10C,0.130000*%
G04 APERTURE END LIST*
D10*
X85766854Y-94705560D02*
X86033521Y-94324607D01*
X86223997Y-94705560D02*
X86223997Y-93905560D01*
X86223997Y-93905560D02*
X85919235Y-93905560D01*
X85919235Y-93905560D02*
X85843045Y-93943655D01*
X85843045Y-93943655D02*
X85804950Y-93981750D01*
X85804950Y-93981750D02*
X85766854Y-94057941D01*
X85766854Y-94057941D02*
X85766854Y-94172226D01*
X85766854Y-94172226D02*
X85804950Y-94248417D01*
X85804950Y-94248417D02*
X85843045Y-94286512D01*
X85843045Y-94286512D02*
X85919235Y-94324607D01*
X85919235Y-94324607D02*
X86223997Y-94324607D01*
X85423997Y-94705560D02*
X85423997Y-93905560D01*
X85423997Y-93905560D02*
X85233521Y-93905560D01*
X85233521Y-93905560D02*
X85119235Y-93943655D01*
X85119235Y-93943655D02*
X85043045Y-94019845D01*
X85043045Y-94019845D02*
X85004950Y-94096036D01*
X85004950Y-94096036D02*
X84966854Y-94248417D01*
X84966854Y-94248417D02*
X84966854Y-94362703D01*
X84966854Y-94362703D02*
X85004950Y-94515084D01*
X85004950Y-94515084D02*
X85043045Y-94591274D01*
X85043045Y-94591274D02*
X85119235Y-94667465D01*
X85119235Y-94667465D02*
X85233521Y-94705560D01*
X85233521Y-94705560D02*
X85423997Y-94705560D01*
X84166854Y-94629369D02*
X84204950Y-94667465D01*
X84204950Y-94667465D02*
X84319235Y-94705560D01*
X84319235Y-94705560D02*
X84395426Y-94705560D01*
X84395426Y-94705560D02*
X84509712Y-94667465D01*
X84509712Y-94667465D02*
X84585902Y-94591274D01*
X84585902Y-94591274D02*
X84623997Y-94515084D01*
X84623997Y-94515084D02*
X84662093Y-94362703D01*
X84662093Y-94362703D02*
X84662093Y-94248417D01*
X84662093Y-94248417D02*
X84623997Y-94096036D01*
X84623997Y-94096036D02*
X84585902Y-94019845D01*
X84585902Y-94019845D02*
X84509712Y-93943655D01*
X84509712Y-93943655D02*
X84395426Y-93905560D01*
X84395426Y-93905560D02*
X84319235Y-93905560D01*
X84319235Y-93905560D02*
X84204950Y-93943655D01*
X84204950Y-93943655D02*
X84166854Y-93981750D01*
X84014474Y-94781750D02*
X83404950Y-94781750D01*
X82947807Y-94286512D02*
X82833521Y-94324607D01*
X82833521Y-94324607D02*
X82795426Y-94362703D01*
X82795426Y-94362703D02*
X82757330Y-94438893D01*
X82757330Y-94438893D02*
X82757330Y-94553179D01*
X82757330Y-94553179D02*
X82795426Y-94629369D01*
X82795426Y-94629369D02*
X82833521Y-94667465D01*
X82833521Y-94667465D02*
X82909711Y-94705560D01*
X82909711Y-94705560D02*
X83214473Y-94705560D01*
X83214473Y-94705560D02*
X83214473Y-93905560D01*
X83214473Y-93905560D02*
X82947807Y-93905560D01*
X82947807Y-93905560D02*
X82871616Y-93943655D01*
X82871616Y-93943655D02*
X82833521Y-93981750D01*
X82833521Y-93981750D02*
X82795426Y-94057941D01*
X82795426Y-94057941D02*
X82795426Y-94134131D01*
X82795426Y-94134131D02*
X82833521Y-94210322D01*
X82833521Y-94210322D02*
X82871616Y-94248417D01*
X82871616Y-94248417D02*
X82947807Y-94286512D01*
X82947807Y-94286512D02*
X83214473Y-94286512D01*
X82414473Y-94705560D02*
X82414473Y-94172226D01*
X82414473Y-93905560D02*
X82452569Y-93943655D01*
X82452569Y-93943655D02*
X82414473Y-93981750D01*
X82414473Y-93981750D02*
X82376378Y-93943655D01*
X82376378Y-93943655D02*
X82414473Y-93905560D01*
X82414473Y-93905560D02*
X82414473Y-93981750D01*
X82033521Y-94172226D02*
X82033521Y-94972226D01*
X82033521Y-94210322D02*
X81957331Y-94172226D01*
X81957331Y-94172226D02*
X81804950Y-94172226D01*
X81804950Y-94172226D02*
X81728759Y-94210322D01*
X81728759Y-94210322D02*
X81690664Y-94248417D01*
X81690664Y-94248417D02*
X81652569Y-94324607D01*
X81652569Y-94324607D02*
X81652569Y-94553179D01*
X81652569Y-94553179D02*
X81690664Y-94629369D01*
X81690664Y-94629369D02*
X81728759Y-94667465D01*
X81728759Y-94667465D02*
X81804950Y-94705560D01*
X81804950Y-94705560D02*
X81957331Y-94705560D01*
X81957331Y-94705560D02*
X82033521Y-94667465D01*
X81004949Y-94667465D02*
X81081140Y-94705560D01*
X81081140Y-94705560D02*
X81233521Y-94705560D01*
X81233521Y-94705560D02*
X81309711Y-94667465D01*
X81309711Y-94667465D02*
X81347807Y-94591274D01*
X81347807Y-94591274D02*
X81347807Y-94286512D01*
X81347807Y-94286512D02*
X81309711Y-94210322D01*
X81309711Y-94210322D02*
X81233521Y-94172226D01*
X81233521Y-94172226D02*
X81081140Y-94172226D01*
X81081140Y-94172226D02*
X81004949Y-94210322D01*
X81004949Y-94210322D02*
X80966854Y-94286512D01*
X80966854Y-94286512D02*
X80966854Y-94362703D01*
X80966854Y-94362703D02*
X81347807Y-94438893D01*
X80281140Y-94705560D02*
X80281140Y-93905560D01*
X80281140Y-94667465D02*
X80357331Y-94705560D01*
X80357331Y-94705560D02*
X80509712Y-94705560D01*
X80509712Y-94705560D02*
X80585902Y-94667465D01*
X80585902Y-94667465D02*
X80623997Y-94629369D01*
X80623997Y-94629369D02*
X80662093Y-94553179D01*
X80662093Y-94553179D02*
X80662093Y-94324607D01*
X80662093Y-94324607D02*
X80623997Y-94248417D01*
X80623997Y-94248417D02*
X80585902Y-94210322D01*
X80585902Y-94210322D02*
X80509712Y-94172226D01*
X80509712Y-94172226D02*
X80357331Y-94172226D01*
X80357331Y-94172226D02*
X80281140Y-94210322D01*
X79557330Y-94705560D02*
X79557330Y-94286512D01*
X79557330Y-94286512D02*
X79595425Y-94210322D01*
X79595425Y-94210322D02*
X79671616Y-94172226D01*
X79671616Y-94172226D02*
X79823997Y-94172226D01*
X79823997Y-94172226D02*
X79900187Y-94210322D01*
X79557330Y-94667465D02*
X79633521Y-94705560D01*
X79633521Y-94705560D02*
X79823997Y-94705560D01*
X79823997Y-94705560D02*
X79900187Y-94667465D01*
X79900187Y-94667465D02*
X79938283Y-94591274D01*
X79938283Y-94591274D02*
X79938283Y-94515084D01*
X79938283Y-94515084D02*
X79900187Y-94438893D01*
X79900187Y-94438893D02*
X79823997Y-94400798D01*
X79823997Y-94400798D02*
X79633521Y-94400798D01*
X79633521Y-94400798D02*
X79557330Y-94362703D01*
X79062092Y-94705560D02*
X79138282Y-94667465D01*
X79138282Y-94667465D02*
X79176377Y-94591274D01*
X79176377Y-94591274D02*
X79176377Y-93905560D01*
X78947806Y-94781750D02*
X78338282Y-94781750D01*
X77690662Y-94705560D02*
X77957329Y-94324607D01*
X78147805Y-94705560D02*
X78147805Y-93905560D01*
X78147805Y-93905560D02*
X77843043Y-93905560D01*
X77843043Y-93905560D02*
X77766853Y-93943655D01*
X77766853Y-93943655D02*
X77728758Y-93981750D01*
X77728758Y-93981750D02*
X77690662Y-94057941D01*
X77690662Y-94057941D02*
X77690662Y-94172226D01*
X77690662Y-94172226D02*
X77728758Y-94248417D01*
X77728758Y-94248417D02*
X77766853Y-94286512D01*
X77766853Y-94286512D02*
X77843043Y-94324607D01*
X77843043Y-94324607D02*
X78147805Y-94324607D01*
X77233520Y-94705560D02*
X77309710Y-94667465D01*
X77309710Y-94667465D02*
X77347805Y-94629369D01*
X77347805Y-94629369D02*
X77385901Y-94553179D01*
X77385901Y-94553179D02*
X77385901Y-94324607D01*
X77385901Y-94324607D02*
X77347805Y-94248417D01*
X77347805Y-94248417D02*
X77309710Y-94210322D01*
X77309710Y-94210322D02*
X77233520Y-94172226D01*
X77233520Y-94172226D02*
X77119234Y-94172226D01*
X77119234Y-94172226D02*
X77043043Y-94210322D01*
X77043043Y-94210322D02*
X77004948Y-94248417D01*
X77004948Y-94248417D02*
X76966853Y-94324607D01*
X76966853Y-94324607D02*
X76966853Y-94553179D01*
X76966853Y-94553179D02*
X77004948Y-94629369D01*
X77004948Y-94629369D02*
X77043043Y-94667465D01*
X77043043Y-94667465D02*
X77119234Y-94705560D01*
X77119234Y-94705560D02*
X77233520Y-94705560D01*
X76623995Y-94705560D02*
X76623995Y-93905560D01*
X76623995Y-94210322D02*
X76547805Y-94172226D01*
X76547805Y-94172226D02*
X76395424Y-94172226D01*
X76395424Y-94172226D02*
X76319233Y-94210322D01*
X76319233Y-94210322D02*
X76281138Y-94248417D01*
X76281138Y-94248417D02*
X76243043Y-94324607D01*
X76243043Y-94324607D02*
X76243043Y-94553179D01*
X76243043Y-94553179D02*
X76281138Y-94629369D01*
X76281138Y-94629369D02*
X76319233Y-94667465D01*
X76319233Y-94667465D02*
X76395424Y-94705560D01*
X76395424Y-94705560D02*
X76547805Y-94705560D01*
X76547805Y-94705560D02*
X76623995Y-94667465D01*
X75785900Y-94705560D02*
X75862090Y-94667465D01*
X75862090Y-94667465D02*
X75900185Y-94629369D01*
X75900185Y-94629369D02*
X75938281Y-94553179D01*
X75938281Y-94553179D02*
X75938281Y-94324607D01*
X75938281Y-94324607D02*
X75900185Y-94248417D01*
X75900185Y-94248417D02*
X75862090Y-94210322D01*
X75862090Y-94210322D02*
X75785900Y-94172226D01*
X75785900Y-94172226D02*
X75671614Y-94172226D01*
X75671614Y-94172226D02*
X75595423Y-94210322D01*
X75595423Y-94210322D02*
X75557328Y-94248417D01*
X75557328Y-94248417D02*
X75519233Y-94324607D01*
X75519233Y-94324607D02*
X75519233Y-94553179D01*
X75519233Y-94553179D02*
X75557328Y-94629369D01*
X75557328Y-94629369D02*
X75595423Y-94667465D01*
X75595423Y-94667465D02*
X75671614Y-94705560D01*
X75671614Y-94705560D02*
X75785900Y-94705560D01*
X75290661Y-94172226D02*
X74985899Y-94172226D01*
X75176375Y-93905560D02*
X75176375Y-94591274D01*
X75176375Y-94591274D02*
X75138280Y-94667465D01*
X75138280Y-94667465D02*
X75062090Y-94705560D01*
X75062090Y-94705560D02*
X74985899Y-94705560D01*
X86223997Y-95688753D02*
X85614474Y-95688753D01*
X84166854Y-95917324D02*
X84204950Y-95955420D01*
X84204950Y-95955420D02*
X84319235Y-95993515D01*
X84319235Y-95993515D02*
X84395426Y-95993515D01*
X84395426Y-95993515D02*
X84509712Y-95955420D01*
X84509712Y-95955420D02*
X84585902Y-95879229D01*
X84585902Y-95879229D02*
X84623997Y-95803039D01*
X84623997Y-95803039D02*
X84662093Y-95650658D01*
X84662093Y-95650658D02*
X84662093Y-95536372D01*
X84662093Y-95536372D02*
X84623997Y-95383991D01*
X84623997Y-95383991D02*
X84585902Y-95307800D01*
X84585902Y-95307800D02*
X84509712Y-95231610D01*
X84509712Y-95231610D02*
X84395426Y-95193515D01*
X84395426Y-95193515D02*
X84319235Y-95193515D01*
X84319235Y-95193515D02*
X84204950Y-95231610D01*
X84204950Y-95231610D02*
X84166854Y-95269705D01*
X83823997Y-95993515D02*
X83823997Y-95460181D01*
X83823997Y-95193515D02*
X83862093Y-95231610D01*
X83862093Y-95231610D02*
X83823997Y-95269705D01*
X83823997Y-95269705D02*
X83785902Y-95231610D01*
X83785902Y-95231610D02*
X83823997Y-95193515D01*
X83823997Y-95193515D02*
X83823997Y-95269705D01*
X83443045Y-95993515D02*
X83443045Y-95460181D01*
X83443045Y-95612562D02*
X83404950Y-95536372D01*
X83404950Y-95536372D02*
X83366855Y-95498277D01*
X83366855Y-95498277D02*
X83290664Y-95460181D01*
X83290664Y-95460181D02*
X83214474Y-95460181D01*
X82604950Y-95955420D02*
X82681141Y-95993515D01*
X82681141Y-95993515D02*
X82833522Y-95993515D01*
X82833522Y-95993515D02*
X82909712Y-95955420D01*
X82909712Y-95955420D02*
X82947807Y-95917324D01*
X82947807Y-95917324D02*
X82985903Y-95841134D01*
X82985903Y-95841134D02*
X82985903Y-95612562D01*
X82985903Y-95612562D02*
X82947807Y-95536372D01*
X82947807Y-95536372D02*
X82909712Y-95498277D01*
X82909712Y-95498277D02*
X82833522Y-95460181D01*
X82833522Y-95460181D02*
X82681141Y-95460181D01*
X82681141Y-95460181D02*
X82604950Y-95498277D01*
X81919236Y-95460181D02*
X81919236Y-95993515D01*
X82262093Y-95460181D02*
X82262093Y-95879229D01*
X82262093Y-95879229D02*
X82223998Y-95955420D01*
X82223998Y-95955420D02*
X82147808Y-95993515D01*
X82147808Y-95993515D02*
X82033522Y-95993515D01*
X82033522Y-95993515D02*
X81957331Y-95955420D01*
X81957331Y-95955420D02*
X81919236Y-95917324D01*
X81538283Y-95993515D02*
X81538283Y-95460181D01*
X81538283Y-95193515D02*
X81576379Y-95231610D01*
X81576379Y-95231610D02*
X81538283Y-95269705D01*
X81538283Y-95269705D02*
X81500188Y-95231610D01*
X81500188Y-95231610D02*
X81538283Y-95193515D01*
X81538283Y-95193515D02*
X81538283Y-95269705D01*
X81271617Y-95460181D02*
X80966855Y-95460181D01*
X81157331Y-95193515D02*
X81157331Y-95879229D01*
X81157331Y-95879229D02*
X81119236Y-95955420D01*
X81119236Y-95955420D02*
X81043046Y-95993515D01*
X81043046Y-95993515D02*
X80966855Y-95993515D01*
X80090664Y-95993515D02*
X80090664Y-95193515D01*
X80090664Y-95193515D02*
X79633521Y-95993515D01*
X79633521Y-95993515D02*
X79633521Y-95193515D01*
X78909712Y-95993515D02*
X78909712Y-95574467D01*
X78909712Y-95574467D02*
X78947807Y-95498277D01*
X78947807Y-95498277D02*
X79023998Y-95460181D01*
X79023998Y-95460181D02*
X79176379Y-95460181D01*
X79176379Y-95460181D02*
X79252569Y-95498277D01*
X78909712Y-95955420D02*
X78985903Y-95993515D01*
X78985903Y-95993515D02*
X79176379Y-95993515D01*
X79176379Y-95993515D02*
X79252569Y-95955420D01*
X79252569Y-95955420D02*
X79290665Y-95879229D01*
X79290665Y-95879229D02*
X79290665Y-95803039D01*
X79290665Y-95803039D02*
X79252569Y-95726848D01*
X79252569Y-95726848D02*
X79176379Y-95688753D01*
X79176379Y-95688753D02*
X78985903Y-95688753D01*
X78985903Y-95688753D02*
X78909712Y-95650658D01*
X78528759Y-95993515D02*
X78528759Y-95460181D01*
X78528759Y-95536372D02*
X78490664Y-95498277D01*
X78490664Y-95498277D02*
X78414474Y-95460181D01*
X78414474Y-95460181D02*
X78300188Y-95460181D01*
X78300188Y-95460181D02*
X78223997Y-95498277D01*
X78223997Y-95498277D02*
X78185902Y-95574467D01*
X78185902Y-95574467D02*
X78185902Y-95993515D01*
X78185902Y-95574467D02*
X78147807Y-95498277D01*
X78147807Y-95498277D02*
X78071616Y-95460181D01*
X78071616Y-95460181D02*
X77957331Y-95460181D01*
X77957331Y-95460181D02*
X77881140Y-95498277D01*
X77881140Y-95498277D02*
X77843045Y-95574467D01*
X77843045Y-95574467D02*
X77843045Y-95993515D01*
X77157330Y-95955420D02*
X77233521Y-95993515D01*
X77233521Y-95993515D02*
X77385902Y-95993515D01*
X77385902Y-95993515D02*
X77462092Y-95955420D01*
X77462092Y-95955420D02*
X77500188Y-95879229D01*
X77500188Y-95879229D02*
X77500188Y-95574467D01*
X77500188Y-95574467D02*
X77462092Y-95498277D01*
X77462092Y-95498277D02*
X77385902Y-95460181D01*
X77385902Y-95460181D02*
X77233521Y-95460181D01*
X77233521Y-95460181D02*
X77157330Y-95498277D01*
X77157330Y-95498277D02*
X77119235Y-95574467D01*
X77119235Y-95574467D02*
X77119235Y-95650658D01*
X77119235Y-95650658D02*
X77500188Y-95726848D01*
X76166854Y-95917324D02*
X76128759Y-95955420D01*
X76128759Y-95955420D02*
X76166854Y-95993515D01*
X76166854Y-95993515D02*
X76204950Y-95955420D01*
X76204950Y-95955420D02*
X76166854Y-95917324D01*
X76166854Y-95917324D02*
X76166854Y-95993515D01*
X76166854Y-95498277D02*
X76128759Y-95536372D01*
X76128759Y-95536372D02*
X76166854Y-95574467D01*
X76166854Y-95574467D02*
X76204950Y-95536372D01*
X76204950Y-95536372D02*
X76166854Y-95498277D01*
X76166854Y-95498277D02*
X76166854Y-95574467D01*
X74719235Y-95917324D02*
X74757331Y-95955420D01*
X74757331Y-95955420D02*
X74871616Y-95993515D01*
X74871616Y-95993515D02*
X74947807Y-95993515D01*
X74947807Y-95993515D02*
X75062093Y-95955420D01*
X75062093Y-95955420D02*
X75138283Y-95879229D01*
X75138283Y-95879229D02*
X75176378Y-95803039D01*
X75176378Y-95803039D02*
X75214474Y-95650658D01*
X75214474Y-95650658D02*
X75214474Y-95536372D01*
X75214474Y-95536372D02*
X75176378Y-95383991D01*
X75176378Y-95383991D02*
X75138283Y-95307800D01*
X75138283Y-95307800D02*
X75062093Y-95231610D01*
X75062093Y-95231610D02*
X74947807Y-95193515D01*
X74947807Y-95193515D02*
X74871616Y-95193515D01*
X74871616Y-95193515D02*
X74757331Y-95231610D01*
X74757331Y-95231610D02*
X74719235Y-95269705D01*
X74414474Y-95764943D02*
X74033521Y-95764943D01*
X74490664Y-95993515D02*
X74223997Y-95193515D01*
X74223997Y-95193515D02*
X73957331Y-95993515D01*
X73690664Y-95993515D02*
X73690664Y-95193515D01*
X73690664Y-95193515D02*
X73233521Y-95993515D01*
X73233521Y-95993515D02*
X73233521Y-95193515D01*
X73043046Y-96069705D02*
X72433522Y-96069705D01*
X71785902Y-95917324D02*
X71823998Y-95955420D01*
X71823998Y-95955420D02*
X71938283Y-95993515D01*
X71938283Y-95993515D02*
X72014474Y-95993515D01*
X72014474Y-95993515D02*
X72128760Y-95955420D01*
X72128760Y-95955420D02*
X72204950Y-95879229D01*
X72204950Y-95879229D02*
X72243045Y-95803039D01*
X72243045Y-95803039D02*
X72281141Y-95650658D01*
X72281141Y-95650658D02*
X72281141Y-95536372D01*
X72281141Y-95536372D02*
X72243045Y-95383991D01*
X72243045Y-95383991D02*
X72204950Y-95307800D01*
X72204950Y-95307800D02*
X72128760Y-95231610D01*
X72128760Y-95231610D02*
X72014474Y-95193515D01*
X72014474Y-95193515D02*
X71938283Y-95193515D01*
X71938283Y-95193515D02*
X71823998Y-95231610D01*
X71823998Y-95231610D02*
X71785902Y-95269705D01*
X71443045Y-95993515D02*
X71443045Y-95193515D01*
X71100188Y-95993515D02*
X71100188Y-95574467D01*
X71100188Y-95574467D02*
X71138283Y-95498277D01*
X71138283Y-95498277D02*
X71214474Y-95460181D01*
X71214474Y-95460181D02*
X71328760Y-95460181D01*
X71328760Y-95460181D02*
X71404950Y-95498277D01*
X71404950Y-95498277D02*
X71443045Y-95536372D01*
X70376378Y-95993515D02*
X70376378Y-95574467D01*
X70376378Y-95574467D02*
X70414473Y-95498277D01*
X70414473Y-95498277D02*
X70490664Y-95460181D01*
X70490664Y-95460181D02*
X70643045Y-95460181D01*
X70643045Y-95460181D02*
X70719235Y-95498277D01*
X70376378Y-95955420D02*
X70452569Y-95993515D01*
X70452569Y-95993515D02*
X70643045Y-95993515D01*
X70643045Y-95993515D02*
X70719235Y-95955420D01*
X70719235Y-95955420D02*
X70757331Y-95879229D01*
X70757331Y-95879229D02*
X70757331Y-95803039D01*
X70757331Y-95803039D02*
X70719235Y-95726848D01*
X70719235Y-95726848D02*
X70643045Y-95688753D01*
X70643045Y-95688753D02*
X70452569Y-95688753D01*
X70452569Y-95688753D02*
X70376378Y-95650658D01*
X69995425Y-95993515D02*
X69995425Y-95460181D01*
X69995425Y-95193515D02*
X70033521Y-95231610D01*
X70033521Y-95231610D02*
X69995425Y-95269705D01*
X69995425Y-95269705D02*
X69957330Y-95231610D01*
X69957330Y-95231610D02*
X69995425Y-95193515D01*
X69995425Y-95193515D02*
X69995425Y-95269705D01*
X69614473Y-95460181D02*
X69614473Y-95993515D01*
X69614473Y-95536372D02*
X69576378Y-95498277D01*
X69576378Y-95498277D02*
X69500188Y-95460181D01*
X69500188Y-95460181D02*
X69385902Y-95460181D01*
X69385902Y-95460181D02*
X69309711Y-95498277D01*
X69309711Y-95498277D02*
X69271616Y-95574467D01*
X69271616Y-95574467D02*
X69271616Y-95993515D01*
X86223997Y-96976708D02*
X85614474Y-96976708D01*
X84738283Y-96481470D02*
X84471616Y-97281470D01*
X84471616Y-97281470D02*
X84204950Y-96481470D01*
X83633521Y-97243375D02*
X83709712Y-97281470D01*
X83709712Y-97281470D02*
X83862093Y-97281470D01*
X83862093Y-97281470D02*
X83938283Y-97243375D01*
X83938283Y-97243375D02*
X83976379Y-97167184D01*
X83976379Y-97167184D02*
X83976379Y-96862422D01*
X83976379Y-96862422D02*
X83938283Y-96786232D01*
X83938283Y-96786232D02*
X83862093Y-96748136D01*
X83862093Y-96748136D02*
X83709712Y-96748136D01*
X83709712Y-96748136D02*
X83633521Y-96786232D01*
X83633521Y-96786232D02*
X83595426Y-96862422D01*
X83595426Y-96862422D02*
X83595426Y-96938613D01*
X83595426Y-96938613D02*
X83976379Y-97014803D01*
X83252569Y-97281470D02*
X83252569Y-96748136D01*
X83252569Y-96900517D02*
X83214474Y-96824327D01*
X83214474Y-96824327D02*
X83176379Y-96786232D01*
X83176379Y-96786232D02*
X83100188Y-96748136D01*
X83100188Y-96748136D02*
X83023998Y-96748136D01*
X82795427Y-97243375D02*
X82719236Y-97281470D01*
X82719236Y-97281470D02*
X82566855Y-97281470D01*
X82566855Y-97281470D02*
X82490665Y-97243375D01*
X82490665Y-97243375D02*
X82452569Y-97167184D01*
X82452569Y-97167184D02*
X82452569Y-97129089D01*
X82452569Y-97129089D02*
X82490665Y-97052898D01*
X82490665Y-97052898D02*
X82566855Y-97014803D01*
X82566855Y-97014803D02*
X82681141Y-97014803D01*
X82681141Y-97014803D02*
X82757331Y-96976708D01*
X82757331Y-96976708D02*
X82795427Y-96900517D01*
X82795427Y-96900517D02*
X82795427Y-96862422D01*
X82795427Y-96862422D02*
X82757331Y-96786232D01*
X82757331Y-96786232D02*
X82681141Y-96748136D01*
X82681141Y-96748136D02*
X82566855Y-96748136D01*
X82566855Y-96748136D02*
X82490665Y-96786232D01*
X82109712Y-97281470D02*
X82109712Y-96748136D01*
X82109712Y-96481470D02*
X82147808Y-96519565D01*
X82147808Y-96519565D02*
X82109712Y-96557660D01*
X82109712Y-96557660D02*
X82071617Y-96519565D01*
X82071617Y-96519565D02*
X82109712Y-96481470D01*
X82109712Y-96481470D02*
X82109712Y-96557660D01*
X81614475Y-97281470D02*
X81690665Y-97243375D01*
X81690665Y-97243375D02*
X81728760Y-97205279D01*
X81728760Y-97205279D02*
X81766856Y-97129089D01*
X81766856Y-97129089D02*
X81766856Y-96900517D01*
X81766856Y-96900517D02*
X81728760Y-96824327D01*
X81728760Y-96824327D02*
X81690665Y-96786232D01*
X81690665Y-96786232D02*
X81614475Y-96748136D01*
X81614475Y-96748136D02*
X81500189Y-96748136D01*
X81500189Y-96748136D02*
X81423998Y-96786232D01*
X81423998Y-96786232D02*
X81385903Y-96824327D01*
X81385903Y-96824327D02*
X81347808Y-96900517D01*
X81347808Y-96900517D02*
X81347808Y-97129089D01*
X81347808Y-97129089D02*
X81385903Y-97205279D01*
X81385903Y-97205279D02*
X81423998Y-97243375D01*
X81423998Y-97243375D02*
X81500189Y-97281470D01*
X81500189Y-97281470D02*
X81614475Y-97281470D01*
X81004950Y-96748136D02*
X81004950Y-97281470D01*
X81004950Y-96824327D02*
X80966855Y-96786232D01*
X80966855Y-96786232D02*
X80890665Y-96748136D01*
X80890665Y-96748136D02*
X80776379Y-96748136D01*
X80776379Y-96748136D02*
X80700188Y-96786232D01*
X80700188Y-96786232D02*
X80662093Y-96862422D01*
X80662093Y-96862422D02*
X80662093Y-97281470D01*
X76014472Y-97205279D02*
X75976377Y-97243375D01*
X75976377Y-97243375D02*
X76014472Y-97281470D01*
X76014472Y-97281470D02*
X76052568Y-97243375D01*
X76052568Y-97243375D02*
X76014472Y-97205279D01*
X76014472Y-97205279D02*
X76014472Y-97281470D01*
X76014472Y-96786232D02*
X75976377Y-96824327D01*
X75976377Y-96824327D02*
X76014472Y-96862422D01*
X76014472Y-96862422D02*
X76052568Y-96824327D01*
X76052568Y-96824327D02*
X76014472Y-96786232D01*
X76014472Y-96786232D02*
X76014472Y-96862422D01*
X74604949Y-97281470D02*
X75062092Y-97281470D01*
X74833520Y-97281470D02*
X74833520Y-96481470D01*
X74833520Y-96481470D02*
X74909711Y-96595755D01*
X74909711Y-96595755D02*
X74985901Y-96671946D01*
X74985901Y-96671946D02*
X75062092Y-96710041D01*
X74262091Y-97205279D02*
X74223996Y-97243375D01*
X74223996Y-97243375D02*
X74262091Y-97281470D01*
X74262091Y-97281470D02*
X74300187Y-97243375D01*
X74300187Y-97243375D02*
X74262091Y-97205279D01*
X74262091Y-97205279D02*
X74262091Y-97281470D01*
X73728758Y-96481470D02*
X73652568Y-96481470D01*
X73652568Y-96481470D02*
X73576377Y-96519565D01*
X73576377Y-96519565D02*
X73538282Y-96557660D01*
X73538282Y-96557660D02*
X73500187Y-96633851D01*
X73500187Y-96633851D02*
X73462092Y-96786232D01*
X73462092Y-96786232D02*
X73462092Y-96976708D01*
X73462092Y-96976708D02*
X73500187Y-97129089D01*
X73500187Y-97129089D02*
X73538282Y-97205279D01*
X73538282Y-97205279D02*
X73576377Y-97243375D01*
X73576377Y-97243375D02*
X73652568Y-97281470D01*
X73652568Y-97281470D02*
X73728758Y-97281470D01*
X73728758Y-97281470D02*
X73804949Y-97243375D01*
X73804949Y-97243375D02*
X73843044Y-97205279D01*
X73843044Y-97205279D02*
X73881139Y-97129089D01*
X73881139Y-97129089D02*
X73919235Y-96976708D01*
X73919235Y-96976708D02*
X73919235Y-96786232D01*
X73919235Y-96786232D02*
X73881139Y-96633851D01*
X73881139Y-96633851D02*
X73843044Y-96557660D01*
X73843044Y-96557660D02*
X73804949Y-96519565D01*
X73804949Y-96519565D02*
X73728758Y-96481470D01*
X86223997Y-98264663D02*
X85614474Y-98264663D01*
X84623997Y-98569425D02*
X84623997Y-97769425D01*
X84623997Y-97769425D02*
X84433521Y-97769425D01*
X84433521Y-97769425D02*
X84319235Y-97807520D01*
X84319235Y-97807520D02*
X84243045Y-97883710D01*
X84243045Y-97883710D02*
X84204950Y-97959901D01*
X84204950Y-97959901D02*
X84166854Y-98112282D01*
X84166854Y-98112282D02*
X84166854Y-98226568D01*
X84166854Y-98226568D02*
X84204950Y-98378949D01*
X84204950Y-98378949D02*
X84243045Y-98455139D01*
X84243045Y-98455139D02*
X84319235Y-98531330D01*
X84319235Y-98531330D02*
X84433521Y-98569425D01*
X84433521Y-98569425D02*
X84623997Y-98569425D01*
X83519235Y-98531330D02*
X83595426Y-98569425D01*
X83595426Y-98569425D02*
X83747807Y-98569425D01*
X83747807Y-98569425D02*
X83823997Y-98531330D01*
X83823997Y-98531330D02*
X83862093Y-98455139D01*
X83862093Y-98455139D02*
X83862093Y-98150377D01*
X83862093Y-98150377D02*
X83823997Y-98074187D01*
X83823997Y-98074187D02*
X83747807Y-98036091D01*
X83747807Y-98036091D02*
X83595426Y-98036091D01*
X83595426Y-98036091D02*
X83519235Y-98074187D01*
X83519235Y-98074187D02*
X83481140Y-98150377D01*
X83481140Y-98150377D02*
X83481140Y-98226568D01*
X83481140Y-98226568D02*
X83862093Y-98302758D01*
X83176379Y-98531330D02*
X83100188Y-98569425D01*
X83100188Y-98569425D02*
X82947807Y-98569425D01*
X82947807Y-98569425D02*
X82871617Y-98531330D01*
X82871617Y-98531330D02*
X82833521Y-98455139D01*
X82833521Y-98455139D02*
X82833521Y-98417044D01*
X82833521Y-98417044D02*
X82871617Y-98340853D01*
X82871617Y-98340853D02*
X82947807Y-98302758D01*
X82947807Y-98302758D02*
X83062093Y-98302758D01*
X83062093Y-98302758D02*
X83138283Y-98264663D01*
X83138283Y-98264663D02*
X83176379Y-98188472D01*
X83176379Y-98188472D02*
X83176379Y-98150377D01*
X83176379Y-98150377D02*
X83138283Y-98074187D01*
X83138283Y-98074187D02*
X83062093Y-98036091D01*
X83062093Y-98036091D02*
X82947807Y-98036091D01*
X82947807Y-98036091D02*
X82871617Y-98074187D01*
X82490664Y-98569425D02*
X82490664Y-98036091D01*
X82490664Y-97769425D02*
X82528760Y-97807520D01*
X82528760Y-97807520D02*
X82490664Y-97845615D01*
X82490664Y-97845615D02*
X82452569Y-97807520D01*
X82452569Y-97807520D02*
X82490664Y-97769425D01*
X82490664Y-97769425D02*
X82490664Y-97845615D01*
X81766855Y-98036091D02*
X81766855Y-98683710D01*
X81766855Y-98683710D02*
X81804950Y-98759901D01*
X81804950Y-98759901D02*
X81843046Y-98797996D01*
X81843046Y-98797996D02*
X81919236Y-98836091D01*
X81919236Y-98836091D02*
X82033522Y-98836091D01*
X82033522Y-98836091D02*
X82109712Y-98797996D01*
X81766855Y-98531330D02*
X81843046Y-98569425D01*
X81843046Y-98569425D02*
X81995427Y-98569425D01*
X81995427Y-98569425D02*
X82071617Y-98531330D01*
X82071617Y-98531330D02*
X82109712Y-98493234D01*
X82109712Y-98493234D02*
X82147808Y-98417044D01*
X82147808Y-98417044D02*
X82147808Y-98188472D01*
X82147808Y-98188472D02*
X82109712Y-98112282D01*
X82109712Y-98112282D02*
X82071617Y-98074187D01*
X82071617Y-98074187D02*
X81995427Y-98036091D01*
X81995427Y-98036091D02*
X81843046Y-98036091D01*
X81843046Y-98036091D02*
X81766855Y-98074187D01*
X81385902Y-98036091D02*
X81385902Y-98569425D01*
X81385902Y-98112282D02*
X81347807Y-98074187D01*
X81347807Y-98074187D02*
X81271617Y-98036091D01*
X81271617Y-98036091D02*
X81157331Y-98036091D01*
X81157331Y-98036091D02*
X81081140Y-98074187D01*
X81081140Y-98074187D02*
X81043045Y-98150377D01*
X81043045Y-98150377D02*
X81043045Y-98569425D01*
X80357330Y-98531330D02*
X80433521Y-98569425D01*
X80433521Y-98569425D02*
X80585902Y-98569425D01*
X80585902Y-98569425D02*
X80662092Y-98531330D01*
X80662092Y-98531330D02*
X80700188Y-98455139D01*
X80700188Y-98455139D02*
X80700188Y-98150377D01*
X80700188Y-98150377D02*
X80662092Y-98074187D01*
X80662092Y-98074187D02*
X80585902Y-98036091D01*
X80585902Y-98036091D02*
X80433521Y-98036091D01*
X80433521Y-98036091D02*
X80357330Y-98074187D01*
X80357330Y-98074187D02*
X80319235Y-98150377D01*
X80319235Y-98150377D02*
X80319235Y-98226568D01*
X80319235Y-98226568D02*
X80700188Y-98302758D01*
X79633521Y-98569425D02*
X79633521Y-97769425D01*
X79633521Y-98531330D02*
X79709712Y-98569425D01*
X79709712Y-98569425D02*
X79862093Y-98569425D01*
X79862093Y-98569425D02*
X79938283Y-98531330D01*
X79938283Y-98531330D02*
X79976378Y-98493234D01*
X79976378Y-98493234D02*
X80014474Y-98417044D01*
X80014474Y-98417044D02*
X80014474Y-98188472D01*
X80014474Y-98188472D02*
X79976378Y-98112282D01*
X79976378Y-98112282D02*
X79938283Y-98074187D01*
X79938283Y-98074187D02*
X79862093Y-98036091D01*
X79862093Y-98036091D02*
X79709712Y-98036091D01*
X79709712Y-98036091D02*
X79633521Y-98074187D01*
X78643044Y-98569425D02*
X78643044Y-97769425D01*
X78643044Y-97769425D02*
X78452568Y-97769425D01*
X78452568Y-97769425D02*
X78338282Y-97807520D01*
X78338282Y-97807520D02*
X78262092Y-97883710D01*
X78262092Y-97883710D02*
X78223997Y-97959901D01*
X78223997Y-97959901D02*
X78185901Y-98112282D01*
X78185901Y-98112282D02*
X78185901Y-98226568D01*
X78185901Y-98226568D02*
X78223997Y-98378949D01*
X78223997Y-98378949D02*
X78262092Y-98455139D01*
X78262092Y-98455139D02*
X78338282Y-98531330D01*
X78338282Y-98531330D02*
X78452568Y-98569425D01*
X78452568Y-98569425D02*
X78643044Y-98569425D01*
X77500187Y-98569425D02*
X77500187Y-98150377D01*
X77500187Y-98150377D02*
X77538282Y-98074187D01*
X77538282Y-98074187D02*
X77614473Y-98036091D01*
X77614473Y-98036091D02*
X77766854Y-98036091D01*
X77766854Y-98036091D02*
X77843044Y-98074187D01*
X77500187Y-98531330D02*
X77576378Y-98569425D01*
X77576378Y-98569425D02*
X77766854Y-98569425D01*
X77766854Y-98569425D02*
X77843044Y-98531330D01*
X77843044Y-98531330D02*
X77881140Y-98455139D01*
X77881140Y-98455139D02*
X77881140Y-98378949D01*
X77881140Y-98378949D02*
X77843044Y-98302758D01*
X77843044Y-98302758D02*
X77766854Y-98264663D01*
X77766854Y-98264663D02*
X77576378Y-98264663D01*
X77576378Y-98264663D02*
X77500187Y-98226568D01*
X77233520Y-98036091D02*
X76928758Y-98036091D01*
X77119234Y-97769425D02*
X77119234Y-98455139D01*
X77119234Y-98455139D02*
X77081139Y-98531330D01*
X77081139Y-98531330D02*
X77004949Y-98569425D01*
X77004949Y-98569425D02*
X76928758Y-98569425D01*
X76357329Y-98531330D02*
X76433520Y-98569425D01*
X76433520Y-98569425D02*
X76585901Y-98569425D01*
X76585901Y-98569425D02*
X76662091Y-98531330D01*
X76662091Y-98531330D02*
X76700187Y-98455139D01*
X76700187Y-98455139D02*
X76700187Y-98150377D01*
X76700187Y-98150377D02*
X76662091Y-98074187D01*
X76662091Y-98074187D02*
X76585901Y-98036091D01*
X76585901Y-98036091D02*
X76433520Y-98036091D01*
X76433520Y-98036091D02*
X76357329Y-98074187D01*
X76357329Y-98074187D02*
X76319234Y-98150377D01*
X76319234Y-98150377D02*
X76319234Y-98226568D01*
X76319234Y-98226568D02*
X76700187Y-98302758D01*
X74757329Y-98493234D02*
X74719234Y-98531330D01*
X74719234Y-98531330D02*
X74757329Y-98569425D01*
X74757329Y-98569425D02*
X74795425Y-98531330D01*
X74795425Y-98531330D02*
X74757329Y-98493234D01*
X74757329Y-98493234D02*
X74757329Y-98569425D01*
X74757329Y-98074187D02*
X74719234Y-98112282D01*
X74719234Y-98112282D02*
X74757329Y-98150377D01*
X74757329Y-98150377D02*
X74795425Y-98112282D01*
X74795425Y-98112282D02*
X74757329Y-98074187D01*
X74757329Y-98074187D02*
X74757329Y-98150377D01*
X73804949Y-97845615D02*
X73766853Y-97807520D01*
X73766853Y-97807520D02*
X73690663Y-97769425D01*
X73690663Y-97769425D02*
X73500187Y-97769425D01*
X73500187Y-97769425D02*
X73423996Y-97807520D01*
X73423996Y-97807520D02*
X73385901Y-97845615D01*
X73385901Y-97845615D02*
X73347806Y-97921806D01*
X73347806Y-97921806D02*
X73347806Y-97997996D01*
X73347806Y-97997996D02*
X73385901Y-98112282D01*
X73385901Y-98112282D02*
X73843044Y-98569425D01*
X73843044Y-98569425D02*
X73347806Y-98569425D01*
X72852567Y-97769425D02*
X72776377Y-97769425D01*
X72776377Y-97769425D02*
X72700186Y-97807520D01*
X72700186Y-97807520D02*
X72662091Y-97845615D01*
X72662091Y-97845615D02*
X72623996Y-97921806D01*
X72623996Y-97921806D02*
X72585901Y-98074187D01*
X72585901Y-98074187D02*
X72585901Y-98264663D01*
X72585901Y-98264663D02*
X72623996Y-98417044D01*
X72623996Y-98417044D02*
X72662091Y-98493234D01*
X72662091Y-98493234D02*
X72700186Y-98531330D01*
X72700186Y-98531330D02*
X72776377Y-98569425D01*
X72776377Y-98569425D02*
X72852567Y-98569425D01*
X72852567Y-98569425D02*
X72928758Y-98531330D01*
X72928758Y-98531330D02*
X72966853Y-98493234D01*
X72966853Y-98493234D02*
X73004948Y-98417044D01*
X73004948Y-98417044D02*
X73043044Y-98264663D01*
X73043044Y-98264663D02*
X73043044Y-98074187D01*
X73043044Y-98074187D02*
X73004948Y-97921806D01*
X73004948Y-97921806D02*
X72966853Y-97845615D01*
X72966853Y-97845615D02*
X72928758Y-97807520D01*
X72928758Y-97807520D02*
X72852567Y-97769425D01*
X72281139Y-97845615D02*
X72243043Y-97807520D01*
X72243043Y-97807520D02*
X72166853Y-97769425D01*
X72166853Y-97769425D02*
X71976377Y-97769425D01*
X71976377Y-97769425D02*
X71900186Y-97807520D01*
X71900186Y-97807520D02*
X71862091Y-97845615D01*
X71862091Y-97845615D02*
X71823996Y-97921806D01*
X71823996Y-97921806D02*
X71823996Y-97997996D01*
X71823996Y-97997996D02*
X71862091Y-98112282D01*
X71862091Y-98112282D02*
X72319234Y-98569425D01*
X72319234Y-98569425D02*
X71823996Y-98569425D01*
X71100186Y-97769425D02*
X71481138Y-97769425D01*
X71481138Y-97769425D02*
X71519234Y-98150377D01*
X71519234Y-98150377D02*
X71481138Y-98112282D01*
X71481138Y-98112282D02*
X71404948Y-98074187D01*
X71404948Y-98074187D02*
X71214472Y-98074187D01*
X71214472Y-98074187D02*
X71138281Y-98112282D01*
X71138281Y-98112282D02*
X71100186Y-98150377D01*
X71100186Y-98150377D02*
X71062091Y-98226568D01*
X71062091Y-98226568D02*
X71062091Y-98417044D01*
X71062091Y-98417044D02*
X71100186Y-98493234D01*
X71100186Y-98493234D02*
X71138281Y-98531330D01*
X71138281Y-98531330D02*
X71214472Y-98569425D01*
X71214472Y-98569425D02*
X71404948Y-98569425D01*
X71404948Y-98569425D02*
X71481138Y-98531330D01*
X71481138Y-98531330D02*
X71519234Y-98493234D01*
X70147805Y-97731330D02*
X70833519Y-98759901D01*
X69728757Y-97769425D02*
X69652567Y-97769425D01*
X69652567Y-97769425D02*
X69576376Y-97807520D01*
X69576376Y-97807520D02*
X69538281Y-97845615D01*
X69538281Y-97845615D02*
X69500186Y-97921806D01*
X69500186Y-97921806D02*
X69462091Y-98074187D01*
X69462091Y-98074187D02*
X69462091Y-98264663D01*
X69462091Y-98264663D02*
X69500186Y-98417044D01*
X69500186Y-98417044D02*
X69538281Y-98493234D01*
X69538281Y-98493234D02*
X69576376Y-98531330D01*
X69576376Y-98531330D02*
X69652567Y-98569425D01*
X69652567Y-98569425D02*
X69728757Y-98569425D01*
X69728757Y-98569425D02*
X69804948Y-98531330D01*
X69804948Y-98531330D02*
X69843043Y-98493234D01*
X69843043Y-98493234D02*
X69881138Y-98417044D01*
X69881138Y-98417044D02*
X69919234Y-98264663D01*
X69919234Y-98264663D02*
X69919234Y-98074187D01*
X69919234Y-98074187D02*
X69881138Y-97921806D01*
X69881138Y-97921806D02*
X69843043Y-97845615D01*
X69843043Y-97845615D02*
X69804948Y-97807520D01*
X69804948Y-97807520D02*
X69728757Y-97769425D01*
X68776376Y-98036091D02*
X68776376Y-98569425D01*
X68966852Y-97731330D02*
X69157329Y-98302758D01*
X69157329Y-98302758D02*
X68662090Y-98302758D01*
X67785900Y-97731330D02*
X68471614Y-98759901D01*
X67557329Y-97845615D02*
X67519233Y-97807520D01*
X67519233Y-97807520D02*
X67443043Y-97769425D01*
X67443043Y-97769425D02*
X67252567Y-97769425D01*
X67252567Y-97769425D02*
X67176376Y-97807520D01*
X67176376Y-97807520D02*
X67138281Y-97845615D01*
X67138281Y-97845615D02*
X67100186Y-97921806D01*
X67100186Y-97921806D02*
X67100186Y-97997996D01*
X67100186Y-97997996D02*
X67138281Y-98112282D01*
X67138281Y-98112282D02*
X67595424Y-98569425D01*
X67595424Y-98569425D02*
X67100186Y-98569425D01*
X66833519Y-97769425D02*
X66338281Y-97769425D01*
X66338281Y-97769425D02*
X66604947Y-98074187D01*
X66604947Y-98074187D02*
X66490662Y-98074187D01*
X66490662Y-98074187D02*
X66414471Y-98112282D01*
X66414471Y-98112282D02*
X66376376Y-98150377D01*
X66376376Y-98150377D02*
X66338281Y-98226568D01*
X66338281Y-98226568D02*
X66338281Y-98417044D01*
X66338281Y-98417044D02*
X66376376Y-98493234D01*
X66376376Y-98493234D02*
X66414471Y-98531330D01*
X66414471Y-98531330D02*
X66490662Y-98569425D01*
X66490662Y-98569425D02*
X66719233Y-98569425D01*
X66719233Y-98569425D02*
X66795424Y-98531330D01*
X66795424Y-98531330D02*
X66833519Y-98493234D01*
X86223997Y-99552618D02*
X85614474Y-99552618D01*
X84623997Y-99857380D02*
X84623997Y-99057380D01*
X84623997Y-99057380D02*
X84433521Y-99057380D01*
X84433521Y-99057380D02*
X84319235Y-99095475D01*
X84319235Y-99095475D02*
X84243045Y-99171665D01*
X84243045Y-99171665D02*
X84204950Y-99247856D01*
X84204950Y-99247856D02*
X84166854Y-99400237D01*
X84166854Y-99400237D02*
X84166854Y-99514523D01*
X84166854Y-99514523D02*
X84204950Y-99666904D01*
X84204950Y-99666904D02*
X84243045Y-99743094D01*
X84243045Y-99743094D02*
X84319235Y-99819285D01*
X84319235Y-99819285D02*
X84433521Y-99857380D01*
X84433521Y-99857380D02*
X84623997Y-99857380D01*
X83519235Y-99819285D02*
X83595426Y-99857380D01*
X83595426Y-99857380D02*
X83747807Y-99857380D01*
X83747807Y-99857380D02*
X83823997Y-99819285D01*
X83823997Y-99819285D02*
X83862093Y-99743094D01*
X83862093Y-99743094D02*
X83862093Y-99438332D01*
X83862093Y-99438332D02*
X83823997Y-99362142D01*
X83823997Y-99362142D02*
X83747807Y-99324046D01*
X83747807Y-99324046D02*
X83595426Y-99324046D01*
X83595426Y-99324046D02*
X83519235Y-99362142D01*
X83519235Y-99362142D02*
X83481140Y-99438332D01*
X83481140Y-99438332D02*
X83481140Y-99514523D01*
X83481140Y-99514523D02*
X83862093Y-99590713D01*
X83176379Y-99819285D02*
X83100188Y-99857380D01*
X83100188Y-99857380D02*
X82947807Y-99857380D01*
X82947807Y-99857380D02*
X82871617Y-99819285D01*
X82871617Y-99819285D02*
X82833521Y-99743094D01*
X82833521Y-99743094D02*
X82833521Y-99704999D01*
X82833521Y-99704999D02*
X82871617Y-99628808D01*
X82871617Y-99628808D02*
X82947807Y-99590713D01*
X82947807Y-99590713D02*
X83062093Y-99590713D01*
X83062093Y-99590713D02*
X83138283Y-99552618D01*
X83138283Y-99552618D02*
X83176379Y-99476427D01*
X83176379Y-99476427D02*
X83176379Y-99438332D01*
X83176379Y-99438332D02*
X83138283Y-99362142D01*
X83138283Y-99362142D02*
X83062093Y-99324046D01*
X83062093Y-99324046D02*
X82947807Y-99324046D01*
X82947807Y-99324046D02*
X82871617Y-99362142D01*
X82490664Y-99857380D02*
X82490664Y-99324046D01*
X82490664Y-99057380D02*
X82528760Y-99095475D01*
X82528760Y-99095475D02*
X82490664Y-99133570D01*
X82490664Y-99133570D02*
X82452569Y-99095475D01*
X82452569Y-99095475D02*
X82490664Y-99057380D01*
X82490664Y-99057380D02*
X82490664Y-99133570D01*
X81766855Y-99324046D02*
X81766855Y-99971665D01*
X81766855Y-99971665D02*
X81804950Y-100047856D01*
X81804950Y-100047856D02*
X81843046Y-100085951D01*
X81843046Y-100085951D02*
X81919236Y-100124046D01*
X81919236Y-100124046D02*
X82033522Y-100124046D01*
X82033522Y-100124046D02*
X82109712Y-100085951D01*
X81766855Y-99819285D02*
X81843046Y-99857380D01*
X81843046Y-99857380D02*
X81995427Y-99857380D01*
X81995427Y-99857380D02*
X82071617Y-99819285D01*
X82071617Y-99819285D02*
X82109712Y-99781189D01*
X82109712Y-99781189D02*
X82147808Y-99704999D01*
X82147808Y-99704999D02*
X82147808Y-99476427D01*
X82147808Y-99476427D02*
X82109712Y-99400237D01*
X82109712Y-99400237D02*
X82071617Y-99362142D01*
X82071617Y-99362142D02*
X81995427Y-99324046D01*
X81995427Y-99324046D02*
X81843046Y-99324046D01*
X81843046Y-99324046D02*
X81766855Y-99362142D01*
X81385902Y-99324046D02*
X81385902Y-99857380D01*
X81385902Y-99400237D02*
X81347807Y-99362142D01*
X81347807Y-99362142D02*
X81271617Y-99324046D01*
X81271617Y-99324046D02*
X81157331Y-99324046D01*
X81157331Y-99324046D02*
X81081140Y-99362142D01*
X81081140Y-99362142D02*
X81043045Y-99438332D01*
X81043045Y-99438332D02*
X81043045Y-99857380D01*
X80357330Y-99819285D02*
X80433521Y-99857380D01*
X80433521Y-99857380D02*
X80585902Y-99857380D01*
X80585902Y-99857380D02*
X80662092Y-99819285D01*
X80662092Y-99819285D02*
X80700188Y-99743094D01*
X80700188Y-99743094D02*
X80700188Y-99438332D01*
X80700188Y-99438332D02*
X80662092Y-99362142D01*
X80662092Y-99362142D02*
X80585902Y-99324046D01*
X80585902Y-99324046D02*
X80433521Y-99324046D01*
X80433521Y-99324046D02*
X80357330Y-99362142D01*
X80357330Y-99362142D02*
X80319235Y-99438332D01*
X80319235Y-99438332D02*
X80319235Y-99514523D01*
X80319235Y-99514523D02*
X80700188Y-99590713D01*
X79976378Y-99857380D02*
X79976378Y-99324046D01*
X79976378Y-99476427D02*
X79938283Y-99400237D01*
X79938283Y-99400237D02*
X79900188Y-99362142D01*
X79900188Y-99362142D02*
X79823997Y-99324046D01*
X79823997Y-99324046D02*
X79747807Y-99324046D01*
X78871616Y-99857380D02*
X78871616Y-99057380D01*
X78871616Y-99057380D02*
X78414473Y-99857380D01*
X78414473Y-99857380D02*
X78414473Y-99057380D01*
X77690664Y-99857380D02*
X77690664Y-99438332D01*
X77690664Y-99438332D02*
X77728759Y-99362142D01*
X77728759Y-99362142D02*
X77804950Y-99324046D01*
X77804950Y-99324046D02*
X77957331Y-99324046D01*
X77957331Y-99324046D02*
X78033521Y-99362142D01*
X77690664Y-99819285D02*
X77766855Y-99857380D01*
X77766855Y-99857380D02*
X77957331Y-99857380D01*
X77957331Y-99857380D02*
X78033521Y-99819285D01*
X78033521Y-99819285D02*
X78071617Y-99743094D01*
X78071617Y-99743094D02*
X78071617Y-99666904D01*
X78071617Y-99666904D02*
X78033521Y-99590713D01*
X78033521Y-99590713D02*
X77957331Y-99552618D01*
X77957331Y-99552618D02*
X77766855Y-99552618D01*
X77766855Y-99552618D02*
X77690664Y-99514523D01*
X77309711Y-99857380D02*
X77309711Y-99324046D01*
X77309711Y-99400237D02*
X77271616Y-99362142D01*
X77271616Y-99362142D02*
X77195426Y-99324046D01*
X77195426Y-99324046D02*
X77081140Y-99324046D01*
X77081140Y-99324046D02*
X77004949Y-99362142D01*
X77004949Y-99362142D02*
X76966854Y-99438332D01*
X76966854Y-99438332D02*
X76966854Y-99857380D01*
X76966854Y-99438332D02*
X76928759Y-99362142D01*
X76928759Y-99362142D02*
X76852568Y-99324046D01*
X76852568Y-99324046D02*
X76738283Y-99324046D01*
X76738283Y-99324046D02*
X76662092Y-99362142D01*
X76662092Y-99362142D02*
X76623997Y-99438332D01*
X76623997Y-99438332D02*
X76623997Y-99857380D01*
X75938282Y-99819285D02*
X76014473Y-99857380D01*
X76014473Y-99857380D02*
X76166854Y-99857380D01*
X76166854Y-99857380D02*
X76243044Y-99819285D01*
X76243044Y-99819285D02*
X76281140Y-99743094D01*
X76281140Y-99743094D02*
X76281140Y-99438332D01*
X76281140Y-99438332D02*
X76243044Y-99362142D01*
X76243044Y-99362142D02*
X76166854Y-99324046D01*
X76166854Y-99324046D02*
X76014473Y-99324046D01*
X76014473Y-99324046D02*
X75938282Y-99362142D01*
X75938282Y-99362142D02*
X75900187Y-99438332D01*
X75900187Y-99438332D02*
X75900187Y-99514523D01*
X75900187Y-99514523D02*
X76281140Y-99590713D01*
X85004949Y-100840573D02*
X84395426Y-100840573D01*
X83252568Y-100764382D02*
X83252568Y-101145335D01*
X83519235Y-100345335D02*
X83252568Y-100764382D01*
X83252568Y-100764382D02*
X82985902Y-100345335D01*
X82376378Y-100612001D02*
X82376378Y-101145335D01*
X82719235Y-100612001D02*
X82719235Y-101031049D01*
X82719235Y-101031049D02*
X82681140Y-101107240D01*
X82681140Y-101107240D02*
X82604950Y-101145335D01*
X82604950Y-101145335D02*
X82490664Y-101145335D01*
X82490664Y-101145335D02*
X82414473Y-101107240D01*
X82414473Y-101107240D02*
X82376378Y-101069144D01*
X82033521Y-101107240D02*
X81957330Y-101145335D01*
X81957330Y-101145335D02*
X81804949Y-101145335D01*
X81804949Y-101145335D02*
X81728759Y-101107240D01*
X81728759Y-101107240D02*
X81690663Y-101031049D01*
X81690663Y-101031049D02*
X81690663Y-100992954D01*
X81690663Y-100992954D02*
X81728759Y-100916763D01*
X81728759Y-100916763D02*
X81804949Y-100878668D01*
X81804949Y-100878668D02*
X81919235Y-100878668D01*
X81919235Y-100878668D02*
X81995425Y-100840573D01*
X81995425Y-100840573D02*
X82033521Y-100764382D01*
X82033521Y-100764382D02*
X82033521Y-100726287D01*
X82033521Y-100726287D02*
X81995425Y-100650097D01*
X81995425Y-100650097D02*
X81919235Y-100612001D01*
X81919235Y-100612001D02*
X81804949Y-100612001D01*
X81804949Y-100612001D02*
X81728759Y-100650097D01*
X81004949Y-100612001D02*
X81004949Y-101145335D01*
X81347806Y-100612001D02*
X81347806Y-101031049D01*
X81347806Y-101031049D02*
X81309711Y-101107240D01*
X81309711Y-101107240D02*
X81233521Y-101145335D01*
X81233521Y-101145335D02*
X81119235Y-101145335D01*
X81119235Y-101145335D02*
X81043044Y-101107240D01*
X81043044Y-101107240D02*
X81004949Y-101069144D01*
X80623996Y-101145335D02*
X80623996Y-100345335D01*
X80547806Y-100840573D02*
X80319234Y-101145335D01*
X80319234Y-100612001D02*
X80623996Y-100916763D01*
X79671615Y-101107240D02*
X79747806Y-101145335D01*
X79747806Y-101145335D02*
X79900187Y-101145335D01*
X79900187Y-101145335D02*
X79976377Y-101107240D01*
X79976377Y-101107240D02*
X80014473Y-101031049D01*
X80014473Y-101031049D02*
X80014473Y-100726287D01*
X80014473Y-100726287D02*
X79976377Y-100650097D01*
X79976377Y-100650097D02*
X79900187Y-100612001D01*
X79900187Y-100612001D02*
X79747806Y-100612001D01*
X79747806Y-100612001D02*
X79671615Y-100650097D01*
X79671615Y-100650097D02*
X79633520Y-100726287D01*
X79633520Y-100726287D02*
X79633520Y-100802478D01*
X79633520Y-100802478D02*
X80014473Y-100878668D01*
X78528758Y-100764382D02*
X78528758Y-101145335D01*
X78795425Y-100345335D02*
X78528758Y-100764382D01*
X78528758Y-100764382D02*
X78262092Y-100345335D01*
X77652568Y-101145335D02*
X77652568Y-100726287D01*
X77652568Y-100726287D02*
X77690663Y-100650097D01*
X77690663Y-100650097D02*
X77766854Y-100612001D01*
X77766854Y-100612001D02*
X77919235Y-100612001D01*
X77919235Y-100612001D02*
X77995425Y-100650097D01*
X77652568Y-101107240D02*
X77728759Y-101145335D01*
X77728759Y-101145335D02*
X77919235Y-101145335D01*
X77919235Y-101145335D02*
X77995425Y-101107240D01*
X77995425Y-101107240D02*
X78033521Y-101031049D01*
X78033521Y-101031049D02*
X78033521Y-100954859D01*
X78033521Y-100954859D02*
X77995425Y-100878668D01*
X77995425Y-100878668D02*
X77919235Y-100840573D01*
X77919235Y-100840573D02*
X77728759Y-100840573D01*
X77728759Y-100840573D02*
X77652568Y-100802478D01*
X77271615Y-101145335D02*
X77271615Y-100612001D01*
X77271615Y-100688192D02*
X77233520Y-100650097D01*
X77233520Y-100650097D02*
X77157330Y-100612001D01*
X77157330Y-100612001D02*
X77043044Y-100612001D01*
X77043044Y-100612001D02*
X76966853Y-100650097D01*
X76966853Y-100650097D02*
X76928758Y-100726287D01*
X76928758Y-100726287D02*
X76928758Y-101145335D01*
X76928758Y-100726287D02*
X76890663Y-100650097D01*
X76890663Y-100650097D02*
X76814472Y-100612001D01*
X76814472Y-100612001D02*
X76700187Y-100612001D01*
X76700187Y-100612001D02*
X76623996Y-100650097D01*
X76623996Y-100650097D02*
X76585901Y-100726287D01*
X76585901Y-100726287D02*
X76585901Y-101145335D01*
X75862091Y-101145335D02*
X75862091Y-100726287D01*
X75862091Y-100726287D02*
X75900186Y-100650097D01*
X75900186Y-100650097D02*
X75976377Y-100612001D01*
X75976377Y-100612001D02*
X76128758Y-100612001D01*
X76128758Y-100612001D02*
X76204948Y-100650097D01*
X75862091Y-101107240D02*
X75938282Y-101145335D01*
X75938282Y-101145335D02*
X76128758Y-101145335D01*
X76128758Y-101145335D02*
X76204948Y-101107240D01*
X76204948Y-101107240D02*
X76243044Y-101031049D01*
X76243044Y-101031049D02*
X76243044Y-100954859D01*
X76243044Y-100954859D02*
X76204948Y-100878668D01*
X76204948Y-100878668D02*
X76128758Y-100840573D01*
X76128758Y-100840573D02*
X75938282Y-100840573D01*
X75938282Y-100840573D02*
X75862091Y-100802478D01*
X75519234Y-101107240D02*
X75443043Y-101145335D01*
X75443043Y-101145335D02*
X75290662Y-101145335D01*
X75290662Y-101145335D02*
X75214472Y-101107240D01*
X75214472Y-101107240D02*
X75176376Y-101031049D01*
X75176376Y-101031049D02*
X75176376Y-100992954D01*
X75176376Y-100992954D02*
X75214472Y-100916763D01*
X75214472Y-100916763D02*
X75290662Y-100878668D01*
X75290662Y-100878668D02*
X75404948Y-100878668D01*
X75404948Y-100878668D02*
X75481138Y-100840573D01*
X75481138Y-100840573D02*
X75519234Y-100764382D01*
X75519234Y-100764382D02*
X75519234Y-100726287D01*
X75519234Y-100726287D02*
X75481138Y-100650097D01*
X75481138Y-100650097D02*
X75404948Y-100612001D01*
X75404948Y-100612001D02*
X75290662Y-100612001D01*
X75290662Y-100612001D02*
X75214472Y-100650097D01*
X74490662Y-101145335D02*
X74490662Y-100726287D01*
X74490662Y-100726287D02*
X74528757Y-100650097D01*
X74528757Y-100650097D02*
X74604948Y-100612001D01*
X74604948Y-100612001D02*
X74757329Y-100612001D01*
X74757329Y-100612001D02*
X74833519Y-100650097D01*
X74490662Y-101107240D02*
X74566853Y-101145335D01*
X74566853Y-101145335D02*
X74757329Y-101145335D01*
X74757329Y-101145335D02*
X74833519Y-101107240D01*
X74833519Y-101107240D02*
X74871615Y-101031049D01*
X74871615Y-101031049D02*
X74871615Y-100954859D01*
X74871615Y-100954859D02*
X74833519Y-100878668D01*
X74833519Y-100878668D02*
X74757329Y-100840573D01*
X74757329Y-100840573D02*
X74566853Y-100840573D01*
X74566853Y-100840573D02*
X74490662Y-100802478D01*
X74109709Y-101145335D02*
X74109709Y-100345335D01*
X74033519Y-100840573D02*
X73804947Y-101145335D01*
X73804947Y-100612001D02*
X74109709Y-100916763D01*
X73462090Y-101145335D02*
X73462090Y-100612001D01*
X73462090Y-100345335D02*
X73500186Y-100383430D01*
X73500186Y-100383430D02*
X73462090Y-100421525D01*
X73462090Y-100421525D02*
X73423995Y-100383430D01*
X73423995Y-100383430D02*
X73462090Y-100345335D01*
X73462090Y-100345335D02*
X73462090Y-100421525D01*
M02*
