M48
; DRILL file {KiCad 9.0.1} date 2025-04-23T20:11:45+0900
; FORMAT={-:-/ absolute / metric / decimal}
; #@! TF.CreationDate,2025-04-23T20:11:45+09:00
; #@! TF.GenerationSoftware,Kicad,Pcbnew,9.0.1
; #@! TF.FileFunction,Plated,1,2,PTH
FMAT,2
METRIC
; #@! TA.AperFunction,Plated,PTH,ViaDrill
T1C0.300
; #@! TA.AperFunction,Plated,PTH,ComponentDrill
T2C0.950
%
G90
G05
T1
X26.0Y-81.0
X26.0Y-85.25
X26.0Y-89.5
X26.0Y-93.75
X26.0Y-98.25
X28.0Y-78.75
X28.0Y-86.25
X29.75Y-101.25
X30.0Y-84.0
X30.75Y-87.25
X33.5Y-78.75
X33.75Y-83.5
X33.75Y-85.5
X34.436Y-96.5
X34.5Y-91.25
X34.5Y-101.5
X36.5Y-87.75
X38.25Y-83.5
X38.75Y-78.75
X39.25Y-85.5
X42.75Y-83.5
X45.25Y-85.5
X45.75Y-78.75
X46.0Y-91.25
X46.0Y-97.5
X46.0Y-101.25
X46.25Y-83.5
X47.75Y-88.0
X48.5Y-92.5
X48.75Y-95.5
X49.75Y-78.75
X49.75Y-101.352
X50.25Y-83.5
X50.75Y-85.5
X51.5Y-87.25
X51.5Y-92.5
X51.5Y-95.5
X53.25Y-92.5
X54.0Y-83.5
X54.25Y-87.5
X56.5Y-101.25
X56.75Y-85.75
X57.0Y-78.75
X57.0Y-91.5
X59.75Y-90.5
X59.75Y-96.75
X61.25Y-78.75
X62.25Y-85.75
X62.25Y-92.5
X62.25Y-101.25
X62.5Y-95.75
X63.5Y-87.5
X64.25Y-84.0
X65.25Y-88.5
X65.5Y-92.5
X65.5Y-95.5
X67.25Y-83.5
X67.25Y-92.5
X67.75Y-87.5
X68.25Y-85.5
X69.25Y-78.5
X69.25Y-101.25
X71.25Y-83.5
X73.0Y-78.75
X73.25Y-90.75
X73.25Y-101.25
X73.5Y-85.5
X73.5Y-97.0
X75.75Y-83.5
X76.5Y-87.25
X78.5Y-101.25
X79.0Y-91.0
X79.5Y-85.5
X79.5Y-97.5
X80.0Y-83.5
X80.5Y-78.75
X83.75Y-83.5
X83.75Y-101.25
X84.25Y-78.75
X84.75Y-90.75
X84.75Y-97.5
X85.0Y-85.5
X88.0Y-83.5
X88.0Y-87.5
X89.5Y-101.25
X90.75Y-84.25
X90.75Y-87.25
X93.0Y-80.75
X93.0Y-88.75
X93.0Y-98.25
T2
X29.64Y-85.82
X32.14Y-85.82
X41.05Y-85.82
X43.55Y-85.82
X49.96Y-93.99
X52.46Y-93.99
X52.48Y-85.82
X54.96Y-93.99
X54.98Y-85.82
X63.91Y-85.82
X63.93Y-93.99
X66.41Y-85.82
X66.43Y-93.99
X68.93Y-93.99
X75.34Y-85.82
X77.84Y-85.82
X86.77Y-85.82
X89.27Y-85.82
M30
